<?xml version="1.0" standalone="no"?>
<!DOCTYPE svg PUBLIC "-//W3C//DTD SVG 20010904//EN"
 "http://www.w3.org/TR/2001/REC-SVG-20010904/DTD/svg10.dtd">
<svg version="1.0" xmlns="http://www.w3.org/2000/svg"
 width="1872.000000pt" height="1136.000000pt" viewBox="0 0 1872.000000 1136.000000"
 preserveAspectRatio="xMidYMid meet">

<g transform="translate(0.000000,1136.000000) scale(0.100000,-0.100000)"
fill="#000000" stroke="none">
<path d="M2506 10829 c-60 -22 -116 -37 -126 -34 -11 3 -20 -1 -24 -10 -3 -8
-15 -15 -26 -15 -24 0 -39 -28 -20 -40 7 -4 21 -5 33 -2 19 5 20 2 13 -38 -4
-24 -26 -104 -48 -177 -34 -107 -40 -138 -32 -160 13 -39 40 -37 37 2 -2 17 9
69 24 118 l26 87 47 0 c74 0 111 10 108 29 -3 13 -15 15 -72 12 -68 -3 -69 -3
-62 20 4 13 9 47 13 76 5 44 10 53 32 61 160 59 202 72 233 72 33 0 56 19 41
34 -16 16 -98 1 -197 -35z"/>
<path d="M8947 10793 c-7 -93 -27 -172 -67 -263 -33 -75 -37 -107 -17 -135 20
-27 39 -10 32 28 -5 24 2 50 25 101 32 71 69 216 70 273 0 25 5 32 22 35 13 2
24 11 26 21 3 14 -4 17 -41 17 l-44 0 -6 -77z"/>
<path d="M5975 10839 c-3 -8 -12 -50 -20 -94 -10 -53 -33 -118 -71 -197 -80
-169 -76 -227 12 -157 l39 31 11 -39 c6 -21 18 -39 27 -41 13 -3 15 7 12 65
-3 79 -13 86 -68 49 -20 -14 -37 -21 -37 -15 0 5 20 49 44 98 64 126 99 277
71 301 -12 10 -16 9 -20 -1z"/>
<path d="M3546 10788 c-3 -18 -7 -55 -10 -82 -4 -27 -22 -98 -41 -157 -39
-120 -50 -221 -25 -226 12 -3 18 14 27 72 7 42 26 115 42 163 28 82 55 237 45
254 -12 19 -33 6 -38 -24z"/>
<path d="M8637 10814 c-4 -4 -7 -16 -7 -26 0 -11 -11 -23 -26 -29 -15 -5 -70
-49 -122 -97 -74 -67 -101 -101 -124 -147 -87 -184 52 -306 181 -158 41 46 53
83 27 83 -7 0 -26 -18 -40 -39 -27 -38 -77 -71 -109 -71 -24 0 -47 40 -47 81
0 68 51 146 150 232 49 42 90 73 90 68 0 -5 -9 -30 -20 -56 -25 -58 -25 -75
-2 -75 43 0 79 75 83 170 2 51 -1 66 -12 68 -8 1 -18 0 -22 -4z"/>
<path d="M17344 10708 c-9 -18 -33 -55 -53 -81 l-36 -49 -56 6 c-56 7 -57 6
-88 -31 -40 -48 -40 -84 -3 -115 l29 -23 -30 -53 c-29 -51 -30 -82 -4 -82 7 0
18 15 25 33 18 50 54 93 75 89 28 -6 103 36 115 64 16 35 15 47 -8 77 -17 21
-18 26 -5 37 26 22 85 118 85 139 0 32 -27 25 -46 -11z m-131 -199 c-29 -50
-48 -62 -72 -49 -24 12 -27 31 -9 60 10 15 24 20 56 20 l43 0 -18 -31z m58
-40 c-42 -34 -54 -23 -24 22 26 40 28 41 37 19 8 -18 6 -26 -13 -41z"/>
<path d="M14959 10718 c-1 -2 -3 -19 -4 -38 -2 -21 -29 -84 -70 -157 -37 -67
-65 -130 -63 -140 5 -24 38 -30 38 -6 0 10 26 65 58 123 31 58 66 125 77 149
19 42 19 44 0 57 -17 13 -33 18 -36 12z"/>
<path d="M16262 10685 c-25 -22 -53 -37 -78 -41 -88 -13 -132 -68 -120 -150 4
-34 1 -54 -14 -83 -10 -21 -16 -41 -13 -45 15 -15 34 -3 51 31 18 34 22 36 69
38 57 2 112 29 129 64 14 28 2 80 -23 99 -17 12 -14 17 30 57 26 24 47 48 47
54 0 22 -41 10 -78 -24z m-109 -102 c3 -5 -8 -24 -24 -43 -24 -28 -29 -31 -29
-14 0 36 40 78 53 57z m100 -43 c3 -13 -3 -26 -19 -39 -23 -18 -91 -37 -100
-28 -3 2 14 28 36 56 34 43 44 50 59 41 10 -5 21 -19 24 -30z"/>
<path d="M12750 10687 c0 -13 -14 -52 -31 -85 l-31 -62 -56 2 c-45 2 -57 0
-57 -12 0 -8 9 -16 20 -18 11 -1 30 -5 43 -8 l23 -5 -27 -44 c-14 -25 -23 -52
-20 -61 7 -19 70 -46 90 -38 22 8 20 34 -1 34 -43 1 -48 16 -22 65 22 42 27
46 54 41 17 -3 57 -2 90 2 48 6 60 11 63 26 4 18 -1 19 -71 13 -41 -3 -77 -3
-80 -1 -2 2 9 30 25 61 31 62 33 106 6 111 -13 3 -18 -3 -18 -21z"/>
<path d="M15220 10683 c-62 -32 -81 -56 -62 -75 11 -11 16 -10 25 3 13 17 69
49 87 49 5 0 10 -11 10 -24 0 -27 -63 -89 -186 -184 -71 -54 -85 -74 -64 -87
12 -8 44 10 98 53 l42 34 0 -35 c0 -45 23 -60 71 -47 48 14 99 47 99 65 0 21
-17 19 -75 -11 l-50 -25 -5 43 c-5 42 -3 45 53 99 52 52 57 60 57 101 0 43
-13 68 -35 68 -6 0 -36 -12 -65 -27z"/>
<path d="M15893 10697 c-4 -6 -8 -22 -9 -35 -2 -13 -25 -72 -53 -130 -49 -104
-53 -122 -26 -122 14 0 23 18 90 168 18 40 40 79 50 86 14 10 14 14 3 22 -23
19 -47 24 -55 11z"/>
<path d="M17830 10653 c-64 -65 -80 -92 -80 -140 0 -37 -4 -44 -36 -64 -46
-28 -74 -74 -74 -122 0 -31 4 -39 24 -47 48 -18 134 22 173 81 17 26 27 54 27
81 1 35 8 47 45 83 57 54 60 90 10 140 -19 19 -36 34 -39 34 -3 -1 -25 -21
-50 -46z m84 -40 c7 -18 -61 -96 -75 -87 -5 3 -18 0 -29 -6 -17 -9 -20 -8 -20
7 0 26 27 61 64 84 38 23 52 24 60 2z m-96 -202 c-17 -46 -55 -77 -115 -95
-19 -6 -23 -4 -23 14 0 34 17 58 67 94 37 27 50 32 64 23 14 -8 15 -16 7 -36z"/>
<path d="M17540 10679 c0 -6 4 -18 9 -28 13 -23 -12 -77 -83 -180 -41 -61 -56
-91 -56 -117 0 -24 5 -34 15 -34 16 0 19 6 29 50 3 14 27 55 54 92 27 36 55
80 62 97 7 17 19 31 26 31 18 0 18 19 -1 64 -10 24 -22 36 -35 36 -11 0 -20
-5 -20 -11z"/>
<path d="M16833 10626 c-34 -17 -63 -37 -63 -43 0 -14 66 -19 72 -5 2 4 18 15
36 24 41 22 35 9 -30 -61 -26 -28 -56 -51 -66 -51 -25 0 -102 -56 -102 -74 0
-24 23 -24 73 1 45 22 47 23 47 4 0 -40 11 -51 52 -51 45 0 101 25 95 43 -4
12 -13 12 -75 0 l-33 -6 7 39 c4 25 22 56 51 88 48 54 62 89 43 111 -17 21
-35 18 -107 -19z"/>
<path d="M13111 10592 c-68 -36 -78 -54 -58 -97 15 -32 15 -33 -6 -39 -12 -3
-24 0 -28 6 -10 16 -41 1 -37 -18 6 -30 33 -39 78 -25 50 15 58 32 37 77 l-17
34 33 17 c17 10 45 18 61 18 35 0 43 16 21 39 -21 21 -21 21 -84 -12z"/>
<path d="M6183 10584 c-3 -8 1 -22 10 -31 14 -14 16 -13 26 6 7 12 9 26 6 31
-10 15 -35 12 -42 -6z"/>
<path d="M6870 10570 c-31 -8 -60 -32 -60 -52 0 -5 18 -28 40 -52 22 -24 40
-48 40 -53 0 -12 -44 -33 -70 -33 -11 0 -20 6 -20 14 0 22 -19 30 -35 16 -20
-16 -19 -26 5 -50 24 -24 56 -25 111 -4 66 27 68 74 5 133 -14 14 -26 28 -26
31 0 4 19 11 43 16 27 6 42 15 42 24 0 18 -27 21 -75 10z"/>
<path d="M6555 10536 c-18 -19 -37 -54 -43 -78 -10 -37 -9 -46 7 -68 15 -21
27 -25 81 -28 43 -2 66 1 71 10 13 21 -1 28 -61 28 -75 0 -81 17 -18 48 27 13
56 35 65 49 15 22 14 25 -7 48 -32 34 -57 31 -95 -9z m46 -38 c-34 -26 -48
-22 -21 7 12 13 27 22 33 18 6 -4 1 -14 -12 -25z"/>
<path d="M9623 10540 c-29 -12 -30 -36 -2 -50 16 -9 25 -8 40 6 23 21 24 40 3
48 -9 3 -16 6 -17 5 -1 0 -12 -4 -24 -9z"/>
<path d="M5155 10496 c-48 -50 -60 -80 -38 -101 16 -17 65 -20 92 -5 16 8 20
5 25 -20 4 -21 11 -30 26 -30 17 0 19 5 14 43 -3 23 -1 60 5 82 9 32 8 42 -6
57 -29 32 -72 23 -118 -26z m75 -20 c0 -27 -33 -56 -62 -56 -25 0 -22 13 11
49 35 37 51 39 51 7z"/>
<path d="M6395 10513 c-10 -16 -29 -41 -44 -56 l-26 -29 -5 39 c-3 25 -10 38
-20 38 -21 0 -18 -101 4 -123 14 -14 18 -14 42 9 42 38 106 128 99 139 -11 18
-32 10 -50 -17z"/>
<path d="M2531 10504 c-31 -39 -45 -92 -31 -109 31 -37 110 3 110 55 0 16 -4
32 -10 35 -5 3 -10 15 -10 26 0 28 -34 24 -59 -7z m34 -64 c3 -5 4 -10 1 -10
-2 0 -12 -3 -20 -6 -12 -5 -15 -2 -10 10 7 18 20 21 29 6z"/>
<path d="M9115 10516 c-29 -12 -85 -69 -85 -84 1 -26 21 -34 72 -30 48 4 56 2
64 -16 5 -12 16 -21 24 -21 12 0 15 15 15 70 1 39 -3 76 -8 83 -12 15 -44 15
-82 -2z m31 -62 c-18 -13 -66 -20 -66 -10 0 2 15 13 32 25 38 23 68 10 34 -15z"/>
<path d="M9347 10500 c-110 -69 -87 -160 39 -160 27 0 34 4 34 20 0 16 -7 20
-38 20 -21 0 -47 6 -57 14 -18 13 -18 15 17 50 23 23 45 36 62 36 31 0 35 24
7 39 -14 8 -29 4 -64 -19z"/>
<path d="M11144 10522 c-22 -14 -34 -52 -34 -105 0 -43 -5 -58 -23 -75 -30
-28 -57 -29 -57 -1 0 29 -34 21 -38 -9 -5 -33 15 -52 56 -52 27 0 42 8 68 36
30 31 34 42 34 89 0 86 17 106 55 65 21 -23 45 -26 45 -6 0 39 -73 80 -106 58z"/>
<path d="M2753 10510 c-34 -14 -56 -54 -48 -90 5 -21 12 -30 27 -30 17 0 20 5
15 28 -8 41 5 54 62 60 41 4 51 8 51 23 0 16 -7 19 -42 18 -24 0 -53 -4 -65
-9z"/>
<path d="M4385 10495 c-14 -13 -25 -28 -25 -34 0 -5 -9 -13 -20 -16 -21 -7
-28 -45 -8 -45 6 0 31 -9 54 -21 52 -24 149 -24 149 1 0 11 -16 16 -62 20 -75
6 -86 14 -40 29 20 7 38 19 41 27 11 28 -20 64 -55 64 -6 0 -21 -11 -34 -25z"/>
<path d="M10060 10506 c-33 -18 -73 -90 -65 -116 3 -11 15 -20 25 -20 14 0 22
11 30 43 14 52 32 67 84 67 46 0 72 12 62 29 -10 15 -106 13 -136 -3z"/>
<path d="M3677 10499 c-9 -5 -26 -27 -37 -48 -16 -32 -17 -41 -6 -56 13 -18
25 -18 83 0 21 7 22 5 17 -21 -6 -32 16 -71 34 -60 12 7 8 168 -4 187 -7 12
-65 11 -87 -2z m47 -38 c6 -9 -42 -46 -50 -39 -5 6 26 48 36 48 5 0 11 -4 14
-9z"/>
<path d="M3912 10495 c-51 -22 -96 -135 -54 -135 13 0 22 12 30 39 15 47 27
58 78 69 24 5 39 14 39 22 0 21 -52 23 -93 5z"/>
<path d="M5384 10487 c-37 -46 -79 -146 -67 -158 17 -17 29 -4 64 71 32 69 32
70 71 70 32 0 39 3 36 18 -2 12 -15 18 -44 20 -34 2 -45 -1 -60 -21z"/>
<path d="M5576 10460 c-49 -52 -58 -87 -30 -114 19 -19 53 -29 85 -24 29 4 32
32 4 36 -76 11 -80 19 -35 73 23 29 35 35 55 32 29 -6 34 13 8 33 -28 21 -37
17 -87 -36z"/>
<path d="M8660 10498 c-14 -5 -57 -8 -97 -5 -54 4 -73 2 -73 -7 0 -26 25 -36
90 -35 80 1 144 19 148 42 4 20 -27 22 -68 5z"/>
<path d="M11994 10492 c-32 -27 -101 -132 -134 -206 -35 -77 -36 -86 -11 -86
14 0 30 18 52 60 28 52 36 60 61 60 18 0 41 12 66 34 33 31 37 39 35 81 -2 71
-28 91 -69 57z m27 -86 c-9 -21 -38 -46 -55 -46 -13 0 -4 28 20 64 22 32 28
36 35 23 5 -9 5 -26 0 -41z"/>
<path d="M4174 10483 c-9 -24 -45 -63 -58 -63 -6 0 3 11 19 24 36 30 25 53
-18 37 -30 -12 -47 -39 -47 -76 0 -36 26 -43 72 -16 l38 22 -5 -43 c-15 -113
-13 -108 -49 -108 -48 0 -96 -37 -128 -99 -50 -95 -30 -151 47 -137 42 8 106
76 130 139 12 33 23 47 36 47 23 0 25 26 4 37 -13 7 -13 21 -4 93 11 88 4 150
-19 158 -7 2 -15 -5 -18 -15z m-29 -285 c-21 -70 -79 -138 -117 -138 -23 0
-23 24 1 76 22 48 64 84 98 84 21 0 23 -3 18 -22z"/>
<path d="M11709 10413 c-22 -49 -53 -115 -69 -148 -37 -77 -43 -102 -30 -110
18 -11 48 24 70 82 35 94 46 110 83 117 48 9 90 55 81 90 -7 28 -31 46 -51 39
-6 -2 -14 1 -18 6 -14 24 -28 7 -66 -76z m101 18 c0 -12 -42 -42 -49 -36 -5 6
29 45 41 45 4 0 8 -4 8 -9z"/>
<path d="M12368 10481 c-33 -27 -62 -105 -44 -120 15 -13 36 5 36 30 0 33 39
69 76 69 28 0 35 4 32 18 -5 26 -68 28 -100 3z"/>
<path d="M9756 10450 c-20 -22 -36 -49 -36 -60 0 -48 84 -91 145 -76 44 11 30
33 -25 38 -27 3 -56 11 -65 18 -14 11 -10 15 24 31 27 12 42 26 47 43 15 60
-38 63 -90 6z"/>
<path d="M11450 10460 c-14 -35 -101 -107 -139 -117 -26 -6 -41 -20 -41 -37 0
-18 75 4 116 34 29 20 45 27 50 19 4 -7 20 -9 40 -6 26 4 34 2 39 -13 7 -22
35 -34 48 -21 6 6 3 18 -7 32 -10 14 -12 27 -6 34 5 6 5 17 0 25 -8 12 -14 12
-44 -2 l-35 -17 15 34 c19 46 18 65 -5 65 -11 0 -23 -12 -31 -30z"/>
<path d="M12185 10474 c-102 -53 -100 -122 5 -127 54 -2 79 23 78 77 -2 67
-25 81 -83 50z m44 -78 c-6 -6 -29 -9 -58 -7 l-24 1 23 25 c24 25 24 25 44 6
11 -11 18 -22 15 -25z"/>
<path d="M9594 10434 c-18 -43 -15 -89 6 -89 8 0 17 15 22 39 5 22 13 45 19
52 6 7 8 18 4 24 -13 21 -36 9 -51 -26z"/>
<path d="M6089 10455 c-1 -3 -3 -17 -5 -32 -1 -16 -4 -39 -6 -52 -5 -36 19
-37 37 -1 18 36 12 90 -11 90 -8 0 -15 -2 -15 -5z"/>
<path d="M15516 10436 c-30 -47 -20 -56 32 -30 29 14 44 44 23 44 -5 0 -16 2
-24 6 -8 3 -21 -5 -31 -20z"/>
<path d="M16363 10393 c-22 -8 -14 -32 11 -39 28 -7 69 12 63 29 -4 12 -50 18
-74 10z"/>
<path d="M7322 10363 c2 -10 14 -19 26 -21 13 -2 21 -9 19 -15 -6 -19 -53 -49
-88 -56 -41 -8 -46 -35 -7 -39 37 -4 105 33 128 71 11 18 20 35 20 39 0 18
-35 38 -66 38 -28 0 -35 -4 -32 -17z"/>
<path d="M5926 10255 c-15 -15 -31 -61 -87 -247 -35 -119 -74 -178 -115 -178
-17 0 -24 5 -24 20 0 24 68 102 82 94 14 -9 38 15 31 32 -10 26 -57 16 -90
-18 -47 -51 -63 -80 -63 -113 0 -41 16 -55 62 -55 31 0 45 7 78 41 41 42 43
47 121 307 12 41 28 76 35 79 19 7 18 39 -1 47 -8 3 -21 -1 -29 -9z"/>
<path d="M12325 10225 c-49 -7 -91 -14 -92 -14 -2 -1 -3 -10 -3 -22 0 -17 5
-20 23 -16 62 15 226 29 287 25 52 -4 70 -2 74 8 3 8 -3 18 -14 24 -25 13
-163 11 -275 -5z"/>
<path d="M12673 10223 c-15 -6 -17 -33 -3 -33 20 0 -26 -146 -70 -220 -16 -28
-30 -55 -30 -60 0 -18 32 -10 62 15 44 37 50 32 43 -30 -7 -51 -6 -55 13 -55
16 0 21 9 26 54 9 67 -5 100 -39 94 l-22 -5 18 42 c10 23 26 71 35 106 9 35
20 69 25 75 16 20 -23 32 -58 17z"/>
<path d="M17043 10200 c-46 -21 -63 -35 -63 -49 0 -27 20 -38 34 -19 6 8 35
27 64 42 28 14 52 33 52 41 0 21 -17 18 -87 -15z"/>
<path d="M3317 10138 c-19 -46 -40 -100 -47 -121 -8 -25 -21 -42 -36 -47 -27
-11 -31 -25 -10 -37 9 -5 13 -23 12 -48 -2 -60 25 -53 38 10 11 49 12 50 51
55 27 3 41 10 43 23 3 13 -3 17 -28 17 -30 0 -32 2 -25 28 3 15 22 63 40 106
19 44 32 83 29 88 -14 23 -35 0 -67 -74z"/>
<path d="M3111 10190 c-8 -4 -10 -17 -6 -33 5 -19 -6 -64 -34 -148 -43 -124
-48 -162 -21 -167 11 -2 19 12 27 50 6 29 24 91 41 138 42 120 48 156 23 163
-10 2 -24 1 -30 -3z"/>
<path d="M15545 10166 c-62 -29 -96 -65 -97 -103 -1 -39 12 -60 82 -140 33
-37 60 -71 60 -75 0 -17 -47 -38 -85 -38 -55 1 -125 33 -125 59 0 48 -39 75
-41 29 -2 -39 2 -52 23 -75 71 -77 256 -63 266 19 2 20 -12 42 -58 94 -105
118 -108 147 -18 189 58 27 89 31 119 15 24 -14 24 -32 -1 -55 -21 -19 -28 -7
-8 13 18 18 -7 40 -30 26 -23 -15 -29 -82 -8 -90 49 -19 113 42 101 96 -13 60
-94 77 -180 36z"/>
<path d="M10895 10171 c-7 -12 22 -41 41 -41 17 0 18 22 2 38 -14 14 -35 16
-43 3z"/>
<path d="M16340 10135 c0 -32 -11 -70 -36 -123 -51 -109 -63 -147 -54 -162 13
-20 34 2 49 49 6 22 16 43 21 46 5 3 70 -24 144 -61 75 -36 140 -63 146 -59
23 14 7 34 -42 54 -29 13 -81 36 -115 54 l-62 31 52 31 c29 17 77 41 107 54
68 28 130 70 130 86 0 19 -27 26 -40 10 -13 -16 -279 -149 -286 -143 -2 3 3
25 12 50 20 59 16 122 -8 126 -15 3 -18 -4 -18 -43z"/>
<path d="M5087 10163 c-4 -3 -7 -20 -7 -37 -1 -17 -9 -53 -19 -81 -57 -152
-63 -175 -57 -199 4 -18 13 -26 27 -26 17 0 20 4 14 29 -4 20 4 55 30 122 35
89 58 183 47 194 -7 7 -27 6 -35 -2z"/>
<path d="M8153 10158 c-7 -12 -39 -88 -104 -247 -50 -124 -24 -169 54 -90 49
49 85 74 94 66 3 -4 0 -27 -6 -52 -15 -58 -2 -88 36 -83 33 4 42 27 13 35 -14
4 -19 11 -15 21 13 34 25 104 20 113 -8 13 -62 11 -88 -2 -12 -6 -37 -25 -54
-42 -18 -17 -33 -28 -33 -24 0 4 27 72 61 152 33 79 58 149 54 154 -8 15 -22
14 -32 -1z"/>
<path d="M7057 10149 c-12 -7 -15 -14 -8 -22 6 -8 -8 -53 -45 -140 -56 -128
-62 -167 -25 -167 9 0 35 18 56 41 l40 40 5 -53 c4 -38 9 -53 20 -53 12 0 16
17 18 78 3 76 3 77 -22 77 -13 0 -39 -12 -57 -27 -18 -16 -30 -21 -27 -13 4 8
28 64 54 123 40 91 46 110 34 117 -19 12 -21 12 -43 -1z"/>
<path d="M12422 10148 c-7 -7 -12 -16 -12 -21 0 -5 -14 -38 -30 -74 -29 -63
-53 -130 -65 -186 -4 -20 -1 -29 10 -33 22 -9 26 -2 36 52 5 26 29 92 54 147
25 55 45 106 45 114 0 16 -22 17 -38 1z"/>
<path d="M6923 10133 c-7 -2 -13 -12 -13 -21 0 -9 -10 -42 -22 -73 -21 -54
-24 -57 -75 -73 -57 -18 -72 -31 -54 -49 8 -8 19 -8 43 1 17 6 33 10 35 8 2
-1 -4 -22 -12 -46 -8 -23 -15 -53 -15 -65 0 -24 29 -43 34 -22 2 6 13 44 26
83 21 67 25 73 62 88 42 16 48 42 9 40 -24 -1 -23 12 10 82 10 22 19 43 19 47
0 8 -29 8 -47 0z"/>
<path d="M15862 10119 c-13 -5 -22 -15 -19 -21 3 -9 25 -12 73 -10 78 3 189
-30 208 -61 15 -24 -9 -64 -62 -101 -32 -23 -56 -31 -102 -34 -36 -3 -60 0
-60 6 0 5 11 40 25 76 29 78 32 109 9 104 -10 -2 -28 -35 -47 -88 -16 -47 -32
-87 -34 -89 -2 -3 -24 5 -49 17 -40 20 -45 20 -51 6 -19 -49 166 -93 266 -64
77 22 151 97 151 154 0 15 -11 37 -24 51 -48 48 -219 81 -284 54z"/>
<path d="M3523 10072 c-15 -2 -23 -10 -23 -23 0 -14 7 -19 29 -19 17 0 33 5
37 11 10 16 -17 36 -43 31z"/>
<path d="M14260 10043 c-14 -9 -29 -23 -33 -30 -4 -7 -14 -13 -22 -13 -8 0
-13 -10 -13 -28 1 -15 -2 -37 -6 -49 -4 -13 -2 -24 5 -29 17 -10 59 41 59 71
0 34 40 59 80 50 25 -6 30 -4 30 13 0 35 -59 44 -100 15z"/>
<path d="M2513 10043 c-7 -2 -13 -12 -13 -21 0 -8 -21 -53 -46 -100 -38 -70
-43 -87 -32 -98 18 -18 27 -11 88 71 45 59 52 65 46 38 -11 -46 9 -50 54 -9
22 20 42 36 44 36 3 0 -2 -20 -11 -45 -15 -47 -12 -80 8 -73 7 2 20 30 30 61
27 85 8 120 -48 87 -34 -20 -43 -17 -43 12 0 11 -7 18 -19 18 -10 0 -21 7 -25
15 -6 15 -12 17 -33 8z"/>
<path d="M16945 10041 c-47 -7 -56 -31 -31 -80 21 -40 20 -48 -5 -56 -14 -5
-31 0 -49 13 -16 12 -32 17 -40 12 -19 -12 -5 -37 31 -56 63 -32 137 14 115
73 -4 11 4 27 25 49 17 18 28 37 25 43 -8 12 -8 12 -71 2z"/>
<path d="M13104 10021 c-59 -36 -110 -129 -85 -154 14 -13 33 8 67 71 26 51
43 63 81 57 38 -7 54 12 28 32 -26 18 -54 16 -91 -6z"/>
<path d="M14427 10020 c-63 -50 -85 -128 -44 -154 51 -34 177 -27 147 8 -7 10
-23 13 -43 9 -40 -6 -87 11 -87 32 0 10 10 15 29 15 72 0 127 43 99 78 -30 39
-62 42 -101 12z m63 -30 c0 -5 -4 -10 -9 -10 -5 0 -18 -3 -28 -7 -16 -6 -16
-5 -4 10 15 19 41 23 41 7z"/>
<path d="M12838 9997 c-21 -17 -44 -48 -53 -69 -13 -33 -13 -38 3 -58 12 -15
33 -24 66 -27 43 -5 48 -4 44 13 -2 10 -12 20 -23 22 -53 8 -64 13 -59 26 3 8
12 12 20 9 24 -9 103 36 110 63 15 59 -50 72 -108 21z m58 -22 c-11 -8 -25
-15 -30 -15 -6 0 -2 7 8 15 11 8 25 15 30 15 6 0 2 -7 -8 -15z"/>
<path d="M14011 9991 c-54 -50 -53 -76 4 -76 35 0 41 -3 45 -25 3 -14 13 -26
22 -28 13 -2 17 9 23 57 4 34 11 61 16 61 17 0 9 29 -10 40 -34 18 -56 11
-100 -29z"/>
<path d="M4501 9992 c-18 -42 -92 -111 -137 -127 -43 -14 -52 -38 -17 -43 22
-3 76 20 105 45 10 9 40 16 72 16 54 2 56 1 56 -24 0 -27 26 -47 41 -32 11 13
-2 123 -15 123 -6 0 -20 -7 -30 -15 -11 -8 -28 -15 -38 -15 -17 0 -17 2 -3 37
9 20 13 43 11 50 -9 22 -33 14 -45 -15z"/>
<path d="M13264 9978 c-35 -34 -46 -52 -51 -85 -5 -36 -2 -43 18 -53 44 -24
179 -5 179 25 0 23 -14 25 -68 10 -60 -15 -92 -10 -92 15 0 22 26 45 35 31 4
-7 21 0 46 16 32 21 39 32 37 52 -2 20 -9 27 -30 29 -21 3 -39 -7 -74 -40z"/>
<path d="M4842 9990 c-23 -10 -45 -26 -48 -35 -3 -8 -10 -13 -14 -10 -14 8
-28 -18 -45 -84 -9 -35 -32 -106 -50 -159 -19 -52 -32 -99 -29 -104 21 -33 67
41 100 160 16 60 18 62 49 62 27 0 42 10 83 54 53 59 70 99 51 122 -16 19 -46
17 -97 -6z m58 -39 c-5 -11 -26 -36 -45 -57 -28 -29 -38 -35 -48 -25 -18 18
10 62 53 83 45 23 53 23 40 -1z"/>
<path d="M10790 9980 c-16 -17 -34 -47 -40 -66 -10 -30 -9 -38 6 -55 28 -32
111 -18 97 16 -4 12 -14 14 -39 9 l-34 -6 11 31 c6 17 25 42 41 55 31 24 31
46 1 46 -8 0 -28 -14 -43 -30z"/>
<path d="M3446 9978 c-25 -41 -39 -99 -27 -111 7 -7 14 -7 20 -1 10 9 51 113
51 127 0 16 -30 6 -44 -15z"/>
<path d="M7544 9986 c-3 -8 -12 -12 -20 -9 -34 13 -97 -36 -117 -89 -19 -53
100 -65 150 -15 24 24 27 36 21 96 -3 28 -25 40 -34 17z m-11 -87 c-14 -14
-83 -24 -83 -12 0 16 33 41 60 45 26 3 39 -17 23 -33z"/>
<path d="M7277 9980 c-42 -13 -56 -28 -88 -93 l-28 -58 22 -8 c26 -10 51 5 43
26 -11 27 26 82 63 94 47 15 60 27 41 39 -17 11 -16 11 -53 0z"/>
<path d="M5247 9969 c-24 -14 -67 -84 -67 -108 0 -44 64 -53 109 -16 43 37 47
60 19 101 -25 36 -33 39 -61 23z m37 -73 c-6 -16 -52 -41 -60 -33 -3 3 4 20
16 37 17 24 25 28 35 20 8 -6 12 -17 9 -24z"/>
<path d="M10217 9969 c-23 -13 -57 -81 -57 -114 0 -34 41 -51 90 -36 25 7 36
7 41 -1 4 -6 14 -8 22 -5 22 8 15 137 -9 154 -21 15 -62 16 -87 2z m57 -46 c3
-10 9 -23 12 -30 6 -13 -44 -43 -71 -43 -20 0 -19 18 5 58 22 35 44 42 54 15z"/>
<path d="M10405 9842 c-26 -75 -62 -180 -80 -232 -34 -96 -35 -110 -10 -110
15 0 40 49 89 175 24 63 35 80 49 77 53 -11 187 101 187 156 0 46 -28 62 -113
67 l-75 4 -47 -137z m183 88 c25 0 11 -41 -29 -80 -49 -47 -76 -58 -96 -37
-13 13 -12 19 6 55 25 48 58 75 86 68 11 -3 26 -6 33 -6z"/>
<path d="M7651 9930 c-43 -82 -13 -126 68 -101 80 23 135 130 72 139 -21 3
-23 0 -19 -22 4 -21 -2 -33 -29 -56 -33 -30 -73 -40 -73 -19 0 6 9 24 21 40
17 24 18 33 9 44 -19 23 -26 19 -49 -25z"/>
<path d="M5420 9918 c-37 -50 -39 -85 -7 -93 12 -4 35 -1 51 4 36 14 46 14 46
-2 0 -16 47 -40 61 -32 16 11 10 33 -11 38 -17 4 -20 10 -14 34 4 15 11 32 15
38 15 15 10 23 -23 39 -54 28 -84 21 -118 -26z m87 -16 c-13 -16 -67 -45 -73
-39 -11 11 36 52 59 52 20 0 23 -3 14 -13z"/>
<path d="M9267 9942 c-20 -22 -56 -102 -57 -124 0 -34 20 -27 69 23 60 61 75
58 67 -15 -6 -53 -1 -72 23 -78 11 -2 15 13 17 67 4 82 -13 120 -51 113 -17
-4 -25 0 -28 14 -6 23 -19 23 -40 0z"/>
<path d="M2745 9940 c-11 -18 -8 -75 4 -99 13 -24 55 -28 95 -10 28 13 49 56
44 91 -5 35 -31 28 -39 -11 -4 -18 -13 -37 -21 -42 -22 -15 -48 -10 -49 9 -1
9 -2 28 -2 41 -2 26 -21 39 -32 21z"/>
<path d="M7847 9910 c-14 -16 -28 -39 -32 -50 -13 -41 39 -86 70 -60 12 10 15
9 15 -9 0 -12 -5 -42 -11 -65 -11 -43 -12 -44 -61 -50 -28 -4 -68 -16 -90 -27
-78 -40 -91 -140 -19 -147 42 -4 133 54 163 104 13 22 26 33 35 30 18 -7 30
23 14 34 -10 5 -10 16 -2 46 16 57 13 99 -7 124 -16 20 -21 21 -41 11 -30 -17
-39 -6 -16 19 11 12 31 20 52 20 23 0 33 5 33 15 0 16 -5 19 -52 29 -21 5 -31
0 -51 -24z m3 -278 c0 -10 -45 -52 -80 -75 -50 -34 -79 -12 -42 32 24 30 122
64 122 43z"/>
<path d="M9026 9899 c-14 -17 -26 -39 -26 -49 0 -21 25 -50 43 -50 7 0 17 -10
22 -22 12 -27 65 -39 65 -14 0 8 -7 19 -15 23 -13 8 -13 15 -2 53 19 68 13 90
-28 90 -25 0 -40 -8 -59 -31z m39 -39 c-10 -11 -20 -18 -23 -15 -7 6 18 35 31
35 5 0 2 -9 -8 -20z"/>
<path d="M10980 9865 c-17 -18 -21 -28 -13 -36 15 -15 75 20 71 41 -5 24 -32
22 -58 -5z"/>
<path d="M15231 9769 c-11 -12 -45 -78 -76 -147 -78 -177 -139 -268 -199 -299
-30 -15 -45 -7 -46 25 0 26 67 86 96 87 22 0 29 5 29 20 0 51 -106 7 -147 -60
-21 -35 -22 -54 -6 -90 24 -52 82 -40 149 32 63 68 89 111 155 255 35 78 71
146 79 151 8 4 15 14 15 21 0 24 -29 26 -49 5z"/>
<path d="M3771 9745 c-29 -14 -66 -25 -82 -25 -16 0 -29 -4 -29 -9 0 -5 -33
-13 -72 -18 -60 -6 -73 -11 -76 -27 -4 -18 1 -18 76 -12 l81 7 7 -46 c10 -71
-20 -158 -74 -215 l-44 -45 -24 28 c-22 25 -24 37 -24 123 0 87 -1 94 -20 94
-19 0 -20 -7 -20 -97 0 -109 17 -155 66 -173 83 -32 195 149 179 288 l-6 57
61 25 c34 14 64 31 67 38 12 28 -14 31 -66 7z"/>
<path d="M9789 9768 c-1 -2 -3 -23 -4 -48 -3 -44 -61 -204 -111 -302 -38 -75
-17 -104 38 -51 l28 27 -7 -34 c-12 -57 -9 -84 8 -88 12 -2 19 13 29 67 15 79
9 106 -20 98 -11 -3 -20 -3 -20 -1 0 2 20 53 44 113 50 126 61 173 46 201 -9
17 -27 27 -31 18z"/>
<path d="M14464 9759 c-3 -6 -19 -34 -34 -63 -14 -28 -52 -100 -84 -160 -60
-114 -70 -167 -33 -174 13 -3 17 3 17 27 0 18 23 75 57 139 31 59 69 131 84
160 16 29 26 59 22 67 -6 18 -19 19 -29 4z"/>
<path d="M2375 9694 c-75 -39 -99 -84 -97 -181 1 -62 -2 -73 -16 -73 -30 -1
-102 -39 -102 -54 0 -25 15 -26 56 -6 59 31 68 27 60 -22 -13 -81 -87 -208
-110 -189 -7 6 -18 6 -26 1 -11 -7 -11 -12 4 -34 24 -37 40 -33 80 20 53 69
86 144 93 207 5 52 7 55 31 54 37 -3 39 22 3 36 -33 12 -37 26 -32 97 3 47 27
83 67 105 27 15 36 16 49 5 12 -10 18 -10 30 0 47 39 -27 67 -90 34z"/>
<path d="M7376 9678 c-3 -7 -14 -46 -25 -85 l-22 -73 -54 0 c-48 0 -55 -2 -55
-20 0 -17 7 -20 50 -20 49 0 49 0 40 -26 -19 -50 -12 -90 21 -118 17 -14 43
-26 58 -26 28 0 71 35 71 58 0 17 -25 15 -40 -3 -16 -19 -39 -19 -64 0 -17 13
-18 21 -10 62 l9 48 85 10 c71 8 85 13 88 29 4 18 -1 18 -78 12 -78 -7 -82 -7
-75 11 19 47 44 137 39 145 -8 12 -34 10 -38 -4z"/>
<path d="M5650 9645 c-16 -19 -4 -35 26 -35 19 0 24 5 24 25 0 29 -29 35 -50
10z"/>
<path d="M6835 9623 c-24 -116 -91 -293 -112 -293 -5 0 -18 7 -29 15 -18 12
-22 28 -27 102 -5 97 -12 123 -32 123 -19 0 -23 -8 -35 -86 -7 -48 -20 -82
-41 -113 -28 -40 -32 -71 -10 -71 12 0 57 57 70 90 10 25 10 25 10 -6 1 -21
11 -40 34 -61 45 -42 63 -47 88 -22 46 46 139 298 124 336 -8 23 -34 14 -40
-14z"/>
<path d="M9406 9565 c-33 -25 -63 -45 -68 -45 -12 0 -10 -28 3 -36 6 -3 37 12
70 35 32 22 61 41 64 41 6 0 -9 -29 -83 -160 -50 -88 -34 -138 28 -92 l29 22
11 -34 c6 -18 19 -41 29 -50 42 -38 83 21 106 154 18 105 20 110 41 110 9 0
14 7 12 18 -2 11 -12 17 -28 17 -33 0 -48 -33 -65 -140 -21 -131 -45 -157 -63
-70 -9 46 -32 56 -65 28 -16 -14 -13 -5 12 37 53 90 83 158 79 182 -5 40 -46
33 -112 -17z"/>
<path d="M13794 9528 c-22 -24 -48 -55 -60 -69 -11 -15 -48 -41 -82 -58 -34
-17 -62 -38 -62 -46 0 -21 24 -19 76 9 39 20 51 23 76 14 23 -8 37 -7 62 4 31
15 32 15 31 -11 0 -21 5 -27 29 -29 36 -4 58 14 35 31 -11 8 -14 23 -11 48 6
51 -11 56 -67 20 -63 -41 -70 -39 -22 4 42 38 67 86 57 110 -9 23 -20 18 -62
-27z"/>
<path d="M11338 9513 c-14 -16 -39 -49 -57 -75 -18 -27 -35 -48 -40 -48 -12 0
-62 -81 -55 -91 17 -28 62 12 131 118 21 32 41 63 46 68 4 6 21 -6 41 -29 23
-27 39 -37 50 -33 9 4 16 10 16 14 0 12 -85 103 -97 103 -5 0 -21 -12 -35 -27z"/>
<path d="M3782 9486 c-39 -45 -48 -74 -29 -93 12 -13 21 -13 48 -4 42 14 49
14 49 -3 0 -8 7 -22 16 -31 25 -25 39 -4 25 38 -8 24 -9 42 -1 61 14 37 14 35
-25 52 -47 19 -49 19 -83 -20z m49 -36 c-30 -26 -49 -26 -26 0 10 11 25 20 34
20 12 -1 10 -5 -8 -20z"/>
<path d="M4073 9512 c-7 -4 -22 -29 -34 -56 -20 -47 -34 -51 -41 -11 -2 13
-12 21 -31 23 -34 4 -34 0 1 -65 40 -78 51 -73 112 44 20 39 24 55 16 62 -6 6
-17 7 -23 3z"/>
<path d="M11044 9491 c-42 -19 -78 -57 -90 -93 -12 -38 28 -63 99 -63 75 0
117 11 117 30 0 22 -12 24 -64 13 -49 -10 -120 -3 -111 11 2 5 26 14 52 20 52
13 93 36 93 51 0 12 -37 50 -47 50 -5 0 -26 -9 -49 -19z"/>
<path d="M13967 9408 c-30 -57 -73 -137 -96 -179 -35 -66 -39 -78 -26 -89 12
-10 24 2 72 76 55 86 59 90 130 123 83 39 146 99 141 134 -3 19 -9 22 -55 22
-34 -1 -58 -7 -71 -18 -18 -16 -19 -16 -18 4 2 51 -26 24 -77 -73z m143 17
c-18 -19 -46 -39 -63 -44 -29 -11 -29 -10 -15 12 18 27 75 67 96 67 11 0 5
-11 -18 -35z"/>
<path d="M14485 9465 c-34 -33 -45 -52 -45 -75 0 -59 72 -60 133 -2 31 29 35
66 11 100 -23 33 -50 27 -99 -23z m75 -29 c0 -11 -31 -35 -62 -48 -27 -11 -22
12 8 43 25 26 54 29 54 5z"/>
<path d="M4191 9475 c-41 -29 -51 -43 -51 -71 0 -39 84 -49 115 -14 l18 20 27
-25 c29 -28 80 -38 87 -18 2 7 -12 19 -31 27 -23 10 -42 27 -52 49 -15 30 -50
58 -72 57 -4 -1 -22 -12 -41 -25z m45 -51 c-11 -8 -29 -14 -40 -14 -19 1 -18
3 9 25 20 17 33 21 40 14 7 -7 4 -15 -9 -25z"/>
<path d="M6975 9482 c-57 -48 -72 -109 -33 -136 38 -27 183 -15 183 14 0 12
-16 15 -79 15 -54 0 -80 4 -83 13 -3 7 4 12 19 12 31 0 68 27 68 50 0 51 -35
66 -75 32z"/>
<path d="M10855 9478 c-9 -13 -31 -45 -50 -72 l-34 -49 -7 29 c-10 41 -24 57
-39 44 -17 -14 0 -72 27 -97 25 -23 42 -11 90 58 21 30 44 61 53 70 8 9 15 21
15 27 0 21 -38 13 -55 -10z"/>
<path d="M14745 9488 c-52 -28 -93 -61 -98 -79 -8 -29 21 -52 55 -45 22 4 28
2 28 -12 0 -23 19 -42 42 -42 20 0 24 20 7 37 -7 7 -2 19 16 41 20 24 25 39
21 63 -2 17 -6 32 -8 34 -12 10 -46 12 -63 3z m35 -42 c0 -14 -13 -21 -63 -36
-37 -12 -25 5 21 30 45 23 42 23 42 6z"/>
<path d="M15890 9449 c-43 -44 -49 -69 -24 -90 12 -10 25 -10 54 -2 36 9 39 8
42 -11 6 -39 31 -23 44 27 7 27 15 51 18 54 3 3 -2 19 -11 34 -27 45 -72 40
-123 -12z m80 -8 c0 -14 -50 -51 -68 -51 -11 0 -8 9 13 30 28 29 55 39 55 21z"/>
<path d="M5625 9471 c-36 -15 -77 -63 -71 -85 3 -13 -5 -31 -24 -53 -36 -40
-37 -56 -8 -83 30 -27 121 -26 126 3 3 14 -4 17 -47 17 -27 0 -52 4 -55 8 -9
15 46 60 89 74 53 17 54 43 2 43 -44 0 -47 8 -10 32 19 13 28 14 31 5 5 -17
29 -15 36 3 6 16 -19 45 -37 44 -7 0 -21 -4 -32 -8z"/>
<path d="M9988 9460 c-29 -22 -54 -83 -42 -101 20 -33 125 -50 159 -26 28 21
10 38 -33 31 -20 -3 -47 -2 -60 3 -23 9 -22 9 15 34 27 17 38 31 38 49 0 33
-41 39 -77 10z"/>
<path d="M10235 9433 c-35 -49 -45 -83 -22 -83 6 0 35 16 62 36 55 39 69 30
41 -25 -21 -39 -20 -51 2 -51 20 0 52 57 52 93 0 35 -23 61 -49 54 -14 -3 -21
-1 -21 9 0 29 -31 13 -65 -33z"/>
<path d="M10497 9437 c-26 -24 -47 -49 -47 -54 0 -20 51 -61 84 -67 38 -7 112
6 129 23 22 22 -7 33 -53 21 -40 -11 -100 -6 -100 8 0 4 18 15 40 24 44 18 59
42 43 67 -19 30 -48 24 -96 -22z"/>
<path d="M12214 9470 c-14 -14 24 -129 47 -143 19 -12 8 -28 -94 -147 -22 -25
-47 -61 -58 -82 -16 -31 -16 -38 -4 -48 11 -9 20 -1 49 42 20 29 56 78 82 108
75 91 176 239 169 250 -13 21 -33 8 -70 -50 -21 -32 -42 -57 -46 -54 -4 2 -15
28 -23 58 -17 58 -36 82 -52 66z"/>
<path d="M12585 9468 c-55 -30 -112 -106 -101 -134 16 -41 113 -36 153 8 31
35 33 51 13 96 -20 44 -31 49 -65 30z m33 -71 c3 -27 -10 -39 -60 -51 -37 -9
-36 10 2 53 34 37 54 37 58 -2z"/>
<path d="M12824 9449 c-16 -17 -66 -60 -112 -96 -67 -52 -81 -67 -71 -79 13
-15 18 -13 72 30 28 22 40 27 46 18 4 -7 14 -11 22 -8 8 2 26 7 41 10 15 4 43
20 62 37 l35 30 -6 -36 c-4 -26 -2 -40 8 -46 21 -13 93 -11 114 4 29 22 10 37
-40 30 l-44 -6 6 52 c6 49 5 51 -19 51 -14 0 -31 -7 -38 -15 -7 -9 -26 -25
-42 -36 l-29 -21 29 43 c46 67 21 96 -34 38z"/>
<path d="M2624 9463 c-12 -2 -30 -13 -39 -23 -22 -24 -56 -132 -45 -144 17
-18 36 3 49 53 14 56 46 87 79 77 11 -4 24 0 31 8 10 12 8 17 -8 25 -20 11
-29 12 -67 4z"/>
<path d="M16094 9458 c-17 -26 -44 -82 -44 -90 0 -19 36 -5 72 27 47 43 62 38
53 -20 -4 -28 -2 -46 5 -50 18 -11 32 10 37 57 3 32 -1 49 -16 68 -18 22 -23
24 -50 14 -19 -8 -33 -8 -39 -2 -6 6 -13 5 -18 -4z"/>
<path d="M2415 9420 c-69 -46 -55 -149 17 -121 56 22 91 90 62 122 -22 24 -41
24 -79 -1z m49 -43 c-3 -9 -17 -23 -31 -32 -24 -16 -24 -16 -21 6 2 13 14 29
28 36 28 14 33 12 24 -10z"/>
<path d="M6328 9325 c-25 -34 -22 -45 11 -45 23 0 30 6 35 25 12 48 -17 61
-46 20z"/>
<path d="M17025 9310 c-4 -18 -3 -36 3 -42 17 -17 -4 -67 -79 -180 -67 -100
-74 -108 -102 -105 -38 3 -46 -18 -13 -35 l25 -13 -19 -44 c-24 -52 -25 -77
-4 -85 21 -8 36 2 32 22 -1 10 6 40 15 69 l18 51 92 9 c78 7 92 11 95 27 4 18
-1 19 -76 14 l-80 -6 64 97 c72 108 90 156 77 210 -11 47 -39 53 -48 11z"/>
<path d="M9171 9252 c-7 -13 -7 -22 1 -30 11 -11 -3 -64 -50 -175 l-28 -65
-26 15 c-26 16 -58 12 -58 -7 0 -6 16 -18 35 -27 26 -12 34 -21 29 -32 -4 -9
-9 -50 -11 -92 -5 -65 -3 -77 12 -83 28 -10 34 2 28 52 -3 26 0 66 6 89 l12
42 82 3 c65 2 82 6 82 18 0 12 -16 16 -72 18 -40 2 -73 5 -73 7 0 3 16 44 36
92 42 100 51 185 22 191 -9 2 -21 -5 -27 -16z"/>
<path d="M13230 9226 c0 -22 -20 -70 -56 -137 -70 -133 -124 -246 -124 -264 0
-27 22 -27 58 2 20 16 51 39 69 51 l32 22 -16 -31 c-14 -28 -14 -32 0 -46 18
-18 37 -9 37 16 0 10 7 32 15 47 36 69 1 84 -78 34 -26 -16 -47 -27 -47 -24 0
4 31 63 69 133 75 136 87 167 77 206 -10 38 -36 32 -36 -9z"/>
<path d="M3016 9198 c-3 -13 -8 -56 -11 -97 -4 -42 -19 -107 -35 -151 -16 -43
-26 -81 -23 -84 12 -12 32 -6 61 19 l30 25 6 -32 c7 -36 23 -58 42 -58 16 0
19 36 4 45 -5 3 -10 26 -10 50 0 51 -12 63 -44 41 l-24 -15 14 46 c15 48 34
213 27 226 -9 16 -33 6 -37 -15z"/>
<path d="M5561 9118 c-16 -34 -26 -68 -24 -75 7 -19 33 -16 39 5 3 9 16 40 29
67 30 61 30 65 4 65 -15 0 -27 -15 -48 -62z"/>
<path d="M6439 9121 c-30 -32 -69 -85 -88 -118 -19 -32 -58 -87 -86 -123 -81
-102 -88 -115 -72 -129 11 -9 28 6 83 76 38 49 76 89 84 90 8 0 30 5 49 9 l33
7 -8 -54 c-12 -83 -11 -104 6 -104 11 0 19 22 30 80 15 75 17 80 43 83 32 4
37 31 7 39 -16 4 -18 10 -12 37 11 50 8 159 -4 163 -6 2 -36 -23 -65 -56z m28
-101 c-11 -40 -16 -45 -51 -52 -22 -5 -41 -7 -43 -5 -2 2 21 37 49 77 45 62
53 69 56 49 1 -13 -3 -44 -11 -69z"/>
<path d="M6906 9123 c-8 -16 -24 -62 -36 -103 -26 -86 -78 -192 -91 -184 -5 3
-9 36 -9 74 0 100 -28 100 -89 -1 -11 -20 -28 -43 -37 -50 -14 -11 -14 -8 1
26 30 70 55 144 55 164 0 24 -25 45 -45 37 -18 -7 -20 -33 -2 -39 8 -3 1 -30
-25 -96 -42 -103 -44 -113 -23 -131 24 -20 63 -3 92 42 l28 41 8 -54 c4 -29
14 -60 22 -68 13 -13 19 -11 46 14 39 37 68 96 104 205 15 47 31 89 36 95 5 5
9 19 9 32 0 32 -26 29 -44 -4z"/>
<path d="M7129 9087 c-42 -28 -64 -66 -56 -98 4 -13 25 -46 47 -73 50 -60 49
-84 -2 -109 -31 -15 -44 -17 -72 -7 -49 16 -69 42 -61 78 8 37 -12 53 -32 27
-53 -74 56 -172 160 -144 54 14 87 50 87 92 0 25 -11 46 -45 86 -25 29 -45 58
-45 65 0 12 32 46 57 60 7 4 26 0 44 -9 30 -16 59 -14 59 4 0 12 -67 51 -89
51 -10 0 -33 -10 -52 -23z"/>
<path d="M15612 9067 c-18 -22 1 -31 56 -28 24 1 43 -1 41 -6 -82 -204 -82
-204 -114 -197 -16 4 -34 13 -38 20 -11 18 -33 18 -41 -1 -14 -38 69 -70 159
-62 68 7 209 54 254 86 34 24 56 72 48 103 -12 46 -112 80 -272 93 -66 6 -83
4 -93 -8z m278 -66 c52 -19 59 -37 30 -73 -25 -32 -230 -111 -246 -95 -3 2 14
48 37 101 l42 97 46 -7 c25 -4 66 -14 91 -23z"/>
<path d="M15413 8947 c-68 -131 -75 -157 -43 -157 11 0 20 6 20 13 0 7 27 64
59 127 56 106 64 140 37 140 -6 0 -39 -55 -73 -123z"/>
<path d="M3280 9047 c-30 -15 -33 -41 -4 -45 28 -4 60 31 41 46 -9 8 -20 8
-37 -1z"/>
<path d="M9740 9053 c-8 -4 -32 -17 -52 -30 -46 -28 -49 -58 -12 -103 31 -36
25 -48 -29 -57 -36 -5 -37 -5 -37 26 0 37 -23 42 -41 10 -9 -18 -7 -26 8 -48
11 -14 31 -27 44 -29 36 -4 100 20 116 44 12 19 10 25 -17 59 -16 21 -30 41
-30 46 0 4 16 17 36 30 l37 22 17 -23 c17 -23 40 -21 40 4 0 15 -42 56 -56 55
-5 0 -16 -3 -24 -6z"/>
<path d="M13855 9019 c-73 -68 -82 -141 -17 -155 15 -3 34 -8 43 -10 22 -6
142 13 174 28 35 16 33 42 -2 35 -123 -23 -152 -26 -180 -21 -18 4 -33 9 -33
13 0 3 21 15 48 25 79 32 97 59 72 107 -17 31 -56 23 -105 -22z m75 -13 c0 -8
-13 -19 -30 -25 -35 -12 -39 0 -7 22 28 20 37 21 37 3z"/>
<path d="M13432 9034 c2 -9 13 -23 25 -31 20 -14 23 -14 29 1 8 21 -13 46 -38
46 -13 0 -18 -6 -16 -16z"/>
<path d="M2309 9002 c-32 -33 -39 -47 -39 -79 0 -21 5 -44 12 -51 15 -15 53
-16 79 -2 17 10 19 7 19 -23 0 -32 23 -67 36 -54 10 10 11 167 1 167 -5 0 -25
-13 -44 -30 -18 -16 -40 -30 -48 -30 -24 0 -17 45 11 74 29 29 44 32 62 14 9
-9 15 -9 24 0 19 19 -3 46 -41 50 -26 3 -39 -4 -72 -36z"/>
<path d="M8094 9010 c-71 -34 -94 -64 -94 -123 0 -27 7 -41 29 -60 49 -41 177
-48 169 -9 -2 11 -18 15 -58 17 -67 2 -100 20 -100 55 0 32 15 52 59 78 l34
21 18 -22 c23 -29 47 -11 30 22 -20 36 -43 42 -87 21z"/>
<path d="M13660 8985 c-11 -26 -20 -49 -20 -53 0 -3 -12 -19 -27 -34 l-28 -29
-10 53 c-7 36 -15 53 -25 53 -11 0 -14 -11 -13 -45 7 -121 19 -132 87 -76 28
23 47 49 60 85 13 38 23 51 38 51 31 0 18 34 -15 38 -24 3 -29 -2 -47 -43z"/>
<path d="M2750 8973 c-18 -20 -39 -52 -47 -71 -12 -30 -12 -37 1 -57 18 -28
46 -34 101 -22 89 19 81 50 -11 41 l-64 -7 10 29 c6 16 21 42 33 58 22 27 25
28 60 17 62 -21 81 10 22 35 -52 21 -70 18 -105 -23z"/>
<path d="M3495 8987 c-8 -12 -15 -26 -15 -31 0 -14 -51 -86 -61 -86 -5 0 -9 8
-9 18 0 25 -38 64 -58 60 -22 -4 -29 -38 -8 -38 9 0 20 -16 27 -42 6 -24 13
-49 15 -55 2 -7 8 -13 14 -13 18 0 89 80 107 121 9 21 20 39 25 39 4 0 8 9 8
19 0 28 -27 33 -45 8z"/>
<path d="M8505 8977 c-36 -36 -55 -99 -38 -126 6 -9 25 -20 44 -25 63 -16 184
23 156 50 -3 3 -33 0 -66 -6 -68 -12 -101 -7 -101 16 0 10 6 13 18 10 9 -3 32
3 50 14 24 15 32 27 32 48 0 60 -45 69 -95 19z m55 -17 c0 -5 -9 -14 -20 -20
-24 -13 -26 -7 -4 14 18 18 24 20 24 6z"/>
<path d="M8763 8978 c-43 -33 -60 -65 -49 -93 7 -20 68 -20 106 0 28 15 30 14
30 -4 0 -24 25 -47 35 -31 11 17 13 120 3 126 -5 4 -22 -5 -36 -19 -33 -30
-65 -47 -88 -47 -25 0 44 59 69 60 25 0 18 34 -8 38 -11 1 -39 -13 -62 -30z"/>
<path d="M3655 8981 c-48 -29 -67 -57 -72 -104 -4 -36 -1 -48 19 -72 36 -41
116 -47 190 -13 72 34 101 59 88 78 -8 12 -13 13 -27 2 -10 -7 -42 -24 -71
-38 -75 -36 -161 -26 -162 19 0 4 18 7 40 7 57 0 94 37 85 83 -7 32 -29 57
-49 57 -6 0 -24 -8 -41 -19z m43 -67 c-5 -7 -25 -14 -45 -16 l-36 -4 38 35
c35 32 39 33 46 15 3 -10 2 -24 -3 -30z"/>
<path d="M8327 8989 c-20 -12 -67 -103 -67 -131 0 -23 29 -36 40 -17 5 7 7 16
5 20 -6 8 32 86 46 95 6 3 22 1 35 -7 19 -10 27 -10 37 0 9 10 7 16 -13 31
-28 22 -56 25 -83 9z"/>
<path d="M9413 8970 c-22 -13 -36 -32 -44 -61 -12 -39 -11 -43 10 -60 43 -35
163 -40 169 -6 3 15 -5 17 -55 17 -75 0 -101 15 -55 31 41 14 53 52 26 80 -19
18 -20 18 -51 -1z"/>
<path d="M2542 8955 c-34 -29 -55 -85 -46 -122 11 -42 38 -24 44 30 7 58 18
69 72 76 58 8 59 35 2 39 -33 2 -48 -2 -72 -23z"/>
<path d="M12842 8956 c-29 -16 -92 -93 -92 -113 0 -30 22 -53 60 -63 52 -14
112 -4 108 19 -3 12 -15 16 -55 16 -72 0 -83 14 -49 59 37 49 62 62 69 36 8
-31 37 -25 37 8 0 49 -32 64 -78 38z"/>
<path d="M12375 8923 c-19 -21 -35 -48 -35 -60 0 -30 34 -63 64 -63 13 0 30
-10 38 -22 19 -29 41 -15 33 22 -4 18 -1 33 8 42 28 28 29 54 1 87 -35 42 -66
41 -109 -6z m82 -22 c10 -16 8 -22 -12 -41 -23 -22 -55 -24 -62 -4 -5 14 35
64 50 64 7 0 17 -8 24 -19z"/>
<path d="M3225 8888 c-12 -73 -12 -72 6 -76 12 -2 20 10 29 41 14 53 11 81
-11 85 -13 2 -18 -9 -24 -50z"/>
<path d="M10708 8900 c-53 -56 -49 -84 13 -82 25 1 28 -3 31 -36 2 -28 7 -37
21 -37 16 0 19 10 21 64 1 39 7 66 14 69 21 7 13 39 -13 50 -39 18 -47 15 -87
-28z m62 -8 c0 -4 -10 -13 -22 -21 -23 -14 -23 -14 -4 8 20 22 26 25 26 13z"/>
<path d="M12603 8929 c-42 -15 -71 -110 -38 -122 17 -7 20 -3 29 38 12 47 23
55 57 43 33 -11 63 3 44 21 -19 17 -70 28 -92 20z"/>
<path d="M17083 8933 c-7 -2 -13 -17 -13 -32 0 -15 -5 -32 -11 -38 -6 -6 -9
-21 -7 -34 2 -20 10 -24 45 -27 27 -2 59 4 88 17 38 17 45 24 45 48 0 15 -4
33 -8 40 -16 26 -101 42 -139 26z m91 -39 c39 -15 -5 -54 -61 -54 -25 0 -26 0
-8 20 10 11 24 20 32 20 7 0 13 5 13 10 0 12 3 12 24 4z"/>
<path d="M10900 8911 c-5 -11 -10 -26 -10 -34 0 -7 -11 -36 -25 -63 -28 -55
-30 -70 -13 -80 7 -5 32 15 66 52 l54 59 -5 -35 c-5 -42 7 -80 27 -80 20 0 30
18 18 33 -5 7 -7 34 -3 63 4 28 5 56 3 62 -6 19 -34 14 -59 -10 -17 -16 -23
-18 -23 -7 0 8 5 20 11 26 6 6 8 16 5 22 -11 17 -34 13 -46 -8z"/>
<path d="M13346 8867 c-21 -55 -21 -79 0 -75 9 2 25 26 35 53 23 62 23 65 0
65 -12 0 -23 -14 -35 -43z"/>
<path d="M4479 8768 c-19 -38 -62 -78 -82 -78 -26 0 -18 -34 10 -38 38 -6 134
102 117 130 -10 15 -33 8 -45 -14z"/>
<path d="M6886 8733 c-33 -31 -70 -105 -96 -199 -24 -85 -33 -94 -86 -94 -49
0 -61 -11 -38 -34 10 -10 24 -14 40 -10 28 7 29 5 8 -40 -17 -34 -13 -71 6
-64 5 2 22 28 37 58 25 48 32 56 63 60 40 6 49 33 13 38 -13 2 -23 6 -23 10 0
21 54 174 73 207 26 46 67 66 97 47 28 -17 40 -15 40 8 0 46 -89 55 -134 13z"/>
<path d="M5516 8678 c-8 -29 -18 -82 -22 -118 -6 -58 -41 -183 -43 -153 -1 6
-15 16 -33 22 -38 14 -53 2 -92 -73 -34 -64 -34 -103 -1 -118 20 -9 32 -8 59
5 74 35 125 145 152 324 9 62 22 115 31 125 18 20 10 38 -17 38 -15 0 -23 -13
-34 -52z m-66 -296 c0 -26 -77 -112 -101 -112 -16 0 -9 32 16 77 22 37 30 43
55 41 17 -1 30 -4 30 -6z"/>
<path d="M15940 8724 c-647 -43 -1187 -231 -1535 -533 -560 -487 -399 -1153
373 -1539 79 -39 114 -62 117 -77 2 -11 21 -132 41 -270 20 -137 38 -253 41
-257 2 -5 9 -8 15 -8 5 0 174 77 376 171 l365 170 161 -12 c660 -49 1353 104
1796 396 347 229 526 518 507 820 -34 554 -704 1005 -1662 1121 -117 14 -486
25 -595 18z m595 -68 c825 -100 1442 -458 1585 -921 77 -250 -4 -518 -224
-739 -93 -94 -156 -142 -165 -127 -5 7 -19 11 -32 9 -20 -2 -24 -9 -24 -35 0
-29 -7 -35 -88 -83 -438 -260 -1095 -389 -1727 -339 l-136 10 -355 -164 -354
-165 -37 251 c-20 139 -37 257 -38 264 0 6 -55 38 -122 71 -353 174 -579 398
-665 657 -23 69 -27 97 -27 200 0 103 4 131 27 200 44 132 106 226 231 351
125 124 250 212 421 298 312 155 694 250 1125 280 109 8 487 -4 605 -18z"/>
<path d="M15190 7815 l0 -215 40 0 40 0 0 98 c0 90 2 100 23 120 26 25 50 28
65 9 6 -7 13 -60 14 -118 l3 -104 40 0 40 0 3 70 c2 39 0 94 -3 124 -12 95
-78 136 -155 96 l-30 -16 0 76 0 75 -40 0 -40 0 0 -215z"/>
<path d="M16539 7996 c-16 -34 3 -58 44 -54 62 6 61 70 -1 76 -26 3 -34 -2
-43 -22z"/>
<path d="M14586 7992 c-6 -10 90 -372 102 -384 5 -5 31 -8 58 -6 l48 3 32 125
c17 69 34 118 37 110 4 -8 19 -64 35 -125 l29 -110 48 -3 c26 -2 52 1 57 6 8
8 108 364 108 384 0 5 -18 8 -40 8 -45 0 -37 18 -86 -195 l-28 -119 -37 148
c-20 81 -41 152 -47 158 -5 5 -27 8 -48 6 l-38 -3 -37 -150 c-20 -82 -39 -143
-42 -135 -3 8 -20 77 -37 153 l-32 137 -38 0 c-21 0 -41 -4 -44 -8z"/>
<path d="M15583 7891 c-45 -28 -63 -61 -70 -124 -8 -74 22 -142 71 -162 42
-18 111 -19 155 -4 25 9 31 16 31 41 0 27 -3 30 -22 24 -88 -26 -148 -11 -148
39 0 24 2 24 93 27 89 3 92 4 95 28 6 37 -15 93 -43 120 -35 33 -118 39 -162
11z m111 -63 c28 -39 21 -48 -39 -48 -60 0 -71 15 -38 52 22 25 59 23 77 -4z"/>
<path d="M15947 7890 c-22 -18 -27 -19 -27 -6 0 12 -10 16 -35 16 l-35 0 0
-150 0 -150 40 0 40 0 0 94 c0 80 3 97 21 121 18 22 27 26 51 21 28 -6 29 -5
26 32 -3 31 -7 37 -29 40 -14 2 -37 -6 -52 -18z"/>
<path d="M16133 7891 c-45 -28 -63 -61 -70 -124 -8 -74 22 -142 71 -162 42
-18 111 -19 155 -4 25 9 31 16 31 41 0 27 -3 30 -22 24 -88 -26 -148 -11 -148
39 0 24 2 24 93 27 89 3 92 4 95 28 6 37 -15 93 -43 120 -35 33 -118 39 -162
11z m111 -63 c28 -39 21 -48 -39 -48 -60 0 -71 15 -38 52 22 25 59 23 77 -4z"/>
<path d="M16733 7894 c-21 -11 -36 -28 -43 -50 -17 -51 3 -83 73 -117 39 -19
57 -34 57 -46 0 -33 -47 -40 -94 -16 -34 18 -46 12 -46 -21 0 -46 95 -69 165
-40 38 16 55 42 55 83 0 41 -22 67 -79 92 -59 25 -69 37 -47 59 13 14 22 14
58 5 48 -13 58 -10 58 17 0 46 -93 66 -157 34z"/>
<path d="M16547 7893 c-4 -3 -7 -71 -7 -150 l0 -143 40 0 40 0 0 150 0 150
-33 0 c-19 0 -37 -3 -40 -7z"/>
<path d="M17070 7035 l0 -215 40 0 40 0 0 78 0 77 51 -77 c48 -76 51 -78 89
-78 25 0 40 5 40 13 0 6 -22 45 -49 86 l-50 74 45 52 c24 29 44 57 44 64 0 6
-16 11 -39 11 -35 0 -42 -5 -82 -57 l-44 -58 -3 123 -3 122 -39 0 -40 0 0
-215z"/>
<path d="M14656 7202 c-13 -39 3 -52 60 -52 l54 0 0 -165 0 -165 40 0 40 0 0
165 0 164 58 3 c56 3 57 3 57 33 l0 30 -152 3 c-141 2 -152 1 -157 -16z"/>
<path d="M16015 7208 c-3 -8 -4 -97 -3 -198 l3 -185 40 0 40 0 3 83 3 82 69 0
69 0 3 -82 3 -83 40 0 40 0 0 195 0 195 -40 0 -40 0 -3 -77 -3 -78 -69 0 -69
0 -3 78 -3 77 -38 3 c-24 2 -39 -1 -42 -10z"/>
<path d="M17648 7139 c-10 -5 -18 -21 -18 -34 0 -28 3 -30 29 -14 24 16 68 4
76 -21 10 -33 -4 -60 -36 -67 -27 -5 -29 -8 -29 -54 0 -48 1 -49 30 -49 27 0
30 3 30 30 0 17 5 30 10 30 6 0 22 11 35 25 19 18 25 35 25 67 -1 46 -12 68
-47 86 -27 15 -82 15 -105 1z"/>
<path d="M15071 7112 c-49 -24 -71 -60 -78 -123 -8 -78 21 -143 74 -165 47
-20 125 -14 161 13 39 28 62 80 62 138 0 96 -56 155 -145 155 -22 0 -55 -8
-74 -18z m111 -59 c35 -41 28 -152 -12 -173 -56 -30 -90 5 -90 92 0 45 5 63
20 78 25 25 62 26 82 3z"/>
<path d="M15453 7109 c-28 -18 -33 -19 -33 -5 0 12 -10 16 -35 16 l-35 0 0
-150 0 -150 40 0 40 0 0 98 c0 90 2 100 23 120 55 52 77 19 77 -117 l0 -101
40 0 40 0 0 98 c0 90 2 100 23 120 26 25 50 28 65 9 6 -7 13 -60 14 -118 l3
-104 40 0 40 0 3 70 c5 115 -6 174 -38 207 -37 36 -87 38 -127 4 l-28 -24 -28
24 c-35 30 -81 31 -124 3z"/>
<path d="M16450 7113 c-26 -13 -36 -26 -38 -47 -3 -24 -1 -28 15 -23 111 36
135 34 141 -17 3 -24 1 -26 -38 -26 -88 0 -148 -50 -136 -114 4 -18 15 -41 25
-50 28 -26 91 -31 129 -12 19 10 33 12 37 6 3 -6 19 -10 36 -10 l29 0 0 124
c0 117 -2 127 -23 152 -20 23 -34 28 -83 31 -43 3 -68 -1 -94 -14z m120 -185
c0 -45 -58 -76 -88 -46 -29 29 2 68 54 68 28 0 34 -4 34 -22z"/>
<path d="M16833 7111 c-26 -16 -32 -17 -37 -5 -3 8 -19 14 -36 14 l-30 0 0
-150 0 -150 40 0 40 0 0 98 c0 90 2 100 23 120 26 25 50 28 65 9 6 -7 13 -60
14 -118 l3 -104 40 0 40 0 3 70 c2 39 0 94 -3 124 -12 98 -84 139 -162 92z"/>
<path d="M17413 7114 c-21 -11 -36 -28 -43 -50 -17 -51 3 -83 73 -117 39 -19
57 -34 57 -46 0 -33 -47 -40 -94 -16 -34 18 -46 12 -46 -21 0 -46 95 -69 165
-40 38 16 55 42 55 83 0 41 -22 67 -79 92 -59 25 -69 37 -47 59 13 14 22 14
58 5 48 -13 58 -10 58 17 0 46 -93 66 -157 34z"/>
<path d="M6356 8698 c-10 -59 -46 -206 -55 -230 -9 -25 -16 -28 -54 -28 -48 0
-58 -5 -50 -26 3 -8 19 -14 40 -14 29 0 34 -3 30 -17 -28 -100 -31 -113 -20
-124 15 -15 33 -3 33 21 0 10 10 43 21 74 19 49 26 57 58 65 20 5 55 15 78 21
23 6 45 15 49 21 14 23 -13 27 -74 12 -34 -9 -65 -13 -68 -11 -2 3 1 18 7 34
16 42 49 206 43 216 -10 16 -34 7 -38 -14z"/>
<path d="M8565 8706 c-15 -11 -17 -17 -7 -28 9 -12 8 -30 -7 -89 -33 -127 -28
-121 -116 -138 -43 -9 -80 -21 -82 -28 -6 -17 35 -37 51 -24 6 6 30 13 53 17
l41 6 -30 -83 c-16 -46 -28 -95 -26 -109 4 -30 31 -34 36 -5 2 11 17 61 33
112 29 89 31 91 67 100 44 11 51 38 9 38 -21 -1 -26 3 -21 15 12 30 42 157 46
190 3 39 -15 50 -47 26z"/>
<path d="M10514 8682 c-5 -4 -27 -61 -48 -127 -21 -66 -52 -155 -68 -198 -37
-96 -29 -115 29 -72 21 15 50 42 65 59 l27 31 -6 -57 c-5 -48 -3 -59 11 -64 9
-4 19 -5 21 -3 2 2 6 41 10 87 8 81 7 82 -16 82 -13 0 -39 -16 -60 -36 l-38
-37 48 150 c26 82 51 154 54 160 9 14 -15 34 -29 25z"/>
<path d="M8687 8674 c-3 -3 -4 -18 -1 -33 3 -16 -11 -69 -36 -141 -71 -198
-85 -249 -71 -263 14 -14 48 21 103 105 17 27 33 47 34 45 2 -1 -2 -22 -8 -45
-11 -44 -5 -76 13 -70 12 4 48 127 49 165 0 54 -48 39 -90 -27 -18 -28 -33
-50 -35 -50 -1 0 17 55 41 123 49 136 61 187 46 187 -6 0 -17 2 -24 5 -8 3
-17 3 -21 -1z"/>
<path d="M4042 8627 c-5 -6 -13 -32 -17 -57 -3 -25 -15 -76 -25 -115 -27 -100
-30 -168 -8 -173 13 -2 18 7 23 45 4 26 17 93 31 147 25 104 30 151 15 160 -5
3 -13 0 -19 -7z"/>
<path d="M5238 8543 c-22 -25 -12 -43 23 -43 27 0 30 3 27 27 -4 33 -28 41
-50 16z"/>
<path d="M2996 8521 c-10 -16 5 -42 23 -39 21 4 21 42 -1 46 -9 2 -19 -1 -22
-7z"/>
<path d="M6544 8515 c-4 -9 -2 -21 4 -27 15 -15 44 -1 40 19 -4 23 -36 29 -44
8z"/>
<path d="M10733 8513 c-14 -3 -23 -12 -23 -23 0 -19 19 -30 51 -30 16 0 20 6
17 27 -3 28 -10 33 -45 26z"/>
<path d="M8902 8484 c-58 -46 -91 -141 -60 -172 23 -23 160 -9 196 20 9 8 9
14 2 23 -9 10 -20 10 -57 -1 -69 -21 -113 -19 -113 5 0 11 9 23 22 27 39 12
128 74 128 89 0 18 -31 35 -62 35 -13 0 -38 -12 -56 -26z"/>
<path d="M9875 8491 c-48 -29 -87 -80 -83 -110 4 -33 46 -50 88 -34 23 8 27 8
23 -2 -7 -21 16 -55 37 -55 20 0 28 24 11 34 -14 9 0 58 25 93 13 17 24 34 24
37 0 7 -77 56 -87 56 -5 0 -22 -8 -38 -19z m53 -33 c16 -16 -1 -44 -38 -63
-65 -34 -79 -10 -24 41 39 37 45 39 62 22z"/>
<path d="M10113 8490 c-20 -8 -43 -60 -43 -97 0 -7 -7 -13 -15 -13 -12 0 -14
-9 -11 -36 9 -72 38 -57 61 33 22 82 27 88 55 73 17 -9 25 -9 34 0 8 9 5 16
-13 31 -25 21 -35 22 -68 9z"/>
<path d="M10964 8433 c-28 -60 -84 -142 -96 -143 -4 0 -8 24 -10 53 -2 38 -7
52 -18 52 -22 0 -20 -139 3 -162 13 -13 19 -14 31 -3 24 19 102 132 111 159 4
13 18 34 31 46 27 25 23 55 -6 55 -13 0 -27 -19 -46 -57z"/>
<path d="M2473 8401 c-38 -79 -70 -111 -108 -108 -24 2 -26 -22 -3 -36 12 -8
24 -7 45 3 15 7 45 12 66 11 21 -2 45 3 54 11 14 11 15 9 9 -18 -5 -21 -2 -34
8 -43 16 -14 28 -1 33 34 2 11 8 44 14 72 17 84 -8 94 -55 22 -37 -55 -66 -54
-31 1 32 51 45 130 22 130 -10 0 -30 -29 -54 -79z"/>
<path d="M3733 8448 c-57 -64 -71 -127 -34 -148 40 -21 136 -3 168 32 27 30
-2 41 -46 17 -35 -19 -101 -26 -101 -11 1 4 15 16 32 27 42 27 70 67 62 88 -9
25 -57 21 -81 -5z"/>
<path d="M5665 8427 c-36 -36 -55 -99 -38 -126 20 -32 165 -19 152 14 -2 6
-29 8 -61 7 -66 -4 -78 11 -22 27 67 18 93 61 58 95 -24 25 -53 19 -89 -17z
m65 -16 c0 -10 -24 -21 -43 -21 -7 0 -3 7 7 15 22 17 36 19 36 6z"/>
<path d="M10214 8415 c-64 -67 -73 -137 -18 -151 32 -8 115 11 126 29 13 22
-10 31 -50 19 -81 -24 -89 -13 -43 61 28 43 32 46 64 40 22 -3 37 -1 42 7 10
16 -3 26 -44 34 -31 6 -38 2 -77 -39z"/>
<path d="M11155 8436 c-30 -30 -64 -101 -65 -134 0 -13 12 -34 26 -49 23 -23
31 -25 82 -21 64 5 162 44 162 64 0 24 -19 25 -60 4 -53 -27 -134 -37 -155
-20 -27 22 -16 39 45 70 32 16 64 38 69 49 14 25 -5 49 -46 57 -26 5 -37 1
-58 -20z m65 -21 c0 -2 -15 -12 -32 -21 l-33 -17 19 22 c17 19 46 29 46 16z"/>
<path d="M2760 8425 c-9 -11 -16 -12 -26 -4 -7 6 -18 8 -25 4 -33 -21 -54
-145 -25 -145 8 0 33 25 55 56 l40 56 13 -26 c9 -21 9 -34 0 -60 -16 -43 -15
-56 3 -56 17 0 45 50 45 82 0 12 -7 42 -16 65 -18 45 -41 56 -64 28z"/>
<path d="M3360 8414 c-27 -70 37 -140 104 -114 49 18 83 103 52 129 -17 14
-39 -9 -31 -31 6 -15 -30 -68 -46 -68 -5 0 -18 9 -30 21 -15 15 -19 28 -14 48
8 39 -21 52 -35 15z"/>
<path d="M5944 8425 c-10 -8 -31 -15 -45 -15 -31 0 -40 -9 -67 -72 -17 -39
-18 -49 -7 -58 10 -8 28 3 81 52 l67 63 -6 -47 c-5 -33 -2 -49 7 -57 20 -17
31 5 35 67 4 74 -21 100 -65 67z"/>
<path d="M7070 8427 c0 -12 -79 -97 -90 -97 -3 0 -6 10 -7 23 -2 36 -21 77
-36 77 -7 0 -22 -7 -33 -15 -18 -14 -18 -15 11 -39 17 -13 27 -27 23 -31 -4
-4 -3 -18 2 -31 8 -21 0 -37 -61 -119 -71 -97 -104 -158 -94 -175 12 -20 30
-9 46 28 25 59 159 230 238 305 40 37 69 72 66 77 -9 15 -65 12 -65 -3z"/>
<path d="M5167 8423 c-4 -3 -7 -16 -7 -28 0 -13 -7 -38 -15 -58 -12 -30 -13
-37 0 -47 17 -14 35 -5 35 17 0 9 10 36 21 60 12 24 20 45 18 47 -10 9 -46 15
-52 9z"/>
<path d="M2946 8403 c-3 -10 -8 -39 -12 -65 -5 -41 -4 -48 10 -48 19 0 30 25
40 88 5 37 4 42 -13 42 -11 0 -22 -8 -25 -17z"/>
<path d="M4106 8412 c-5 -9 42 -114 55 -122 4 -3 -18 -34 -48 -70 -55 -64
-107 -156 -97 -172 10 -16 33 -8 40 15 10 34 62 105 125 173 32 34 69 80 83
102 14 22 30 43 36 47 17 11 11 35 -10 35 -13 0 -32 -19 -56 -55 -20 -30 -39
-55 -41 -55 -2 0 -14 25 -28 55 -22 50 -45 69 -59 47z"/>
<path d="M6487 8413 c-3 -5 -8 -29 -11 -55 -6 -39 -4 -48 8 -48 21 0 36 31 36
74 0 25 -5 36 -14 36 -8 0 -17 -3 -19 -7z"/>
<path d="M3110 8358 c-45 -61 -36 -98 23 -98 27 0 28 -2 22 -32 -13 -59 -42
-135 -83 -214 -59 -111 -49 -119 54 -43 59 43 74 50 102 45 24 -3 35 -1 39 11
14 35 -52 44 -109 13 l-37 -19 25 56 c14 31 36 96 48 143 13 48 30 96 37 108
16 25 3 57 -24 57 -9 0 -19 4 -23 8 -18 17 -46 4 -74 -35z m80 -8 c0 -16 -38
-50 -56 -50 -13 0 -13 4 3 30 16 28 53 42 53 20z"/>
<path d="M10678 8373 c-20 -23 -41 -90 -33 -103 13 -20 34 -9 41 22 3 18 13
43 21 55 24 37 -1 58 -29 26z"/>
<path d="M11407 8263 c-16 -15 -6 -33 18 -33 18 0 25 5 25 20 0 20 -28 28 -43
13z"/>
<path d="M7615 7869 c-19 -17 -53 -58 -75 -92 -50 -75 -155 -282 -171 -336
-10 -34 -17 -40 -47 -46 -49 -9 -94 -34 -89 -48 5 -14 28 -13 73 1 l31 10 -14
-47 c-26 -85 -63 -255 -63 -294 0 -31 3 -38 18 -35 11 2 18 14 20 33 5 58 32
181 58 266 l26 86 59 17 c32 8 65 13 73 10 21 -8 34 25 15 37 -13 9 -37 7 -93
-7 -38 -9 -34 6 29 136 62 125 129 233 168 268 21 20 28 22 47 12 23 -12 50
-7 50 9 0 5 -18 18 -40 30 l-40 21 -35 -31z"/>
<path d="M5894 7766 c-16 -7 -47 -33 -67 -56 -38 -45 -116 -188 -136 -250 -10
-31 -17 -37 -59 -49 -72 -20 -72 -20 -72 -29 0 -25 28 -32 65 -16 l37 15 -7
-28 c-4 -15 -11 -78 -14 -140 -5 -99 -9 -114 -30 -137 -14 -15 -21 -31 -17
-41 5 -15 8 -15 27 -1 47 32 59 66 59 159 0 103 16 177 37 177 11 0 13 7 9 28
-12 50 78 234 146 299 18 18 49 36 67 39 32 7 33 6 22 -15 -13 -24 -7 -41 14
-41 16 0 39 64 31 85 -7 19 -70 19 -112 1z"/>
<path d="M1677 7708 c-14 -24 -40 -76 -58 -117 l-33 -73 -52 6 c-29 3 -58 8
-66 11 -19 7 -42 -11 -35 -28 4 -10 27 -17 66 -22 34 -4 61 -9 61 -11 0 -2
-20 -47 -45 -98 -46 -98 -52 -116 -35 -116 18 0 92 43 97 56 3 8 27 29 54 49
l49 35 0 -73 c0 -78 15 -115 43 -104 23 9 32 72 18 126 -7 25 -14 55 -17 66
-6 28 89 101 168 130 34 12 64 28 66 34 8 24 -32 22 -124 -8 -53 -18 -98 -30
-100 -29 -4 5 -7 170 -3 187 2 8 -4 16 -13 18 -11 3 -25 -10 -41 -39z m9 -163
c-2 -7 -15 -14 -29 -17 l-24 -5 26 59 26 59 3 -42 c2 -22 1 -47 -2 -54z m-41
-85 c17 -19 17 -20 -6 -40 -28 -24 -79 -53 -79 -45 0 13 51 105 59 105 4 0 16
-9 26 -20z"/>
<path d="M2317 7735 c-59 -16 -64 -21 -51 -43 6 -9 9 -30 7 -47 -5 -41 -41
-245 -57 -327 -13 -67 -7 -103 14 -82 14 14 32 96 60 264 12 69 25 132 30 141
5 9 6 26 3 37 -4 18 1 21 40 27 66 10 266 -24 285 -49 32 -41 -71 -155 -165
-182 -30 -9 -57 -13 -60 -10 -3 3 1 47 10 98 11 65 12 97 5 106 -16 19 -38 -5
-38 -42 -1 -17 -6 -60 -13 -96 -10 -49 -16 -64 -28 -62 -20 3 -63 -43 -54 -57
3 -6 17 -11 31 -11 29 0 29 0 3 -105 -17 -67 -19 -88 -9 -99 16 -20 40 -9 38
17 -2 30 32 177 41 177 13 0 74 -66 104 -115 24 -37 39 -51 60 -53 35 -4 36
20 2 42 -14 9 -34 34 -45 55 -10 22 -36 53 -57 70 -25 21 -32 32 -22 35 8 2
37 12 65 21 90 28 173 117 176 189 2 61 -21 74 -182 101 -102 17 -130 17 -193
0z"/>
<path d="M3180 7704 c0 -25 -7 -92 -16 -150 -18 -111 -16 -109 -80 -105 -31 2
-61 -20 -50 -37 3 -5 28 -8 55 -7 l49 2 -2 -71 c-1 -57 2 -71 14 -71 8 0 16 9
17 20 13 138 12 133 51 146 48 15 59 26 44 41 -9 9 -19 10 -42 1 -17 -6 -30
-8 -30 -5 0 4 7 45 15 92 8 47 15 109 15 138 0 45 -3 52 -20 52 -17 0 -20 -7
-20 -46z"/>
<path d="M9032 7738 c-7 -7 -12 -17 -12 -24 0 -7 -12 -15 -27 -18 -32 -7 -108
-66 -146 -111 -41 -50 -125 -194 -147 -252 -26 -70 -26 -124 0 -148 32 -29
124 -16 207 30 83 44 112 74 106 108 -5 24 -2 26 53 32 33 3 69 10 82 16 27
11 24 35 -4 32 -10 -1 -64 -5 -119 -9 -110 -7 -165 -24 -165 -50 0 -17 -1 -17
86 3 17 4 22 -1 26 -21 5 -24 -1 -30 -56 -61 -81 -45 -110 -55 -158 -55 l-41
0 6 49 c11 92 134 296 216 358 48 37 62 37 37 1 -33 -46 -8 -99 31 -67 25 21
51 88 55 143 3 50 -8 66 -30 44z"/>
<path d="M9321 7688 c0 -66 -18 -126 -101 -338 -51 -131 -55 -190 -15 -190 9
0 14 12 14 38 -1 20 16 80 36 132 66 169 104 284 105 320 4 82 1 100 -19 100
-17 0 -20 -7 -20 -62z"/>
<path d="M6218 7699 c-22 -12 -23 -36 -3 -41 11 -2 5 -30 -31 -138 -80 -244
-94 -321 -60 -349 7 -6 18 -6 26 -1 11 7 12 14 2 34 -13 30 1 92 74 319 36
114 43 146 35 164 -12 25 -18 27 -43 12z"/>
<path d="M11080 7570 c0 -10 6 -23 13 -27 8 -4 16 -16 20 -25 5 -15 3 -16 -18
-6 -14 6 -25 19 -25 30 0 14 -8 18 -39 18 -43 0 -70 -21 -49 -37 7 -6 41 -23
75 -38 34 -15 65 -35 68 -44 8 -19 -26 -48 -107 -91 -63 -34 -75 -47 -60 -62
8 -8 25 -5 59 9 26 11 65 24 85 27 32 6 37 4 43 -16 21 -76 48 -128 67 -128
16 0 18 5 13 33 -3 17 0 55 7 82 l13 50 50 1 c62 1 107 18 99 38 -7 19 -35 25
-85 19 -41 -6 -41 -6 -29 18 7 13 28 50 47 81 19 31 32 61 28 67 -11 19 -34
12 -51 -14 -21 -32 -102 -87 -122 -83 -9 2 -22 22 -29 47 -7 24 -18 49 -24 57
-17 21 -49 18 -49 -6z m170 -124 c0 -3 -4 -8 -10 -11 -5 -3 -10 -1 -10 4 0 6
5 11 10 11 6 0 10 -2 10 -4z m-42 -54 c2 -7 -6 -12 -17 -12 -21 0 -27 11 -14
24 9 9 26 2 31 -12z m-8 -61 c0 -6 -4 -13 -10 -16 -5 -3 -10 1 -10 9 0 9 5 16
10 16 6 0 10 -4 10 -9z"/>
<path d="M10129 7551 c-35 -19 -52 -51 -26 -51 22 0 87 29 87 39 0 24 -27 30
-61 12z"/>
<path d="M3692 7548 c-8 -8 -9 -15 -1 -25 14 -16 49 0 49 22 0 18 -31 20 -48
3z"/>
<path d="M4452 7528 c-15 -15 -15 -31 -1 -45 18 -18 39 -3 39 28 0 30 -17 38
-38 17z"/>
<path d="M4224 7508 c-6 -7 -30 -52 -54 -100 -24 -48 -47 -85 -51 -83 -3 3
-12 32 -19 65 -13 63 -25 79 -42 62 -8 -8 -6 -31 5 -78 20 -79 32 -96 65 -92
19 2 33 21 68 88 24 47 48 91 54 98 13 15 10 44 -6 49 -6 2 -15 -2 -20 -9z"/>
<path d="M5914 7485 c-8 -21 3 -45 20 -45 16 0 31 34 21 50 -9 15 -35 12 -41
-5z"/>
<path d="M6628 7474 c-46 -30 -72 -67 -64 -92 4 -11 24 -32 46 -47 22 -15 37
-31 34 -36 -9 -16 -43 -10 -62 11 -18 19 -20 19 -33 4 -12 -14 -10 -19 14 -40
34 -29 80 -31 107 -4 34 34 24 56 -44 103 -14 9 -23 23 -20 30 8 22 74 58 95
52 24 -8 39 23 18 36 -23 14 -52 9 -91 -17z"/>
<path d="M3835 7464 c-14 -15 -28 -39 -32 -53 -3 -14 -11 -29 -16 -33 -14 -8
20 -74 48 -94 36 -26 139 -14 133 15 -3 13 -13 15 -51 13 -75 -6 -82 10 -30
62 37 38 44 50 41 78 -3 29 -7 33 -35 36 -25 3 -39 -3 -58 -24z m55 -23 c0
-15 -38 -56 -45 -49 -9 9 21 58 35 58 6 0 10 -4 10 -9z"/>
<path d="M2761 7452 c-23 -22 -29 -40 -35 -95 -8 -78 0 -100 46 -123 34 -18
131 -15 151 5 20 20 -4 31 -58 25 -62 -8 -105 12 -105 46 0 15 7 20 29 20 20
0 41 11 65 33 31 29 34 37 27 63 -7 29 -41 54 -74 54 -10 0 -31 -12 -46 -28z
m76 -28 c3 -9 -2 -24 -13 -34 -17 -17 -21 -17 -38 -5 -19 14 -19 15 -1 35 22
24 43 26 52 4z"/>
<path d="M10255 7470 c-48 -20 -115 -111 -115 -156 0 -31 38 -54 88 -53 61 1
146 31 150 52 4 21 -21 22 -78 2 -49 -17 -106 -20 -115 -5 -3 6 -4 18 -1 28 4
13 17 17 50 17 54 0 100 30 104 69 6 48 -30 68 -83 46z m45 -39 c0 -19 -56
-46 -65 -31 -3 5 7 16 22 24 33 18 43 19 43 7z"/>
<path d="M10567 7460 c-14 -11 -37 -20 -51 -20 -16 0 -26 -6 -26 -15 0 -8 5
-15 10 -15 6 0 -3 -27 -20 -60 -32 -64 -38 -100 -17 -100 20 0 40 25 81 102
52 94 77 110 88 53 2 -11 10 -20 18 -20 22 0 17 65 -6 82 -25 18 -47 16 -77
-7z"/>
<path d="M3418 7431 c-47 -41 -73 -91 -64 -125 11 -43 38 -24 50 35 10 45 39
72 87 78 59 8 61 35 2 39 -34 3 -47 -2 -75 -27z"/>
<path d="M6350 7453 c-53 -20 -110 -96 -110 -146 0 -38 49 -87 87 -87 48 0
103 20 103 37 0 13 -9 14 -56 8 -45 -5 -59 -3 -75 11 -27 24 -24 29 22 44 53
18 89 61 83 97 -7 37 -23 48 -54 36z m4 -72 c-5 -4 -22 -13 -39 -19 l-30 -12
34 31 c23 21 36 28 39 20 2 -7 0 -16 -4 -20z"/>
<path d="M7571 7405 c-52 -47 -92 -155 -57 -155 17 0 46 43 46 69 0 31 41 72
80 80 45 9 47 35 3 39 -25 3 -40 -5 -72 -33z"/>
<path d="M8064 7411 c-18 -11 -35 -25 -40 -33 -6 -9 -10 -6 -14 12 -7 32 -33
37 -68 14 -15 -10 -33 -17 -40 -16 -6 2 -17 -10 -23 -25 -6 -15 -20 -47 -30
-71 -23 -51 -24 -62 -5 -62 8 0 35 29 60 65 50 69 72 90 62 59 -3 -11 -1 -25
4 -33 10 -17 36 -7 86 34 l31 25 -10 -49 c-11 -58 -5 -81 21 -81 14 0 18 9 20
53 2 28 4 68 5 87 2 42 -15 48 -59 21z"/>
<path d="M9759 7405 c-34 -26 -79 -89 -79 -113 0 -7 11 -24 25 -38 21 -21 33
-25 73 -22 34 2 47 7 47 18 0 10 -13 16 -40 18 -22 2 -45 8 -52 14 -30 24 52
113 94 102 26 -7 39 12 23 31 -18 22 -52 18 -91 -10z"/>
<path d="M10041 7408 c-33 -91 -35 -98 -23 -110 7 -7 15 -8 20 -2 14 14 42 92
42 114 0 27 -29 25 -39 -2z"/>
<path d="M3636 7398 c-2 -7 -11 -38 -21 -69 -16 -53 -15 -79 4 -79 5 0 18 22
30 49 25 60 28 111 6 111 -9 0 -17 -6 -19 -12z"/>
<path d="M4544 7390 c-37 -24 -94 -93 -94 -114 0 -29 23 -17 75 40 62 66 88
70 93 12 3 -37 24 -64 41 -54 12 8 2 85 -15 114 -18 28 -58 29 -100 2z"/>
<path d="M4794 7399 c-25 -13 -76 -88 -72 -108 7 -36 55 -38 132 -6 18 8 19 4
13 -66 -7 -99 -45 -205 -72 -202 -11 1 -43 5 -70 8 -47 6 -53 5 -80 -23 l-30
-30 -565 -5 c-555 -5 -700 -12 -990 -43 -330 -35 -547 -93 -580 -153 -6 -13
-10 -154 -10 -390 l0 -369 40 -35 c86 -73 346 -125 845 -169 90 -8 853 -13
2465 -17 l2335 -6 525 -73 525 -73 560 75 c518 69 578 75 798 80 688 17 1191
97 1263 201 11 16 14 89 14 388 0 235 -4 375 -10 388 -47 87 -455 160 -1050
189 -138 6 -1242 10 -3043 10 -2475 0 -2832 2 -2857 15 l-28 15 25 72 c28 80
49 288 31 321 -16 31 -38 20 -38 -18 0 -32 -4 -37 -45 -57 -24 -12 -48 -19
-51 -15 -10 10 23 55 46 62 12 4 20 14 18 23 -4 20 -18 23 -44 11z m-39 -418
c38 -8 37 -9 -23 -10 -40 -1 -61 3 -57 9 7 12 25 12 80 1z m-161 -92 c7 -35
56 -89 82 -89 10 0 44 27 76 60 l57 61 3018 -4 c2194 -3 3055 -7 3153 -15 422
-37 666 -79 771 -132 l39 -20 0 -365 0 -365 -48 -24 c-164 -83 -771 -156
-1301 -156 -86 0 -255 -19 -675 -75 l-561 -75 -559 75 -560 75 -2165 0 c-1324
0 -2248 4 -2376 10 -535 26 -919 90 -1008 168 -16 15 -18 42 -17 374 l1 358
39 20 c111 57 416 106 800 130 255 15 272 16 771 18 l457 2 6 -31z m122 -8
c-42 -43 -57 -44 -75 -5 -18 40 -14 44 51 44 l62 0 -38 -39z"/>
<path d="M8882 6728 c-7 -7 -12 -18 -12 -25 0 -21 -38 -91 -88 -163 -70 -101
-99 -207 -53 -198 10 2 18 19 23 47 5 28 28 75 65 130 81 121 119 221 84 221
-4 0 -12 -5 -19 -12z"/>
<path d="M3915 6690 c-4 -6 -57 -10 -126 -10 -66 0 -205 -9 -310 -21 -180 -20
-193 -20 -241 -4 -53 17 -78 15 -78 -8 0 -21 85 -42 160 -41 36 1 131 9 212
18 81 9 199 16 263 16 l115 0 -6 -27 c-8 -33 -95 -284 -115 -330 -10 -26 -11
-35 -1 -45 10 -10 19 -4 44 27 47 58 94 105 106 105 24 0 22 -28 -15 -187 -4
-18 -1 -23 13 -23 15 0 23 14 36 63 28 103 29 115 14 152 -17 39 -39 44 -85
20 l-28 -14 38 121 c22 66 39 129 39 139 0 10 5 21 10 24 8 5 7 11 -1 21 -13
16 -35 18 -44 4z"/>
<path d="M3522 6583 c-5 -10 -12 -49 -15 -88 -3 -38 -22 -123 -42 -188 -37
-119 -41 -162 -16 -162 8 0 20 25 31 65 9 36 29 108 44 160 14 52 26 115 26
141 0 25 5 50 11 56 6 6 8 16 5 22 -11 17 -34 13 -44 -6z"/>
<path d="M6080 6561 c0 -15 6 -21 21 -21 25 0 22 33 -4 38 -12 2 -17 -3 -17
-17z"/>
<path d="M7079 6483 c-69 -46 -129 -97 -129 -109 0 -23 30 -16 71 17 21 17 39
27 39 22 0 -5 -16 -33 -35 -63 -52 -83 -41 -144 19 -105 21 14 24 14 30 0 3
-9 6 -25 6 -35 0 -30 28 -52 50 -40 27 14 65 84 85 152 9 31 22 62 30 68 17
15 20 66 4 76 -19 11 -36 -18 -63 -104 -14 -46 -33 -97 -43 -115 l-16 -32 -10
25 c-5 14 -13 35 -18 48 -5 13 -17 22 -30 22 l-21 0 20 33 c11 17 25 50 32 72
7 22 17 45 21 51 6 7 4 16 -4 22 -10 9 -20 7 -38 -5z"/>
<path d="M8062 6470 c-64 -46 -52 -92 38 -152 21 -13 23 -19 14 -35 -6 -10
-24 -24 -39 -32 -25 -12 -32 -12 -54 1 -20 11 -26 22 -26 48 0 33 -4 36 -35
32 -17 -3 -11 -78 8 -94 52 -46 111 -45 162 2 45 42 40 70 -20 120 -27 23 -50
47 -50 54 0 7 15 21 34 31 27 15 37 16 49 7 21 -18 45 11 27 33 -20 24 -63 18
-108 -15z"/>
<path d="M7638 6443 c-21 -24 -23 -134 -3 -173 8 -16 24 -34 35 -40 19 -10 19
-13 -16 -83 -20 -40 -51 -94 -68 -122 -18 -27 -35 -58 -39 -69 -9 -22 9 -46
34 -46 24 0 34 17 19 35 -9 11 -5 24 20 60 65 94 213 424 200 445 -10 16 -40
6 -40 -14 0 -21 -71 -176 -81 -176 -15 0 -39 45 -39 75 0 16 4 46 10 65 7 26
7 38 -3 48 -11 10 -16 9 -29 -5z"/>
<path d="M7409 6413 c-45 -42 -73 -108 -58 -135 12 -23 55 -33 83 -20 19 8 24
6 39 -19 16 -29 40 -38 52 -18 4 5 0 18 -9 28 -20 21 -20 39 -3 81 17 38 12
71 -14 99 -28 29 -44 26 -90 -16z m70 -56 c-5 -18 -9 -33 -9 -34 0 -5 -59 -33
-70 -33 -22 0 -8 42 26 80 28 30 40 38 49 30 10 -8 11 -20 4 -43z"/>
<path d="M4141 6388 c-36 -19 -46 -32 -62 -78 -21 -61 -24 -86 -9 -95 18 -11
38 14 50 65 14 60 39 84 90 84 47 1 61 13 36 32 -28 20 -56 18 -105 -8z"/>
<path d="M4330 6388 c-51 -35 -75 -73 -74 -119 2 -68 50 -99 124 -79 43 12 58
26 42 42 -7 7 -21 6 -46 -2 -40 -13 -70 -2 -79 29 -3 15 3 23 25 32 39 16 88
57 88 73 0 12 -31 46 -42 46 -3 0 -20 -10 -38 -22z"/>
<path d="M5474 6387 c-22 -19 -32 -22 -45 -14 -26 16 -51 2 -44 -26 3 -12 -5
-56 -18 -98 -13 -41 -22 -80 -19 -87 10 -31 35 -4 83 88 29 55 54 99 55 97 2
-2 -1 -20 -7 -41 -11 -40 -7 -66 11 -66 6 0 30 18 55 41 l44 41 -6 -39 c-11
-61 -9 -75 9 -86 22 -14 49 6 32 23 -7 7 -7 30 -1 70 10 59 6 90 -11 90 -5 0
-25 -11 -45 -24 l-36 -25 2 37 c3 46 -19 53 -59 19z"/>
<path d="M6242 6376 c-34 -31 -39 -33 -49 -18 -10 15 -13 15 -26 2 -15 -15
-65 -127 -74 -167 -10 -45 25 -24 84 49 32 40 70 85 85 100 59 62 65 15 11
-89 -31 -60 -35 -74 -24 -87 20 -23 41 -20 39 7 -1 12 13 49 30 81 30 56 39
105 26 140 -11 28 -61 19 -102 -18z"/>
<path d="M4545 6367 c-79 -79 -41 -197 64 -197 37 0 125 60 129 88 5 31 -11
27 -64 -13 -49 -38 -93 -45 -114 -19 -11 13 -8 20 24 45 31 26 66 75 66 93 0
12 -34 36 -52 36 -11 0 -35 -15 -53 -33z m26 -50 c-25 -24 -30 -26 -22 -10 14
28 42 55 49 48 3 -3 -9 -20 -27 -38z"/>
<path d="M5758 6373 c-35 -38 -58 -86 -58 -123 0 -25 4 -30 25 -30 14 0 37 7
50 16 25 16 25 16 25 -13 0 -32 32 -69 49 -58 14 8 14 35 1 35 -15 0 -12 51 5
100 8 23 15 48 15 54 0 9 -67 46 -83 46 -2 0 -15 -12 -29 -27z m43 -52 c-10
-14 -29 -35 -42 -46 l-22 -20 7 20 c14 38 50 83 63 78 10 -4 8 -11 -6 -32z"/>
<path d="M5994 6362 c-6 -4 -21 -35 -33 -70 -19 -50 -21 -65 -11 -77 10 -12
16 -13 26 -4 8 6 11 15 8 20 -3 5 4 30 15 55 12 26 21 52 21 60 0 17 -13 25
-26 16z"/>
<path d="M8532 6068 c-16 -22 -22 -52 -12 -68 8 -13 12 -13 36 0 15 8 32 22
37 32 21 33 -36 66 -61 36z"/>
<path d="M7713 7395 c-3 -9 -3 -19 0 -22 4 -3 -5 -25 -18 -48 -27 -46 -31 -75
-13 -93 31 -31 103 7 127 67 10 24 10 34 -3 60 -25 47 -80 69 -93 36z m57 -85
c-12 -22 -49 -54 -56 -47 -7 6 12 44 34 70 18 21 36 3 22 -23z"/>
<path d="M9484 7361 c-47 -43 -61 -75 -44 -96 17 -21 69 -18 108 5 30 18 32
19 32 2 0 -20 18 -42 35 -42 8 0 11 25 9 77 -2 84 -7 91 -69 92 -21 1 -42 -10
-71 -38z m96 -11 c0 -14 -72 -60 -95 -60 -17 0 -14 6 17 35 36 33 78 47 78 25z"/>
<path d="M4367 7373 c-3 -5 -10 -34 -18 -66 -9 -41 -9 -61 -2 -68 17 -17 30
-3 37 43 4 23 12 48 18 55 5 7 8 20 4 28 -6 16 -32 21 -39 8z"/>
<path d="M5844 7329 c-10 -23 -25 -48 -32 -56 -12 -11 -12 -19 -2 -44 17 -40
44 -35 46 8 1 18 11 49 23 69 12 20 20 43 17 50 -10 26 -33 14 -52 -27z"/>
<path d="M13155 7105 c-156 -22 -264 -55 -406 -125 -342 -169 -599 -486 -693
-856 -23 -90 -23 -601 0 -682 48 -170 114 -309 212 -445 64 -89 189 -219 257
-268 25 -18 45 -36 45 -41 0 -16 27 -37 46 -36 11 1 38 -11 62 -26 44 -28 158
-80 247 -112 44 -17 89 -19 389 -22 l339 -3 81 27 c100 33 193 74 260 116 28
17 59 31 69 30 9 0 17 6 17 14 0 8 4 14 8 14 11 0 121 98 191 170 167 171 290
405 343 653 31 145 31 399 0 544 -56 258 -181 490 -367 676 -47 47 -85 90 -85
96 0 6 -11 11 -25 11 -14 0 -25 4 -25 8 0 13 -156 110 -233 146 -40 18 -97 41
-126 51 -30 9 -62 26 -73 37 -15 15 -23 17 -33 8 -9 -8 -25 -8 -52 -1 -118 30
-300 37 -448 16z m322 -45 c43 -6 99 -15 125 -21 45 -10 47 -12 46 -45 -1 -36
-12 -44 -25 -20 -9 17 -110 66 -135 66 -26 0 -43 -70 -43 -177 l0 -93 -45 0
-45 0 -24 65 c-12 36 -29 72 -36 79 -8 7 -15 31 -17 52 -3 35 -8 41 -45 59
-23 11 -42 23 -43 27 -1 18 175 22 287 8z m-340 -24 c-10 -25 -26 -128 -32
-211 -11 -132 -52 -160 -90 -62 -13 33 -29 56 -45 64 -33 16 -50 41 -50 73 0
41 -22 64 -53 56 -18 -4 -33 -21 -51 -59 -26 -53 -66 -218 -66 -269 0 -23 -4
-28 -25 -28 -25 0 -25 1 -25 88 0 48 3 117 6 153 l7 67 86 40 c109 50 134 60
218 82 87 23 127 25 120 6z m738 -92 c52 -23 186 -107 236 -147 12 -9 17 -34
20 -97 l4 -85 -27 -3 c-24 -3 -28 1 -42 50 -16 56 -67 161 -93 189 -18 21 -61
30 -70 15 -4 -6 -8 -60 -10 -121 -1 -60 -5 -115 -8 -122 -3 -9 -25 -13 -63
-13 -56 0 -62 2 -98 40 -22 22 -42 52 -45 67 -11 47 -10 133 3 219 l12 82 60
-23 c34 -13 88 -36 121 -51z m-1209 -72 c-3 -5 -6 -69 -7 -143 l-1 -134 -84
-79 c-194 -181 -287 -362 -330 -641 -37 -246 8 -481 146 -760 33 -66 86 -156
120 -200 49 -65 60 -87 60 -118 l0 -38 -28 19 c-100 72 -269 279 -338 413
-170 337 -188 740 -46 1085 86 211 238 405 425 546 77 56 94 67 83 50z m1610
-232 c170 -191 279 -434 313 -699 43 -328 -54 -680 -257 -945 -49 -64 -200
-216 -214 -216 -4 0 -8 14 -8 31 0 25 14 43 82 107 189 178 294 388 328 655
29 235 -8 436 -126 685 -53 113 -119 221 -181 298 -30 37 -33 47 -33 108 0 64
1 67 19 54 11 -8 45 -43 77 -78z m-406 -80 c0 -5 -7 -10 -15 -10 -8 0 -15 5
-15 10 0 6 7 10 15 10 8 0 15 -4 15 -10z m305 -32 c44 -52 130 -189 179 -286
45 -89 97 -230 87 -236 -4 -3 -61 4 -126 14 -66 10 -159 21 -208 25 -48 4 -89
11 -92 15 -3 4 10 86 29 181 18 96 37 206 41 244 4 39 9 73 12 78 11 18 45 3
78 -35z m-1439 15 c-10 -26 -8 -212 3 -271 11 -55 24 -86 48 -113 11 -14 12
-25 2 -63 -6 -25 -15 -46 -20 -46 -18 0 -251 -31 -347 -47 -56 -9 -104 -14
-107 -11 -17 16 82 243 142 325 93 127 216 243 260 243 19 0 24 -4 19 -17z
m504 -334 c0 -45 -25 -77 -70 -85 -45 -9 -72 -46 -78 -103 -4 -48 -3 -51 24
-62 39 -14 56 -2 74 53 20 61 36 78 75 78 29 0 33 -4 37 -31 9 -61 -9 -129
-47 -175 -38 -46 -69 -60 -107 -49 -34 11 -144 91 -152 111 -4 9 -1 43 5 74 9
44 8 67 -1 95 -11 33 -10 39 10 60 37 39 192 93 223 78 4 -2 7 -22 7 -44z
m532 -10 c26 -19 57 -42 71 -52 38 -28 80 -112 72 -146 -10 -45 -109 -149
-155 -161 -45 -12 -64 -6 -109 35 -39 35 -121 141 -121 155 0 14 61 50 85 50
11 0 43 -24 72 -52 61 -60 81 -59 97 5 12 45 1 59 -73 97 -31 15 -69 40 -85
55 -29 27 -29 28 -10 42 32 24 104 12 156 -28z m373 -204 c127 -15 248 -31
292 -40 30 -7 45 -83 45 -230 0 -132 -7 -172 -30 -179 -31 -8 -424 -57 -428
-52 -1 0 5 42 13 91 17 99 13 135 -36 372 -8 40 -6 53 8 53 3 0 65 -7 136 -15z
m-1375 1 c0 -2 -11 -86 -24 -187 -14 -101 -28 -216 -31 -255 l-7 -70 -76 8
c-42 4 -136 15 -208 24 l-132 16 -5 37 c-16 103 -18 183 -7 256 7 44 16 87 21
96 9 17 116 38 319 64 117 14 150 17 150 11z m665 -156 c10 -11 22 -45 27 -76
5 -31 16 -70 24 -86 43 -84 -87 -122 -167 -50 -35 31 -35 34 -4 97 14 28 25
55 25 61 0 15 55 74 67 74 6 0 18 -9 28 -20z m1020 -372 c-37 -175 -138 -353
-283 -495 l-83 -83 -257 1 -257 1 75 19 c163 41 275 127 304 230 8 30 24 109
37 176 l22 122 41 5 c261 32 381 48 385 52 14 14 22 0 16 -28z m-1930 -13 c88
-10 165 -18 171 -20 7 -2 11 -45 12 -127 0 -92 4 -134 17 -166 37 -92 169
-170 362 -216 59 -14 119 -27 133 -29 14 -1 -119 -6 -295 -10 l-320 -8 -23 28
c-105 126 -248 412 -269 537 -6 39 -6 39 23 33 16 -3 101 -13 189 -22z m1212
-7 c18 -15 16 -65 -4 -100 -10 -16 -40 -43 -68 -61 l-50 -32 -140 3 c-187 3
-396 20 -442 35 -43 14 -65 55 -46 85 12 19 72 21 374 11 225 -8 239 -6 278
48 29 39 33 42 58 32 15 -5 33 -15 40 -21z m-591 -625 c-15 -52 -45 -184 -51
-224 -11 -75 -12 -76 -107 -50 -84 22 -247 95 -325 144 -42 27 -43 28 -43 82
l0 55 183 2 c100 2 220 5 265 6 78 3 83 2 78 -15z m328 9 c11 -18 56 -206 62
-258 7 -52 6 -53 -22 -61 -44 -12 -361 -10 -374 3 -11 11 -6 46 31 203 31 130
19 121 169 121 71 0 131 -4 134 -8z m586 -46 l0 -54 -62 -40 c-83 -51 -230
-117 -320 -142 -40 -11 -76 -20 -80 -20 -5 0 -8 13 -8 29 0 16 -13 82 -30 146
-16 64 -30 121 -30 126 0 5 108 9 265 9 l265 0 0 -54z"/>
<path d="M13361 5756 c-18 -21 -9 -66 14 -82 43 -28 99 32 69 75 -18 24 -65
28 -83 7z"/>
<path d="M3325 5191 c-22 -10 -66 -41 -97 -70 -75 -69 -77 -94 -12 -180 25
-33 62 -74 83 -90 53 -42 77 -93 61 -131 -25 -60 -89 -100 -160 -100 -31 0
-44 6 -69 35 -36 42 -40 81 -11 118 25 31 26 60 3 55 -26 -5 -63 -67 -63 -105
0 -75 64 -143 134 -143 89 0 161 42 196 115 32 67 22 95 -70 190 -134 139
-137 153 -52 220 64 50 111 70 147 61 l24 -6 -20 -57 c-20 -60 -19 -83 4 -83
18 0 53 39 67 74 21 57 -28 116 -97 116 -15 0 -46 -9 -68 -19z"/>
<path d="M5261 5157 c-41 -20 -61 -70 -81 -192 -19 -121 -51 -233 -58 -202 -9
41 -107 4 -137 -52 -19 -37 -20 -85 -2 -100 26 -21 75 -24 102 -7 50 33 115
208 136 363 13 102 35 149 74 159 17 4 25 12 23 23 -4 21 -27 24 -57 8z m-164
-432 c13 -14 13 -19 -4 -47 -22 -38 -45 -53 -67 -45 -25 10 -19 46 13 78 34
33 37 34 58 14z"/>
<path d="M3686 5148 c-2 -7 -9 -47 -15 -88 -7 -41 -21 -114 -32 -162 -20 -87
-21 -88 -52 -89 -58 -2 -62 -4 -62 -24 0 -17 6 -20 39 -17 33 3 38 1 33 -15
-49 -152 -57 -215 -26 -221 12 -2 17 9 22 48 3 28 16 82 29 121 20 63 24 69
49 69 15 0 40 5 54 10 41 15 16 41 -32 33 -31 -5 -35 -4 -29 13 15 49 65 317
60 325 -8 13 -34 11 -38 -3z"/>
<path d="M4393 5061 c-25 -16 -33 -30 -42 -73 -9 -47 -41 -241 -41 -252 0 -2
-15 -3 -32 -2 -30 1 -35 -4 -56 -46 -27 -54 -23 -85 14 -94 32 -8 68 8 88 38
8 13 27 101 41 198 21 146 29 178 46 193 12 9 28 17 36 17 19 0 13 34 -7 37
-8 2 -29 -6 -47 -16z m-91 -387 c-4 -24 -46 -54 -58 -42 -11 11 27 68 45 68
14 0 17 -6 13 -26z"/>
<path d="M2119 4953 c-41 -43 -83 -84 -92 -91 -10 -7 -15 -17 -12 -23 14 -21
45 -6 99 49 l56 57 -33 -100 c-19 -55 -39 -123 -46 -152 -14 -59 -27 -66 -109
-56 -59 7 -79 -6 -61 -40 8 -14 13 -16 25 -7 8 8 27 10 48 6 19 -4 67 0 108 8
40 8 89 16 108 18 25 2 36 8 38 22 4 17 -1 18 -62 14 -64 -6 -66 -5 -61 16 4
11 24 78 46 147 40 129 52 199 33 206 -5 2 -44 -32 -85 -74z"/>
<path d="M4795 4785 c-53 -55 -71 -188 -21 -146 8 7 17 30 21 51 12 73 72 115
105 75 15 -18 36 -19 46 -3 12 19 -43 58 -83 58 -28 0 -43 -8 -68 -35z"/>
<path d="M3794 4736 c-41 -41 -45 -73 -8 -82 14 -4 36 -2 50 5 23 10 24 9 24
-23 0 -42 21 -62 49 -46 24 12 28 40 6 40 -11 0 -15 13 -15 53 0 90 -46 113
-106 53z m42 -31 c-11 -8 -22 -12 -25 -9 -6 6 19 24 34 24 6 -1 1 -7 -9 -15z"/>
<path d="M4542 4745 c-38 -32 -58 -85 -42 -115 17 -32 70 -27 105 10 l28 30
11 -23 c7 -12 20 -23 29 -25 16 -3 17 1 11 35 -4 21 -12 54 -18 73 -10 32 -15
35 -52 38 -32 2 -48 -2 -72 -23z m78 -24 c0 -16 -58 -71 -74 -71 -23 0 -20 14
10 49 24 29 64 42 64 22z"/>
<path d="M4002 4738 c-5 -7 -17 -36 -25 -65 -13 -43 -13 -54 -2 -63 10 -8 22
1 55 40 23 27 46 50 51 50 5 0 9 -15 10 -32 2 -52 13 -83 33 -86 15 -3 17 2
10 60 -9 88 -18 102 -60 95 -19 -3 -34 -2 -34 4 0 13 -26 11 -38 -3z"/>
<path d="M2386 4658 c-12 -16 -13 -25 -4 -35 9 -12 15 -11 31 6 11 11 17 26
14 35 -9 22 -23 20 -41 -6z"/>
<path d="M5431 4066 c-9 -11 -9 -19 0 -33 9 -16 4 -41 -31 -144 -58 -170 -53
-163 -106 -155 -25 3 -46 1 -49 -5 -12 -18 16 -39 51 -39 19 0 34 -1 34 -3 0
-1 -9 -35 -20 -75 -11 -40 -18 -78 -14 -83 14 -23 30 2 54 82 l26 84 59 21
c39 14 61 28 64 39 3 15 -2 17 -30 12 -19 -3 -44 -9 -56 -13 l-23 -6 26 68
c41 106 62 175 65 219 3 34 1 40 -17 43 -11 2 -26 -4 -33 -12z"/>
<path d="M9455 4044 c-382 -17 -776 -62 -1095 -125 -967 -191 -1575 -559
-1607 -974 -27 -346 374 -683 1068 -900 l126 -39 57 -256 c31 -140 61 -259 66
-264 6 -6 217 54 547 156 536 165 538 165 603 157 132 -16 700 -22 920 -10
639 35 1146 122 1605 275 385 129 634 266 821 451 79 78 98 104 139 188 40 82
48 108 52 174 38 561 -929 1025 -2392 1148 -173 15 -743 26 -910 19z m910 -69
c1088 -91 1936 -382 2230 -765 310 -404 -28 -823 -895 -1110 -343 -113 -804
-199 -1320 -247 -232 -21 -1006 -25 -1148 -5 l-82 11 -521 -160 c-286 -89
-522 -159 -524 -157 -2 2 -29 116 -60 253 -31 137 -58 253 -61 257 -3 4 -14 8
-25 8 -11 0 -90 23 -175 51 -701 230 -1068 578 -966 916 58 189 243 365 547
520 494 251 1214 405 2085 447 158 8 743 -5 915 -19z"/>
<path d="M9570 2735 l0 -225 35 0 35 0 0 225 0 225 -35 0 -35 0 0 -225z"/>
<path d="M10660 2789 l0 -170 33 3 32 3 3 168 2 167 -35 0 -35 0 0 -171z"/>
<path d="M10840 2789 l0 -170 33 3 32 3 3 168 2 167 -35 0 -35 0 0 -171z"/>
<path d="M11020 2789 l0 -170 33 3 32 3 3 168 2 167 -35 0 -35 0 0 -171z"/>
<path d="M8540 2900 c0 -39 1 -40 34 -40 27 0 35 5 40 24 10 39 -2 56 -40 56
-33 0 -34 -1 -34 -40z"/>
<path d="M9430 2900 c0 -39 1 -40 34 -40 27 0 35 5 40 24 10 39 -2 56 -40 56
-33 0 -34 -1 -34 -40z"/>
<path d="M8200 2715 l0 -205 34 0 c42 0 46 10 46 106 l0 74 65 0 65 0 0 -90 0
-90 35 0 35 0 0 205 0 205 -35 0 -35 0 0 -80 0 -80 -65 0 -65 0 0 64 c0 86 -5
96 -46 96 l-34 0 0 -205z"/>
<path d="M8924 2883 c30 -170 70 -348 81 -359 7 -8 31 -14 53 -14 l40 0 17 98
c9 53 20 113 24 132 l8 35 11 -53 c7 -29 12 -62 12 -72 0 -11 4 -20 8 -20 4 0
14 -27 20 -60 l13 -60 44 0 c51 0 49 -4 81 165 10 50 21 92 25 95 7 6 29 101
29 130 0 16 -7 20 -34 20 l-33 0 -22 -114 c-11 -63 -21 -121 -21 -130 0 -9 -4
-16 -9 -16 -5 0 -11 -12 -13 -27 -2 -16 -13 24 -26 92 -37 195 -37 195 -76
195 -37 0 -41 -5 -51 -74 -4 -25 -11 -46 -15 -46 -4 0 -13 -38 -20 -85 -7 -47
-16 -88 -20 -90 -3 -2 -14 50 -25 116 -10 65 -22 119 -27 119 -4 0 -8 14 -8
30 0 28 -3 30 -36 30 l-36 0 6 -37z"/>
<path d="M9744 2827 c-6 -7 -21 -20 -33 -29 -38 -32 -26 -119 20 -138 16 -7
29 -16 29 -20 0 -3 11 -13 25 -20 14 -7 25 -19 25 -26 0 -19 -47 -28 -76 -15
-14 6 -29 11 -34 11 -12 0 -13 -50 -1 -68 10 -16 80 -27 114 -18 26 6 57 58
57 96 0 39 -31 90 -59 97 -30 7 -50 30 -51 56 0 22 52 24 74 2 21 -22 26 -19
26 18 0 20 -8 39 -20 50 -23 20 -80 22 -96 4z"/>
<path d="M9990 2832 c0 -4 -10 -12 -22 -17 -37 -17 -58 -72 -58 -152 0 -119
23 -152 107 -160 51 -4 61 -2 86 19 15 13 27 29 27 35 0 6 7 19 16 28 21 21
23 155 3 180 -58 70 -65 75 -113 75 -25 0 -46 -3 -46 -8z m88 -77 c9 -9 14
-104 8 -139 -5 -28 -12 -36 -38 -41 -46 -11 -78 28 -78 95 0 27 4 50 8 50 5 0
14 12 21 26 10 23 16 26 43 20 17 -3 34 -8 36 -11z"/>
<path d="M10298 2810 c-25 -27 -28 -28 -28 -10 0 16 -7 20 -30 20 l-30 0 0
-155 0 -155 35 0 35 0 0 105 c0 113 14 155 51 155 30 0 39 -33 39 -149 l0
-111 35 0 35 0 0 134 0 133 -30 32 c-39 40 -76 41 -112 1z"/>
<path d="M8540 2665 l0 -155 35 0 35 0 0 155 0 155 -35 0 -35 0 0 -155z"/>
<path d="M9430 2665 l0 -155 35 0 35 0 0 155 0 155 -35 0 -35 0 0 -155z"/>
<path d="M8686 2594 c-3 -9 -6 -29 -6 -46 0 -39 -21 -111 -35 -120 -5 -4 4 -8
20 -8 26 0 33 6 48 40 9 22 21 40 27 40 12 0 24 63 15 89 -8 26 -60 30 -69 5z"/>
<path d="M10658 2568 c-2 -13 -2 -33 1 -46 3 -19 9 -23 35 -20 29 3 31 6 31
43 0 38 -2 40 -32 43 -26 3 -32 -1 -35 -20z"/>
<path d="M10838 2568 c-2 -13 -2 -33 1 -46 3 -19 9 -23 35 -20 29 3 31 6 31
43 0 38 -2 40 -32 43 -26 3 -32 -1 -35 -20z"/>
<path d="M11018 2568 c-2 -13 -2 -33 1 -46 3 -19 9 -23 35 -20 29 3 31 6 31
43 0 38 -2 40 -32 43 -26 3 -32 -1 -35 -20z"/>
<path d="M3645 4030 c-3 -5 -4 -14 -1 -18 9 -16 -138 -42 -230 -42 -75 0 -93
-3 -98 -16 -4 -11 1 -18 14 -21 11 -3 20 -11 20 -18 0 -33 -44 -176 -75 -246
-20 -44 -35 -89 -33 -102 3 -21 7 -22 108 -22 83 0 119 5 172 24 74 25 81 30
68 51 -7 11 -20 9 -72 -11 -47 -18 -83 -24 -140 -24 -42 0 -80 3 -84 8 -6 5
21 74 52 135 4 7 113 18 249 26 27 1 41 7 43 18 4 23 -20 25 -152 15 -65 -4
-120 -7 -121 -5 -7 7 28 133 39 140 6 4 34 8 61 8 82 1 245 43 245 64 0 15
-32 46 -48 46 -6 0 -14 -4 -17 -10z"/>
<path d="M5956 3998 c-9 -12 -16 -27 -16 -33 0 -5 -11 -60 -26 -122 -20 -86
-29 -110 -40 -106 -28 11 -62 -8 -98 -53 -37 -49 -47 -99 -24 -122 7 -7 29
-12 49 -12 60 0 89 43 127 186 18 66 37 146 44 178 8 43 16 60 30 64 25 6 19
36 -9 40 -13 2 -27 -5 -37 -20z m-91 -338 c-20 -56 -32 -70 -61 -70 -32 0 -31
24 2 67 22 29 63 56 72 48 1 -1 -5 -21 -13 -45z"/>
<path d="M4806 3998 c-3 -7 -7 -37 -11 -66 -11 -93 -73 -266 -112 -311 -34
-40 -73 -55 -73 -28 0 22 57 95 79 102 30 9 26 35 -5 35 -49 0 -121 -104 -112
-162 4 -33 62 -37 108 -6 46 30 102 143 134 269 33 129 36 172 13 177 -9 2
-19 -2 -21 -10z"/>
<path d="M2065 3908 c-50 -26 -89 -64 -80 -78 3 -5 19 -10 36 -10 21 0 29 5
29 18 0 17 55 52 80 52 17 0 11 -38 -11 -83 -27 -52 -90 -137 -103 -137 -18 0
-76 -51 -91 -81 -27 -51 4 -66 52 -25 l28 24 22 -24 c32 -35 100 -34 143 2 37
32 60 73 60 109 0 37 -31 29 -42 -11 -12 -49 -51 -84 -93 -84 -28 0 -38 5 -47
24 -10 22 -6 30 32 73 76 86 121 208 88 241 -18 18 -58 14 -103 -10z"/>
<path d="M5111 3896 c-8 -10 -7 -17 3 -26 17 -13 36 -6 36 15 0 19 -27 26 -39
11z"/>
<path d="M3816 3762 c-3 -6 1 -27 10 -48 15 -36 15 -39 -3 -52 -10 -8 -37 -23
-61 -34 -24 -11 -41 -25 -39 -31 7 -23 47 -18 90 11 l43 30 33 -40 c40 -47 76
-67 93 -50 8 8 -2 22 -37 55 -54 48 -53 60 1 83 19 8 34 19 34 24 0 21 -33 23
-68 4 -20 -11 -37 -15 -39 -9 -17 49 -45 76 -57 57z"/>
<path d="M5558 3728 c-24 -24 -50 -58 -57 -76 -13 -31 -13 -35 11 -58 21 -21
34 -25 83 -25 32 0 62 4 67 9 17 17 -2 33 -36 32 -17 -1 -44 -1 -61 -1 -29 2
-28 3 20 27 28 14 56 33 63 42 15 20 16 64 0 80 -21 21 -45 13 -90 -30z m62
-18 c0 -5 -15 -17 -32 -26 l-33 -17 24 27 c25 27 41 33 41 16z"/>
<path d="M4202 3740 c-18 -11 -38 -20 -46 -20 -15 0 -51 -91 -96 -240 -39
-128 -40 -135 -17 -135 14 0 27 22 53 88 19 49 34 95 34 103 0 8 21 24 48 35
62 26 122 85 122 119 0 32 -26 70 -48 70 -9 0 -32 -9 -50 -20z m53 -59 c-7
-23 -81 -78 -91 -68 -13 13 15 63 46 85 37 25 56 17 45 -17z"/>
<path d="M4393 3722 c-37 -30 -73 -93 -73 -128 0 -54 29 -76 98 -72 44 2 58 7
60 20 3 14 -6 17 -55 20 -46 2 -58 7 -61 21 -2 10 0 16 5 15 14 -4 113 66 119
84 15 49 -47 76 -93 40z m37 -42 c-33 -26 -48 -26 -25 0 10 11 25 20 34 20 12
0 9 -6 -9 -20z"/>
<path d="M5007 3692 c-63 -65 -71 -132 -15 -132 29 0 98 39 98 55 0 19 -23 19
-61 -1 -46 -23 -46 -11 0 39 23 24 41 49 41 55 0 25 -30 17 -63 -16z"/>
<path d="M2315 3620 c-9 -15 13 -40 35 -40 10 0 23 6 29 14 10 12 8 17 -8 25
-25 14 -48 14 -56 1z"/>
<path d="M4353 3028 c-5 -7 -15 -38 -22 -68 -8 -30 -38 -118 -69 -195 -36 -91
-55 -156 -56 -185 -1 -42 1 -45 27 -48 28 -3 37 14 16 35 -17 17 7 94 27 86 8
-3 25 4 38 16 l24 22 37 -33 c39 -34 85 -117 85 -154 0 -29 28 -53 40 -35 20
33 -39 171 -94 219 l-36 31 83 58 c45 33 99 70 119 83 36 24 52 60 27 60 -6 0
-71 -41 -143 -91 -72 -51 -138 -94 -147 -96 -14 -4 -10 13 18 88 44 116 61
195 47 209 -8 8 -14 7 -21 -2z"/>
<path d="M4100 2967 c0 -41 -29 -148 -86 -310 -34 -100 -42 -133 -34 -148 12
-21 35 -25 46 -8 3 6 2 15 -4 21 -7 7 3 49 34 136 51 144 84 266 84 311 0 24
-4 31 -20 31 -16 0 -20 -7 -20 -33z"/>
<path d="M1993 2954 c-10 -27 8 -35 68 -28 l60 7 -30 -31 c-38 -37 -39 -60 -6
-68 39 -10 75 -59 75 -104 0 -32 -6 -43 -32 -64 -45 -34 -113 -59 -141 -52
-19 4 -57 51 -57 70 0 3 11 6 25 6 31 0 41 20 25 50 -12 22 -47 24 -43 3 2 -7
-6 -15 -17 -18 -64 -20 3 -155 76 -155 41 0 128 39 167 74 31 30 37 41 37 76
0 50 -23 103 -57 130 -31 24 -25 34 33 56 36 14 44 21 42 38 -3 20 -9 21 -111
22 -82 1 -110 -2 -114 -12z"/>
<path d="M3425 2949 c-70 -17 -125 -48 -125 -72 0 -12 -22 -88 -50 -169 -27
-81 -50 -154 -50 -163 0 -19 39 -35 89 -35 82 0 223 132 207 195 -3 12 -24 35
-46 50 -22 15 -40 31 -40 34 0 4 18 25 41 46 64 63 83 93 69 110 -14 17 -36
17 -95 4z m16 -68 c-27 -34 -96 -79 -106 -69 -7 7 7 48 16 48 5 0 9 7 9 15 0
8 17 19 43 25 23 6 47 13 52 15 6 2 12 4 13 4 2 1 -10 -16 -27 -38z m-94 -111
c18 0 113 -68 113 -81 0 -14 -62 -80 -104 -111 -21 -15 -52 -28 -68 -28 -27 0
-28 1 -25 44 5 51 60 216 65 192 2 -9 10 -16 19 -16z"/>
<path d="M3672 2688 c-37 -65 -96 -123 -125 -123 -15 0 -22 -6 -22 -20 0 -34
44 -30 89 7 21 17 46 33 55 34 9 1 28 5 43 8 21 6 27 4 32 -12 4 -11 16 -22
27 -25 41 -11 131 35 110 56 -6 6 -25 4 -51 -7 -43 -17 -60 -15 -60 9 0 22
-31 48 -43 36 -23 -23 -27 -9 -8 28 15 29 17 41 8 50 -18 18 -23 14 -55 -41z"/>
<path d="M2257 2623 c-13 -12 -7 -53 7 -53 20 0 39 27 32 45 -6 15 -28 20 -39
8z"/>
<path d="M6970 1585 c0 -8 -7 -15 -15 -15 -8 0 -15 -7 -15 -15 0 -8 -7 -15
-15 -15 -8 0 -15 -7 -15 -15 0 -12 -15 -15 -75 -15 l-75 0 0 -30 c0 -27 3 -30
30 -30 20 0 30 -5 30 -15 0 -11 -12 -15 -45 -15 -33 0 -45 -4 -45 -15 0 -10
-10 -15 -30 -15 l-30 0 0 -75 c0 -60 3 -75 15 -75 8 0 15 -7 15 -15 0 -10 10
-15 30 -15 27 0 30 -3 30 -30 0 -20 -5 -30 -15 -30 -10 0 -15 -10 -15 -30 0
-20 -5 -30 -15 -30 -10 0 -15 -10 -15 -30 0 -20 -5 -30 -15 -30 -12 0 -15 -13
-15 -60 0 -47 -3 -60 -15 -60 -13 0 -15 -25 -15 -165 0 -140 2 -165 15 -165
10 0 15 -10 15 -30 0 -20 5 -30 15 -30 8 0 15 -7 15 -15 0 -10 10 -15 30 -15
20 0 30 -5 30 -15 0 -12 15 -15 75 -15 60 0 75 3 75 15 0 10 10 15 30 15 20 0
30 5 30 15 0 8 7 15 15 15 10 0 15 10 15 30 0 20 5 30 15 30 8 0 15 7 15 15 0
8 7 15 15 15 8 0 15 7 15 15 0 8 7 15 15 15 10 0 15 10 15 30 0 20 5 30 15 30
10 0 15 10 15 30 0 20 5 30 15 30 10 0 15 10 15 30 0 20 5 30 15 30 10 0 15
10 15 30 0 20 5 30 15 30 8 0 15 7 15 15 0 8 7 15 15 15 8 0 15 7 15 15 0 8 7
15 15 15 8 0 15 7 15 15 0 8 7 15 15 15 8 0 15 -7 15 -15 0 -8 7 -15 15 -15 8
0 15 -7 15 -15 0 -8 7 -15 15 -15 12 0 15 13 15 60 l0 60 -30 0 c-20 0 -30 -5
-30 -15 0 -11 -12 -15 -45 -15 -33 0 -45 -4 -45 -15 0 -8 -7 -15 -15 -15 -8 0
-15 -7 -15 -15 0 -8 -7 -15 -15 -15 -10 0 -15 -10 -15 -30 0 -20 -5 -30 -15
-30 -10 0 -15 -10 -15 -30 0 -20 -5 -30 -15 -30 -10 0 -15 -10 -15 -30 0 -20
-5 -30 -15 -30 -10 0 -15 -10 -15 -30 0 -20 -5 -30 -15 -30 -10 0 -15 -10 -15
-30 0 -20 -5 -30 -15 -30 -8 0 -15 -7 -15 -15 0 -8 -7 -15 -15 -15 -8 0 -15
-7 -15 -15 0 -8 -7 -15 -15 -15 -8 0 -15 -7 -15 -15 0 -10 -10 -15 -30 -15
-20 0 -30 -5 -30 -15 0 -12 -13 -15 -60 -15 -47 0 -60 3 -60 15 0 8 -7 15 -15
15 -8 0 -15 7 -15 15 0 8 -7 15 -15 15 -12 0 -15 15 -15 75 0 60 -3 75 -15 75
-11 0 -15 12 -15 45 0 33 4 45 15 45 10 0 15 10 15 30 0 20 5 30 15 30 11 0
15 12 15 45 0 33 4 45 15 45 11 0 15 12 15 45 0 33 4 45 15 45 11 0 15 12 15
45 0 43 1 45 30 45 20 0 30 5 30 15 0 10 10 15 30 15 20 0 30 5 30 15 0 8 7
15 15 15 11 0 15 12 15 45 0 33 -4 45 -15 45 -10 0 -15 10 -15 30 0 20 -5 30
-15 30 -10 0 -15 10 -15 30 0 20 5 30 15 30 8 0 15 7 15 15 0 8 7 15 15 15 10
0 15 10 15 30 0 20 5 30 15 30 8 0 15 7 15 15 0 10 10 15 30 15 20 0 30 5 30
15 0 10 10 15 30 15 20 0 30 -5 30 -15 0 -8 7 -15 15 -15 8 0 15 -7 15 -15 0
-8 7 -15 15 -15 12 0 15 -15 15 -75 0 -60 -3 -75 -15 -75 -8 0 -15 -7 -15 -15
0 -8 -7 -15 -15 -15 -8 0 -15 -7 -15 -15 0 -8 -7 -15 -15 -15 -8 0 -15 -7 -15
-15 0 -8 -7 -15 -15 -15 -12 0 -15 -13 -15 -60 0 -47 3 -60 15 -60 12 0 15
-15 15 -75 0 -60 -3 -75 -15 -75 -10 0 -15 -10 -15 -30 0 -20 -5 -30 -15 -30
-10 0 -15 -10 -15 -30 0 -20 -5 -30 -15 -30 -8 0 -15 -7 -15 -15 0 -8 -7 -15
-15 -15 -8 0 -15 -7 -15 -15 0 -11 -12 -15 -45 -15 -33 0 -45 4 -45 15 0 8 -7
15 -15 15 -10 0 -15 10 -15 30 0 20 5 30 15 30 10 0 15 10 15 30 0 20 5 30 15
30 11 0 15 12 15 45 0 33 4 45 15 45 8 0 15 7 15 15 0 10 -10 15 -30 15 -20 0
-30 -5 -30 -15 0 -8 -7 -15 -15 -15 -11 0 -15 -12 -15 -45 0 -33 -4 -45 -15
-45 -12 0 -15 -17 -15 -90 l0 -90 30 0 c20 0 30 -5 30 -15 0 -11 12 -15 45
-15 33 0 45 4 45 15 0 10 10 15 30 15 27 0 30 3 30 30 0 20 5 30 15 30 8 0 15
7 15 15 0 8 7 15 15 15 10 0 15 10 15 30 0 20 5 30 15 30 11 0 15 12 15 45 0
33 4 45 15 45 10 0 15 10 15 30 l0 30 60 0 c47 0 60 3 60 15 0 10 10 15 30 15
27 0 30 3 30 30 0 20 5 30 15 30 10 0 15 10 15 30 0 20 -5 30 -15 30 -8 0 -15
7 -15 15 0 8 -7 15 -15 15 -8 0 -15 7 -15 15 0 8 -7 15 -15 15 -8 0 -15 7 -15
15 0 8 -7 15 -15 15 -12 0 -15 17 -15 90 0 73 -3 90 -15 90 -10 0 -15 10 -15
30 0 20 -5 30 -15 30 -8 0 -15 7 -15 15 0 12 -17 15 -90 15 -73 0 -90 -3 -90
-15z m-150 -240 c0 -8 7 -15 15 -15 8 0 15 -7 15 -15 0 -8 7 -15 15 -15 11 0
15 -12 15 -45 0 -33 -4 -45 -15 -45 -8 0 -15 7 -15 15 0 8 -7 15 -15 15 -8 0
-15 7 -15 15 0 8 7 15 15 15 8 0 15 7 15 15 0 8 -7 15 -15 15 -8 0 -15 7 -15
15 0 10 -10 15 -30 15 -27 0 -30 -3 -30 -30 0 -20 5 -30 15 -30 8 0 15 -7 15
-15 0 -8 -7 -15 -15 -15 -8 0 -15 7 -15 15 0 10 -10 15 -30 15 -20 0 -30 5
-30 15 0 8 7 15 15 15 10 0 15 10 15 30 0 29 2 30 45 30 33 0 45 -4 45 -15z
m390 -90 c0 -8 7 -15 15 -15 8 0 15 -7 15 -15 0 -8 7 -15 15 -15 8 0 15 -7 15
-15 0 -8 -7 -15 -15 -15 -8 0 -15 -7 -15 -15 0 -10 -10 -15 -30 -15 -20 0 -30
5 -30 15 0 8 7 15 15 15 10 0 15 10 15 30 0 29 -2 30 -45 30 -43 0 -45 -1 -45
-30 0 -20 -5 -30 -15 -30 -11 0 -15 12 -15 45 l0 45 60 0 c47 0 60 -3 60 -15z"/>
<path d="M7270 1360 c0 -20 5 -30 15 -30 10 0 15 -10 15 -30 0 -27 3 -30 30
-30 20 0 30 5 30 15 0 8 -7 15 -15 15 -10 0 -15 10 -15 30 0 20 -5 30 -15 30
-8 0 -15 7 -15 15 0 8 -7 15 -15 15 -10 0 -15 -10 -15 -30z"/>
</g>
</svg>
