<?xml version="1.0" standalone="no"?>
<!DOCTYPE svg PUBLIC "-//W3C//DTD SVG 20010904//EN"
 "http://www.w3.org/TR/2001/REC-SVG-20010904/DTD/svg10.dtd">
<svg version="1.0" xmlns="http://www.w3.org/2000/svg"
 width="1872.000000pt" height="680.000000pt" viewBox="0 0 1872.000000 680.000000"
 preserveAspectRatio="xMidYMid meet">

<g transform="translate(0.000000,680.000000) scale(0.100000,-0.100000)"
fill="#000000" stroke="none">
<path d="M3236 6351 c-3 -5 -11 -87 -16 -182 -11 -169 -33 -291 -50 -273 -4 5
-13 38 -19 73 -21 123 -67 123 -110 -1 -10 -31 -26 -68 -35 -84 l-15 -29 -3
40 c-1 22 -2 113 -3 203 0 133 -3 164 -15 172 -25 16 -40 -14 -28 -58 6 -22 8
-79 4 -142 -12 -176 17 -295 61 -258 19 15 46 70 67 136 10 28 21 52 26 52 4
0 11 -21 14 -47 15 -105 40 -140 77 -107 36 33 57 130 68 317 6 98 9 183 5
188 -7 11 -21 12 -28 0z"/>
<path d="M2802 6308 c-7 -7 -12 -20 -12 -30 0 -35 -40 -123 -92 -200 -46 -69
-56 -78 -77 -73 -22 6 -23 4 -17 -28 5 -28 0 -42 -35 -93 -23 -32 -50 -67 -61
-78 -16 -15 -17 -20 -6 -27 22 -14 48 -10 55 9 3 9 16 31 28 47 12 17 34 51
49 78 27 46 29 47 77 47 l49 0 0 -101 c0 -90 2 -100 18 -97 14 3 17 17 20 101
2 58 7 97 13 97 6 0 8 9 4 19 -3 10 -1 48 4 82 14 91 17 252 5 256 -5 2 -15
-2 -22 -9z m-17 -210 c-15 -100 -14 -98 -52 -98 -19 0 -33 4 -31 8 5 14 83
132 86 132 2 0 1 -19 -3 -42z"/>
<path d="M11209 6292 l-33 -29 27 -54 c14 -30 53 -84 85 -120 82 -92 105 -132
97 -168 -12 -55 -70 -91 -145 -91 -69 0 -100 29 -100 94 0 25 5 48 10 51 17
11 11 35 -10 35 -25 0 -40 -29 -40 -80 0 -102 52 -145 166 -138 50 3 68 9 102
37 51 40 70 91 53 143 -6 19 -47 77 -91 129 -44 52 -86 108 -94 124 -14 27
-14 31 2 43 18 14 70 9 104 -9 14 -8 16 -14 8 -29 -14 -27 -12 -50 5 -50 24 0
47 54 35 85 -11 28 -35 40 -102 50 -41 6 -49 4 -79 -23z"/>
<path d="M3565 6291 c-33 -20 -125 -148 -125 -174 0 -26 72 -93 166 -153 80
-51 84 -56 84 -90 0 -26 -8 -43 -31 -66 -27 -28 -34 -30 -76 -24 -26 3 -66 17
-89 31 -50 29 -106 96 -86 103 17 5 15 29 -4 36 -21 8 -20 8 -38 -9 -21 -22
-5 -60 46 -114 59 -60 111 -85 181 -85 56 -1 60 1 98 41 33 36 39 49 39 86 0
51 -17 69 -125 140 -38 25 -83 59 -98 75 l-29 30 41 61 c68 99 114 113 139 41
12 -34 42 -41 42 -10 0 33 -26 75 -55 88 -35 16 -45 15 -80 -7z"/>
<path d="M5917 6303 c-3 -5 -1 -17 3 -28 4 -11 1 -45 -5 -75 -25 -109 -27
-148 -10 -230 16 -77 16 -79 -4 -99 -26 -26 -17 -55 26 -88 47 -36 99 -35 131
3 19 21 23 35 18 62 -12 74 -67 108 -100 61 -13 -20 -15 -18 -25 33 -22 112
-22 125 -2 222 19 90 20 102 6 123 -16 23 -30 29 -38 16z m123 -470 c0 -25
-38 -47 -65 -37 -13 5 -13 10 1 37 28 55 36 61 51 41 7 -10 13 -28 13 -41z"/>
<path d="M8376 6292 c-26 -29 -38 -134 -29 -245 8 -85 7 -97 -7 -97 -9 0 -32
-17 -52 -37 -65 -69 -74 -109 -32 -142 31 -25 55 -26 93 -6 50 25 56 58 42
234 -14 191 -6 265 30 274 12 3 19 12 17 19 -7 21 -42 21 -62 0z m-18 -411 c9
-56 -26 -99 -68 -86 -27 9 -25 25 11 74 32 45 52 49 57 12z"/>
<path d="M12387 6274 c-4 -4 -7 -44 -7 -88 0 -45 -9 -124 -20 -176 -47 -218
-46 -199 -7 -238 28 -28 45 -36 86 -40 46 -4 53 -2 81 26 23 24 30 39 30 70 0
48 -17 99 -35 106 -8 3 -37 -14 -66 -39 -53 -45 -86 -50 -75 -11 25 93 40 196
41 285 0 97 -8 125 -28 105z m123 -438 c0 -39 -26 -66 -64 -66 -64 0 -65 15
-6 68 58 52 70 52 70 -2z"/>
<path d="M9170 6110 c-34 -77 -69 -145 -76 -151 -8 -6 -14 -17 -14 -24 0 -7
-9 -35 -21 -63 -15 -36 -28 -52 -43 -54 -30 -4 -26 -30 7 -39 32 -9 41 2 77
89 l22 52 49 0 c40 0 49 -3 49 -17 0 -10 8 -39 17 -65 12 -33 23 -48 35 -48
22 0 22 6 3 60 -19 54 -19 57 5 63 26 7 26 27 -1 34 -20 6 -21 10 -17 154 4
198 -6 199 -92 9z m50 -75 l0 -75 -36 0 c-25 0 -35 4 -31 13 21 51 60 137 63
137 2 0 4 -34 4 -75z"/>
<path d="M15183 6208 c-4 -7 -8 -19 -9 -26 -1 -6 -15 -32 -30 -56 -22 -35 -34
-44 -54 -44 -33 1 -61 -14 -111 -59 -32 -29 -39 -42 -39 -72 0 -21 6 -46 14
-56 12 -16 10 -25 -19 -69 -56 -90 -110 -194 -103 -202 16 -16 39 10 99 115
63 108 65 111 100 111 44 0 135 44 156 76 19 30 11 79 -17 109 l-21 22 41 67
c23 38 39 74 36 82 -7 17 -32 18 -43 2z m-23 -239 c0 -21 -60 -64 -104 -75
-34 -8 -34 -6 24 74 l45 63 17 -21 c10 -12 18 -31 18 -41z m-100 45 c0 -11
-63 -94 -72 -94 -21 0 -6 50 23 74 29 25 49 33 49 20z"/>
<path d="M6530 6150 c-8 -5 -9 -13 -3 -24 6 -11 6 -42 0 -82 -7 -51 -6 -80 6
-128 22 -88 43 -136 61 -136 21 0 20 14 -3 75 -33 87 -36 169 -9 273 4 17 -34
33 -52 22z"/>
<path d="M6708 6133 c-6 -41 9 -235 22 -282 13 -51 34 -71 70 -71 48 0 48 35
0 41 -23 4 -26 11 -37 77 -7 41 -14 115 -15 165 -2 75 -6 92 -19 95 -12 2 -18
-6 -21 -25z"/>
<path d="M10045 6122 c-42 -32 -50 -44 -53 -74 -4 -48 17 -79 84 -123 46 -31
74 -60 74 -78 0 -9 -63 -27 -96 -27 -53 0 -84 19 -84 52 0 32 -24 39 -38 11
-25 -47 41 -103 120 -103 65 0 125 25 132 56 9 34 -17 78 -61 105 -104 61
-120 108 -52 152 52 35 62 34 76 -4 10 -26 15 -30 27 -20 14 12 10 51 -9 81
-14 23 -70 10 -120 -28z"/>
<path d="M13176 6148 c-3 -7 -7 -85 -10 -173 -5 -141 -4 -164 11 -194 21 -41
48 -60 63 -45 7 7 2 21 -16 45 -25 34 -25 36 -18 154 4 66 7 129 6 139 0 11 7
25 16 33 16 12 15 14 -7 33 -27 23 -40 25 -45 8z"/>
<path d="M17433 6133 c-10 -16 -29 -51 -42 -80 -24 -51 -44 -60 -64 -27 -12
21 -65 -4 -92 -44 -36 -53 -34 -104 6 -135 l31 -24 -29 -51 c-15 -28 -25 -54
-21 -57 14 -15 36 5 68 59 21 38 38 56 51 56 29 0 77 27 89 51 13 24 5 73 -16
89 -12 10 -8 24 26 89 22 42 40 82 40 89 0 22 -28 13 -47 -15z m-101 -165 c18
4 18 1 -6 -47 -15 -28 -30 -51 -35 -51 -42 0 -55 46 -25 88 11 16 20 20 31 13
9 -4 25 -6 35 -3z m47 -81 c-30 -24 -33 -16 -12 27 17 36 18 36 26 14 6 -18 3
-27 -14 -41z"/>
<path d="M16219 6128 c-25 -47 -72 -93 -94 -90 -28 4 -87 -37 -103 -71 -10
-21 -11 -36 -3 -59 10 -28 7 -36 -29 -91 -23 -33 -39 -67 -38 -75 6 -30 27
-23 47 16 32 63 68 101 91 95 31 -8 84 5 108 28 29 26 29 82 2 109 l-20 20 40
52 c40 50 47 77 23 85 -6 2 -17 -6 -24 -19z m-131 -178 c-14 -20 -25 -27 -32
-20 -11 11 20 50 41 50 10 0 7 -9 -9 -30z m90 -10 c4 -28 -20 -50 -55 -50 -29
0 -29 4 3 46 30 38 47 40 52 4z"/>
<path d="M17930 6130 c-81 -28 -115 -84 -74 -124 19 -20 28 -20 87 -2 26 8 47
11 47 6 0 -12 -49 -82 -80 -115 -52 -55 -83 -166 -48 -173 12 -2 19 5 24 25
15 68 28 94 73 146 43 49 101 164 101 201 0 21 -35 56 -56 56 -11 -1 -44 -9
-74 -20z m55 -53 c-5 -19 -16 -28 -50 -36 -24 -6 -46 -11 -49 -11 -12 0 -5 28
9 40 16 13 88 40 93 35 2 -1 0 -14 -3 -28z"/>
<path d="M13017 6134 c-3 -3 -3 -20 0 -37 3 -18 -2 -67 -11 -110 -18 -87 -12
-134 25 -181 20 -25 49 -35 49 -17 0 5 -11 31 -25 58 l-25 48 20 109 c15 81
17 113 9 123 -12 14 -31 17 -42 7z"/>
<path d="M9706 6114 c-3 -9 -6 -60 -6 -114 0 -114 -7 -160 -25 -160 -13 0 -28
35 -40 98 -5 22 -12 32 -26 32 -14 0 -22 -13 -34 -52 -8 -29 -26 -66 -40 -83
-24 -29 -25 -29 -40 -11 -11 14 -15 46 -16 110 -1 123 -10 181 -29 181 -13 0
-14 -20 -11 -135 4 -152 16 -196 56 -206 21 -5 33 0 57 22 17 16 36 43 44 59
7 17 13 23 14 14 0 -28 40 -69 65 -69 34 0 56 39 61 107 13 206 13 223 -6 223
-10 0 -21 -7 -24 -16z"/>
<path d="M15420 6119 c-61 -25 -110 -54 -110 -66 0 -20 33 -16 88 12 107 54
109 21 5 -86 -64 -67 -82 -79 -109 -79 -53 0 -109 -81 -68 -97 9 -3 28 1 43
10 25 14 27 14 44 -9 28 -37 95 -34 142 7 32 29 48 69 26 69 -5 0 -23 -13 -39
-30 -23 -22 -40 -30 -66 -30 -53 0 -47 25 25 95 34 33 74 78 90 99 60 81 20
141 -71 105z"/>
<path d="M16966 6112 c-3 -6 -18 -13 -33 -17 -35 -8 -43 -21 -43 -67 0 -48 27
-53 37 -8 4 23 15 35 41 46 71 29 75 -4 9 -73 -23 -24 -40 -33 -64 -33 -45 0
-105 -53 -101 -89 4 -37 40 -39 84 -6 l34 26 0 -25 c0 -36 25 -56 71 -56 49 0
112 25 106 42 -2 7 -13 12 -23 10 -10 -1 -40 -5 -66 -8 l-48 -7 0 42 c0 35 5
47 31 69 41 34 69 96 60 131 -6 22 -14 26 -48 29 -23 2 -44 -1 -47 -6z m-86
-206 c0 -2 -8 -10 -17 -17 -16 -13 -17 -12 -4 4 13 16 21 21 21 13z"/>
<path d="M17657 6073 c-4 -3 -7 -18 -7 -32 0 -15 -29 -85 -65 -156 -64 -126
-78 -180 -46 -180 8 0 19 18 26 40 7 22 36 86 65 142 55 107 76 193 48 193 -8
0 -18 -3 -21 -7z"/>
<path d="M16344 6029 c-36 -10 -69 -43 -59 -58 8 -13 35 -14 35 -2 0 12 69 35
78 27 9 -10 -94 -102 -159 -143 -62 -38 -67 -44 -46 -61 8 -7 18 -6 31 4 27
19 53 18 83 -6 14 -11 35 -20 46 -20 24 0 84 39 92 59 11 28 -12 31 -45 6 -19
-14 -39 -25 -45 -25 -12 0 -51 38 -44 43 93 63 138 124 120 163 -11 26 -33 29
-87 13z"/>
<path d="M5430 5975 c-72 -61 -79 -72 -56 -81 10 -4 33 9 63 35 26 22 49 38
51 36 3 -2 -8 -43 -22 -91 -40 -127 -21 -148 63 -69 26 25 50 45 53 45 3 0 8
-14 12 -30 8 -42 46 -59 80 -36 32 20 52 89 37 123 -15 32 -14 70 2 76 9 3 9
7 -2 20 -10 13 -18 14 -32 6 -22 -11 -26 -72 -8 -112 9 -19 8 -31 -2 -52 -18
-37 -32 -34 -42 9 -13 54 -46 55 -106 2 -19 -17 -23 -18 -18 -4 19 54 31 126
28 166 -2 25 -38 10 -101 -43z"/>
<path d="M4687 5992 c-23 -25 -21 -81 3 -112 23 -29 26 -88 7 -115 -13 -17
-15 -17 -35 3 -12 12 -22 30 -22 40 0 24 -8 32 -26 25 -25 -9 -15 -54 20 -89
46 -46 65 -45 99 6 23 33 21 98 -3 138 -20 32 -27 82 -12 82 18 -1 32 -18 26
-33 -9 -25 22 -32 51 -13 14 9 25 20 25 25 0 11 -84 61 -103 61 -8 0 -21 -8
-30 -18z"/>
<path d="M11510 5988 c-1 -2 -3 -38 -6 -80 -6 -93 5 -100 55 -38 37 46 47 49
54 18 10 -37 32 -62 50 -55 14 5 13 14 -11 68 -14 34 -32 64 -40 66 -7 3 -25
-5 -39 -18 l-25 -24 7 33 c6 30 5 32 -19 32 -14 0 -26 -1 -26 -2z"/>
<path d="M6270 5934 c-41 -37 -51 -69 -28 -92 17 -17 69 -15 96 4 21 15 22 14
22 -15 0 -30 29 -71 49 -71 19 0 23 21 8 38 -8 9 -18 43 -22 75 -6 44 -13 62
-33 77 -34 27 -46 25 -92 -16z m60 -46 c-12 -10 -31 -18 -41 -18 -16 0 -18 3
-9 20 15 28 42 41 58 27 12 -9 10 -14 -8 -29z"/>
<path d="M7774 5941 c-37 -23 -72 -65 -80 -98 -13 -51 50 -80 106 -48 32 18
50 19 50 2 0 -19 33 -47 53 -47 9 0 26 9 37 20 11 11 24 20 29 20 5 0 15 21
22 46 15 51 45 77 81 72 22 -3 23 -7 20 -75 -2 -59 1 -73 12 -73 18 0 36 58
36 113 0 46 -28 77 -70 77 -61 0 -100 -36 -124 -115 -3 -11 -15 -26 -27 -33
-31 -20 -41 0 -35 70 7 72 1 91 -24 78 -13 -7 -21 -7 -25 0 -9 15 -26 12 -61
-9z m39 -38 c-7 -3 -13 -11 -13 -18 0 -7 6 -16 13 -19 15 -6 -18 -34 -51 -43
-31 -7 -36 0 -20 32 15 28 68 68 78 58 3 -3 -1 -8 -7 -10z"/>
<path d="M12175 5912 c4 -32 2 -58 -5 -71 -14 -28 -30 -18 -30 18 0 16 -7 34
-15 41 -12 10 -22 6 -55 -24 -53 -48 -63 -46 -54 9 6 41 4 45 -14 45 -17 0
-22 -8 -27 -44 -4 -24 -5 -52 -3 -62 5 -26 45 -29 90 -6 41 21 48 19 48 -14 0
-47 60 -34 95 20 11 17 15 42 13 78 -3 47 -6 53 -27 56 -22 4 -23 2 -16 -46z"/>
<path d="M12754 5925 c-42 -33 -60 -76 -44 -105 10 -19 18 -22 58 -17 26 2 53
6 60 8 8 2 19 -12 27 -35 17 -47 29 -60 49 -53 14 5 13 11 -4 49 -11 24 -20
60 -20 81 0 20 -4 37 -8 37 -4 0 -13 14 -19 30 -14 38 -55 40 -99 5z m66 -25
c0 -5 -5 -21 -12 -35 -8 -18 -19 -25 -40 -25 -32 0 -31 8 5 48 21 22 47 30 47
12z"/>
<path d="M4948 5913 c-16 -15 -28 -22 -28 -15 0 6 -9 12 -19 12 -28 0 -61
-101 -41 -124 7 -9 16 -16 21 -16 5 0 30 28 55 63 l46 62 -7 -76 c-6 -65 -5
-77 9 -82 18 -7 19 -6 34 73 11 62 -2 123 -28 128 -8 1 -27 -10 -42 -25z"/>
<path d="M5131 5911 c-11 -11 -23 -36 -27 -56 -15 -83 72 -121 137 -59 37 35
38 76 4 109 -30 31 -86 34 -114 6z m87 -33 c19 -19 14 -44 -14 -62 -49 -33
-82 0 -50 49 18 27 45 32 64 13z"/>
<path d="M11745 5904 c-9 -14 -19 -41 -22 -59 -4 -28 -1 -36 22 -51 26 -17 28
-17 60 0 44 24 57 53 40 93 -21 50 -72 59 -100 17z m65 -50 c0 -16 -37 -38
-44 -26 -3 5 -3 18 0 29 6 23 44 21 44 -3z"/>
<path d="M16558 5839 c-20 -11 -24 -34 -7 -44 12 -8 49 23 49 42 0 15 -18 17
-42 2z"/>
<path d="M15613 5823 c-18 -7 -16 -40 2 -47 8 -3 19 3 25 14 19 35 9 48 -27
33z"/>
<path d="M14641 5687 c-6 -8 -21 -69 -33 -136 -11 -66 -24 -119 -27 -117 -15
10 -71 -25 -85 -53 -19 -35 -9 -73 23 -90 30 -16 49 -3 75 48 23 47 33 85 62
249 16 94 11 130 -15 99z m-71 -302 c0 -12 -24 -55 -31 -55 -16 0 -18 18 -3
38 13 19 34 30 34 17z"/>
<path d="M6864 5682 c-6 -4 -11 -34 -12 -66 -1 -42 -10 -77 -31 -122 -28 -60
-31 -63 -59 -58 -23 5 -33 0 -54 -24 -30 -36 -44 -97 -27 -118 6 -8 22 -14 35
-14 28 0 55 34 118 153 54 98 80 217 54 243 -7 7 -18 10 -24 6z m-119 -304
c-4 -32 -16 -58 -26 -58 -12 0 -11 5 5 45 17 40 26 45 21 13z"/>
<path d="M10332 5628 c-8 -8 -8 -17 0 -31 21 -40 -16 -167 -50 -167 -10 0 -27
-7 -38 -15 -16 -13 -17 -16 -4 -25 8 -5 24 -7 34 -4 17 6 18 2 12 -32 -20
-119 -20 -126 0 -122 15 2 23 20 36 82 9 43 22 82 29 86 6 5 37 11 67 15 70 9
82 14 82 32 0 13 -11 15 -74 9 l-74 -7 14 47 c29 97 9 175 -34 132z"/>
<path d="M15464 5625 c-3 -8 -14 -17 -25 -20 -19 -6 -27 -41 -10 -47 6 -1 1
-24 -11 -50 -13 -32 -27 -48 -44 -52 -23 -6 -36 -46 -14 -46 5 0 7 -13 4 -29
-8 -40 10 -69 54 -81 51 -15 126 -1 130 24 4 17 -1 18 -55 12 -75 -8 -101 6
-86 50 9 27 14 29 64 31 85 4 119 12 119 28 0 17 -2 17 -87 15 l-63 -1 21 48
c11 26 27 62 36 80 8 18 12 37 8 42 -9 16 -35 13 -41 -4z"/>
<path d="M3164 5615 c-3 -8 -1 -37 5 -65 6 -28 11 -65 11 -81 0 -26 -3 -29
-19 -24 -34 10 -61 -27 -61 -84 0 -72 31 -98 77 -66 39 27 55 145 34 252 -5
27 -5 43 2 46 6 2 8 11 4 20 -8 21 -46 22 -53 2z m10 -244 c-4 -14 -13 -33
-20 -41 -12 -12 -14 -9 -14 26 0 45 5 55 26 47 9 -3 12 -14 8 -32z"/>
<path d="M9576 5608 c-3 -7 -11 -33 -20 -58 -8 -25 -20 -69 -27 -97 -12 -48
-15 -53 -40 -53 -41 0 -59 -10 -59 -32 0 -16 5 -18 35 -12 l36 6 -7 -66 c-6
-62 -5 -66 13 -66 17 0 21 9 27 61 3 33 9 65 12 70 3 6 28 7 61 3 50 -6 55 -5
51 12 -2 13 -17 22 -48 28 -25 5 -46 10 -47 10 -7 5 32 126 48 152 14 23 16
33 7 42 -16 16 -38 15 -42 0z"/>
<path d="M12528 5612 c0 -4 -2 -32 -3 -62 -2 -77 -31 -160 -66 -188 -40 -32
-40 -82 -1 -112 56 -45 162 -4 162 62 0 61 -33 83 -82 57 -19 -10 -20 -9 -13
7 23 54 44 160 39 195 -6 32 -31 62 -36 41z m52 -293 c0 -27 -27 -48 -62 -49
-34 0 -29 17 15 48 39 27 47 28 47 1z"/>
<path d="M9729 5608 c0 -2 -2 -30 -4 -63 -2 -44 -14 -85 -44 -154 -37 -82 -40
-96 -28 -109 13 -12 21 -9 61 28 l46 43 0 -77 c0 -69 2 -76 20 -76 19 0 20 7
20 94 0 107 -12 130 -53 103 l-23 -15 23 67 c31 91 30 161 -3 161 -8 0 -14 -1
-15 -2z"/>
<path d="M2865 5516 c-39 -17 -85 -77 -85 -111 0 -82 63 -133 149 -121 46 6
74 22 66 37 -3 4 -35 7 -71 6 -58 -2 -68 1 -85 22 -26 31 -24 49 4 44 12 -2
37 5 54 16 73 45 44 139 -32 107z m35 -45 c0 -14 -42 -41 -52 -35 -12 8 21 44
39 44 7 0 13 -4 13 -9z"/>
<path d="M5280 5491 c-36 -35 -41 -88 -12 -114 23 -21 74 -22 112 -2 30 15 30
15 30 -14 0 -31 25 -60 39 -45 14 14 -12 137 -29 142 -8 2 -26 15 -40 27 -43
39 -66 40 -100 6z m80 -41 c12 -22 -16 -50 -48 -50 -27 0 -30 35 -6 61 18 20
40 15 54 -11z"/>
<path d="M7505 5511 c-9 -16 3 -31 26 -31 14 0 19 6 17 17 -4 20 -33 29 -43
14z"/>
<path d="M3345 5487 c-35 -30 -46 -104 -21 -142 13 -20 25 -25 59 -25 l43 0
10 -74 9 -75 -63 2 c-56 2 -66 -1 -83 -22 -23 -28 -24 -69 -3 -119 39 -93 117
-122 168 -62 27 33 41 85 34 124 -5 22 -3 23 24 14 20 -7 33 -7 40 0 15 15 2
29 -32 37 -17 4 -35 15 -40 26 -16 29 -25 175 -11 183 26 17 -3 116 -34 116
-8 0 -15 4 -15 8 0 7 -43 32 -55 32 -2 0 -16 -10 -30 -23z m55 -47 c0 -10 7
-23 16 -28 9 -5 14 -18 12 -28 -2 -14 -12 -19 -38 -19 -32 0 -35 3 -38 33 -4
35 11 62 34 62 8 0 14 -9 14 -20z m52 -324 c24 -35 -8 -136 -42 -136 -35 0
-57 17 -74 60 -21 52 -20 76 2 89 20 13 104 3 114 -13z"/>
<path d="M5530 5485 c-28 -30 -42 -137 -20 -150 21 -13 42 25 35 65 -4 23 -1
42 8 54 13 17 18 18 45 7 34 -14 54 -8 46 14 -5 13 -54 35 -79 35 -6 0 -22
-11 -35 -25z"/>
<path d="M8385 5501 c-105 -26 -123 -101 -33 -141 34 -15 39 -20 25 -26 -10
-3 -40 -4 -67 0 -45 6 -50 5 -50 -12 0 -22 26 -32 85 -32 95 0 123 57 47 95
-23 12 -47 26 -53 32 -16 16 33 45 76 45 39 0 59 23 34 39 -16 10 -22 10 -64
0z"/>
<path d="M11216 5499 c-37 -10 -66 -36 -82 -76 -20 -46 -17 -71 11 -98 20 -21
34 -25 85 -25 65 0 100 12 100 35 0 11 -15 12 -73 8 -59 -5 -75 -3 -86 11 -29
34 18 106 69 106 33 0 38 -13 14 -37 -20 -21 -2 -43 23 -27 29 18 38 41 28 70
-11 32 -46 44 -89 33z"/>
<path d="M7992 5464 c-36 -31 -42 -41 -42 -75 0 -46 34 -88 72 -90 78 -5 128
10 128 40 0 26 -11 33 -29 17 -22 -18 -70 -26 -98 -15 -31 12 -29 24 7 39 30
12 70 54 70 71 0 14 -38 49 -53 49 -7 0 -32 -16 -55 -36z m39 -35 c-13 -10
-28 -19 -35 -19 -6 1 2 12 19 25 16 13 32 22 35 19 3 -3 -6 -14 -19 -25z"/>
<path d="M13803 5488 c-5 -7 -15 -26 -23 -43 -8 -16 -50 -64 -92 -106 -43 -42
-78 -82 -78 -88 0 -25 38 -9 80 34 38 39 45 42 55 28 8 -10 21 -14 38 -11 24
5 27 2 27 -22 0 -40 54 -56 81 -24 10 13 10 17 -1 24 -7 4 -20 6 -28 2 -12 -4
-14 -1 -8 14 4 10 10 36 13 57 7 45 -6 48 -49 12 -48 -40 -51 -29 -12 44 33
63 37 91 15 91 -5 0 -13 -6 -18 -12z"/>
<path d="M6937 5430 c-60 -64 -75 -111 -47 -145 28 -34 190 1 190 40 0 19 -18
19 -63 0 -20 -8 -52 -15 -71 -15 -29 0 -33 3 -29 19 3 10 17 21 31 24 39 9
102 64 102 91 0 26 -17 46 -41 46 -9 0 -41 -27 -72 -60z"/>
<path d="M7274 5479 c-3 -6 -1 -21 6 -34 11 -21 9 -30 -14 -69 -15 -25 -28
-46 -29 -46 -1 0 -2 24 -2 52 0 52 0 53 -32 56 -25 2 -33 -1 -33 -13 0 -8 7
-18 16 -22 13 -5 14 -16 9 -63 -6 -49 -4 -58 11 -64 24 -9 75 42 111 110 23
45 25 54 13 69 -21 25 -48 37 -56 24z"/>
<path d="M14030 5471 c-52 -28 -60 -61 -26 -110 27 -39 29 -71 5 -71 -6 0 -13
9 -16 20 -3 11 -14 20 -24 20 -25 0 -25 -34 1 -60 24 -24 48 -25 78 -4 31 21
29 67 -5 111 l-27 35 24 20 c18 15 32 18 62 13 30 -5 38 -4 38 9 0 17 -29 36
-57 36 -10 0 -34 -8 -53 -19z"/>
<path d="M14292 5454 c-100 -60 -94 -159 12 -171 43 -5 48 -4 44 13 -2 13 -13
20 -33 22 -60 7 -59 23 1 48 32 13 64 30 72 37 19 20 8 51 -24 65 -31 15 -21
16 -72 -14z m58 -22 c0 -10 -50 -35 -57 -28 -3 2 8 11 24 20 34 18 33 18 33 8z"/>
<path d="M3653 5429 c-37 -34 -44 -47 -49 -93 -6 -49 -5 -54 22 -75 24 -19 38
-22 77 -18 57 5 200 76 205 101 5 25 -19 19 -105 -24 -60 -31 -87 -40 -118
-38 -37 3 -40 5 -40 33 0 28 3 30 42 36 46 6 83 32 83 58 0 27 -30 61 -53 61
-12 0 -41 -19 -64 -41z m74 -16 c4 -12 -35 -29 -44 -19 -8 8 18 37 30 33 6 -2
12 -8 14 -14z"/>
<path d="M5727 5454 c-53 -28 -64 -95 -22 -134 20 -19 38 -24 97 -27 44 -3 90
1 117 9 74 22 61 55 -15 37 -49 -11 -135 -11 -152 -1 -9 6 1 18 33 41 61 44
60 62 -3 81 -19 5 -37 3 -55 -6z m28 -51 c-28 -20 -41 -16 -20 7 10 11 22 17
28 13 6 -4 3 -12 -8 -20z"/>
<path d="M7688 5449 c-59 -30 -76 -80 -39 -113 45 -41 181 -44 181 -5 0 24
-29 37 -40 19 -15 -24 -120 3 -120 31 0 5 14 18 32 29 24 14 35 16 45 8 18
-15 48 13 40 36 -9 22 -54 20 -99 -5z"/>
<path d="M11399 5431 c-31 -31 -37 -59 -17 -79 15 -15 53 -16 79 -2 16 9 19 7
19 -13 0 -27 17 -47 41 -47 26 0 35 21 15 35 -13 10 -16 25 -15 60 2 37 -1 51
-16 61 -31 23 -74 17 -106 -15z m62 -31 c-21 -18 -51 -27 -51 -16 0 13 34 36
53 36 22 -1 22 -1 -2 -20z"/>
<path d="M11652 5448 c-7 -7 -12 -21 -12 -31 0 -10 -9 -32 -21 -48 -31 -43
-15 -54 36 -24 24 14 46 25 49 25 3 0 6 -13 6 -28 0 -37 17 -52 57 -52 40 0
46 26 9 36 -19 5 -26 15 -31 47 -8 48 -21 60 -47 46 -15 -8 -18 -6 -18 10 0
25 -13 34 -28 19z"/>
<path d="M12793 5436 c-56 -27 -67 -48 -47 -95 14 -33 47 -51 92 -51 42 0 182
50 182 65 0 23 -23 23 -94 -2 -74 -24 -116 -29 -116 -13 0 6 7 10 15 10 23 0
55 37 55 65 0 40 -29 47 -87 21z m42 -35 c-6 -5 -21 -12 -35 -15 l-25 -7 25
15 c28 17 50 21 35 7z"/>
<path d="M7420 5405 c-7 -8 -13 -38 -14 -67 -1 -42 2 -53 17 -56 14 -3 17 4
17 32 0 19 4 46 9 60 13 31 -9 55 -29 31z"/>
<path d="M9968 5394 c-32 -17 -48 -43 -48 -78 0 -32 36 -43 90 -27 49 15 50
14 50 -10 0 -29 18 -59 36 -59 33 0 -16 158 -55 180 -26 13 -40 12 -73 -6z
m57 -44 c0 -16 -50 -38 -61 -27 -11 11 28 48 45 45 9 -2 16 -10 16 -18z"/>
<path d="M15723 5379 c-38 -11 -63 -43 -63 -80 0 -30 15 -39 64 -39 47 0 68
27 64 81 -3 48 -12 53 -65 38z m27 -65 c0 -8 -10 -14 -25 -14 -27 0 -32 9 -14
27 14 14 39 6 39 -13z"/>
<path d="M11225 4986 l7 -195 -24 -24 c-46 -45 -104 -12 -62 35 16 16 18 17
29 1 7 -9 17 -13 23 -9 16 10 15 38 -1 60 -13 17 -15 17 -45 2 -87 -45 -81
-144 9 -148 47 -2 73 15 93 56 14 30 16 62 12 223 -5 184 -5 188 -27 191 l-22
4 8 -196z"/>
<path d="M5046 5078 c-9 -39 -26 -129 -38 -199 -21 -122 -21 -130 -5 -163 10
-22 26 -38 42 -42 38 -9 42 3 12 34 -15 16 -27 38 -27 51 0 26 24 159 51 284
23 108 23 107 0 107 -15 0 -22 -14 -35 -72z"/>
<path d="M13115 5138 c-2 -7 -11 -54 -20 -104 l-17 -92 -36 -6 c-20 -3 -51 -6
-68 -6 -30 0 -54 -15 -54 -33 0 -6 31 -8 76 -4 74 5 76 5 70 -16 -25 -104 -15
-147 35 -147 45 0 157 30 170 46 19 23 -12 27 -79 10 -108 -28 -110 -26 -91
64 11 53 18 57 85 51 12 -1 27 5 33 13 17 20 -1 29 -56 28 -41 0 -44 2 -39 21
14 61 27 159 22 172 -7 18 -25 20 -31 3z"/>
<path d="M15059 5117 c-71 -48 -42 -126 75 -201 73 -46 89 -65 75 -82 -6 -8
-26 -14 -44 -14 -38 0 -176 34 -207 52 -20 11 -21 13 -5 16 34 7 15 37 -23 37
-29 0 -36 -4 -38 -22 -5 -35 38 -69 119 -95 96 -29 198 -31 228 -4 42 38 22
73 -85 147 -41 29 -79 60 -85 70 -17 32 -10 59 17 69 46 18 56 13 49 -21 -6
-26 -4 -30 11 -27 27 5 48 52 34 78 -15 28 -77 27 -121 -3z"/>
<path d="M8765 5112 c-6 -4 -21 -28 -34 -54 -23 -42 -27 -45 -50 -37 -33 13
-53 4 -49 -23 2 -19 8 -22 32 -20 24 3 27 0 21 -15 -55 -132 3 -213 140 -198
69 7 99 22 87 43 -7 10 -20 10 -61 1 -68 -14 -117 -5 -137 27 -15 22 -15 30
-3 76 16 59 22 62 142 73 49 5 67 10 67 21 0 22 -18 25 -96 16 l-72 -8 19 35
c10 20 19 41 19 48 0 16 -13 23 -25 15z"/>
<path d="M14176 5099 c-8 -13 -28 -59 -42 -102 -15 -44 -35 -86 -45 -95 -11
-9 -19 -21 -19 -27 0 -6 -13 -29 -30 -51 -32 -43 -41 -104 -15 -104 8 0 18 12
21 28 4 15 21 46 38 69 25 34 37 42 64 43 29 0 32 -3 32 -29 0 -31 25 -65 41
-55 5 3 6 23 3 44 l-6 39 41 7 c23 4 44 11 48 16 9 16 -19 29 -52 23 l-30 -5
0 95 c0 74 -4 98 -16 111 -15 15 -18 14 -33 -7z m9 -166 c-4 -23 -11 -33 -25
-33 -18 0 -18 2 3 60 19 51 23 57 25 34 2 -15 1 -42 -3 -61z"/>
<path d="M10410 5080 c-31 -33 -47 -85 -56 -187 l-6 -72 -41 2 c-31 2 -42 -2
-45 -14 -2 -13 8 -18 43 -23 l46 -7 -6 -37 c-19 -113 -38 -201 -51 -235 -26
-68 7 -81 36 -14 13 30 60 249 60 282 0 1 26 2 58 1 44 -1 57 2 57 14 0 9 -11
16 -25 18 -14 1 -40 5 -58 8 l-34 5 7 72 c7 84 21 135 43 160 20 23 24 22 61
-13 29 -28 51 -32 51 -10 0 5 -14 25 -31 45 -39 44 -71 46 -109 5z"/>
<path d="M11727 5104 c-4 -4 -7 -49 -7 -100 l0 -93 -27 -3 c-17 -2 -28 -9 -28
-18 0 -9 11 -16 28 -18 23 -3 27 -8 27 -35 0 -48 25 -122 41 -122 15 0 16 25
4 107 l-7 47 73 3 c61 2 74 6 77 21 3 15 -6 17 -72 17 l-75 0 -3 97 c-3 89
-12 116 -31 97z"/>
<path d="M14691 5088 c-5 -13 -14 -54 -20 -91 -12 -70 -46 -174 -63 -192 -12
-13 -24 7 -43 73 -22 73 -34 67 -76 -33 -19 -47 -21 -49 -35 -31 -9 13 -14 47
-14 102 0 107 -8 146 -29 142 -14 -3 -16 -18 -13 -108 4 -116 13 -159 42 -185
25 -22 52 -8 75 41 l17 36 19 -41 c10 -23 25 -44 34 -47 21 -8 62 31 82 76 17
41 63 230 63 260 0 27 -28 26 -39 -2z"/>
<path d="M2887 5083 c-3 -5 -5 -31 -6 -60 0 -29 -10 -93 -21 -144 -26 -119 -9
-160 46 -108 l22 21 7 -31 c8 -37 42 -61 51 -36 4 9 2 21 -5 28 -6 6 -11 30
-11 54 0 49 -13 55 -57 26 l-26 -17 8 29 c14 56 31 189 27 217 -4 26 -25 38
-35 21z"/>
<path d="M4257 4940 c-56 -66 -39 -136 30 -128 30 4 33 2 33 -23 0 -35 21 -51
62 -47 46 4 53 38 8 38 -31 0 -32 1 -26 33 20 108 21 102 -16 131 -45 33 -60
33 -91 -4z m66 -28 c16 -17 15 -20 -3 -40 -21 -23 -60 -30 -60 -12 0 17 30 70
39 70 4 0 15 -8 24 -18z"/>
<path d="M2670 4933 c-39 -14 -39 -23 -5 -81 29 -50 32 -60 21 -77 -17 -26
-71 -32 -80 -9 -3 9 -2 22 3 28 16 19 -5 43 -26 30 -26 -16 -27 -56 -3 -87 39
-49 124 -30 150 33 11 26 9 35 -15 76 -15 25 -25 48 -22 50 7 8 57 -7 57 -17
0 -5 9 -9 20 -9 13 0 20 7 20 21 0 32 -75 58 -120 42z"/>
<path d="M5977 4902 c-9 -10 -22 -32 -28 -49 -5 -17 -19 -33 -31 -36 -24 -7
-19 -31 8 -35 10 -2 28 -12 39 -22 24 -22 68 -40 99 -40 42 0 126 30 126 45 0
18 -22 19 -88 3 -40 -9 -57 -8 -81 2 -38 15 -39 21 -1 42 32 18 37 41 18 83
-13 29 -38 32 -61 7z m25 -54 c-7 -7 -12 -8 -12 -2 0 14 12 26 19 19 2 -3 -1
-11 -7 -17z"/>
<path d="M7153 4900 c-57 -34 -73 -95 -28 -106 25 -6 42 -4 78 11 14 6 17 2
17 -22 0 -37 34 -73 52 -55 9 9 9 15 0 24 -7 7 -12 35 -12 64 0 83 -47 121
-107 84z m67 -35 c0 -7 -57 -35 -71 -35 -7 0 -5 8 6 20 16 17 65 29 65 15z"/>
<path d="M3141 4901 c-10 -7 -11 -13 -2 -30 14 -26 41 -28 41 -2 0 24 -22 42
-39 32z"/>
<path d="M7433 4896 c-4 -7 -19 -13 -33 -12 -21 1 -27 -7 -44 -52 -15 -42 -16
-56 -7 -65 10 -9 23 0 62 41 27 29 49 48 49 42 0 -6 11 -15 24 -21 18 -8 30
-7 54 5 40 21 38 21 46 -14 6 -33 43 -57 70 -47 24 9 19 26 -9 37 -23 9 -30
25 -27 70 1 27 -21 29 -69 5 -49 -25 -59 -24 -59 7 0 22 -45 25 -57 4z"/>
<path d="M8349 4872 c-50 -32 -79 -76 -62 -93 8 -8 22 0 51 30 49 52 62 52 55
2 -6 -41 9 -81 30 -81 9 0 13 20 13 73 -1 107 -12 116 -87 69z"/>
<path d="M11372 4884 c-38 -27 -45 -51 -21 -75 17 -17 28 -19 60 -14 34 6 39
4 39 -13 0 -22 30 -52 53 -52 25 0 28 16 7 35 -11 10 -23 36 -27 57 -5 32 -9
39 -24 35 -12 -3 -19 2 -23 19 -7 28 -32 31 -64 8z m33 -44 c3 -5 -1 -10 -9
-10 -9 0 -16 5 -16 10 0 6 4 10 9 10 6 0 13 -4 16 -10z"/>
<path d="M13436 4884 c-22 -21 -31 -64 -19 -83 22 -35 103 -20 103 20 0 24
-39 79 -56 79 -7 0 -20 -7 -28 -16z"/>
<path d="M5208 4840 c-63 -63 -40 -115 42 -94 35 10 40 9 40 -6 0 -23 32 -50
58 -50 28 0 29 27 1 35 -19 6 -20 12 -14 60 8 71 -4 95 -52 95 -28 0 -44 -8
-75 -40z m92 -15 c0 -18 -55 -48 -78 -43 -14 3 -12 9 12 31 31 29 66 36 66 12z"/>
<path d="M7845 4871 c-43 -11 -72 -28 -89 -53 -20 -29 -20 -34 4 -58 24 -24
94 -27 145 -6 29 12 35 20 35 44 0 31 -34 83 -53 81 -7 -1 -25 -4 -42 -8z m15
-50 c0 -5 10 -12 23 -15 21 -7 21 -7 2 -16 -24 -10 -95 -13 -95 -3 0 3 7 15
17 25 17 18 53 25 53 9z"/>
<path d="M3367 4859 c-9 -5 -24 -23 -32 -40 -9 -16 -20 -27 -24 -24 -16 9 -33
-24 -28 -52 3 -16 -4 -61 -14 -101 -23 -83 -22 -125 3 -130 23 -4 36 30 46
117 l7 66 44 6 c59 8 101 53 101 109 0 29 -5 42 -19 50 -25 13 -61 12 -84 -1z
m63 -54 c0 -32 -33 -65 -65 -65 -25 0 -25 0 -9 33 24 46 34 57 55 57 14 0 19
-7 19 -25z"/>
<path d="M5440 4855 c-36 -44 -4 -158 35 -125 14 12 14 14 -1 31 -8 9 -14 28
-12 41 2 19 9 23 40 23 68 1 62 32 -9 42 -29 4 -42 1 -53 -12z"/>
<path d="M5658 4859 c-34 -13 -72 -71 -63 -99 9 -28 52 -36 101 -18 l42 15 6
-36 c3 -20 6 -60 6 -89 l0 -54 -30 7 c-51 11 -109 -4 -128 -33 -40 -61 -1
-181 77 -238 25 -18 54 -34 63 -34 30 0 51 58 56 152 4 84 5 87 24 77 14 -8
23 -8 31 0 12 12 -5 37 -32 46 -15 5 -19 22 -24 117 -3 66 -2 117 4 124 5 6 6
25 3 43 -11 52 -54 37 -54 -20 0 -21 -61 -52 -95 -47 -19 3 -18 5 7 31 21 21
33 26 53 21 19 -5 25 -2 25 10 0 12 -30 38 -42 35 -2 0 -15 -5 -30 -10z m70
-315 c20 -6 22 -12 22 -78 0 -39 -5 -88 -11 -109 l-10 -38 -31 22 c-51 37 -97
134 -82 174 11 28 63 42 112 29z"/>
<path d="M8159 4859 c-11 -7 -12 -12 -2 -28 14 -22 -3 -42 -50 -60 -47 -18
-67 -14 -67 14 0 14 5 25 10 25 16 0 12 30 -5 37 -35 13 -63 -85 -33 -115 31
-31 151 3 183 52 28 43 2 99 -36 75z"/>
<path d="M12039 4841 c-16 -16 -29 -36 -29 -45 0 -25 46 -49 79 -43 26 5 31 2
40 -24 12 -34 70 -64 107 -55 34 9 31 36 -4 36 -15 0 -37 7 -49 15 -17 12 -21
22 -16 49 4 26 0 42 -16 65 -30 41 -72 42 -112 2z m77 -22 c3 -6 0 -15 -7 -20
-22 -13 -49 -11 -49 5 0 23 43 35 56 15z"/>
<path d="M10035 4840 c-28 -11 -41 -29 -50 -67 -5 -27 -2 -37 19 -58 29 -28
52 -31 101 -11 58 25 72 80 30 121 -25 26 -62 31 -100 15z m79 -54 c9 -14 6
-21 -13 -37 -27 -22 -66 -25 -74 -6 -7 18 5 36 34 52 29 16 39 14 53 -9z"/>
<path d="M3125 4810 c-25 -28 -27 -103 -2 -108 13 -3 17 3 17 25 0 15 7 41 15
57 23 44 3 62 -30 26z"/>
<path d="M15497 4794 c-14 -15 -6 -34 14 -34 14 0 19 5 17 17 -3 18 -20 27
-31 17z"/>
<path d="M5235 4217 c-3 -12 -6 -111 -7 -219 -3 -172 -5 -199 -20 -210 -9 -7
-20 -25 -23 -40 -5 -21 -1 -33 19 -53 22 -22 32 -25 63 -20 78 13 121 34 132
67 11 31 5 99 -11 131 -13 25 -52 21 -88 -9 l-31 -27 1 179 c2 226 3 211 -15
218 -10 3 -17 -2 -20 -17z m128 -401 c11 -67 -1 -80 -94 -100 -17 -4 -31 -1
-39 9 -9 11 -10 15 0 15 6 0 34 25 62 55 27 30 53 55 58 55 4 0 10 -15 13 -34z"/>
<path d="M12397 4183 c-45 -48 -77 -134 -93 -250 -7 -60 -14 -109 -14 -110 0
-1 -26 -4 -57 -8 -92 -10 -113 -16 -113 -30 0 -21 10 -23 84 -14 38 5 71 7 73
5 10 -10 -83 -229 -122 -288 -50 -75 -54 -88 -27 -88 35 0 133 179 182 333 9
30 16 37 30 32 29 -9 36 16 11 36 l-22 18 16 111 c15 111 37 173 78 218 27 29
53 28 73 -3 9 -14 23 -25 30 -25 21 0 17 34 -7 64 -29 37 -85 36 -122 -1z"/>
<path d="M2341 4102 c-23 -54 -58 -128 -79 -163 -93 -162 -128 -259 -93 -259
5 0 28 41 52 90 l42 90 52 0 c59 0 75 -12 75 -55 0 -55 13 -107 27 -112 8 -3
16 -3 19 0 3 3 1 49 -5 104 -6 54 -12 166 -15 248 -2 83 -5 151 -5 153 -1 1
-7 2 -15 2 -8 0 -31 -41 -55 -98z m39 -115 l0 -92 -45 3 c-26 2 -44 7 -43 11
2 3 22 43 43 88 22 45 41 82 43 83 1 0 2 -42 2 -93z"/>
<path d="M10747 4167 c-3 -7 -3 -24 0 -38 2 -13 -11 -69 -30 -124 l-35 -99
-45 -12 c-57 -15 -67 -21 -67 -45 0 -23 9 -24 46 -4 57 29 59 25 33 -75 -13
-51 -11 -77 6 -84 18 -7 18 -6 40 96 l16 76 85 7 c46 4 87 12 90 17 13 20 -23
29 -94 23 l-72 -7 35 97 c40 112 47 185 16 185 -10 0 -21 -6 -24 -13z"/>
<path d="M15666 4138 c-14 -24 -35 -54 -46 -67 l-21 -24 -42 21 c-103 51 -186
58 -211 19 -17 -27 6 -42 37 -23 13 9 32 14 41 11 9 -3 22 -7 30 -9 10 -3 2
-18 -29 -48 -68 -68 -80 -143 -32 -195 18 -21 19 -25 5 -40 -151 -177 -164
-198 -156 -240 6 -30 32 -21 39 14 4 19 38 71 85 127 65 77 83 93 99 88 30
-10 103 -7 163 8 65 15 112 52 112 88 0 33 -42 105 -80 134 l-31 24 46 47 c33
35 45 55 45 77 0 43 -23 38 -54 -12z m-173 -234 l-58 -74 -17 22 c-36 45 -1
121 77 169 l29 18 13 -30 c12 -30 11 -33 -44 -105z m154 54 c60 -64 67 -100
25 -122 -38 -19 -145 -38 -175 -31 -24 7 -24 8 42 95 36 49 68 89 72 89 3 1
19 -14 36 -31z"/>
<path d="M13496 4153 c-4 -9 -2 -21 4 -27 15 -15 13 -29 -21 -137 -28 -89 -34
-98 -58 -101 -33 -4 -35 -32 -3 -36 22 -3 23 -7 17 -52 -9 -65 1 -112 23 -108
12 3 16 12 14 28 -2 14 0 48 3 75 l6 50 57 0 c44 0 57 3 57 15 0 11 -13 16
-45 18 -25 2 -48 6 -52 10 -4 4 6 49 22 100 32 98 37 151 18 170 -17 17 -35
15 -42 -5z"/>
<path d="M6787 4143 c-2 -5 -5 -48 -6 -98 -1 -49 -8 -121 -16 -160 -32 -160
-28 -225 14 -225 21 0 85 66 96 99 3 12 10 21 15 21 17 0 22 -44 9 -82 -11
-34 -11 -41 2 -49 25 -15 34 -4 43 54 8 53 6 60 -18 92 -32 42 -50 44 -72 8
-60 -99 -69 -109 -72 -86 -2 12 6 72 17 135 17 94 28 236 22 286 -1 13 -27 17
-34 5z"/>
<path d="M3063 4087 c-35 -36 -53 -62 -53 -79 0 -26 40 -73 100 -116 55 -40
100 -85 100 -99 0 -18 -106 -46 -152 -40 -40 5 -78 31 -78 52 0 6 12 17 27 24
24 11 25 13 10 28 -14 15 -18 15 -41 0 -33 -22 -40 -50 -21 -87 23 -44 75 -64
147 -56 81 8 137 33 145 64 9 37 -15 69 -102 137 -87 68 -101 86 -85 114 17
33 77 73 102 69 18 -2 24 -11 28 -38 7 -49 34 -47 38 2 4 49 -24 78 -75 78
-30 0 -44 -8 -90 -53z"/>
<path d="M15030 4119 c-30 -5 -58 -13 -63 -18 -12 -12 0 -31 19 -31 20 0 18
-17 -6 -47 -32 -41 -27 -57 18 -49 123 22 126 21 171 -19 55 -50 55 -78 -1
-132 -73 -70 -164 -81 -228 -27 -37 32 -38 56 -2 82 20 16 24 24 16 32 -16 16
-51 3 -70 -26 -26 -39 -11 -89 37 -123 85 -62 190 -50 276 33 46 46 53 57 53
92 0 29 -8 49 -31 77 -43 53 -82 71 -139 64 -46 -6 -46 -6 -42 23 3 23 10 29
39 35 41 7 142 -11 164 -31 17 -15 29 -9 29 15 0 27 -16 43 -46 45 -16 2 -54
5 -84 9 -30 3 -80 1 -110 -4z"/>
<path d="M5863 4053 c0 -38 -3 -113 -8 -168 -7 -92 -6 -104 14 -142 23 -47 38
-60 53 -45 6 6 2 23 -11 48 -24 45 -26 89 -10 224 12 101 4 150 -25 150 -11 0
-14 -15 -13 -67z"/>
<path d="M6016 4113 c-11 -11 -6 -166 9 -285 17 -136 35 -188 64 -188 25 0 26
7 5 50 -19 38 -43 221 -44 336 0 61 -4 83 -14 87 -8 3 -17 3 -20 0z"/>
<path d="M13657 4113 c-2 -5 -7 -37 -11 -73 -4 -36 -18 -112 -32 -169 -15 -60
-22 -107 -17 -112 5 -5 23 1 43 16 19 14 35 25 36 25 1 0 -1 -20 -4 -45 -5
-45 10 -79 31 -72 5 1 11 30 13 62 1 33 5 73 9 88 9 43 -3 50 -42 27 -31 -18
-34 -18 -29 -3 17 60 45 246 39 256 -2 4 -10 7 -18 7 -8 0 -16 -3 -18 -7z"/>
<path d="M16495 4110 c-214 -10 -285 -19 -292 -36 -3 -8 -3 -17 0 -20 3 -3 61
-1 128 5 67 6 124 9 127 7 2 -3 -19 -54 -47 -113 -52 -110 -61 -149 -39 -171
24 -24 39 -14 33 21 -5 25 5 54 45 137 27 58 50 110 50 117 0 7 47 13 150 18
110 6 150 11 150 20 0 27 -21 28 -305 15z"/>
<path d="M16952 4110 c-45 -11 -69 -35 -70 -71 0 -17 -6 -37 -13 -45 -6 -8 -9
-14 -6 -14 4 0 -3 -21 -15 -47 -26 -60 -49 -144 -42 -155 14 -23 33 -2 48 55
10 34 25 76 34 93 l17 31 60 -19 c106 -35 175 -103 148 -147 -31 -51 -212 -90
-285 -61 -51 21 -88 49 -82 64 9 22 -18 31 -32 11 -36 -49 63 -116 179 -123
79 -5 191 26 238 66 67 56 19 152 -103 207 l-63 28 42 14 c47 16 95 65 87 88
-6 14 -65 36 -94 34 -8 -1 -30 -5 -48 -9z m86 -39 c10 -6 2 -14 -30 -29 -76
-36 -88 -37 -88 -8 0 20 7 27 33 35 42 12 69 13 85 2z"/>
<path d="M2781 4081 c-6 -11 -11 -83 -12 -168 -1 -186 -9 -212 -35 -112 -15
60 -23 75 -40 77 -16 2 -29 -8 -50 -42 l-29 -46 -5 143 c-4 117 -8 142 -20
142 -23 0 -27 -287 -5 -321 8 -13 20 -24 25 -24 5 0 25 23 44 51 l35 52 12
-62 c13 -67 26 -84 61 -79 35 5 47 55 47 205 1 96 4 132 14 136 9 3 9 11 2 32
-13 36 -30 42 -44 16z"/>
<path d="M13220 3962 c0 -35 26 -64 36 -39 10 26 0 62 -18 65 -14 3 -18 -3
-18 -26z"/>
<path d="M4087 3973 c-14 -13 -6 -59 17 -99 22 -38 22 -41 4 -36 -23 6 -58
-24 -58 -50 0 -33 19 -56 57 -69 34 -11 38 -10 55 11 26 32 22 72 -13 141 -17
34 -28 64 -24 67 3 3 21 -2 40 -12 31 -17 55 -16 55 4 0 27 -112 64 -133 43z
m53 -187 c0 -30 -9 -37 -31 -25 -24 12 -24 28 -2 45 22 16 33 9 33 -20z"/>
<path d="M10376 3943 c-12 -12 -6 -44 10 -50 18 -7 35 13 27 33 -5 15 -29 25
-37 17z"/>
<path d="M4777 3899 c-31 -26 -38 -37 -35 -62 4 -41 27 -47 34 -9 4 17 17 35
35 46 l29 17 0 -29 c0 -16 -7 -46 -15 -65 -36 -86 -2 -103 70 -36 l45 42 -2
-51 c-3 -58 12 -82 52 -82 19 0 37 10 53 30 24 28 25 36 23 120 -2 50 -6 93
-9 97 -4 3 -14 0 -23 -8 -14 -11 -16 -26 -11 -90 6 -68 4 -79 -13 -94 -28 -25
-34 -14 -35 58 0 52 -3 62 -18 65 -11 2 -29 -5 -40 -16 -41 -36 -44 -34 -39
18 8 85 -34 105 -101 49z"/>
<path d="M13925 3918 c-38 -21 -84 -71 -90 -99 -14 -63 34 -89 166 -89 56 0
80 4 89 15 7 9 11 18 8 21 -3 3 -51 6 -106 7 -64 1 -106 6 -113 14 -18 18 -7
25 48 30 26 3 54 10 61 16 17 13 15 48 -4 75 -17 24 -29 27 -59 10z m35 -48
c0 -5 -9 -10 -21 -10 -11 0 -17 5 -14 10 3 6 13 10 21 10 8 0 14 -4 14 -10z"/>
<path d="M7373 3905 c-17 -7 -39 -25 -48 -39 -23 -35 -7 -74 48 -120 28 -23
38 -38 34 -50 -11 -27 -36 -30 -61 -7 -27 26 -46 27 -46 3 0 -22 51 -62 80
-62 29 0 70 44 70 76 0 19 -14 40 -50 73 -27 26 -50 52 -50 57 0 11 26 27 73
44 33 12 37 40 5 40 -13 -1 -37 -7 -55 -15z"/>
<path d="M8970 3903 c-8 -3 -34 -24 -57 -46 -31 -30 -43 -49 -43 -70 0 -73 56
-104 178 -98 26 1 33 5 30 19 -3 14 -15 17 -61 19 -107 3 -136 49 -70 109 40
37 64 42 83 19 18 -21 40 -19 40 4 0 36 -55 60 -100 44z"/>
<path d="M14170 3895 c-22 -26 -41 -105 -29 -126 16 -31 39 -23 38 14 -2 51
17 87 45 87 13 0 29 -7 36 -15 7 -8 19 -15 26 -15 20 0 17 27 -6 50 -24 24
-91 27 -110 5z"/>
<path d="M4316 3878 c-22 -102 -23 -118 -11 -128 10 -8 19 -3 36 22 l24 32 7
-44 c9 -51 32 -80 49 -63 8 8 8 16 0 31 -6 11 -12 50 -13 86 -1 56 -4 66 -19
66 -10 0 -23 -8 -28 -17 -9 -16 -10 -15 -8 7 3 33 -30 41 -37 8z"/>
<path d="M9565 3868 c-15 -18 -32 -43 -38 -55 -8 -18 -13 -20 -24 -12 -10 9
-17 2 -33 -32 -11 -24 -20 -57 -20 -73 0 -15 -8 -50 -17 -77 -14 -40 -15 -51
-5 -61 11 -11 17 -9 33 11 10 13 19 32 19 42 0 10 10 39 22 64 20 41 25 45 59
45 69 0 125 87 99 154 -14 39 -60 36 -95 -6z m60 -47 c-9 -34 -33 -61 -57 -61
-21 0 -22 4 -7 33 18 34 51 67 61 61 5 -4 7 -18 3 -33z"/>
<path d="M5581 3864 c-35 -29 -49 -81 -31 -114 10 -18 18 -21 48 -18 21 3 45
8 54 12 12 6 21 0 32 -22 17 -34 52 -50 69 -33 7 7 3 18 -16 35 -21 19 -27 34
-27 66 0 28 -4 40 -14 40 -8 0 -24 14 -36 30 -26 37 -40 37 -79 4z m62 -48
c15 -22 14 -24 -9 -35 -51 -23 -64 -13 -42 34 14 31 31 32 51 1z"/>
<path d="M8081 3865 c-45 -38 -74 -91 -67 -120 5 -21 12 -25 44 -25 21 0 54 8
74 19 30 15 38 16 42 4 7 -18 49 -33 75 -26 23 6 29 32 9 34 -7 1 -20 2 -28 3
-11 1 -15 13 -15 43 0 36 -5 46 -34 68 -44 31 -62 32 -100 0z m77 -41 c4 -26
-56 -67 -90 -62 -21 3 -21 5 16 46 41 45 69 51 74 16z"/>
<path d="M7071 3843 c-40 -49 -57 -98 -41 -118 16 -19 81 -19 106 0 24 18 34
19 34 0 0 -22 35 -38 49 -21 8 10 9 16 1 21 -13 8 -13 41 2 82 9 26 9 36 0 45
-9 9 -15 9 -24 0 -8 -8 -17 -6 -36 8 -36 29 -57 25 -91 -17z m99 -43 c0 -11
-71 -50 -90 -50 -18 0 -19 3 -9 23 6 12 21 32 32 44 19 21 21 21 43 5 13 -9
23 -19 24 -22z"/>
<path d="M9810 3858 c-44 -30 -54 -49 -46 -82 6 -26 10 -28 56 -24 44 3 50 1
55 -19 5 -22 41 -41 53 -28 3 3 1 15 -6 25 -8 14 -9 27 -2 45 15 40 12 55 -11
55 -11 0 -17 4 -14 10 9 15 -13 40 -35 40 -9 0 -32 -10 -50 -22z m53 -42 c6
-16 -12 -26 -45 -26 -20 0 -21 1 -3 20 21 23 41 26 48 6z"/>
<path d="M12932 3850 c-35 -25 -42 -36 -42 -64 0 -42 50 -90 111 -106 80 -22
95 14 16 37 -60 17 -65 28 -22 49 43 20 66 59 54 92 -13 33 -65 30 -117 -8z
m65 -35 c-15 -14 -38 -25 -50 -25 -21 1 -21 2 6 25 15 14 38 25 50 25 21 -1
21 -2 -6 -25z"/>
<path d="M4537 3848 c-9 -7 -21 -26 -27 -41 -34 -92 27 -149 101 -96 23 16 29
28 29 58 0 69 -57 113 -103 79z m63 -66 c0 -32 -16 -52 -42 -52 -12 0 -18 8
-18 24 0 40 11 56 36 56 20 0 24 -5 24 -28z"/>
<path d="M10035 3827 c-41 -41 -54 -82 -32 -104 32 -32 172 -26 172 8 0 11
-13 13 -62 11 -78 -4 -87 1 -68 39 15 29 24 33 58 29 14 -1 18 4 15 22 -5 37
-43 35 -83 -5z"/>
<path d="M9270 3842 c-37 -17 -70 -46 -70 -62 0 -28 37 -53 76 -52 19 1 39 4
44 7 5 3 10 -9 12 -26 4 -38 31 -60 50 -41 9 9 9 15 0 24 -16 16 -15 53 3 89
14 26 14 30 0 35 -8 3 -28 -5 -46 -20 -21 -18 -42 -26 -67 -26 l-37 0 25 20
c14 11 39 20 56 20 30 0 51 20 37 34 -8 8 -64 6 -83 -2z"/>
<path d="M11082 3804 c-39 -66 -186 -268 -254 -349 -58 -69 -86 -129 -75 -159
4 -9 11 -16 17 -16 11 0 14 7 24 52 3 15 37 64 75 110 131 159 275 372 267
394 -10 25 -26 15 -54 -32z"/>
<path d="M10910 3810 c0 -16 6 -33 13 -37 6 -4 19 -21 27 -38 17 -32 60 -48
60 -22 0 8 -6 20 -14 26 -8 7 -17 24 -21 39 -15 59 -65 84 -65 32z"/>
<path d="M11959 3811 c-73 -73 13 -165 95 -100 29 23 33 47 11 88 -25 50 -64
54 -106 12z m76 -42 c5 -14 2 -25 -6 -30 -19 -12 -51 -7 -57 9 -2 8 2 10 13 6
11 -5 18 0 22 15 7 27 20 27 28 0z"/>
<path d="M10327 3778 c-26 -57 -25 -78 3 -78 14 0 23 14 35 55 15 53 14 75 -5
75 -5 0 -20 -24 -33 -52z"/>
<path d="M13195 3799 c-9 -17 -15 -40 -13 -52 4 -28 31 -29 36 -2 2 11 11 28
19 37 18 20 11 48 -11 48 -9 0 -23 -14 -31 -31z"/>
<path d="M8184 3612 c-6 -4 -14 -52 -17 -107 -3 -55 -13 -136 -22 -180 -21
-98 -10 -146 35 -170 35 -18 114 -20 128 -2 13 16 0 153 -16 169 -9 9 -22 7
-57 -10 -24 -12 -46 -18 -48 -14 -3 4 2 47 9 95 24 162 20 240 -12 219z m88
-382 c3 -49 2 -50 -25 -50 -34 0 -63 14 -70 34 -4 11 8 24 36 41 23 13 45 25
49 25 3 0 8 -23 10 -50z"/>
<path d="M11493 3612 c-6 -4 -16 -43 -22 -87 -7 -44 -23 -129 -37 -188 -30
-130 -29 -171 5 -175 28 -4 72 34 108 96 14 23 27 42 29 42 2 0 3 -32 2 -70
-1 -68 9 -99 30 -86 13 8 14 156 1 189 -7 17 -18 27 -28 25 -9 -2 -41 -39 -71
-83 -33 -49 -56 -74 -58 -64 -1 9 8 63 22 120 14 57 28 132 32 167 3 34 11 62
15 62 14 0 11 36 -4 48 -7 6 -18 8 -24 4z"/>
<path d="M17011 3602 c-52 -26 -70 -58 -89 -162 l-18 -95 -43 -3 c-23 -2 -48
1 -54 7 -17 13 -51 -13 -44 -34 5 -11 22 -15 68 -15 l62 0 -7 -37 c-13 -76
-26 -215 -20 -224 12 -20 33 13 39 59 3 26 11 81 17 124 l11 76 55 -5 c49 -6
54 -4 50 13 -2 12 -13 20 -28 22 -72 8 -69 3 -53 89 20 109 35 138 73 152 32
11 32 11 27 -18 -4 -19 -1 -33 8 -41 12 -10 17 -7 25 15 20 53 7 95 -29 95 -9
0 -31 -8 -50 -18z"/>
<path d="M3735 3574 c-19 -10 -32 -11 -45 -4 -10 6 -37 10 -59 10 -71 0 -84
-48 -37 -139 17 -31 16 -33 -8 -62 -30 -36 -42 -105 -26 -153 15 -46 85 -104
109 -89 40 25 53 150 22 218 l-18 40 64 68 c41 43 63 76 63 91 0 30 -29 39
-65 20z m-47 -50 c29 -20 28 -30 -10 -65 l-32 -29 -18 32 c-9 18 -17 43 -18
56 0 18 6 22 28 22 15 0 38 -7 50 -16z m-32 -186 c17 -32 17 -139 0 -155 -14
-14 -66 55 -66 88 0 34 27 99 41 99 5 0 16 -14 25 -32z"/>
<path d="M4092 3556 c-28 -33 -32 -34 -68 -24 -82 21 -88 20 -138 -13 -90 -60
-137 -173 -102 -245 9 -19 22 -37 30 -40 10 -4 -1 -25 -40 -77 -35 -47 -54
-82 -54 -100 0 -29 19 -43 45 -33 13 4 13 9 3 25 -10 17 -6 27 33 77 24 32 47
62 50 67 3 5 33 3 67 -3 113 -23 197 18 237 113 21 50 11 97 -30 152 l-33 43
34 33 c19 18 34 39 34 46 0 25 -38 13 -68 -21z m-121 -153 c-39 -49 -81 -101
-95 -118 l-26 -30 -20 24 c-26 30 -25 66 3 121 29 59 83 90 155 90 l52 0 -69
-87z m150 -20 c9 -29 8 -40 -13 -81 -31 -63 -90 -90 -168 -76 l-51 9 88 112
88 112 22 -21 c12 -12 27 -36 34 -55z"/>
<path d="M8793 3557 c-4 -7 -9 -67 -11 -133 -4 -133 11 -216 47 -248 30 -28
34 -3 10 64 -19 52 -21 74 -17 189 3 99 1 132 -9 135 -7 3 -16 0 -20 -7z"/>
<path d="M12945 3558 c-2 -7 -9 -32 -15 -55 -31 -128 -27 -122 -68 -125 -26
-2 -38 -8 -40 -20 -3 -15 4 -18 35 -18 l38 0 -3 -105 c-4 -101 -3 -105 17
-105 20 0 21 5 21 89 0 118 1 121 61 121 27 0 49 -3 49 -7 0 -5 -5 -28 -11
-52 -11 -48 -4 -101 13 -101 6 0 26 17 44 38 l33 37 -10 -39 c-9 -31 -8 -42 4
-54 9 -8 23 -12 33 -8 12 5 14 10 7 17 -7 7 -7 24 -2 47 21 90 1 120 -51 76
-16 -14 -30 -21 -30 -16 0 15 28 126 51 200 19 65 18 82 -6 82 -13 0 -24 -31
-54 -145 l-10 -40 -55 3 c-36 3 -53 8 -51 15 17 54 35 152 31 163 -7 17 -25
18 -31 2z"/>
<path d="M15571 3548 c-5 -13 -5 -30 1 -41 8 -15 6 -48 -8 -114 -3 -14 -12
-23 -23 -23 -33 0 -51 -11 -51 -32 0 -17 4 -19 31 -13 30 7 31 6 25 -19 -13
-53 -17 -111 -7 -125 12 -19 42 -7 35 14 -4 9 -1 42 6 75 l12 58 53 -5 c36 -4
55 -2 60 7 10 16 -12 30 -50 30 -49 1 -54 9 -44 68 16 88 -16 184 -40 120z"/>
<path d="M4689 3477 c-20 -34 -42 -76 -49 -94 -11 -28 -15 -31 -41 -26 -23 4
-29 2 -29 -11 0 -9 11 -21 25 -26 19 -7 25 -17 25 -39 0 -41 51 -98 99 -111
46 -12 113 3 105 25 -4 10 -20 14 -54 12 -61 -3 -104 25 -108 70 -4 35 12 43
91 43 41 0 48 3 45 18 -3 14 -14 17 -65 17 -59 0 -60 1 -52 23 15 39 36 76 58
101 26 30 28 61 4 61 -11 0 -32 -24 -54 -63z"/>
<path d="M5075 3529 c-16 -5 -38 -7 -48 -5 -27 7 -37 -32 -37 -148 0 -100 -1
-103 -25 -114 -31 -14 -33 -54 -5 -82 11 -11 20 -26 20 -34 0 -19 27 -39 40
-31 6 4 9 13 6 21 -4 12 6 13 62 8 74 -7 172 8 211 33 20 13 23 21 18 60 -6
57 -30 90 -94 129 -46 28 -49 32 -37 49 21 28 17 82 -6 105 -21 21 -56 24
-105 9z m83 -58 c5 -29 -7 -41 -50 -50 -48 -10 -46 -43 3 -52 45 -7 121 -51
148 -85 29 -37 27 -72 -5 -84 -40 -16 -128 -23 -178 -16 -40 6 -46 10 -46 32
0 13 5 24 10 24 6 0 10 7 10 15 0 8 -4 15 -10 15 -18 0 -12 157 7 186 31 49
105 59 111 15z"/>
<path d="M9955 3520 c-3 -5 1 -43 10 -84 22 -107 22 -104 -28 -99 -40 5 -45 2
-80 -36 -45 -50 -52 -109 -15 -135 58 -41 163 -3 181 64 14 53 -20 278 -44
290 -11 7 -20 7 -24 0z m31 -275 c-7 -37 -45 -59 -92 -53 -38 4 -43 37 -13 79
20 28 25 31 60 25 33 -5 39 -3 40 11 1 11 3 9 6 -6 3 -13 2 -38 -1 -56z"/>
<path d="M8913 3495 c-8 -24 14 -214 32 -267 16 -45 38 -67 50 -48 3 5 -1 31
-11 57 -9 27 -21 96 -27 155 -7 74 -14 109 -24 112 -8 3 -16 -1 -20 -9z"/>
<path d="M6850 3398 c-19 -5 -41 -14 -47 -20 -22 -18 -15 -56 13 -74 26 -18
54 -63 54 -89 0 -17 -35 -21 -45 -5 -7 11 -68 14 -78 4 -13 -13 7 -34 32 -34
15 0 32 -5 38 -11 6 -6 28 -9 49 -7 35 3 39 6 42 32 5 45 -6 73 -44 116 -37
41 -38 40 10 54 8 3 30 -4 49 -14 35 -19 47 -17 47 6 0 32 -70 56 -120 42z"/>
<path d="M7090 3365 c-18 -19 -36 -32 -40 -30 -11 7 -32 -50 -28 -76 5 -35 26
-34 41 3 8 18 31 49 51 68 31 29 38 32 46 20 13 -20 12 -52 -1 -106 -9 -34 -9
-47 1 -59 20 -24 39 -18 39 13 -1 15 2 54 6 87 6 53 4 63 -15 88 -29 36 -59
34 -100 -8z"/>
<path d="M13962 3375 c-56 -24 -94 -56 -108 -91 -16 -39 -6 -77 26 -94 28 -15
151 -24 169 -12 25 18 2 29 -70 34 -46 4 -76 11 -87 22 -15 15 -14 18 4 43 11
16 40 38 65 51 l44 23 12 -30 c9 -22 18 -29 29 -24 32 12 -3 94 -40 93 -6 -1
-26 -7 -44 -15z"/>
<path d="M14521 3364 c-11 -14 -23 -34 -26 -45 -5 -15 -10 -17 -26 -9 -28 15
-35 -12 -42 -157 -6 -116 -5 -123 13 -123 14 0 21 9 25 38 14 82 28 134 39
137 6 2 22 6 36 9 14 3 37 17 53 31 37 35 37 82 -1 118 -35 34 -45 34 -71 1z
m59 -59 c0 -19 -36 -55 -55 -55 -10 0 -5 30 12 64 13 28 19 33 30 25 7 -6 13
-22 13 -34z"/>
<path d="M15326 3374 c-8 -21 1 -34 25 -34 24 0 25 26 0 39 -15 8 -20 7 -25
-5z"/>
<path d="M10154 3336 c-50 -50 -57 -87 -23 -130 16 -21 29 -26 62 -26 23 0 56
8 73 19 l30 18 12 -68 c17 -101 20 -96 -48 -91 -99 7 -134 -34 -110 -130 26
-102 133 -157 185 -96 24 28 41 112 30 147 -5 15 -2 21 9 21 20 0 21 26 2 37
-7 4 -16 33 -20 63 -4 30 -11 87 -16 125 -5 39 -12 78 -16 88 -9 25 -28 16
-32 -16 -4 -34 -55 -77 -92 -77 -58 0 -64 56 -10 98 28 22 31 22 55 6 23 -15
25 -15 31 1 8 20 -30 54 -60 55 -10 0 -38 -20 -62 -44z m161 -328 c13 -13 16
-77 6 -115 -14 -50 -39 -59 -83 -29 -42 28 -66 95 -49 133 11 24 16 25 66 21
30 -3 57 -7 60 -10z"/>
<path d="M10495 3365 c-16 -8 -45 -32 -62 -52 -63 -70 -37 -153 53 -173 62
-14 184 23 184 56 0 18 -2 17 -97 -10 -72 -20 -132 -2 -133 40 0 6 28 19 63
29 34 9 68 22 75 27 20 17 14 55 -14 77 -32 25 -31 25 -69 6z m48 -56 c-4 -4
-24 -10 -43 -13 l-35 -7 29 26 c22 21 31 23 42 14 8 -7 11 -15 7 -20z"/>
<path d="M13281 3341 c-41 -38 -42 -40 -32 -78 19 -71 64 -89 173 -72 69 11
81 18 69 37 -6 10 -22 11 -73 2 -65 -10 -90 -7 -116 13 -10 8 -1 14 35 26 57
19 66 43 28 84 -14 15 -29 27 -34 27 -4 0 -27 -18 -50 -39z m63 -20 c3 -5 -1
-12 -10 -15 -27 -11 -37 -7 -24 9 14 17 26 19 34 6z"/>
<path d="M16596 3359 c-80 -63 -71 -159 16 -159 52 0 92 40 84 83 -4 18 -7 42
-6 54 0 22 -26 43 -53 43 -8 0 -26 -9 -41 -21z m59 -70 c9 -27 -12 -49 -46
-49 -24 0 -29 4 -29 23 0 33 38 72 55 57 8 -7 17 -21 20 -31z"/>
<path d="M7353 3355 c-59 -25 -82 -111 -42 -154 32 -34 65 -43 112 -30 76 20
83 41 43 131 -17 38 -32 57 -48 62 -29 7 -27 8 -65 -9z m54 -33 c20 -12 47
-92 35 -104 -15 -15 -78 -14 -96 1 -23 20 -20 58 9 86 26 27 33 29 52 17z"/>
<path d="M9621 3349 c-13 -12 -29 -37 -37 -55 -17 -39 -8 -68 31 -104 24 -22
34 -25 98 -23 49 1 75 7 86 18 23 23 0 34 -52 24 -23 -4 -51 -8 -63 -9 -23 0
-74 42 -74 60 0 6 7 4 16 -5 19 -19 51 -14 99 14 38 21 43 53 14 80 -30 28
-88 28 -118 0z m94 -28 c7 -13 -27 -31 -65 -36 -30 -4 -31 1 -7 33 11 14 63
16 72 3z"/>
<path d="M2605 3336 c-23 -34 -26 -151 -5 -151 11 0 17 18 24 65 4 36 9 66 11
68 1 1 18 -4 37 -13 32 -13 37 -13 48 0 10 12 5 18 -31 35 -57 25 -65 25 -84
-4z"/>
<path d="M7655 3348 c-2 -7 -13 -38 -25 -68 -11 -30 -20 -61 -20 -68 0 -22 51
-35 89 -22 31 11 35 10 55 -14 42 -51 113 -57 156 -11 20 21 21 30 15 89 -8
72 -26 108 -45 89 -9 -8 -9 -24 -1 -63 16 -75 14 -89 -14 -102 -35 -16 -71 2
-92 47 -19 41 -22 41 -65 15 -52 -31 -57 -26 -36 36 19 56 18 84 -2 84 -6 0
-13 -6 -15 -12z"/>
<path d="M8467 3342 c-32 -20 -42 -44 -28 -71 13 -24 63 -36 90 -22 28 15 28
15 35 -28 8 -51 30 -73 70 -69 43 4 50 38 7 38 -32 0 -31 -2 -46 104 -3 22
-10 45 -16 53 -16 18 -79 16 -112 -5z m83 -31 c0 -13 -57 -34 -71 -25 -9 5 -7
11 6 21 21 15 65 18 65 4z"/>
<path d="M14756 3330 c-44 -39 -52 -64 -32 -95 14 -21 25 -25 65 -25 31 0 53
-5 61 -15 20 -24 43 -19 37 7 -4 12 -1 28 5 35 10 12 0 46 -31 103 -15 29 -66
24 -105 -10z m84 -36 c14 -35 6 -44 -39 -44 -51 0 -56 9 -24 42 33 35 51 35
63 2z"/>
<path d="M15019 3343 c-78 -48 -76 -147 4 -171 51 -16 121 -22 137 -12 25 16
-3 31 -69 39 -35 4 -69 14 -78 23 -21 22 -10 63 23 84 21 14 29 15 49 4 31
-17 42 -7 27 25 -14 30 -53 33 -93 8z"/>
<path d="M11751 3325 c-26 -34 -36 -82 -21 -100 14 -17 57 -20 80 -5 11 7 17
2 25 -23 8 -24 17 -33 38 -35 29 -4 39 21 12 32 -19 7 -19 39 0 77 14 26 14
30 0 35 -8 4 -23 0 -33 -7 -9 -7 -14 -9 -9 -4 10 12 -32 55 -54 55 -10 0 -27
-11 -38 -25z m79 -48 c0 -7 -43 -27 -60 -27 -5 0 -4 13 1 29 9 26 12 28 34 17
14 -6 25 -14 25 -19z"/>
<path d="M12023 3343 c-20 -7 -15 -59 8 -105 20 -39 20 -88 -1 -88 -15 0 -30
36 -30 69 0 34 -11 39 -30 16 -27 -32 22 -135 65 -135 18 0 55 57 55 85 0 11
-9 40 -20 64 -22 49 -19 62 10 43 28 -17 40 -15 40 7 0 13 -13 24 -40 35 -22
9 -41 16 -43 15 -1 0 -8 -3 -14 -6z"/>
<path d="M14181 3324 c-61 -51 -23 -103 54 -75 42 15 43 15 38 -13 -7 -33 29
-68 64 -64 38 4 39 24 2 37 -27 9 -30 14 -25 36 3 14 9 37 12 51 6 24 5 26
-18 22 -17 -3 -29 1 -37 14 -16 26 -54 22 -90 -8z m59 -23 c0 -5 -7 -12 -16
-15 -24 -9 -28 -7 -14 9 14 17 30 20 30 6z"/>
<path d="M15948 3336 c-10 -7 -28 -32 -41 -55 -27 -47 -37 -43 -60 23 -11 32
-14 35 -30 24 -17 -12 -17 -16 -2 -50 8 -21 23 -45 34 -55 18 -18 17 -20 -30
-101 -62 -108 -73 -141 -53 -149 19 -7 -3 -43 151 245 25 46 51 86 59 89 17 6
19 43 2 43 -7 0 -21 -6 -30 -14z"/>
<path d="M2388 3313 c-52 -57 -64 -114 -27 -134 17 -8 31 -7 68 7 100 38 116
66 69 120 -38 43 -74 45 -110 7z m72 -33 c11 -11 20 -22 20 -25 0 -7 -93 -46
-98 -40 -8 8 20 65 37 75 21 12 18 13 41 -10z"/>
<path d="M9095 3277 c-30 -23 -11 -32 67 -32 57 0 73 3 73 15 0 27 -107 40
-140 17z"/>
<path d="M15285 3251 c-9 -30 3 -61 25 -61 16 0 18 6 16 38 -4 41 -30 56 -41
23z"/>
<path d="M5820 3138 c0 -29 -32 -99 -52 -116 -13 -10 -17 -10 -22 3 -8 22 -23
19 -41 -9 -34 -51 25 -78 79 -35 55 44 93 169 54 177 -13 2 -18 -3 -18 -20z"/>
<path d="M2894 2990 l-39 -61 -46 6 c-43 6 -47 5 -82 -34 -47 -53 -62 -103
-41 -147 14 -30 14 -35 0 -56 -16 -22 -22 -89 -9 -101 12 -12 33 15 33 42 0
45 26 71 71 71 72 0 169 64 169 111 0 9 -13 34 -29 56 -29 39 -29 41 -12 67
10 14 26 32 35 39 19 14 19 58 0 64 -6 2 -29 -24 -50 -57z m-120 -162 c-25
-35 -47 -64 -49 -66 -8 -9 -11 27 -4 53 11 41 45 75 74 75 24 0 24 -2 -21 -62z
m127 9 c8 -15 6 -24 -10 -41 -22 -24 -90 -51 -109 -45 -6 2 10 32 35 67 47 66
58 69 84 19z"/>
<path d="M4494 2997 c-4 -10 -31 -17 -97 -22 -51 -5 -101 -9 -112 -11 -11 -2
-63 -5 -115 -7 -98 -5 -125 -18 -73 -38 17 -6 53 -8 92 -4 59 6 63 5 58 -12
-53 -181 -69 -253 -63 -277 11 -45 37 -29 41 24 3 46 47 205 68 250 13 27 57
37 163 39 54 1 78 17 72 47 -4 23 -26 30 -34 11z"/>
<path d="M4725 2988 c-27 -5 -55 -14 -61 -21 -12 -13 -54 -139 -54 -162 0 -8
-11 -22 -25 -31 -54 -35 -16 -95 76 -119 73 -20 136 -18 185 4 105 48 96 140
-19 190 l-37 16 47 35 c54 41 69 61 60 84 -7 18 -86 21 -172 4z m92 -53 c-20
-14 -58 -35 -84 -46 -39 -17 -44 -22 -32 -33 8 -7 34 -18 59 -25 61 -17 120
-57 120 -80 0 -24 -41 -57 -82 -66 -39 -9 -131 2 -153 19 -16 12 -16 17 4 96
11 46 27 90 34 99 8 9 17 24 20 33 6 17 34 23 112 26 l40 2 -38 -25z"/>
<path d="M2489 2973 c-4 -49 -14 -86 -40 -153 -33 -86 -35 -136 -6 -154 24
-15 40 9 24 35 -9 14 -7 29 7 66 32 82 56 177 50 195 -5 17 -33 26 -35 11z"/>
<path d="M3242 2933 c-51 -76 -53 -78 -105 -78 -37 0 -44 2 -32 11 22 17 18
34 -8 34 -24 0 -66 -38 -86 -78 -16 -30 -6 -75 25 -112 l25 -29 -41 -59 c-31
-43 -41 -66 -38 -88 4 -39 30 -38 38 1 4 17 23 54 44 83 33 46 42 52 73 52 66
0 118 86 84 139 -6 10 5 32 35 74 43 58 51 86 28 94 -6 2 -25 -18 -42 -44z
m-120 -116 l41 6 -34 -47 c-18 -26 -37 -50 -40 -52 -9 -5 -49 44 -49 60 0 6 8
23 17 36 15 21 18 22 21 7 3 -14 10 -16 44 -10z m52 -88 c-32 -36 -47 -21 -17
18 22 28 29 33 31 19 2 -10 -4 -26 -14 -37z"/>
<path d="M16061 2198 c-10 -32 -135 -314 -145 -325 -1 -1 -23 3 -50 9 -40 8
-51 7 -64 -6 -18 -18 -15 -20 58 -34 31 -6 44 -13 42 -23 -2 -8 -6 -49 -9 -91
-5 -68 -4 -78 10 -78 18 0 22 14 32 98 9 84 7 82 88 76 54 -4 77 -2 91 9 28
21 11 39 -30 31 -19 -3 -54 -3 -79 0 l-44 7 24 52 c13 29 44 97 69 152 25 55
48 115 52 133 6 27 4 32 -13 32 -15 0 -23 -11 -32 -42z"/>
<path d="M14524 2132 c-15 -11 -32 -56 -54 -145 -12 -45 -33 -119 -48 -164
-25 -81 -26 -82 -44 -63 -25 27 -38 25 -85 -9 -53 -38 -71 -82 -49 -115 8 -14
24 -27 34 -30 29 -9 93 16 114 44 26 35 85 199 109 300 11 47 26 98 34 114 23
45 16 87 -11 68z m-169 -460 c-2 -7 -17 -17 -31 -23 -21 -7 -31 -6 -42 5 -13
13 -11 19 23 53 l38 38 9 -30 c4 -16 6 -36 3 -43z"/>
<path d="M17400 2105 c-67 -56 -82 -82 -125 -210 l-40 -120 -88 -3 c-77 -2
-88 -5 -85 -20 3 -14 17 -18 76 -20 39 -2 72 -5 72 -7 0 -9 -77 -135 -125
-205 -53 -77 -91 -162 -80 -179 11 -20 34 1 51 47 10 26 41 81 70 122 28 41
70 108 93 148 l42 72 58 0 c42 0 60 4 64 14 7 18 -13 26 -64 26 -21 0 -39 3
-39 7 0 34 76 225 101 256 36 44 45 46 44 10 0 -36 23 -41 35 -7 13 34 9 96
-6 101 -6 2 -30 -12 -54 -32z"/>
<path d="M11001 2092 c-6 -11 -8 -22 -5 -25 10 -10 -48 -201 -65 -215 -9 -8
-28 -11 -44 -8 -20 4 -30 1 -34 -10 -7 -19 13 -34 45 -34 26 0 26 -1 7 -64
-41 -134 3 -196 115 -163 27 8 46 19 48 30 4 20 -22 23 -64 6 -16 -5 -39 -8
-51 -4 -20 5 -23 12 -22 48 0 23 8 67 17 97 l18 55 79 10 c60 7 80 14 80 25 0
12 -14 15 -71 13 l-72 -3 24 76 c33 109 39 157 21 173 -13 10 -17 9 -26 -7z"/>
<path d="M15007 2104 c-4 -4 -7 -19 -7 -33 0 -26 -56 -186 -73 -208 -5 -7 -20
-13 -34 -13 -20 0 -24 -4 -21 -22 2 -15 9 -22 21 -21 13 1 17 -4 12 -15 -46
-113 -48 -124 -34 -132 19 -12 22 -7 59 88 l33 82 46 0 c25 0 52 4 60 9 24 15
1 31 -45 31 -24 0 -44 2 -44 4 0 3 14 42 30 87 30 81 36 139 14 146 -5 2 -13
0 -17 -3z"/>
<path d="M2273 2030 c-27 -38 -74 -110 -106 -160 -33 -49 -64 -90 -70 -90 -7
0 -18 -4 -26 -9 -12 -8 -12 -13 -3 -24 10 -12 4 -26 -33 -76 -25 -33 -50 -61
-56 -61 -8 0 -7 -5 1 -16 16 -19 65 -15 65 6 1 8 21 45 45 82 43 63 47 66 93
72 26 4 53 9 60 12 11 4 11 -9 0 -73 -16 -93 -14 -138 7 -138 11 0 18 26 30
105 l15 105 35 11 c44 14 47 39 5 38 l-31 -1 14 111 c8 61 18 119 23 128 13
26 11 48 -6 48 -8 0 -36 -31 -62 -70z m2 -130 c-6 -44 -14 -83 -18 -86 -6 -7
-80 -24 -84 -20 -3 3 108 186 112 186 1 0 -4 -36 -10 -80z"/>
<path d="M2777 2094 c-4 -4 -7 -46 -7 -94 0 -120 -16 -194 -58 -272 -20 -37
-38 -66 -40 -63 -2 2 -7 37 -10 77 -6 63 -10 73 -27 76 -16 2 -31 -13 -64 -63
-46 -69 -67 -91 -57 -59 7 24 36 260 36 294 -1 58 -40 63 -59 8 -9 -24 -8 -35
2 -47 12 -13 12 -33 1 -116 -7 -55 -18 -124 -24 -152 -12 -57 -8 -73 19 -73
19 0 53 33 99 97 l30 43 10 -71 c11 -73 25 -101 46 -93 23 9 116 207 126 269
16 101 15 214 -1 231 -9 8 -18 11 -22 8z"/>
<path d="M6293 2077 c-6 -13 -16 -50 -23 -83 -14 -70 -53 -211 -75 -273 -19
-55 -19 -105 0 -121 22 -18 36 -2 30 34 -4 20 1 53 14 91 16 46 74 265 91 340
9 39 -21 49 -37 12z"/>
<path d="M10331 2059 c-32 -131 -74 -270 -96 -312 -44 -86 -29 -117 57 -117
80 0 145 64 131 130 -9 45 -42 59 -90 36 l-36 -17 7 23 c4 13 21 78 39 145 30
114 31 124 15 139 -15 16 -17 14 -27 -27z m53 -305 c15 -39 -43 -87 -99 -82
l-37 3 22 28 c19 24 82 65 101 67 4 0 10 -7 13 -16z"/>
<path d="M3064 2071 c-45 -20 -74 -54 -74 -85 0 -10 40 -58 93 -110 101 -99
132 -150 122 -196 -18 -83 -155 -104 -247 -38 -47 33 -89 97 -82 124 5 20 2
24 -15 24 -86 0 39 -186 146 -218 107 -32 220 14 238 97 13 62 -12 110 -117
214 -55 54 -97 104 -95 110 16 51 167 79 167 32 0 -22 29 -26 40 -5 14 27 14
28 -22 50 -41 25 -100 25 -154 1z"/>
<path d="M5726 2038 c-2 -7 -26 -88 -55 -180 -29 -94 -51 -186 -51 -211 0 -40
3 -46 32 -60 40 -19 69 -9 121 41 41 39 71 97 63 119 -3 7 -21 13 -41 13 -26
0 -45 -9 -77 -37 -24 -21 -46 -42 -50 -48 -15 -20 -7 9 42 168 28 89 50 170
48 181 -4 23 -26 34 -32 14z m64 -325 c0 -15 -53 -74 -80 -88 -49 -25 -43 1
11 49 48 43 69 55 69 39z"/>
<path d="M13247 2034 c-4 -4 -7 -19 -7 -32 0 -14 -12 -86 -26 -161 -29 -146
-26 -203 9 -209 16 -3 18 1 12 40 -5 30 2 83 20 171 14 71 25 142 23 159 -3
31 -17 45 -31 32z"/>
<path d="M6063 1933 c-20 -7 -15 -31 7 -38 21 -7 40 0 40 15 0 13 -32 28 -47
23z"/>
<path d="M9203 1851 c-52 -37 -91 -89 -99 -129 -5 -25 -1 -36 21 -58 24 -24
32 -26 84 -21 73 6 195 56 199 81 5 23 -10 20 -111 -18 -73 -28 -126 -33 -145
-14 -23 23 -12 35 39 41 59 7 95 27 111 63 10 20 8 29 -9 52 -28 37 -42 38
-90 3z m61 -30 c8 -12 -24 -38 -56 -46 -39 -10 -36 10 5 35 36 22 43 24 51 11z"/>
<path d="M9487 1873 c-15 -14 -5 -46 22 -74 l30 -29 -25 -15 c-13 -8 -36 -22
-50 -31 -24 -15 -28 -34 -8 -41 5 -2 36 12 68 32 60 36 76 36 106 1 7 -9 19
-16 26 -16 22 0 17 28 -9 54 -17 17 -21 28 -15 40 12 21 -16 33 -37 16 -19
-16 -62 10 -75 46 -9 24 -21 30 -33 17z"/>
<path d="M6412 1850 c-41 -25 -72 -75 -72 -117 0 -40 34 -68 93 -77 54 -8 147
10 147 29 0 22 -13 24 -60 14 -24 -6 -61 -7 -82 -4 -32 6 -38 11 -38 31 0 19
5 24 24 24 28 0 86 53 86 79 0 43 -46 53 -98 21z m34 -46 c-30 -21 -44 -16
-17 7 13 11 27 17 30 13 3 -3 -3 -12 -13 -20z"/>
<path d="M16133 1807 c-54 -108 -73 -194 -39 -185 9 3 79 128 99 179 4 10 13
5 34 -19 31 -35 53 -42 53 -14 -1 28 -48 74 -86 82 -34 8 -35 7 -61 -43z"/>
<path d="M16890 1844 c-77 -33 -87 -64 -40 -117 17 -19 30 -39 30 -45 0 -6
-25 -12 -57 -14 -44 -2 -58 -7 -58 -18 0 -11 15 -16 59 -18 97 -5 125 44 65
113 -18 20 -30 37 -28 39 7 6 47 26 52 26 3 0 4 -7 3 -16 -2 -31 24 -26 38 7
24 58 3 72 -64 43z"/>
<path d="M8194 1831 c-20 -12 -35 -16 -41 -10 -6 6 -14 5 -21 -3 -15 -19 -42
-100 -36 -110 10 -16 33 -7 46 19 14 29 85 90 93 81 4 -3 0 -37 -8 -74 -15
-73 -13 -94 8 -94 12 0 22 30 40 131 8 43 -7 79 -33 79 -9 0 -31 -9 -48 -19z"/>
<path d="M12332 1840 c-12 -5 -27 -21 -32 -35 -11 -30 -4 -49 41 -106 16 -20
29 -40 29 -43 0 -3 -18 -6 -39 -6 -31 0 -44 6 -60 28 -17 23 -22 25 -31 12
-14 -22 -13 -28 15 -55 18 -19 34 -25 67 -24 106 2 122 30 58 104 -50 58 -51
88 -3 93 24 2 33 -1 38 -17 8 -25 18 -26 35 -6 10 12 9 20 -4 40 -13 20 -25
25 -54 24 -20 0 -47 -4 -60 -9z"/>
<path d="M7925 1828 c-39 -21 -85 -72 -85 -94 0 -40 77 -74 96 -43 5 8 10 6
16 -5 13 -23 38 -20 38 4 0 11 6 36 14 55 14 34 14 35 -20 65 -19 16 -36 30
-37 30 -1 0 -11 -6 -22 -12z m14 -84 c-12 -13 -28 -24 -35 -24 -27 0 -23 20 8
49 28 26 34 28 41 15 6 -11 2 -23 -14 -40z"/>
<path d="M9798 1807 c-44 -34 -66 -73 -55 -101 7 -18 76 -22 106 -6 14 7 23 5
36 -10 21 -23 55 -27 55 -5 0 7 -8 18 -17 23 -14 8 -15 14 -4 40 13 32 7 56
-12 49 -7 -2 -20 7 -30 20 -10 13 -22 23 -27 23 -5 0 -28 -15 -52 -33z m61
-31 c10 -11 7 -17 -11 -30 -12 -9 -34 -16 -47 -16 l-25 0 29 30 c33 34 38 36
54 16z"/>
<path d="M7101 1816 c-6 -8 -9 -20 -6 -28 5 -13 25 -15 103 -14 84 1 97 3 100
19 3 15 -5 17 -67 17 -38 0 -81 4 -95 9 -18 7 -27 6 -35 -3z"/>
<path d="M12614 1810 c-119 -60 -120 -154 -1 -180 65 -15 101 -10 105 13 3 14
-4 17 -38 17 -44 0 -103 20 -115 40 -9 15 32 59 72 76 46 20 50 18 57 -21 6
-32 28 -47 40 -27 5 8 -8 80 -16 88 -16 15 -68 12 -104 -6z"/>
<path d="M3812 1794 c-26 -18 -30 -74 -7 -114 35 -62 -1 -104 -45 -52 -27 31
-50 32 -50 2 0 -18 62 -80 80 -80 4 0 22 12 39 26 35 29 39 56 16 111 -26 62
-13 102 24 69 38 -34 61 -11 28 28 -26 30 -53 33 -85 10z"/>
<path d="M4500 1793 c-45 -30 -80 -67 -80 -84 0 -34 22 -30 56 10 20 23 40 41
46 41 17 0 1 -60 -27 -102 -27 -41 -30 -54 -15 -63 13 -8 71 28 88 55 11 19
14 19 36 5 12 -8 40 -16 62 -18 37 -2 40 0 61 41 12 24 29 54 37 67 20 31 20
55 1 55 -15 0 -50 -49 -72 -102 -13 -29 -36 -29 -80 0 -13 8 -29 12 -36 9 -9
-3 -12 4 -9 28 4 36 -12 75 -31 75 -7 0 -24 -7 -37 -17z"/>
<path d="M11241 1787 c-41 -17 -57 -29 -64 -50 -12 -38 -2 -74 33 -108 23 -24
37 -29 77 -29 89 0 226 70 196 101 -9 9 -18 8 -40 -7 -52 -34 -105 -54 -148
-54 -71 0 -83 40 -16 53 47 10 61 24 61 61 0 32 -15 56 -34 56 -6 0 -35 -11
-65 -23z m57 -39 c-3 -7 -18 -13 -35 -14 -16 -1 -35 -4 -42 -8 -6 -4 -11 -5
-11 -2 0 9 54 35 73 36 11 0 17 -5 15 -12z"/>
<path d="M14625 1798 c-56 -30 -101 -95 -89 -130 5 -18 12 -20 53 -15 25 2 54
8 63 12 13 5 17 0 20 -27 5 -53 31 -43 40 17 4 27 13 60 20 73 10 19 10 25 -2
33 -11 6 -20 3 -32 -12 -18 -21 -18 -21 -18 10 0 36 -26 55 -55 39z m27 -86
c-21 -16 -61 -27 -69 -18 -4 3 6 20 22 36 27 28 29 29 46 12 16 -16 16 -18 1
-30z"/>
<path d="M17731 1784 c-56 -47 -74 -102 -47 -140 15 -19 15 -19 38 4 21 21 22
24 6 36 -16 12 -16 14 2 43 25 42 56 51 82 23 29 -31 49 -10 26 28 -23 38 -66
41 -107 6z"/>
<path d="M4957 1738 c-15 -35 -27 -68 -27 -75 0 -35 54 -17 104 36 22 23 33
28 46 21 11 -6 26 -4 42 4 l25 13 -5 -43 -5 -44 47 1 c54 3 78 22 47 38 -11 6
-27 8 -36 4 -15 -5 -16 -1 -10 28 4 19 8 41 9 49 1 21 -47 25 -64 6 -17 -22
-30 -20 -30 4 0 31 -26 24 -66 -17 -23 -25 -33 -31 -29 -18 18 49 17 55 -2 55
-13 0 -26 -17 -46 -62z"/>
<path d="M10599 1735 c-33 -68 -45 -73 -51 -20 -2 19 -9 31 -20 33 -15 3 -18
-4 -18 -35 0 -21 6 -48 14 -59 13 -17 10 -28 -26 -102 -21 -46 -38 -91 -36
-100 7 -36 30 -14 62 58 18 41 49 101 68 132 19 32 41 71 48 87 8 20 17 28 27
24 11 -4 14 0 11 18 -2 16 -11 25 -25 27 -19 3 -28 -7 -54 -63z"/>
<path d="M13420 1782 c-19 -9 -43 -32 -54 -51 -19 -33 -19 -34 -1 -68 24 -44
63 -64 124 -65 56 0 121 25 121 46 0 19 -18 20 -57 5 -41 -16 -101 -13 -131 7
l-25 17 60 27 c64 29 85 58 63 85 -17 20 -57 19 -100 -3z m37 -38 c-16 -9 -31
-13 -34 -10 -3 3 5 10 18 15 37 15 47 12 16 -5z"/>
<path d="M17447 1776 c-12 -13 -35 -38 -51 -55 -29 -31 -30 -61 -1 -61 8 0 15
-5 15 -11 0 -12 71 -44 115 -52 17 -3 37 -1 45 4 13 8 12 12 -4 24 -11 8 -28
15 -38 15 -26 0 -88 27 -88 39 0 5 13 12 30 16 38 8 80 42 80 64 0 45 -67 56
-103 17z m48 -26 c-3 -5 -11 -10 -16 -10 -6 0 -7 5 -4 10 3 6 11 10 16 10 6 0
7 -4 4 -10z"/>
<path d="M15133 1770 c-43 -26 -79 -86 -63 -105 16 -19 57 -19 90 0 37 21 40
19 40 -23 0 -37 14 -62 35 -62 14 0 14 160 0 161 -5 1 -16 1 -22 0 -7 -1 -13
5 -13 13 0 28 -34 37 -67 16z m37 -45 c0 -9 -12 -20 -26 -25 -38 -15 -40 -13
-14 15 27 29 40 32 40 10z"/>
<path d="M5408 1763 c-9 -10 -21 -35 -29 -55 -10 -31 -10 -39 1 -53 31 -37
130 10 130 61 0 25 -43 64 -70 64 -9 0 -24 -8 -32 -17z m62 -46 c0 -13 -46
-44 -54 -36 -2 2 0 14 5 27 9 24 49 31 49 9z"/>
<path d="M11777 1772 c-12 -18 17 -29 90 -36 71 -6 98 3 75 26 -14 14 -158 23
-165 10z"/>
<path d="M4064 1756 c-14 -10 -23 -11 -32 -4 -17 14 -25 5 -52 -60 -17 -38
-20 -56 -12 -64 8 -8 25 4 60 43 l50 54 -2 -60 c-1 -47 2 -60 14 -60 10 0 17
20 25 71 6 40 9 77 7 83 -5 15 -34 14 -58 -3z"/>
<path d="M4253 1755 c-12 -9 -28 -33 -34 -55 -15 -49 -1 -70 46 -70 41 0 60
21 51 57 -4 16 -8 39 -9 53 -2 30 -24 36 -54 15z m27 -76 c0 -5 -7 -9 -15 -9
-15 0 -20 12 -9 23 8 8 24 -1 24 -14z"/>
<path d="M5976 1731 c-21 -55 -21 -94 0 -89 10 2 23 22 31 52 13 42 13 51 0
63 -12 13 -16 9 -31 -26z"/>
<path d="M16612 1745 c-17 -14 -34 -25 -38 -25 -10 -1 -64 -86 -64 -100 0 -4
7 -10 15 -13 14 -6 22 2 68 67 10 14 27 31 38 37 20 10 21 9 14 -20 -8 -36 11
-79 27 -63 17 17 22 123 6 133 -21 14 -35 11 -66 -16z"/>
<path d="M12904 1750 c-27 -11 -38 -38 -23 -56 6 -8 29 -14 49 -14 35 0 39 -3
45 -32 9 -40 22 -58 42 -58 12 0 14 7 9 28 -4 15 -8 46 -10 69 -2 23 -9 49
-16 58 -13 16 -62 19 -96 5z"/>
<path d="M16345 1727 c-22 -12 -46 -34 -55 -49 -13 -25 -13 -29 1 -43 17 -17
60 -22 95 -11 16 5 23 0 32 -20 15 -31 37 -27 38 7 0 13 6 41 13 63 11 32 11
40 0 47 -7 4 -16 6 -20 3 -4 -2 -9 3 -13 11 -8 21 -45 18 -91 -8z m73 -35 c4
-14 -44 -34 -72 -30 -18 3 -16 7 14 26 36 23 51 24 58 4z"/>
<path d="M7400 1553 c-34 -12 -92 -59 -106 -85 -21 -40 -3 -92 55 -163 106
-130 110 -143 58 -193 -45 -43 -83 -49 -143 -23 -92 41 -116 82 -69 119 28 22
33 52 9 52 -8 0 -29 -13 -45 -29 -54 -55 -30 -120 61 -166 68 -34 119 -41 162
-21 53 25 89 68 94 112 6 43 0 54 -90 168 -30 37 -56 79 -59 93 -6 30 21 65
67 87 49 23 78 20 109 -12 23 -24 27 -36 25 -73 -3 -39 0 -44 19 -47 31 -5 48
34 37 83 -5 20 -11 35 -14 34 -3 -1 -21 14 -41 35 -30 29 -44 36 -75 35 -22 0
-46 -3 -54 -6z"/>
<path d="M9877 1543 c-4 -3 -7 -29 -7 -57 0 -28 -11 -86 -25 -129 -28 -86 -33
-178 -12 -196 21 -17 27 -3 27 59 0 34 10 86 25 130 28 83 35 200 12 200 -8 0
-17 -3 -20 -7z"/>
<path d="M13751 1510 c-45 -43 -92 -113 -135 -197 -25 -50 -28 -53 -65 -53
-49 0 -71 -8 -71 -26 0 -15 9 -17 54 -14 15 1 27 -2 25 -7 -12 -26 -123 -254
-140 -286 -17 -33 -18 -38 -4 -43 23 -9 41 11 66 74 29 73 74 166 108 220 20
33 32 42 51 41 68 -4 100 1 100 16 0 16 -42 30 -63 22 -8 -3 -20 -2 -27 3 -17
11 49 134 107 198 41 45 43 46 58 28 20 -26 38 -9 33 30 -5 47 -45 44 -97 -6z"/>
<path d="M15971 1527 c-7 -13 -11 -31 -9 -39 2 -8 -22 -49 -52 -91 -51 -72
-57 -77 -91 -77 -35 0 -66 -20 -52 -33 3 -4 19 -7 35 -7 l29 0 -16 -31 c-24
-44 -22 -87 4 -112 17 -18 32 -22 75 -21 29 1 63 7 75 14 20 10 21 14 9 26
-10 11 -22 11 -52 3 -80 -22 -106 9 -69 85 l16 35 81 3 c68 3 81 6 84 21 3 15
-5 17 -62 17 -36 0 -66 3 -66 6 0 3 20 32 44 63 54 70 81 124 73 145 -9 24
-42 19 -56 -7z"/>
<path d="M9242 1508 c-7 -7 -12 -26 -12 -43 0 -32 -18 -123 -43 -217 -16 -59
-15 -94 3 -112 13 -13 142 -11 169 3 26 14 36 52 22 80 -18 32 -54 36 -106 11
-25 -12 -48 -20 -51 -17 -3 2 4 40 16 83 29 114 39 202 25 214 -7 6 -16 5 -23
-2z m103 -319 c0 -8 -17 -16 -45 -21 -64 -11 -70 -5 -19 20 47 23 64 24 64 1z"/>
<path d="M12295 1484 c-12 -12 -15 -26 -10 -51 4 -21 -1 -54 -12 -89 l-17 -56
-47 4 c-26 3 -54 1 -63 -4 -21 -12 -21 -58 -1 -58 8 0 15 5 15 10 0 6 18 10
40 10 22 0 40 -1 40 -3 0 -2 -7 -24 -16 -49 -19 -57 -16 -133 6 -133 10 0 16
12 18 35 1 19 10 61 19 93 l16 58 46 -3 c57 -4 65 21 11 36 -19 5 -36 10 -37
11 -1 0 4 23 12 50 17 54 20 141 6 150 -5 3 -17 -2 -26 -11z"/>
<path d="M6235 1448 c-2 -7 -15 -67 -29 -133 -14 -66 -31 -139 -38 -162 -21
-74 0 -73 77 4 60 61 66 65 59 38 -4 -16 -8 -48 -8 -70 -1 -34 2 -40 22 -43
20 -3 22 0 17 21 -4 13 -1 43 5 66 27 102 -20 134 -85 59 -23 -26 -35 -35 -31
-23 11 37 46 217 46 236 0 21 -28 26 -35 7z"/>
<path d="M5355 1419 c-103 -27 -115 -38 -115 -106 0 -29 -4 -53 -9 -53 -5 0
-9 -15 -9 -32 0 -18 -6 -56 -13 -85 -14 -57 -4 -83 32 -83 21 0 24 11 8 27 -7
7 26 11 118 12 125 1 152 8 138 31 -4 7 -46 10 -126 9 -66 -1 -122 1 -125 4
-3 3 0 23 7 45 12 41 12 41 73 47 34 4 73 2 87 -4 28 -10 39 -6 39 14 0 23
-57 38 -120 31 l-60 -7 0 41 c0 37 3 42 33 54 17 8 65 20 105 27 55 10 72 17
70 29 -5 22 -43 22 -133 -1z"/>
<path d="M9597 1397 c-3 -7 1 -20 8 -30 10 -15 14 -15 31 -2 19 15 19 15 0 30
-24 18 -32 19 -39 2z"/>
<path d="M3240 1356 c0 -7 7 -19 15 -26 19 -16 41 1 32 24 -8 20 -47 21 -47 2z"/>
<path d="M10073 1349 c-66 -19 -91 -122 -44 -180 23 -28 85 -30 180 -5 75 19
96 33 81 51 -8 10 -22 9 -68 -5 -103 -32 -138 -34 -161 -11 -29 29 -26 38 13
45 33 6 96 54 96 73 -1 30 -47 46 -97 32z m47 -34 c0 -2 -13 -11 -30 -20 -18
-9 -30 -11 -30 -5 0 6 10 15 23 20 26 10 37 12 37 5z"/>
<path d="M14781 1255 c-46 -46 -88 -83 -93 -82 -5 1 -17 -8 -25 -20 -14 -21
-14 -23 1 -29 9 -3 32 3 51 15 34 20 35 20 35 1 0 -27 39 -35 83 -17 33 14 35
14 40 -4 6 -24 35 -35 50 -20 8 8 8 14 0 22 -14 14 -3 48 33 95 27 35 27 64 0
64 -9 0 -22 -12 -30 -27 -8 -16 -25 -38 -38 -50 -26 -24 -98 -58 -98 -46 0 15
58 108 79 127 23 21 28 56 9 56 -7 -1 -51 -39 -97 -85z"/>
<path d="M2230 1318 c-30 -11 -70 -47 -70 -63 0 -6 18 -29 40 -50 42 -41 52
-78 24 -89 -30 -12 -44 -6 -60 25 -14 29 -17 30 -31 16 -15 -14 -15 -18 1 -42
47 -71 146 -50 146 31 0 25 -9 44 -36 74 -20 22 -35 42 -33 44 33 27 84 25 92
-5 3 -10 13 -19 22 -19 12 0 16 8 13 32 -3 28 -8 34 -43 44 -26 7 -49 8 -65 2z"/>
<path d="M15120 1308 c-19 -13 -44 -37 -55 -54 -21 -32 -145 -325 -145 -344 0
-5 8 -10 18 -10 22 1 88 92 110 153 13 37 21 47 40 47 28 0 97 43 117 73 22
34 30 108 13 129 -23 29 -60 31 -98 6z m68 -44 c5 -34 -15 -71 -53 -100 -45
-34 -57 -23 -41 39 18 69 86 113 94 61z"/>
<path d="M2525 1301 c-44 -28 -74 -65 -81 -98 -8 -43 41 -83 101 -83 53 0 75
8 75 26 0 10 -14 14 -51 14 -51 0 -89 13 -89 30 0 6 15 10 33 10 36 0 94 32
104 57 4 10 -3 24 -21 40 -33 28 -33 28 -71 4z m31 -47 c-30 -21 -44 -16 -17
7 13 11 27 17 30 13 3 -3 -3 -12 -13 -20z"/>
<path d="M8061 1263 c-69 -41 -92 -66 -75 -83 6 -6 26 2 59 25 47 34 75 44 75
27 0 -5 -14 -30 -31 -56 -38 -57 -30 -75 25 -52 37 15 38 15 61 -11 20 -24 25
-26 48 -16 36 17 60 57 63 106 2 23 6 52 10 65 5 18 2 22 -14 22 -23 0 -32
-20 -36 -81 -2 -25 -11 -49 -25 -62 -23 -23 -29 -10 -10 25 16 29 -7 41 -44
22 -28 -15 -28 -15 -17 7 9 17 10 31 1 60 -7 22 -15 39 -19 39 -4 0 -36 -17
-71 -37z"/>
<path d="M13244 1274 c-4 -14 -1 -51 6 -81 14 -62 8 -73 -43 -73 -20 0 -30 7
-37 25 -12 31 -40 23 -40 -11 0 -52 93 -73 145 -32 29 22 29 19 9 127 -7 34
-6 34 25 28 24 -5 33 -3 38 9 8 21 -14 34 -59 34 -32 0 -39 -4 -44 -26z"/>
<path d="M8447 1283 c-4 -3 -7 -22 -7 -42 0 -20 -11 -58 -24 -86 -14 -27 -21
-54 -16 -59 11 -11 90 44 133 94 48 57 83 51 38 -7 -22 -27 -18 -53 9 -53 9 0
38 11 64 25 36 19 46 21 46 10 0 -17 35 -55 50 -55 20 0 23 31 4 44 -12 9 -18
25 -17 50 1 20 -3 39 -8 42 -5 3 -28 -9 -51 -28 -39 -30 -41 -31 -35 -9 4 15
-1 29 -14 42 -32 32 -63 24 -107 -26 l-40 -46 7 34 c12 49 -9 93 -32 70z"/>
<path d="M13806 1269 c-15 -11 -36 -39 -47 -61 l-20 -40 22 -24 c42 -44 170
-60 177 -21 3 14 -4 17 -45 17 -26 1 -61 6 -77 13 l-28 12 38 14 c72 25 96 59
64 91 -26 26 -50 25 -84 -1z m44 -34 c-7 -8 -17 -15 -22 -15 -6 0 -5 7 2 15 7
8 17 15 22 15 6 0 5 -7 -2 -15z"/>
<path d="M14032 1267 c-27 -28 -65 -114 -57 -127 10 -16 22 -12 49 15 14 14
23 32 20 39 -10 26 15 56 46 56 22 0 28 -4 24 -15 -9 -22 3 -45 20 -39 23 9
29 54 10 75 -25 27 -85 25 -112 -4z"/>
<path d="M2751 1266 c-45 -25 -61 -74 -39 -121 14 -30 43 -33 58 -4 10 17 8
21 -9 26 -25 6 -26 21 -5 51 12 18 25 22 65 22 43 0 50 3 47 18 -4 22 -82 28
-117 8z"/>
<path d="M9530 1255 c0 -15 -7 -40 -16 -56 -20 -40 -15 -74 11 -74 13 0 20 7
21 20 0 11 7 39 14 62 14 46 9 73 -15 73 -9 0 -15 -9 -15 -25z"/>
<path d="M12455 1249 c-27 -33 -75 -121 -75 -139 0 -5 9 -10 20 -10 15 0 27
14 44 53 13 28 31 61 39 72 14 19 16 19 34 2 22 -19 39 -22 48 -7 8 13 -43 60
-66 60 -9 0 -29 -14 -44 -31z"/>
<path d="M12899 1257 c-19 -13 -40 -22 -46 -20 -15 5 -57 -81 -50 -101 8 -21
31 -11 48 20 13 25 89 87 97 80 2 -3 -6 -26 -17 -51 -29 -66 -27 -101 5 -88 8
3 14 12 14 20 0 8 6 26 14 41 25 48 29 88 11 106 -22 22 -36 20 -76 -7z"/>
<path d="M16199 1260 c-84 -43 -131 -142 -74 -156 54 -13 143 18 170 60 17 26
8 65 -22 98 -19 22 -27 21 -74 -2z m61 -49 c15 -29 14 -30 -32 -51 -44 -20
-88 -26 -88 -12 0 18 35 55 64 68 41 18 44 17 56 -5z"/>
<path d="M3053 1227 c-7 -23 -23 -53 -37 -66 l-25 -23 -31 51 c-32 52 -47 62
-56 38 -4 -11 50 -115 70 -134 10 -10 75 39 95 70 10 18 22 49 26 70 6 32 5
37 -12 37 -14 0 -22 -11 -30 -43z"/>
<path d="M3380 1249 c-70 -41 -80 -90 -30 -133 49 -41 141 -49 148 -13 3 14
-4 17 -38 17 -52 0 -100 24 -100 50 0 26 63 68 68 45 5 -23 42 -19 42 4 0 22
-25 51 -43 51 -7 0 -28 -9 -47 -21z"/>
<path d="M3648 1238 c-51 -47 -62 -72 -46 -106 29 -61 147 -81 253 -41 40 15
55 25 55 40 0 24 -3 24 -68 -1 -74 -28 -153 -27 -188 3 l-27 24 35 38 c19 21
41 36 48 33 8 -2 -1 -13 -23 -26 -37 -22 -50 -52 -22 -52 20 0 92 48 99 66 7
18 -32 54 -59 54 -12 0 -37 -15 -57 -32z"/>
<path d="M5896 1227 c-55 -52 -63 -96 -22 -122 35 -23 149 -17 154 8 3 15 -5
17 -63 17 -85 0 -96 18 -39 67 33 30 40 32 50 19 26 -36 53 -9 28 29 -24 36
-54 31 -108 -18z"/>
<path d="M7665 1210 c-36 -35 -52 -45 -51 -33 0 9 -7 19 -16 21 -13 2 -18 -6
-23 -35 -4 -21 -9 -46 -12 -56 -10 -36 25 -27 73 20 l49 48 3 -35 c7 -69 42
-77 42 -9 0 22 7 56 15 75 30 71 -7 73 -80 4z"/>
<path d="M10925 1245 c-50 -18 -115 -85 -115 -119 0 -33 38 -58 98 -63 53 -5
106 11 99 30 -3 8 -21 11 -54 9 -51 -3 -103 10 -103 27 0 18 61 70 96 81 34
12 38 11 54 -10 19 -25 40 -20 40 10 0 21 -36 50 -60 50 -8 -1 -33 -7 -55 -15z"/>
<path d="M11413 1247 c-5 -6 -27 -40 -48 -75 -28 -48 -35 -66 -26 -75 13 -13
14 -13 101 57 59 47 61 47 53 20 -4 -16 -8 -45 -8 -64 0 -28 4 -35 20 -35 15
0 19 6 17 24 -1 13 4 45 12 72 13 43 13 51 0 63 -16 16 -35 13 -75 -15 -26
-18 -26 -18 -22 5 6 27 -10 42 -24 23z"/>
<path d="M8934 1240 c-49 -20 -69 -83 -36 -113 34 -31 142 -16 156 20 9 23
-22 72 -49 79 -14 3 -25 10 -25 15 0 11 -18 11 -46 -1z m21 -60 c5 -8 11 -7
21 1 11 9 18 8 29 -1 13 -11 13 -15 3 -21 -22 -14 -88 -11 -88 4 0 25 23 36
35 17z"/>
<path d="M12633 1230 c-63 -38 -85 -104 -39 -116 14 -3 42 0 62 6 32 11 38 10
46 -4 17 -31 36 -18 40 29 4 59 1 67 -23 55 -16 -9 -21 -7 -28 14 -14 35 -23
37 -58 16z m27 -54 c0 -8 -7 -17 -16 -20 -30 -11 -37 -6 -19 14 21 23 35 26
35 6z"/>
<path d="M5653 1220 c-97 -59 -68 -142 39 -113 33 9 38 8 38 -7 0 -10 7 -23
15 -30 12 -10 16 -9 20 6 4 11 15 37 26 59 25 52 24 58 -6 51 -14 -4 -25 -2
-25 4 0 16 -39 50 -57 50 -10 0 -32 -9 -50 -20z m67 -40 c9 -17 7 -22 -15 -30
-41 -16 -75 -13 -69 5 6 14 49 44 66 45 4 0 12 -9 18 -20z"/>
<path d="M3206 1213 c-15 -56 -16 -100 -2 -112 19 -16 25 -5 32 68 6 52 4 61
-9 61 -9 0 -18 -8 -21 -17z"/>
<path d="M7805 1188 c-45 -53 -53 -83 -30 -108 29 -32 90 -27 126 9 33 33 37
66 11 97 -15 19 -52 44 -66 44 -2 0 -21 -19 -41 -42z m79 -31 c14 -23 -19 -57
-56 -57 -35 0 -35 10 -2 50 28 33 41 34 58 7z"/>
<path d="M11108 1203 c-35 -38 -43 -67 -23 -87 21 -20 30 -20 84 4 38 17 42
18 37 4 -10 -25 3 -54 23 -54 14 0 18 9 19 50 0 28 4 59 7 69 6 20 -20 37 -30
20 -4 -5 -13 -3 -21 6 -24 24 -67 18 -96 -12z m76 -21 c3 -5 -10 -16 -29 -25
-27 -13 -35 -14 -35 -4 0 28 50 51 64 29z"/>
<path d="M3972 1103 c2 -10 10 -18 18 -18 8 0 16 8 18 18 2 12 -3 17 -18 17
-15 0 -20 -5 -18 -17z"/>
<path d="M10447 1033 c-15 -25 -15 -79 -2 -158 18 -111 18 -105 0 -105 -30 0
-75 -30 -90 -61 -24 -45 -16 -98 18 -123 32 -24 118 -29 138 -9 21 21 22 95 0
178 -11 44 -25 113 -31 153 -11 67 -10 75 6 87 15 11 16 15 5 29 -14 17 -37
21 -44 9z m27 -325 c16 -23 21 -64 10 -92 -7 -19 -29 -20 -73 -5 -25 9 -31 16
-31 40 0 32 38 79 64 79 8 0 22 -10 30 -22z"/>
<path d="M4056 968 c-3 -18 -8 -60 -11 -93 -3 -33 -13 -77 -22 -97 -20 -48
-11 -100 24 -128 32 -25 53 -25 103 0 70 35 86 79 50 137 -21 36 -63 52 -90
35 -10 -6 -21 -8 -24 -4 -9 9 5 124 16 139 15 18 2 43 -21 43 -15 0 -21 -8
-25 -32z m108 -200 c23 -33 20 -44 -19 -74 -25 -19 -42 -25 -60 -20 -34 9 -32
37 6 81 36 41 52 44 73 13z"/>
<path d="M11520 974 c-6 -14 -10 -31 -10 -37 0 -7 -17 -69 -37 -140 -52 -179
-37 -186 85 -38 11 13 12 6 7 -44 -6 -53 -4 -63 14 -79 12 -11 21 -17 22 -15
1 2 3 46 5 98 4 70 2 96 -8 102 -20 13 -23 12 -61 -27 l-35 -36 23 79 c35 120
40 163 21 163 -9 0 -21 -12 -26 -26z"/>
<path d="M15668 914 c-18 -48 -39 -88 -48 -91 -8 -2 -22 -8 -30 -12 -19 -10
-20 -57 -2 -53 10 2 11 -4 5 -20 -4 -13 -8 -45 -8 -73 0 -38 4 -50 15 -50 10
0 16 12 18 35 2 19 10 56 18 82 15 46 16 47 62 50 57 4 68 31 15 36 -18 2 -33
7 -33 11 0 4 11 35 25 69 28 70 32 102 11 102 -9 0 -27 -33 -48 -86z"/>
<path d="M7862 968 c-7 -7 -12 -24 -12 -39 0 -15 -7 -61 -15 -101 -27 -130
-18 -118 -86 -118 -52 0 -60 -2 -57 -17 2 -14 15 -19 54 -21 l51 -3 -1 -82
c-1 -70 1 -82 17 -85 14 -3 17 4 17 51 0 30 3 68 6 85 l6 30 73 -5 c49 -3 75
-1 80 7 12 20 -7 28 -73 33 -35 3 -65 7 -66 9 -2 2 5 44 15 93 27 135 23 195
-9 163z"/>
<path d="M15503 934 c-7 -18 9 -51 23 -46 14 3 11 55 -3 59 -7 3 -16 -3 -20
-13z"/>
<path d="M13032 928 c-7 -7 -12 -16 -12 -21 0 -5 -18 -49 -39 -97 -51 -113
-79 -216 -64 -231 16 -16 47 -3 39 16 -7 20 19 104 65 206 38 85 47 123 31
133 -5 3 -14 0 -20 -6z"/>
<path d="M13153 923 c-4 -10 -19 -49 -35 -88 -51 -122 -68 -177 -68 -217 0
-46 15 -78 35 -78 12 0 14 11 9 58 -6 52 -2 67 45 183 28 69 51 133 51 142 0
22 -29 22 -37 0z"/>
<path d="M6084 918 c-20 -32 -62 -128 -69 -156 -5 -26 -12 -31 -38 -34 -21 -2
-33 -9 -35 -20 -3 -15 4 -18 32 -18 30 0 36 -4 36 -21 0 -60 81 -107 144 -83
25 10 6 34 -28 34 -41 0 -76 25 -76 55 0 23 3 24 82 27 70 3 83 6 86 21 3 15
-6 17 -83 17 -97 0 -96 -2 -53 83 34 68 38 85 23 97 -10 8 -15 8 -21 -2z"/>
<path d="M9742 918 c-7 -7 -12 -20 -12 -30 0 -10 -5 -37 -12 -62 -11 -44 -12
-44 -51 -38 -34 4 -39 3 -35 -13 2 -11 16 -22 34 -27 28 -7 32 -12 37 -55 4
-36 12 -53 33 -70 35 -27 99 -38 137 -24 46 18 27 36 -35 36 -69 0 -98 22 -98
72 0 32 1 33 43 33 48 0 67 13 67 47 0 26 -27 32 -36 8 -6 -15 -64 -22 -64 -7
1 4 7 33 14 64 11 45 11 59 2 67 -9 7 -16 7 -24 -1z"/>
<path d="M5725 904 c-88 -8 -189 -13 -224 -11 -44 1 -66 -2 -68 -10 -9 -25 49
-35 154 -29 l101 7 -24 -72 c-13 -39 -24 -94 -24 -121 l0 -51 -75 6 c-63 6
-75 4 -75 -8 0 -23 43 -35 123 -34 109 1 211 21 215 42 4 19 -20 21 -100 8
l-48 -8 0 46 c0 43 39 174 57 192 5 5 57 9 116 11 71 1 111 6 118 14 24 29
-53 35 -246 18z"/>
<path d="M2666 884 c-19 -17 -34 -23 -45 -18 -9 5 -38 8 -66 9 -42 0 -50 -3
-53 -20 -3 -11 -17 -35 -33 -53 -34 -39 -38 -86 -10 -116 20 -21 19 -21 -35
-84 -53 -62 -72 -101 -59 -121 12 -20 33 -11 38 18 3 15 29 54 57 85 48 52 55
56 97 56 51 0 93 19 122 56 26 33 26 58 1 100 l-21 33 36 28 c19 15 35 34 35
41 0 20 -33 13 -64 -14z m-71 -54 c7 -12 -85 -132 -99 -127 -6 2 -12 16 -14
30 -6 47 92 131 113 97z m57 -66 c11 -24 9 -29 -20 -55 -28 -25 -82 -40 -82
-23 0 10 74 103 83 104 4 0 13 -12 19 -26z"/>
<path d="M3055 881 l-30 -30 -40 20 c-26 13 -51 18 -71 14 -30 -5 -82 -51
-103 -92 -16 -31 -14 -85 5 -111 15 -21 13 -25 -41 -85 -56 -62 -72 -94 -61
-122 9 -24 21 -17 39 23 10 20 40 61 67 90 39 41 55 52 70 47 11 -4 45 -1 75
5 42 9 66 21 95 49 46 43 51 74 20 114 l-20 26 25 25 c27 27 33 56 12 56 -7 0
-26 -13 -42 -29z m-126 -117 c-38 -38 -72 -64 -78 -60 -15 10 -14 52 4 85 13
26 18 28 65 26 28 -1 53 1 56 6 3 5 8 9 12 9 4 0 -23 -30 -59 -66z m131 -11
c0 -25 -50 -61 -101 -73 -28 -7 -52 -10 -54 -8 -3 2 23 32 56 67 59 60 62 62
80 45 10 -9 19 -23 19 -31z"/>
<path d="M2232 878 c-7 -7 -12 -26 -12 -44 0 -17 -7 -51 -15 -74 -19 -53 -19
-114 -2 -129 19 -15 27 -4 27 38 0 20 7 58 15 85 25 83 17 154 -13 124z"/>
<path d="M12244 866 c-7 -19 3 -36 22 -36 10 0 14 8 12 22 -4 26 -26 36 -34
14z"/>
<path d="M6882 848 c2 -17 11 -24 31 -26 32 -4 38 21 8 38 -30 16 -43 12 -39
-12z"/>
<path d="M15179 833 c-75 -38 -76 -61 -7 -103 l52 -32 -34 -19 c-50 -26 -72
-24 -92 11 -16 28 -48 42 -48 21 0 -22 31 -79 45 -85 45 -17 149 20 161 56 8
26 -18 62 -55 78 -17 7 -31 16 -31 21 0 5 2 9 4 9 2 0 20 7 40 15 36 15 37 15
46 -10 11 -30 40 -34 40 -5 0 29 -29 70 -49 70 -10 0 -42 -12 -72 -27z"/>
<path d="M7049 811 c-38 -38 -37 -56 6 -95 50 -46 44 -96 -12 -96 -30 0 -29
15 2 36 29 19 33 44 6 44 -24 0 -71 -44 -71 -68 0 -49 76 -69 124 -31 20 16
26 29 26 61 0 33 -6 46 -35 72 -35 32 -35 33 -16 50 18 16 22 16 49 2 30 -16
42 -13 42 10 0 15 -50 44 -75 44 -9 0 -30 -13 -46 -29z"/>
<path d="M15893 814 c-50 -18 -113 -84 -113 -119 0 -54 66 -81 168 -70 91 10
112 16 112 30 0 20 -16 22 -94 12 -112 -13 -170 7 -136 48 11 14 14 13 24 -1
23 -31 137 11 148 54 8 28 -18 62 -45 61 -12 0 -41 -7 -64 -15z m67 -39 c-11
-13 -69 -35 -94 -35 -19 0 18 31 48 39 50 15 61 14 46 -4z"/>
<path d="M12000 795 c-39 -28 -60 -53 -60 -72 0 -7 14 -28 30 -47 34 -38 28
-49 -23 -45 -39 4 -58 -6 -50 -26 7 -20 92 -20 121 1 31 21 28 55 -9 90 l-30
29 32 27 33 28 23 -22 c18 -17 26 -19 35 -10 9 9 7 18 -9 39 -26 36 -50 38
-93 8z"/>
<path d="M14389 798 c-2 -37 -11 -54 -46 -90 -30 -31 -35 -41 -23 -48 20 -12
47 4 98 59 28 30 41 39 38 26 -15 -65 -16 -82 -3 -99 16 -22 42 -13 33 11 -4
8 1 42 10 75 18 73 10 89 -36 71 -18 -7 -32 -7 -36 -2 -8 13 -34 11 -35 -3z"/>
<path d="M8730 782 c-52 -35 -53 -63 -5 -119 31 -36 44 -63 31 -63 -2 0 -11
-3 -20 -6 -11 -4 -19 2 -26 20 -11 31 -26 34 -35 6 -4 -13 0 -31 10 -47 14
-21 22 -24 48 -19 39 8 67 33 67 61 0 12 -16 40 -35 62 -19 23 -35 46 -35 52
0 19 27 12 33 -9 3 -11 12 -20 21 -20 19 0 22 50 6 81 -13 23 -27 23 -60 1z"/>
<path d="M10074 781 c-90 -55 -85 -144 10 -171 77 -21 91 11 16 39 -24 9 -43
21 -42 26 1 6 22 17 46 25 76 26 95 55 54 84 -29 21 -46 20 -84 -3z m51 -30
c-6 -5 -21 -12 -35 -15 l-25 -7 25 15 c28 17 50 21 35 7z"/>
<path d="M14225 786 c-45 -19 -105 -91 -105 -124 0 -38 17 -52 61 -52 26 0 47
8 68 26 48 40 54 58 40 115 -14 53 -18 55 -64 35z m35 -78 c0 -17 -53 -58 -76
-58 -28 0 -30 12 -9 44 11 16 22 22 35 19 11 -3 20 0 20 6 0 5 7 8 15 5 8 -4
15 -10 15 -16z"/>
<path d="M3769 765 c-46 -25 -67 -75 -85 -204 -9 -65 -14 -127 -10 -137 13
-34 35 9 47 92 l11 79 39 0 c44 0 83 25 117 75 27 41 27 50 1 84 -24 30 -76
35 -120 11z m94 -37 c11 -32 -52 -98 -92 -98 -13 0 -6 77 9 95 15 18 77 20 83
3z"/>
<path d="M8483 762 c-27 -22 -73 -90 -73 -109 0 -30 45 -9 65 31 22 41 49 65
61 53 5 -4 7 -24 7 -45 -1 -46 12 -72 37 -72 20 0 27 20 13 34 -5 4 -8 25 -9
46 -1 69 -53 101 -101 62z"/>
<path d="M15404 729 c-25 -51 -26 -80 -2 -78 15 0 70 107 62 120 -13 21 -35 5
-60 -42z"/>
<path d="M8048 753 c-38 -47 -53 -148 -23 -160 23 -8 28 1 36 68 4 33 9 63 12
65 3 3 15 0 27 -6 17 -9 25 -9 34 0 8 9 5 16 -13 31 -29 24 -53 24 -73 2z"/>
<path d="M8981 743 c-13 -15 -26 -26 -29 -23 -4 3 -8 -13 -10 -35 -2 -22 -12
-83 -22 -135 -21 -106 -21 -134 3 -138 24 -5 37 29 47 130 5 51 16 115 26 141
16 49 17 49 53 42 38 -7 61 -21 61 -37 0 -11 -67 -41 -95 -42 -24 -1 -28 -39
-4 -44 9 -2 42 9 73 24 60 28 77 55 57 93 -15 27 -36 38 -92 46 -43 6 -48 5
-68 -22z"/>
<path d="M11260 756 c-14 -8 -35 -32 -48 -54 -17 -31 -27 -39 -42 -35 -17 5
-20 0 -20 -33 0 -22 -7 -77 -15 -124 -19 -108 -19 -135 1 -154 23 -24 31 -13
37 56 3 35 11 80 17 101 10 35 14 38 39 32 19 -4 37 1 61 17 53 36 75 73 74
124 -2 73 -45 102 -104 70z m64 -50 c8 -31 -5 -65 -35 -92 -34 -30 -45 -35
-62 -28 -33 12 37 144 76 144 8 0 18 -11 21 -24z"/>
<path d="M11856 757 c-9 -7 -29 -34 -44 -59 -26 -45 -29 -46 -52 -35 -20 10
-25 20 -25 52 0 23 -5 40 -14 43 -36 12 -43 -77 -8 -112 13 -13 29 -25 36 -27
10 -4 -1 -34 -38 -107 -28 -56 -51 -110 -51 -121 0 -25 29 -36 36 -13 13 49
153 310 181 338 23 23 28 35 20 43 -14 14 -19 14 -41 -2z"/>
<path d="M8210 722 c-77 -76 -34 -141 65 -98 27 11 31 10 40 -7 27 -54 46 11
20 70 -28 64 -31 68 -59 71 -20 3 -36 -6 -66 -36z m83 -17 c18 -13 18 -14 -5
-29 -33 -21 -78 -31 -78 -17 0 12 48 61 59 61 3 0 14 -7 24 -15z"/>
<path d="M12175 750 c-12 -19 -45 -124 -45 -142 0 -12 6 -18 16 -16 17 3 68
143 59 159 -8 12 -22 12 -30 -1z"/>
<path d="M13287 743 c-10 -10 -8 -42 3 -56 6 -7 21 -28 33 -47 l23 -35 -42
-58 c-70 -95 -115 -204 -100 -243 9 -24 32 -1 40 39 13 68 129 251 226 355 30
32 32 52 5 52 -14 0 -95 -86 -95 -101 0 -24 -19 -3 -43 46 -26 53 -36 63 -50
48z"/>
<path d="M9210 720 c-62 -62 -36 -144 38 -125 64 16 79 63 36 114 -30 36 -46
39 -74 11z m48 -42 c18 -18 14 -36 -9 -43 -30 -10 -44 8 -27 34 15 24 20 25
36 9z"/>
<path d="M9381 718 c-12 -32 10 -102 33 -106 16 -3 17 1 11 39 -7 38 -6 41 11
34 45 -18 54 -18 54 3 0 14 -12 25 -40 36 -53 21 -59 20 -69 -6z"/>
<path d="M12442 720 c-68 -42 -62 -105 13 -130 39 -13 100 -6 111 12 10 16
-18 29 -49 22 -32 -7 -90 13 -84 29 2 6 16 20 31 31 l27 21 18 -23 c15 -20 19
-21 29 -9 13 15 6 47 -12 59 -19 13 -50 9 -84 -12z"/>
<path d="M6815 694 c-27 -66 -11 -126 30 -110 12 4 13 10 3 31 -9 21 -8 32 5
61 10 19 15 40 12 45 -13 20 -35 7 -50 -27z"/>
<path d="M12731 704 c-81 -68 -52 -120 44 -80 l34 15 -6 -30 c-5 -29 12 -64
27 -54 4 3 11 33 15 66 7 59 6 62 -20 85 -36 31 -56 30 -94 -2z m69 -19 c0 -2
-15 -12 -32 -21 l-33 -17 19 22 c17 19 46 29 46 16z"/>
<path d="M14662 708 c-28 -28 -13 -36 56 -31 83 6 92 8 92 28 0 12 -14 15 -68
15 -40 0 -73 -5 -80 -12z"/>
<path d="M4400 620 c-21 -30 -20 -50 3 -50 16 0 46 51 40 68 -7 19 -20 14 -43
-18z"/>
<path d="M16205 600 c-4 -7 -3 -16 3 -22 14 -14 45 -2 40 15 -6 16 -34 21 -43
7z"/>
</g>
</svg>
