<?xml version="1.0" standalone="no"?>
<!DOCTYPE svg PUBLIC "-//W3C//DTD SVG 20010904//EN"
 "http://www.w3.org/TR/2001/REC-SVG-20010904/DTD/svg10.dtd">
<svg version="1.0" xmlns="http://www.w3.org/2000/svg"
 width="1872.000000pt" height="1020.000000pt" viewBox="0 0 1872.000000 1020.000000"
 preserveAspectRatio="xMidYMid meet">

<g transform="translate(0.000000,1020.000000) scale(0.100000,-0.100000)"
fill="#000000" stroke="none">
<path d="M2444 9713 c-18 -2 -39 -12 -47 -21 -19 -22 -37 -138 -37 -240 0 -89
8 -80 -90 -100 -21 -5 -35 -13 -35 -22 0 -17 53 -20 94 -6 24 8 24 8 17 -45
-9 -69 -51 -208 -70 -234 -9 -11 -16 -26 -16 -32 0 -20 35 -15 54 6 24 26 64
150 78 236 15 96 13 93 52 100 40 8 64 29 46 40 -6 4 -27 4 -47 0 l-35 -6 4
135 c1 74 6 137 9 140 3 4 23 7 43 8 20 1 39 5 42 10 6 9 -14 39 -25 36 -3 0
-20 -3 -37 -5z"/>
<path d="M11783 9651 c-51 -37 -106 -142 -133 -252 -11 -48 -26 -87 -35 -92
-9 -5 -14 -16 -10 -26 3 -10 -4 -39 -16 -65 -20 -46 -20 -76 0 -76 5 0 23 30
40 66 l31 67 41 -6 c30 -4 42 -2 46 10 7 19 -14 33 -50 33 -31 0 -31 -1 0 109
37 136 137 261 168 211 10 -17 35 -11 35 8 0 49 -58 55 -117 13z"/>
<path d="M9262 9590 c-71 -125 -142 -232 -147 -219 -3 8 -13 43 -23 78 -18 67
-42 95 -63 74 -10 -10 -9 -16 3 -30 8 -10 19 -35 22 -56 4 -20 15 -56 25 -80
l18 -42 -79 -152 c-43 -83 -78 -159 -78 -168 0 -46 39 6 116 153 46 90 103
193 126 230 22 37 56 94 75 127 19 33 41 68 50 77 8 9 12 22 8 27 -12 20 -36
11 -53 -19z"/>
<path d="M4875 9601 c-3 -6 -12 -52 -21 -103 -9 -51 -20 -97 -25 -102 -5 -6
-27 -10 -49 -11 -47 -1 -57 -9 -39 -31 9 -11 23 -14 47 -10 31 5 34 3 28 -17
-4 -12 -9 -51 -13 -86 -6 -58 -5 -63 13 -59 13 2 20 13 22 33 1 17 7 54 13 83
8 41 14 52 29 52 18 0 40 27 40 49 0 6 -9 11 -20 11 -24 0 -23 -6 -5 99 8 45
12 87 9 92 -7 12 -21 11 -29 0z"/>
<path d="M4972 9533 c0 -61 -6 -99 -31 -174 -49 -153 -37 -190 33 -104 21 25
47 50 58 56 20 11 20 9 17 -58 -4 -67 -3 -68 21 -68 24 0 24 2 23 73 -3 106
-30 128 -94 75 -28 -24 -32 -25 -25 -8 4 11 16 57 27 102 22 94 17 175 -13
181 -14 3 -16 -8 -16 -75z"/>
<path d="M1713 9549 c-6 -6 -9 -26 -6 -44 6 -36 -13 -78 -50 -113 l-24 -23 -7
51 c-5 38 -13 54 -31 66 -22 15 -28 14 -75 -1 -27 -9 -58 -27 -67 -39 -10 -12
-26 -25 -36 -29 -24 -9 -17 -31 12 -35 16 -3 32 6 50 26 26 29 87 60 97 49 3
-3 9 -29 13 -58 7 -64 28 -81 69 -59 41 23 92 105 92 149 0 45 -20 77 -37 60z"/>
<path d="M15995 9455 c-14 -30 -31 -55 -37 -55 -5 0 -21 9 -35 20 -14 11 -31
20 -38 20 -18 0 -73 -65 -81 -96 -13 -52 18 -124 54 -124 11 0 9 -7 -7 -32
-39 -60 -82 -149 -76 -158 13 -20 32 -9 48 29 10 21 34 65 55 97 33 51 46 61
90 77 82 28 101 78 51 132 -18 20 -17 21 12 68 34 54 37 77 10 77 -13 0 -27
-17 -46 -55z m-55 -91 c0 -3 -10 -28 -21 -55 -17 -39 -26 -49 -45 -49 -21 0
-24 5 -24 36 0 54 15 74 55 74 19 0 35 -3 35 -6z m61 -40 c11 -14 10 -19 -10
-35 -21 -17 -41 -25 -41 -15 0 13 23 66 30 66 4 0 14 -7 21 -16z"/>
<path d="M15628 9483 c0 -4 -2 -12 -3 -18 -1 -5 -12 -56 -25 -112 -18 -81 -27
-102 -43 -107 -29 -7 -15 -31 19 -31 29 0 29 2 58 110 35 134 37 158 14 163
-10 2 -19 0 -20 -5z"/>
<path d="M7535 9459 c-8 -12 23 -49 42 -49 19 0 16 30 -4 46 -22 16 -30 17
-38 3z"/>
<path d="M11391 9446 c-15 -18 8 -45 39 -48 18 -2 26 2 28 17 4 26 -51 51 -67
31z"/>
<path d="M16445 9450 c-3 -5 -3 -14 0 -20 3 -5 -3 -49 -14 -97 -26 -112 -27
-125 -17 -141 10 -17 36 3 36 29 0 10 9 55 20 101 26 108 26 138 1 138 -11 0
-23 -4 -26 -10z"/>
<path d="M16720 9435 c-20 -24 -4 -32 52 -28 70 6 79 9 72 28 -8 20 -106 21
-124 0z"/>
<path d="M6703 9423 c-3 -10 -24 -27 -46 -39 -75 -37 -126 -152 -88 -198 20
-24 42 -1 39 39 -3 49 34 99 95 128 45 21 53 29 55 56 2 27 -1 31 -24 31 -16
0 -28 -7 -31 -17z"/>
<path d="M16638 9409 c-35 -26 -36 -58 -3 -89 30 -28 31 -41 5 -65 -26 -24
-50 -13 -50 24 0 35 -13 47 -30 26 -8 -9 -9 -28 -5 -55 11 -64 61 -79 114 -34
41 34 43 89 5 125 l-25 24 27 21 c25 21 26 44 1 44 -7 0 -24 -10 -39 -21z"/>
<path d="M5522 9385 c-26 -33 -40 -129 -22 -150 19 -23 34 -3 35 49 1 65 24
86 92 86 46 0 54 3 51 18 -3 14 -16 18 -70 20 -61 3 -67 1 -86 -23z"/>
<path d="M2566 9381 c-24 -27 -52 -149 -37 -164 15 -15 24 -2 45 66 13 44 23
60 42 67 27 11 32 35 8 44 -26 10 -40 7 -58 -13z"/>
<path d="M2979 9384 c-7 -9 -23 -20 -36 -25 -15 -5 -23 -17 -23 -31 0 -13 -9
-38 -21 -57 -11 -18 -18 -40 -15 -47 11 -29 38 -12 76 49 22 34 40 54 40 45 0
-23 29 -38 54 -28 19 7 21 4 21 -32 0 -54 25 -72 56 -41 22 22 17 48 -7 39
-12 -5 -14 2 -8 32 3 20 7 42 8 47 1 12 -41 12 -67 0 -15 -6 -18 -4 -17 11 5
43 0 54 -24 54 -13 0 -30 -7 -37 -16z"/>
<path d="M10594 9378 c-32 -35 -84 -117 -84 -132 0 -7 -11 -45 -25 -85 -32
-94 -42 -166 -24 -176 21 -14 47 31 66 115 16 71 20 79 44 84 44 9 86 60 100
122 14 64 6 87 -32 92 -16 2 -32 -5 -45 -20z m41 -62 c-9 -45 -40 -86 -66 -86
-19 0 -19 1 2 43 22 43 59 90 66 83 3 -2 1 -20 -2 -40z"/>
<path d="M3988 9371 c-34 -27 -80 -116 -76 -148 5 -43 30 -50 88 -26 46 19 50
20 50 4 0 -26 27 -58 38 -46 6 6 12 46 14 90 3 69 1 80 -14 83 -11 2 -22 -6
-29 -22 -11 -24 -68 -66 -90 -66 -6 0 0 17 12 39 15 27 27 37 38 34 10 -2 23
3 30 11 11 13 11 20 -3 41 -20 30 -26 31 -58 6z"/>
<path d="M5262 9378 c-5 -7 -19 -33 -30 -57 l-21 -43 27 -27 c15 -15 37 -33
49 -39 23 -13 66 -16 76 -6 11 11 -5 34 -23 34 -42 0 -49 10 -24 35 31 31 30
59 -1 90 -27 28 -38 31 -53 13z m38 -63 c0 -8 -7 -15 -15 -15 -16 0 -20 12 -8
23 11 12 23 8 23 -8z"/>
<path d="M2734 9372 c-5 -4 -24 -35 -42 -69 -28 -54 -31 -66 -21 -85 25 -48
68 -51 110 -9 36 36 38 81 7 128 -25 35 -40 45 -54 35z m36 -103 c0 -10 -10
-23 -21 -30 -30 -16 -42 6 -23 44 12 23 18 26 30 16 8 -6 14 -20 14 -30z"/>
<path d="M6864 9370 c-32 -13 -64 -59 -64 -92 0 -39 46 -84 93 -93 48 -9 111
6 115 28 3 14 -5 17 -50 18 -29 0 -61 4 -71 7 -16 7 -16 10 8 30 29 26 32 61
8 90 -14 15 -23 18 -39 12z m11 -69 c-3 -6 -11 -11 -17 -11 -6 0 -6 6 2 15 14
17 26 13 15 -4z"/>
<path d="M11050 9341 c-40 -41 -57 -92 -46 -129 12 -37 94 -56 131 -29 26 20
10 40 -26 32 -37 -8 -69 2 -69 22 0 35 34 86 67 100 38 15 39 36 4 41 -16 3
-34 -8 -61 -37z"/>
<path d="M13024 9366 c-43 -19 -76 -70 -82 -126 -4 -41 -1 -49 22 -67 33 -26
57 -20 94 22 26 28 31 31 47 19 36 -27 135 -11 135 21 0 9 7 18 15 21 8 4 15
15 15 26 0 16 -5 19 -22 14 -13 -3 -29 -6 -35 -6 -7 0 -13 -9 -13 -20 0 -16
-7 -20 -35 -20 -29 0 -37 5 -52 33 -10 17 -18 39 -19 49 -4 49 -18 56 -70 34z
m12 -71 c-10 -14 -16 -34 -14 -43 3 -20 -9 -42 -23 -42 -16 0 -10 43 11 78 11
17 25 32 31 32 7 0 5 -10 -5 -25z"/>
<path d="M4275 9358 c-11 -6 -28 -18 -39 -27 -10 -9 -27 -16 -39 -16 -15 0
-24 -12 -38 -55 -23 -69 -23 -70 1 -70 11 0 20 5 20 10 0 14 88 108 113 122
18 9 19 7 12 -28 -4 -22 -12 -45 -18 -52 -8 -10 -7 -16 3 -22 19 -12 30 -4 46
36 35 82 2 137 -61 102z"/>
<path d="M10330 9363 c-71 -9 -92 -66 -45 -121 26 -31 32 -52 15 -52 -5 0 -10
7 -10 15 0 8 -9 15 -21 15 -17 0 -20 -5 -17 -32 4 -41 43 -59 83 -38 41 22 43
55 5 101 -17 22 -29 46 -27 53 6 15 59 28 80 20 17 -6 41 21 32 36 -6 10 -28
11 -95 3z"/>
<path d="M10775 9352 c-36 -30 -55 -66 -55 -103 0 -67 66 -119 129 -102 38 10
21 37 -23 39 -25 0 -44 7 -53 20 -19 26 -12 37 28 45 31 7 79 48 79 70 0 18
-40 49 -62 49 -13 -1 -32 -8 -43 -18z m55 -30 c0 -15 -24 -32 -44 -32 -18 0
-19 1 -1 20 18 20 45 27 45 12z"/>
<path d="M7995 9342 c-27 -17 -31 -17 -42 -3 -16 22 -28 7 -47 -61 -9 -31 -21
-60 -26 -63 -15 -10 -12 -42 5 -49 11 -4 30 14 63 55 l47 61 5 -45 c6 -50 24
-77 51 -77 28 0 35 22 11 38 -24 16 -29 62 -12 108 7 19 7 30 -1 40 -15 18
-18 18 -54 -4z"/>
<path d="M4481 9300 c-30 -59 -22 -99 21 -114 33 -12 104 17 113 45 7 21 -40
109 -58 109 -7 0 -21 3 -32 5 -16 5 -25 -4 -44 -45z m89 -40 c10 -19 -4 -30
-41 -30 -21 0 -24 12 -9 40 12 22 36 17 50 -10z"/>
<path d="M7459 9305 c-22 -50 -18 -88 9 -82 10 2 16 9 14 15 -1 7 5 29 13 49
30 71 -5 88 -36 18z"/>
<path d="M7679 9322 c-53 -53 -62 -99 -29 -132 26 -26 75 -26 118 0 27 17 32
25 32 59 0 47 -40 101 -73 100 -12 0 -34 -12 -48 -27z m81 -78 c0 -18 -36 -36
-63 -32 -32 4 -32 34 -1 65 l27 27 18 -23 c11 -13 19 -29 19 -37z"/>
<path d="M11931 9285 c-28 -36 -56 -65 -61 -65 -5 0 -19 18 -30 40 -11 22 -25
40 -30 40 -21 0 -20 -25 3 -70 l25 -49 -40 -53 c-44 -58 -88 -143 -88 -170 0
-36 28 -17 63 41 19 33 68 103 109 156 114 151 130 174 123 185 -12 19 -23 10
-74 -55z"/>
<path d="M7175 9315 c-14 -13 -25 -29 -25 -35 0 -20 20 -50 34 -50 8 0 16 -7
20 -15 11 -30 26 -185 20 -209 -6 -27 -2 -26 -95 -11 -59 9 -126 -63 -107
-115 5 -14 19 -33 31 -42 l22 -16 -28 -7 c-34 -9 -87 -69 -87 -99 0 -33 37
-76 65 -76 35 0 73 52 86 119 10 49 17 59 40 68 15 6 44 33 64 61 25 36 44 52
63 54 32 4 33 19 4 33 -15 7 -19 16 -16 35 2 14 -2 76 -9 138 -11 95 -11 115
0 119 23 9 14 42 -17 58 -37 19 -37 19 -65 -10z m25 -381 c0 -8 -63 -64 -72
-64 -5 0 -8 16 -8 35 0 34 1 35 40 35 22 0 40 -3 40 -6z m-140 -192 c0 -37
-22 -67 -44 -59 -22 9 -20 39 4 65 28 30 40 28 40 -6z"/>
<path d="M9454 9305 c-11 -46 1 -143 21 -165 37 -41 98 -13 136 62 23 44 19
112 -7 122 -19 7 -33 -23 -27 -60 6 -39 -19 -90 -48 -99 -32 -10 -40 10 -37
90 2 59 0 70 -14 73 -12 2 -19 -5 -24 -23z"/>
<path d="M9259 9299 c-36 -68 -29 -144 16 -155 34 -8 111 28 118 56 11 41 -68
102 -89 68 -7 -11 2 -19 43 -44 16 -10 15 -12 -14 -28 -18 -9 -36 -16 -42 -16
-19 0 -22 39 -6 76 23 55 1 92 -26 43z"/>
<path d="M11356 9288 c-30 -104 -31 -118 -11 -118 18 0 47 66 43 99 -3 27 -26
41 -32 19z"/>
<path d="M16886 9231 c-33 -7 -46 -28 -22 -37 24 -9 66 4 66 21 0 19 -10 22
-44 16z"/>
<path d="M16195 9200 c-9 -15 4 -30 26 -30 12 0 19 7 19 20 0 21 -33 29 -45
10z"/>
<path d="M8317 9173 c-4 -3 -7 -10 -7 -14 0 -13 60 -41 76 -35 25 9 15 32 -19
44 -39 14 -41 14 -50 5z"/>
<path d="M3209 9088 c0 -2 -2 -30 -5 -63 -12 -203 -13 -204 -51 -220 -39 -17
-40 -41 0 -38 20 1 27 -4 29 -20 5 -33 32 -27 38 8 4 23 11 31 32 33 31 4 39
18 27 50 -10 26 -24 28 -38 5 -9 -16 -10 -15 -10 7 0 14 4 66 8 115 8 87 2
125 -19 125 -6 0 -10 -1 -11 -2z"/>
<path d="M10899 9088 c-1 -2 -3 -12 -4 -23 -1 -11 -15 -67 -30 -125 -15 -58
-32 -130 -38 -160 -6 -30 -17 -59 -24 -63 -17 -11 -17 -36 1 -43 28 -11 56 15
56 51 0 31 64 297 76 317 9 14 -7 48 -22 48 -8 0 -15 -1 -15 -2z"/>
<path d="M2766 9065 c-19 -19 -19 -20 -5 -141 10 -83 9 -101 -6 -140 -11 -29
-27 -50 -45 -59 -58 -30 -75 -13 -45 45 14 27 47 46 72 42 20 -4 27 21 8 34
-20 15 -52 6 -94 -27 -34 -27 -50 -57 -51 -94 0 -40 16 -55 59 -55 107 0 169
112 151 274 -5 45 -8 92 -7 105 2 30 -15 37 -37 16z"/>
<path d="M4924 9068 c-4 -6 0 -16 9 -23 22 -16 22 -20 -8 -112 l-24 -78 -73
-18 c-79 -19 -98 -31 -82 -47 10 -10 71 -2 116 15 14 6 15 -4 11 -79 -5 -73
-3 -86 10 -86 18 0 21 7 37 98 11 62 17 75 37 83 27 10 30 24 7 37 -13 7 -13
16 5 82 12 41 21 89 21 107 0 30 -3 33 -29 33 -17 0 -33 -5 -37 -12z"/>
<path d="M11426 8959 c-8 -103 -28 -158 -51 -139 -25 21 -62 2 -94 -47 -41
-62 -40 -106 2 -111 23 -3 38 5 72 41 24 25 59 74 79 110 33 58 37 73 39 148
2 79 1 84 -19 87 -20 3 -22 -3 -28 -89z m-75 -203 c-17 -24 -37 -46 -46 -49
-20 -8 -19 -1 6 40 18 28 42 47 67 52 2 1 -11 -19 -27 -43z"/>
<path d="M17396 9024 c-90 -14 -116 -25 -116 -50 0 -7 -11 -21 -25 -30 -46
-30 -40 -89 14 -138 12 -11 21 -29 21 -41 0 -63 -91 -57 -125 7 -20 37 -38 47
-50 28 -11 -18 37 -89 71 -105 38 -18 68 -19 97 -3 55 29 62 82 17 138 -37 46
-37 61 -4 91 14 13 34 32 44 41 10 9 45 20 77 24 78 9 104 20 97 39 -7 17 0
17 -118 -1z"/>
<path d="M6566 9018 c-7 -23 -26 -244 -26 -301 0 -40 4 -56 15 -61 21 -7 22
-1 31 134 12 174 11 233 -3 237 -7 3 -15 -1 -17 -9z"/>
<path d="M16787 8996 c-31 -31 -38 -33 -79 -29 -41 5 -46 3 -76 -31 -41 -47
-57 -105 -42 -152 6 -18 15 -36 20 -39 5 -3 1 -29 -9 -58 -10 -28 -16 -58 -14
-64 10 -27 30 -11 44 35 15 46 16 47 60 52 110 13 168 111 123 206 -16 34 -16
36 10 63 53 55 18 72 -37 17z m-106 -146 c-38 -61 -57 -68 -47 -17 9 46 30 72
59 73 l25 2 -37 -58z m109 -2 c0 -36 -57 -98 -89 -98 -31 0 -26 20 20 89 33
50 44 59 55 50 8 -6 14 -25 14 -41z"/>
<path d="M16294 9010 c-38 -8 -119 -63 -128 -86 -12 -32 12 -40 41 -13 43 39
80 59 108 59 59 0 5 -89 -100 -166 -108 -79 -111 -82 -100 -93 7 -7 24 -6 55
5 49 17 101 12 120 -11 15 -18 43 -19 73 -4 50 25 127 83 127 95 0 25 -17 23
-61 -7 -88 -59 -91 -60 -138 -37 l-42 21 50 46 c28 26 59 68 71 94 20 44 20
50 6 71 -18 28 -40 35 -82 26z"/>
<path d="M17024 8999 c-4 -7 -9 -38 -11 -70 -1 -31 -10 -89 -18 -128 -17 -81
-12 -124 14 -119 9 2 15 12 14 23 -1 11 5 54 13 95 19 100 22 202 7 207 -6 2
-15 -2 -19 -8z"/>
<path d="M3415 8950 c-9 -15 4 -30 25 -30 24 0 36 20 19 31 -19 12 -36 11 -44
-1z"/>
<path d="M5890 8936 c0 -30 23 -51 38 -34 13 17 -3 58 -23 58 -9 0 -15 -9 -15
-24z"/>
<path d="M13743 8944 c-7 -20 18 -46 35 -35 15 9 6 37 -14 45 -8 3 -17 -1 -21
-10z"/>
<path d="M2986 8931 c-10 -15 27 -52 43 -42 10 7 11 13 2 30 -12 22 -36 28
-45 12z"/>
<path d="M9216 8910 c-35 -11 -69 -42 -108 -100 -28 -42 -29 -46 -15 -70 23
-37 38 -31 53 20 7 25 27 58 43 74 26 25 37 28 85 27 44 -1 56 2 56 15 0 8
-16 22 -35 30 -38 16 -39 16 -79 4z"/>
<path d="M12915 8886 c-20 -30 -32 -160 -16 -170 7 -4 35 18 70 56 33 34 62
60 65 57 3 -3 1 -21 -4 -41 -12 -42 1 -88 25 -88 11 0 15 9 14 33 0 17 2 53 6
78 6 41 5 48 -12 57 -23 13 -62 -4 -106 -46 l-29 -27 8 30 c4 17 11 38 16 48
19 38 -13 50 -37 13z"/>
<path d="M12679 8862 c-50 -50 -60 -89 -30 -113 21 -17 26 -17 58 -4 33 14 35
14 40 -5 6 -21 44 -37 62 -25 16 9 13 32 -4 39 -12 4 -12 11 5 48 l20 43 -33
27 c-44 38 -72 35 -118 -10z m54 -32 c-5 -20 -43 -49 -43 -33 0 6 40 53 46 53
1 0 0 -9 -3 -20z"/>
<path d="M7358 8870 c-32 -25 -50 -69 -46 -111 6 -68 121 -103 213 -65 44 19
50 52 8 42 -16 -4 -53 -10 -84 -13 -45 -4 -59 -2 -73 12 -17 17 -16 19 15 32
72 30 87 67 43 102 -33 26 -45 26 -76 1z m43 -51 c-13 -11 -26 -17 -29 -14 -8
8 20 35 37 35 12 -1 11 -5 -8 -21z"/>
<path d="M11589 8861 c-57 -36 -99 -89 -99 -125 0 -15 11 -38 25 -51 38 -39
109 -33 213 18 49 24 59 34 43 50 -7 7 -21 6 -48 -5 -99 -42 -178 -48 -178
-14 0 14 15 23 62 37 69 22 86 41 74 85 -10 39 -36 41 -92 5z"/>
<path d="M3925 8858 c-16 -12 -42 -32 -56 -45 l-26 -24 1 22 c2 44 -24 30 -48
-26 -14 -31 -34 -68 -45 -84 -13 -18 -17 -32 -11 -42 7 -11 24 0 77 51 37 36
78 74 91 85 l23 19 -10 -28 c-23 -59 -2 -126 39 -126 30 0 35 21 10 40 -20 15
-22 23 -16 56 4 21 14 51 22 66 30 58 5 76 -51 36z"/>
<path d="M8910 8855 c-60 -44 -75 -94 -42 -135 15 -19 23 -20 52 -13 48 13 71
49 73 114 2 51 0 54 -23 57 -15 2 -39 -8 -60 -23z m38 -65 c-3 -25 -33 -49
-44 -37 -4 4 0 24 10 44 18 39 41 34 34 -7z"/>
<path d="M2400 8830 c-41 -41 -60 -84 -43 -101 15 -15 36 -2 58 38 22 41 47
56 38 24 -3 -12 -2 -37 1 -57 9 -46 40 -44 43 3 1 18 7 48 13 68 16 49 8 65
-35 65 -28 0 -43 -8 -75 -40z"/>
<path d="M1971 8825 c-56 -64 -54 -122 4 -149 42 -20 100 -18 100 4 0 10 -13
17 -40 20 -77 11 -85 38 -29 100 34 38 38 60 9 60 -7 0 -27 -16 -44 -35z"/>
<path d="M9920 8834 c-60 -34 -80 -60 -80 -111 0 -34 5 -46 28 -63 24 -20 35
-21 102 -16 119 10 129 12 147 28 44 38 59 40 128 12 65 -26 99 -27 90 -1 -3
7 -30 21 -60 32 l-55 18 30 18 c17 11 30 23 30 29 0 21 -28 21 -65 -1 -31 -19
-40 -20 -57 -10 -25 16 -50 -1 -30 -21 9 -9 3 -17 -25 -36 -60 -41 -223 -42
-223 -2 0 4 17 11 38 15 79 15 126 79 86 119 -21 21 -31 20 -84 -10z m44 -44
c-22 -22 -81 -40 -70 -21 9 14 79 51 85 45 3 -3 -4 -13 -15 -24z"/>
<path d="M10525 8851 c-11 -5 -31 -21 -45 -35 -23 -25 -24 -29 -9 -54 8 -15
28 -33 44 -41 36 -17 155 -16 166 1 13 20 0 28 -44 28 -50 0 -114 16 -123 31
-9 15 9 30 48 38 19 4 33 13 33 21 0 17 -40 23 -70 11z"/>
<path d="M2171 8841 c-18 -12 -9 -76 15 -102 20 -22 83 -26 102 -7 7 7 12 23
12 35 0 29 -45 77 -65 69 -8 -3 -17 -1 -20 4 -8 12 -26 12 -44 1z m89 -73 c0
-4 -11 -8 -24 -8 -26 0 -43 30 -31 51 7 11 55 -26 55 -43z"/>
<path d="M3560 8827 c-43 -28 -74 -80 -65 -107 11 -36 46 -51 89 -39 57 16 90
52 82 92 -5 29 -46 77 -65 77 -4 0 -23 -10 -41 -23z m55 -43 c25 -18 12 -43
-32 -61 -26 -10 -33 -10 -42 1 -9 11 -6 21 15 45 29 35 32 36 59 15z"/>
<path d="M5097 8820 c-48 -38 -44 -110 9 -130 37 -14 73 4 90 46 22 52 11 90
-28 98 -42 8 -42 8 -71 -14z m59 -52 c-7 -37 -25 -52 -43 -36 -24 19 2 67 36
68 10 0 12 -8 7 -32z"/>
<path d="M6247 8814 c-83 -83 -7 -183 121 -158 64 12 66 39 2 39 -57 1 -97 13
-104 32 -9 22 21 71 46 75 13 2 24 11 26 21 6 29 -59 23 -91 -9z"/>
<path d="M13990 8824 c-19 -8 -52 -32 -73 -52 l-37 -36 6 33 c6 30 5 33 -17
29 -18 -2 -24 -10 -26 -33 -1 -16 -7 -46 -12 -65 -6 -19 -18 -66 -27 -104 -14
-61 -15 -70 -1 -83 20 -20 34 -10 42 30 4 17 16 49 27 70 16 33 23 38 44 33
27 -7 89 20 115 50 22 25 49 79 49 98 0 18 -27 46 -43 46 -7 -1 -28 -8 -47
-16z m30 -52 c0 -16 -33 -53 -60 -67 -44 -23 -44 -1 0 39 38 35 60 45 60 28z"/>
<path d="M5982 8809 c-29 -15 -44 -29 -48 -48 -4 -14 -11 -31 -16 -37 -13 -17
1 -44 23 -44 18 0 23 10 20 36 -2 16 41 52 72 59 26 7 27 6 17 -20 -15 -39
-13 -95 4 -95 19 0 30 18 44 72 14 56 8 76 -25 89 -34 13 -43 12 -91 -12z"/>
<path d="M6727 8823 c-2 -4 -8 -34 -11 -65 -6 -50 -5 -59 15 -79 17 -17 29
-20 62 -16 57 8 79 34 85 101 4 52 3 56 -17 56 -18 0 -21 -6 -21 -44 0 -52
-21 -78 -59 -74 -25 3 -26 6 -26 62 0 36 -5 61 -12 63 -6 2 -13 0 -16 -4z"/>
<path d="M11126 8770 c-42 -68 -66 -86 -95 -70 -21 11 -36 44 -27 59 8 12 -21
34 -34 26 -5 -3 -10 -17 -10 -31 0 -68 68 -118 124 -93 29 14 120 144 111 159
-14 22 -34 7 -69 -50z"/>
<path d="M2917 8813 c-7 -13 8 -132 18 -142 23 -23 32 5 26 74 -5 54 -10 71
-23 73 -9 2 -18 -1 -21 -5z"/>
<path d="M5814 8793 c-3 -10 -15 -39 -26 -64 -23 -53 -21 -102 4 -107 12 -2
19 5 23 25 4 15 13 44 21 63 22 53 23 93 1 98 -10 2 -19 -4 -23 -15z"/>
<path d="M3357 8767 c-8 -20 9 -41 27 -34 23 9 21 47 -3 47 -10 0 -21 -6 -24
-13z"/>
<path d="M13666 8725 c-3 -9 -6 -23 -6 -31 0 -7 -13 -43 -30 -79 -37 -80 -40
-118 -9 -113 18 2 27 20 50 93 36 112 39 138 18 143 -9 1 -19 -4 -23 -13z"/>
<path d="M3090 8380 c-35 -35 -49 -80 -40 -129 10 -58 40 -86 88 -85 45 2 122
39 122 59 0 19 -19 19 -56 1 -54 -27 -78 -29 -98 -7 -22 24 -15 51 13 51 11 0
32 11 47 24 27 23 27 24 13 62 -18 48 -55 58 -89 24z m56 -41 c7 -12 -12 -29
-34 -29 -10 0 -10 4 0 20 14 23 24 25 34 9z"/>
<path d="M1979 8338 c-7 -13 -18 -27 -26 -31 -15 -9 -17 -115 -2 -138 14 -23
37 0 44 43 4 24 11 53 16 66 l9 24 33 -20 c17 -11 38 -17 45 -15 14 5 17 33 2
33 -5 0 -25 14 -43 30 -41 36 -62 38 -78 8z"/>
<path d="M2305 8323 c-51 -6 -60 -14 -75 -69 -23 -82 26 -124 90 -75 l24 19
18 -29 c10 -17 22 -28 26 -25 4 2 7 35 6 73 -1 37 3 73 8 80 5 7 7 17 3 23 -6
10 -23 10 -100 3z m45 -43 c0 -13 -60 -80 -71 -80 -12 0 -11 24 2 54 7 15 22
27 38 29 14 2 27 5 29 6 1 0 2 -3 2 -9z"/>
<path d="M2526 8309 c-46 -36 -82 -128 -57 -144 14 -8 41 24 48 56 5 28 37 69
53 69 16 0 30 -38 28 -72 -2 -24 2 -33 14 -36 12 -2 19 6 23 32 17 90 -45 145
-109 95z"/>
<path d="M2795 8309 c-11 -6 -26 -19 -32 -27 -18 -22 -16 -71 2 -78 22 -9 63
4 85 26 19 19 20 19 35 -32 16 -54 18 -107 7 -173 l-7 -40 -53 -1 c-58 -2 -82
-16 -82 -48 0 -32 52 -108 84 -126 26 -14 29 -13 47 9 10 12 24 42 31 64 15
53 14 52 32 38 8 -7 20 -10 26 -6 18 11 11 35 -14 46 -23 11 -23 14 -22 123 0
90 -3 118 -19 151 -10 22 -19 49 -19 60 -1 16 -9 20 -41 22 -22 2 -49 -2 -60
-8z m25 -54 c-7 -9 -15 -13 -18 -10 -3 2 1 11 8 20 7 9 15 13 18 10 3 -2 -1
-11 -8 -20z m61 -330 c-1 -11 -9 -33 -15 -50 l-12 -30 -29 43 c-32 49 -25 64
30 60 24 -2 29 -7 26 -23z"/>
<path d="M3392 8188 c-28 -28 1 -57 34 -33 15 11 16 15 5 29 -16 19 -23 20
-39 4z"/>
<path d="M8086 7601 c-68 -48 -90 -117 -64 -202 8 -27 8 -46 1 -61 -9 -21 -17
-23 -89 -23 -71 0 -79 -2 -79 -19 0 -18 46 -36 122 -48 22 -3 21 -7 -32 -111
-64 -126 -69 -164 -28 -197 28 -22 61 -21 112 4 27 12 49 42 39 51 -4 4 -30 0
-59 -8 -89 -27 -90 -11 -9 149 33 65 61 133 61 149 1 17 2 73 3 125 1 52 5
102 9 110 4 8 23 25 41 38 28 19 38 21 55 13 28 -15 41 -14 41 5 0 21 -40 53
-65 53 -11 0 -37 -12 -59 -28z"/>
<path d="M3866 7588 c-21 -68 -2 -144 29 -118 8 6 11 19 8 27 -4 9 -7 34 -7
56 -1 39 -22 63 -30 35z"/>
<path d="M3735 7570 c-4 -6 -2 -16 3 -23 6 -7 12 -35 14 -62 2 -41 6 -50 21
-50 16 0 19 8 19 60 0 33 -1 66 -1 73 -1 15 -47 16 -56 2z"/>
<path d="M6749 7558 c-1 -2 -3 -12 -4 -23 -2 -11 -6 -43 -10 -71 -6 -41 -4
-52 8 -57 17 -6 42 17 33 31 -2 4 -1 26 4 48 11 45 5 74 -16 74 -8 0 -15 -1
-15 -2z"/>
<path d="M5254 7509 c-60 -17 -81 -79 -59 -175 19 -82 19 -104 0 -104 -25 0
-96 -71 -93 -93 7 -49 112 -85 148 -52 26 24 26 104 -1 227 -10 48 -16 95 -12
105 9 26 44 63 60 63 16 0 14 32 -2 36 -5 1 -24 -2 -41 -7z m-24 -359 c0 -35
-3 -40 -23 -40 -12 0 -33 8 -46 17 l-24 16 29 24 c45 36 64 31 64 -17z"/>
<path d="M5745 7510 c-3 -5 -8 -43 -11 -82 -8 -128 -27 -248 -38 -249 -6 -1
-18 -1 -26 0 -25 2 -43 -16 -36 -34 4 -12 14 -16 35 -13 28 4 30 2 36 -39 5
-34 10 -43 23 -41 13 3 16 13 14 46 -4 46 -3 46 89 42 21 -1 40 3 43 8 11 18
-24 34 -75 34 l-51 0 6 42 c10 63 25 280 20 288 -7 11 -22 10 -29 -2z"/>
<path d="M6814 7507 c-11 -29 0 -72 19 -75 16 -3 18 2 15 39 -3 43 -23 64 -34
36z"/>
<path d="M4278 7323 c-88 -92 -99 -201 -25 -240 61 -32 262 -11 255 26 -2 9
-12 15 -23 14 -152 -19 -220 -10 -231 31 -12 47 56 156 98 156 10 0 43 -14 73
-31 51 -29 85 -33 85 -10 0 14 -146 91 -172 91 -15 0 -38 -15 -60 -37z"/>
<path d="M5477 7343 c-13 -12 -7 -23 22 -37 37 -19 60 -2 34 26 -16 18 -44 24
-56 11z"/>
<path d="M7254 7319 c-3 -6 -2 -15 4 -21 15 -15 46 -5 50 15 3 12 -3 17 -22
17 -14 0 -28 -5 -32 -11z"/>
<path d="M5950 7271 c0 -24 25 -34 40 -16 15 18 5 35 -21 35 -12 0 -19 -7 -19
-19z"/>
<path d="M6401 7236 c-18 -19 -40 -32 -47 -29 -8 3 -15 -1 -17 -8 -2 -8 -8
-28 -14 -44 -19 -61 10 -75 50 -24 l25 32 7 -32 c4 -17 14 -35 24 -40 26 -14
85 2 90 24 2 10 12 26 23 35 17 13 18 18 7 27 -20 16 -83 -11 -75 -32 3 -9 0
-15 -11 -15 -12 0 -14 7 -9 33 20 97 19 107 -1 107 -10 0 -34 -15 -52 -34z"/>
<path d="M4928 7240 c-13 -10 -33 -18 -44 -17 -17 2 -19 -5 -19 -52 0 -65 17
-77 42 -31 10 18 26 42 35 54 17 21 17 20 18 -30 0 -59 29 -108 50 -88 9 9 9
17 1 32 -6 11 -11 39 -11 62 0 73 -31 103 -72 70z"/>
<path d="M4664 7206 c-40 -40 -46 -92 -16 -119 23 -21 45 -21 81 -2 53 27 66
119 21 142 -37 19 -49 16 -86 -21z m69 -37 c6 -20 -22 -59 -43 -59 -15 0 -12
43 6 68 17 25 29 22 37 -9z"/>
<path d="M6105 7190 c-40 -63 -43 -95 -11 -115 30 -20 95 -15 134 11 45 29 18
82 -51 99 -14 4 -24 13 -23 22 2 32 -24 23 -49 -17z m80 -50 c33 -13 25 -26
-21 -35 -41 -7 -58 3 -48 28 7 19 31 22 69 7z"/>
<path d="M7255 7180 c-14 -15 -16 -23 -7 -32 15 -15 42 -2 42 21 0 29 -15 33
-35 11z"/>
<path d="M1824 7164 c-12 -17 -14 -28 -7 -35 20 -20 72 28 57 52 -10 17 -33 9
-50 -17z"/>
<path d="M2100 7171 c-18 -5 -25 -14 -25 -31 0 -21 4 -25 25 -22 26 2 50 26
50 49 0 14 -11 15 -50 4z"/>
<path d="M5457 7173 c-16 -27 -17 -71 -2 -83 23 -19 37 0 33 45 -3 36 -20 57
-31 38z"/>
<path d="M2333 7153 c-15 -5 -17 -39 -4 -47 15 -9 45 20 38 38 -7 16 -13 18
-34 9z"/>
<path d="M5936 7111 c-10 -11 -16 -28 -14 -38 4 -22 43 -25 43 -3 0 8 4 21 8
28 9 13 1 32 -12 32 -4 0 -16 -9 -25 -19z"/>
<path d="M11505 7054 c-8 -20 -15 -52 -15 -70 0 -27 4 -34 20 -34 15 0 20 7
20 29 0 16 7 44 15 64 8 19 11 37 8 41 -15 15 -34 3 -48 -30z"/>
<path d="M10022 7030 c-23 -16 -52 -46 -64 -64 -13 -19 -31 -37 -40 -40 -10
-2 -18 -11 -18 -20 0 -9 -13 -42 -29 -74 -34 -67 -56 -161 -42 -175 16 -16 39
0 60 40 11 21 20 32 21 26 0 -26 75 -63 139 -69 58 -7 63 -6 59 12 -2 14 -16
21 -58 27 -51 7 -100 31 -107 53 -2 5 18 20 44 34 64 34 105 71 142 128 42 67
49 104 22 131 -31 31 -79 27 -129 -9z m92 -19 c24 -38 -56 -147 -143 -195
l-52 -28 7 29 c25 105 158 243 188 194z"/>
<path d="M11580 7035 c-15 -40 -12 -95 5 -102 22 -8 22 -6 26 61 4 65 -13 88
-31 41z"/>
<path d="M12645 7009 c-48 -24 -92 -70 -101 -103 -4 -17 3 -36 21 -64 22 -33
25 -44 16 -61 -18 -33 -53 -51 -101 -51 -54 0 -86 -19 -77 -44 5 -13 17 -17
44 -15 47 4 46 -4 -9 -89 -49 -76 -61 -141 -32 -173 17 -19 27 -21 89 -16 79
6 163 34 179 59 18 30 -1 32 -83 10 -43 -12 -95 -22 -115 -22 -31 0 -36 3 -36
23 0 13 23 61 51 107 28 47 48 91 46 101 -3 12 3 19 18 23 31 8 73 52 80 87 5
22 0 41 -19 73 -23 39 -24 45 -10 65 15 21 102 72 90 53 -7 -12 20 -36 32 -28
14 9 20 52 10 70 -12 22 -45 20 -93 -5z"/>
<path d="M16785 6998 c-142 -8 -190 -18 -182 -41 4 -12 29 -12 134 -1 l52 5
-35 -83 c-19 -46 -42 -98 -51 -117 -10 -22 -14 -50 -11 -82 5 -49 5 -49 -25
-49 -36 0 -149 -28 -161 -41 -6 -6 -6 -13 1 -20 8 -8 29 -6 74 6 35 9 123 19
196 22 l131 6 -22 -81 c-24 -82 -22 -107 8 -100 15 3 54 91 72 164 5 19 11 21
43 17 29 -4 47 1 77 20 55 34 71 55 85 109 15 55 3 78 -40 78 -33 0 -115 -51
-131 -80 l-12 -22 -15 22 c-20 29 -39 12 -48 -45 l-6 -45 -96 0 -95 0 7 45 c8
54 33 132 71 215 l27 60 46 1 c25 1 48 1 51 1 3 1 31 -2 63 -6 47 -5 59 -3 64
9 3 9 4 18 2 20 -13 12 -154 19 -274 13z m355 -238 c0 -45 -67 -110 -111 -110
-36 0 -36 4 -3 47 39 52 114 92 114 63z"/>
<path d="M13180 6924 c-6 -14 -10 -30 -10 -36 0 -5 -7 -26 -16 -45 -16 -31
-16 -36 -1 -50 13 -13 19 -14 31 -4 9 8 14 16 11 20 -2 4 3 33 11 65 8 31 12
61 9 66 -11 17 -25 11 -35 -16z"/>
<path d="M13281 6913 c-40 -50 -40 -103 0 -103 17 0 20 4 15 23 -3 14 2 36 15
56 31 51 7 71 -30 24z"/>
<path d="M9300 6923 c-121 -19 -248 -48 -260 -59 -26 -25 1 -34 65 -19 63 15
74 13 57 -8 -7 -7 -23 -44 -37 -81 -22 -58 -24 -73 -15 -107 15 -54 35 -45 37
17 1 56 43 158 68 168 10 3 15 13 12 20 -7 19 39 30 86 21 21 -4 37 -3 41 4 8
12 -10 52 -22 50 -4 -1 -18 -3 -32 -6z"/>
<path d="M8580 6875 c-22 -51 -14 -85 19 -85 14 0 19 8 19 38 1 20 2 48 4 61
5 43 -21 35 -42 -14z"/>
<path d="M8702 6907 c-19 -22 -26 -75 -13 -91 19 -23 40 -8 39 27 0 18 1 41 3
51 5 23 -14 32 -29 13z"/>
<path d="M14997 6890 c-49 -39 -45 -77 18 -164 46 -63 47 -104 4 -140 -22 -18
-42 -26 -70 -26 -46 0 -99 24 -99 45 0 23 -20 28 -40 10 -41 -37 26 -94 122
-103 59 -6 99 10 138 55 49 56 41 117 -31 216 -45 62 -17 92 80 85 51 -3 67
16 26 32 -45 17 -119 12 -148 -10z"/>
<path d="M12014 6845 c-9 -22 0 -50 16 -50 21 0 26 51 5 59 -9 3 -18 0 -21 -9z"/>
<path d="M14182 6788 c-56 -22 -87 -54 -76 -81 3 -9 21 -28 40 -42 19 -14 34
-33 34 -42 0 -22 -108 -13 -122 10 -20 36 -58 4 -42 -36 14 -37 168 -52 197
-19 29 32 21 76 -19 112 -40 34 -40 34 19 66 15 8 37 12 48 9 24 -8 39 23 18
36 -20 13 -37 10 -97 -13z"/>
<path d="M10514 6758 c-27 -17 -57 -31 -67 -29 -19 2 -22 -4 -32 -61 -9 -54
11 -49 79 19 31 31 58 54 61 52 2 -3 -1 -22 -7 -42 -9 -28 -8 -43 1 -63 14
-32 33 -20 37 23 1 15 5 48 9 72 6 32 4 45 -6 52 -20 12 -20 12 -75 -23z"/>
<path d="M15765 6773 c-67 -35 -118 -105 -113 -155 5 -48 24 -44 48 9 25 56
45 80 84 100 20 11 31 12 39 4 17 -17 37 -13 37 7 0 22 -30 52 -51 52 -8 -1
-27 -8 -44 -17z"/>
<path d="M9512 6760 c-27 -12 -51 -34 -69 -62 -18 -27 -35 -43 -48 -43 -17 0
-21 -8 -25 -60 -3 -33 -13 -77 -23 -97 -21 -46 -22 -74 -2 -82 18 -7 42 28 60
86 11 38 16 43 50 50 44 10 82 37 108 81 61 100 34 165 -51 127z m38 -60 c-11
-39 -48 -90 -65 -90 -7 0 -21 -3 -30 -6 -15 -6 -15 -4 -1 32 17 42 67 94 90
94 11 0 13 -7 6 -30z"/>
<path d="M10245 6753 c-65 -34 -94 -78 -75 -114 13 -23 53 -25 94 -4 36 19 35
20 46 -11 13 -33 35 -26 36 12 0 16 3 45 7 66 7 34 5 37 -24 52 -39 19 -46 19
-84 -1z m55 -31 c0 -13 -43 -49 -67 -57 -33 -9 -28 9 10 39 32 26 57 33 57 18z"/>
<path d="M13945 6738 c-7 -18 -17 -51 -21 -73 -7 -40 -7 -40 -16 -12 -13 38
-36 34 -82 -17 -23 -25 -52 -48 -65 -51 -23 -7 -24 -6 -17 36 4 24 14 55 22
68 11 16 13 26 6 33 -21 21 -42 -3 -63 -72 -20 -66 -20 -72 -5 -95 24 -36 56
-31 116 16 51 41 52 41 66 20 17 -23 46 -28 61 -8 6 6 16 35 22 63 7 28 19 63
27 78 16 32 11 46 -17 46 -13 0 -25 -11 -34 -32z"/>
<path d="M14606 6754 c-21 -20 -16 -39 10 -39 21 0 32 31 16 47 -6 6 -15 3
-26 -8z"/>
<path d="M16160 6744 c-66 -56 -77 -118 -29 -158 25 -21 41 -26 87 -26 75 0
102 8 102 31 0 16 -7 17 -68 12 -75 -6 -112 6 -112 36 0 13 10 20 36 24 37 6
84 41 84 62 0 17 -33 45 -53 45 -8 0 -29 -12 -47 -26z m56 -23 c-3 -5 -16 -11
-28 -14 -22 -6 -22 -5 -4 8 22 17 40 20 32 6z"/>
<path d="M10716 6744 c-19 -19 -30 -58 -22 -79 9 -24 32 -28 65 -12 l30 15 15
-46 c9 -25 16 -65 16 -89 l0 -43 -44 0 c-53 0 -93 -14 -123 -42 -38 -36 -28
-84 30 -145 66 -70 151 -26 172 89 6 34 9 36 32 27 62 -23 75 10 16 38 -38 18
-38 19 -44 89 -7 77 -35 152 -71 190 -27 28 -50 30 -72 8z m52 -36 c-3 -7 -12
-14 -21 -16 -12 -2 -15 1 -11 12 7 19 38 22 32 4z m47 -305 c-10 -54 -33 -93
-54 -93 -24 0 -83 66 -79 88 5 24 46 42 97 42 l43 0 -7 -37z"/>
<path d="M15527 6733 c-8 -16 -17 -45 -21 -65 -5 -29 -14 -42 -38 -54 l-31
-16 6 38 c4 22 8 48 9 59 2 11 -4 21 -13 23 -37 7 -55 -129 -20 -148 60 -32
122 14 141 104 12 58 9 86 -9 86 -6 0 -17 -12 -24 -27z"/>
<path d="M15915 6753 c-26 -6 -63 -41 -81 -75 -16 -31 -3 -83 26 -98 21 -11
73 -13 108 -4 31 9 25 39 -8 40 -65 2 -78 5 -84 20 -4 10 6 28 29 51 29 29 37
33 55 23 23 -13 50 -7 50 10 0 9 -63 43 -72 39 -2 -1 -12 -3 -23 -6z"/>
<path d="M11020 6722 c-67 -33 -101 -120 -62 -155 25 -23 60 -21 145 5 75 22
116 45 117 64 0 15 -25 25 -36 15 -8 -8 -99 -35 -171 -51 -19 -5 -33 -4 -33 1
0 5 7 9 15 9 45 0 125 62 125 96 0 37 -44 45 -100 16z m50 -33 c-8 -5 -28 -17
-45 -25 l-30 -15 28 25 c15 15 36 26 45 26 15 0 15 -2 2 -11z"/>
<path d="M13414 6697 c-50 -45 -58 -104 -20 -142 27 -27 53 -30 97 -11 12 5
18 1 23 -18 7 -28 42 -44 59 -27 8 8 8 14 -1 23 -16 16 -15 44 7 105 10 29 15
56 12 60 -12 16 -82 43 -111 43 -20 0 -42 -11 -66 -33z m107 -17 c19 -11 19
-12 2 -41 -20 -34 -67 -63 -89 -55 -23 9 -16 46 15 77 32 32 42 34 72 19z"/>
<path d="M15220 6713 c-28 -10 -53 -38 -71 -77 -28 -63 -4 -96 68 -96 77 0
117 66 75 121 -10 13 -21 32 -25 42 -6 17 -19 20 -47 10z m17 -39 c-4 -4 1
-19 10 -34 23 -39 11 -60 -32 -60 -28 0 -35 4 -35 19 0 18 45 81 58 81 3 0 2
-3 -1 -6z"/>
<path d="M11947 6694 c-16 -16 -6 -35 16 -32 12 2 22 10 22 18 0 16 -26 25
-38 14z"/>
<path d="M14534 6609 c-8 -14 5 -26 37 -34 31 -8 47 9 29 30 -15 17 -56 20
-66 4z"/>
<path d="M9220 6571 c-14 -5 -90 -6 -169 -3 -137 5 -143 4 -139 -14 3 -17 17
-20 143 -26 153 -7 218 2 213 29 -4 20 -15 23 -48 14z"/>
<path d="M6151 6508 c-22 -87 -24 -107 -11 -122 18 -22 43 -8 36 20 -4 13 1
43 9 66 20 59 19 88 -3 88 -13 0 -21 -14 -31 -52z"/>
<path d="M6254 6514 c-19 -46 -15 -108 7 -112 13 -2 18 8 22 45 4 26 9 60 13
76 10 42 -23 36 -42 -9z"/>
<path d="M6715 6530 c-14 -16 -16 -23 -7 -32 9 -9 15 -9 24 0 30 30 108 -2
123 -49 5 -16 -4 -31 -40 -66 -60 -60 -79 -96 -67 -131 6 -19 5 -33 -5 -49
-12 -18 -12 -26 1 -58 9 -20 27 -50 41 -67 44 -52 28 -98 -48 -142 -52 -30
-115 -48 -123 -35 -3 5 5 25 17 45 18 30 19 38 8 45 -19 12 -79 -52 -79 -84 0
-62 65 -78 155 -38 142 63 180 152 105 246 -35 44 -36 52 -13 78 17 18 17 19
0 32 -34 24 -21 55 61 144 32 35 37 67 18 107 -31 67 -131 98 -171 54z"/>
<path d="M3006 6508 c-2 -7 -12 -46 -23 -85 -15 -55 -17 -77 -9 -88 6 -8 16
-11 21 -7 14 9 48 159 41 177 -7 18 -25 20 -30 3z"/>
<path d="M3091 6471 c-23 -42 -7 -151 22 -151 11 0 14 18 12 82 -2 83 -14 107
-34 69z"/>
<path d="M3820 6356 c-17 -18 -37 -41 -43 -50 -10 -14 -17 -15 -44 -6 -62 22
-76 12 -89 -60 -7 -40 -8 -74 -3 -88 7 -18 3 -34 -16 -66 -14 -24 -25 -52 -25
-64 0 -37 28 -25 49 21 31 65 41 74 92 74 112 2 161 79 88 136 l-29 22 46 48
c43 45 49 67 19 67 -8 0 -28 -15 -45 -34z m-89 -106 c6 0 -2 -18 -18 -39 -15
-22 -31 -37 -34 -35 -4 2 -2 22 3 44 8 30 15 40 25 36 8 -4 19 -6 24 -6z m83
-39 c15 -16 15 -20 2 -31 -16 -13 -86 -32 -86 -23 0 15 43 73 54 73 7 0 20 -8
30 -19z"/>
<path d="M5000 6373 c-23 -8 -70 -55 -70 -69 0 -38 75 -58 122 -33 29 16 32 5
15 -48 -14 -44 -21 -117 -18 -186 1 -21 5 -28 19 -25 12 2 17 14 18 43 2 44
28 196 45 258 12 46 0 69 -25 48 -12 -10 -21 -9 -45 3 -32 17 -37 18 -61 9z
m40 -53 c-8 -5 -22 -10 -30 -10 -13 0 -13 1 0 10 8 5 22 10 30 10 13 0 13 -1
0 -10z"/>
<path d="M5710 6343 c0 -21 -5 -54 -10 -73 -28 -105 -32 -130 -26 -154 9 -37
46 -36 46 2 0 15 7 72 17 127 17 104 15 135 -12 135 -11 0 -15 -11 -15 -37z"/>
<path d="M4273 6343 c-32 -22 -44 -121 -18 -143 9 -7 27 -10 44 -7 l28 6 -24
-92 c-27 -100 -23 -159 9 -165 14 -3 16 5 16 50 -2 66 44 230 78 279 13 19 24
43 24 52 0 22 -38 23 -46 2 -6 -14 -8 -14 -18 0 -13 18 -75 30 -93 18z m68
-55 c10 -18 8 -24 -7 -35 -38 -28 -57 -6 -34 38 14 25 27 24 41 -3z"/>
<path d="M3503 6333 c-7 -3 -13 -13 -13 -23 0 -10 -9 -35 -21 -54 -27 -47 -24
-121 6 -121 17 0 20 6 17 38 -3 28 3 49 22 77 37 56 31 98 -11 83z"/>
<path d="M3960 6125 c-10 -12 -10 -19 -1 -28 14 -14 44 2 49 27 4 21 -31 22
-48 1z"/>
<path d="M4698 6075 c-9 -20 -9 -28 1 -38 10 -9 15 -9 24 4 7 8 20 18 30 22
26 10 16 31 -16 35 -21 3 -30 -3 -39 -23z"/>
<path d="M5337 6049 c-20 -12 -23 -49 -4 -49 8 0 21 8 31 19 13 14 14 20 4 29
-9 7 -19 7 -31 1z"/>
<path d="M7231 6036 c-13 -13 -21 -32 -19 -43 2 -10 -10 -43 -28 -73 -31 -52
-34 -80 -10 -80 22 1 122 192 110 211 -9 16 -30 10 -53 -15z"/>
<path d="M8289 5564 c-51 -21 -60 -46 -62 -162 -2 -96 -3 -102 -31 -131 -23
-24 -34 -28 -60 -24 -39 6 -86 -11 -86 -32 0 -8 16 -23 35 -32 28 -13 39 -14
60 -5 40 18 32 -12 -25 -98 -27 -41 -50 -85 -50 -97 0 -43 62 -133 92 -133 27
0 34 29 11 45 -11 7 -27 31 -37 53 l-18 39 50 76 c54 83 69 122 52 141 -7 10
-4 18 11 32 38 33 51 80 48 170 -2 69 0 87 15 103 25 28 51 34 77 21 16 -9 24
-9 33 0 8 9 5 16 -13 31 -28 23 -53 23 -102 3z"/>
<path d="M2685 5498 c-3 -18 -16 -57 -28 -86 -19 -49 -20 -54 -4 -69 19 -19
26 -15 32 19 3 14 11 41 19 59 22 53 24 103 4 107 -11 2 -18 -6 -23 -30z"/>
<path d="M2810 5515 c-17 -20 -40 -102 -40 -142 0 -26 4 -33 20 -33 16 0 20 7
20 33 1 17 9 57 20 87 10 30 16 58 14 62 -8 12 -20 10 -34 -7z"/>
<path d="M18124 5515 c-4 -9 -19 -15 -40 -15 -28 0 -38 -6 -54 -32 -24 -39
-26 -84 -5 -92 9 -3 17 0 19 7 19 70 20 72 67 77 l46 6 -5 -43 c-4 -35 -2 -43
12 -43 9 0 18 11 22 28 3 15 10 37 15 50 14 36 11 48 -16 60 -35 16 -54 15
-61 -3z"/>
<path d="M6874 5463 c-19 -41 -24 -61 -17 -72 14 -23 38 -20 38 4 0 11 8 37
18 58 18 38 17 67 -3 67 -6 0 -22 -26 -36 -57z"/>
<path d="M6783 5493 c-3 -10 -14 -37 -25 -61 -19 -40 -19 -44 -3 -68 18 -28
41 -27 38 2 -1 10 8 40 19 66 11 26 18 54 14 63 -7 21 -35 19 -43 -2z"/>
<path d="M14694 5502 c-11 -7 -25 -66 -28 -117 -1 -24 3 -31 23 -33 20 -3 23
0 18 18 -3 11 1 41 10 66 20 58 9 88 -23 66z"/>
<path d="M3310 5474 c-6 -14 -10 -39 -10 -57 0 -71 -35 -220 -65 -279 -17 -34
-36 -63 -42 -65 -17 -6 -40 66 -48 152 -10 104 -19 127 -48 123 -19 -3 -25
-15 -43 -84 -11 -45 -35 -120 -53 -167 -32 -86 -33 -111 -5 -105 13 3 79 178
96 254 3 10 8 -3 12 -31 4 -27 9 -64 12 -81 8 -52 45 -99 79 -99 24 0 34 9 61
55 18 30 40 82 48 115 26 102 57 276 51 286 -11 18 -36 9 -45 -17z"/>
<path d="M10795 5466 c-17 -7 -44 -28 -59 -47 -35 -42 -31 -81 17 -153 67
-100 68 -143 7 -204 -35 -35 -78 -42 -104 -17 -23 23 -40 93 -26 109 7 10 6
17 -4 25 -11 10 -17 7 -30 -11 -38 -53 -3 -158 59 -178 48 -16 73 -8 128 40
82 73 83 131 5 256 -47 75 -46 103 5 134 40 25 37 25 82 -6 25 -17 41 -22 48
-15 15 15 2 38 -30 54 -47 24 -67 27 -98 13z"/>
<path d="M4400 5460 c-30 -5 -100 -15 -155 -24 -69 -10 -103 -12 -112 -5 -16
14 -33 3 -33 -20 0 -23 39 -32 101 -22 l47 7 -34 -128 c-39 -146 -44 -211 -16
-206 12 2 19 17 23 53 3 28 18 95 33 150 15 55 25 107 23 117 -5 17 1 18 183
46 31 5 46 12 48 25 4 19 -12 20 -108 7z"/>
<path d="M13602 5422 c-13 -28 -20 -55 -16 -66 8 -20 39 -17 39 4 0 8 8 32 18
53 10 20 15 42 12 47 -13 21 -31 8 -53 -38z"/>
<path d="M13687 5442 c-32 -34 -40 -75 -14 -80 9 -2 17 2 17 8 0 6 12 27 26
45 23 31 26 55 5 55 -4 0 -19 -12 -34 -28z"/>
<path d="M14758 5453 c-39 -45 -51 -110 -23 -133 22 -18 37 -2 30 31 -5 21 -1
40 14 65 29 48 13 75 -21 37z"/>
<path d="M3837 5453 c-3 -5 -15 -48 -27 -98 -34 -138 -57 -193 -82 -197 -28
-4 -35 -28 -10 -35 15 -4 20 -13 20 -46 1 -50 28 -77 76 -77 42 1 116 35 116
55 0 19 -18 19 -63 0 -52 -21 -74 -19 -79 8 -8 49 1 63 51 76 63 16 90 35 74
52 -9 9 -22 8 -57 -4 -35 -12 -46 -13 -46 -3 0 7 14 65 30 129 17 65 30 124
30 132 0 15 -25 21 -33 8z"/>
<path d="M12960 5454 c-19 -2 -71 -8 -115 -14 -44 -6 -150 -12 -235 -15 -85
-2 -158 -4 -162 -4 -5 -1 -8 -10 -8 -21 0 -19 5 -20 193 -14 105 3 239 9 297
15 58 5 137 9 177 9 69 0 96 11 76 31 -10 10 -168 19 -223 13z"/>
<path d="M4996 5395 c-19 -26 -61 -97 -92 -158 -31 -62 -65 -124 -76 -139 -11
-16 -16 -32 -13 -38 12 -19 34 -10 50 19 25 50 43 61 97 61 l51 0 -6 -54 c-4
-41 -2 -56 9 -60 19 -7 34 25 34 72 0 31 4 41 20 45 22 6 28 37 7 37 -9 0 -12
32 -12 127 0 111 -2 128 -17 131 -10 2 -30 -15 -52 -43z m29 -162 l-6 -53 -50
0 -49 0 26 53 c14 28 38 71 53 95 l26 42 3 -42 c2 -24 1 -67 -3 -95z"/>
<path d="M5580 5411 c-5 -11 -10 -66 -10 -124 0 -57 -3 -107 -7 -110 -3 -4
-17 0 -30 9 -19 12 -28 13 -38 4 -19 -16 -47 -104 -43 -137 5 -42 46 -43 92
-3 48 43 66 106 66 233 0 81 3 102 17 112 9 7 13 17 9 23 -11 19 -44 14 -56
-7z m-29 -276 c19 12 -6 -27 -35 -54 -29 -28 -34 -16 -15 38 9 25 14 29 25 20
7 -6 18 -8 25 -4z"/>
<path d="M8883 5393 c-32 -31 -77 -120 -119 -233 -15 -41 -38 -85 -51 -98 -28
-28 -30 -52 -4 -52 23 0 56 38 72 85 11 29 18 34 53 38 47 4 58 0 33 -14 -25
-14 -21 -39 6 -39 29 0 47 18 47 45 0 17 10 25 40 34 22 6 40 18 40 26 0 21
-15 26 -44 15 -24 -9 -25 -8 -17 8 5 9 14 51 21 93 19 115 -13 152 -77 92z
m21 -123 c-8 -46 -16 -85 -18 -87 -2 -2 -20 -7 -40 -10 l-36 -6 14 41 c8 23
20 51 27 64 14 26 62 88 66 85 1 -2 -4 -41 -13 -87z"/>
<path d="M5345 5400 c-3 -6 -5 -49 -4 -97 l2 -87 -40 2 c-35 3 -43 -1 -81 -42
-32 -35 -42 -54 -42 -79 0 -43 26 -67 73 -67 50 0 91 38 113 103 16 46 34 241
26 267 -5 13 -39 13 -47 0z m-16 -254 c-13 -49 -42 -76 -79 -76 -16 0 -30 2
-30 5 0 6 40 87 46 94 3 4 68 19 71 16 1 0 -2 -18 -8 -39z"/>
<path d="M17029 5398 c-9 -7 -26 -31 -39 -53 -13 -22 -24 -41 -25 -43 -1 -1
-19 5 -39 13 l-38 16 -44 -36 c-75 -62 -91 -114 -50 -161 l23 -28 -21 -33
c-11 -18 -29 -33 -38 -33 -13 0 -18 -8 -18 -26 0 -22 3 -25 23 -20 12 3 25 6
29 6 3 0 18 20 32 45 26 44 28 45 76 45 66 0 100 29 107 91 3 26 0 55 -6 67
-10 18 -7 29 16 64 15 24 35 48 43 55 13 10 13 14 0 27 -13 13 -19 14 -31 4z
m-109 -150 c0 -15 -73 -98 -86 -98 -18 0 -27 36 -15 59 6 10 25 31 42 45 24
21 34 24 45 15 8 -6 14 -16 14 -21z m50 -55 c0 -34 -26 -63 -57 -63 -30 0 -29
3 9 51 37 46 48 49 48 12z"/>
<path d="M9611 5367 c-40 -14 -71 -32 -83 -48 -19 -25 -19 -28 -3 -58 9 -18
36 -45 60 -59 52 -32 63 -60 34 -84 -31 -26 -105 -24 -119 2 -16 31 -40 25
-40 -9 0 -41 32 -61 95 -61 65 0 96 17 113 62 12 32 12 40 -3 71 -9 19 -34 47
-56 62 -25 16 -39 32 -37 43 5 24 65 55 109 55 46 0 60 14 34 34 -24 17 -28
17 -104 -10z"/>
<path d="M12694 5345 c-19 -47 -44 -167 -44 -216 0 -33 3 -40 17 -37 13 2 20
21 28 83 12 84 31 151 47 172 5 7 7 17 3 23 -13 21 -36 9 -51 -25z"/>
<path d="M15235 5350 c-16 -17 -26 -20 -62 -14 -37 5 -48 2 -78 -20 -45 -34
-63 -91 -47 -144 11 -33 9 -42 -15 -88 -27 -52 -26 -84 2 -84 8 0 15 7 15 15
0 9 9 34 21 56 18 36 23 40 49 34 36 -8 100 9 134 36 32 25 34 65 7 125 -19
41 -19 42 1 62 11 11 17 25 14 31 -10 16 -21 14 -41 -9z m-70 -60 c6 -10 -62
-110 -76 -110 -19 0 -8 60 17 89 26 31 48 39 59 21z m75 -91 c0 -29 -22 -43
-86 -55 l-39 -7 26 34 c14 19 36 49 49 68 l23 33 13 -23 c7 -13 13 -36 14 -50z"/>
<path d="M16111 5316 l-31 -45 -43 15 c-54 19 -77 13 -116 -31 -37 -43 -42
-92 -11 -120 18 -17 19 -20 5 -35 -9 -10 -19 -34 -22 -54 -5 -32 -3 -36 16
-36 13 0 21 6 21 18 1 9 7 28 15 42 13 23 18 25 93 25 64 0 84 4 101 19 30 27
27 73 -5 107 l-26 27 32 41 c19 24 30 46 27 55 -10 25 -21 19 -56 -28z m-112
-122 c-33 -33 -46 -41 -56 -32 -17 14 -17 33 2 61 12 19 21 22 56 19 l41 -4
-43 -44z m121 -34 c0 -23 -19 -30 -78 -30 l-46 0 44 45 45 46 18 -22 c9 -12
17 -29 17 -39z"/>
<path d="M17736 5333 c-21 -21 -36 -27 -62 -24 -47 4 -111 -35 -135 -81 -27
-53 -24 -84 11 -120 33 -33 33 -42 -1 -110 -16 -31 -16 -38 -4 -48 12 -10 18
-6 35 22 11 18 25 48 31 66 10 29 14 32 53 32 49 0 79 18 95 58 12 28 7 52
-23 123 -5 11 3 29 24 53 17 19 29 40 25 46 -10 16 -20 12 -49 -17z m-95 -136
c-16 -30 -30 -60 -33 -68 -4 -11 -9 -10 -27 5 -37 34 -18 96 30 96 13 0 31 5
39 10 8 5 16 10 17 10 1 0 -11 -24 -26 -53z m74 -63 c-16 -24 -65 -34 -65 -14
0 13 28 69 44 89 8 11 13 7 24 -19 11 -27 11 -36 -3 -56z"/>
<path d="M4604 5301 c-22 -15 -51 -41 -65 -57 -14 -16 -34 -34 -44 -40 -14 -8
-24 -38 -41 -122 -12 -62 -31 -131 -43 -154 -21 -42 -20 -58 3 -58 26 0 58 70
91 202 15 61 19 66 36 55 41 -26 162 32 198 95 20 34 7 74 -29 93 -41 21 -62
19 -106 -14z m96 -26 c27 -33 -32 -93 -101 -102 -34 -5 -39 -3 -39 14 0 25 82
103 109 103 10 0 24 -7 31 -15z"/>
<path d="M9317 5273 c-2 -32 -13 -77 -22 -100 -17 -42 -17 -42 -41 -26 -25 16
-36 15 -96 -11 l-37 -16 13 38 c22 59 39 96 54 114 15 19 9 38 -13 38 -28 0
-102 -173 -90 -210 8 -25 31 -25 89 0 41 17 48 18 73 5 16 -8 34 -15 41 -15
18 0 59 94 70 160 10 66 7 80 -17 80 -15 0 -19 -11 -24 -57z"/>
<path d="M5774 5300 c-71 -28 -144 -213 -99 -250 21 -17 35 -3 29 29 -14 70
62 189 113 176 30 -7 39 12 17 36 -19 21 -28 22 -60 9z"/>
<path d="M10104 5278 c3 -13 6 -26 6 -30 0 -14 31 -8 36 7 7 18 -13 45 -33 45
-11 0 -14 -7 -9 -22z"/>
<path d="M6163 5275 c-27 -19 -30 -56 -7 -91 13 -19 14 -30 6 -47 -6 -12 -11
-16 -11 -9 -1 21 -28 13 -46 -14 -38 -58 21 -75 73 -21 36 37 40 63 16 109
-17 33 -12 45 26 50 14 2 25 10 25 18 0 21 -55 24 -82 5z"/>
<path d="M6370 5283 c-22 -9 -70 -61 -70 -77 0 -19 39 -66 55 -66 7 0 18 -7
25 -15 17 -21 -32 -44 -54 -26 -18 15 -36 6 -36 -18 0 -49 67 -56 111 -12 16
16 29 36 29 44 0 8 -19 33 -42 55 -41 40 -42 42 -24 61 13 14 26 19 41 15 30
-7 44 15 20 33 -20 14 -31 15 -55 6z"/>
<path d="M14042 5256 c0 -46 14 -54 40 -26 24 26 15 53 -20 58 -17 3 -20 -2
-20 -32z"/>
<path d="M5907 5247 c-36 -37 -67 -94 -67 -124 0 -50 76 -92 141 -78 41 9 36
41 -5 37 -30 -3 -96 15 -96 27 0 4 14 15 30 25 47 27 70 57 70 91 0 29 -15 55
-32 55 -4 0 -22 -15 -41 -33z m23 -52 c-7 -9 -15 -13 -18 -10 -3 2 1 11 8 20
7 9 15 13 18 10 3 -2 -1 -11 -8 -20z"/>
<path d="M7367 5273 c-12 -11 -8 -22 14 -34 28 -14 48 3 29 26 -13 16 -32 20
-43 8z"/>
<path d="M13195 5246 c-17 -7 -43 -29 -58 -47 -14 -19 -34 -43 -43 -53 -10
-11 -21 -44 -26 -75 -5 -30 -20 -84 -34 -119 -20 -49 -23 -67 -14 -75 18 -18
43 20 70 105 13 40 24 74 26 76 1 2 14 -4 28 -13 33 -22 65 -14 111 26 52 46
69 137 31 168 -21 18 -61 21 -91 7z m65 -41 c19 -23 2 -71 -36 -105 -40 -34
-52 -37 -60 -12 -3 9 -10 25 -15 35 -8 15 -2 26 29 58 42 42 62 48 82 24z"/>
<path d="M3457 5185 c-20 -19 -42 -54 -49 -76 -11 -40 -11 -43 16 -65 37 -33
71 -30 108 6 27 28 30 36 25 75 -5 49 -30 95 -51 95 -7 0 -29 -16 -49 -35z
m57 -41 c15 -38 -6 -84 -37 -84 -42 1 -45 37 -6 78 24 26 35 28 43 6z"/>
<path d="M11475 5201 c-43 -25 -65 -63 -72 -121 -5 -42 -3 -50 10 -50 21 0 37
30 37 67 0 54 87 110 104 68 8 -22 36 -18 36 4 0 49 -61 66 -115 32z"/>
<path d="M11903 5190 c-25 -10 -49 -43 -58 -81 -5 -21 0 -34 25 -63 29 -33 37
-36 85 -36 68 0 117 17 113 39 -3 11 -11 15 -28 12 -51 -9 -133 -6 -137 5 -2
6 12 21 32 32 40 24 47 58 17 85 -21 19 -19 19 -49 7z m27 -40 c0 -5 -10 -15
-22 -21 -23 -12 -23 -12 -4 10 21 23 26 26 26 11z"/>
<path d="M10954 5135 c-13 -31 -24 -64 -24 -75 0 -39 67 -52 120 -25 40 21 38
50 -5 99 -19 21 -35 42 -35 47 0 5 -7 9 -16 9 -9 0 -25 -22 -40 -55z m76 -65
c-8 -5 -26 -10 -39 -10 -18 0 -22 4 -16 18 4 9 10 25 13 35 4 17 7 16 31 -7
22 -23 24 -28 11 -36z"/>
<path d="M11165 5168 c-15 -42 -21 -97 -13 -118 30 -81 133 -34 149 67 8 51 0
69 -25 60 -11 -4 -16 -19 -16 -44 0 -46 -23 -83 -52 -83 -18 0 -20 5 -16 62 2
42 -1 62 -9 65 -7 3 -15 -1 -18 -9z"/>
<path d="M10067 5163 c-14 -13 -6 -33 12 -33 21 0 45 23 34 33 -8 9 -38 9 -46
0z"/>
<path d="M11653 5149 c-43 -27 -76 -82 -68 -110 8 -24 61 -49 104 -49 23 0 30
5 35 26 4 15 3 31 -1 35 -10 10 -53 0 -53 -13 0 -5 -9 -4 -20 2 -11 6 -20 17
-20 24 0 21 39 50 67 51 32 0 40 17 18 39 -21 20 -23 20 -62 -5z"/>
<path d="M7342 5118 c-17 -17 -15 -48 4 -55 19 -7 31 4 39 40 6 22 4 27 -12
27 -10 0 -24 -5 -31 -12z"/>
<path d="M14017 5094 c-29 -27 -33 -39 -16 -50 6 -3 24 7 41 23 24 24 27 32
16 41 -11 9 -20 6 -41 -14z"/>
<path d="M15474 5106 c-7 -19 3 -36 22 -36 10 0 14 8 12 22 -4 26 -26 36 -34
14z"/>
<path d="M12745 5094 c-16 -2 -59 -10 -95 -18 -79 -17 -176 -35 -210 -38 -14
-2 -25 -9 -25 -18 0 -20 59 -19 195 3 58 10 151 20 208 24 90 5 102 8 102 25
0 12 -7 18 -22 18 -13 0 -45 2 -73 4 -27 2 -63 2 -80 0z"/>
<path d="M16369 5081 c-17 -14 -21 -23 -14 -30 15 -16 76 9 73 29 -5 23 -32
23 -59 1z"/>
<path d="M4300 5038 c-14 -6 -79 -13 -145 -16 -97 -6 -120 -10 -120 -22 0 -32
277 -19 305 14 16 21 -9 36 -40 24z"/>
<path d="M17293 5014 c-8 -21 13 -42 28 -27 13 13 5 43 -11 43 -6 0 -13 -7
-17 -16z"/>
<path d="M2588 4989 c-10 -5 -18 -19 -18 -29 0 -22 20 -26 37 -9 20 20 67 6
77 -22 7 -21 3 -34 -26 -75 -49 -68 -71 -113 -65 -135 3 -10 -1 -23 -9 -30
-20 -16 -18 -29 17 -96 26 -50 29 -65 22 -94 -7 -24 -16 -35 -32 -37 -30 -5
-71 24 -71 48 0 26 -26 26 -40 0 -14 -26 1 -55 43 -80 71 -44 138 -13 151 70
6 37 2 53 -22 103 l-29 58 27 14 c15 8 30 12 32 9 3 -2 11 3 18 11 16 20 5 32
-33 37 l-28 3 44 67 c25 37 47 74 51 83 7 20 -19 84 -42 101 -20 16 -80 18
-104 3z"/>
<path d="M7030 4793 c-761 -57 -1339 -198 -2099 -515 -344 -143 -621 -285
-991 -506 -521 -312 -876 -614 -1079 -917 -149 -224 -210 -407 -198 -599 15
-245 169 -460 411 -571 164 -76 290 -105 596 -136 342 -34 724 -19 990 41 196
43 315 73 376 94 74 25 154 69 154 86 0 22 -23 18 -87 -15 -76 -40 -287 -96
-529 -141 -132 -24 -179 -27 -419 -31 -418 -7 -775 34 -979 113 -145 56 -237
118 -323 216 -248 285 -168 700 216 1123 215 237 482 444 889 689 456 274 816
449 1307 633 691 260 1390 393 2062 393 375 0 599 -41 840 -155 195 -92 316
-223 353 -384 23 -98 -6 -224 -83 -353 -55 -93 -195 -250 -263 -295 -51 -34
-55 -35 -72 -19 -10 9 -25 16 -34 16 -21 0 -68 -38 -68 -55 0 -25 21 -28 41
-6 24 26 37 27 46 4 4 -10 42 -63 85 -118 98 -126 133 -192 148 -281 24 -147
-32 -273 -179 -403 -233 -205 -428 -321 -585 -350 -88 -16 -115 -14 -136 11
-17 21 -18 21 -43 5 -44 -28 -51 -79 -40 -278 11 -197 25 -240 91 -281 33 -20
87 -22 162 -4 14 4 8 -2 -15 -13 -44 -22 -89 -22 -315 -2 -195 17 -310 68
-418 186 -68 74 -101 173 -84 252 9 45 23 67 84 137 176 202 172 196 155 213
-18 18 -23 14 -111 -101 -137 -177 -393 -370 -671 -505 -282 -138 -487 -210
-675 -238 -176 -27 -263 -3 -305 83 -23 47 -43 74 -57 74 -13 0 -22 -31 -11
-39 5 -3 20 -28 32 -54 68 -141 265 -152 621 -36 282 93 622 269 827 430 35
27 64 49 66 49 2 0 1 -16 -1 -35 -6 -47 13 -116 51 -194 59 -119 208 -224 362
-255 39 -8 148 -17 243 -21 l173 -6 63 31 c35 16 68 30 73 30 13 0 48 40 37
42 -33 5 -81 8 -160 8 -85 0 -93 2 -118 26 -14 15 -30 43 -35 63 -10 36 -27
381 -20 381 2 0 30 -4 63 -10 70 -11 172 6 263 44 202 85 546 360 616 493 36
69 60 183 52 248 -10 74 -73 198 -154 303 -40 51 -71 97 -69 101 2 4 42 39 89
77 104 83 160 144 224 243 90 140 130 289 106 404 -15 75 -69 181 -123 242
-147 167 -444 292 -788 331 -113 12 -498 17 -630 7z"/>
<path d="M13118 4660 c-114 -11 -175 -24 -343 -71 -226 -64 -391 -131 -737
-297 -164 -80 -224 -114 -338 -198 -45 -33 -200 -197 -200 -212 0 -7 -26 -52
-58 -100 -157 -234 -267 -455 -346 -694 -88 -269 -124 -476 -113 -663 8 -143
31 -230 90 -346 57 -109 185 -298 203 -299 30 0 16 33 -50 126 -139 194 -191
327 -203 514 -21 343 136 841 397 1255 109 174 175 259 276 355 104 98 157
130 449 268 279 133 474 209 671 261 261 70 182 67 1274 59 368 -3 613 -9 680
-17 458 -54 731 -191 1215 -609 289 -250 344 -317 404 -497 42 -128 55 -288
48 -590 -7 -265 -22 -394 -67 -562 -104 -390 -267 -653 -594 -961 -161 -152
-320 -254 -641 -412 -292 -144 -602 -265 -895 -350 -596 -172 -1368 -222
-1823 -119 -103 23 -399 125 -472 161 -27 14 -108 56 -180 93 -95 49 -137 65
-156 61 -14 -3 -35 1 -46 9 -11 8 -40 19 -65 25 -29 8 -45 17 -44 26 1 17 -46
45 -227 139 -129 66 -330 186 -450 268 -36 25 -96 60 -132 77 -37 18 -65 33
-63 35 2 2 77 -1 168 -7 318 -20 477 19 545 137 33 56 41 139 18 185 -10 19
-25 35 -33 35 -17 0 -16 -11 2 -73 12 -41 11 -47 -16 -97 -65 -124 -204 -160
-531 -136 -197 14 -272 30 -300 65 -28 35 -46 34 -43 -4 3 -39 31 -65 85 -79
28 -8 40 -16 37 -25 -3 -8 14 -22 48 -39 29 -14 103 -59 164 -100 180 -121
330 -209 487 -289 98 -49 143 -77 133 -81 -43 -17 8 -47 114 -68 33 -6 81 -25
105 -40 51 -32 61 -35 68 -16 4 12 79 -22 232 -105 195 -106 452 -197 645
-227 314 -50 821 -40 1210 24 400 66 665 141 1055 299 338 137 693 321 870
451 241 177 500 477 620 720 164 330 225 629 225 1084 -1 406 -41 565 -188
740 -61 74 -285 276 -492 446 -92 75 -311 220 -400 265 -111 55 -280 115 -410
144 -203 45 -299 51 -835 51 -275 0 -603 3 -730 7 -126 4 -269 3 -317 -2z"/>
<path d="M8004 4466 c-39 -39 -37 -58 7 -76 40 -17 50 -57 19 -82 -12 -10 -28
-18 -36 -18 -16 0 -19 -36 -4 -45 15 -9 76 21 94 46 9 13 16 35 16 50 0 30
-34 79 -56 79 -19 0 -18 10 7 36 20 22 19 44 -3 44 -5 0 -25 -15 -44 -34z"/>
<path d="M7862 4427 c-29 -31 -53 -92 -45 -114 9 -25 23 -33 61 -33 17 0 32
-3 32 -6 0 -11 -34 -33 -52 -34 -9 0 -20 -4 -23 -10 -9 -14 13 -50 32 -50 19
0 78 61 86 89 7 27 -26 51 -70 51 -18 0 -33 2 -33 5 0 11 32 70 47 87 14 16
11 38 -6 38 -4 0 -17 -10 -29 -23z"/>
<path d="M15088 4353 c-2 -4 -3 -66 -3 -137 l0 -129 -52 -31 c-68 -40 -80 -53
-66 -67 7 -7 26 -2 65 20 l55 31 6 -52 c7 -55 18 -75 37 -63 7 4 10 32 9 73
l-3 67 55 20 c45 18 54 25 54 45 0 32 -33 39 -54 12 -9 -11 -25 -23 -37 -26
-20 -6 -21 -2 -30 116 -6 81 -13 123 -21 126 -7 2 -14 0 -15 -5z"/>
<path d="M7649 4303 c-9 -10 -14 -42 -14 -90 0 -66 3 -77 24 -94 27 -22 49
-24 86 -7 31 14 36 54 5 44 -11 -3 -29 -9 -39 -12 -13 -4 -23 1 -30 15 -9 16
-7 24 14 45 29 29 30 32 10 80 -17 39 -35 45 -56 19z"/>
<path d="M13469 4298 c0 -2 -2 -39 -3 -83 -2 -44 -9 -122 -17 -173 -11 -82
-15 -93 -35 -98 -33 -8 -60 -42 -46 -56 8 -8 17 -7 36 6 14 9 27 16 30 16 2 0
7 -23 11 -51 8 -56 33 -89 66 -89 28 0 129 87 129 111 0 29 -17 23 -67 -21
-25 -22 -51 -40 -58 -40 -13 0 -25 43 -25 90 0 21 7 30 30 40 39 16 57 37 43
51 -8 8 -20 6 -43 -6 l-31 -16 5 43 c13 110 17 238 6 258 -9 16 -28 27 -31 18z"/>
<path d="M7486 4259 c-14 -17 -26 -35 -26 -40 0 -5 -11 -9 -25 -9 -18 0 -25
-5 -25 -18 0 -10 3 -22 8 -26 4 -4 7 -33 7 -64 0 -50 2 -57 20 -57 16 0 21 12
32 64 13 65 39 121 59 128 7 2 14 -26 18 -79 7 -87 17 -108 48 -108 17 0 19 5
14 28 -3 15 -9 59 -12 97 -4 39 -13 80 -20 93 -21 33 -66 29 -98 -9z"/>
<path d="M14081 4229 c-12 -19 -24 -50 -27 -69 -4 -19 -12 -46 -19 -60 -7 -16
-13 -79 -14 -167 -1 -134 0 -143 18 -143 25 0 31 26 31 140 0 52 4 100 8 106
4 6 22 15 40 19 53 11 102 60 102 101 0 43 -43 92 -87 100 -28 6 -34 3 -52
-27z m76 -31 c40 -37 23 -72 -44 -93 -20 -5 -23 -3 -23 20 0 29 25 95 36 95 4
0 18 -10 31 -22z"/>
<path d="M13807 4224 c-20 -20 -6 -35 31 -32 47 4 52 32 7 36 -17 2 -34 0 -38
-4z"/>
<path d="M15345 4180 c-3 -5 -3 -15 1 -22 4 -7 3 -8 -4 -4 -17 10 -58 -38 -66
-75 -19 -97 90 -122 144 -33 11 17 20 36 20 41 0 14 -69 103 -80 103 -5 0 -12
-4 -15 -10z m41 -114 c-14 -22 -66 -35 -66 -16 0 6 10 24 22 40 20 28 23 29
40 13 16 -14 17 -19 4 -37z"/>
<path d="M5850 4132 c-46 -41 -52 -52 -47 -74 7 -25 50 -51 78 -48 39 6 50 0
43 -22 -9 -30 -22 -38 -60 -38 -23 0 -33 5 -37 20 -7 26 -23 26 -37 0 -8 -15
-7 -26 6 -45 13 -20 24 -25 61 -25 60 0 78 12 98 64 19 49 9 85 -23 87 -45 4
-63 7 -68 12 -8 8 38 66 53 66 19 1 26 21 13 36 -18 21 -21 20 -80 -33z"/>
<path d="M5667 4144 c-10 -10 -9 -42 2 -49 16 -9 62 17 59 34 -3 17 -48 27
-61 15z"/>
<path d="M9200 4100 c0 -18 -7 -20 -60 -20 -53 0 -60 -2 -60 -20 0 -13 -7 -20
-20 -20 -13 0 -20 -7 -20 -20 0 -17 -7 -20 -40 -20 -33 0 -40 -3 -40 -20 0
-13 -7 -20 -20 -20 -13 0 -20 -7 -20 -20 0 -13 -7 -20 -20 -20 -13 0 -20 -7
-20 -20 0 -13 -7 -20 -20 -20 -13 0 -20 -7 -20 -20 0 -13 -7 -20 -20 -20 -13
0 -20 -7 -20 -20 0 -13 -7 -20 -20 -20 -17 0 -20 -7 -20 -40 0 -33 -3 -40 -20
-40 -13 0 -20 -7 -20 -20 0 -13 -7 -20 -20 -20 -18 0 -20 -7 -20 -60 0 -53 -2
-60 -20 -60 -18 0 -20 -7 -20 -60 0 -53 -2 -60 -20 -60 -19 0 -20 -7 -20 -160
0 -153 -1 -160 -20 -160 -19 0 -20 -7 -20 -120 0 -113 1 -120 20 -120 17 0 20
-7 20 -40 l0 -40 -40 0 -40 0 0 -40 c0 -33 -3 -40 -20 -40 -19 0 -20 -7 -20
-100 0 -93 1 -100 20 -100 18 0 20 -7 20 -80 0 -73 2 -80 20 -80 13 0 20 7 20
20 0 17 7 20 40 20 l40 0 0 -40 0 -40 -40 0 -40 0 0 -40 c0 -33 3 -40 20 -40
13 0 20 -7 20 -20 0 -17 7 -20 40 -20 33 0 40 -3 40 -20 0 -13 7 -20 20 -20
18 0 20 -7 20 -80 0 -73 2 -80 20 -80 17 0 20 -7 20 -40 0 -33 3 -40 20 -40
17 0 20 -7 20 -40 0 -33 3 -40 20 -40 17 0 20 -7 20 -40 0 -33 3 -40 20 -40
17 0 20 -7 20 -40 0 -33 3 -40 20 -40 17 0 20 -7 20 -40 0 -33 3 -40 20 -40
18 0 20 -7 20 -60 0 -53 2 -60 20 -60 13 0 20 -7 20 -20 0 -13 7 -20 20 -20
13 0 20 -7 20 -20 0 -13 7 -20 20 -20 13 0 20 -7 20 -20 0 -18 7 -20 60 -20
53 0 60 -2 60 -20 0 -13 7 -20 20 -20 13 0 20 -7 20 -20 0 -19 7 -20 120 -20
113 0 120 1 120 20 0 19 7 20 120 20 113 0 120 1 120 20 0 19 7 20 140 20 133
0 140 1 140 20 0 13 7 20 20 20 13 0 20 7 20 20 0 13 7 20 20 20 18 0 20 7 20
60 0 53 2 60 20 60 13 0 20 7 20 20 0 13 7 20 20 20 17 0 20 7 20 40 0 33 3
40 20 40 17 0 20 7 20 40 0 33 3 40 20 40 18 0 20 7 20 60 0 53 2 60 20 60 18
0 20 7 20 60 0 53 -2 60 -20 60 -13 0 -20 -7 -20 -20 0 -13 -7 -20 -20 -20
-18 0 -20 7 -20 60 0 53 -2 60 -20 60 -13 0 -20 -7 -20 -20 0 -13 -7 -20 -20
-20 -17 0 -20 -7 -20 -40 0 -33 3 -40 20 -40 17 0 20 -7 20 -40 l0 -40 -40 0
-40 0 0 -40 0 -40 -40 0 c-33 0 -40 -3 -40 -20 0 -18 7 -20 60 -20 53 0 60 -2
60 -20 0 -13 -7 -20 -20 -20 -13 0 -20 -7 -20 -20 0 -13 -7 -20 -20 -20 -13 0
-20 -7 -20 -20 0 -13 -7 -20 -20 -20 -13 0 -20 -7 -20 -20 0 -17 -7 -20 -40
-20 -33 0 -40 -3 -40 -20 0 -17 -7 -20 -40 -20 -33 0 -40 -3 -40 -20 0 -13 -7
-20 -20 -20 -13 0 -20 7 -20 20 0 19 -7 20 -160 20 -153 0 -160 -1 -160 -20 0
-13 -7 -20 -20 -20 -13 0 -20 7 -20 20 0 18 -7 20 -60 20 -53 0 -60 2 -60 20
0 13 -7 20 -20 20 -17 0 -20 7 -20 40 l0 40 160 0 c153 0 160 1 160 20 0 17 7
20 40 20 33 0 40 3 40 20 0 13 7 20 20 20 17 0 20 7 20 40 l0 40 -60 0 c-53 0
-60 2 -60 20 0 19 -7 20 -120 20 -113 0 -120 1 -120 20 0 19 7 20 120 20 113
0 120 1 120 20 0 19 7 20 200 20 193 0 200 1 200 20 0 13 7 20 20 20 18 0 20
7 20 60 0 53 2 60 20 60 17 0 20 7 20 40 0 33 -3 40 -20 40 -13 0 -20 7 -20
20 0 13 -7 20 -20 20 -13 0 -20 7 -20 20 0 13 -7 20 -20 20 -13 0 -20 7 -20
20 0 17 -7 20 -40 20 -33 0 -40 3 -40 20 0 17 -7 20 -40 20 -33 0 -40 3 -40
20 0 13 -7 20 -20 20 -13 0 -20 7 -20 20 0 17 7 20 40 20 l40 0 0 40 0 40 -60
0 c-53 0 -60 2 -60 20 0 13 -7 20 -20 20 -17 0 -20 -7 -20 -40 0 -33 3 -40 20
-40 18 0 20 -7 20 -60 0 -53 2 -60 20 -60 13 0 20 -7 20 -20 0 -13 7 -20 20
-20 13 0 20 -7 20 -20 0 -13 7 -20 20 -20 17 0 20 -7 20 -40 0 -33 3 -40 20
-40 17 0 20 -7 20 -40 0 -33 3 -40 20 -40 17 0 20 -7 20 -40 l0 -40 -80 0
c-73 0 -80 -2 -80 -20 0 -13 -7 -20 -20 -20 -13 0 -20 7 -20 20 0 18 -7 20
-60 20 -53 0 -60 -2 -60 -20 0 -18 -7 -20 -80 -20 l-80 0 0 40 0 40 60 0 60 0
0 40 c0 33 3 40 20 40 13 0 20 7 20 20 0 17 7 20 40 20 33 0 40 3 40 20 0 13
7 20 20 20 13 0 20 7 20 20 0 13 -7 20 -20 20 -13 0 -20 7 -20 20 0 19 -7 20
-160 20 -153 0 -160 1 -160 20 0 17 -7 20 -40 20 -33 0 -40 3 -40 20 0 13 7
20 20 20 18 0 20 7 20 60 0 53 2 60 20 60 19 0 20 7 20 100 0 93 1 100 20 100
17 0 20 7 20 40 l0 40 80 0 80 0 0 -60 c0 -53 2 -60 20 -60 13 0 20 -7 20 -20
0 -13 7 -20 20 -20 18 0 20 7 20 60 0 53 -2 60 -20 60 -17 0 -20 7 -20 40 0
33 3 40 20 40 13 0 20 -7 20 -20 0 -13 7 -20 20 -20 13 0 20 -7 20 -20 0 -13
7 -20 20 -20 13 0 20 -7 20 -20 0 -13 7 -20 20 -20 13 0 20 -7 20 -20 0 -19 7
-20 100 -20 93 0 100 1 100 20 0 17 -7 20 -40 20 l-40 0 0 40 0 40 80 0 c73 0
80 -2 80 -20 0 -17 7 -20 40 -20 l40 0 0 40 c0 33 -3 40 -20 40 -13 0 -20 7
-20 20 0 18 7 20 60 20 l60 0 0 -80 c0 -73 -2 -80 -20 -80 -17 0 -20 -7 -20
-40 0 -33 3 -40 20 -40 13 0 20 7 20 20 0 13 7 20 20 20 13 0 20 7 20 20 0 13
7 20 20 20 17 0 20 7 20 40 0 33 3 40 20 40 13 0 20 7 20 20 0 13 7 20 20 20
13 0 20 -7 20 -20 0 -13 7 -20 20 -20 19 0 20 -7 20 -100 0 -93 1 -100 20
-100 13 0 20 -7 20 -20 0 -13 7 -20 20 -20 18 0 20 7 20 60 0 53 -2 60 -20 60
-19 0 -20 7 -20 100 0 93 1 100 20 100 19 0 20 7 20 100 0 93 -1 100 -20 100
-19 0 -20 7 -20 160 0 153 -1 160 -20 160 -18 0 -20 7 -20 60 0 53 -2 60 -20
60 -17 0 -20 7 -20 40 0 33 -3 40 -20 40 -17 0 -20 7 -20 40 0 33 -3 40 -20
40 -13 0 -20 7 -20 20 0 13 -7 20 -20 20 -17 0 -20 7 -20 40 0 33 -3 40 -20
40 -13 0 -20 7 -20 20 0 13 -7 20 -20 20 -13 0 -20 7 -20 20 0 13 -7 20 -20
20 -13 0 -20 7 -20 20 0 13 -7 20 -20 20 -13 0 -20 7 -20 20 0 13 -7 20 -20
20 -13 0 -20 7 -20 20 0 17 -7 20 -40 20 -33 0 -40 3 -40 20 0 17 -7 20 -40
20 -33 0 -40 3 -40 20 0 18 -7 20 -60 20 -53 0 -60 2 -60 20 0 20 -7 20 -280
20 -273 0 -280 0 -280 -20z m520 -80 c0 -18 7 -20 60 -20 53 0 60 -2 60 -20 0
-17 7 -20 40 -20 33 0 40 -3 40 -20 0 -13 7 -20 20 -20 13 0 20 -7 20 -20 0
-13 7 -20 20 -20 13 0 20 -7 20 -20 0 -13 7 -20 20 -20 13 0 20 -7 20 -20 0
-13 7 -20 20 -20 13 0 20 -7 20 -20 0 -13 7 -20 20 -20 17 0 20 -7 20 -40 0
-33 3 -40 20 -40 13 0 20 -7 20 -20 0 -13 7 -20 20 -20 17 0 20 -7 20 -40 0
-33 3 -40 20 -40 13 0 20 -7 20 -20 0 -13 7 -20 20 -20 18 0 20 -7 20 -80 0
-73 2 -80 20 -80 17 0 20 -7 20 -40 0 -33 3 -40 20 -40 19 0 20 -7 20 -200 l0
-200 -40 0 c-33 0 -40 3 -40 20 0 18 -7 20 -60 20 -53 0 -60 2 -60 20 0 13 -7
20 -20 20 -13 0 -20 7 -20 20 0 13 -7 20 -20 20 -13 0 -20 7 -20 20 0 17 -7
20 -40 20 -33 0 -40 3 -40 20 0 19 -7 20 -140 20 -133 0 -140 -1 -140 -20 0
-17 -7 -20 -40 -20 l-40 0 0 -60 c0 -53 -2 -60 -20 -60 -13 0 -20 -7 -20 -20
0 -19 -7 -20 -100 -20 l-100 0 0 60 c0 53 -2 60 -20 60 -13 0 -20 7 -20 20 0
13 -7 20 -20 20 -13 0 -20 7 -20 20 0 19 -7 20 -100 20 -93 0 -100 -1 -100
-20 0 -19 -7 -20 -140 -20 l-140 0 0 40 c0 33 3 40 20 40 17 0 20 7 20 40 0
33 -3 40 -20 40 -13 0 -20 7 -20 20 0 13 -7 20 -20 20 -13 0 -20 7 -20 20 0
13 7 20 20 20 17 0 20 7 20 40 l0 40 -40 0 -40 0 0 60 c0 53 2 60 20 60 17 0
20 7 20 40 0 33 3 40 20 40 18 0 20 7 20 60 0 53 2 60 20 60 17 0 20 7 20 40
0 33 3 40 20 40 13 0 20 7 20 20 0 13 7 20 20 20 13 0 20 7 20 20 0 13 7 20
20 20 13 0 20 7 20 20 0 13 7 20 20 20 13 0 20 7 20 20 0 13 7 20 20 20 13 0
20 7 20 20 0 17 7 20 40 20 33 0 40 3 40 20 0 17 7 20 40 20 33 0 40 3 40 20
0 19 7 20 240 20 233 0 240 -1 240 -20z m-1000 -1060 c0 -33 -3 -40 -20 -40
-17 0 -20 7 -20 40 0 33 3 40 20 40 17 0 20 -7 20 -40z m480 -220 c0 -13 -7
-20 -20 -20 -13 0 -20 7 -20 20 0 13 7 20 20 20 13 0 20 -7 20 -20z m-360 -80
c0 -17 7 -20 40 -20 33 0 40 -3 40 -20 0 -17 7 -20 40 -20 33 0 40 3 40 20 0
19 7 20 100 20 93 0 100 1 100 20 0 17 7 20 40 20 33 0 40 -3 40 -20 0 -13 -7
-20 -20 -20 -13 0 -20 -7 -20 -20 0 -13 -7 -20 -20 -20 -13 0 -20 -7 -20 -20
0 -18 -7 -20 -80 -20 -73 0 -80 -2 -80 -20 0 -18 7 -20 60 -20 53 0 60 -2 60
-20 0 -18 -7 -20 -60 -20 -53 0 -60 -2 -60 -20 0 -13 -7 -20 -20 -20 -13 0
-20 -7 -20 -20 0 -17 7 -20 40 -20 33 0 40 3 40 20 0 17 7 20 40 20 l40 0 0
-60 0 -60 -120 0 -120 0 0 40 c0 33 -3 40 -20 40 -17 0 -20 7 -20 40 l0 40
-60 0 -60 0 0 40 0 40 -40 0 -40 0 0 40 c0 33 3 40 20 40 13 0 20 -7 20 -20 0
-13 7 -20 20 -20 13 0 20 -7 20 -20 0 -17 7 -20 40 -20 33 0 40 3 40 20 0 13
-7 20 -20 20 -17 0 -20 7 -20 40 0 33 3 40 20 40 13 0 20 -7 20 -20z m-120
-240 c0 -53 -2 -60 -20 -60 -18 0 -20 7 -20 60 0 53 2 60 20 60 18 0 20 -7 20
-60z"/>
<path d="M8880 3640 c0 -33 3 -40 20 -40 17 0 20 7 20 40 0 33 -3 40 -20 40
-17 0 -20 -7 -20 -40z"/>
<path d="M8920 2420 c0 -13 7 -20 20 -20 13 0 20 7 20 20 0 13 -7 20 -20 20
-13 0 -20 -7 -20 -20z"/>
<path d="M13787 4083 c-10 -10 -8 -78 3 -107 5 -14 16 -26 25 -26 13 0 14 10
9 58 -3 31 -7 63 -10 70 -4 13 -17 16 -27 5z"/>
<path d="M14347 4084 c-4 -4 -7 -20 -7 -35 0 -40 -10 -59 -30 -59 -27 0 -35
-19 -17 -38 14 -14 18 -14 41 1 35 23 48 51 44 94 -3 35 -17 51 -31 37z"/>
<path d="M7228 4033 c-22 -25 -44 -72 -51 -109 -5 -25 0 -37 23 -62 32 -35 64
-41 108 -18 37 19 76 62 67 75 -10 18 -25 13 -62 -19 -54 -48 -107 -35 -58 14
22 23 26 33 23 78 -3 58 -22 73 -50 41z m4 -85 c-8 -8 -9 -4 -5 13 4 13 8 18
11 10 2 -7 -1 -18 -6 -23z"/>
<path d="M7105 4028 c-20 -12 -48 -75 -39 -89 3 -6 1 -21 -6 -34 -16 -29 -1
-100 20 -100 11 0 17 17 21 62 7 71 26 123 45 123 21 0 17 37 -5 43 -10 2 -26
0 -36 -5z"/>
<path d="M5674 3987 c-6 -17 1 -105 10 -114 3 -3 12 -3 20 0 21 8 15 121 -8
125 -9 2 -19 -3 -22 -11z"/>
<path d="M6890 3880 c-29 -29 -40 -63 -40 -121 0 -42 3 -51 23 -58 25 -10 56
5 72 35 6 12 18 18 33 16 26 -4 26 -4 6 61 -28 86 -56 105 -94 67z m36 -85
c-4 -18 -14 -39 -23 -46 -15 -13 -16 -10 -11 33 6 53 30 95 36 64 2 -10 1 -33
-2 -51z"/>
<path d="M6737 3804 c-4 -4 -7 -22 -7 -39 0 -28 -3 -32 -23 -28 -20 4 -27 -3
-49 -52 l-26 -57 -10 34 c-6 18 -13 46 -16 61 -9 37 -42 34 -38 -3 5 -48 22
-98 41 -121 19 -24 19 -24 41 -4 12 11 27 33 34 49 l12 30 22 -37 c23 -40 55
-49 66 -20 4 10 4 46 0 80 -4 46 -3 63 6 63 6 0 10 10 8 23 -2 15 -11 23 -28
25 -14 2 -29 0 -33 -4z"/>
<path d="M15344 3781 c-39 -24 -77 -99 -69 -134 8 -29 30 -52 60 -61 32 -9
165 58 165 84 0 25 -10 25 -52 1 -18 -11 -51 -27 -73 -36 l-40 -17 48 48 c42
42 47 51 41 78 -12 59 -30 67 -80 37z m39 -46 c4 -9 -9 -26 -34 -45 l-39 -32
11 29 c11 30 37 63 49 63 5 0 10 -7 13 -15z"/>
<path d="M14395 3705 c-40 -61 -44 -96 -15 -125 44 -44 129 -39 173 11 40 44
22 61 -32 31 -39 -22 -67 -27 -94 -17 -10 5 -6 14 19 39 38 38 52 79 34 101
-24 29 -49 17 -85 -40z"/>
<path d="M4912 3680 c-42 -42 -65 -120 -51 -172 11 -41 33 -58 52 -39 8 8 8
14 -1 23 -15 15 -15 42 -2 88 15 50 35 73 67 74 23 1 28 6 28 26 0 21 -5 26
-31 28 -24 2 -39 -4 -62 -28z"/>
<path d="M5646 3692 c-2 -4 6 -62 19 -127 41 -213 43 -187 -20 -218 -51 -25
-68 -48 -46 -61 5 -3 30 6 56 21 38 21 49 23 55 12 5 -7 6 -17 3 -21 -7 -12
16 -38 34 -38 12 0 14 9 9 48 -7 45 -5 48 24 64 34 20 43 54 10 44 -11 -3 -28
-8 -37 -12 -16 -4 -21 12 -41 133 -13 76 -25 144 -28 151 -4 13 -30 17 -38 4z"/>
<path d="M14190 3675 c-19 -20 -24 -39 -28 -101 -4 -70 -3 -76 14 -72 14 2 21
18 30 67 8 45 18 70 34 83 25 20 21 48 -8 48 -10 0 -29 -11 -42 -25z"/>
<path d="M15118 3651 c-34 -34 -39 -45 -36 -77 4 -44 49 -87 70 -66 9 9 8 16
-5 30 -9 10 -17 28 -17 39 0 21 33 56 63 66 33 12 14 47 -25 47 -6 0 -28 -18
-50 -39z"/>
<path d="M12733 3668 c-28 -13 -58 -88 -49 -122 12 -47 68 -44 123 7 22 19 24
19 42 3 28 -26 85 -18 89 12 3 19 -1 22 -27 22 -26 0 -34 6 -49 38 -15 30 -22
37 -44 34 -15 -1 -29 2 -33 8 -8 12 -23 12 -52 -2z m67 -41 c0 -16 -63 -72
-67 -60 -8 22 24 69 46 69 12 0 21 -4 21 -9z"/>
<path d="M6367 3652 c-41 -45 -49 -123 -16 -146 19 -13 25 -13 50 -1 15 8 36
26 47 40 25 31 28 31 36 0 7 -28 49 -60 66 -50 16 10 12 33 -9 45 -11 5 -27
32 -35 58 -15 43 -21 50 -55 61 -52 15 -65 14 -84 -7z m62 -41 c11 -7 8 -14
-15 -34 -32 -28 -40 -23 -25 16 11 29 18 32 40 18z"/>
<path d="M11965 3638 c-2 -7 -9 -80 -16 -163 -9 -115 -16 -153 -28 -162 -15
-12 -14 -14 1 -27 14 -10 17 -26 15 -77 -2 -58 0 -64 18 -64 15 0 20 7 21 30
2 107 4 116 27 124 19 7 23 5 28 -21 10 -45 40 -106 55 -112 22 -9 25 11 10
61 -27 89 -28 103 -8 103 24 0 64 29 56 41 -3 5 -22 8 -41 7 l-36 -3 -19 114
c-11 62 -23 124 -28 137 -10 26 -48 33 -55 12z m49 -290 c-3 -4 -12 -8 -21 -8
-13 0 -15 9 -9 61 3 34 6 74 7 88 1 14 7 -10 14 -53 8 -44 11 -84 9 -88z"/>
<path d="M4318 3604 c-4 -3 -2 -20 3 -37 5 -18 9 -57 9 -87 0 -31 5 -94 10
-140 11 -89 29 -120 72 -120 93 0 152 154 81 210 -29 22 -49 16 -82 -26 l-20
-26 -5 24 c-3 12 -7 58 -9 100 -2 43 -10 84 -17 93 -13 15 -32 20 -42 9z m167
-234 c9 -30 -41 -99 -73 -100 -9 0 -9 9 3 38 33 78 58 100 70 62z"/>
<path d="M4653 3598 c-44 -58 -50 -194 -10 -220 32 -21 134 7 166 45 22 27
-10 32 -55 8 -49 -27 -76 -26 -92 0 -7 12 -12 22 -10 22 73 35 98 59 98 94 0
47 -72 84 -97 51z m57 -53 c0 -8 -9 -19 -20 -25 -23 -12 -24 -10 -9 24 12 26
29 26 29 1z"/>
<path d="M6017 3573 c-2 -4 -12 -43 -22 -87 l-17 -78 -19 31 c-14 23 -26 31
-48 31 -31 0 -57 -22 -46 -40 3 -5 17 -7 29 -4 19 4 28 -1 44 -28 l21 -34 -30
-94 c-36 -114 -48 -220 -29 -255 25 -47 37 -29 43 63 3 58 17 125 40 202 57
186 74 289 50 297 -6 2 -13 0 -16 -4z"/>
<path d="M14027 3563 c-3 -4 -8 -30 -12 -58 -9 -57 -21 -85 -37 -85 -7 0 -9
17 -5 50 10 85 -30 79 -44 -7 -5 -35 -3 -54 7 -70 26 -42 90 -22 113 35 22 53
2 174 -22 135z"/>
<path d="M14971 3561 c-12 -8 -13 -14 -3 -36 17 -37 15 -51 -10 -74 -28 -27
-38 -19 -38 30 0 33 -3 40 -17 37 -39 -7 -27 -103 14 -119 30 -11 62 6 89 46
27 42 -2 137 -35 116z"/>
<path d="M12285 3542 c-31 -22 -75 -93 -75 -121 0 -28 31 -71 52 -71 5 0 6 -5
3 -10 -3 -6 -17 -7 -31 -4 -28 7 -43 -18 -24 -41 20 -24 66 -18 89 11 29 37
26 55 -10 85 -39 31 -35 61 12 108 17 17 28 35 24 41 -7 12 -26 13 -40 2z"/>
<path d="M3906 3512 c-5 -8 6 -95 22 -185 l9 -47 -43 -11 c-33 -9 -44 -16 -44
-31 0 -16 5 -18 38 -12 20 3 41 7 46 8 5 0 13 -18 17 -40 14 -79 30 -124 43
-124 22 0 24 10 11 63 -8 29 -15 70 -17 91 -3 38 -2 40 55 73 31 19 57 38 57
44 0 22 -30 18 -77 -9 l-50 -30 -11 63 c-7 34 -12 74 -12 89 0 46 -28 83 -44
58z"/>
<path d="M13758 3493 c-40 -25 -42 -52 -8 -101 17 -23 30 -46 30 -51 0 -11
-46 -52 -56 -50 -23 4 -34 -3 -34 -20 0 -47 87 -30 120 23 27 45 25 66 -9 114
-31 42 -29 51 12 65 10 4 17 13 15 20 -7 19 -40 19 -70 0z"/>
<path d="M15307 3473 c-3 -5 0 -39 6 -77 6 -47 6 -97 -1 -155 -6 -50 -6 -94
-1 -108 16 -41 40 -26 67 42 16 41 20 46 26 29 8 -25 46 -47 72 -42 21 4 32
38 12 38 -7 0 -29 18 -48 41 l-35 41 -25 -20 -25 -19 -1 104 c-1 65 -6 109
-14 118 -14 16 -26 19 -33 8z"/>
<path d="M14646 3422 c-62 -65 -36 -162 43 -162 55 0 117 25 145 57 18 21 21
31 14 41 -9 10 -14 10 -27 -2 -44 -39 -146 -60 -157 -31 -10 26 15 84 39 87
30 4 28 32 -3 36 -18 2 -34 -6 -54 -26z"/>
<path d="M5533 3432 c-30 -5 -50 -29 -35 -44 14 -14 72 8 72 28 0 17 -10 21
-37 16z"/>
<path d="M14314 3338 c-38 -33 -64 -81 -64 -118 0 -11 16 -38 36 -60 37 -40
38 -60 3 -60 -25 0 -27 -45 -2 -54 22 -9 65 23 78 59 8 24 6 30 -20 54 -46 41
-56 71 -37 111 9 18 31 42 49 53 19 11 32 25 30 31 -7 22 -36 16 -73 -16z"/>
<path d="M14472 3358 c-44 -56 -57 -161 -24 -191 10 -10 32 -17 49 -17 31 0
93 36 101 57 7 23 -27 25 -54 4 -15 -12 -37 -21 -50 -21 -21 0 -24 5 -24 40 0
23 8 55 17 73 17 30 18 31 21 9 2 -13 -4 -32 -14 -43 -13 -15 -15 -22 -6 -31
19 -19 62 28 62 68 0 52 -51 85 -78 52z"/>
<path d="M13040 3347 c0 -7 -22 -58 -50 -112 -27 -54 -50 -105 -50 -112 0 -8
-4 -11 -10 -8 -5 3 -10 19 -10 34 0 61 -39 136 -60 115 -7 -7 -5 -24 5 -55 9
-24 19 -84 21 -134 6 -104 19 -147 43 -143 12 3 15 13 12 43 -8 91 -8 90 19
90 19 0 31 -13 61 -65 35 -63 69 -90 69 -55 0 23 -67 136 -92 156 l-21 16 32
69 c18 38 44 84 58 103 20 26 24 38 16 50 -13 21 -43 27 -43 8z"/>
<path d="M15119 3353 c-1 -5 0 -44 1 -88 1 -77 0 -81 -29 -109 -17 -17 -31
-35 -31 -42 0 -25 23 -27 41 -3 l19 24 0 -35 c0 -54 10 -80 30 -80 17 0 18 7
13 73 -6 72 -5 74 23 95 54 40 56 44 45 55 -7 7 -18 7 -36 -1 -36 -16 -35 -17
-35 34 0 47 -13 84 -30 84 -6 0 -10 -3 -11 -7z"/>
<path d="M4142 3300 c-10 -11 -24 -39 -31 -61 -10 -34 -10 -44 3 -64 31 -48
113 -39 141 16 22 41 19 51 -24 92 -45 42 -62 45 -89 17z m78 -85 c0 -23 -46
-41 -64 -26 -11 10 -12 19 -4 41 10 29 10 29 39 15 16 -9 29 -22 29 -30z"/>
<path d="M5314 3245 c-23 -23 -26 -33 -21 -71 5 -45 29 -84 53 -84 21 0 28 22
11 35 -23 16 -33 71 -17 90 7 8 23 15 37 15 35 0 27 34 -9 38 -19 2 -36 -5
-54 -23z"/>
<path d="M13241 3224 c-29 -36 -44 -99 -33 -132 12 -37 53 -56 107 -48 78 12
88 57 11 49 -24 -3 -51 -1 -61 4 -14 9 -10 14 28 36 57 34 67 60 36 93 -29 31
-62 31 -88 -2z m64 -35 c-4 -5 -15 -14 -27 -20 -21 -11 -20 -3 5 28 10 14 31
7 22 -8z"/>
<path d="M5485 3230 c-12 -19 4 -80 21 -80 20 0 26 19 16 54 -9 32 -26 44 -37
26z"/>
<path d="M14966 3201 c-10 -16 5 -42 23 -39 21 4 21 42 -1 46 -9 2 -19 -1 -22
-7z"/>
<path d="M5195 3190 c-3 -5 -1 -28 5 -51 10 -35 9 -44 -4 -57 -13 -13 -20 -13
-42 -3 -24 11 -26 15 -20 52 6 38 5 40 -16 37 -20 -3 -23 -10 -26 -50 -3 -41
1 -51 24 -73 37 -35 78 -33 116 5 27 28 30 35 24 72 -4 22 -11 49 -17 59 -10
20 -34 25 -44 9z"/>
<path d="M12506 3178 c-2 -7 -14 -65 -26 -128 -13 -63 -26 -121 -30 -128 -7
-14 -56 68 -97 163 -38 88 -78 65 -77 -44 1 -200 24 -351 54 -351 16 0 32 40
22 53 -5 7 -12 59 -16 117 -3 58 -9 119 -12 135 -4 20 13 -2 51 -65 84 -140
94 -141 121 -2 10 53 20 88 22 77 3 -21 21 -100 28 -124 3 -11 7 -11 19 -1 16
14 15 54 -9 220 -9 66 -16 86 -29 88 -9 2 -19 -2 -21 -10z"/>
<path d="M3375 3171 c-36 -4 -51 -11 -53 -23 -2 -12 5 -19 22 -24 22 -5 24 -9
15 -25 -5 -11 -12 -47 -16 -82 -7 -75 10 -117 60 -147 61 -38 128 -19 196 55
32 35 40 52 46 98 9 67 -9 105 -65 136 -39 22 -95 25 -205 12z m202 -76 c32
-32 34 -39 28 -72 -9 -48 -25 -71 -76 -105 -54 -36 -83 -35 -121 3 -29 29 -30
33 -25 90 7 75 26 106 69 112 80 10 89 8 125 -28z"/>
<path d="M3711 3143 c-52 -43 -31 -143 29 -143 49 0 110 29 110 52 0 22 -6 21
-66 -3 -62 -25 -88 20 -38 66 41 38 9 64 -35 28z"/>
<path d="M4897 3063 c-22 -25 -47 -87 -47 -116 0 -37 23 -50 80 -45 61 6 128
51 109 74 -10 13 -15 12 -35 -1 -24 -15 -104 -32 -104 -21 0 24 35 85 52 89
11 3 18 12 16 19 -7 21 -52 21 -71 1z"/>
<path d="M14972 3013 c2 -35 7 -48 18 -48 24 0 21 89 -3 93 -16 3 -18 -3 -15
-45z"/>
<path d="M13860 3036 c0 -7 -13 -16 -29 -19 -21 -5 -37 -18 -55 -49 -36 -62
-42 -108 -19 -137 26 -32 54 -22 94 35 31 42 33 43 46 24 16 -23 46 -26 62 -6
9 11 8 17 -7 28 -10 7 -22 30 -26 51 -11 57 -27 87 -48 87 -10 0 -18 -6 -18
-14z m0 -61 c0 -17 -44 -94 -57 -99 -11 -5 -14 -2 -9 10 3 9 9 28 12 42 8 34
22 52 40 52 8 0 14 -2 14 -5z"/>
<path d="M12715 3016 c-17 -17 -25 -36 -25 -60 0 -74 42 -112 96 -87 19 9 24
8 24 -4 0 -9 9 -15 21 -15 19 0 20 4 14 36 -9 50 -23 84 -34 84 -5 0 -19 -14
-31 -30 -25 -34 -40 -31 -40 8 0 32 9 46 33 55 24 9 17 31 -11 35 -13 2 -32
-7 -47 -22z"/>
<path d="M4722 2985 c-55 -39 -87 -148 -52 -180 34 -31 130 0 130 42 0 17 -14
17 -52 -3 -28 -14 -32 -14 -46 0 -15 15 -15 16 2 16 29 0 76 54 76 89 0 39
-28 56 -58 36z m4 -63 c-17 -16 -18 -16 -5 5 7 12 15 20 18 17 3 -2 -3 -12
-13 -22z"/>
<path d="M14830 2985 c-7 -8 -10 -26 -8 -40 4 -17 1 -25 -8 -25 -8 0 -27 -23
-42 -51 -27 -45 -30 -48 -36 -27 -3 13 -6 37 -6 54 0 69 -55 64 -102 -8 -14
-23 -24 -47 -21 -55 8 -21 33 -15 42 10 5 13 15 28 23 34 11 10 14 4 14 -27 2
-52 27 -90 60 -90 15 0 27 7 30 18 12 38 38 93 46 98 5 3 16 0 25 -7 24 -20
44 13 32 54 -5 19 -5 35 0 40 14 14 2 37 -19 37 -10 0 -23 -7 -30 -15z"/>
<path d="M4505 2877 c-44 -44 -47 -88 -8 -129 25 -26 26 -55 1 -30 -20 20 -38
14 -38 -13 0 -45 66 -58 104 -19 23 22 20 39 -14 77 -16 19 -30 41 -30 49 0
23 27 53 47 53 28 0 24 39 -5 43 -15 2 -34 -8 -57 -31z"/>
<path d="M10480 2800 c0 -33 3 -40 20 -40 17 0 20 7 20 40 0 33 -3 40 -20 40
-17 0 -20 -7 -20 -40z"/>
<path d="M4249 2762 c-30 -31 -39 -47 -39 -75 0 -36 23 -101 39 -112 17 -10
33 32 21 54 -27 52 -1 106 63 130 36 14 30 35 -12 39 -26 3 -39 -4 -72 -36z"/>
<path d="M3765 2750 c-11 -18 37 -343 53 -362 36 -43 92 -11 133 76 34 72 35
87 10 110 -26 23 -63 12 -100 -30 l-30 -33 -6 47 c-25 183 -39 226 -60 192z
m170 -222 c-8 -25 -53 -96 -67 -104 -17 -10 -19 25 -4 55 17 33 54 71 69 71 4
0 5 -10 2 -22z"/>
<path d="M13157 2730 c-24 -19 -27 -28 -26 -73 2 -65 42 -122 89 -129 49 -7
106 25 140 79 17 26 29 52 27 57 -7 22 -28 16 -44 -12 -21 -36 -78 -77 -106
-74 -12 0 -27 9 -34 18 -10 14 -9 22 8 45 27 39 23 103 -7 107 -11 2 -32 -7
-47 -18z"/>
<path d="M4036 2717 c-9 -7 -19 -30 -22 -52 -3 -22 -10 -50 -16 -61 -11 -23
-11 -22 42 -82 23 -25 53 -23 108 10 59 36 28 62 -34 29 -36 -20 -40 -20 -51
-5 -10 14 -7 23 17 51 34 38 38 73 13 95 -30 25 -39 28 -57 15z"/>
<path d="M15497 2700 c-14 -11 -28 -29 -32 -39 -3 -10 -14 -21 -24 -24 -13 -3
-20 -18 -24 -48 -4 -24 -10 -59 -13 -77 -6 -31 -4 -33 16 -30 16 2 30 22 58
86 l37 83 5 -53 c4 -43 10 -55 30 -66 29 -16 76 -3 87 24 9 24 -10 36 -39 25
-26 -10 -26 -10 -30 55 -3 43 -9 69 -19 75 -20 12 -23 12 -52 -11z"/>
<path d="M12966 2654 c-33 -32 -19 -85 30 -115 29 -18 32 -23 23 -40 -13 -26
-39 -36 -49 -19 -10 16 -40 6 -40 -14 0 -22 28 -46 54 -46 31 0 70 32 85 69
16 38 1 68 -45 87 -37 15 -44 39 -17 59 17 13 10 35 -12 35 -7 0 -21 -7 -29
-16z"/>
<path d="M14076 2637 c-18 -19 -38 -52 -45 -74 -9 -26 -19 -40 -30 -39 -17 1
-17 5 0 -124 5 -41 11 -102 12 -135 2 -47 7 -61 20 -63 11 -2 21 6 27 22 10
26 6 133 -6 182 -5 20 -4 25 5 20 22 -14 69 15 87 52 20 41 30 127 20 167 -9
37 -50 34 -90 -8z m40 -91 c-19 -65 -40 -87 -55 -57 -13 23 13 94 45 126 17
17 19 17 22 2 2 -9 -4 -41 -12 -71z"/>
<path d="M4834 2635 c-4 -9 -4 -62 -1 -116 4 -65 3 -99 -4 -99 -6 0 -25 -11
-43 -25 -18 -14 -38 -25 -43 -25 -9 0 -26 103 -28 164 0 27 -21 31 -34 8 -7
-13 -7 -39 -1 -78 18 -106 14 -131 -20 -149 -30 -16 -39 -38 -19 -51 6 -3 16
-1 22 5 19 19 26 13 32 -26 10 -61 26 -93 45 -93 22 0 30 19 19 41 -5 9 -11
41 -14 70 l-5 54 49 37 c28 21 52 34 54 30 3 -4 5 -31 5 -60 0 -98 45 -92 61
7 5 29 16 60 25 69 17 16 17 13 11 -49 -6 -55 -4 -68 10 -83 32 -31 40 -14 36
75 -1 46 -8 90 -13 97 -18 21 -55 14 -76 -15 l-20 -27 -6 84 c-3 47 -7 103 -9
124 -2 41 -22 60 -33 31z"/>
<path d="M15077 2634 c-11 -11 13 -34 35 -34 13 0 18 6 16 18 -3 17 -38 29
-51 16z"/>
<path d="M14755 2610 c-3 -5 -8 -74 -9 -153 -3 -161 13 -235 59 -274 31 -27
48 -29 65 -7 11 13 10 16 -9 21 -25 6 -47 43 -55 93 -6 33 -3 37 42 65 48 31
68 65 37 65 -10 0 -31 -12 -47 -26 -17 -14 -35 -21 -39 -17 -8 8 -13 173 -7
218 3 21 -26 33 -37 15z"/>
<path d="M13527 2573 c-3 -5 1 -55 8 -113 l12 -105 -25 -21 c-24 -22 -23 -44
3 -44 7 0 19 -21 26 -50 14 -57 35 -82 49 -61 4 8 4 28 -1 45 -5 17 -9 47 -9
67 0 31 7 43 43 73 90 77 101 91 72 103 -10 3 -30 -8 -53 -32 -67 -66 -69 -66
-77 28 -4 45 -11 90 -16 100 -10 18 -25 22 -32 10z"/>
<path d="M14357 2563 c-3 -5 -8 -27 -12 -51 -5 -31 -15 -49 -36 -64 -31 -23
-37 -43 -16 -51 20 -7 55 10 68 34 17 32 39 121 33 131 -6 10 -31 11 -37 1z"/>
<path d="M12687 2533 c-2 -4 -8 -35 -12 -68 -4 -33 -15 -85 -26 -115 -25 -73
-29 -125 -9 -125 9 0 21 24 34 68 19 69 30 82 39 47 8 -31 51 -26 81 11 14 17
26 36 26 42 0 7 9 -3 20 -20 20 -34 27 -37 54 -27 21 8 21 34 0 34 -18 0 -44
58 -44 99 0 60 -28 46 -50 -24 -13 -43 -41 -95 -50 -95 -3 0 -6 26 -6 58 -1
58 -19 112 -41 119 -6 2 -13 0 -16 -4z"/>
<path d="M15217 2529 c-39 -23 -62 -110 -35 -137 27 -27 112 0 127 41 14 38
-24 107 -58 107 -9 0 -24 -5 -34 -11z m43 -59 c8 -15 6 -21 -11 -30 -26 -15
-32 -9 -23 24 7 31 19 33 34 6z"/>
<path d="M3662 2475 c-5 -9 -7 -50 -4 -91 4 -66 3 -74 -13 -74 -26 0 -85 48
-79 64 8 21 -16 30 -34 13 -31 -32 28 -98 102 -114 l28 -6 -7 -91 c-5 -71 -3
-95 8 -110 8 -10 18 -16 24 -13 14 9 11 429 -4 434 -6 2 -16 -3 -21 -12z"/>
<path d="M13765 2426 c-17 -12 -18 -17 -7 -37 6 -13 13 -44 14 -68 2 -25 8
-46 14 -48 6 -2 33 11 60 29 40 27 49 38 49 63 0 22 -8 35 -34 52 -39 26 -69
29 -96 9z m84 -50 c8 -10 8 -16 -1 -23 -33 -25 -38 -24 -38 6 0 33 19 41 39
17z"/>
<path d="M15015 2430 c-10 -16 32 -125 51 -129 14 -2 16 3 11 31 -12 74 -45
126 -62 98z"/>
<path d="M3326 2349 c-56 -44 -93 -159 -66 -208 16 -32 62 -44 111 -31 88 24
154 69 132 91 -8 8 -19 6 -36 -6 -33 -21 -127 -46 -149 -39 -35 11 -16 96 34
151 11 12 26 19 33 17 19 -8 29 14 15 31 -17 21 -43 19 -74 -6z"/>
<path d="M4498 2227 c-20 -22 -24 -23 -34 -9 -19 26 -37 4 -31 -41 3 -22 1
-51 -4 -64 -10 -27 5 -67 23 -61 5 2 18 26 27 54 10 27 24 61 32 74 13 24 14
23 19 -32 6 -62 12 -73 33 -65 11 4 14 18 10 54 -7 76 -12 92 -33 103 -17 9
-24 7 -42 -13z"/>
<path d="M13391 2214 c-12 -15 -28 -49 -36 -77 -8 -27 -20 -56 -27 -64 -9 -11
-9 -26 0 -61 6 -26 14 -78 17 -115 6 -56 10 -68 23 -65 15 3 17 16 14 96 -3
89 -2 94 22 113 52 41 64 199 15 199 -4 0 -17 -12 -28 -26z m9 -110 c-17 -49
-24 -36 -9 17 6 24 14 38 16 32 3 -7 -1 -29 -7 -49z"/>
<path d="M14497 2178 c-29 -29 -58 -66 -65 -82 -12 -26 -11 -33 7 -57 18 -24
21 -43 21 -118 0 -65 4 -90 13 -94 30 -11 38 10 38 99 1 88 1 89 38 129 42 46
84 126 79 152 -2 13 -14 19 -41 21 -34 3 -43 -2 -90 -50z m83 -1 c0 -7 -17
-37 -37 -67 -28 -41 -38 -50 -41 -37 -6 30 6 62 34 90 29 29 44 34 44 14z"/>
<path d="M4303 2148 c-31 -35 -42 -60 -44 -109 -3 -60 8 -88 37 -95 33 -8 69
17 94 66 29 57 26 85 -15 125 -41 41 -45 42 -72 13z m57 -76 c0 -9 -9 -32 -21
-51 -16 -27 -23 -31 -30 -20 -12 19 -11 66 1 90 9 15 15 17 30 9 11 -6 20 -18
20 -28z"/>
<path d="M12892 2098 c-7 -7 -8 -17 -2 -28 5 -10 15 -62 21 -116 13 -113 22
-144 43 -144 20 0 30 18 18 33 -5 7 -15 59 -21 116 -17 141 -29 169 -59 139z"/>
<path d="M4092 2075 c-13 -16 -26 -23 -36 -19 -9 4 -24 0 -34 -8 -9 -8 -24
-18 -33 -21 -14 -5 -16 -16 -12 -74 7 -86 18 -115 41 -111 14 3 17 14 17 70 0
40 5 72 13 79 10 11 12 9 12 -5 0 -30 32 -13 45 23 18 53 35 51 35 -4 0 -77
28 -106 63 -67 21 23 22 42 2 42 -11 0 -15 11 -15 38 0 66 -63 102 -98 57z"/>
<path d="M14296 2065 c-3 -9 -6 -32 -6 -50 0 -43 -11 -49 -53 -29 -35 17 -67
14 -67 -6 0 -5 23 -20 50 -32 l51 -22 -7 -97 c-8 -117 0 -172 24 -167 13 2 18
16 19 58 3 50 21 286 26 335 3 24 -28 32 -37 10z"/>
<path d="M13112 2038 c-16 -20 -35 -95 -29 -112 10 -24 55 -19 83 9 25 25 26
25 31 5 6 -21 37 -27 48 -9 4 5 0 18 -8 27 -9 9 -20 29 -26 45 -13 35 -27 34
-45 -1 -8 -16 -22 -35 -32 -43 -15 -13 -16 -12 -9 11 4 14 14 33 22 42 16 18
10 38 -11 38 -8 0 -18 -6 -24 -12z"/>
<path d="M14114 2028 c-28 -13 -44 -49 -44 -99 0 -49 24 -109 44 -109 20 0 31
19 17 33 -6 6 -11 35 -11 64 0 49 3 55 30 71 51 29 18 66 -36 40z"/>
<path d="M10000 1900 c0 -13 7 -20 20 -20 13 0 20 7 20 20 0 13 -7 20 -20 20
-13 0 -20 -7 -20 -20z"/>
<path d="M13890 1898 c-71 -73 -63 -179 12 -162 49 10 119 44 125 60 12 32
-14 36 -76 10 -65 -26 -68 -24 -47 34 8 23 21 36 37 40 32 8 31 34 -3 38 -17
2 -34 -5 -48 -20z"/>
<path d="M13670 1818 c-11 -12 -20 -25 -20 -29 0 -5 -9 -16 -19 -26 -27 -25
-18 -113 10 -113 12 0 19 7 19 18 0 27 30 122 38 122 4 0 14 -28 22 -62 12
-51 19 -63 35 -63 13 0 19 5 16 15 -2 8 -10 41 -17 73 -19 88 -44 108 -84 65z"/>
<path d="M13444 1691 c-48 -29 -64 -59 -64 -117 0 -55 9 -64 69 -64 44 0 161
78 161 107 0 18 -35 16 -50 -3 -18 -21 -100 -68 -106 -61 -4 3 1 20 10 36 9
17 23 45 32 61 13 24 13 34 4 45 -16 19 -19 19 -56 -4z m-4 -61 c-6 -11 -13
-20 -16 -20 -2 0 0 9 6 20 6 11 13 20 16 20 2 0 0 -9 -6 -20z"/>
</g>
</svg>
