<?xml version="1.0" standalone="no"?>
<!DOCTYPE svg PUBLIC "-//W3C//DTD SVG 20010904//EN"
 "http://www.w3.org/TR/2001/REC-SVG-20010904/DTD/svg10.dtd">
<svg version="1.0" xmlns="http://www.w3.org/2000/svg"
 width="1872.000000pt" height="1344.000000pt" viewBox="0 0 1872.000000 1344.000000"
 preserveAspectRatio="xMidYMid meet">

<g transform="translate(0.000000,1344.000000) scale(0.100000,-0.100000)"
fill="#000000" stroke="none">
<path d="M3425 12961 c-69 -17 -105 -61 -105 -128 0 -40 36 -106 69 -126 16
-9 43 -33 61 -54 29 -32 32 -41 27 -82 -6 -56 -27 -74 -105 -91 -48 -10 -71
-10 -111 0 -72 17 -80 31 -45 81 16 22 33 46 39 54 6 10 6 18 -3 27 -9 9 -20
4 -51 -26 -79 -77 -80 -134 -3 -169 89 -41 256 -19 302 40 24 31 34 81 25 131
-5 29 -22 52 -74 102 -73 70 -86 93 -76 140 8 35 27 47 80 52 30 2 40 -1 41
-12 0 -8 2 -19 4 -25 1 -5 3 -32 4 -59 1 -51 10 -62 36 -46 10 6 16 32 18 82
3 61 1 76 -15 90 -22 20 -78 29 -118 19z"/>
<path d="M10349 12938 c-1 -2 -3 -12 -4 -23 -11 -89 -43 -211 -84 -325 -56
-155 -65 -189 -52 -209 14 -22 37 -6 45 30 3 17 21 75 40 128 32 89 41 123 80
304 16 71 13 97 -10 97 -8 0 -15 -1 -15 -2z"/>
<path d="M12039 12938 c-1 -2 -3 -14 -4 -28 -7 -67 -26 -191 -36 -237 l-12
-52 -61 -3 c-46 -2 -61 -7 -61 -18 0 -11 14 -16 56 -18 l56 -3 -14 -62 c-8
-34 -23 -80 -34 -101 -15 -29 -17 -42 -9 -50 9 -8 18 -3 36 19 13 17 24 35 24
40 0 6 7 23 15 39 8 16 18 46 21 67 8 47 15 54 81 66 l52 10 -26 -66 c-50
-130 -57 -161 -40 -179 14 -14 22 -9 81 46 36 34 75 66 87 72 18 10 20 9 16
-7 -18 -61 -18 -83 -2 -89 22 -9 24 -5 37 64 9 48 9 64 -2 76 -18 22 -21 21
-93 -28 -52 -34 -63 -39 -56 -22 51 123 132 338 140 374 5 25 18 51 27 58 22
16 4 37 -29 32 -19 -2 -24 -13 -35 -63 -6 -33 -26 -97 -44 -141 l-31 -80 -75
-16 -76 -16 6 22 c9 31 39 226 40 261 1 21 -4 31 -16 33 -10 2 -19 2 -19 0z"/>
<path d="M17535 12880 c-3 -5 -3 -14 0 -20 3 -5 -10 -26 -29 -45 -39 -39 -54
-79 -39 -103 7 -12 -4 -28 -49 -71 -70 -67 -83 -109 -48 -153 59 -75 233 -49
290 44 26 43 25 78 -4 120 l-23 35 23 22 c53 51 37 113 -42 158 -42 24 -69 29
-79 13z m105 -81 c12 -22 -2 -63 -27 -77 -12 -7 -26 -6 -47 5 -23 12 -34 13
-48 4 -26 -16 -24 9 3 43 17 21 24 24 35 15 16 -13 44 4 44 27 0 18 28 7 40
-17z m-104 -160 c-1 -32 21 -34 37 -3 l14 26 21 -27 c26 -33 27 -53 6 -83 -47
-68 -203 -79 -212 -16 -2 15 14 36 53 73 61 55 82 63 81 30z"/>
<path d="M10773 12862 c-7 -5 -43 -84 -79 -178 -89 -226 -106 -273 -102 -293
7 -34 31 -14 47 39 22 70 36 96 45 82 4 -7 19 -9 35 -6 69 14 141 -39 141
-102 0 -27 4 -34 20 -34 16 0 20 7 20 38 0 52 -33 101 -80 119 -22 9 -40 20
-40 24 0 4 26 23 58 43 31 19 67 42 80 51 24 17 30 45 9 45 -12 0 -164 -97
-219 -140 -16 -12 -28 -20 -28 -18 0 2 18 50 41 108 22 58 44 118 49 134 5 16
16 39 25 53 22 33 8 54 -22 35z"/>
<path d="M2273 12848 c-6 -7 -37 -65 -68 -128 -32 -63 -64 -119 -71 -123 -8
-4 -14 -15 -14 -24 0 -30 -55 -125 -77 -134 -40 -15 -22 -46 20 -35 14 3 39
33 67 80 41 68 72 96 109 96 3 0 6 -48 6 -107 0 -104 1 -108 23 -111 22 -3 22
-1 22 97 0 128 7 146 59 155 43 7 60 21 43 38 -7 7 -23 8 -49 1 l-39 -10 8 64
c12 89 7 147 -13 151 -9 2 -21 -3 -26 -10z m-13 -168 c0 -27 -35 -78 -46 -67
-5 4 37 97 43 97 2 0 3 -13 3 -30z"/>
<path d="M9126 12848 c-2 -7 -11 -42 -20 -76 -9 -35 -28 -86 -41 -112 -33 -66
-65 -184 -65 -243 0 -41 3 -48 18 -45 12 2 18 14 20 38 1 19 5 50 8 68 5 32 5
32 34 17 18 -9 53 -15 88 -14 80 2 99 -6 122 -52 21 -40 50 -53 50 -21 0 25
-35 78 -64 97 -17 12 -46 17 -92 16 -37 0 -65 1 -63 3 14 13 104 79 157 114
60 42 80 72 45 72 -10 0 -52 -25 -93 -55 -142 -104 -161 -117 -165 -113 -2 2
8 30 21 63 14 33 35 87 46 120 10 33 26 73 34 88 8 16 12 33 8 38 -8 13 -44
11 -48 -3z"/>
<path d="M8446 12838 c-2 -7 -7 -24 -10 -38 -3 -14 -28 -63 -55 -108 -94 -157
-126 -261 -101 -327 16 -41 40 -15 40 44 0 28 12 73 30 116 17 38 30 73 30 78
0 5 22 48 49 96 55 94 67 143 38 149 -9 2 -19 -2 -21 -10z"/>
<path d="M17040 12778 c-12 -29 -24 -47 -27 -40 -7 18 -54 15 -89 -7 -22 -13
-35 -33 -47 -71 -21 -66 -21 -87 1 -131 17 -34 17 -35 -5 -74 -13 -22 -23 -53
-23 -68 0 -46 30 -29 62 34 27 53 31 57 73 63 60 8 123 41 137 72 15 31 -3 87
-40 126 l-25 27 21 52 c12 28 19 55 16 60 -13 21 -33 5 -54 -43z m-52 -80 c7
-9 -1 -34 -28 -88 -36 -71 -38 -73 -44 -45 -7 33 5 85 29 121 17 27 28 30 43
12z m77 -78 c8 -16 15 -36 15 -44 0 -16 -37 -39 -82 -50 l-27 -6 32 65 c18 36
35 65 39 65 4 0 14 -13 23 -30z"/>
<path d="M5157 12812 c-8 -12 -48 -237 -54 -303 -6 -60 7 -99 32 -99 8 0 15 3
15 8 0 4 3 52 5 107 2 55 11 136 20 180 9 44 17 87 18 95 2 16 -28 26 -36 12z"/>
<path d="M15434 12788 c-8 -27 -16 -34 -44 -39 -80 -13 -126 -70 -117 -146 2
-25 12 -52 20 -60 14 -14 12 -20 -14 -63 -16 -26 -29 -54 -29 -63 0 -8 -7 -17
-15 -21 -14 -5 -21 -37 -10 -48 12 -12 55 5 55 22 0 9 15 43 33 74 27 48 35
55 56 51 38 -9 111 6 138 29 51 44 38 154 -23 186 -28 15 -30 36 -8 68 17 25
11 42 -15 42 -12 0 -21 -11 -27 -32z m-44 -103 c0 -2 -12 -29 -27 -60 -18 -36
-30 -50 -35 -42 -22 34 8 107 43 107 11 0 19 -2 19 -5z m77 -27 c24 -23 30
-57 13 -88 -11 -20 -87 -38 -100 -24 -7 9 46 134 58 134 3 0 16 -10 29 -22z"/>
<path d="M16715 12807 c-52 -18 -102 -55 -119 -88 -9 -18 -12 -37 -8 -41 12
-12 42 1 42 18 0 8 27 27 60 44 53 27 60 28 60 12 0 -33 -72 -122 -99 -122
-22 0 -131 -88 -131 -106 0 -25 30 -28 72 -5 49 26 48 26 48 -2 0 -46 34 -62
123 -60 53 1 82 6 88 14 14 23 0 28 -69 27 -38 -1 -74 2 -80 6 -22 14 -14 75
14 104 46 48 84 115 84 148 0 47 -34 68 -85 51z"/>
<path d="M16278 12799 c-2 -6 -41 -13 -87 -16 -69 -5 -88 -10 -109 -30 -14
-12 -30 -23 -37 -23 -7 0 -20 -9 -29 -19 -22 -25 -15 -48 30 -102 38 -46 43
-73 15 -89 -28 -14 -47 -13 -66 6 -19 20 -45 11 -45 -14 0 -26 17 -39 60 -47
44 -8 84 7 105 38 21 32 7 99 -29 136 -14 15 -26 32 -26 37 0 6 21 21 48 34
53 26 47 25 125 34 57 7 87 25 87 52 0 16 -37 19 -42 3z"/>
<path d="M17280 12785 c-9 -11 -10 -18 -1 -29 9 -11 -2 -40 -50 -136 -62 -123
-76 -183 -48 -201 19 -12 38 8 37 39 -1 15 18 65 42 111 69 138 90 231 51 231
-10 0 -24 -7 -31 -15z"/>
<path d="M15163 12773 c-3 -10 -11 -25 -18 -33 -17 -22 -44 -127 -47 -185 -3
-40 0 -50 15 -53 19 -4 18 -9 46 118 12 52 27 105 33 117 12 24 5 53 -12 53
-6 0 -13 -8 -17 -17z"/>
<path d="M3845 12739 c-22 -5 -61 -9 -87 -9 -26 -1 -50 -6 -54 -11 -11 -19 13
-31 61 -31 l47 0 -36 -24 c-61 -42 -45 -74 46 -89 68 -11 55 -62 -30 -116 -53
-34 -88 -39 -77 -11 17 41 17 52 1 52 -29 0 -68 -47 -60 -73 11 -36 25 -47 61
-47 72 0 177 76 186 137 7 44 -23 103 -53 103 -36 0 -28 16 26 50 30 19 54 40
54 47 0 11 -33 35 -42 32 -2 -1 -21 -5 -43 -10z"/>
<path d="M5420 12725 c0 -20 4 -26 18 -23 9 2 17 12 17 23 0 11 -8 21 -17 23
-14 3 -18 -3 -18 -23z"/>
<path d="M10523 12704 c-3 -8 -1 -20 6 -27 14 -14 47 15 37 32 -10 16 -36 13
-43 -5z"/>
<path d="M15839 12718 c0 -2 -2 -24 -4 -50 -2 -25 -16 -74 -30 -108 -31 -75
-31 -135 0 -135 16 0 21 9 26 40 4 22 16 78 28 124 25 93 24 124 -1 129 -10 2
-18 2 -19 0z"/>
<path d="M12564 12689 c-3 -6 3 -21 15 -32 16 -16 23 -19 33 -9 9 9 7 16 -7
32 -20 23 -31 25 -41 9z"/>
<path d="M4622 12635 c-17 -14 -34 -25 -40 -25 -5 0 -15 -15 -22 -32 -7 -18
-16 -42 -21 -53 -13 -32 -39 -169 -46 -249 -4 -54 -2 -75 7 -81 21 -13 34 16
54 123 l19 101 48 -6 c43 -5 50 -3 73 22 14 15 37 48 51 73 38 68 33 112 -16
137 -41 22 -73 18 -107 -10z m96 -27 c21 -21 13 -55 -21 -100 -44 -57 -78 -63
-93 -14 -12 39 -6 55 34 99 27 29 60 35 80 15z"/>
<path d="M6795 12650 c-4 -6 -2 -17 4 -24 15 -18 0 -95 -28 -142 -24 -41 -22
-64 7 -64 12 0 24 12 33 31 15 37 85 129 99 129 5 0 5 -13 -1 -32 -21 -75 18
-90 71 -28 l35 41 -3 -56 c-3 -44 0 -61 14 -76 23 -25 59 -21 59 6 0 14 -6 19
-17 17 -15 -2 -18 5 -18 40 0 24 5 60 9 82 19 79 -10 87 -68 19 l-41 -48 6 37
c9 50 -18 65 -69 39 l-36 -18 -3 26 c-3 28 -40 42 -53 21z"/>
<path d="M2519 12590 l-48 -51 -3 38 c-2 31 -7 39 -27 41 -34 5 -51 -16 -27
-33 15 -12 17 -21 11 -52 -24 -124 0 -132 85 -28 35 41 65 73 67 71 3 -3 0
-28 -6 -56 -15 -71 1 -130 35 -130 11 0 14 13 13 53 -1 28 2 78 6 109 14 102
-31 118 -106 38z"/>
<path d="M5657 12625 c-49 -17 -64 -30 -77 -70 -13 -39 6 -87 41 -106 58 -31
129 -32 129 -3 0 8 5 14 10 14 6 0 10 7 10 15 0 10 -10 15 -30 15 -16 0 -30
-4 -30 -9 0 -15 -63 7 -77 26 -17 23 -17 28 10 58 13 15 34 27 51 28 35 3 45
22 19 35 -12 7 -30 6 -56 -3z"/>
<path d="M12822 12612 c-45 -22 -52 -57 -18 -89 34 -31 30 -55 -12 -67 -27 -8
-38 -5 -63 13 -53 40 -81 6 -33 -40 20 -19 37 -24 74 -24 91 0 138 68 91 133
l-20 29 34 16 c43 20 47 47 8 46 -16 0 -43 -8 -61 -17z"/>
<path d="M4870 12548 c-13 -60 -13 -62 10 -80 26 -21 69 -23 95 -4 38 27 11
116 -41 136 -43 17 -49 12 -64 -52z m70 -17 c16 -31 12 -41 -15 -41 -25 0 -31
13 -19 44 8 21 21 20 34 -3z"/>
<path d="M5345 12590 c-4 -6 -2 -17 5 -25 6 -8 9 -27 5 -47 -8 -42 15 -79 37
-61 10 9 14 32 12 75 -1 60 -2 63 -27 66 -14 2 -28 -2 -32 -8z"/>
<path d="M7633 12561 c-16 -21 -36 -54 -46 -72 -17 -30 -19 -31 -35 -16 -9 10
-24 36 -33 60 -18 44 -49 63 -49 29 0 -29 26 -85 55 -120 24 -29 24 -30 7 -53
-24 -33 -85 -135 -112 -189 -13 -25 -30 -50 -38 -56 -21 -16 -11 -49 16 -50
19 -1 30 11 59 70 19 39 44 83 54 97 10 15 45 78 77 140 32 63 68 128 81 146
22 29 22 53 0 53 -5 0 -21 -18 -36 -39z"/>
<path d="M6051 12529 l-38 -60 -45 51 c-34 39 -51 51 -68 48 -32 -4 -37 -26
-8 -37 13 -5 40 -30 61 -56 l39 -46 -61 -92 c-68 -105 -98 -167 -103 -217 -2
-24 1 -35 12 -37 14 -3 19 5 53 89 9 20 31 60 49 90 19 29 44 74 56 99 12 25
47 83 77 129 30 45 52 87 49 91 -13 22 -37 4 -73 -52z"/>
<path d="M7263 12575 c-30 -21 -63 -77 -63 -107 0 -16 9 -29 24 -38 22 -11 31
-10 76 14 52 27 55 27 62 -19 2 -11 12 -21 22 -23 17 -4 18 1 11 64 -5 54 -13
74 -33 96 -30 31 -66 36 -99 13z m63 -53 c-9 -15 -76 -53 -76 -43 0 5 14 24
30 41 22 24 34 30 42 22 5 -5 8 -15 4 -20z"/>
<path d="M11026 12575 c-34 -26 -56 -69 -56 -110 0 -48 20 -80 55 -89 43 -11
158 26 185 59 22 26 -12 28 -89 5 -80 -25 -128 -20 -76 7 50 26 65 44 65 79 0
55 -43 80 -84 49z m44 -44 c0 -11 -10 -27 -22 -35 -42 -30 -51 -15 -17 28 24
31 39 33 39 7z"/>
<path d="M10443 12568 c-6 -7 -17 -34 -26 -60 -12 -38 -13 -50 -3 -64 14 -18
40 -11 33 9 -2 7 4 34 15 60 17 46 17 67 -1 67 -5 0 -13 -6 -18 -12z"/>
<path d="M8531 12517 c-25 -52 -27 -85 -5 -94 21 -8 118 25 150 50 29 23 30
37 4 65 -16 17 -32 22 -74 22 -54 0 -54 0 -75 -43z m123 -4 c4 -4 -16 -18 -45
-30 -29 -13 -54 -21 -57 -18 -3 2 6 16 19 30 23 23 67 33 83 18z"/>
<path d="M8760 12523 c-33 -29 -40 -42 -38 -66 7 -72 110 -88 149 -24 20 33
17 65 -7 105 -21 33 -57 28 -104 -15z m72 -48 c3 -27 0 -30 -27 -30 -39 0 -47
35 -13 59 26 19 35 12 40 -29z"/>
<path d="M12460 12489 c-26 -49 -23 -84 5 -84 15 0 19 6 17 22 -2 12 4 33 14
47 16 26 13 56 -5 56 -6 0 -20 -18 -31 -41z"/>
<path d="M15600 12500 c-33 -8 -32 -34 1 -38 31 -4 56 20 37 35 -7 5 -24 7
-38 3z"/>
<path d="M16250 12484 c-15 -38 0 -49 39 -29 39 20 38 49 -2 53 -22 3 -29 -2
-37 -24z"/>
<path d="M7156 12318 c-2 -7 -9 -35 -15 -63 -7 -27 -39 -98 -72 -156 -63 -112
-74 -160 -41 -178 22 -12 57 4 114 50 31 25 38 27 36 12 -3 -41 3 -63 24 -83
12 -11 28 -20 35 -20 16 0 17 36 2 45 -6 5 -9 33 -7 74 3 61 1 66 -18 69 -12
2 -45 -15 -81 -43 -34 -25 -64 -45 -68 -45 -3 0 7 24 23 53 50 87 103 226 100
260 -3 31 -25 49 -32 25z"/>
<path d="M10445 12317 c-10 -8 -15 -19 -11 -26 9 -13 -37 -77 -156 -218 -105
-124 -174 -231 -182 -284 -10 -63 24 -84 37 -22 7 36 133 230 196 303 26 30
78 95 115 144 63 83 67 91 50 103 -22 16 -26 16 -49 0z"/>
<path d="M8075 12300 c-9 -15 4 -30 26 -30 29 0 24 -26 -23 -117 -34 -65 -48
-83 -67 -85 -30 -4 -40 -28 -15 -34 16 -4 19 -15 19 -75 0 -61 3 -73 23 -89
17 -14 29 -16 50 -10 49 15 62 22 62 35 0 22 -16 26 -45 13 -32 -15 -45 0 -45
52 0 74 5 79 78 82 54 2 67 6 70 21 3 14 -5 17 -52 17 -31 0 -56 2 -56 4 0 2
14 33 30 69 32 70 37 106 20 138 -11 20 -64 27 -75 9z"/>
<path d="M15631 12240 c-10 -17 -29 -58 -42 -90 -21 -52 -27 -60 -59 -67 -40
-10 -48 -36 -12 -41 17 -3 22 -8 17 -20 -4 -9 -12 -40 -18 -69 -20 -95 17
-127 122 -105 59 13 92 35 75 52 -6 6 -27 4 -59 -6 -64 -19 -95 -12 -95 21 0
27 27 115 40 129 5 5 57 11 117 15 87 5 108 9 108 21 0 12 -18 15 -103 15 -56
0 -102 1 -102 1 0 1 14 34 30 72 17 39 30 78 30 86 0 27 -29 18 -49 -14z"/>
<path d="M10762 12234 c-91 -45 -163 -144 -162 -224 1 -76 101 -141 182 -119
50 13 118 73 118 104 0 18 6 24 28 27 16 2 27 9 27 18 0 22 -93 25 -140 6 -38
-16 -44 -43 -9 -39 10 1 25 0 33 -3 21 -7 -23 -51 -65 -64 -29 -10 -39 -8 -74
11 -45 25 -55 46 -46 94 7 37 68 111 114 138 29 16 30 16 25 -2 -3 -12 4 -28
18 -42 l22 -22 20 24 c29 35 10 119 -27 119 -7 0 -35 -12 -64 -26z"/>
<path d="M11060 12245 c-10 -12 -10 -18 0 -30 10 -12 7 -36 -15 -125 -28 -117
-30 -175 -5 -175 11 0 17 17 22 59 4 32 9 60 10 62 2 1 50 4 106 7 57 3 107 9
110 12 13 13 -41 47 -62 39 -12 -4 -47 -9 -78 -11 -64 -5 -64 -6 -47 62 l11
43 76 7 c108 9 106 8 110 29 4 18 -1 19 -86 13 -72 -4 -93 -3 -103 9 -15 18
-33 18 -49 -1z"/>
<path d="M11693 12245 c-69 -8 -135 -10 -175 -5 -70 8 -96 -2 -64 -26 19 -13
68 -19 144 -17 37 0 37 1 23 -157 -8 -94 -2 -135 20 -135 10 0 14 12 15 40 1
22 4 88 8 147 l8 107 46 6 c117 15 137 20 140 38 4 20 -4 20 -165 2z"/>
<path d="M9072 12223 c3 -15 18 -19 90 -25 124 -9 134 -18 58 -51 -76 -34 -82
-33 -78 1 2 21 -1 27 -17 27 -14 0 -21 -8 -23 -27 -4 -32 -8 -34 -28 -13 -22
21 -33 19 -46 -11 -11 -22 -10 -28 7 -40 10 -8 28 -14 38 -14 18 0 19 -5 14
-60 -4 -52 -3 -60 14 -65 31 -10 39 3 39 66 0 50 3 59 18 59 10 0 50 16 89 34
57 28 74 41 79 62 5 20 2 31 -11 40 -25 19 -107 34 -181 34 -57 0 -65 -2 -62
-17z"/>
<path d="M13665 12230 c-8 -13 13 -40 30 -40 15 0 28 27 19 41 -7 12 -41 11
-49 -1z"/>
<path d="M14326 12223 c-10 -11 -7 -51 6 -59 10 -7 38 20 38 38 0 11 -36 28
-44 21z"/>
<path d="M9393 12208 c-17 -22 -33 -104 -33 -166 0 -81 20 -105 84 -105 39 0
52 5 82 34 62 60 84 125 64 197 -8 30 -16 42 -30 42 -24 0 -29 -17 -18 -58 13
-46 2 -87 -34 -128 -41 -47 -63 -57 -88 -44 -16 9 -20 21 -20 68 0 31 7 79 15
106 14 47 13 66 -4 66 -5 0 -13 -6 -18 -12z"/>
<path d="M9769 12210 c-9 -5 -45 -13 -80 -17 -47 -6 -64 -12 -64 -23 0 -17 64
-21 122 -8 l32 7 -6 -68 c-8 -92 2 -141 27 -141 17 0 19 5 14 44 -4 25 -3 75
1 112 l7 67 74 -6 c67 -5 74 -4 74 13 0 10 -10 20 -22 24 -35 9 -161 6 -179
-4z"/>
<path d="M6684 12189 c-3 -6 3 -20 14 -32 17 -17 24 -18 36 -8 12 10 13 18 5
32 -11 21 -44 26 -55 8z"/>
<path d="M12440 12154 c-22 -20 -48 -50 -57 -65 -10 -16 -23 -29 -29 -29 -19
0 -39 -29 -27 -41 6 -6 3 -29 -10 -67 -23 -70 -49 -201 -41 -213 3 -5 14 -9
24 -9 22 0 24 8 49 135 15 75 17 80 41 78 74 -5 119 40 134 133 8 44 -13 114
-33 114 -6 0 -29 -16 -51 -36z m46 -68 c-11 -68 -51 -108 -87 -85 -16 10 4 57
46 107 34 40 49 32 41 -22z"/>
<path d="M12678 12150 c-14 -11 -33 -38 -42 -60 -15 -37 -15 -44 -1 -70 19
-37 43 -50 95 -50 46 0 80 14 80 34 0 9 -17 13 -61 12 -70 -1 -87 14 -39 34
30 12 70 53 70 71 0 16 -40 49 -59 49 -10 0 -30 -9 -43 -20z m48 -45 c-26 -19
-42 -19 -26 0 7 8 20 15 29 15 13 -1 13 -3 -3 -15z"/>
<path d="M12931 12123 c-31 -27 -76 -128 -65 -144 13 -22 35 -5 55 40 26 62
44 79 89 83 27 2 35 7 35 23 0 16 -8 21 -42 23 -34 3 -47 -2 -72 -25z"/>
<path d="M13217 12112 c-17 -18 -36 -28 -46 -25 -24 6 -89 -123 -72 -140 9 -9
29 6 82 63 57 60 69 70 65 49 -10 -45 13 -51 71 -20 28 16 49 23 47 16 -3 -7
0 -31 6 -54 8 -31 16 -41 31 -41 18 0 20 4 13 28 -4 15 -7 51 -5 80 2 64 -13
75 -61 39 -54 -40 -56 -40 -54 -4 1 27 -3 32 -24 35 -18 2 -34 -6 -53 -26z"/>
<path d="M14016 12119 c-30 -23 -33 -45 -10 -77 14 -21 14 -25 0 -48 -13 -19
-20 -22 -35 -14 -26 13 -49 -13 -31 -35 34 -41 78 -26 105 36 18 39 18 43 3
70 -16 27 -16 29 9 47 15 11 23 24 19 30 -11 18 -30 15 -60 -9z"/>
<path d="M13825 12115 c-39 -14 -65 -38 -65 -59 0 -6 7 -24 15 -40 15 -29 20
-56 9 -56 -3 0 -17 9 -31 20 -28 22 -43 18 -43 -10 0 -22 45 -60 71 -60 49 0
74 67 45 120 -12 21 -12 26 3 37 9 7 24 13 33 13 24 0 33 19 17 35 -12 11 -21
11 -54 0z"/>
<path d="M14738 12091 c-25 -16 -49 -34 -53 -41 -5 -8 -10 -8 -20 0 -20 17
-35 3 -35 -30 0 -16 -4 -32 -10 -35 -15 -9 -12 -35 5 -42 10 -3 36 14 73 49
31 30 67 60 79 66 l22 12 -24 -52 c-14 -29 -25 -60 -25 -68 0 -22 20 -40 46
-40 26 0 39 26 19 37 -12 7 -10 17 10 62 38 81 31 111 -24 111 -9 0 -38 -13
-63 -29z"/>
<path d="M6490 12085 c-5 -14 -10 -32 -10 -38 0 -29 -22 -86 -35 -90 -7 -3
-29 6 -48 22 -33 25 -34 29 -21 52 26 47 13 70 -39 69 -27 -1 -51 -15 -103
-57 -37 -32 -38 -34 -21 -50 18 -17 19 -17 40 9 12 15 34 31 49 37 l27 10 -31
-49 c-17 -27 -28 -56 -25 -65 9 -21 40 -19 55 5 12 20 42 28 42 11 0 -15 65
-40 89 -34 48 13 101 182 59 191 -12 2 -21 -6 -28 -23z"/>
<path d="M6830 12087 c-60 -32 -63 -56 -10 -90 53 -36 54 -62 3 -54 -21 3 -49
9 -61 13 -21 6 -23 4 -20 -17 4 -30 41 -49 95 -49 32 0 45 5 53 19 18 34 11
69 -21 105 l-31 36 24 9 c12 5 31 12 41 15 10 3 17 12 15 19 -7 21 -41 19 -88
-6z"/>
<path d="M13590 12078 c-27 -44 -44 -103 -36 -123 9 -24 30 -13 37 21 3 16 16
48 28 72 33 64 8 89 -29 30z"/>
<path d="M2219 12090 c-9 -5 -29 -28 -45 -52 -16 -24 -34 -47 -41 -51 -8 -5
-10 -19 -6 -40 16 -86 62 -116 149 -97 62 13 154 59 154 76 0 26 -22 25 -68
-2 -74 -44 -181 -39 -182 9 0 4 12 7 26 7 30 0 60 14 92 43 55 51 -14 145 -79
107z m46 -65 c0 -20 -49 -54 -60 -43 -9 9 37 69 50 65 5 -2 10 -12 10 -22z"/>
<path d="M3515 12070 c-3 -5 4 -22 15 -38 12 -16 27 -46 35 -68 8 -23 20 -38
28 -38 10 1 0 -21 -28 -65 -56 -87 -85 -145 -85 -171 0 -38 28 -20 53 34 14
29 42 80 63 112 105 164 135 217 125 227 -14 14 -36 -6 -68 -60 -28 -49 -42
-51 -56 -7 -21 62 -64 102 -82 74z"/>
<path d="M2678 12063 c-15 -2 -41 -20 -58 -40 -28 -32 -30 -37 -17 -56 20 -30
44 -33 77 -9 l27 21 7 -61 c12 -123 13 -122 -49 -143 -32 -10 -61 -28 -70 -41
-42 -64 16 -224 81 -224 71 0 114 158 94 343 -6 56 -14 128 -17 160 -6 62 -5
61 -75 50z m46 -355 c-26 -156 -51 -183 -83 -89 -19 57 -14 79 22 101 49 31
68 27 61 -12z"/>
<path d="M4166 12058 c-3 -7 -7 -34 -11 -61 -6 -44 -34 -87 -57 -87 -15 0 -39
70 -36 103 3 28 0 32 -22 32 -23 0 -25 -3 -22 -40 5 -56 26 -101 57 -121 33
-22 62 -10 101 42 22 29 28 47 29 87 0 41 -4 52 -18 55 -9 2 -19 -2 -21 -10z"/>
<path d="M6626 12061 c-3 -5 -9 -40 -12 -78 -6 -60 -4 -71 10 -76 10 -4 18 -1
20 6 8 29 21 136 18 146 -4 13 -29 15 -36 2z"/>
<path d="M8328 12059 c-24 -13 -68 -90 -68 -117 0 -31 35 -62 70 -62 46 0 110
62 110 107 0 61 -63 101 -112 72z m60 -63 c5 -22 -35 -66 -60 -66 -22 0 -23
12 -3 50 22 42 57 51 63 16z"/>
<path d="M14185 12015 c-24 -54 -24 -85 -1 -85 18 0 35 21 29 35 -2 7 3 28 12
45 17 32 14 60 -5 60 -6 0 -22 -25 -35 -55z"/>
<path d="M3781 12016 c-37 -60 -43 -86 -25 -114 14 -22 21 -24 67 -19 41 4 56
10 80 37 23 26 27 37 22 63 -9 44 -38 66 -85 65 -34 0 -43 -5 -59 -32z m97
-28 c17 -15 15 -24 -10 -48 -26 -24 -78 -27 -78 -5 0 9 7 29 16 46 12 24 19
29 37 23 12 -3 28 -11 35 -16z"/>
<path d="M14425 12026 c-74 -41 -86 -111 -24 -136 26 -11 37 -10 77 6 28 12
53 31 62 47 14 25 13 30 -5 65 -24 45 -53 50 -110 18z m65 -30 c0 -2 3 -12 6
-20 8 -22 -63 -53 -80 -36 -8 8 -4 18 17 36 24 21 57 32 57 20z"/>
<path d="M15865 11974 c-28 -43 -31 -96 -6 -118 47 -42 151 15 151 83 0 37
-14 47 -76 55 -48 6 -53 5 -69 -20z m99 -33 c11 -17 -5 -39 -35 -52 -37 -15
-54 -2 -45 35 5 22 12 26 41 26 18 0 36 -4 39 -9z"/>
<path d="M2902 11958 c-20 -20 -14 -40 11 -36 14 2 22 10 22 22 0 24 -16 31
-33 14z"/>
<path d="M11112 11926 c-60 -15 -82 -30 -66 -46 7 -7 31 -5 75 6 60 15 89 16
214 1 28 -3 31 29 3 37 -51 14 -175 15 -226 2z"/>
<path d="M2445 11921 c-10 -17 4 -31 31 -31 19 0 25 5 22 18 -4 19 -43 29 -53
13z"/>
<path d="M1904 11859 c-9 -15 -43 -191 -50 -265 l-7 -62 -61 -12 c-83 -16 -88
-18 -83 -33 4 -13 53 -16 105 -5 31 7 32 7 32 -28 0 -20 -7 -51 -16 -70 -21
-44 -13 -67 18 -55 20 7 24 18 32 83 l9 76 39 11 c47 14 46 36 -2 36 l-32 0 6
62 c4 34 15 105 27 158 11 53 17 100 14 106 -8 12 -22 12 -31 -2z"/>
<path d="M4883 11843 c-9 -3 -11 -17 -7 -42 6 -41 -33 -339 -46 -356 -12 -15
1 -32 34 -45 35 -13 58 -6 113 31 47 32 59 58 43 89 -14 27 -78 27 -111 1
l-24 -19 17 117 c27 181 22 239 -19 224z m91 -363 c-11 -11 -35 -24 -53 -30
-30 -8 -32 -8 -19 8 23 29 42 41 68 42 l24 0 -20 -20z"/>
<path d="M2045 11790 c-4 -6 -10 -36 -15 -68 -5 -31 -17 -100 -26 -152 -23
-121 -23 -154 -4 -157 8 -1 32 20 53 47 20 28 41 50 46 50 4 0 1 -30 -7 -66
-10 -46 -11 -69 -4 -76 14 -14 45 -2 39 15 -3 8 1 42 9 76 11 48 12 66 3 77
-18 21 -50 17 -80 -12 l-27 -26 18 101 c24 132 28 193 13 198 -6 2 -14 -1 -18
-7z"/>
<path d="M11787 11783 c-3 -5 -8 -30 -12 -58 -10 -78 -13 -83 -53 -92 -24 -6
-38 -15 -40 -27 -4 -17 1 -18 37 -12 l41 6 0 -37 c1 -80 62 -163 121 -163 39
0 109 29 109 45 0 22 -16 26 -46 10 -16 -8 -41 -15 -55 -15 -42 0 -89 63 -89
119 l0 31 68 0 c84 0 112 8 112 29 0 15 -11 17 -91 13 l-92 -5 6 24 c3 13 9
50 12 82 6 48 5 57 -8 57 -9 0 -18 -3 -20 -7z"/>
<path d="M3945 11773 c-36 -9 -65 -35 -65 -58 0 -27 20 -45 83 -75 77 -36 111
-115 67 -155 -40 -36 -242 -27 -257 11 -3 8 2 25 11 39 21 32 20 45 -3 45 -26
0 -61 -46 -61 -81 0 -53 83 -89 203 -89 81 0 123 16 146 54 47 76 10 161 -96
222 -39 22 -41 30 -10 38 42 11 74 6 111 -19 20 -14 41 -25 46 -25 18 0 20 20
5 44 -28 42 -113 66 -180 49z"/>
<path d="M11035 11759 c-4 -5 0 -18 9 -28 15 -16 15 -28 6 -82 -13 -82 -13
-210 0 -244 17 -44 35 -25 32 32 -3 43 -1 51 17 56 22 5 110 -49 135 -85 12
-17 19 -19 28 -10 20 20 -6 56 -71 98 l-60 39 66 67 c45 45 64 71 60 82 -4 9
-10 16 -15 16 -5 0 -39 -31 -76 -70 -59 -61 -86 -82 -86 -66 0 3 5 39 11 81 9
65 8 80 -6 101 -16 25 -39 31 -50 13z"/>
<path d="M4355 11749 c-16 -5 -47 -10 -68 -10 -40 -1 -56 -14 -39 -31 12 -12
54 -13 105 -3 l32 6 -37 -22 c-21 -13 -41 -31 -44 -41 -8 -25 13 -48 43 -48
37 0 90 -26 103 -50 16 -30 -16 -63 -89 -91 -47 -17 -62 -19 -94 -9 -33 10
-36 14 -31 35 8 32 -17 34 -46 5 -25 -25 -14 -52 28 -73 80 -41 171 -22 240
49 23 24 42 52 42 62 0 29 -36 78 -66 89 -16 6 -38 14 -49 18 -16 6 -9 13 43
36 62 29 74 46 47 69 -20 16 -84 21 -120 9z"/>
<path d="M6327 11738 c-3 -13 -9 -51 -13 -85 l-6 -62 -41 2 c-24 1 -42 -3 -44
-10 -5 -13 2 -17 47 -27 23 -5 25 -9 25 -69 0 -90 19 -117 86 -117 27 0 66 7
85 15 42 17 41 42 -2 36 -16 -2 -49 -4 -74 -5 l-45 -1 -3 71 -3 71 72 7 c102
9 119 15 119 38 0 16 -5 19 -22 15 -13 -3 -54 -9 -92 -13 l-69 -7 8 54 c13 86
12 103 -6 107 -11 2 -19 -6 -22 -20z"/>
<path d="M7954 11728 c-44 -38 -64 -82 -64 -137 0 -33 -3 -40 -22 -43 -32 -4
-29 -32 3 -36 23 -3 28 -10 37 -56 16 -79 -9 -149 -48 -139 -26 7 -38 -23 -17
-44 24 -24 63 -8 93 37 28 42 34 88 21 156 l-8 41 60 7 c33 4 63 12 67 18 12
19 -20 27 -78 21 l-58 -6 0 47 c0 39 6 52 36 86 39 43 60 49 79 23 14 -19 35
-10 35 16 0 52 -81 57 -136 9z"/>
<path d="M9377 11754 c-4 -4 -7 -56 -7 -115 l0 -108 -41 -11 c-30 -8 -39 -16
-37 -28 3 -13 12 -16 40 -14 l37 3 3 -58 c2 -47 6 -58 22 -61 17 -4 18 2 14
67 l-4 71 48 0 c77 0 77 37 0 47 l-41 6 -3 100 c-3 93 -11 120 -31 101z"/>
<path d="M10215 11750 c-3 -5 -3 -15 0 -20 5 -8 -16 -214 -31 -295 -2 -11 -6
-34 -9 -51 -8 -43 15 -64 67 -64 85 0 142 53 154 144 5 37 3 50 -11 66 -29 32
-63 25 -107 -22 -21 -23 -40 -39 -42 -37 -3 2 2 61 11 132 8 70 13 134 9 142
-6 17 -32 20 -41 5z m145 -265 c0 -53 -60 -115 -111 -115 -19 0 -19 1 -4 16 8
9 23 30 31 47 36 70 84 100 84 52z"/>
<path d="M5635 11740 c-3 -6 -4 -18 -1 -28 3 -10 -1 -49 -9 -87 -17 -81 -20
-208 -5 -236 12 -21 35 -25 46 -8 3 6 1 16 -5 22 -6 6 -11 29 -11 51 0 39 1
40 15 19 25 -35 141 -123 164 -123 35 0 23 23 -33 63 -29 21 -67 53 -85 70
l-31 33 71 58 c63 52 69 60 56 74 -14 13 -22 9 -79 -42 -66 -59 -83 -67 -74
-38 19 67 26 131 17 155 -11 28 -25 35 -36 17z"/>
<path d="M7223 11655 c-25 -18 -61 -101 -69 -158 -5 -32 -2 -46 9 -56 25 -20
34 -7 52 75 9 41 19 73 22 70 3 -3 10 -29 14 -58 5 -28 15 -58 23 -67 14 -13
18 -13 37 5 11 10 29 35 39 54 20 38 23 35 37 -39 9 -47 34 -74 53 -55 8 8 9
23 1 53 -6 22 -16 58 -21 80 -19 73 -52 78 -97 12 l-21 -31 -7 32 c-16 83 -37
107 -72 83z"/>
<path d="M9186 11623 c-9 -24 9 -39 29 -23 8 7 15 19 15 26 0 20 -37 17 -44
-3z"/>
<path d="M2288 11568 c-65 -70 -79 -144 -31 -175 22 -15 30 -14 101 1 83 18
103 29 85 47 -9 9 -28 8 -77 -5 -79 -20 -96 -20 -96 -2 0 7 26 26 58 42 46 23
58 34 60 56 8 71 -49 91 -100 36z m62 -23 c0 -8 -14 -22 -31 -31 -33 -16 -33
-9 -1 29 18 21 32 22 32 2z"/>
<path d="M5100 11555 c-24 -63 -8 -105 51 -135 34 -18 43 -19 67 -8 25 12 27
18 30 81 3 62 1 68 -15 65 -14 -2 -19 -16 -23 -58 -4 -48 -7 -55 -25 -52 -39
7 -56 33 -53 81 3 51 -16 68 -32 26z"/>
<path d="M7484 11566 c-9 -24 23 -120 45 -133 19 -12 18 -16 -35 -128 -44 -93
-55 -124 -52 -157 2 -25 10 -45 20 -52 24 -15 32 -2 30 44 -2 31 10 65 52 152
31 62 63 127 73 143 64 107 73 126 68 135 -12 19 -26 9 -60 -44 -19 -30 -38
-57 -42 -59 -16 -10 -50 30 -59 68 -10 41 -30 57 -40 31z"/>
<path d="M5956 11549 c-38 -30 -50 -65 -35 -101 16 -40 57 -58 129 -58 53 0
60 2 60 20 0 18 -7 20 -56 20 -30 0 -65 5 -76 11 -20 11 -19 13 23 33 30 14
45 28 47 44 8 51 -45 68 -92 31z m49 -29 c-3 -5 -14 -10 -23 -10 -15 0 -15 2
-2 10 20 13 33 13 25 0z"/>
<path d="M8549 11543 c-6 -16 -17 -49 -25 -75 -8 -27 -17 -48 -19 -48 -2 0 -9
17 -14 38 -14 50 -36 80 -50 67 -10 -10 12 -102 32 -132 16 -25 51 -14 75 22
28 44 55 122 48 141 -9 23 -36 16 -47 -13z"/>
<path d="M11358 11530 c-31 -33 -38 -48 -38 -79 0 -32 6 -45 35 -70 69 -61
129 -75 172 -40 22 19 16 42 -9 34 -54 -16 -65 -15 -105 12 -49 32 -55 53 -15
53 40 0 70 10 76 25 4 12 -12 68 -27 93 -15 23 -50 12 -89 -28z m71 -42 c1 -5
-13 -8 -31 -8 l-31 0 23 25 c22 24 25 24 31 8 4 -10 8 -21 8 -25z"/>
<path d="M5368 11530 c-14 -10 -31 -33 -38 -50 -10 -25 -10 -34 3 -54 19 -29
52 -34 135 -23 51 7 62 12 62 28 0 21 -9 22 -82 10 -25 -4 -54 -4 -62 1 -15 8
-15 12 1 39 14 23 23 29 40 24 26 -6 39 10 23 30 -17 21 -53 19 -82 -5z"/>
<path d="M9007 11543 c-4 -3 -22 -7 -41 -8 -50 -3 -66 -20 -66 -70 0 -50 31
-98 50 -79 9 9 9 17 0 34 -6 12 -9 33 -6 46 5 18 13 24 35 24 16 0 39 8 52 19
23 18 23 18 2 29 -11 6 -23 9 -26 5z"/>
<path d="M9603 11524 c-71 -42 -68 -96 8 -134 53 -28 120 -19 155 19 39 42 29
73 -15 41 -14 -11 -48 -23 -76 -26 l-50 -7 33 35 c27 29 31 39 26 66 -8 39
-25 40 -81 6z m22 -49 c-16 -13 -32 -22 -35 -19 -7 7 39 44 54 44 6 -1 -2 -12
-19 -25z"/>
<path d="M10745 11538 c-76 -44 -86 -126 -19 -154 28 -12 47 -13 90 -5 64 12
74 17 74 36 0 11 -14 13 -67 9 -85 -6 -101 2 -83 45 12 31 36 43 75 38 14 -1
20 4 20 18 0 16 -7 21 -35 22 -19 2 -44 -2 -55 -9z"/>
<path d="M8275 11519 c-4 -6 -19 -7 -36 -4 -42 9 -63 -1 -93 -43 -43 -62 -29
-132 27 -132 12 0 40 9 62 21 l39 21 19 -26 c35 -49 74 -21 41 29 -12 19 -17
44 -16 86 2 52 -1 59 -18 59 -10 0 -22 -5 -25 -11z m-31 -45 c23 -9 20 -18
-15 -53 -53 -53 -82 -31 -37 29 23 32 27 34 52 24z"/>
<path d="M8714 11498 c-39 -30 -44 -38 -44 -71 0 -19 11 -39 30 -59 25 -24 36
-29 58 -23 43 11 62 34 62 76 0 21 -5 41 -11 44 -5 4 -14 18 -19 31 -12 30
-39 31 -76 2z m48 -55 c23 -21 24 -53 0 -53 -25 0 -42 19 -42 47 0 27 16 30
42 6z"/>
<path d="M10531 11478 c-21 -83 -41 -89 -50 -15 -4 30 -11 43 -25 45 -24 5
-42 -13 -29 -30 5 -7 15 -32 22 -55 6 -24 21 -47 32 -53 16 -9 25 -6 48 18 29
29 57 104 46 122 -14 22 -33 7 -44 -32z"/>
<path d="M9130 11465 c-11 -30 4 -79 23 -72 12 4 29 76 20 90 -9 16 -34 6 -43
-18z"/>
<path d="M6790 11443 c-40 -5 -144 -36 -154 -45 -6 -5 -6 -12 1 -19 8 -8 24
-8 60 0 26 6 81 13 122 16 91 5 111 12 111 34 0 14 -10 17 -57 17 -32 1 -69
-1 -83 -3z"/>
<path d="M4454 11415 c-9 -22 -6 -24 70 -30 38 -3 72 -8 77 -10 13 -9 61 15
56 28 -2 6 -17 13 -33 14 -16 0 -59 4 -97 7 -56 5 -68 4 -73 -9z"/>
<path d="M9890 11400 c-44 -10 -30 -35 20 -38 78 -4 130 7 130 27 0 16 -8 18
-63 17 -35 0 -74 -3 -87 -6z"/>
<path d="M12143 11334 c-3 -8 -1 -20 5 -26 15 -15 43 8 35 28 -7 19 -32 18
-40 -2z"/>
<path d="M4192 10824 c-6 -11 -6 -30 1 -53 17 -59 11 -207 -12 -295 -33 -125
-27 -177 20 -175 13 0 45 -7 70 -17 45 -17 48 -17 74 0 29 19 55 71 62 127 14
101 -70 174 -139 120 l-25 -20 4 77 c5 87 -17 244 -34 249 -6 2 -16 -4 -21
-13z m158 -334 c24 -24 25 -33 4 -96 -24 -71 -33 -79 -76 -61 -20 8 -38 20
-42 25 -3 6 3 36 15 66 32 87 60 105 99 66z"/>
<path d="M5560 10831 c0 -5 -19 -6 -42 -4 -35 4 -48 0 -72 -20 -16 -14 -25
-30 -22 -36 11 -17 43 -13 51 7 6 16 7 16 16 0 7 -13 22 -18 50 -18 36 0 40
-2 34 -20 -4 -14 -1 -22 10 -27 10 -3 35 -42 56 -86 42 -86 48 -130 28 -202
-12 -44 -68 -105 -96 -105 -25 0 -82 36 -107 68 -59 73 -95 162 -66 162 14 0
13 27 -2 36 -15 9 -58 -41 -58 -68 0 -31 58 -134 100 -177 43 -44 117 -76 154
-67 44 11 94 64 117 124 31 83 23 156 -28 258 -67 132 -70 124 37 124 72 0 92
3 97 15 3 9 3 18 0 21 -3 3 -46 7 -96 8 -49 0 -93 4 -97 9 -10 10 -64 9 -64
-2z"/>
<path d="M6035 10831 c-11 -5 -37 -27 -58 -50 -51 -57 -50 -89 5 -133 92 -74
128 -127 128 -190 0 -38 -18 -60 -64 -78 -41 -15 -82 -4 -127 37 -38 34 -39
37 -23 55 24 26 6 42 -36 33 -42 -9 -46 -26 -19 -74 26 -47 79 -87 134 -102
77 -22 169 29 184 103 15 70 -38 173 -120 234 -27 19 -49 42 -49 49 0 20 70
77 87 71 8 -3 17 -6 19 -6 3 0 9 -12 14 -26 11 -28 27 -28 44 -1 9 13 5 23
-19 46 -33 33 -70 44 -100 32z"/>
<path d="M2045 10810 c-173 -29 -267 -41 -314 -38 -60 3 -81 -15 -36 -32 36
-14 83 -12 200 5 55 9 170 18 255 20 148 5 186 13 164 35 -13 13 -207 21 -269
10z"/>
<path d="M2364 10806 c-14 -11 -16 -18 -8 -26 9 -9 8 -26 -2 -68 -7 -32 -13
-83 -14 -114 0 -54 -1 -57 -27 -60 -37 -4 -45 -38 -10 -38 23 0 25 -4 29 -61
4 -54 9 -66 36 -90 38 -34 74 -37 120 -9 35 22 39 47 6 42 -80 -14 -81 -14
-98 9 -10 14 -16 44 -16 75 l0 51 69 12 c77 14 113 33 95 51 -8 8 -27 6 -69
-5 -92 -23 -88 -27 -82 68 3 45 9 103 13 130 7 52 -4 61 -42 33z"/>
<path d="M15870 10810 c-261 -33 -789 -216 -1085 -377 -275 -149 -472 -332
-649 -605 -150 -231 -216 -466 -187 -669 30 -207 74 -316 175 -431 73 -83 106
-100 163 -81 45 15 36 38 -15 38 -40 0 -47 4 -102 65 -104 113 -161 266 -176
470 -13 175 50 374 183 579 122 188 264 343 420 458 285 211 931 460 1305 504
214 25 640 -31 861 -112 314 -115 706 -413 865 -656 126 -193 196 -467 195
-763 -2 -447 -87 -642 -396 -907 -125 -107 -474 -343 -612 -413 -346 -176
-579 -229 -926 -209 -279 16 -428 75 -739 294 -313 221 -457 339 -501 413 -33
55 -49 71 -65 65 -22 -8 -17 -32 17 -84 59 -92 194 -205 519 -434 324 -228
474 -287 770 -304 148 -8 322 -1 420 18 144 29 401 126 560 213 145 79 476
306 590 404 299 258 381 422 410 821 12 166 4 295 -31 468 -59 295 -141 449
-348 655 -258 258 -619 464 -916 524 -254 51 -550 75 -705 56z"/>
<path d="M10445 10803 c-590 -52 -1069 -176 -1420 -368 -294 -160 -650 -497
-809 -765 -56 -95 -107 -211 -127 -290 -21 -85 -16 -275 10 -400 26 -122 92
-287 153 -380 105 -161 308 -329 531 -440 142 -71 405 -164 550 -195 75 -16
79 -16 120 3 24 12 107 29 197 42 219 31 436 75 511 103 312 118 365 142 574
251 164 86 225 127 225 152 0 10 42 24 70 24 5 0 14 -17 21 -37 23 -73 69
-151 105 -181 85 -70 234 -75 448 -15 31 9 92 70 136 138 36 55 40 67 30 85
-9 17 -14 19 -26 10 -7 -7 -12 -16 -9 -20 3 -5 1 -11 -4 -14 -5 -4 -12 -2 -15
3 -4 5 -41 9 -84 8 -95 -2 -151 22 -200 85 -98 127 -72 292 69 443 35 37 87
85 116 106 68 51 333 336 383 413 28 42 46 61 61 61 31 0 68 98 75 199 10 143
-38 321 -120 450 -176 276 -574 473 -1058 525 -89 10 -418 12 -513 4z m616
-67 c284 -49 476 -120 664 -243 173 -115 292 -274 341 -458 20 -76 25 -240 10
-310 -8 -36 -10 -38 -15 -15 -11 40 -35 31 -42 -17 -3 -23 -12 -50 -20 -60
-46 -59 -189 -221 -263 -297 -47 -49 -83 -93 -80 -97 2 -5 -18 -20 -45 -33
-53 -27 -165 -134 -213 -204 -124 -181 -83 -425 86 -507 68 -32 139 -41 193
-22 l42 14 -36 -52 c-48 -68 -68 -81 -100 -64 -21 12 -26 10 -48 -13 -59 -64
-283 -58 -358 10 -29 26 -66 106 -87 186 -12 47 -23 72 -34 74 -9 2 -17 -1
-17 -7 -1 -6 -2 -16 -3 -23 0 -6 -21 -17 -46 -23 -56 -15 -120 -52 -120 -70 0
-17 -331 -190 -466 -243 -55 -22 -118 -49 -140 -61 -86 -44 -145 -64 -274 -91
-323 -68 -608 -96 -642 -62 -17 17 -47 15 -54 -3 -4 -8 -11 -15 -17 -15 -6 0
-81 23 -166 50 -275 89 -519 227 -685 388 -234 227 -357 633 -280 928 17 68
96 229 152 311 124 183 373 432 567 568 342 240 825 398 1410 459 83 9 164 18
180 20 71 10 524 -3 606 -18z"/>
<path d="M9497 10273 c-14 -13 -6 -61 24 -148 29 -84 31 -96 26 -192 -3 -56
-8 -107 -12 -112 -7 -12 -64 -15 -89 -5 -29 11 -13 94 22 120 24 18 2 39 -31
30 -30 -7 -57 -67 -57 -126 0 -35 5 -43 33 -60 60 -37 151 -16 163 38 3 15 10
40 15 56 18 59 10 177 -18 251 -14 39 -27 86 -29 105 -1 19 -3 38 -3 43 -1 9
-35 9 -44 0z"/>
<path d="M10716 10261 c-4 -6 -2 -37 3 -69 10 -64 -1 -141 -22 -154 -18 -12
-41 -9 -63 6 -14 11 -20 30 -24 83 -4 54 -8 68 -22 71 -16 3 -18 -5 -18 -62 0
-83 10 -108 55 -135 43 -25 57 -26 95 -6 46 24 66 115 47 210 -8 41 -17 61
-29 63 -9 2 -19 -1 -22 -7z"/>
<path d="M11144 10196 c-31 -14 -69 -70 -58 -87 9 -16 28 -10 49 16 38 48 145
42 145 -7 0 -31 -27 -71 -94 -143 -61 -65 -70 -96 -37 -136 16 -20 21 -21 35
-10 11 10 13 18 6 31 -15 28 -14 30 50 100 85 93 107 149 79 202 -23 43 -114
60 -175 34z"/>
<path d="M10227 10163 c-4 -3 -7 -19 -7 -33 0 -15 -12 -53 -26 -84 -19 -43
-29 -54 -38 -47 -9 7 -16 7 -23 0 -7 -7 -23 4 -50 35 -41 46 -57 55 -68 36 -8
-12 59 -106 84 -120 13 -6 25 -4 41 7 12 9 21 12 19 6 -24 -59 -68 -175 -76
-200 -9 -25 -8 -35 3 -44 19 -16 41 3 49 43 4 17 32 90 61 162 58 139 81 246
52 246 -8 0 -18 -3 -21 -7z"/>
<path d="M10374 10130 c-36 -14 -84 -97 -84 -145 0 -26 33 -55 63 -55 30 0 84
48 101 90 18 45 7 93 -24 110 -22 12 -28 12 -56 0z m38 -57 c8 -33 -8 -68 -36
-82 -43 -20 -53 -2 -26 53 23 48 54 62 62 29z"/>
<path d="M9254 10085 c-8 -20 4 -35 27 -35 21 0 25 20 7 38 -16 16 -27 15 -34
-3z"/>
<path d="M8842 9936 c-43 -16 -59 -33 -46 -46 8 -8 24 -6 55 4 61 21 79 20
125 -10 79 -51 108 -151 59 -200 -26 -26 -93 -59 -102 -50 -3 3 -12 58 -19
123 -8 64 -18 121 -23 126 -18 18 -44 -1 -37 -26 4 -12 9 -56 11 -98 3 -64 1
-76 -12 -75 -8 0 -24 -11 -36 -26 -17 -23 -19 -32 -9 -52 14 -32 60 -41 127
-26 108 24 175 87 175 165 0 55 -46 142 -90 171 -42 28 -131 38 -178 20z m42
-301 c3 -9 0 -15 -9 -15 -8 0 -15 7 -15 15 0 8 4 15 9 15 5 0 11 -7 15 -15z"/>
<path d="M9257 9933 c-3 -4 -8 -39 -11 -78 -6 -53 -4 -75 7 -89 8 -10 18 -17
23 -13 14 8 11 179 -3 184 -6 2 -13 0 -16 -4z"/>
<path d="M10737 9807 c-42 -45 -73 -98 -82 -139 -4 -18 -13 -42 -19 -53 -16
-26 -10 -45 15 -45 15 0 27 16 46 58 50 112 65 142 72 142 4 0 18 -28 32 -62
16 -42 30 -64 43 -66 29 -6 40 13 23 39 -9 13 -25 50 -37 82 -29 78 -51 88
-93 44z"/>
<path d="M10438 9689 c-44 -24 -42 -155 2 -179 44 -24 128 -2 150 39 18 35 12
87 -15 119 -21 26 -32 30 -73 30 -26 1 -55 -4 -64 -9z m93 -41 c39 -48 17 -98
-46 -98 -53 0 -57 96 -4 111 13 4 26 7 27 8 2 1 12 -9 23 -21z"/>
<path d="M10227 9645 c-37 -33 -32 -63 16 -94 39 -25 44 -39 27 -72 -8 -14
-17 -18 -34 -13 -32 8 -42 -20 -16 -46 29 -29 57 -25 80 13 43 69 38 117 -15
149 -42 24 -44 35 -9 48 14 6 24 16 22 23 -8 21 -42 18 -71 -8z"/>
<path d="M9810 9626 c-25 -13 -72 -38 -104 -55 -32 -17 -67 -31 -77 -31 -23 0
-34 -19 -20 -33 8 -8 24 -7 59 2 26 6 56 9 65 5 25 -9 57 -77 57 -119 0 -66
-56 -145 -102 -145 -21 0 -30 14 -38 60 -8 54 -34 46 -38 -12 -3 -40 1 -52 22
-73 33 -33 79 -33 123 1 45 34 83 111 83 169 0 53 -30 119 -61 136 -20 10 -19
12 21 35 23 13 56 28 73 32 22 6 32 14 32 28 0 28 -42 28 -95 0z"/>
<path d="M11145 9630 c-17 -19 -17 -20 14 -52 40 -41 57 -29 38 27 -16 47 -27
52 -52 25z"/>
<path d="M9978 9517 c-14 -13 -31 -40 -38 -61 -10 -31 -9 -41 4 -61 19 -29 60
-33 93 -10 20 14 22 14 27 -3 10 -29 52 -48 71 -32 21 18 19 34 -7 45 -16 7
-24 20 -26 45 -5 54 -18 58 -58 17 -47 -47 -67 -49 -52 -7 8 24 15 29 29 25
27 -9 36 21 14 45 -23 25 -27 25 -57 -3z"/>
<path d="M9151 9317 c-5 -13 -12 -45 -16 -70 -12 -75 -20 -80 -87 -48 -31 15
-63 33 -72 40 -17 14 -36 7 -36 -14 0 -18 94 -81 133 -91 23 -5 28 -11 23 -28
-41 -147 -43 -226 -6 -226 17 0 20 7 20 43 0 23 12 85 26 137 14 52 27 107 29
122 2 15 9 52 15 83 6 30 9 59 5 65 -10 17 -25 11 -34 -13z"/>
<path d="M8545 9223 c-99 -52 -97 -100 5 -156 24 -14 46 -29 47 -33 5 -15 -47
-64 -68 -64 -16 0 -18 5 -13 25 8 31 -13 34 -47 6 -20 -16 -22 -22 -11 -45 25
-56 121 -43 166 23 45 64 32 85 -90 157 -18 10 -16 13 16 33 23 14 45 20 62
17 35 -7 45 10 22 35 -21 23 -49 24 -89 2z"/>
<path d="M8747 9204 c-49 -56 -61 -140 -24 -174 27 -26 79 -21 113 11 21 20
24 20 46 5 12 -9 31 -16 41 -16 21 0 36 32 18 38 -26 9 -49 45 -56 88 -7 49
-30 68 -50 41 -11 -15 -13 -14 -23 8 -15 32 -36 32 -65 -1z m73 -49 c22 14 10
-52 -14 -75 -47 -43 -73 -2 -40 61 12 24 18 28 29 19 8 -7 19 -9 25 -5z"/>
<path d="M3635 10786 c-3 -9 -7 -23 -10 -31 -5 -16 -38 -244 -49 -342 -5 -36
-2 -63 9 -88 16 -40 42 -43 36 -4 -7 49 0 148 21 284 11 77 21 151 22 164 1
28 -21 41 -29 17z"/>
<path d="M6351 10725 c-62 -66 -81 -107 -81 -177 0 -114 72 -203 162 -203 59
0 92 24 138 100 58 98 53 204 -12 265 -12 11 -33 20 -46 20 -14 0 -32 11 -44
25 -30 39 -59 32 -117 -30z m188 -71 c48 -61 6 -206 -72 -249 -34 -19 -37 -19
-72 -2 -72 34 -99 171 -48 243 19 27 26 29 96 32 71 3 76 2 96 -24z"/>
<path d="M7008 10738 c-9 -17 -13 -78 -13 -222 0 -138 -3 -200 -11 -203 -10
-3 -25 28 -66 140 -6 15 -26 53 -45 85 -19 31 -42 86 -51 122 -14 52 -22 66
-39 68 -29 4 -41 -37 -53 -178 -10 -117 -18 -162 -39 -214 -7 -19 -8 -33 -2
-39 35 -35 91 119 91 252 l0 56 21 -40 c12 -22 51 -98 88 -170 77 -151 93
-162 136 -97 25 38 25 40 23 218 -3 157 -1 182 15 205 9 14 14 29 10 32 -15
15 -53 6 -65 -15z"/>
<path d="M1940 10725 c-10 -12 -10 -18 0 -30 9 -11 11 -37 6 -93 -3 -42 -1
-106 4 -141 6 -35 9 -65 7 -68 -3 -2 -47 -11 -98 -19 -100 -17 -121 -26 -101
-46 8 -8 43 -6 144 11 73 12 172 21 219 21 90 0 106 5 88 27 -8 9 -40 13 -109
13 l-98 0 -11 68 c-8 45 -8 98 -2 162 5 52 7 98 4 103 -7 12 -40 8 -53 -8z"/>
<path d="M3437 10713 c-10 -17 -20 -155 -21 -281 0 -104 3 -135 14 -142 8 -5
18 -6 22 -3 5 2 8 66 8 141 -1 76 2 172 6 215 6 66 5 77 -9 77 -9 0 -18 -3
-20 -7z"/>
<path d="M3259 10634 c-11 -14 -11 -18 5 -29 24 -18 48 -8 44 19 -4 26 -30 32
-49 10z"/>
<path d="M3095 10560 c-12 -13 -15 -24 -8 -32 5 -7 7 -40 4 -73 -6 -57 -7 -58
-18 -32 -22 47 -58 34 -111 -40 l-30 -43 -6 41 c-7 45 1 106 15 115 14 8 10
44 -5 44 -48 0 -79 -164 -44 -232 18 -36 51 -20 96 43 l44 61 19 -31 c23 -38
43 -39 66 -5 21 33 36 134 22 151 -6 7 -8 16 -5 21 3 6 0 15 -8 21 -10 8 -17
6 -31 -9z"/>
<path d="M4526 10518 c-20 -20 -36 -48 -40 -71 -6 -32 -2 -44 24 -82 31 -45
44 -51 99 -46 51 5 171 86 171 116 0 21 -28 26 -42 7 -18 -24 -141 -84 -159
-77 -8 3 -20 14 -26 25 -11 16 -9 20 7 25 27 9 70 63 70 89 0 54 -56 62 -104
14z m44 -43 c-13 -14 -26 -23 -28 -20 -7 7 29 45 41 45 6 0 0 -11 -13 -25z"/>
<path d="M3232 10527 c-7 -8 -9 -33 -6 -64 4 -29 2 -58 -5 -70 -16 -31 10 -50
33 -24 14 15 16 33 14 92 -4 72 -15 92 -36 66z"/>
<path d="M3792 9833 c-28 -25 -39 -65 -62 -227 -24 -163 -32 -195 -64 -256
-30 -57 -35 -46 -38 90 -3 89 -6 105 -20 108 -12 2 -27 -18 -57 -80 -22 -46
-51 -96 -65 -113 -39 -47 -39 -45 29 299 18 93 22 133 14 140 -13 14 -36 -15
-49 -64 -22 -83 -71 -367 -68 -398 7 -76 71 -67 130 17 34 49 38 52 38 28 0
-46 30 -107 56 -113 33 -8 47 6 83 81 25 52 36 98 56 230 13 91 33 185 44 210
16 35 17 46 6 55 -9 7 -18 6 -33 -7z"/>
<path d="M4216 9821 c-3 -5 -10 -47 -15 -93 -5 -55 -22 -124 -50 -203 -65
-183 -78 -232 -65 -253 16 -25 41 -26 54 -2 8 15 8 25 1 34 -8 10 1 46 35 140
47 132 61 195 66 310 2 46 -1 70 -9 73 -6 2 -14 0 -17 -6z"/>
<path d="M2499 9803 c-1 -5 -1 -71 1 -149 2 -145 -10 -237 -35 -270 -15 -18
-16 -18 -40 11 -31 38 -58 122 -80 247 -18 105 -35 133 -62 105 -15 -14 -31
-166 -33 -308 0 -30 -3 -35 -22 -35 -21 1 -23 -3 -20 -49 2 -27 8 -55 14 -62
32 -39 66 18 74 125 9 120 13 124 39 48 28 -80 66 -133 102 -142 36 -9 54 4
83 62 23 45 25 62 28 222 3 127 1 176 -8 187 -13 16 -39 20 -41 8z"/>
<path d="M14845 9800 c-4 -6 0 -29 9 -53 10 -27 16 -93 19 -189 4 -152 16
-198 52 -198 17 0 18 17 5 80 -6 25 -14 104 -18 175 -6 89 -14 140 -26 163
-17 33 -30 40 -41 22z"/>
<path d="M14704 9690 c-1 -76 -5 -114 -15 -126 -11 -14 -11 -18 4 -29 9 -7 17
-22 17 -35 0 -31 22 -104 34 -112 22 -15 28 7 21 78 -7 81 -9 78 65 86 14 2
25 9 25 18 0 11 -12 15 -52 15 l-53 -1 0 89 c0 88 -10 127 -33 127 -9 0 -12
-31 -13 -110z"/>
<path d="M16004 9763 c-8 -21 -22 -55 -31 -76 l-16 -37 -25 22 c-13 13 -35 42
-49 66 -26 43 -40 52 -49 29 -12 -33 60 -147 94 -147 9 0 12 -6 7 -17 -39
-100 -56 -170 -46 -195 7 -19 18 -28 32 -28 19 0 21 4 16 33 -3 20 3 54 15 88
99 269 107 299 78 299 -6 0 -18 -17 -26 -37z"/>
<path d="M6286 9748 c-58 -39 -76 -62 -59 -79 8 -8 25 -2 65 23 30 18 63 38
74 44 10 6 20 19 22 28 6 28 -49 19 -102 -16z"/>
<path d="M15682 9735 c-16 -13 -35 -39 -42 -56 l-13 -31 -14 26 c-19 37 -48
35 -38 -1 5 -16 9 -95 10 -178 2 -130 4 -150 18 -153 23 -5 37 36 37 104 0 65
13 94 41 94 28 0 77 27 89 49 18 35 12 116 -11 145 -25 32 -40 33 -77 1z m58
-81 c0 -46 -12 -60 -59 -74 -25 -7 -31 -6 -31 6 0 24 30 87 52 111 27 29 38
16 38 -43z"/>
<path d="M6007 9743 c-3 -5 -8 -30 -11 -58 -4 -27 -16 -80 -27 -117 l-20 -67
-42 -3 c-52 -4 -60 -31 -9 -36 37 -4 37 -6 17 -55 -18 -43 -19 -79 -4 -94 19
-19 39 -4 33 25 -3 16 3 46 15 74 19 41 25 47 62 53 30 5 39 11 37 23 -3 12
-13 16 -35 15 l-32 -3 15 48 c21 67 38 168 31 186 -7 17 -23 21 -30 9z"/>
<path d="M15449 9687 c-22 -15 -37 -35 -45 -62 l-11 -39 -6 33 c-5 24 -11 32
-24 29 -21 -4 -20 -45 4 -148 8 -36 17 -98 20 -138 5 -67 7 -73 26 -70 24 3
35 44 36 129 1 37 7 51 31 74 53 51 78 166 42 198 -24 22 -33 21 -73 -6z m41
-57 c0 -27 -25 -86 -41 -95 -9 -6 -10 2 -5 35 8 48 22 80 36 80 6 0 10 -9 10
-20z"/>
<path d="M1860 9632 l-65 -67 -5 60 c-4 44 -9 60 -20 60 -12 0 -16 -18 -18
-87 -3 -84 -4 -88 -25 -88 -31 0 -104 49 -111 73 -5 20 -36 21 -43 0 -6 -16
52 -79 87 -93 16 -7 30 -16 30 -21 0 -4 -31 -36 -70 -70 -66 -60 -83 -90 -60
-104 6 -4 47 30 92 74 44 45 84 81 89 81 5 0 9 -43 9 -95 0 -84 2 -95 18 -95
9 0 24 5 32 10 12 8 13 13 3 30 -7 11 -13 49 -13 84 l0 64 58 -18 c31 -9 71
-26 89 -36 26 -16 34 -17 45 -6 20 20 -40 68 -109 87 -32 9 -64 18 -72 21 -9
3 14 33 68 89 75 77 92 104 65 111 -5 1 -38 -27 -74 -64z"/>
<path d="M3943 9633 c-22 -8 -14 -33 13 -43 41 -16 58 4 28 34 -16 17 -21 18
-41 9z"/>
<path d="M15102 9620 c-48 -20 -71 -149 -34 -183 27 -24 56 -21 93 10 18 16
34 23 36 17 18 -54 60 -54 48 0 -4 17 -8 50 -10 72 -3 51 -12 67 -32 59 -10
-3 -22 3 -30 15 -15 21 -34 24 -71 10z m56 -61 c12 -18 10 -25 -13 -55 -14
-19 -31 -34 -37 -34 -15 0 -3 90 13 101 20 12 23 11 37 -12z"/>
<path d="M5756 9581 c-9 -14 4 -41 19 -41 18 0 26 15 19 34 -7 17 -29 21 -38
7z"/>
<path d="M4435 9571 c-44 -11 -93 -39 -104 -60 -13 -24 8 -54 49 -71 47 -19
35 -70 -17 -70 -16 0 -23 6 -23 19 0 24 -13 33 -34 25 -9 -4 -16 -18 -16 -35
0 -37 32 -59 86 -59 38 0 45 4 64 35 32 52 24 94 -23 121 l-38 21 43 19 c23
10 52 17 64 16 12 -2 25 2 29 8 15 24 -32 42 -80 31z"/>
<path d="M2742 9548 c-7 -7 -12 -9 -12 -5 0 4 -9 3 -20 -3 -29 -16 -63 -88
-64 -138 -1 -36 4 -48 27 -68 15 -13 40 -24 54 -24 65 0 143 72 143 134 0 33
-33 92 -60 106 -25 13 -53 13 -68 -2z m62 -63 c24 -37 20 -60 -19 -94 -43 -37
-72 -40 -86 -7 -14 31 21 119 44 110 8 -3 18 -1 22 5 10 17 21 13 39 -14z"/>
<path d="M4670 9535 c-7 -8 -21 -15 -30 -15 -10 0 -32 -18 -49 -39 -61 -77
-71 -142 -25 -163 19 -9 31 -6 66 16 61 37 73 47 97 86 25 41 27 77 5 108 -18
25 -46 29 -64 7z m20 -85 c-11 -20 -80 -80 -92 -80 -15 0 -8 24 17 59 18 27
32 37 55 38 27 2 29 0 20 -17z"/>
<path d="M4920 9505 l-46 -34 1 26 c0 36 -23 40 -36 6 -6 -15 -24 -56 -40 -91
-17 -34 -27 -67 -24 -72 11 -19 35 -10 62 23 46 53 124 129 129 124 3 -3 -2
-22 -10 -42 -20 -47 -20 -79 -1 -95 26 -22 47 -5 40 34 -4 20 0 52 10 81 9 27
14 54 11 62 -9 23 -49 14 -96 -22z"/>
<path d="M6178 9483 c-51 -21 -52 -53 -2 -82 19 -12 42 -21 50 -21 19 0 18
-26 -2 -34 -29 -11 -45 -6 -69 20 -26 28 -65 26 -65 -2 0 -25 46 -62 85 -70
100 -18 164 85 77 126 -17 8 -32 18 -32 21 0 11 50 20 71 14 24 -8 39 23 18
36 -22 14 -90 10 -131 -8z"/>
<path d="M16671 9438 c-5 -13 -20 -61 -34 -108 -14 -47 -35 -112 -47 -145 -24
-66 -21 -145 6 -145 8 0 14 3 15 8 1 4 3 23 4 43 2 20 20 77 39 128 32 81 42
123 49 210 3 32 -20 39 -32 9z"/>
<path d="M3856 9438 c-3 -7 -9 -28 -15 -47 -6 -19 -11 -45 -11 -58 0 -20 4
-24 22 -21 19 3 24 12 31 58 4 30 5 60 3 67 -7 17 -25 17 -30 1z"/>
<path d="M5686 9396 c-29 -58 -29 -86 1 -86 13 0 23 16 36 53 24 68 25 81 6
84 -10 3 -25 -15 -43 -51z"/>
<path d="M2976 9368 c-2 -7 -7 -35 -10 -61 -7 -57 -29 -90 -74 -112 -37 -18
-50 -41 -33 -58 18 -18 75 16 109 68 42 64 56 162 25 173 -7 2 -15 -2 -17 -10z"/>
<path d="M5175 9301 c-3 -6 -3 -16 0 -22 10 -14 -24 -49 -63 -66 -36 -15 -52
-41 -32 -53 38 -23 144 68 138 118 -3 27 -31 42 -43 23z"/>
<path d="M6703 9199 c-75 -37 -74 -113 3 -159 82 -49 100 -81 73 -133 -16 -29
-28 -37 -60 -37 -39 0 -55 24 -36 53 9 14 12 29 7 37 -11 18 -56 -11 -73 -47
-10 -23 -8 -28 26 -59 62 -58 141 -44 180 31 9 17 16 23 17 14 0 -23 42 -58
78 -65 40 -8 62 9 62 47 0 32 -17 37 -49 17 -15 -9 -23 -9 -34 0 -19 16 -11
45 21 77 19 20 28 23 39 13 19 -16 37 4 28 31 -12 39 -92 18 -124 -32 -14 -21
-21 -26 -21 -15 0 25 -45 73 -94 102 -24 14 -46 32 -49 40 -7 19 22 44 60 52
26 5 30 3 29 -18 -1 -34 25 -29 47 10 15 26 17 35 7 47 -18 22 -88 19 -137 -6z"/>
<path d="M7816 9198 c-3 -7 -9 -26 -14 -43 -8 -27 -13 -30 -53 -30 -55 0 -61
-24 -9 -38 19 -5 36 -10 37 -11 1 -1 -4 -20 -12 -41 -19 -53 -19 -158 0 -194
17 -34 62 -55 97 -46 19 5 27 15 31 38 7 43 -6 54 -38 33 -21 -14 -29 -15 -41
-5 -17 14 -19 88 -2 158 10 45 14 51 37 51 32 0 61 37 36 46 -8 4 -24 4 -36 1
-17 -5 -19 -2 -13 16 12 35 10 70 -3 74 -7 3 -15 -1 -17 -9z"/>
<path d="M15764 9196 c-3 -8 0 -62 8 -119 l14 -104 -29 0 c-43 0 -67 -33 -67
-95 0 -87 48 -141 90 -103 20 18 45 85 55 145 3 19 -3 91 -12 160 -15 103 -21
125 -36 128 -9 2 -20 -3 -23 -12z m11 -277 c9 -14 -15 -100 -26 -93 -10 6 -12
87 -2 97 9 10 21 8 28 -4z"/>
<path d="M2030 9184 c-82 -14 -172 -39 -182 -51 -18 -22 3 -36 36 -23 15 5 45
10 66 10 39 0 40 0 56 -57 21 -72 14 -143 -22 -223 -22 -49 -31 -60 -50 -60
-39 0 -56 38 -52 122 2 60 0 73 -12 73 -21 0 -45 -100 -36 -149 14 -71 80
-113 141 -90 25 10 83 137 90 197 4 37 0 72 -14 121 -12 38 -18 72 -15 75 3 3
38 6 76 6 72 0 98 14 61 33 -22 12 -109 21 -143 16z"/>
<path d="M5640 9159 c-175 -22 -180 -23 -180 -43 0 -23 36 -39 59 -26 55 29
121 -11 121 -74 0 -77 -61 -216 -96 -216 -29 0 -73 54 -85 105 -7 28 -13 56
-15 62 -5 21 -32 3 -39 -26 -12 -56 37 -146 97 -177 46 -24 74 -18 107 24 67
80 94 219 57 291 l-16 29 63 7 c69 8 120 30 114 48 -5 17 -14 17 -187 -4z"/>
<path d="M15042 9137 c-6 -6 -14 -26 -17 -42 -11 -43 -46 -125 -55 -125 -4 0
-19 31 -34 69 -30 76 -50 101 -68 83 -19 -19 7 -401 29 -423 19 -19 46 7 32
32 -5 11 -9 41 -8 67 1 26 -2 74 -5 107 l-8 60 19 -35 c26 -50 51 -46 89 13
18 27 34 44 37 40 4 -5 7 -62 8 -127 1 -87 5 -121 16 -131 18 -19 27 -19 42
-1 9 11 9 20 2 35 -6 11 -11 59 -11 108 0 48 -4 126 -10 172 -11 99 -30 132
-58 98z"/>
<path d="M4583 9115 c-3 -9 -3 -18 0 -22 10 -10 37 6 37 22 0 20 -29 20 -37 0z"/>
<path d="M16307 9103 c-2 -5 -12 -41 -22 -81 -9 -40 -21 -74 -25 -77 -4 -3
-23 19 -41 47 -36 55 -56 69 -65 45 -3 -9 14 -43 41 -81 l46 -66 -46 -125
c-48 -134 -54 -174 -29 -200 22 -21 42 -4 37 32 -3 17 13 76 37 143 59 166
104 334 96 357 -6 14 -22 18 -29 6z"/>
<path d="M7355 9091 c-10 -17 4 -31 31 -31 19 0 25 5 22 18 -4 19 -43 29 -53
13z"/>
<path d="M7538 9041 c-19 -17 -43 -49 -52 -73 -10 -24 -23 -53 -29 -65 -6 -13
-11 -35 -12 -50 -1 -16 -5 -64 -9 -108 -7 -83 0 -112 27 -102 16 6 37 86 37
141 0 31 2 34 42 40 121 20 161 207 51 240 -16 5 -31 -1 -55 -23z m72 -73 c0
-46 -45 -98 -84 -98 -28 0 -4 83 37 128 20 22 22 22 34 6 7 -10 13 -26 13 -36z"/>
<path d="M15989 9047 c-66 -51 -93 -169 -47 -201 27 -19 51 -7 84 41 l20 30
20 -35 c36 -67 71 -43 39 27 -9 21 -20 63 -23 92 -7 53 -8 54 -42 56 -19 2
-42 -3 -51 -10z m10 -104 c-19 -41 -23 -45 -27 -25 -2 14 6 38 20 58 31 45 35
27 7 -33z"/>
<path d="M2247 9038 c-22 -18 -34 -57 -28 -93 5 -22 0 -35 -16 -52 -27 -27
-30 -78 -7 -112 13 -19 22 -22 47 -17 39 8 77 43 77 72 0 12 -13 47 -30 78
-16 31 -27 63 -24 71 7 17 34 21 34 5 0 -5 9 -14 21 -21 35 -18 43 3 17 44
-25 39 -59 48 -91 25z m23 -195 c0 -7 -9 -17 -20 -23 -17 -9 -20 -8 -20 14 0
13 3 32 6 40 6 15 8 15 20 -1 7 -10 14 -23 14 -30z"/>
<path d="M3970 9041 c-75 -23 -90 -66 -44 -121 15 -17 24 -34 20 -37 -3 -4
-12 1 -19 11 -14 19 -47 13 -47 -9 0 -49 37 -72 80 -50 53 27 57 68 11 109
-29 26 -27 33 20 56 57 30 42 60 -21 41z"/>
<path d="M7124 9008 c-30 -14 -44 -50 -44 -112 0 -36 5 -58 15 -66 22 -18 28
-8 31 56 2 65 19 87 63 86 24 0 31 4 31 18 0 29 -52 40 -96 18z"/>
<path d="M15287 9013 c-4 -3 -7 -13 -7 -21 0 -8 -11 -23 -25 -34 -42 -33 -60
-142 -29 -186 15 -22 47 -28 79 -16 25 10 55 79 55 128 0 75 -46 157 -73 129z
m27 -99 c18 -46 -5 -114 -39 -114 -17 0 -26 65 -13 100 11 33 42 41 52 14z"/>
<path d="M4647 9003 c-3 -5 -8 -24 -12 -43 -4 -19 -18 -51 -31 -70 -27 -39
-29 -53 -11 -68 16 -14 26 -7 62 43 43 60 77 95 92 95 10 0 8 -10 -7 -40 -24
-46 -26 -83 -5 -100 19 -16 35 -4 35 26 0 14 9 42 20 64 25 48 25 62 2 83 -23
21 -61 22 -89 2 -19 -13 -22 -13 -27 0 -6 16 -22 20 -29 8z"/>
<path d="M3643 8985 c-27 -19 -63 -77 -63 -102 0 -25 40 -63 66 -63 11 0 29 7
41 15 20 14 22 13 32 -15 6 -17 17 -30 27 -30 27 0 10 134 -22 178 -27 35 -48
40 -81 17z m47 -58 c0 -31 -36 -65 -51 -50 -8 8 -5 20 10 42 27 37 41 40 41 8z"/>
<path d="M5773 8978 c-11 -13 -31 -43 -43 -67 -18 -35 -20 -49 -11 -67 13 -30
60 -32 111 -5 34 19 34 19 45 -3 6 -11 18 -22 28 -24 15 -3 17 5 17 61 0 77
-6 97 -30 97 -10 0 -23 7 -30 15 -18 22 -63 18 -87 -7z m89 -38 c-3 -8 -10
-21 -15 -28 -13 -17 -67 -45 -74 -39 -6 6 14 45 34 68 18 21 63 20 55 -1z"/>
<path d="M6255 8978 c-15 -12 -34 -37 -42 -56 -12 -30 -12 -37 2 -58 8 -13 23
-24 32 -24 20 0 79 35 116 68 23 22 27 23 27 8 0 -52 60 -101 116 -94 38 4 37
29 -1 41 -46 15 -64 35 -71 84 -7 48 -25 63 -55 45 -11 -7 -20 -8 -24 -2 -11
18 -71 11 -100 -12z m73 -30 c-2 -6 -21 -22 -42 -35 -34 -22 -36 -23 -27 -4
19 34 78 68 69 39z"/>
<path d="M2462 8975 c-27 -37 -52 -97 -52 -122 0 -65 67 -101 128 -69 56 29
65 70 30 126 -13 19 -23 44 -23 55 0 16 -7 20 -38 20 -21 0 -41 -4 -45 -10z
m78 -121 c0 -18 -43 -39 -64 -31 -21 8 -20 46 1 76 l16 24 24 -27 c12 -15 23
-34 23 -42z"/>
<path d="M2676 8968 c-8 -13 -18 -36 -21 -53 -4 -16 -16 -53 -27 -82 -20 -52
-18 -73 7 -73 7 0 43 35 79 78 36 43 72 84 80 91 13 11 14 9 6 -21 -16 -53
-12 -103 8 -121 32 -29 92 -19 92 14 0 16 -6 19 -27 17 -23 -2 -29 1 -31 21
-2 13 2 43 8 66 9 32 9 48 1 64 -20 36 -58 27 -112 -28 -27 -26 -49 -46 -49
-44 0 2 7 20 15 39 22 53 0 76 -29 32z"/>
<path d="M4493 8978 c-5 -7 -19 -40 -32 -72 -19 -53 -20 -61 -7 -75 32 -31 65
36 71 143 0 15 -21 18 -32 4z"/>
<path d="M6082 8950 c-15 -21 -29 -39 -32 -39 -3 -1 -15 15 -28 34 -12 19 -27
35 -32 35 -21 0 -21 -30 -2 -55 11 -14 23 -43 27 -65 10 -61 29 -69 57 -23 66
106 77 130 66 141 -19 19 -26 15 -56 -28z"/>
<path d="M15502 8983 c-8 -3 -22 -19 -32 -35 -17 -28 -18 -29 -25 -9 -3 12
-15 21 -26 21 -20 0 -26 -24 -9 -35 6 -4 9 -38 8 -83 -3 -64 0 -77 13 -80 13
-2 18 8 23 46 6 50 56 142 77 142 9 0 10 -21 5 -74 -7 -75 5 -131 25 -124 8 3
13 41 15 105 5 122 -12 151 -74 126z"/>
<path d="M7307 8903 c-3 -5 -4 -26 -3 -48 1 -28 5 -40 15 -40 20 0 36 62 20
81 -13 15 -25 18 -32 7z"/>
<path d="M16541 8866 c-25 -26 -21 -46 8 -46 24 0 55 35 48 55 -9 22 -30 19
-56 -9z"/>
<path d="M3217 8784 c-4 -4 -7 -21 -7 -39 0 -36 -49 -90 -82 -90 -11 0 -26 -8
-32 -18 -17 -28 16 -49 55 -35 33 12 86 68 95 102 12 49 -7 102 -29 80z"/>
<path d="M12675 8705 c-156 -22 -264 -55 -406 -125 -342 -169 -599 -486 -693
-856 -23 -90 -23 -601 0 -682 48 -170 114 -309 212 -445 64 -89 189 -219 257
-268 25 -18 45 -36 45 -41 0 -16 27 -37 46 -36 11 1 38 -11 62 -26 44 -28 158
-80 247 -112 44 -17 89 -19 389 -22 l339 -3 81 27 c100 33 193 74 260 116 28
17 59 31 69 30 9 0 17 6 17 14 0 8 4 14 8 14 11 0 121 98 191 170 167 171 290
405 343 653 31 145 31 399 0 544 -56 258 -181 490 -367 676 -47 47 -85 90 -85
96 0 6 -11 11 -25 11 -14 0 -25 4 -25 8 0 13 -156 110 -233 146 -40 18 -97 41
-126 51 -30 9 -62 26 -73 37 -15 15 -23 17 -33 8 -9 -8 -25 -8 -52 -1 -118 30
-300 37 -448 16z m322 -45 c43 -6 99 -15 125 -21 45 -10 47 -12 46 -45 -1 -36
-12 -44 -25 -20 -9 17 -110 66 -135 66 -26 0 -43 -70 -43 -177 l0 -93 -45 0
-45 0 -24 65 c-12 36 -29 72 -36 79 -8 7 -15 31 -17 52 -3 35 -8 41 -45 59
-23 11 -42 23 -43 27 -1 18 175 22 287 8z m-340 -24 c-10 -25 -26 -128 -32
-211 -11 -132 -52 -160 -90 -62 -13 33 -29 56 -45 64 -33 16 -50 41 -50 73 0
41 -22 64 -53 56 -18 -4 -33 -21 -51 -59 -26 -53 -66 -218 -66 -269 0 -23 -4
-28 -25 -28 -25 0 -25 1 -25 88 0 48 3 117 6 153 l7 67 86 40 c109 50 134 60
218 82 87 23 127 25 120 6z m738 -92 c52 -23 186 -107 236 -147 12 -9 17 -34
20 -97 l4 -85 -27 -3 c-24 -3 -28 1 -42 50 -16 56 -67 161 -93 189 -18 21 -61
30 -70 15 -4 -6 -8 -60 -10 -121 -1 -60 -5 -115 -8 -122 -3 -9 -25 -13 -63
-13 -56 0 -62 2 -98 40 -22 22 -42 52 -45 67 -11 47 -10 133 3 219 l12 82 60
-23 c34 -13 88 -36 121 -51z m-1209 -72 c-3 -5 -6 -69 -7 -143 l-1 -134 -84
-79 c-194 -181 -287 -362 -330 -641 -37 -246 8 -481 146 -760 33 -66 86 -156
120 -200 49 -65 60 -87 60 -118 l0 -38 -28 19 c-100 72 -269 279 -338 413
-170 337 -188 740 -46 1085 86 211 238 405 425 546 77 56 94 67 83 50z m1610
-232 c170 -191 279 -434 313 -699 43 -328 -54 -680 -257 -945 -49 -64 -200
-216 -214 -216 -4 0 -8 14 -8 31 0 25 14 43 82 107 189 178 294 388 328 655
29 235 -8 436 -126 685 -53 113 -119 221 -181 298 -30 37 -33 47 -33 108 0 64
1 67 19 54 11 -8 45 -43 77 -78z m-406 -80 c0 -5 -7 -10 -15 -10 -8 0 -15 5
-15 10 0 6 7 10 15 10 8 0 15 -4 15 -10z m305 -32 c44 -52 130 -189 179 -286
45 -89 97 -230 87 -236 -4 -3 -61 4 -126 14 -66 10 -159 21 -208 25 -48 4 -89
11 -92 15 -3 4 10 86 29 181 18 96 37 206 41 244 4 39 9 73 12 78 11 18 45 3
78 -35z m-1439 15 c-10 -26 -8 -212 3 -271 11 -55 24 -86 48 -113 11 -14 12
-25 2 -63 -6 -25 -15 -46 -20 -46 -18 0 -251 -31 -347 -47 -56 -9 -104 -14
-107 -11 -17 16 82 243 142 325 93 127 216 243 260 243 19 0 24 -4 19 -17z
m504 -334 c0 -45 -25 -77 -70 -85 -45 -9 -72 -46 -78 -103 -4 -48 -3 -51 24
-62 39 -14 56 -2 74 53 20 61 36 78 75 78 29 0 33 -4 37 -31 9 -61 -9 -129
-47 -175 -38 -46 -69 -60 -107 -49 -34 11 -144 91 -152 111 -4 9 -1 43 5 74 9
44 8 67 -1 95 -11 33 -10 39 10 60 37 39 192 93 223 78 4 -2 7 -22 7 -44z
m532 -10 c26 -19 57 -42 71 -52 38 -28 80 -112 72 -146 -10 -45 -109 -149
-155 -161 -45 -12 -64 -6 -109 35 -39 35 -121 141 -121 155 0 14 61 50 85 50
11 0 43 -24 72 -52 61 -60 81 -59 97 5 12 45 1 59 -73 97 -31 15 -69 40 -85
55 -29 27 -29 28 -10 42 32 24 104 12 156 -28z m373 -204 c127 -15 248 -31
292 -40 30 -7 45 -83 45 -230 0 -132 -7 -172 -30 -179 -31 -8 -424 -57 -428
-52 -1 0 5 42 13 91 17 99 13 135 -36 372 -8 40 -6 53 8 53 3 0 65 -7 136 -15z
m-1375 1 c0 -2 -11 -86 -24 -187 -14 -101 -28 -216 -31 -255 l-7 -70 -76 8
c-42 4 -136 15 -208 24 l-132 16 -5 37 c-16 103 -18 183 -7 256 7 44 16 87 21
96 9 17 116 38 319 64 117 14 150 17 150 11z m665 -156 c10 -11 22 -45 27 -76
5 -31 16 -70 24 -86 43 -84 -87 -122 -167 -50 -35 31 -35 34 -4 97 14 28 25
55 25 61 0 15 55 74 67 74 6 0 18 -9 28 -20z m1020 -372 c-37 -175 -138 -353
-283 -495 l-83 -83 -257 1 -257 1 75 19 c163 41 275 127 304 230 8 30 24 109
37 176 l22 122 41 5 c261 32 381 48 385 52 14 14 22 0 16 -28z m-1930 -13 c88
-10 165 -18 171 -20 7 -2 11 -45 12 -127 0 -92 4 -134 17 -166 37 -92 169
-170 362 -216 59 -14 119 -27 133 -29 14 -1 -119 -6 -295 -10 l-320 -8 -23 28
c-105 126 -248 412 -269 537 -6 39 -6 39 23 33 16 -3 101 -13 189 -22z m1212
-7 c18 -15 16 -65 -4 -100 -10 -16 -40 -43 -68 -61 l-50 -32 -140 3 c-187 3
-396 20 -442 35 -43 14 -65 55 -46 85 12 19 72 21 374 11 225 -8 239 -6 278
48 29 39 33 42 58 32 15 -5 33 -15 40 -21z m-591 -625 c-15 -52 -45 -184 -51
-224 -11 -75 -12 -76 -107 -50 -84 22 -247 95 -325 144 -42 27 -43 28 -43 82
l0 55 183 2 c100 2 220 5 265 6 78 3 83 2 78 -15z m328 9 c11 -18 56 -206 62
-258 7 -52 6 -53 -22 -61 -44 -12 -361 -10 -374 3 -11 11 -6 46 31 203 31 130
19 121 169 121 71 0 131 -4 134 -8z m586 -46 l0 -54 -62 -40 c-83 -51 -230
-117 -320 -142 -40 -11 -76 -20 -80 -20 -5 0 -8 13 -8 29 0 16 -13 82 -30 146
-16 64 -30 121 -30 126 0 5 108 9 265 9 l265 0 0 -54z"/>
<path d="M12881 7356 c-18 -21 -9 -66 14 -82 43 -28 99 32 69 75 -18 24 -65
28 -83 7z"/>
<path d="M4885 8630 c4 -28 4 -87 0 -130 -6 -66 -10 -80 -24 -80 -9 0 -22 5
-29 12 -9 9 -15 9 -23 1 -18 -18 -3 -40 30 -48 30 -6 31 -8 31 -61 0 -89 33
-146 75 -130 13 5 12 10 -5 38 -14 23 -20 51 -20 91 l0 57 35 0 c35 0 79 33
72 55 -6 17 -47 18 -53 1 -3 -9 -17 -16 -31 -16 l-25 0 7 85 c10 114 0 175
-27 175 -18 0 -19 -4 -13 -50z"/>
<path d="M3924 8645 c-4 -8 -3 -25 0 -38 43 -148 62 -269 49 -305 -9 -23 -10
-23 -37 19 -43 65 -113 201 -127 248 -16 54 -44 56 -58 4 -23 -90 -40 -191
-37 -224 9 -92 17 -119 37 -119 24 0 35 25 20 44 -15 18 -16 70 -3 145 6 35
13 65 14 67 2 1 23 -35 46 -80 55 -105 112 -181 136 -181 11 0 28 13 40 28 18
24 21 41 19 105 -1 43 -11 112 -21 155 -11 43 -18 87 -15 97 3 11 -4 24 -18
34 -29 20 -38 20 -45 1z"/>
<path d="M4395 8633 c4 -16 9 -58 12 -95 l5 -67 -44 -3 c-57 -4 -61 -32 -4
-36 l39 -3 -6 -55 c-6 -58 5 -113 25 -125 23 -14 27 2 21 87 l-5 85 50 -7 c79
-10 79 26 0 40 l-38 7 0 70 c0 75 -19 129 -46 129 -13 0 -15 -6 -9 -27z"/>
<path d="M3257 8644 c-3 -3 -14 -51 -24 -105 l-18 -99 -33 0 c-26 0 -33 -4
-30 -17 2 -11 14 -19 29 -21 24 -3 27 -8 32 -54 7 -56 29 -98 52 -98 19 0 19
9 0 53 -8 20 -15 52 -15 70 l0 34 88 17 c115 23 122 25 122 42 0 18 -35 18
-124 -1 -38 -8 -72 -13 -74 -10 -3 3 3 43 13 89 16 79 15 106 -4 106 -4 0 -10
-3 -14 -6z"/>
<path d="M2175 8611 c-3 -5 0 -21 7 -35 9 -21 8 -48 -5 -129 -25 -154 -24
-178 15 -207 76 -56 153 -14 173 93 6 33 4 40 -28 72 -40 40 -66 44 -92 15
-27 -30 -34 -13 -23 59 7 46 7 76 -1 103 -11 36 -33 49 -46 29z m150 -251 c12
-38 -56 -116 -79 -92 -13 12 -5 69 14 100 17 27 23 31 39 22 11 -5 23 -19 26
-30z"/>
<path d="M14285 8610 c-4 -6 -4 -33 0 -59 l7 -48 -76 -90 c-86 -103 -129 -138
-171 -141 -32 -2 -57 -27 -53 -52 2 -10 22 -17 65 -23 56 -7 73 -4 165 27 254
85 332 123 308 151 -8 10 -18 9 -47 -6 -21 -11 -43 -19 -50 -19 -7 0 -38 -13
-70 -29 -46 -23 -231 -91 -248 -91 -1 0 34 38 79 84 45 46 95 109 110 139 27
50 28 60 20 108 -9 51 -25 72 -39 49z"/>
<path d="M1811 8533 c-56 -57 -76 -112 -67 -176 22 -145 183 -196 295 -93 66
61 72 112 23 214 -39 80 -70 102 -144 102 -59 0 -62 -1 -107 -47z m167 -17
c21 -13 64 -108 65 -144 2 -67 -99 -128 -175 -106 -67 20 -96 109 -59 182 12
23 28 42 36 42 8 0 29 9 46 19 31 19 63 22 87 7z"/>
<path d="M6336 8568 c-5 -15 -14 -103 -22 -223 -6 -89 7 -130 41 -130 15 0 19
5 15 20 -2 11 -4 92 -5 179 0 118 -3 160 -12 163 -7 3 -15 -1 -17 -9z"/>
<path d="M6677 8554 c-4 -4 -7 -37 -7 -74 0 -36 -4 -70 -9 -75 -4 -6 -13 -31
-20 -57 -21 -88 -11 -128 32 -128 16 0 18 5 12 40 -6 34 -3 47 17 75 12 19 27
35 33 35 5 0 41 -32 78 -72 69 -73 96 -81 81 -25 -6 25 -27 47 -104 106 l-31
23 23 25 c13 14 40 34 61 44 39 20 47 36 23 45 -19 7 -69 -19 -118 -64 l-40
-36 3 69 c3 57 1 70 -11 73 -9 1 -19 0 -23 -4z"/>
<path d="M2482 8538 c-17 -17 -15 -58 2 -58 17 0 49 47 41 60 -8 14 -29 12
-43 -2z"/>
<path d="M5153 8524 c-3 -8 -1 -20 5 -26 13 -13 52 7 52 27 0 20 -49 19 -57
-1z"/>
<path d="M6500 8488 c0 -8 5 -19 12 -26 20 -20 40 -14 36 11 -3 25 -48 39 -48
15z"/>
<path d="M6973 8462 c-53 -41 -64 -133 -21 -187 16 -21 28 -25 68 -25 59 0
160 35 160 56 0 24 -26 27 -77 10 -72 -25 -111 -22 -124 10 -12 32 4 89 27 98
41 16 48 4 15 -24 -33 -28 -35 -50 -5 -50 20 0 74 54 74 74 0 23 -41 56 -69
56 -14 0 -36 -8 -48 -18z"/>
<path d="M2643 8454 c-80 -39 -84 -159 -5 -185 72 -24 199 8 165 42 -8 8 -16
8 -31 0 -23 -12 -105 -15 -115 -4 -4 4 12 16 35 28 57 28 71 65 39 99 -30 32
-52 37 -88 20z m67 -54 c0 -5 -11 -17 -26 -26 -31 -21 -56 -5 -34 21 14 17 60
21 60 5z"/>
<path d="M5658 8451 c-26 -13 -40 -15 -47 -8 -15 15 -26 1 -46 -63 -10 -30
-25 -65 -32 -77 -8 -12 -12 -27 -8 -33 13 -22 42 -8 68 33 42 64 79 104 106
112 22 7 23 5 17 -26 -3 -19 -9 -59 -12 -89 -5 -48 -3 -57 15 -74 16 -15 24
-16 35 -7 12 10 13 18 4 37 -8 18 -8 38 0 75 19 83 16 114 -13 127 -35 16 -45
15 -87 -7z"/>
<path d="M2906 8407 c-42 -51 -47 -94 -15 -123 43 -38 199 -11 182 32 -4 10
-14 13 -32 10 -116 -23 -132 -17 -110 41 12 32 20 39 49 43 48 7 47 34 -1 38
-33 3 -41 -2 -73 -41z"/>
<path d="M5340 8403 c-25 -39 -30 -56 -28 -93 2 -36 8 -47 30 -59 24 -14 29
-13 65 10 47 32 68 68 59 105 -8 31 -58 84 -79 84 -8 0 -29 -21 -47 -47z m70
-32 c13 -25 5 -46 -26 -66 -23 -15 -24 -15 -24 9 0 29 19 76 31 76 5 0 13 -9
19 -19z"/>
<path d="M4117 8415 c-8 -8 -18 -38 -22 -67 -7 -48 -5 -54 19 -75 20 -17 34
-21 59 -16 46 8 77 30 77 54 0 22 -38 99 -55 111 -17 13 -63 9 -78 -7z m73
-70 c0 -2 3 -10 6 -19 5 -13 -1 -16 -25 -16 -31 0 -38 11 -25 44 5 12 10 13
25 5 10 -5 19 -11 19 -14z"/>
<path d="M4592 8408 c-6 -6 -12 -29 -12 -50 0 -45 34 -74 78 -65 20 4 34 -1
55 -21 25 -24 28 -25 44 -9 16 15 13 21 -44 84 -61 69 -96 86 -121 61z m58
-53 c10 -12 10 -15 -4 -15 -9 0 -16 7 -16 15 0 8 2 15 4 15 2 0 9 -7 16 -15z"/>
<path d="M2457 8404 c-4 -4 -4 -40 0 -80 6 -75 -5 -140 -34 -204 -21 -47 -20
-46 -42 -19 -15 18 -22 21 -31 13 -31 -31 31 -111 68 -88 29 18 50 65 65 144
24 121 25 132 13 184 -10 47 -24 64 -39 50z"/>
<path d="M6486 8382 c-3 -5 -10 -39 -16 -76 -8 -52 -8 -72 1 -82 27 -33 37 -3
42 125 2 32 -15 53 -27 33z"/>
<path d="M5129 8364 c-36 -43 2 -147 40 -109 13 13 13 17 -2 33 -14 15 -16 25
-7 46 16 43 -4 62 -31 30z"/>
<path d="M5993 8263 c-7 -2 -13 -19 -13 -37 0 -46 -57 -157 -78 -154 -12 2
-18 -5 -20 -23 -4 -33 22 -45 52 -25 30 19 72 102 81 156 4 25 12 50 17 57 19
23 -6 40 -39 26z"/>
<path d="M1736 8029 c-30 -23 -46 -56 -39 -76 3 -7 34 -33 69 -58 53 -38 64
-51 64 -74 0 -36 -21 -54 -52 -46 -27 7 -78 50 -78 65 0 16 -40 11 -46 -5 -15
-37 86 -115 148 -115 39 0 78 51 78 102 0 34 -6 46 -35 74 -20 18 -49 41 -65
51 -34 20 -34 33 -1 49 16 8 34 9 58 2 36 -10 61 0 49 20 -6 10 -82 32 -109
32 -8 0 -27 -10 -41 -21z"/>
<path d="M2063 7964 c-20 -8 -63 -110 -63 -147 0 -71 82 -101 151 -54 64 43
63 107 -3 147 -18 11 -33 28 -33 37 0 18 -28 27 -52 17z m55 -94 c38 -23 41
-43 10 -64 -52 -37 -101 -2 -79 57 12 32 25 34 69 7z"/>
<path d="M2390 7879 c-31 -13 -70 -49 -70 -65 0 -25 21 -25 45 0 45 49 117 47
181 -7 115 -94 194 -213 194 -288 0 -54 -41 -141 -153 -323 -90 -148 -129
-254 -135 -372 -5 -106 6 -150 50 -200 32 -36 68 -45 68 -18 0 9 -13 31 -30
50 -35 41 -44 83 -37 177 7 112 57 234 162 398 112 173 143 270 115 355 -7 22
-35 72 -63 112 -101 147 -231 219 -327 181z"/>
<path d="M3304 6676 c-49 -22 -69 -109 -43 -185 16 -45 5 -81 -25 -81 -26 0
-87 -38 -94 -58 -2 -8 9 -18 28 -25 20 -8 29 -17 26 -27 -2 -8 -16 -46 -30
-85 -31 -85 -32 -114 -5 -149 26 -34 68 -34 141 -2 51 23 67 42 68 79 0 12
-38 8 -47 -5 -11 -17 -78 -48 -104 -48 -39 0 -35 30 23 191 13 36 37 82 52
102 30 39 30 48 10 154 -3 18 -3 44 0 58 7 28 48 55 54 36 5 -14 29 -15 37 -1
10 16 -23 60 -43 60 -9 -1 -31 -7 -48 -14z"/>
<path d="M2725 6640 c-3 -5 -15 -10 -26 -10 -11 0 -23 -8 -26 -17 -12 -31 -94
-97 -122 -98 -19 0 -27 -6 -29 -22 -4 -26 25 -38 67 -28 17 3 32 2 36 -4 3 -6
21 -11 40 -11 22 0 43 -9 61 -25 15 -14 30 -25 34 -25 14 0 32 29 25 40 -11
18 -17 62 -19 137 -1 61 -4 73 -18 73 -9 0 -20 -4 -23 -10z"/>
<path d="M9607 6273 c-2 -5 -5 -23 -5 -41 0 -18 -4 -46 -7 -62 -6 -29 9 -50
26 -33 15 15 28 106 18 125 -10 19 -25 23 -32 11z"/>
<path d="M6556 6251 c-11 -17 -19 -99 -12 -126 4 -17 12 -25 23 -23 13 2 16
18 17 77 1 48 -3 76 -11 78 -6 2 -14 0 -17 -6z"/>
<path d="M9546 6243 c-21 -21 -35 -75 -26 -99 13 -32 57 -31 52 1 -4 22 -4 50
0 79 3 20 -13 32 -26 19z"/>
<path d="M6489 6238 c0 -1 -6 -34 -13 -72 -10 -58 -10 -70 2 -83 23 -22 31 -3
34 76 2 52 -1 75 -9 78 -7 3 -13 3 -14 1z"/>
<path d="M3947 6223 c-3 -4 -9 -25 -15 -45 -9 -32 -7 -41 9 -62 12 -15 26 -23
34 -19 17 6 20 39 5 48 -6 4 -9 23 -8 42 3 33 -13 56 -25 36z"/>
<path d="M5857 6224 c-8 -9 4 -107 16 -121 16 -21 27 -4 27 43 0 61 -21 99
-43 78z"/>
<path d="M3867 6203 c-25 -42 -11 -147 16 -124 16 12 16 123 0 128 -6 2 -13 0
-16 -4z"/>
<path d="M5790 6185 c-21 -54 -22 -72 -5 -89 10 -9 25 -16 34 -14 21 4 28 38
7 38 -12 0 -13 5 -4 30 18 53 -13 86 -32 35z"/>
<path d="M5155 6119 c-8 -12 23 -49 42 -49 14 0 17 18 7 44 -7 18 -39 21 -49
5z"/>
<path d="M4119 6020 c-20 -67 21 -174 79 -204 46 -24 68 -2 81 81 17 117 3
184 -33 154 -10 -9 -14 -31 -13 -79 2 -128 -24 -141 -62 -31 -16 47 -17 59 -6
59 23 0 28 20 9 41 -26 29 -42 23 -55 -21z"/>
<path d="M7144 6043 c-23 -72 -22 -71 -65 -60 -34 8 -43 7 -60 -9 -50 -45 -66
-133 -30 -156 18 -11 18 -13 -5 -47 -13 -20 -26 -51 -30 -69 -6 -28 -4 -32 15
-32 13 0 21 6 21 17 0 9 11 36 25 60 24 41 28 43 71 43 64 0 104 23 104 60 0
16 -10 41 -23 56 l-24 27 20 48 c20 46 18 79 -3 79 -6 0 -13 -8 -16 -17z m-54
-118 c0 -13 -46 -75 -56 -75 -16 0 -25 40 -13 62 9 16 69 28 69 13z m46 -74
c-7 -11 -46 -16 -46 -6 0 3 6 14 12 25 11 17 15 18 26 6 8 -8 11 -19 8 -25z"/>
<path d="M9357 6043 c-10 -16 -7 -235 3 -274 11 -41 34 -59 52 -41 7 7 7 20 0
44 -6 18 -12 87 -14 153 -3 102 -5 120 -20 123 -9 2 -18 -1 -21 -5z"/>
<path d="M4386 6018 c-28 -39 -48 -117 -41 -155 9 -49 46 -83 87 -82 56 1 123
23 123 39 0 12 -13 14 -65 12 -70 -3 -84 2 -94 33 -5 17 0 23 31 34 48 18 85
55 76 78 -21 60 -88 83 -117 41z m63 -42 c10 -12 7 -18 -18 -30 l-30 -16 11
30 c11 33 20 37 37 16z"/>
<path d="M7590 6028 c-45 -12 -90 -55 -90 -85 0 -33 47 -55 91 -43 19 6 34 10
34 10 0 0 -1 -35 -3 -77 -3 -58 0 -83 12 -98 25 -34 41 -5 38 68 -2 34 2 82 8
107 30 113 5 145 -90 118z m54 -42 c-6 -17 -58 -40 -75 -34 -13 4 48 48 68 48
7 0 10 -6 7 -14z"/>
<path d="M9075 6031 c-26 -11 -68 -68 -60 -81 10 -16 29 -11 54 15 24 26 46
32 55 16 9 -14 -67 -123 -118 -169 -26 -23 -46 -48 -44 -55 2 -6 18 -19 35
-28 26 -13 42 -14 100 -5 75 12 125 37 108 54 -7 7 -37 6 -93 -2 l-82 -12 38
41 c88 91 132 186 100 213 -20 16 -69 23 -93 13z"/>
<path d="M4682 6018 c-14 -18 -32 -87 -32 -124 0 -36 31 -81 48 -70 7 4 12 35
12 76 0 38 4 72 10 75 5 3 21 -1 34 -10 47 -31 64 9 20 44 -30 23 -76 28 -92
9z"/>
<path d="M4905 6007 c-79 -45 -83 -109 -10 -144 19 -9 35 -21 35 -26 0 -5 -6
-4 -14 2 -20 16 -44 -14 -29 -37 15 -25 46 -26 77 -1 42 33 33 68 -26 96 -27
13 -48 27 -48 32 0 14 64 59 91 63 13 1 24 10 24 18 0 24 -55 23 -100 -3z"/>
<path d="M6705 6007 c-29 -16 -41 -30 -43 -50 -3 -24 0 -27 28 -27 23 0 33 5
37 20 6 24 31 27 40 5 4 -11 -18 -41 -66 -89 -76 -79 -91 -118 -51 -131 44
-14 180 25 180 51 0 16 -45 18 -103 5 l-39 -9 66 68 c76 79 83 105 37 151 -35
35 -35 35 -86 6z"/>
<path d="M8340 6009 c-9 -16 -17 -19 -40 -14 -39 8 -105 -26 -126 -66 -20 -40
-23 -109 -5 -142 12 -23 11 -30 -8 -63 -21 -36 -22 -64 -2 -64 6 0 22 20 37
45 24 42 29 45 67 45 101 0 154 83 110 175 -14 29 -15 38 -4 59 13 24 9 46 -9
46 -5 0 -14 -9 -20 -21z m-62 -91 c-8 -13 -25 -43 -38 -67 -18 -37 -24 -42
-32 -28 -12 22 8 93 30 106 9 6 25 11 36 11 17 0 17 -2 4 -22z m62 -54 c0 -30
-21 -53 -58 -64 -26 -7 -32 -6 -25 3 5 7 22 34 37 61 29 49 45 49 46 0z"/>
<path d="M8566 5998 c-9 -18 -36 -59 -62 -90 -58 -72 -55 -91 15 -86 l48 3 17
-53 c9 -29 16 -60 16 -68 0 -9 7 -14 18 -12 18 4 21 47 7 118 -6 32 -5 36 24
47 18 6 31 18 31 28 0 14 -6 16 -35 11 -31 -6 -35 -4 -41 19 -4 15 -2 31 5 38
15 15 14 50 -1 65 -19 19 -27 15 -42 -20z m4 -102 c0 -8 -7 -16 -15 -20 -12
-4 -13 -2 -2 14 14 24 17 25 17 6z"/>
<path d="M5563 5998 c-15 -13 -37 -28 -48 -34 -27 -14 -59 -112 -44 -131 19
-21 34 -15 47 20 6 17 23 45 36 62 l24 30 11 -42 c7 -24 23 -51 38 -62 30 -24
85 -27 103 -6 10 12 8 16 -15 25 -14 5 -32 10 -39 10 -24 0 -39 30 -42 83 -1
29 -3 55 -3 60 -2 15 -40 6 -68 -15z"/>
<path d="M6206 5994 c-8 -31 4 -47 30 -42 29 5 26 62 -2 66 -16 2 -23 -4 -28
-24z"/>
<path d="M7362 5987 c-31 -37 -45 -209 -19 -234 24 -25 51 -9 42 25 -10 35 -8
85 6 145 15 65 0 99 -29 64z"/>
<path d="M5280 5958 c-58 -95 -23 -181 63 -157 21 5 44 21 54 35 15 23 15 28
-1 61 -9 19 -14 43 -11 53 7 22 -20 40 -59 40 -19 0 -32 -9 -46 -32z m65 -68
c15 -29 15 -31 -7 -39 -31 -12 -41 1 -33 38 8 39 20 39 40 1z"/>
<path d="M5133 5958 c-17 -21 -1 -102 20 -106 16 -3 18 3 15 54 -3 57 -16 76
-35 52z"/>
<path d="M8817 5894 c-44 -24 -28 -38 44 -39 69 -1 87 9 62 37 -20 22 -68 23
-106 2z"/>
<path d="M6185 5880 c-9 -14 34 -92 48 -87 18 6 10 68 -11 83 -21 16 -29 17
-37 4z"/>
<path d="M7935 5878 c-10 -6 -33 -14 -50 -18 -17 -3 -30 -12 -30 -20 0 -16 28
-17 123 -4 54 7 64 18 35 40 -22 16 -52 17 -78 2z"/>
<path d="M9678 5715 c-3 -3 -3 -27 -1 -53 l4 -47 -60 -39 c-60 -38 -75 -61
-46 -72 17 -7 109 49 130 79 32 46 7 166 -27 132z"/>
<path d="M4186 5633 c-11 -37 -5 -123 9 -123 21 0 26 15 28 77 2 47 -1 58 -15
61 -9 2 -19 -5 -22 -15z"/>
<path d="M4270 5605 c-15 -40 -12 -70 9 -96 16 -19 22 -21 32 -12 10 10 10 17
0 35 -6 13 -10 38 -9 57 4 42 -18 53 -32 16z"/>
<path d="M7230 5555 c-14 -37 -13 -57 6 -83 12 -18 19 -20 30 -11 10 8 11 16
4 30 -6 10 -9 32 -8 50 4 40 -18 50 -32 14z"/>
<path d="M7878 5569 c-5 -3 -12 -61 -14 -128 -4 -100 -1 -135 15 -199 11 -42
22 -88 23 -102 4 -30 18 -30 132 -2 85 22 116 41 94 59 -9 7 -37 6 -95 -6
l-81 -17 -19 61 c-23 76 -25 271 -2 286 25 15 101 11 114 -8 14 -19 35 -10 35
16 0 39 -33 53 -115 49 -42 -2 -81 -6 -87 -9z"/>
<path d="M7162 5518 c2 -32 8 -44 21 -46 16 -3 18 2 15 40 -2 32 -8 44 -21 46
-16 3 -18 -2 -15 -40z"/>
<path d="M4798 5536 c-53 -19 -81 -39 -98 -70 -12 -24 -12 -31 0 -53 16 -26
29 -35 122 -78 58 -27 98 -72 98 -112 0 -40 -94 -57 -151 -28 -23 13 -29 22
-27 43 4 38 -26 41 -41 3 -17 -39 -2 -65 49 -91 69 -35 184 -18 211 31 14 26
-5 90 -38 129 -14 17 -61 52 -104 77 -51 30 -76 50 -72 59 6 15 88 64 108 64
8 0 22 -12 33 -27 19 -26 42 -25 42 3 0 23 -46 64 -72 64 -13 -1 -40 -7 -60
-14z"/>
<path d="M5554 5479 c4 -30 10 -73 13 -96 l5 -42 -43 -3 c-31 -2 -44 -7 -44
-18 0 -10 13 -16 42 -18 28 -2 40 -7 37 -15 -9 -25 11 -92 30 -95 15 -3 18 2
16 40 -4 70 -2 75 31 82 39 8 38 43 -2 38 -24 -3 -25 0 -39 85 -12 72 -18 89
-34 91 -17 4 -18 0 -12 -49z"/>
<path d="M6900 5485 c-5 -14 -10 -33 -10 -41 0 -35 -20 -54 -58 -54 -41 0 -79
-21 -69 -37 4 -6 25 -8 49 -6 l43 5 -3 -46 c-5 -55 12 -103 39 -111 18 -6 81
0 120 11 22 6 31 40 14 54 -9 8 -17 7 -28 -4 -8 -9 -35 -17 -58 -18 l-44 -3
-3 45 c-1 25 2 51 6 58 5 7 35 17 67 22 63 10 86 23 69 40 -6 6 -30 6 -62 1
l-53 -8 7 31 c12 48 10 79 -3 83 -7 3 -17 -7 -23 -22z"/>
<path d="M5063 5479 c-8 -8 -7 -21 3 -45 8 -18 14 -44 14 -58 0 -22 -5 -25
-42 -28 -57 -4 -60 -32 -5 -36 l37 -3 0 -65 c0 -70 20 -124 46 -124 13 0 15 6
9 28 -4 15 -9 60 -12 100 l-5 72 55 0 c33 0 59 5 66 13 16 21 3 27 -56 27 -49
0 -53 2 -53 24 0 26 -25 92 -38 100 -5 3 -14 0 -19 -5z"/>
<path d="M7490 5365 c0 -20 4 -26 18 -23 9 2 17 12 17 23 0 11 -8 21 -17 23
-14 3 -18 -3 -18 -23z"/>
<path d="M5271 5295 c-37 -42 -38 -58 -10 -86 17 -17 28 -20 63 -15 38 6 43 4
59 -24 17 -28 36 -38 50 -24 7 8 -39 93 -60 110 -7 6 -13 18 -13 26 0 17 -31
48 -47 48 -6 0 -25 -16 -42 -35z m54 -46 c-4 -5 -13 -9 -22 -9 -13 0 -13 3 -3
15 13 15 35 11 25 -6z"/>
<path d="M5766 5290 c-20 -22 -36 -47 -36 -56 0 -33 31 -73 73 -93 52 -25 117
-28 117 -6 0 17 -7 20 -62 30 -20 3 -47 14 -60 24 l-23 19 38 15 c32 14 37 20
37 49 0 35 -15 58 -36 58 -6 0 -28 -18 -48 -40z"/>
<path d="M6042 5306 c-14 -19 -22 -22 -31 -13 -22 22 -34 -6 -21 -53 6 -23 8
-55 5 -71 -5 -22 -3 -31 11 -36 23 -9 41 18 54 83 14 66 30 70 30 9 0 -54 17
-59 70 -20 l33 25 17 -28 c25 -41 46 -54 82 -50 43 4 51 34 11 44 -44 11 -53
23 -53 76 0 66 -22 75 -63 25 -30 -39 -47 -47 -47 -23 0 17 -46 56 -66 56 -7
0 -21 -11 -32 -24z"/>
<path d="M6383 5308 c-49 -54 -57 -76 -44 -119 14 -48 59 -79 113 -79 48 0 88
16 88 35 0 13 -9 14 -55 9 -45 -6 -59 -4 -75 11 -29 26 -25 45 9 45 42 0 56
22 45 73 -7 35 -13 43 -34 45 -17 2 -33 -5 -47 -20z m47 -43 c0 -8 -7 -15 -16
-15 -14 0 -14 3 -4 15 7 8 14 15 16 15 2 0 4 -7 4 -15z"/>
<path d="M6599 5281 c-33 -32 -39 -45 -39 -80 0 -58 23 -54 55 9 28 55 45 57
45 6 0 -43 27 -109 43 -103 22 7 6 167 -19 192 -24 23 -43 18 -85 -24z"/>
<path d="M7500 5230 c0 -13 7 -20 20 -20 13 0 20 7 20 20 0 13 -7 20 -20 20
-13 0 -20 -7 -20 -20z"/>
<path d="M10182 5097 c-31 -37 -26 -127 6 -127 15 0 19 9 19 48 1 26 2 56 4
66 5 23 -14 32 -29 13z"/>
<path d="M10084 5033 c-13 -32 -24 -66 -22 -77 4 -26 26 -32 34 -9 3 10 15 40
26 66 19 48 19 77 -2 77 -6 0 -22 -26 -36 -57z"/>
<path d="M10956 5063 c-33 -65 -28 -133 10 -133 12 0 15 6 10 24 -3 14 1 46 9
71 15 44 14 65 -5 65 -5 0 -16 -12 -24 -27z"/>
<path d="M11065 5049 c-19 -36 -23 -85 -7 -101 16 -16 31 -1 30 30 -1 15 5 38
11 51 13 24 9 51 -8 51 -6 0 -18 -14 -26 -31z"/>
<path d="M12547 5073 c-3 -5 -4 -28 -3 -53 2 -75 28 -92 40 -26 10 50 -19 109
-37 79z"/>
<path d="M12477 5003 c-8 -35 -2 -96 10 -100 17 -6 31 34 29 77 -2 38 -31 55
-39 23z"/>
<path d="M7757 4994 c-14 -14 -7 -101 8 -114 25 -21 34 0 27 59 -7 51 -19 71
-35 55z"/>
<path d="M11572 4983 c-29 -56 -60 -338 -39 -359 4 -4 13 -1 22 6 11 9 15 34
15 105 0 59 7 120 20 170 11 42 17 81 14 86 -8 14 -23 10 -32 -8z"/>
<path d="M7840 4965 c-22 -26 5 -95 37 -95 11 0 13 6 8 23 -4 12 -8 35 -9 51
-1 34 -17 43 -36 21z"/>
<path d="M8597 4953 c-33 -35 -49 -108 -42 -187 20 -209 20 -211 36 -214 13
-2 18 9 23 51 4 30 4 66 0 81 -6 24 -3 26 22 26 36 0 58 13 52 31 -3 9 -17 13
-41 11 -32 -3 -37 0 -43 22 -3 15 -3 47 1 72 13 89 37 113 76 78 17 -16 39
-12 39 7 0 5 -9 18 -20 29 -29 29 -71 26 -103 -7z"/>
<path d="M9670 4922 c0 -33 -3 -73 -6 -90 -6 -29 -10 -31 -53 -34 -60 -4 -65
-31 -6 -38 l40 -5 3 -59 c4 -70 16 -106 37 -106 18 0 18 8 4 83 -12 66 -5 97
20 97 45 0 161 33 161 45 0 23 -14 25 -86 9 -38 -7 -71 -14 -74 -14 -3 0 -6
37 -5 82 0 71 -2 83 -17 86 -16 3 -18 -5 -18 -56z"/>
<path d="M11351 4954 c-29 -24 -111 -172 -111 -199 0 -7 -16 -36 -36 -65 -25
-36 -33 -55 -25 -63 14 -14 37 6 78 71 33 50 35 52 80 52 45 0 45 0 40 -30 -5
-23 -2 -32 14 -41 35 -18 41 2 40 118 -2 112 -7 149 -24 171 -14 17 -21 15
-56 -14z m29 -104 l0 -60 -35 0 c-19 0 -35 3 -35 8 0 10 59 112 65 112 3 0 5
-27 5 -60z"/>
<path d="M11731 4952 c-18 -34 -24 -146 -11 -223 15 -90 26 -115 44 -99 11 9
11 23 -1 83 -9 46 -12 96 -8 137 10 109 10 113 -2 117 -6 2 -16 -4 -22 -15z"/>
<path d="M8882 4923 c-42 -21 -55 -45 -50 -99 3 -37 0 -44 -17 -46 -34 -5 -23
-33 15 -38 l35 -5 0 -55 c-1 -30 -4 -77 -9 -103 -8 -45 -7 -49 10 -45 24 4 46
93 41 165 l-4 53 36 6 c59 10 71 15 71 29 0 22 -12 24 -64 13 -53 -11 -61 -7
-69 39 -6 28 -2 34 29 52 33 20 41 41 18 48 -5 1 -24 -5 -42 -14z"/>
<path d="M8355 4909 c-55 -17 -115 -27 -115 -18 0 20 -40 8 -44 -13 -19 -89
-22 -121 -16 -166 6 -47 4 -51 -14 -54 -12 -2 -21 -10 -21 -18 0 -23 248 -21
253 2 4 22 -38 31 -106 22 -60 -7 -72 0 -72 47 0 30 25 39 112 39 42 0 49 3
46 18 -3 14 -15 17 -81 16 l-78 0 6 25 c4 14 7 27 8 27 7 6 176 44 193 44 28
0 42 19 23 31 -18 11 -55 10 -94 -2z"/>
<path d="M12291 4846 c-10 -11 -8 -23 9 -56 22 -43 21 -90 -1 -90 -7 0 -9 10
-5 24 9 35 -18 55 -43 32 -10 -9 -35 -20 -55 -23 -41 -6 -47 7 -21 44 16 23
11 53 -10 53 -15 0 -55 -77 -55 -107 0 -33 25 -46 79 -41 39 4 50 1 60 -14 15
-24 66 -23 91 2 32 32 34 65 10 130 -23 60 -38 72 -59 46z"/>
<path d="M10394 4839 c-9 -15 12 -33 30 -26 9 4 16 13 16 22 0 17 -35 21 -46
4z"/>
<path d="M11911 4784 c-29 -37 -28 -98 1 -118 27 -19 89 -21 106 -4 20 20 13
58 -20 104 -36 51 -58 55 -87 18z m79 -81 c0 -18 -49 -16 -56 2 -4 8 -3 27 1
42 l6 27 24 -30 c13 -16 24 -35 25 -41z"/>
<path d="M9105 4762 c-16 -11 -41 -40 -54 -66 -19 -40 -21 -52 -12 -72 13 -30
67 -54 120 -54 73 0 59 33 -18 43 -54 7 -71 21 -29 24 33 3 74 34 83 64 6 19
-10 59 -29 71 -17 12 -28 10 -61 -10z m48 -34 c7 -21 -12 -48 -33 -48 -24 0
-26 17 -3 42 19 21 30 23 36 6z"/>
<path d="M9344 4761 c-67 -41 -82 -95 -37 -131 21 -17 38 -20 82 -18 42 2 56
7 56 18 0 10 -15 17 -49 22 -63 9 -74 20 -52 52 15 24 29 30 81 38 11 2 20 10
20 18 0 23 -64 24 -101 1z"/>
<path d="M10325 4729 c-8 -26 0 -35 43 -44 28 -6 32 -4 32 14 0 12 -6 21 -15
21 -8 0 -15 7 -15 15 0 23 -38 18 -45 -6z"/>
<path d="M12521 4603 c-13 -43 -37 -75 -69 -92 -25 -13 -30 -51 -7 -51 41 0
139 139 120 170 -13 21 -32 9 -44 -27z"/>
<path d="M7726 4488 c-4 -24 -10 -58 -13 -75 -7 -47 4 -85 24 -81 12 2 17 17
20 58 1 30 4 73 5 95 2 30 -1 40 -13 43 -12 2 -18 -8 -23 -40z"/>
<path d="M8660 4508 c-1 -2 -2 -39 -4 -83 -2 -44 -7 -102 -11 -128 l-7 -48
-42 3 c-52 4 -58 -22 -8 -37 30 -9 33 -12 28 -40 -7 -45 7 -110 24 -110 12 0
15 14 15 62 0 34 4 65 8 70 5 4 43 10 85 13 60 4 77 8 77 20 0 12 -15 15 -76
15 l-76 0 7 25 c15 52 22 198 10 219 -9 17 -29 29 -30 19z"/>
<path d="M10687 4504 c-3 -3 -38 -9 -79 -12 l-73 -7 -12 -60 c-7 -33 -24 -127
-39 -208 -33 -184 -35 -180 93 -182 98 -2 113 1 113 21 0 22 -46 35 -103 29
-74 -8 -79 -2 -61 75 8 36 21 110 29 164 8 54 18 103 22 107 5 5 42 10 83 13
65 3 75 6 84 25 7 17 6 25 -5 32 -16 10 -43 12 -52 3z"/>
<path d="M7791 4461 c-16 -28 -14 -134 2 -156 24 -31 32 -10 31 81 -1 89 -12
115 -33 75z"/>
<path d="M8101 4424 c-17 -26 -44 -81 -62 -123 -40 -97 -65 -140 -98 -168 -20
-18 -23 -25 -14 -34 21 -21 58 5 92 65 18 30 37 53 44 51 7 -2 24 -6 40 -9 18
-5 27 -13 27 -27 0 -26 37 -99 51 -99 19 0 22 34 6 62 -22 38 -21 51 2 43 10
-3 24 1 31 10 11 13 8 17 -18 27 -32 12 -32 12 -24 68 4 30 7 82 7 115 0 58
-1 60 -27 63 -23 3 -32 -4 -57 -44z m44 -69 c-11 -103 -15 -111 -53 -105 l-33
5 40 83 c22 45 43 82 47 82 3 0 3 -29 -1 -65z"/>
<path d="M9703 4434 c-10 -28 10 -98 31 -102 16 -4 17 1 11 50 -4 29 -9 56
-12 61 -7 12 -23 8 -30 -9z"/>
<path d="M9605 4394 c-3 -21 -2 -41 4 -47 12 -12 45 -1 36 13 -3 5 -2 18 3 27
12 24 4 43 -18 43 -13 0 -20 -10 -25 -36z"/>
<path d="M8953 4334 c-3 -8 1 -23 10 -32 15 -14 17 -14 23 1 8 21 -1 47 -16
47 -6 0 -13 -7 -17 -16z"/>
<path d="M10164 4286 c-8 -22 3 -49 19 -43 6 2 12 14 12 27 0 27 -22 39 -31
16z"/>
<path d="M8345 4264 c-35 -38 -50 -98 -34 -136 20 -49 100 -72 164 -48 36 14
26 35 -16 36 -63 1 -78 4 -93 20 -33 33 -9 109 37 116 32 4 28 32 -5 36 -20 2
-35 -4 -53 -24z"/>
<path d="M9298 4248 c-13 -18 -29 -33 -37 -33 -9 0 -20 -21 -28 -55 -21 -83
-21 -95 2 -95 14 0 29 18 52 63 58 112 59 112 77 50 18 -62 49 -99 68 -80 10
10 9 20 -1 45 -7 17 -18 50 -23 72 -14 53 -25 65 -59 65 -21 0 -34 -9 -51 -32z"/>
<path d="M9073 4240 c-57 -34 -79 -103 -47 -149 15 -20 23 -23 66 -19 66 7 91
32 91 92 0 53 -25 96 -56 96 -12 0 -36 -9 -54 -20z m48 -51 c15 -7 18 -16 13
-32 -8 -27 -22 -37 -51 -37 -27 0 -30 25 -7 58 17 25 19 26 45 11z"/>
<path d="M8875 4218 c-10 -33 -24 -153 -17 -160 17 -17 33 13 43 76 6 37 8 74
5 82 -7 17 -25 18 -31 2z"/>
<path d="M10113 4133 c-7 -2 -13 -14 -13 -24 0 -16 6 -20 28 -17 19 2 27 9 27
23 0 20 -19 28 -42 18z"/>
<path d="M13010 3989 c0 -80 15 -101 64 -85 32 10 34 12 39 71 6 61 -4 88 -24
68 -5 -5 -13 -36 -16 -67 -7 -69 -21 -61 -25 14 -2 43 -7 56 -20 58 -16 3 -18
-5 -18 -59z"/>
<path d="M11687 3954 c-4 -4 -4 -44 -1 -90 5 -62 2 -101 -11 -157 l-18 -76 29
-25 c39 -34 60 -40 95 -25 34 14 56 49 65 107 5 32 2 44 -15 61 -25 25 -49 27
-79 5 l-22 -15 -1 78 c-1 43 -4 91 -8 107 -6 29 -21 42 -34 30z m113 -241 c0
-5 -5 -24 -10 -45 -11 -39 -35 -55 -56 -37 -11 9 -8 18 17 50 28 36 49 49 49
32z"/>
<path d="M12674 3936 c-3 -8 -3 -19 0 -24 3 -6 3 -24 0 -40 -5 -26 -12 -31
-38 -34 -40 -4 -43 -32 -3 -36 25 -3 27 -6 27 -52 0 -40 5 -55 29 -82 16 -18
43 -38 60 -45 27 -10 32 -9 41 8 9 16 7 21 -12 28 -38 15 -68 55 -70 93 -2 49
7 58 56 58 24 0 64 3 90 6 36 5 46 11 46 26 0 17 -6 18 -82 12 -46 -3 -88 -7
-95 -9 -9 -3 -12 11 -10 48 2 42 -1 52 -16 55 -9 2 -20 -3 -23 -12z"/>
<path d="M11207 3934 c-3 -4 -3 -42 0 -85 l6 -78 -49 -3 c-36 -2 -49 -7 -49
-18 0 -11 13 -16 43 -18 37 -3 42 -6 36 -20 -5 -9 -8 -44 -9 -77 0 -47 3 -60
15 -60 11 0 19 21 28 77 l14 77 41 3 c56 4 59 32 5 36 l-38 3 -1 57 c-1 85
-19 129 -42 106z"/>
<path d="M10653 3914 c-28 -7 -49 -32 -37 -44 6 -6 23 -6 44 1 21 6 66 7 110
3 l75 -6 -25 -19 c-14 -10 -37 -27 -52 -39 -36 -28 -68 -27 -65 2 1 17 -4 24
-20 26 -17 3 -23 -2 -23 -16 0 -15 -5 -19 -19 -15 -41 11 -36 -37 6 -56 23
-11 25 -15 18 -59 -3 -26 -13 -57 -21 -69 -20 -31 -18 -43 9 -43 30 0 49 33
56 99 6 50 8 55 36 63 33 9 116 80 134 115 10 19 8 24 -11 37 -23 15 -174 29
-215 20z"/>
<path d="M12020 3905 c-14 -16 -10 -47 6 -52 17 -6 44 25 38 42 -8 20 -31 26
-44 10z"/>
<path d="M9507 3894 c-11 -11 -8 -113 3 -135 14 -26 50 -25 50 1 0 11 -4 20
-10 20 -5 0 -10 26 -12 57 -3 52 -14 73 -31 57z"/>
<path d="M9410 3854 c-20 -51 -5 -99 26 -87 21 8 19 113 -1 113 -9 0 -20 -12
-25 -26z"/>
<path d="M9831 3812 c-19 -9 -39 -25 -45 -34 -16 -27 5 -69 49 -99 45 -31 53
-62 17 -67 -27 -4 -51 18 -49 44 1 10 -6 20 -15 22 -27 5 -33 -39 -10 -79 16
-29 25 -34 60 -37 34 -3 47 2 67 22 45 45 27 92 -55 148 -24 17 -25 18 -6 33
29 22 47 19 72 -12 17 -21 25 -25 34 -17 23 23 -31 94 -72 94 -7 0 -28 -8 -47
-18z"/>
<path d="M10133 3805 c-32 -13 -43 -38 -24 -49 5 -3 22 1 37 9 16 8 40 15 54
15 l25 -1 -30 -25 c-16 -14 -40 -29 -52 -34 -23 -10 -31 -44 -13 -55 5 -3 18
-2 27 4 19 9 53 -7 53 -25 0 -20 -43 -35 -81 -29 -35 6 -39 5 -39 -14 0 -23
33 -41 75 -41 28 0 80 42 88 70 3 13 -3 30 -17 47 l-22 25 29 31 c19 20 27 39
25 56 -3 24 -7 26 -53 28 -27 2 -65 -4 -82 -12z"/>
<path d="M12124 3782 c-45 -36 -57 -99 -28 -140 20 -29 85 -62 124 -62 23 0
30 4 30 20 0 11 -7 20 -15 20 -19 0 -91 36 -100 50 -3 6 0 7 10 4 9 -4 30 5
50 20 26 20 35 35 35 56 0 48 -63 67 -106 32z m66 -42 c0 -5 -13 -16 -30 -25
-32 -17 -40 -6 -14 19 17 18 44 21 44 6z"/>
<path d="M11430 3767 c-54 -42 -66 -112 -25 -152 41 -42 128 -31 161 20 46 70
-71 184 -136 132z m74 -58 c14 -11 26 -27 26 -34 0 -20 -36 -37 -68 -33 -33 4
-42 40 -16 69 21 24 25 24 58 -2z"/>
<path d="M12393 3741 c-48 -30 -68 -66 -55 -96 16 -35 55 -56 108 -58 34 -2
49 3 57 15 15 23 5 30 -48 33 -25 1 -53 8 -61 16 -13 13 -11 18 11 39 15 14
34 25 43 25 10 0 17 8 17 20 0 27 -32 30 -72 6z"/>
<path d="M11934 3717 c-3 -8 2 -30 11 -48 22 -41 14 -105 -19 -161 -21 -35
-25 -38 -34 -23 -15 29 -40 12 -34 -23 5 -37 35 -67 57 -58 9 3 30 36 47 73
36 78 43 168 18 217 -17 34 -38 44 -46 23z"/>
<path d="M10833 3703 c-4 -10 -7 -44 -8 -75 0 -46 4 -60 20 -72 27 -21 49 -20
94 4 46 23 53 38 45 91 -5 30 -11 39 -27 39 -17 0 -19 -5 -14 -40 5 -37 3 -42
-25 -56 -48 -25 -60 -13 -56 57 2 43 -1 63 -9 66 -7 3 -16 -4 -20 -14z"/>
<path d="M13160 3634 c-6 -14 -10 -28 -10 -30 0 -3 -15 -24 -34 -47 -18 -23
-39 -52 -45 -65 -14 -27 -8 -52 12 -52 26 0 135 189 121 211 -11 18 -35 9 -44
-17z"/>
<path d="M10372 3598 c4 -27 18 -32 42 -15 24 17 13 37 -20 37 -20 0 -25 -4
-22 -22z"/>
<path d="M9353 3503 c-4 -10 -7 -38 -8 -63 0 -38 3 -45 19 -45 16 0 19 9 22
63 2 49 0 62 -12 62 -8 0 -18 -8 -21 -17z"/>
<path d="M9426 3511 c-14 -22 -19 -138 -6 -146 20 -13 28 7 32 79 2 46 -1 70
-9 73 -6 2 -14 0 -17 -6z"/>
<path d="M12915 3498 c-9 -31 1 -83 16 -86 19 -4 30 43 17 77 -8 23 -26 28
-33 9z"/>
<path d="M12784 3478 c-4 -6 0 -16 8 -22 11 -8 13 -18 7 -34 -11 -29 -1 -54
19 -50 11 2 19 19 24 48 7 37 5 47 -9 58 -21 15 -40 15 -49 0z"/>
<path d="M12610 3409 c0 -17 -5 -49 -11 -70 -11 -35 -15 -38 -53 -41 -52 -4
-58 -31 -8 -36 27 -3 32 -7 26 -20 -3 -9 -9 -40 -12 -69 -4 -48 -2 -55 26 -83
24 -24 39 -30 71 -30 48 0 58 26 14 35 -63 14 -78 35 -69 96 10 66 15 70 97
77 56 5 74 11 74 22 0 12 -14 15 -67 15 -63 0 -67 1 -61 20 4 11 8 40 8 65 0
35 -4 45 -17 48 -14 3 -18 -3 -18 -29z"/>
<path d="M11574 3295 c-1 -78 -6 -111 -18 -130 -37 -57 2 -108 85 -109 44 -1
54 3 75 27 31 36 31 77 0 106 -21 19 -31 22 -62 17 l-36 -7 6 64 c8 69 -10
137 -36 137 -10 0 -13 -26 -14 -105z m110 -131 c43 -17 -11 -73 -56 -58 -19 6
-18 7 8 35 15 16 29 29 30 29 1 0 9 -3 18 -6z"/>
<path d="M9694 3346 c-19 -19 -34 -41 -34 -50 0 -21 41 -60 92 -88 43 -24 47
-40 17 -61 -37 -26 -94 1 -85 39 7 28 -7 38 -34 24 -50 -27 -8 -104 66 -120
75 -17 143 49 118 113 -3 9 -32 33 -65 53 -55 36 -58 39 -42 56 20 22 42 23
58 1 14 -19 35 -9 35 17 0 23 -36 50 -68 50 -14 0 -38 -14 -58 -34z"/>
<path d="M10015 3371 c-33 -15 -65 -50 -59 -66 8 -19 30 -19 41 -2 4 8 20 17
36 21 23 5 27 3 27 -15 0 -11 -14 -34 -31 -50 -33 -31 -33 -59 -1 -59 26 0 33
-10 21 -31 -13 -26 -49 -24 -91 5 -38 25 -62 21 -56 -10 4 -23 74 -64 111 -64
39 0 64 15 83 51 16 32 12 79 -7 79 -7 0 -5 10 5 25 19 29 21 88 3 103 -19 16
-60 22 -82 13z"/>
<path d="M11164 3363 c-19 -61 -35 -84 -64 -89 -35 -8 -44 -44 -10 -44 17 0
18 -4 10 -25 -14 -37 -1 -82 32 -110 23 -19 41 -25 80 -25 42 0 49 3 46 17 -2
12 -16 20 -42 24 -63 10 -80 41 -67 121 0 4 25 8 53 10 41 2 54 7 56 21 3 12
-3 17 -21 17 -47 0 -56 8 -44 39 11 30 4 61 -13 61 -6 0 -13 -8 -16 -17z"/>
<path d="M10516 3323 c-65 -37 -91 -73 -91 -128 0 -51 20 -77 85 -110 123 -61
240 -21 228 80 -4 34 -3 35 33 35 36 0 69 22 50 34 -5 3 -52 5 -105 5 -106 -2
-124 -15 -61 -45 38 -17 44 -38 21 -70 -19 -25 -89 -23 -144 5 -72 37 -78 86
-16 141 32 28 48 35 99 42 11 2 20 10 20 18 0 27 -65 23 -119 -7z"/>
<path d="M11864 3308 c8 -43 18 -51 41 -34 17 12 18 17 7 40 -7 16 -20 26 -33
26 -19 0 -21 -4 -15 -32z"/>
<path d="M12059 3266 c-79 -41 -106 -82 -88 -134 13 -37 75 -65 134 -60 33 3
40 7 46 31 9 32 -11 47 -36 27 -10 -8 -28 -10 -52 -5 l-37 7 41 18 c40 18 53
39 53 87 0 31 -30 45 -61 29z m7 -72 c-30 -21 -44 -16 -17 7 13 11 27 17 30
13 3 -3 -3 -12 -13 -20z"/>
<path d="M12293 3233 c-47 -57 -53 -71 -42 -101 11 -30 66 -52 127 -52 58 0
87 21 53 39 -11 6 -35 11 -53 11 -43 0 -78 10 -78 22 0 19 43 66 56 61 22 -8
28 26 9 47 -10 11 -21 20 -26 20 -4 0 -25 -21 -46 -47z"/>
<path d="M10836 3216 c-40 -37 -43 -53 -20 -102 11 -24 31 -41 69 -60 65 -31
89 -29 93 9 3 25 1 27 -33 27 -27 0 -44 8 -66 29 -16 16 -29 34 -29 40 0 10
39 41 52 41 11 0 -4 -33 -20 -46 -21 -15 -5 -36 21 -28 32 10 48 31 49 64 2
67 -58 81 -116 26z"/>
<path d="M11369 3197 c-54 -45 -63 -94 -24 -132 44 -45 125 -21 125 38 0 32
-42 112 -60 114 -8 2 -27 -7 -41 -20z m51 -94 c0 -16 -36 -17 -45 -2 -4 5 -1
24 6 42 l13 31 13 -30 c6 -16 12 -35 13 -41z"/>
<path d="M11845 3180 c-3 -5 2 -34 10 -65 15 -51 15 -59 0 -104 -9 -27 -22
-55 -30 -61 -20 -17 -52 -3 -59 25 -4 16 -13 25 -26 25 -31 0 -27 -55 6 -85
49 -46 107 -28 144 44 35 68 -7 282 -45 221z"/>
<path d="M10210 3105 c-13 -15 -13 -15 33 -29 21 -6 41 10 34 28 -8 20 -51 21
-67 1z"/>
<path d="M8622 3002 c-9 -24 20 -32 111 -32 l87 0 0 -49 c0 -27 9 -93 20 -146
11 -53 20 -121 20 -150 l0 -52 -47 -7 c-184 -27 -208 -32 -208 -46 0 -17 38
-18 172 -5 64 6 86 5 99 -6 14 -11 18 -11 28 2 6 8 19 18 29 22 23 9 22 38 -3
44 -17 4 -20 14 -20 55 0 27 -10 95 -21 151 -14 68 -20 121 -16 160 4 40 1 60
-6 62 -7 2 -63 5 -126 7 -89 3 -115 0 -119 -10z"/>
<path d="M9147 2564 c-4 -4 -7 -22 -7 -39 0 -19 -12 -50 -30 -76 -36 -53 -38
-72 -7 -67 30 4 79 100 75 147 -3 33 -17 49 -31 35z"/>
<path d="M11696 2505 c-3 -8 -8 -37 -12 -63 -7 -56 5 -87 36 -95 28 -7 38 20
15 37 -16 12 -17 19 -8 67 6 30 9 57 6 61 -7 13 -31 9 -37 -7z"/>
<path d="M16537 2513 c-3 -4 -5 -33 -5 -63 -1 -30 -6 -109 -12 -175 -14 -147
-11 -219 10 -222 8 -1 35 25 60 60 l45 62 6 -43 c3 -23 10 -47 17 -54 14 -14
46 -2 35 14 -4 7 -10 36 -13 63 -4 43 -8 50 -29 53 -16 3 -35 -8 -62 -34 l-39
-38 0 29 c1 17 7 91 14 165 7 74 10 146 6 159 -6 25 -24 38 -33 24z"/>
<path d="M17406 2508 c-5 -16 -28 -281 -29 -328 -1 -54 11 -92 29 -88 13 2 17
27 22 138 10 219 9 283 -5 287 -7 3 -15 -1 -17 -9z"/>
<path d="M11615 2500 c-3 -6 -3 -19 0 -31 4 -11 1 -26 -5 -34 -19 -23 -8 -60
19 -63 20 -3 23 -1 18 19 -3 13 -3 28 2 33 14 19 19 53 9 70 -10 18 -34 21
-43 6z"/>
<path d="M17106 2468 c-2 -7 -7 -53 -10 -103 -3 -49 -13 -115 -22 -145 -38
-135 -8 -219 78 -220 63 0 128 75 128 148 0 57 -83 92 -142 61 -20 -11 -20
-10 -12 47 13 91 11 216 -3 221 -7 3 -15 -1 -17 -9z m122 -323 c2 -12 -8 -36
-20 -55 -18 -27 -31 -35 -53 -35 -26 0 -30 4 -33 31 -4 45 31 86 72 82 22 -2
32 -9 34 -23z"/>
<path d="M8181 2457 c-6 -8 -17 -30 -26 -50 -18 -44 -6 -87 25 -87 21 0 27 19
10 36 -6 6 -2 25 10 53 19 41 19 61 1 61 -5 0 -14 -6 -20 -13z"/>
<path d="M10804 2425 c-9 -14 -19 -45 -21 -69 -4 -34 -2 -44 12 -50 26 -9 37
3 30 34 -4 18 0 40 10 60 25 49 -1 71 -31 25z"/>
<path d="M16096 2438 c-2 -7 -7 -40 -11 -73 -3 -33 -13 -90 -22 -126 -18 -77
-12 -129 18 -147 30 -19 47 -1 30 32 -14 26 -12 69 9 187 6 36 10 81 8 99 -3
34 -25 53 -32 28z"/>
<path d="M8061 2389 l-33 -51 20 -20 c24 -24 42 -16 42 19 0 13 9 38 21 54 20
29 19 49 -4 49 -7 0 -27 -23 -46 -51z"/>
<path d="M10710 2400 c-23 -46 -14 -80 21 -80 18 0 20 4 14 31 -5 22 -2 36 10
49 9 10 14 24 10 29 -13 22 -35 10 -55 -29z"/>
<path d="M15795 2420 c-3 -5 -4 -14 -1 -19 3 -5 -3 -53 -13 -108 -11 -54 -22
-122 -25 -150 -7 -52 -6 -53 26 -73 60 -38 154 -11 185 52 17 34 0 91 -35 119
-22 17 -36 20 -73 16 l-46 -6 14 75 c11 59 12 78 2 90 -13 16 -25 18 -34 4z
m134 -240 c8 -26 7 -33 -11 -50 -25 -23 -69 -34 -98 -25 -17 5 -19 10 -10 20
7 8 9 18 6 23 -3 5 4 21 15 36 15 19 30 26 54 26 28 0 35 -5 44 -30z"/>
<path d="M17847 2423 c-2 -4 -8 -46 -11 -93 -4 -47 -19 -124 -32 -172 -14 -48
-23 -92 -19 -98 13 -22 42 -8 83 40 24 28 50 50 58 50 17 0 51 -53 60 -95 7
-33 50 -85 71 -85 16 0 18 36 2 45 -6 4 -25 40 -44 80 -43 96 -83 118 -138 75
l-25 -20 8 32 c14 54 17 240 3 245 -6 2 -13 0 -16 -4z"/>
<path d="M8615 2382 c-27 -17 -45 -35 -110 -113 -11 -13 -21 -32 -21 -42 -1
-9 -9 -43 -19 -74 -24 -77 -26 -206 -3 -211 17 -3 18 1 34 120 l6 46 46 -34
c83 -64 152 -89 152 -55 0 5 -29 26 -65 46 -66 37 -81 55 -45 55 11 0 39 17
62 38 74 66 99 162 57 216 -24 31 -52 33 -94 8z m63 -66 c8 -62 -53 -136 -124
-153 l-41 -10 7 31 c12 54 39 94 87 131 53 40 67 40 71 1z"/>
<path d="M14606 2348 c-11 -6 -37 -10 -58 -10 -28 1 -38 -2 -38 -13 0 -20 41
-35 71 -28 21 6 19 2 -14 -33 -54 -56 -46 -70 46 -89 21 -4 27 -11 27 -32 0
-55 -82 -73 -125 -27 -21 23 -27 25 -40 14 -42 -34 23 -90 103 -90 36 0 49 6
72 30 41 44 44 87 9 122 -17 17 -38 28 -56 28 l-28 0 30 19 c61 38 109 87 102
104 -7 20 -71 23 -101 5z"/>
<path d="M14220 2328 c-29 -31 -25 -55 16 -91 47 -42 59 -64 43 -83 -17 -21
-37 -17 -64 12 -29 31 -58 26 -53 -8 4 -27 61 -68 95 -68 14 0 38 13 55 30 40
41 34 80 -22 133 -39 37 -39 38 -17 46 15 6 27 4 39 -6 18 -16 38 -10 38 12 0
43 -95 60 -130 23z"/>
<path d="M13517 2304 c-72 -31 -57 -90 29 -114 51 -15 61 -25 44 -45 -26 -31
-100 -4 -100 35 0 15 -26 12 -39 -4 -8 -10 -6 -21 12 -47 28 -41 87 -65 120
-48 70 36 87 92 41 128 -15 12 -34 21 -43 21 -10 0 -25 6 -35 13 -25 19 -3 35
54 39 32 2 45 7 45 18 0 21 -80 24 -128 4z"/>
<path d="M13914 2306 c-6 -15 12 -56 24 -56 15 0 53 42 49 53 -6 19 -66 21
-73 3z"/>
<path d="M13342 2293 c-6 -10 -8 -39 -5 -65 4 -33 1 -53 -10 -69 -14 -20 -17
-20 -23 -6 -3 9 -3 24 0 33 4 9 1 23 -5 30 -9 11 -19 7 -55 -23 -25 -20 -47
-34 -49 -31 -3 3 -1 27 4 54 5 27 7 52 5 56 -11 18 -34 6 -39 -19 -3 -16 -10
-42 -15 -59 -14 -44 -12 -59 8 -77 24 -22 38 -21 74 4 l29 21 24 -22 c45 -43
106 9 104 89 -2 83 -25 125 -47 84z"/>
<path d="M12958 2280 c-29 -22 -68 -95 -68 -127 0 -42 69 -69 110 -43 9 5 19
5 27 -2 20 -16 46 -2 35 19 -6 11 -5 28 5 50 14 35 11 53 -10 53 -7 0 -19 15
-27 33 -18 39 -38 44 -72 17z m56 -91 c-13 -27 -33 -39 -60 -39 -19 0 -11 32
18 72 18 26 20 26 37 10 15 -15 16 -20 5 -43z"/>
<path d="M15248 2279 c-16 -12 -25 -26 -21 -34 7 -20 23 -18 53 5 22 17 23 21
10 34 -13 13 -18 13 -42 -5z"/>
<path d="M15440 2290 c0 -5 -10 -18 -22 -30 -21 -19 -21 -21 -4 -38 17 -16 19
-16 41 12 18 23 21 34 14 48 -10 19 -29 25 -29 8z"/>
<path d="M11214 2255 c-7 -18 3 -35 21 -35 21 0 28 19 15 35 -16 19 -29 19
-36 0z"/>
<path d="M15050 2244 c0 -33 33 -30 38 4 3 17 -2 22 -17 22 -16 0 -21 -6 -21
-26z"/>
<path d="M17549 2238 c-36 -39 -69 -99 -69 -126 0 -32 34 -54 80 -51 36 3 43
0 60 -29 32 -52 68 -41 45 14 -9 23 -12 56 -9 104 5 66 3 71 -22 95 -35 33
-49 32 -85 -7z m67 -33 c7 -17 -14 -76 -30 -87 -14 -10 -56 -10 -56 0 1 18 60
101 73 102 4 0 10 -7 13 -15z"/>
<path d="M12064 2246 c-48 -34 -72 -171 -29 -171 15 0 20 7 21 30 2 32 29 105
39 105 4 0 13 -7 22 -16 25 -25 42 0 23 34 -18 32 -47 38 -76 18z"/>
<path d="M12312 2221 c-22 -16 -43 -35 -47 -41 -5 -8 -11 -5 -20 7 -18 24 -28
12 -54 -66 -32 -99 -14 -101 70 -11 39 41 68 67 65 58 -17 -56 -17 -88 0 -117
12 -20 26 -31 41 -31 33 0 39 20 13 40 l-24 18 17 73 c11 52 13 77 5 86 -15
18 -20 17 -66 -16z"/>
<path d="M12682 2233 c4 -22 43 -25 43 -3 0 8 -11 16 -23 18 -19 3 -23 0 -20
-15z"/>
<path d="M9132 2220 c-26 -25 -29 -68 -6 -116 13 -27 14 -37 4 -49 -15 -18
-37 -20 -42 -3 -6 18 -38 1 -38 -20 0 -47 61 -56 109 -16 37 31 39 54 10 119
-22 50 -19 61 21 67 36 4 32 32 -5 36 -20 2 -38 -4 -53 -18z"/>
<path d="M11786 2219 c-52 -41 -65 -108 -25 -130 16 -8 29 -6 59 10 l39 20 3
-32 c2 -27 7 -32 28 -32 27 0 26 -2 17 99 -6 76 -66 108 -121 65z m54 -39
c-12 -22 -50 -46 -50 -31 0 9 47 51 57 51 2 0 -1 -9 -7 -20z"/>
<path d="M8884 2218 c-26 -12 -54 -69 -54 -109 0 -37 24 -85 49 -99 11 -5 42
-10 70 -10 44 0 51 3 51 20 0 17 -7 20 -50 20 -43 0 -52 4 -67 27 -14 21 -15
27 -4 31 7 2 28 18 47 34 38 34 45 72 15 88 -23 12 -29 12 -57 -2z m23 -55
c-9 -9 -19 -14 -22 -11 -3 3 2 13 11 22 9 9 19 14 22 11 3 -3 -2 -13 -11 -22z"/>
<path d="M16221 2213 c-35 -18 -57 -52 -48 -77 3 -8 18 -22 32 -32 24 -16 29
-16 67 -1 39 16 42 15 66 -3 48 -38 86 -15 42 25 -11 10 -20 26 -20 35 0 9
-11 29 -25 44 -28 30 -64 33 -114 9z m84 -33 c-3 -6 -20 -17 -37 -26 -36 -19
-58 -6 -33 20 18 17 80 23 70 6z"/>
<path d="M9815 2211 c-44 -18 -61 -73 -44 -137 13 -48 25 -62 40 -47 7 7 7 23
-1 53 -9 35 -9 46 5 67 15 22 22 24 67 21 83 -5 72 32 -12 46 -19 3 -44 2 -55
-3z"/>
<path d="M10055 2177 c-38 -36 -45 -50 -45 -81 0 -59 57 -102 126 -94 36 4 39
32 4 36 -55 6 -68 13 -80 42 -12 29 -11 33 21 66 21 22 39 32 50 29 23 -7 34
12 19 30 -21 25 -48 17 -95 -28z"/>
<path d="M10342 2197 c-30 -32 -53 -93 -46 -121 3 -13 16 -34 29 -46 21 -20
31 -22 78 -17 69 9 128 29 141 50 15 24 2 30 -36 18 -47 -16 -160 -19 -165 -4
-2 6 15 17 39 25 38 13 43 19 46 47 4 36 -20 71 -48 71 -9 0 -26 -10 -38 -23z
m48 -37 c0 -14 -7 -20 -22 -20 -20 0 -21 1 -3 20 10 11 20 20 22 20 1 0 3 -9
3 -20z"/>
<path d="M9353 2203 c-7 -2 -31 -27 -53 -55 -46 -58 -53 -103 -20 -133 25 -23
100 -13 135 18 40 35 42 74 5 130 -31 45 -41 51 -67 40z m37 -86 c13 -23 13
-28 0 -42 -9 -8 -30 -17 -48 -21 -36 -7 -42 6 -19 47 30 58 42 61 67 16z"/>
<path d="M9517 2174 c-4 -4 -7 -29 -7 -56 0 -39 5 -54 26 -75 23 -23 31 -25
72 -19 26 3 55 14 64 24 25 24 40 108 22 123 -20 17 -34 1 -34 -39 0 -49 -10
-62 -51 -68 -44 -7 -57 7 -61 65 -3 42 -16 60 -31 45z"/>
<path d="M11162 2133 c4 -36 33 -39 33 -3 0 16 -6 26 -18 28 -15 3 -18 -2 -15
-25z"/>
<path d="M13865 2150 c-8 -14 3 -30 21 -30 8 0 14 9 14 20 0 21 -24 28 -35 10z"/>
<path d="M15187 2126 c-9 -22 8 -71 24 -71 14 0 29 50 21 73 -6 17 -39 15 -45
-2z"/>
<path d="M12630 2115 c-10 -12 -10 -19 -1 -28 14 -14 46 2 46 24 0 20 -30 23
-45 4z"/>
<path d="M14993 2119 c-27 -10 -31 -39 -5 -39 10 0 23 -5 30 -12 17 -17 33 2
26 29 -7 27 -22 33 -51 22z"/>
<path d="M15412 2113 c-27 -5 -41 -32 -22 -43 17 -11 73 17 68 32 -5 14 -16
17 -46 11z"/>
<path d="M16821 2011 c-6 -11 -11 -27 -11 -35 0 -30 -24 -67 -57 -87 -24 -15
-33 -27 -31 -42 4 -31 22 -31 57 -1 40 33 68 87 72 138 4 44 -13 59 -30 27z"/>
<path d="M15821 1907 c-5 -12 -14 -76 -20 -142 -15 -163 -23 -200 -41 -200
-27 0 -24 -45 6 -76 42 -44 93 -56 148 -35 64 24 100 69 92 115 -14 87 -73
113 -138 61 l-40 -32 7 83 c4 46 10 118 15 159 5 41 6 78 4 82 -9 15 -24 8
-33 -15z m136 -317 c10 -20 10 -29 -1 -45 -19 -29 -82 -58 -112 -51 -21 6 -23
9 -13 27 20 39 82 100 98 97 8 -2 21 -14 28 -28z"/>
<path d="M16174 1917 c-3 -8 -1 -32 5 -54 15 -52 14 -92 -4 -158 -8 -31 -17
-83 -21 -116 -5 -49 -4 -63 11 -79 19 -21 55 -27 55 -9 0 6 -5 19 -11 30 -7
15 -6 54 7 145 15 110 16 131 3 186 -14 60 -33 84 -45 55z"/>
<path d="M7471 1891 c-11 -11 -18 -27 -15 -36 8 -19 44 -20 44 0 0 31 31 13
52 -30 l22 -45 -21 -22 c-42 -45 -49 -111 -14 -132 5 -4 -1 -17 -15 -31 -13
-13 -24 -35 -24 -48 0 -23 46 -97 69 -112 34 -21 -24 -105 -73 -105 -14 0 -37
11 -52 25 -30 28 -44 25 -44 -10 0 -30 36 -55 87 -61 46 -6 94 21 123 68 30
49 25 79 -20 134 -22 27 -40 54 -40 60 0 16 47 46 68 43 36 -3 53 2 59 17 8
20 -13 34 -52 34 -58 0 -68 30 -33 96 21 40 21 43 5 86 -24 62 -37 77 -73 84
-24 5 -37 1 -53 -15z"/>
<path d="M16610 1868 c0 -18 -12 -68 -25 -112 -29 -88 -27 -152 6 -206 17 -27
21 -29 42 -19 12 7 40 29 63 49 23 21 51 43 64 50 l23 12 -6 -59 c-7 -62 8
-103 38 -103 21 0 28 19 13 37 -8 10 -12 36 -10 75 6 101 -19 110 -122 43 -38
-25 -71 -43 -75 -40 -11 12 -2 151 13 194 9 24 16 59 16 77 0 27 -4 34 -20 34
-16 0 -20 -7 -20 -32z"/>
<path d="M16352 1624 c-27 -19 -52 -65 -52 -97 0 -59 69 -97 115 -63 16 12 22
12 43 -2 31 -20 51 -3 35 30 -6 13 -15 35 -22 51 -6 15 -17 27 -26 27 -8 0
-21 16 -29 35 -16 39 -30 43 -64 19z m41 -90 c1 -20 -3 -29 -16 -32 -23 -5
-32 23 -18 55 14 31 31 20 34 -23z"/>
<path d="M16987 1474 c-4 -4 -7 -29 -7 -55 0 -36 -6 -54 -22 -73 -29 -31 -68
-44 -68 -22 0 20 -29 21 -36 2 -7 -17 22 -76 37 -76 31 0 102 59 119 99 21 53
3 151 -23 125z"/>
<path d="M6438 1453 c-61 -3 -78 -7 -78 -19 0 -21 48 -36 105 -32 l50 3 0
-180 0 -180 -45 1 c-25 0 -56 2 -70 5 -19 3 -26 -1 -28 -16 -4 -27 45 -45 120
-45 56 0 57 0 69 37 8 25 10 85 7 194 -5 144 -4 158 13 173 11 9 19 23 19 31
0 17 -41 36 -68 33 -9 -1 -52 -4 -94 -5z"/>
<path d="M5344 1118 c-22 -6 -46 -19 -53 -30 -19 -31 -1 -42 48 -27 38 11 42
11 67 -14 26 -27 26 -27 9 -69 -9 -23 -30 -57 -46 -75 -16 -19 -29 -44 -29
-58 0 -37 18 -75 35 -75 9 0 13 -5 10 -11 -4 -6 1 -41 10 -78 11 -39 15 -79
11 -95 -8 -33 -56 -63 -112 -72 -54 -8 -83 2 -94 32 -6 15 -18 24 -30 24 -33
0 -23 -57 13 -84 58 -43 194 -20 250 42 26 28 33 92 15 128 -36 70 -28 108 25
127 11 4 17 14 15 24 -3 14 -13 18 -51 16 -39 -1 -47 2 -47 16 0 10 10 26 21
37 12 10 35 47 51 82 25 53 27 66 17 80 -23 31 -83 92 -89 91 -3 -1 -23 -6
-46 -11z"/>
</g>
</svg>
