<?xml version="1.0" standalone="no"?>
<!DOCTYPE svg PUBLIC "-//W3C//DTD SVG 20010904//EN"
 "http://www.w3.org/TR/2001/REC-SVG-20010904/DTD/svg10.dtd">
<svg version="1.0" xmlns="http://www.w3.org/2000/svg"
 width="1872.000000pt" height="1308.000000pt" viewBox="0 0 1872.000000 1308.000000"
 preserveAspectRatio="xMidYMid meet">

<g transform="translate(0.000000,1308.000000) scale(0.100000,-0.100000)"
fill="#000000" stroke="none">
<path d="M10785 12409 c-1307 -85 -2519 -548 -3269 -1248 -496 -463 -777 -974
-846 -1534 -13 -107 -14 -352 -1 -462 83 -706 537 -1374 1276 -1877 151 -103
335 -213 455 -273 41 -21 76 -39 78 -40 2 -1 42 -319 91 -705 98 -788 89 -747
165 -708 22 11 391 209 819 440 l778 420 152 -16 c285 -30 503 -38 872 -33
201 3 426 12 510 21 1048 104 1950 409 2679 906 344 234 673 559 881 870 393
588 490 1245 278 1884 -183 551 -601 1060 -1198 1461 -762 512 -1739 821
-2823 895 -173 11 -715 11 -897 -1z m895 -79 c1953 -134 3533 -1057 3950
-2309 154 -462 135 -946 -57 -1411 -181 -439 -550 -872 -1040 -1221 -318 -226
-793 -464 -1223 -610 -449 -154 -970 -261 -1505 -311 -217 -20 -1007 -17
-1200 5 -82 10 -184 20 -225 23 l-75 5 -785 -425 c-657 -355 -786 -422 -792
-408 -4 9 -43 314 -88 677 -45 363 -86 670 -91 683 -4 12 -16 22 -24 22 -37 0
-309 153 -505 283 -211 141 -352 256 -539 440 -377 373 -609 780 -708 1242
-26 122 -27 145 -27 380 0 235 1 258 27 380 39 183 96 346 181 520 280 571
811 1067 1531 1430 233 118 384 183 620 266 502 178 1100 299 1665 338 179 12
739 13 910 1z"/>
<path d="M12490 10520 c-11 -11 -20 -31 -20 -45 0 -14 9 -34 20 -45 11 -11 31
-20 45 -20 14 0 34 9 45 20 11 11 20 31 20 45 0 14 -9 34 -20 45 -11 11 -31
20 -45 20 -14 0 -34 -9 -45 -20z"/>
<path d="M9690 10200 l0 -330 45 0 45 0 0 159 0 158 50 47 c58 54 96 61 135
21 25 -24 25 -26 25 -205 l0 -180 46 0 46 0 -4 188 c-3 166 -5 191 -23 222
-50 85 -170 93 -252 17 l-23 -20 0 126 0 127 -45 0 -45 0 0 -330z"/>
<path d="M9110 10473 c0 -5 9 -129 20 -278 11 -148 20 -283 20 -298 0 -28 1
-28 57 -25 l57 3 43 130 c23 72 43 132 43 135 1 3 23 -56 49 -130 l48 -135 56
-3 c32 -2 57 1 57 5 0 4 9 132 20 283 26 357 28 320 -18 320 l-39 0 -6 -122
c-4 -68 -10 -184 -13 -258 -8 -155 -5 -157 -75 48 -42 121 -42 122 -73 122
l-32 0 -49 -150 c-27 -82 -50 -148 -51 -147 -2 1 -8 97 -14 212 -6 116 -13
229 -16 253 -5 41 -6 42 -45 42 -21 0 -39 -3 -39 -7z"/>
<path d="M10335 10331 c-84 -38 -128 -117 -127 -232 1 -175 85 -248 271 -236
113 7 121 11 121 54 0 29 -3 34 -17 28 -10 -3 -54 -9 -98 -11 -65 -4 -86 -2
-114 13 -41 21 -67 56 -76 101 l-7 32 173 0 172 0 -6 65 c-6 68 -31 128 -65
158 -51 46 -158 60 -227 28z m146 -68 c30 -18 59 -67 59 -102 0 -20 -5 -21
-125 -21 l-125 0 6 28 c23 95 109 139 185 95z"/>
<path d="M10950 10335 c-19 -9 -50 -30 -67 -47 l-33 -32 0 42 0 42 -40 0 -40
0 0 -235 0 -235 45 0 45 0 0 154 0 153 49 46 c27 26 61 49 76 53 53 13 95 -28
95 -92 0 -22 4 -24 46 -24 l46 0 -7 43 c-11 63 -30 103 -60 123 -36 24 -112
28 -155 9z"/>
<path d="M11395 10331 c-84 -38 -128 -117 -127 -232 1 -175 85 -248 271 -236
113 7 121 11 121 54 0 29 -3 34 -17 28 -10 -3 -54 -9 -98 -11 -65 -4 -86 -2
-114 13 -41 21 -67 56 -76 101 l-7 32 173 0 172 0 -6 65 c-6 68 -31 128 -65
158 -51 46 -158 60 -227 28z m146 -68 c30 -18 59 -67 59 -102 0 -20 -5 -21
-125 -21 l-125 0 6 28 c23 95 109 139 185 95z"/>
<path d="M12992 10337 c-74 -23 -118 -104 -92 -167 17 -40 55 -66 142 -96 97
-33 118 -48 118 -84 0 -48 -44 -64 -150 -57 -47 4 -95 9 -107 13 -21 6 -23 3
-23 -34 l0 -41 56 -7 c187 -23 314 31 314 135 0 70 -35 102 -155 141 -94 31
-115 46 -115 81 0 44 45 63 135 56 38 -3 78 -8 88 -12 14 -6 17 -1 17 28 0 33
-3 37 -37 46 -47 14 -147 12 -191 -2z"/>
<path d="M12370 10305 l0 -35 65 0 65 0 0 -165 0 -165 -75 0 -75 0 0 -35 0
-35 190 0 190 0 0 35 0 35 -70 0 -70 0 0 200 0 200 -110 0 -110 0 0 -35z"/>
<path d="M11050 9316 l0 -94 -57 5 c-108 10 -189 -32 -236 -121 -33 -63 -31
-203 3 -271 56 -112 169 -128 263 -37 l37 36 0 -42 0 -42 40 0 40 0 0 330 0
330 -45 0 -45 0 0 -94z m-26 -166 c26 -9 26 -10 26 -122 -1 -110 -2 -114 -30
-147 -106 -124 -200 -78 -200 97 1 87 26 147 72 167 39 17 96 19 132 5z"/>
<path d="M12940 9376 c0 -33 3 -36 28 -36 51 0 106 -22 139 -55 29 -29 33 -40
33 -83 0 -66 -29 -92 -101 -92 l-49 0 0 -95 0 -95 40 0 40 0 0 64 0 64 38 7
c127 23 169 151 86 262 -32 42 -115 81 -191 89 l-63 7 0 -37z"/>
<path d="M9295 9348 c-17 -45 -195 -584 -195 -590 0 -5 19 -8 43 -8 l42 0 19
65 19 66 130 -3 129 -3 20 -62 19 -63 44 0 c25 0 45 3 45 8 0 4 -43 141 -97
305 l-97 297 -58 0 c-38 0 -60 -4 -63 -12z m128 -285 l35 -113 -105 0 c-104 0
-104 0 -98 23 4 12 28 87 53 167 l45 145 17 -55 c10 -30 33 -106 53 -167z"/>
<path d="M9777 9207 c-12 -13 -27 -32 -34 -43 -10 -17 -12 -15 -12 19 -1 36
-2 37 -36 37 l-35 0 0 -235 0 -235 40 0 40 0 0 153 c0 151 0 152 30 205 17 28
37 52 45 52 28 0 35 -49 35 -231 l0 -179 35 0 35 0 0 145 c0 134 2 149 24 193
28 56 50 77 71 68 13 -4 15 -36 15 -206 l0 -200 40 0 40 0 0 195 c0 208 -8
252 -48 274 -47 25 -98 5 -133 -53 -16 -26 -19 -28 -19 -10 0 12 -9 33 -21 48
-27 34 -80 36 -112 3z"/>
<path d="M10335 9224 c-80 -20 -85 -24 -85 -61 0 -29 3 -34 17 -28 44 16 120
27 162 22 59 -7 91 -41 91 -98 l0 -39 -77 0 c-100 0 -149 -14 -189 -54 -58
-58 -54 -153 9 -200 23 -17 43 -21 102 -21 67 0 78 3 119 32 l46 33 0 -30 c0
-28 2 -30 41 -30 l41 0 -3 189 c-4 173 -6 192 -25 217 -40 54 -67 67 -151 70
-43 2 -87 1 -98 -2z m185 -302 c0 -44 -24 -72 -82 -97 -50 -20 -80 -19 -112 6
-30 23 -33 54 -10 87 23 33 48 41 132 41 l72 1 0 -38z"/>
<path d="M11395 9211 c-84 -38 -128 -117 -127 -232 1 -175 85 -248 271 -236
113 7 121 11 121 54 0 29 -3 34 -17 28 -10 -3 -54 -9 -98 -11 -65 -4 -86 -2
-114 13 -41 21 -67 56 -76 101 l-7 32 173 0 172 0 -6 65 c-6 68 -31 128 -65
158 -51 46 -158 60 -227 28z m146 -68 c30 -18 59 -67 59 -102 0 -20 -5 -21
-125 -21 l-125 0 6 28 c23 95 109 139 185 95z"/>
<path d="M12462 9217 c-74 -23 -118 -104 -92 -167 17 -40 55 -66 142 -96 97
-33 118 -48 118 -84 0 -48 -44 -64 -150 -57 -47 4 -95 9 -107 13 -21 6 -23 3
-23 -34 l0 -41 56 -7 c187 -23 314 31 314 135 0 70 -35 102 -155 141 -94 31
-115 46 -115 81 0 44 45 63 135 56 38 -3 78 -8 88 -12 14 -6 17 -1 17 28 0 33
-3 37 -37 46 -47 14 -147 12 -191 -2z"/>
<path d="M11812 9033 c3 -152 7 -194 21 -220 45 -85 168 -98 248 -26 l39 35 0
-36 c0 -35 1 -36 40 -36 l40 0 0 235 0 235 -45 0 -45 0 0 -160 0 -160 -40 -40
c-44 -44 -80 -57 -119 -44 -44 16 -51 44 -51 232 l0 172 -46 0 -46 0 4 -187z"/>
<path d="M12987 8842 c-22 -24 -21 -65 1 -85 40 -36 102 -9 102 45 0 51 -69
78 -103 40z"/>
<path d="M3800 8890 c0 -5 -9 -10 -20 -10 -11 0 -20 -7 -20 -15 0 -9 -9 -15
-25 -15 -14 0 -25 -4 -25 -10 0 -5 -11 -10 -25 -10 -14 0 -25 5 -25 10 0 6
-52 10 -135 10 -83 0 -135 -4 -135 -10 0 -6 -68 -10 -185 -10 -158 0 -185 -2
-185 -15 0 -13 -21 -15 -125 -15 -77 0 -125 -4 -125 -10 0 -6 -27 -10 -60 -10
-47 0 -60 -3 -60 -15 0 -10 -11 -15 -35 -15 -19 0 -35 -4 -35 -10 0 -5 -16
-10 -35 -10 -24 0 -35 -5 -35 -15 0 -9 -9 -15 -25 -15 -14 0 -25 -4 -25 -10 0
-5 -11 -10 -25 -10 -16 0 -25 -6 -25 -15 0 -9 -9 -15 -25 -15 -14 0 -25 -4
-25 -10 0 -5 -11 -10 -25 -10 -14 0 -25 -4 -25 -10 0 -5 -11 -10 -25 -10 -14
0 -25 -5 -25 -11 0 -17 -27 -39 -49 -39 -12 0 -21 -6 -21 -15 0 -9 -9 -15 -25
-15 -14 0 -25 -4 -25 -10 0 -5 -11 -10 -25 -10 -16 0 -25 -6 -25 -15 0 -8 -7
-15 -15 -15 -8 0 -15 -4 -15 -10 0 -5 -11 -10 -25 -10 -14 0 -25 -5 -25 -11 0
-16 -26 -39 -45 -39 -19 0 -45 -23 -45 -39 0 -6 -5 -11 -11 -11 -14 0 -39 -25
-39 -39 0 -6 -11 -11 -25 -11 -14 0 -25 -4 -25 -10 0 -5 -7 -10 -15 -10 -8 0
-15 -6 -15 -13 0 -7 -9 -19 -20 -27 -11 -8 -20 -20 -20 -27 0 -7 -11 -13 -25
-13 -14 0 -25 -4 -25 -10 0 -5 -5 -10 -11 -10 -14 0 -39 -25 -39 -39 0 -6 -5
-11 -11 -11 -14 0 -39 -25 -39 -39 0 -6 -7 -11 -15 -11 -8 0 -15 -4 -15 -10 0
-5 -11 -10 -25 -10 -14 0 -25 -6 -25 -13 0 -7 -9 -19 -20 -27 -11 -8 -20 -20
-20 -27 0 -7 -5 -13 -11 -13 -14 0 -39 -25 -39 -39 0 -6 -5 -11 -11 -11 -17 0
-39 -27 -39 -49 0 -12 -6 -21 -15 -21 -9 0 -15 -9 -15 -25 0 -14 -4 -25 -10
-25 -5 0 -10 7 -10 15 0 8 -7 15 -15 15 -8 0 -15 -7 -15 -15 0 -8 -9 -15 -20
-15 -11 0 -20 -4 -20 -10 0 -5 -7 -10 -15 -10 -8 0 -15 -5 -15 -11 0 -14 -25
-39 -39 -39 -6 0 -11 -7 -11 -15 0 -9 -9 -15 -23 -15 -12 0 -29 -9 -37 -20 -8
-11 -20 -20 -27 -20 -7 0 -13 -5 -13 -11 0 -14 -25 -39 -39 -39 -6 0 -11 -11
-11 -25 0 -14 -4 -25 -10 -25 -5 0 -10 -7 -10 -15 0 -8 -4 -15 -10 -15 -5 0
-10 -11 -10 -25 0 -16 -6 -25 -15 -25 -9 0 -15 -9 -15 -25 0 -14 -4 -25 -10
-25 -5 0 -10 -20 -10 -45 0 -33 -4 -45 -15 -45 -8 0 -15 -5 -15 -11 0 -14 -25
-39 -39 -39 -6 0 -11 -5 -11 -11 0 -14 -25 -39 -39 -39 -6 0 -11 -9 -11 -21 0
-22 -22 -49 -39 -49 -6 0 -11 -11 -11 -25 0 -14 -4 -25 -10 -25 -5 0 -10 -7
-10 -15 0 -8 -4 -15 -10 -15 -5 0 -10 -11 -10 -25 0 -16 -6 -25 -15 -25 -9 0
-15 -9 -15 -25 0 -14 -4 -25 -10 -25 -5 0 -10 -9 -10 -20 0 -11 -7 -20 -15
-20 -9 0 -15 -9 -15 -25 0 -14 -4 -25 -10 -25 -5 0 -10 -18 -10 -40 0 -29 -4
-40 -15 -40 -11 0 -15 -12 -15 -50 0 -34 4 -50 13 -50 7 0 19 -9 27 -20 8 -11
25 -20 37 -20 14 0 23 -6 23 -15 0 -9 9 -15 25 -15 14 0 25 -4 25 -10 0 -5 16
-10 35 -10 24 0 35 -5 35 -15 0 -11 11 -15 40 -15 22 0 40 -4 40 -10 0 -5 23
-10 50 -10 38 0 50 -4 50 -15 0 -11 12 -15 45 -15 25 0 45 -4 45 -10 0 -6 28
-10 65 -10 51 0 65 -3 65 -15 0 -12 14 -15 70 -15 40 0 70 -4 70 -10 0 -6 40
-10 100 -10 60 0 100 -4 100 -10 0 -6 43 -10 110 -10 91 0 110 -3 110 -15 0
-13 24 -15 160 -15 100 0 160 -4 160 -10 0 -6 68 -10 185 -10 158 0 185 -2
185 -15 0 -9 9 -15 25 -15 24 0 25 -3 25 -60 0 -33 4 -60 10 -60 6 0 10 -11
10 -25 l0 -25 100 0 c82 0 100 3 100 15 0 11 12 15 45 15 25 0 45 5 45 10 0 6
11 10 25 10 22 0 25 -4 25 -35 0 -19 5 -35 11 -35 14 0 39 25 39 39 0 6 6 11
13 11 7 0 19 9 27 20 8 11 25 20 37 20 13 0 23 5 23 11 0 17 27 39 49 39 12 0
21 6 21 15 0 11 12 15 50 15 28 0 50 5 50 10 0 6 7 10 15 10 8 0 15 7 15 15 0
13 22 15 135 15 113 0 135 -2 135 -15 0 -11 12 -15 45 -15 25 0 45 -4 45 -10
0 -5 18 -10 40 -10 29 0 40 -4 40 -15 0 -9 9 -15 21 -15 26 0 49 -23 49 -49 0
-16 -6 -21 -25 -21 -14 0 -25 -4 -25 -10 0 -5 -16 -10 -35 -10 -24 0 -35 -5
-35 -15 0 -8 -7 -15 -15 -15 -8 0 -15 -4 -15 -10 0 -5 18 -10 40 -10 29 0 40
-4 40 -15 0 -13 32 -15 230 -15 147 0 230 -4 230 -10 0 -6 43 -10 110 -10 67
0 110 4 110 10 0 6 23 10 50 10 38 0 50 4 50 15 0 9 9 15 25 15 14 0 25 5 25
10 0 6 16 10 35 10 19 0 35 -4 35 -10 0 -5 18 -10 40 -10 29 0 40 -4 40 -15 0
-8 5 -15 10 -15 6 0 10 7 10 15 0 9 9 15 25 15 14 0 25 5 25 10 0 6 7 10 15
10 9 0 15 -9 15 -25 0 -18 5 -25 20 -25 15 0 20 7 20 25 0 14 -4 25 -10 25 -5
0 -10 11 -10 25 0 14 5 25 10 25 6 0 10 -4 10 -10 0 -5 11 -10 25 -10 16 0 25
-6 25 -15 0 -12 18 -15 100 -15 82 0 100 3 100 15 0 12 18 15 100 15 60 0 100
4 100 10 0 6 16 10 35 10 19 0 35 5 35 10 0 6 11 10 25 10 16 0 25 6 25 15 0
9 9 15 25 15 14 0 25 5 25 10 0 6 11 10 25 10 16 0 25 6 25 15 0 10 11 15 35
15 19 0 35 5 35 10 0 6 32 10 75 10 43 0 75 -4 75 -10 0 -5 11 -10 25 -10 14
0 25 -6 25 -13 0 -7 9 -19 20 -27 11 -8 20 -25 20 -37 0 -14 6 -23 15 -23 9 0
15 -9 15 -25 0 -14 5 -25 10 -25 6 0 10 -11 10 -25 0 -16 6 -25 15 -25 10 0
15 -11 15 -35 0 -19 5 -35 10 -35 6 0 10 -11 10 -25 0 -16 6 -25 15 -25 8 0
15 -7 15 -15 0 -8 5 -15 10 -15 6 0 10 -9 10 -20 0 -11 7 -20 15 -20 8 0 15
-7 15 -15 0 -8 5 -15 10 -15 6 0 10 -11 10 -25 0 -16 6 -25 15 -25 12 0 15
-13 15 -59 0 -38 5 -61 13 -65 10 -5 10 -7 0 -12 -7 -3 -13 -17 -13 -30 0 -15
-6 -24 -15 -24 -9 0 -15 -9 -15 -25 0 -14 -4 -25 -10 -25 -6 0 -10 -35 -10
-85 0 -50 4 -85 10 -85 6 0 10 -7 10 -15 0 -8 7 -15 15 -15 8 0 15 -4 15 -10
0 -5 9 -10 20 -10 11 0 20 -7 20 -15 0 -11 11 -15 40 -15 29 0 40 4 40 15 0 8
5 15 10 15 6 0 10 11 10 25 0 14 -4 25 -10 25 -5 0 -10 20 -10 45 0 33 -4 45
-15 45 -9 0 -15 9 -15 25 0 14 -4 25 -10 25 -6 0 -10 32 -10 75 0 43 4 75 10
75 6 0 10 43 10 110 l0 110 25 0 c14 0 25 5 25 10 0 6 7 10 15 10 8 0 15 7 15
15 0 8 5 15 10 15 15 0 12 39 -4 56 -8 8 -24 14 -35 14 -12 0 -21 6 -21 15 0
9 -9 15 -25 15 -16 0 -25 -6 -25 -15 0 -8 -7 -15 -15 -15 -10 0 -15 -11 -15
-35 0 -32 -2 -35 -31 -35 -35 0 -59 20 -59 49 0 12 -6 21 -15 21 -9 0 -15 9
-15 25 0 14 -4 25 -10 25 -5 0 -10 11 -10 25 0 20 5 25 25 25 16 0 25 6 25 15
0 8 5 15 10 15 6 0 10 9 10 20 0 11 7 20 15 20 8 0 15 7 15 15 0 12 13 15 60
15 33 0 60 4 60 10 0 6 68 10 185 10 158 0 185 2 185 15 0 13 27 15 180 15
113 0 180 4 180 10 0 6 43 10 110 10 91 0 110 3 110 15 0 12 15 15 75 15 43 0
75 4 75 10 0 6 16 10 35 10 24 0 35 5 35 15 0 11 11 15 38 15 26 0 42 6 52 20
8 11 20 20 27 20 7 0 13 7 13 15 0 9 9 15 25 15 14 0 25 5 25 10 0 6 16 10 35
10 24 0 35 5 35 15 0 9 9 15 21 15 22 0 49 22 49 39 0 6 7 11 15 11 10 0 15
11 15 35 0 24 -5 35 -15 35 -9 0 -15 9 -15 21 0 22 -22 49 -39 49 -6 0 -11 11
-11 25 0 14 -4 25 -10 25 -5 0 -10 11 -10 25 0 14 -4 25 -10 25 -5 0 -10 11
-10 25 0 16 -6 25 -15 25 -8 0 -15 7 -15 15 0 8 -4 15 -10 15 -5 0 -10 16 -10
35 0 19 -5 35 -11 35 -17 0 -39 27 -39 49 0 12 -6 21 -15 21 -9 0 -15 9 -15
25 0 14 -4 25 -10 25 -5 0 -10 7 -10 15 0 8 -7 15 -15 15 -8 0 -15 5 -15 10 0
6 11 10 25 10 22 0 25 4 25 35 0 19 -4 35 -10 35 -5 0 -10 7 -10 15 0 8 -5 15
-11 15 -17 0 -39 27 -39 49 0 12 -6 21 -15 21 -8 0 -15 7 -15 15 0 8 -4 15
-10 15 -5 0 -10 9 -10 20 0 11 -4 20 -10 20 -5 0 -10 7 -10 15 0 8 -5 15 -11
15 -21 0 -39 29 -39 64 0 35 -1 36 -36 36 -35 0 -64 18 -64 39 0 6 -5 11 -11
11 -14 0 -39 25 -39 39 0 6 -5 11 -10 11 -14 0 -60 46 -60 60 0 5 -11 10 -25
10 -14 0 -25 5 -25 10 0 6 -22 10 -50 10 -38 0 -50 4 -50 15 0 8 -5 15 -11 15
-11 0 -39 25 -39 35 0 10 -28 35 -39 35 -6 0 -11 7 -11 15 0 9 -9 15 -25 15
-14 0 -25 5 -25 10 0 6 -11 10 -25 10 -20 0 -25 5 -25 25 0 14 -4 25 -10 25
-5 0 -10 11 -10 25 0 16 -6 25 -15 25 -8 0 -15 5 -15 10 0 6 -11 10 -25 10
-16 0 -25 6 -25 15 0 8 -9 15 -20 15 -11 0 -20 5 -20 10 0 6 -11 10 -25 10
-16 0 -25 6 -25 15 0 9 -9 15 -25 15 -14 0 -25 5 -25 10 0 6 -7 10 -15 10 -8
0 -15 7 -15 15 0 8 -9 15 -20 15 -22 0 -70 41 -70 60 0 5 -7 10 -15 10 -8 0
-15 5 -15 10 0 6 -11 10 -25 10 -16 0 -25 6 -25 15 0 9 -9 15 -25 15 -14 0
-25 5 -25 10 0 6 -16 10 -35 10 -31 0 -35 3 -35 25 0 16 -6 25 -15 25 -8 0
-15 7 -15 15 0 11 -12 15 -45 15 -25 0 -45 5 -45 10 0 6 -35 10 -86 10 -61 0
-90 4 -100 14 -8 8 -14 17 -14 21 0 14 -30 35 -49 35 -12 0 -21 6 -21 15 0 8
-7 15 -15 15 -8 0 -15 5 -15 10 0 6 -11 10 -25 10 -16 0 -25 6 -25 15 0 9 -9
15 -25 15 -14 0 -25 5 -25 10 0 6 -9 10 -20 10 -11 0 -20 7 -20 15 0 11 -12
15 -50 15 -27 0 -50 5 -50 10 0 6 -11 10 -25 10 -14 0 -25 5 -25 10 0 6 -11
10 -25 10 -14 0 -25 -4 -25 -10 0 -5 -22 -10 -50 -10 -27 0 -50 5 -50 10 0 6
-11 10 -25 10 -14 0 -25 5 -25 11 0 21 -29 39 -64 39 -20 0 -36 -4 -36 -10 0
-6 -30 -10 -70 -10 -40 0 -70 4 -70 10 0 6 -7 10 -15 10 -8 0 -15 7 -15 15 0
10 -11 15 -35 15 -24 0 -35 -5 -35 -15 0 -9 -9 -15 -24 -15 -13 0 -27 -6 -30
-12 -5 -10 -7 -10 -12 0 -3 6 -12 12 -20 12 -8 0 -14 7 -14 15 0 9 9 15 25 15
14 0 25 5 25 10 0 6 -21 10 -46 10 -44 0 -74 -16 -74 -39 0 -7 -28 -11 -75
-11 -60 0 -75 3 -75 15 0 10 -11 15 -35 15 -19 0 -35 5 -35 10 0 6 -7 10 -15
10 -8 0 -15 7 -15 15 0 13 -21 15 -131 15 -130 0 -159 7 -159 39 0 6 -11 11
-25 11 -20 0 -25 -5 -25 -25 0 -22 -4 -25 -35 -25 -19 0 -35 5 -35 10 0 6 -7
10 -15 10 -8 0 -15 7 -15 15 0 12 -13 15 -60 15 -33 0 -60 4 -60 10 0 6 11 10
25 10 16 0 25 6 25 15 0 8 5 15 10 15 6 0 10 5 10 10 0 6 -22 10 -50 10 -27 0
-50 -4 -50 -10z m-140 -100 c0 -5 -11 -10 -25 -10 -14 0 -25 5 -25 10 0 6 11
10 25 10 14 0 25 -4 25 -10z m240 -75 c0 -8 -4 -15 -10 -15 -5 0 -10 7 -10 15
0 8 5 15 10 15 6 0 10 -7 10 -15z m1110 -120 c0 -11 -11 -15 -40 -15 -29 0
-40 4 -40 15 0 11 11 15 40 15 29 0 40 -4 40 -15z m170 -40 c0 -16 -6 -25 -15
-25 -9 0 -15 9 -15 25 0 16 6 25 15 25 9 0 15 -9 15 -25z m360 -60 c0 -8 7
-15 15 -15 9 0 15 -9 15 -25 0 -14 5 -25 10 -25 6 0 10 -4 10 -10 0 -5 -16
-10 -35 -10 -33 0 -35 2 -35 35 0 19 -4 35 -10 35 -5 0 -10 7 -10 15 0 8 9 15
20 15 11 0 20 -7 20 -15z m1300 -760 c0 -8 7 -15 15 -15 8 0 15 -4 15 -10 0
-5 -11 -10 -25 -10 -20 0 -25 5 -25 25 0 14 5 25 10 25 6 0 10 -7 10 -15z
m-1790 -1416 c0 -20 -29 -39 -59 -39 -17 0 -31 -4 -31 -10 0 -5 -11 -10 -25
-10 -18 0 -25 5 -25 20 0 11 5 20 10 20 6 0 10 7 10 15 0 12 13 15 60 15 36 0
60 -4 60 -11z"/>
<path d="M5270 8715 c0 -11 11 -15 40 -15 29 0 40 4 40 15 0 11 -11 15 -40 15
-29 0 -40 -4 -40 -15z"/>
<path d="M10970 6259 c-513 -37 -907 -294 -950 -620 -5 -43 -10 -536 -10
-1180 0 -1061 1 -1109 19 -1181 37 -145 114 -259 246 -363 87 -69 261 -156
380 -190 195 -56 157 -55 1750 -55 l1471 0 154 -97 c627 -392 630 -393 659
-379 14 8 192 118 396 245 366 228 370 231 425 231 30 0 79 3 108 6 l52 7 0
-42 0 -41 60 0 60 0 0 -30 0 -30 -90 0 -90 0 0 -30 0 -30 -60 0 -60 0 0 -145
0 -145 30 0 c27 0 30 -3 30 -30 l0 -30 60 0 60 0 0 -60 0 -60 -30 0 -30 0 0
-60 0 -60 -30 0 c-30 0 -30 -1 -30 -55 0 -54 0 -55 -30 -55 l-30 0 0 -120 0
-120 -25 0 -25 0 0 -325 0 -325 25 0 c24 0 25 -3 25 -55 0 -54 0 -55 30 -55
27 0 30 -3 30 -30 l0 -30 60 0 60 0 0 -30 0 -30 145 0 145 0 0 30 0 30 60 0
60 0 0 30 c0 27 3 30 30 30 30 0 30 1 30 55 0 54 0 55 30 55 27 0 30 3 30 30
0 27 3 30 30 30 27 0 30 3 30 30 0 27 3 30 30 30 l30 0 0 60 0 60 30 0 30 0 0
60 0 60 30 0 30 0 0 60 c0 57 1 60 25 60 24 0 25 3 25 55 0 54 0 55 30 55 27
0 30 3 30 30 0 27 3 30 30 30 27 0 30 3 30 30 0 27 3 30 30 30 27 0 30 3 30
30 0 27 3 30 30 30 27 0 30 -3 30 -30 0 -27 3 -30 30 -30 27 0 30 -3 30 -30 0
-27 3 -30 30 -30 l30 0 0 120 0 120 -60 0 -60 0 0 -30 0 -30 -90 0 -90 0 0
-30 c0 -27 -3 -30 -30 -30 -27 0 -30 -3 -30 -30 0 -25 -4 -30 -25 -30 -24 0
-25 -3 -25 -60 l0 -60 -30 0 c-30 0 -30 -1 -30 -55 0 -54 0 -55 -30 -55 l-30
0 0 -60 0 -60 -30 0 -30 0 0 -60 0 -60 -30 0 -30 0 0 -60 0 -60 -30 0 c-27 0
-30 -3 -30 -30 0 -27 -3 -30 -30 -30 -27 0 -30 -3 -30 -30 0 -27 -3 -30 -30
-30 -25 0 -30 -4 -30 -25 0 -24 -3 -25 -55 -25 -54 0 -55 0 -55 -30 l0 -30
-120 0 -120 0 0 30 c0 27 -3 30 -30 30 -25 0 -30 4 -30 25 0 21 -5 25 -30 25
l-30 0 0 150 0 150 -30 0 -30 0 0 90 0 90 30 0 c30 0 30 1 30 55 0 54 0 55 30
55 l30 0 0 90 0 90 30 0 30 0 0 90 0 90 30 0 30 0 0 85 0 85 60 0 60 0 0 30
c0 30 1 30 55 30 54 0 55 0 55 30 0 27 3 30 30 30 l30 0 0 90 0 90 -30 0 c-30
0 -30 1 -30 55 0 52 -1 55 -25 55 -24 0 -25 3 -25 60 0 57 1 60 25 60 21 0 25
5 25 30 0 27 3 30 30 30 l30 0 0 60 0 60 30 0 c27 0 30 3 30 30 l0 30 60 0 60
0 0 30 0 30 60 0 60 0 0 -30 c0 -27 3 -30 30 -30 27 0 30 -3 30 -30 0 -27 3
-30 30 -30 l30 0 0 -150 0 -150 -30 0 c-27 0 -30 -3 -30 -30 0 -27 -3 -30 -30
-30 -25 0 -30 -4 -30 -25 0 -21 -5 -25 -30 -25 -27 0 -30 -3 -30 -30 0 -27 -3
-30 -30 -30 l-30 0 0 -120 0 -120 30 0 30 0 0 -145 0 -145 -30 0 -30 0 0 -60
0 -60 -30 0 -30 0 0 -60 0 -60 -30 0 c-27 0 -30 -3 -30 -30 0 -27 -3 -30 -30
-30 -25 0 -30 -4 -30 -25 0 -25 -1 -25 -85 -25 -84 0 -85 0 -85 25 0 21 -5 25
-30 25 l-30 0 0 60 0 60 30 0 30 0 0 60 0 60 30 0 30 0 0 90 c0 89 0 90 25 90
20 0 25 5 25 25 0 24 -3 25 -55 25 -52 0 -55 -1 -55 -25 0 -21 -5 -25 -30 -25
l-30 0 0 -90 0 -90 -30 0 -30 0 0 -175 0 -175 60 0 60 0 0 -30 0 -30 85 0 85
0 0 30 0 30 60 0 60 0 0 55 c0 54 0 55 30 55 27 0 30 3 30 30 0 27 3 30 30 30
l30 0 0 60 0 60 30 0 30 0 0 90 0 90 30 0 c30 0 30 1 30 55 l0 55 115 0 115 0
0 30 0 30 60 0 60 0 0 60 0 60 30 0 30 0 0 60 0 60 -30 0 c-27 0 -30 3 -30 30
l0 30 60 0 60 0 0 30 c0 27 -3 30 -30 30 -30 0 -30 1 -30 55 0 54 0 55 -30 55
-27 0 -30 3 -30 30 0 27 -3 30 -30 30 l-30 0 0 -60 0 -60 30 0 c30 0 30 -1 30
-55 0 -54 0 -55 -30 -55 -27 0 -30 3 -30 30 0 27 -3 30 -30 30 -25 0 -30 4
-30 25 0 21 -5 25 -30 25 l-30 0 0 180 0 180 -30 0 -30 0 0 60 c0 57 -1 60
-25 60 -20 0 -25 5 -25 25 0 24 0 24 -116 27 l-115 3 50 39 c82 61 165 176
206 281 19 49 20 82 20 1270 l0 1220 -38 78 c-63 129 -187 247 -344 327 -173
89 -349 134 -585 150 -169 11 -4389 11 -4548 -1z m4725 -97 c339 -65 584 -214
679 -412 l31 -65 3 -1185 c3 -1304 6 -1231 -59 -1343 -39 -66 -127 -157 -203
-209 -169 -116 -433 -198 -642 -198 l-71 0 -379 -236 c-208 -130 -383 -237
-389 -237 -5 0 -179 106 -385 234 l-374 234 -1476 2 c-1001 2 -1501 6 -1555
13 -422 58 -738 294 -775 580 -12 95 -13 2117 0 2254 7 78 15 111 39 161 115
233 439 397 841 425 58 4 1118 7 2355 6 l2250 -2 110 -22z m265 -3422 c0 -18
-6 -20 -52 -19 l-53 1 50 18 c28 10 51 19 53 19 1 1 2 -8 2 -19z m-170 -350
c0 -27 3 -30 30 -30 25 0 30 -4 30 -25 0 -21 5 -25 30 -25 l30 0 0 -90 0 -90
-30 0 c-27 0 -30 3 -30 30 0 27 -3 30 -30 30 -27 0 -30 3 -30 30 0 27 3 30 30
30 27 0 30 3 30 30 0 27 -3 30 -30 30 -25 0 -30 4 -30 25 0 24 -3 25 -60 25
l-60 0 0 -55 c0 -54 0 -55 30 -55 27 0 30 -3 30 -30 0 -27 -3 -30 -30 -30 -27
0 -30 3 -30 30 l0 30 -60 0 -60 0 0 30 c0 27 3 30 30 30 30 0 30 1 30 55 l0
55 90 0 90 0 0 -30z m760 -170 c0 -27 3 -30 30 -30 27 0 30 -3 30 -30 0 -27 3
-30 30 -30 27 0 30 -3 30 -30 0 -27 -3 -30 -30 -30 -27 0 -30 -3 -30 -30 l0
-30 -60 0 -60 0 0 30 c0 27 3 30 30 30 l30 0 0 60 0 60 -85 0 -85 0 0 -60 0
-60 -30 0 -30 0 0 90 0 90 115 0 115 0 0 -30z"/>
<path d="M11205 5277 c-3 -7 -4 -152 -3 -322 l3 -310 38 -3 37 -3 0 153 c0
169 3 180 64 217 42 26 76 27 104 1 29 -28 32 -42 35 -215 l2 -150 38 -3 37
-3 0 177 c0 162 -2 179 -22 215 -41 74 -131 90 -211 39 l-47 -30 0 125 0 125
-35 0 c-20 0 -38 -6 -40 -13z"/>
<path d="M13245 5277 c-3 -7 -4 -152 -3 -322 l3 -310 38 -3 37 -3 0 325 0 326
-35 0 c-20 0 -38 -6 -40 -13z"/>
<path d="M13465 5277 c-3 -7 -4 -152 -3 -322 l3 -310 38 -3 37 -3 0 325 0 326
-35 0 c-20 0 -38 -6 -40 -13z"/>
<path d="M14977 5283 c-9 -8 -9 -124 0 -325 l6 -158 32 0 33 0 7 234 c4 129 4
239 1 245 -8 12 -69 15 -79 4z"/>
<path d="M10730 5251 c-82 -25 -151 -94 -175 -175 -20 -65 -19 -208 1 -275 34
-117 135 -179 273 -169 118 9 206 77 237 184 24 84 16 253 -15 313 -31 60 -77
99 -135 116 -52 16 -144 18 -186 6z m170 -84 c51 -27 76 -70 90 -153 17 -102
-5 -210 -53 -263 -47 -51 -132 -65 -207 -35 -70 28 -102 96 -102 222 0 42 5
96 11 120 14 49 76 118 113 125 59 11 107 6 148 -16z"/>
<path d="M12175 5237 c-3 -7 -4 -143 -3 -302 l3 -290 38 -3 37 -3 0 140 0 141
140 0 140 0 0 -140 0 -140 40 0 40 0 0 305 0 305 -40 0 -40 0 0 -130 0 -130
-140 0 -140 0 0 130 0 130 -35 0 c-20 0 -38 -6 -40 -13z"/>
<path d="M12855 5081 c-79 -36 -119 -109 -120 -221 0 -163 84 -240 247 -227
87 7 122 24 126 60 4 32 -2 33 -69 11 -114 -38 -206 5 -216 100 l-6 46 145 0
c175 0 177 1 160 91 -6 32 -21 73 -33 90 -45 64 -154 87 -234 50z m135 -56
c33 -17 44 -35 53 -82 l7 -33 -115 0 c-109 0 -115 1 -115 20 0 81 95 134 170
95z"/>
<path d="M14060 5089 c-13 -6 -39 -21 -57 -35 l-33 -25 0 30 c0 29 -3 31 -35
31 l-35 0 2 -222 3 -223 38 -3 37 -3 0 153 c0 169 3 180 64 217 42 26 76 27
104 1 29 -28 32 -42 35 -215 l2 -150 38 -3 37 -3 0 177 c0 162 -2 179 -22 215
-33 60 -110 85 -178 58z"/>
<path d="M14495 5081 c-84 -38 -133 -141 -121 -253 13 -129 85 -198 206 -198
132 0 220 95 220 240 0 66 -25 141 -57 172 -61 58 -169 75 -248 39z m154 -56
c52 -26 79 -121 61 -209 -14 -69 -52 -107 -112 -113 -53 -5 -85 11 -116 57
-21 31 -23 44 -20 117 2 64 8 88 24 110 39 52 106 68 163 38z"/>
<path d="M11722 4738 c-7 -7 -12 -29 -12 -50 0 -21 -13 -68 -30 -105 -16 -36
-30 -67 -30 -69 0 -7 45 -4 56 4 6 4 30 35 52 69 44 69 60 126 41 149 -14 17
-61 18 -77 2z"/>
<path d="M14968 4715 c-8 -18 -9 -35 -2 -53 8 -23 15 -27 48 -27 33 0 41 4 48
26 5 16 5 37 -1 52 -9 22 -17 27 -46 27 -28 0 -38 -5 -47 -25z"/>
<path d="M10919 3923 c-3 -26 3 -211 7 -226 4 -13 14 -17 32 -15 27 3 27 4 35
113 4 60 5 115 3 122 -6 14 -75 19 -77 6z"/>
<path d="M12635 3907 c-3 -7 -4 -152 -3 -322 l3 -310 38 -3 37 -3 0 325 0 326
-35 0 c-20 0 -38 -6 -40 -13z"/>
<path d="M14387 3913 c-9 -8 -9 -124 0 -325 l6 -158 32 0 33 0 7 234 c4 129 4
239 1 245 -8 12 -69 15 -79 4z"/>
<path d="M14697 3913 c-9 -8 -9 -124 0 -325 l6 -158 32 0 33 0 7 234 c4 129 4
239 1 245 -8 12 -69 15 -79 4z"/>
<path d="M15007 3913 c-9 -8 -9 -124 0 -325 l6 -158 32 0 33 0 7 234 c4 129 4
239 1 245 -8 12 -69 15 -79 4z"/>
<path d="M11813 3878 c-48 -16 -94 -69 -100 -116 -13 -100 21 -148 147 -212
113 -57 141 -101 105 -170 -28 -55 -129 -64 -215 -20 -23 12 -45 18 -50 15
-12 -7 -13 -45 -2 -61 27 -42 159 -66 238 -44 119 34 170 172 99 266 -14 18
-61 51 -112 77 -100 51 -120 70 -129 115 -5 26 -1 36 24 62 37 36 85 40 151
10 59 -27 63 -26 59 17 -2 30 -9 41 -32 52 -38 18 -142 23 -183 9z"/>
<path d="M12852 3878 c-7 -7 -12 -21 -12 -33 0 -28 19 -45 50 -45 31 0 50 17
50 45 0 28 -19 45 -50 45 -14 0 -31 -5 -38 -12z"/>
<path d="M13882 3878 c-7 -7 -12 -21 -12 -33 0 -28 19 -45 50 -45 31 0 50 17
50 45 0 28 -19 45 -50 45 -14 0 -31 -5 -38 -12z"/>
<path d="M10377 3873 c-4 -3 -7 -141 -7 -305 l0 -298 40 0 40 0 0 305 0 305
-33 0 c-19 0 -37 -3 -40 -7z"/>
<path d="M10620 3781 l0 -61 -34 0 c-21 0 -36 -6 -40 -15 -10 -28 5 -45 39
-45 l34 0 3 -170 c3 -168 3 -170 30 -196 19 -20 40 -28 76 -32 64 -6 92 9 92
49 0 30 0 30 -44 24 -69 -11 -76 7 -76 182 l0 143 60 0 60 0 0 30 c0 30 0 30
-60 30 l-59 0 -3 58 -3 57 -37 3 -38 3 0 -60z"/>
<path d="M11185 3717 c-47 -22 -67 -52 -73 -105 -4 -44 -1 -53 27 -84 18 -21
53 -44 88 -57 71 -27 93 -46 93 -80 0 -32 -8 -44 -37 -60 -32 -17 -79 -13
-125 9 -55 27 -60 26 -56 -12 4 -40 38 -60 116 -66 108 -9 182 45 182 134 0
57 -29 90 -109 127 -82 36 -101 53 -101 88 0 53 64 74 137 44 49 -21 53 -19
53 15 0 20 -7 33 -22 41 -34 18 -138 22 -173 6z"/>
<path d="M12260 3724 c-68 -25 -91 -40 -96 -61 -11 -41 8 -46 67 -18 104 48
179 22 179 -63 l0 -39 -80 -6 c-118 -8 -176 -49 -186 -133 -10 -76 56 -144
139 -144 44 0 96 20 117 45 14 17 15 16 20 -6 4 -18 14 -25 38 -27 l32 -3 0
176 c0 194 -7 228 -56 259 -28 19 -142 32 -174 20z m150 -292 c0 -40 -5 -53
-29 -76 -63 -60 -153 -39 -153 36 0 20 3 42 7 48 13 21 69 39 123 40 l52 0 0
-48z"/>
<path d="M13165 3711 c-79 -36 -119 -109 -120 -221 0 -163 84 -240 247 -227
87 7 122 24 126 60 4 32 -2 33 -69 11 -114 -38 -206 5 -216 100 l-6 46 145 0
c175 0 177 1 160 91 -6 32 -21 73 -33 90 -45 64 -154 87 -234 50z m135 -56
c33 -17 44 -35 53 -82 l7 -33 -115 0 c-109 0 -115 1 -115 20 0 81 95 134 170
95z"/>
<path d="M13660 3694 l-40 -36 0 31 c0 29 -2 31 -35 31 l-35 0 0 -226 0 -225
38 3 37 3 5 150 c5 146 6 151 33 187 33 43 53 52 102 42 35 -6 35 -6 35 29 0
39 -12 47 -66 47 -25 0 -44 -9 -74 -36z"/>
<path d="M12854 3707 c-2 -7 -3 -107 -2 -222 l3 -210 38 -3 37 -3 0 225 0 226
-35 0 c-20 0 -38 -6 -41 -13z"/>
<path d="M13884 3707 c-2 -7 -3 -107 -2 -222 l3 -210 38 -3 37 -3 0 225 0 226
-35 0 c-20 0 -38 -6 -41 -13z"/>
<path d="M14378 3345 c-8 -18 -9 -35 -2 -53 8 -23 15 -27 48 -27 33 0 41 4 48
26 5 16 5 37 -1 52 -9 22 -17 27 -46 27 -28 0 -38 -5 -47 -25z"/>
<path d="M14688 3345 c-8 -18 -9 -35 -2 -53 8 -23 15 -27 48 -27 33 0 41 4 48
26 5 16 5 37 -1 52 -9 22 -17 27 -46 27 -28 0 -38 -5 -47 -25z"/>
<path d="M14998 3345 c-8 -18 -9 -35 -2 -53 8 -23 15 -27 48 -27 33 0 41 4 48
26 5 16 5 37 -1 52 -9 22 -17 27 -46 27 -28 0 -38 -5 -47 -25z"/>
<path d="M5080 6070 c0 -6 -35 -10 -85 -10 -69 0 -85 -3 -85 -15 0 -12 -14
-15 -65 -15 -37 0 -65 -4 -65 -10 0 -5 -16 -10 -35 -10 -19 0 -35 -4 -35 -10
0 -5 -11 -10 -25 -10 -20 0 -25 -5 -25 -25 0 -14 -4 -25 -10 -25 -5 0 -10 -22
-10 -50 0 -47 2 -50 25 -50 16 0 25 -6 25 -15 0 -9 9 -15 25 -15 18 0 25 -5
25 -20 0 -17 -7 -20 -50 -20 -38 0 -50 -4 -50 -15 0 -8 -5 -15 -11 -15 -17 0
-39 -27 -39 -49 0 -12 5 -21 10 -21 6 0 10 -11 10 -25 0 -14 -4 -25 -10 -25
-5 0 -10 -22 -10 -50 0 -27 5 -50 10 -50 6 0 10 -32 10 -75 0 -60 3 -75 15
-75 12 0 15 -13 15 -60 0 -33 4 -60 10 -60 6 0 10 -32 10 -75 0 -60 3 -75 15
-75 12 0 15 -13 15 -60 0 -33 4 -60 10 -60 6 0 10 -22 10 -50 0 -38 4 -50 15
-50 8 0 15 -4 15 -10 0 -15 60 -12 76 4 16 17 20 136 4 136 -6 0 -10 27 -10
60 0 47 -3 60 -15 60 -12 0 -15 13 -15 60 0 33 -4 60 -10 60 -6 0 -10 32 -10
75 0 43 -4 75 -10 75 -6 0 -10 27 -10 60 0 47 -3 60 -15 60 -8 0 -15 5 -15 10
0 6 7 10 15 10 9 0 15 9 15 25 0 14 5 25 10 25 6 0 10 5 10 11 0 14 25 39 39
39 6 0 11 5 11 11 0 21 29 39 64 39 25 0 36 4 36 15 0 13 27 15 180 15 153 0
180 -2 180 -15 0 -9 9 -15 25 -15 14 0 25 -4 25 -10 0 -5 7 -10 15 -10 8 0 15
-5 15 -11 0 -26 30 -39 95 -39 71 0 95 12 95 49 0 14 -6 21 -20 21 -17 0 -20
7 -20 40 l0 40 -50 0 c-27 0 -50 5 -50 10 0 6 -11 10 -25 10 -22 0 -25 4 -25
35 0 19 5 35 10 35 6 0 10 7 10 15 0 11 12 15 50 15 38 0 50 -4 50 -15 0 -8 7
-15 15 -15 8 0 15 -4 15 -10 0 -5 9 -10 20 -10 11 0 20 -7 20 -15 0 -8 7 -15
15 -15 8 0 15 -4 15 -10 0 -5 16 -10 35 -10 19 0 35 5 35 10 0 6 7 10 15 10 9
0 15 9 15 25 0 16 -6 25 -15 25 -8 0 -15 5 -15 11 0 14 -25 39 -39 39 -6 0
-11 5 -11 11 0 17 -27 39 -49 39 -12 0 -21 5 -21 11 0 21 -29 39 -64 39 -20 0
-36 5 -36 10 0 6 -16 10 -35 10 -24 0 -35 5 -35 15 0 11 -12 15 -50 15 -27 0
-50 5 -50 10 0 6 -35 10 -85 10 -50 0 -85 -4 -85 -10z"/>
<path d="M6260 6045 c0 -8 -5 -15 -11 -15 -23 0 -39 -30 -39 -74 0 -25 5 -46
10 -46 6 0 10 -22 10 -50 0 -38 4 -50 15 -50 8 0 15 -9 15 -20 0 -11 5 -20 10
-20 6 0 10 -11 10 -25 0 -14 5 -25 10 -25 6 0 10 -11 10 -25 0 -16 6 -25 15
-25 8 0 15 -7 15 -15 0 -8 5 -15 10 -15 6 0 10 -11 10 -25 0 -16 6 -25 15 -25
9 0 15 -9 15 -25 0 -14 5 -25 10 -25 6 0 10 -9 10 -20 0 -11 7 -20 15 -20 9 0
15 -9 15 -25 0 -14 5 -25 10 -25 6 0 10 -11 10 -25 0 -16 6 -25 15 -25 8 0 15
-7 15 -15 0 -8 5 -15 10 -15 6 0 10 -9 10 -21 0 -22 22 -49 39 -49 6 0 11 -9
11 -21 0 -22 22 -49 39 -49 6 0 11 -18 11 -40 0 -22 5 -40 10 -40 6 0 10 -20
10 -45 0 -41 2 -45 25 -45 24 0 25 3 25 60 0 33 -4 60 -10 60 -5 0 -10 23 -10
50 0 38 -4 50 -15 50 -11 0 -15 12 -15 45 0 25 -4 45 -10 45 -5 0 -10 18 -10
40 0 29 -4 40 -15 40 -10 0 -15 11 -15 35 0 19 -4 35 -10 35 -5 0 -10 11 -10
25 0 16 -6 25 -15 25 -10 0 -15 11 -15 35 0 19 -4 35 -10 35 -5 0 -10 11 -10
25 0 14 -4 25 -10 25 -5 0 -10 11 -10 25 0 16 -6 25 -15 25 -9 0 -15 9 -15 25
0 14 -4 25 -10 25 -5 0 -10 11 -10 25 0 16 -6 25 -15 25 -9 0 -15 9 -15 25 0
14 -4 25 -10 25 -5 0 -10 11 -10 25 0 14 -5 25 -11 25 -17 0 -39 27 -39 49 0
12 -5 21 -11 21 -6 0 -17 6 -25 14 -8 8 -14 19 -14 25 0 6 -4 11 -10 11 -5 0
-10 -7 -10 -15z"/>
<path d="M2900 5975 c0 -8 -7 -15 -15 -15 -9 0 -15 -9 -15 -25 0 -14 -4 -25
-10 -25 -6 0 -10 -38 -10 -95 0 -57 4 -95 10 -95 6 0 10 5 10 10 0 6 7 10 15
10 10 0 15 11 15 35 0 19 5 35 10 35 6 0 10 37 10 90 0 53 -4 90 -10 90 -5 0
-10 -7 -10 -15z"/>
<path d="M3800 5975 c0 -13 -26 -15 -170 -15 -107 0 -170 -4 -170 -10 0 -5
-16 -10 -35 -10 -24 0 -35 -5 -35 -15 0 -11 -11 -15 -40 -15 l-40 0 0 -46 c0
-47 -16 -74 -45 -74 -32 0 -45 -26 -45 -89 0 -48 -3 -61 -15 -61 -8 0 -15 -4
-15 -10 0 -5 7 -10 15 -10 8 0 15 -7 15 -15 0 -11 12 -15 45 -15 33 0 45 4 45
15 0 9 9 15 25 15 14 0 25 5 25 10 0 6 18 10 40 10 22 0 40 -4 40 -10 0 -5 11
-10 25 -10 16 0 25 -6 25 -15 0 -10 11 -15 35 -15 24 0 35 5 35 15 0 11 12 15
50 15 28 0 50 5 50 10 0 6 16 10 35 10 24 0 35 5 35 15 0 10 11 15 35 15 19 0
35 5 35 10 0 6 28 10 65 10 51 0 65 3 65 15 0 12 14 15 70 15 56 0 70 -3 70
-15 0 -11 12 -15 50 -15 28 0 50 -4 50 -10 0 -5 11 -10 25 -10 14 0 25 5 25
10 0 6 7 10 15 10 8 0 15 7 15 15 0 8 9 15 20 15 11 0 20 -7 20 -15 0 -8 5
-15 11 -15 14 0 39 -25 39 -39 0 -6 11 -11 25 -11 14 0 25 -4 25 -10 0 -15 19
-12 36 4 16 16 19 86 4 86 -5 0 -10 20 -10 45 0 33 -4 45 -15 45 -8 0 -15 5
-15 11 0 14 -25 39 -39 39 -6 0 -11 5 -11 11 0 17 -27 39 -49 39 -12 0 -21 6
-21 15 0 9 -9 15 -25 15 -14 0 -25 5 -25 10 0 6 -22 10 -50 10 -38 0 -50 4
-50 15 0 13 -24 15 -160 15 -136 0 -160 -2 -160 -15z"/>
<path d="M2480 5815 c0 -14 -4 -25 -10 -25 -5 0 -10 -11 -10 -25 0 -16 -6 -25
-15 -25 -10 0 -15 -11 -15 -35 0 -19 -4 -35 -10 -35 -5 0 -10 -22 -10 -50 0
-47 -2 -50 -25 -50 -23 0 -25 -3 -25 -50 0 -29 -5 -50 -11 -50 -13 0 -39 -25
-39 -38 0 -6 6 -13 13 -16 10 -5 10 -7 0 -12 -7 -3 -13 -17 -13 -30 0 -15 -6
-24 -15 -24 -9 0 -15 -9 -15 -25 0 -14 -4 -25 -10 -25 -5 0 -10 -11 -10 -25 0
-14 -4 -25 -10 -25 -5 0 -10 -11 -10 -25 0 -16 -6 -25 -15 -25 -10 0 -15 -11
-15 -35 0 -19 -4 -35 -10 -35 -5 0 -10 -11 -10 -25 0 -16 -6 -25 -15 -25 -10
0 -15 -11 -15 -35 0 -19 -4 -35 -10 -35 -5 0 -10 -18 -10 -40 0 -29 -4 -40
-15 -40 -11 0 -15 -12 -15 -50 0 -27 -4 -50 -10 -50 -5 0 -10 -20 -10 -45 0
-33 -4 -45 -15 -45 -12 0 -15 -14 -15 -65 0 -63 1 -65 25 -65 23 0 25 3 25 50
0 38 4 50 15 50 11 0 15 11 15 36 0 35 18 64 39 64 6 0 11 9 11 21 0 22 22 49
39 49 6 0 11 11 11 25 0 14 5 25 10 25 6 0 10 7 10 15 0 8 5 15 10 15 6 0 10
11 10 25 0 16 6 25 15 25 9 0 15 9 15 25 0 14 5 25 10 25 6 0 10 20 10 45 0
33 4 45 15 45 8 0 15 7 15 15 0 8 5 15 10 15 6 0 10 27 10 60 0 47 3 60 15 60
11 0 15 12 15 50 0 28 5 50 10 50 6 0 10 23 10 50 0 38 4 50 15 50 10 0 15 11
15 35 0 19 5 35 10 35 6 0 10 16 10 35 0 24 5 35 15 35 11 0 15 12 15 50 0 28
5 50 10 50 6 0 10 23 10 50 0 47 -2 50 -25 50 -20 0 -25 -5 -25 -25z"/>
<path d="M2630 5755 c0 -24 -5 -35 -15 -35 -11 0 -15 -12 -15 -50 0 -27 -4
-50 -10 -50 -6 0 -10 -32 -10 -75 0 -60 -3 -75 -15 -75 -12 0 -15 -15 -15 -75
0 -43 -4 -75 -10 -75 -6 0 -10 -38 -10 -95 0 -57 -4 -95 -10 -95 -6 0 -10 -35
-10 -85 0 -69 -3 -85 -15 -85 -11 0 -15 -12 -15 -50 0 -29 5 -50 11 -50 17 0
39 27 39 49 0 12 5 21 10 21 6 0 10 28 10 65 0 51 3 65 15 65 12 0 15 16 15
85 0 50 4 85 10 85 6 0 10 16 10 35 0 24 5 35 15 35 10 0 15 11 15 35 0 19 5
35 10 35 6 0 10 32 10 75 0 60 3 75 15 75 13 0 15 22 15 135 l0 135 -25 0
c-22 0 -25 -4 -25 -35z"/>
<path d="M5670 5695 c0 -22 4 -25 35 -25 19 0 35 5 35 10 0 6 -4 10 -10 10 -5
0 -10 7 -10 15 0 9 -9 15 -25 15 -20 0 -25 -5 -25 -25z"/>
<path d="M2813 5675 c-16 -18 -19 -425 -3 -425 6 0 10 -43 10 -110 l0 -110
-25 0 c-24 0 -25 -3 -25 -60 0 -47 3 -60 15 -60 9 0 15 -9 15 -25 0 -14 5 -25
10 -25 6 0 10 -11 10 -25 0 -16 6 -25 15 -25 11 0 15 -12 15 -50 0 -38 -4 -50
-15 -50 -8 0 -15 -4 -15 -10 0 -5 -11 -10 -25 -10 -16 0 -25 -6 -25 -15 0 -8
-4 -15 -10 -15 -5 0 -10 -11 -10 -25 0 -14 -4 -25 -10 -25 -5 0 -10 -16 -10
-35 0 -19 5 -35 10 -35 6 0 10 -16 10 -35 0 -33 2 -35 35 -35 19 0 35 5 35 10
0 6 7 10 15 10 9 0 15 9 15 25 0 14 5 25 10 25 6 0 10 11 10 25 0 14 5 25 11
25 14 0 39 25 39 39 0 7 24 11 60 11 l60 0 0 35 c0 19 -4 35 -10 35 -5 0 -10
18 -10 40 0 22 -4 40 -10 40 -5 0 -10 16 -10 35 0 24 -5 35 -15 35 -10 0 -15
11 -15 35 0 24 5 35 15 35 8 0 15 7 15 15 0 8 -7 15 -15 15 -9 0 -15 9 -15 25
0 14 -4 25 -10 25 -14 0 -12 47 3 54 10 5 10 7 0 12 -7 3 -13 21 -13 40 0 24
-5 34 -15 34 -13 0 -15 21 -15 125 0 77 -4 125 -10 125 -6 0 -10 43 -10 110 0
91 -3 110 -15 110 -9 0 -15 9 -15 21 0 21 -22 49 -37 49 -4 -1 -14 -7 -20 -15z"/>
<path d="M4370 5565 c0 -16 -6 -25 -15 -25 -10 0 -15 -11 -15 -35 0 -24 5 -35
15 -35 9 0 15 9 15 25 0 14 5 25 10 25 6 0 10 16 10 35 0 19 -4 35 -10 35 -5
0 -10 -11 -10 -25z"/>
<path d="M2010 5410 c0 -5 -9 -10 -20 -10 -11 0 -20 -7 -20 -15 0 -8 -5 -15
-11 -15 -17 0 -39 -27 -39 -49 0 -12 -6 -21 -15 -21 -10 0 -15 -11 -15 -35 0
-31 -3 -35 -25 -35 -16 0 -25 -6 -25 -15 0 -9 9 -15 25 -15 24 0 25 -3 25 -60
0 -57 1 -60 25 -60 20 0 25 5 25 25 0 14 5 25 11 25 21 0 39 29 39 64 0 20 5
36 10 36 6 0 10 11 10 25 0 14 5 25 11 25 17 0 39 27 39 49 0 12 6 21 15 21 8
0 15 5 15 10 0 6 -7 10 -15 10 -8 0 -15 5 -15 11 0 14 -25 39 -39 39 -6 0 -11
-4 -11 -10z"/>
<path d="M5990 5370 c0 -38 -4 -50 -15 -50 -10 0 -15 -10 -15 -31 0 -30 -19
-59 -39 -59 -6 0 -11 -7 -11 -15 0 -8 5 -15 11 -15 6 0 17 -6 25 -14 8 -8 14
-19 14 -25 0 -6 7 -11 15 -11 8 0 15 -4 15 -10 0 -5 5 -10 10 -10 6 0 10 16
10 35 0 31 3 35 25 35 23 0 25 3 25 50 0 38 -4 50 -15 50 -12 0 -15 13 -15 60
0 53 -2 60 -20 60 -17 0 -20 -7 -20 -50z"/>
<path d="M6110 5364 c0 -35 18 -64 39 -64 6 0 11 16 11 35 0 24 -5 35 -15 35
-8 0 -15 7 -15 15 0 8 -4 15 -10 15 -5 0 -10 -16 -10 -36z"/>
<path d="M5470 5290 c0 -6 -27 -10 -60 -10 -47 0 -60 -3 -60 -15 0 -11 -12
-15 -50 -15 -27 0 -50 -4 -50 -10 0 -5 -11 -10 -25 -10 -16 0 -25 -6 -25 -15
0 -8 -4 -15 -10 -15 -5 0 -10 -16 -10 -35 0 -19 5 -35 10 -35 6 0 10 -7 10
-15 0 -12 13 -15 60 -15 47 0 60 3 60 15 0 9 9 15 25 15 14 0 25 5 25 10 0 6
11 10 25 10 16 0 25 6 25 15 0 11 11 15 40 15 36 0 40 3 40 25 0 16 -6 25 -15
25 -8 0 -15 5 -15 10 0 6 9 10 21 10 22 0 49 -22 49 -39 0 -6 7 -11 15 -11 8
0 15 6 15 14 0 8 6 17 13 20 10 5 10 7 0 12 -7 3 -13 12 -13 20 0 8 -10 14
-25 14 -14 0 -25 5 -25 10 0 6 -11 10 -25 10 -14 0 -25 -4 -25 -10z"/>
<path d="M6180 5266 c0 -8 -6 -17 -12 -20 -10 -5 -10 -7 0 -12 6 -3 12 -17 12
-30 0 -15 6 -24 15 -24 11 0 15 -11 15 -40 0 -22 5 -40 10 -40 6 0 10 -16 10
-35 0 -24 5 -35 15 -35 9 0 15 -9 15 -25 0 -14 5 -25 10 -25 6 0 10 -16 10
-35 0 -19 5 -35 10 -35 6 0 10 -18 10 -40 0 -29 4 -40 15 -40 10 0 15 -11 15
-35 0 -19 5 -35 10 -35 6 0 10 -16 10 -35 0 -24 5 -35 15 -35 11 0 15 -11 15
-40 0 -22 5 -40 10 -40 6 0 10 -20 10 -45 0 -33 4 -45 15 -45 11 0 15 -11 15
-40 0 -22 5 -40 10 -40 6 0 10 -20 10 -45 0 -33 4 -45 15 -45 12 0 15 -14 15
-65 0 -37 4 -65 10 -65 6 0 10 -21 10 -46 0 -44 16 -74 39 -74 7 0 11 -36 11
-100 0 -60 4 -100 10 -100 6 0 10 -30 10 -70 0 -56 3 -70 15 -70 12 0 15 -15
15 -75 0 -43 4 -75 10 -75 6 0 10 -27 10 -60 0 -47 3 -60 15 -60 12 0 15 -13
15 -60 0 -33 4 -60 10 -60 6 0 10 -32 10 -75 0 -60 3 -75 15 -75 12 0 15 -18
15 -100 0 -60 4 -100 10 -100 6 0 10 -30 10 -70 0 -56 3 -70 15 -70 9 0 15 -9
15 -25 0 -14 5 -25 10 -25 6 0 10 -40 10 -100 0 -60 4 -100 10 -100 6 0 10
-43 10 -110 0 -91 3 -110 15 -110 13 0 15 -20 15 -120 0 -73 4 -120 10 -120 6
0 10 -37 10 -90 0 -73 3 -90 15 -90 11 0 15 -12 15 -45 0 -25 5 -45 10 -45 6
0 10 -22 10 -50 0 -38 4 -50 15 -50 13 0 15 -21 15 -125 0 -77 4 -125 10 -125
6 0 10 -35 10 -85 0 -69 3 -85 15 -85 11 0 15 -12 15 -50 0 -27 5 -50 10 -50
6 0 10 -52 10 -135 0 -83 4 -135 10 -135 6 0 10 -43 10 -110 0 -91 3 -110 15
-110 12 0 15 -14 15 -70 0 -40 4 -70 10 -70 6 0 10 -32 10 -75 0 -60 3 -75 15
-75 12 0 15 -16 15 -85 0 -50 4 -85 10 -85 6 0 10 -32 10 -75 0 -60 3 -75 15
-75 11 0 15 -12 15 -50 l0 -50 -195 0 c-167 0 -195 2 -195 15 0 9 -9 15 -25
15 -14 0 -25 5 -25 10 0 6 -7 10 -15 10 -12 0 -15 15 -15 75 0 43 -4 75 -10
75 -6 0 -10 85 -10 235 0 150 4 235 10 235 6 0 10 9 10 20 0 11 -4 20 -10 20
-5 0 -10 18 -10 40 0 29 -4 40 -15 40 -9 0 -15 9 -15 25 0 14 -4 25 -10 25 -5
0 -10 11 -10 25 0 16 -6 25 -15 25 -8 0 -15 5 -15 10 0 6 7 10 15 10 9 0 15 9
15 25 0 20 5 25 25 25 24 0 25 3 25 60 0 47 -3 60 -15 60 -11 0 -15 11 -15 40
0 22 -4 40 -10 40 -15 0 -12 67 3 74 10 5 10 7 0 12 -9 4 -13 28 -13 70 0 50
-3 64 -15 64 -13 0 -15 23 -15 145 0 90 -4 145 -10 145 -6 0 -10 32 -10 75 0
60 -3 75 -15 75 -12 0 -15 20 -15 120 0 73 -4 120 -10 120 -6 0 -10 57 -10
150 0 93 -4 150 -10 150 -6 0 -10 55 -10 145 0 122 -2 145 -15 145 -12 0 -15
20 -15 120 0 73 -4 120 -10 120 -6 0 -10 43 -10 110 0 91 -3 110 -15 110 -13
0 -15 22 -15 135 0 83 -4 135 -10 135 -6 0 -10 48 -10 125 0 104 -2 125 -15
125 -11 0 -15 12 -15 50 0 28 -4 50 -10 50 -6 0 -10 47 -10 120 0 100 -2 120
-15 120 -13 0 -15 21 -15 125 0 77 -4 125 -10 125 -6 0 -10 30 -10 70 0 40 -4
70 -10 70 -5 0 -10 23 -10 50 0 38 -4 50 -15 50 -12 0 -15 13 -15 60 0 33 -4
60 -10 60 -5 0 -10 23 -10 50 0 38 -4 50 -15 50 -11 0 -15 12 -15 50 0 28 -4
50 -10 50 -5 0 -10 23 -10 50 0 38 -4 50 -15 50 -10 0 -15 11 -15 35 0 19 -4
35 -10 35 -5 0 -10 7 -10 15 0 9 -9 15 -25 15 -16 0 -25 -6 -25 -15 0 -8 5
-15 10 -15 6 0 10 -22 10 -50 0 -38 4 -50 15 -50 12 0 15 -14 15 -70 0 -40 4
-70 10 -70 6 0 10 -32 10 -75 0 -60 3 -75 15 -75 12 0 15 -13 15 -60 0 -47 -3
-60 -15 -60 -8 0 -15 -7 -15 -15 0 -8 -4 -15 -10 -15 -5 0 -10 -16 -10 -35 0
-24 -5 -35 -15 -35 -12 0 -15 -13 -15 -60 0 -33 -4 -60 -10 -60 -5 0 -10 -18
-10 -40 0 -29 -4 -40 -15 -40 -10 0 -15 -11 -15 -35 0 -19 -4 -35 -10 -35 -5
0 -10 -11 -10 -25 0 -14 -4 -25 -10 -25 -5 0 -10 -11 -10 -25 0 -16 -6 -25
-15 -25 -10 0 -15 -11 -15 -35 0 -19 -4 -35 -10 -35 -5 0 -10 -11 -10 -25 0
-16 -6 -25 -15 -25 -10 0 -15 -11 -15 -35 0 -19 -4 -35 -10 -35 -5 0 -10 -11
-10 -25 0 -16 -6 -25 -15 -25 -8 0 -15 -5 -15 -11 0 -14 -25 -39 -39 -39 -6 0
-11 -11 -11 -25 0 -14 -4 -25 -10 -25 -5 0 -10 -11 -10 -25 0 -16 -6 -25 -15
-25 -9 0 -15 -9 -15 -23 0 -12 -9 -29 -20 -37 -11 -8 -20 -25 -20 -37 0 -14
-6 -23 -15 -23 -9 0 -15 -9 -15 -25 0 -14 -4 -25 -10 -25 -5 0 -10 -7 -10 -15
0 -8 -7 -15 -15 -15 -9 0 -15 -9 -15 -21 0 -19 -21 -49 -35 -49 -10 0 -35 -28
-35 -39 0 -6 -5 -11 -11 -11 -11 0 -39 -25 -39 -35 0 -10 -28 -35 -39 -35 -6
0 -11 -5 -11 -11 0 -14 -25 -39 -39 -39 -6 0 -11 -5 -11 -11 0 -17 -27 -39
-49 -39 -12 0 -21 -4 -21 -10 0 -5 -7 -10 -15 -10 -8 0 -15 -5 -15 -11 0 -17
-27 -39 -49 -39 -12 0 -21 -5 -21 -11 0 -14 -25 -39 -39 -39 -6 0 -11 -5 -11
-11 0 -14 -25 -39 -39 -39 -6 0 -11 -5 -11 -11 0 -14 -25 -39 -39 -39 -6 0
-11 -7 -11 -15 0 -10 -11 -15 -35 -15 -31 0 -35 3 -35 25 0 14 -4 25 -10 25
-5 0 -10 -4 -10 -10 0 -5 -7 -10 -15 -10 -11 0 -15 -12 -15 -50 0 -38 4 -50
15 -50 10 0 15 -11 15 -35 0 -28 4 -35 20 -35 17 0 20 -7 20 -50 0 -38 4 -50
15 -50 10 0 15 -11 15 -35 0 -19 5 -35 10 -35 6 0 10 -7 10 -15 0 -8 7 -15 15
-15 8 0 15 -4 15 -10 0 -5 11 -10 25 -10 22 0 25 4 25 35 0 24 -5 35 -15 35
-8 0 -15 7 -15 15 0 8 -4 15 -10 15 -5 0 -10 16 -10 35 0 31 3 35 25 35 14 0
25 5 25 10 0 6 11 10 25 10 14 0 25 6 25 13 0 7 9 19 20 27 11 8 20 20 20 27
0 7 5 13 11 13 14 0 39 25 39 39 0 6 6 11 13 11 7 0 19 9 27 20 8 11 20 20 27
20 7 0 13 5 13 11 0 14 25 39 39 39 6 0 11 5 11 11 0 14 25 39 39 39 6 0 11 6
11 13 0 7 9 19 20 27 11 8 20 25 20 37 0 14 6 23 15 23 8 0 15 5 15 11 0 14
25 39 39 39 6 0 11 9 11 21 0 22 22 49 39 49 6 0 11 11 11 25 0 14 5 25 10 25
6 0 10 7 10 15 0 8 7 15 15 15 9 0 15 9 15 25 0 14 5 25 10 25 6 0 10 9 10 20
0 11 5 20 10 20 6 0 10 11 10 25 0 16 6 25 15 25 9 0 15 9 15 25 0 14 5 25 10
25 6 0 10 11 10 25 0 16 6 25 15 25 9 0 15 9 15 25 0 14 5 25 10 25 6 0 10 11
10 25 0 14 5 25 11 25 17 0 39 27 39 49 0 12 6 21 15 21 8 0 15 7 15 15 0 8 5
15 10 15 6 0 10 -102 10 -285 0 -183 -4 -285 -10 -285 -5 0 -10 -20 -10 -45 0
-33 -4 -45 -15 -45 -13 0 -15 -23 -15 -150 0 -93 -4 -150 -10 -150 -5 0 -10
-22 -10 -50 0 -38 -4 -50 -15 -50 -10 0 -15 -11 -15 -35 0 -19 -4 -35 -10 -35
-5 0 -10 -16 -10 -35 0 -24 -5 -35 -15 -35 -9 0 -15 -9 -15 -25 0 -14 -4 -25
-10 -25 -5 0 -10 -7 -10 -15 0 -8 -5 -15 -11 -15 -20 0 -39 -29 -39 -59 0 -17
-4 -31 -10 -31 -5 0 -10 -11 -10 -25 0 -16 -6 -25 -15 -25 -8 0 -15 -5 -15
-11 0 -14 -25 -39 -39 -39 -6 0 -11 -5 -11 -11 0 -14 -25 -39 -39 -39 -6 0
-11 -7 -11 -15 0 -8 -4 -15 -10 -15 -5 0 -10 -4 -10 -10 0 -5 23 -10 50 -10
28 0 50 -4 50 -10 0 -5 -11 -10 -25 -10 -16 0 -25 -6 -25 -15 0 -9 -9 -15 -25
-15 -14 0 -25 -4 -25 -10 0 -5 -7 -10 -15 -10 -8 0 -15 -6 -15 -13 0 -7 -9
-19 -20 -27 -11 -8 -20 -20 -20 -27 0 -7 -5 -13 -11 -13 -17 0 -39 -27 -39
-49 0 -15 6 -21 21 -21 22 0 49 22 49 39 0 6 9 11 21 11 22 0 49 22 49 39 0 6
11 11 25 11 14 0 25 5 25 10 0 6 23 10 50 10 l50 0 0 -70 c0 -40 -4 -70 -10
-70 -5 0 -10 -11 -10 -25 0 -20 -5 -25 -25 -25 -24 0 -25 -2 -25 -65 0 -40 -4
-65 -11 -65 -17 0 -39 -27 -39 -49 0 -12 -5 -21 -11 -21 -14 0 -39 -25 -39
-39 0 -6 -7 -11 -15 -11 -10 0 -15 -11 -15 -35 0 -34 1 -35 40 -35 29 0 40 -4
40 -15 0 -9 -9 -15 -25 -15 -14 0 -25 -4 -25 -10 0 -5 -7 -10 -15 -10 -8 0
-15 -7 -15 -15 0 -8 -4 -15 -10 -15 -5 0 -10 -16 -10 -35 0 -19 5 -35 10 -35
6 0 10 -55 10 -145 0 -90 -4 -145 -10 -145 -5 0 -10 -11 -10 -25 0 -14 -4 -25
-10 -25 -5 0 -10 -7 -10 -15 0 -8 -5 -15 -11 -15 -17 0 -39 -27 -39 -49 0 -12
-6 -21 -15 -21 -12 0 -15 -19 -15 -110 l0 -110 -35 0 c-19 0 -35 -4 -35 -10 0
-5 -7 -10 -15 -10 -11 0 -15 -11 -15 -36 0 -35 -18 -64 -39 -64 -6 0 -11 -7
-11 -15 0 -8 7 -15 15 -15 8 0 15 -4 15 -10 0 -5 11 -10 25 -10 14 0 25 5 25
10 0 6 16 10 35 10 19 0 35 -4 35 -10 0 -5 -4 -10 -10 -10 -5 0 -10 -7 -10
-15 0 -8 -6 -15 -13 -15 -7 0 -19 -9 -27 -20 -8 -11 -20 -20 -27 -20 -7 0 -13
-6 -13 -14 0 -8 -6 -17 -12 -20 -10 -5 -10 -7 0 -12 6 -3 12 -12 12 -20 0 -9
12 -14 36 -14 19 0 42 -6 50 -14 16 -17 20 -136 4 -136 -5 0 -10 -20 -10 -45
0 -25 5 -45 10 -45 6 0 10 -11 10 -25 0 -14 -4 -25 -10 -25 -5 0 -10 -7 -10
-15 0 -9 -9 -15 -25 -15 -14 0 -25 -4 -25 -10 0 -5 -7 -10 -15 -10 -8 0 -15
-7 -15 -15 0 -12 -13 -15 -60 -15 -47 0 -60 3 -60 15 0 12 -17 15 -95 15 -78
0 -95 -3 -95 -15 0 -12 -18 -15 -100 -15 -60 0 -100 -4 -100 -10 0 -7 688 -10
2045 -10 1357 0 2045 3 2045 10 0 6 -47 10 -120 10 -100 0 -120 3 -120 15 0
12 -17 15 -96 15 -112 0 -124 7 -124 74 0 34 -4 46 -15 46 -9 0 -15 9 -15 21
0 22 -22 49 -39 49 -6 0 -11 7 -11 15 0 9 -9 15 -25 15 -14 0 -25 5 -25 10 0
6 -27 10 -60 10 -47 0 -60 3 -60 15 0 8 -4 15 -10 15 -5 0 -10 11 -10 25 0 20
-5 25 -25 25 -25 0 -25 -1 -25 -85 l0 -85 -40 0 c-39 0 -40 1 -40 35 0 19 -4
35 -10 35 -5 0 -10 23 -10 50 0 28 5 50 10 50 6 0 10 16 10 35 0 24 5 35 15
35 9 0 15 9 15 25 0 14 5 25 10 25 6 0 10 11 10 25 0 14 5 25 11 25 14 0 39
25 39 39 0 6 5 11 11 11 21 0 39 29 39 64 0 25 4 36 15 36 12 0 15 14 15 70 0
56 -3 70 -15 70 -12 0 -15 18 -15 100 0 60 -4 100 -10 100 -5 0 -10 23 -10 50
l0 50 -40 0 -40 0 0 60 c0 33 -4 60 -10 60 -5 0 -10 11 -10 25 0 14 5 25 10
25 6 0 10 16 10 35 0 19 -4 35 -10 35 -5 0 -10 7 -10 15 0 9 -9 15 -25 15 -14
0 -25 5 -25 10 0 6 -9 10 -21 10 -19 0 -49 21 -49 35 0 10 28 35 39 35 6 0 11
7 11 15 0 8 -5 15 -11 15 -14 0 -39 25 -39 39 0 6 -7 11 -15 11 -8 0 -15 5
-15 10 0 6 -11 10 -25 10 -16 0 -25 6 -25 15 0 12 -13 15 -60 15 -47 0 -60 -3
-60 -15 0 -8 -4 -15 -10 -15 -5 0 -10 -16 -10 -35 0 -19 5 -35 10 -35 6 0 10
-11 10 -25 0 -20 -5 -25 -25 -25 -16 0 -25 -6 -25 -15 0 -8 -4 -15 -10 -15 -5
0 -10 -16 -10 -35 0 -19 5 -35 10 -35 6 0 10 -11 10 -25 0 -16 6 -25 15 -25 8
0 15 -4 15 -10 0 -6 -28 -10 -65 -10 -63 0 -65 -1 -65 -25 0 -24 2 -25 75 -25
73 0 75 -1 75 -25 0 -14 -4 -25 -10 -25 -5 0 -10 5 -10 10 0 6 -7 10 -15 10
-8 0 -15 -4 -15 -10 0 -5 -21 -10 -46 -10 -44 0 -74 16 -74 39 0 6 -7 11 -15
11 -10 0 -15 11 -15 35 0 19 -4 35 -10 35 -5 0 -10 21 -10 46 0 44 -16 74 -39
74 -6 0 -11 11 -11 25 0 14 -4 25 -10 25 -5 0 -10 11 -10 25 0 16 -6 25 -15
25 -13 0 -15 22 -15 135 0 113 2 135 15 135 8 0 15 5 15 11 0 14 25 39 39 39
6 0 11 21 11 50 0 38 -4 50 -15 50 -8 0 -15 5 -15 10 0 6 -11 10 -25 10 -16 0
-25 6 -25 15 0 9 -9 15 -25 15 -14 0 -25 5 -25 10 0 6 7 10 15 10 8 0 15 7 15
15 0 9 9 15 25 15 20 0 25 5 25 25 0 22 -4 25 -36 25 -19 0 -42 6 -50 14 -16
17 -19 56 -4 56 6 0 10 16 10 35 0 19 -4 35 -10 35 -5 0 -10 7 -10 15 0 9 -9
15 -25 15 -14 0 -25 5 -25 10 0 6 -7 10 -15 10 -8 0 -15 6 -15 13 0 7 -9 19
-20 27 -11 8 -20 20 -20 27 0 7 -7 13 -15 13 -8 0 -15 9 -15 20 0 15 7 20 25
20 23 0 25 3 25 50 0 28 -4 50 -10 50 -5 0 -10 23 -10 50 0 36 -4 50 -14 50
-8 0 -16 -6 -19 -12 -2 -8 -8 -9 -13 -4 -5 5 -4 11 4 13 8 3 12 31 12 89 0 83
0 84 -25 84 -22 0 -25 4 -25 35 0 19 -4 35 -10 35 -5 0 -10 11 -10 25 0 20 -5
25 -25 25 -24 0 -25 -3 -25 -56 0 -54 14 -84 39 -84 6 0 11 -18 11 -40 0 -29
-4 -40 -15 -40 -8 0 -15 7 -15 15 0 9 -9 15 -21 15 -22 0 -49 22 -49 39 0 6
-5 11 -11 11 -17 0 -39 27 -39 49 0 12 5 21 10 21 6 0 10 -4 10 -10 0 -5 7
-10 15 -10 8 0 15 9 15 20 0 11 5 20 10 20 6 0 10 37 10 90 0 89 0 90 -25 90
-16 0 -25 -6 -25 -15 0 -8 -4 -15 -10 -15 -5 0 -10 -11 -10 -25 0 -14 -4 -25
-10 -25 -15 0 -12 70 4 86 9 9 35 14 70 14 53 0 56 1 56 25 0 14 -4 25 -10 25
-5 0 -10 16 -10 35 0 24 -5 35 -15 35 -11 0 -15 11 -15 40 0 22 -4 40 -10 40
-5 0 -10 16 -10 35 0 24 -5 35 -15 35 -10 0 -15 11 -15 35 0 19 -4 35 -10 35
-5 0 -10 18 -10 40 0 22 -4 40 -10 40 -5 0 -10 16 -10 35 0 24 -5 35 -15 35
-10 0 -15 11 -15 35 0 19 -4 35 -10 35 -5 0 -10 18 -10 40 0 29 -4 40 -15 40
-10 0 -15 11 -15 35 0 19 -4 35 -10 35 -5 0 -10 16 -10 35 0 24 -5 35 -15 35
-9 0 -15 9 -15 25 0 14 -4 25 -10 25 -5 0 -10 18 -10 40 0 29 -4 40 -15 40
-10 0 -15 11 -15 35 0 19 -4 35 -10 35 -5 0 -10 11 -10 25 0 14 -4 25 -10 25
-5 0 -10 16 -10 35 0 24 -5 35 -15 35 -9 0 -15 9 -15 25 0 14 -4 25 -10 25 -5
0 -10 18 -10 40 0 29 -4 40 -15 40 -8 0 -15 9 -15 20 0 11 -4 20 -10 20 -5 0
-10 11 -10 25 0 16 -6 25 -15 25 -11 0 -15 11 -15 40 0 22 -4 40 -10 40 -5 0
-10 11 -10 25 0 16 -6 25 -15 25 -8 0 -15 9 -15 20 0 11 -4 20 -10 20 -5 0
-10 11 -10 25 0 16 -6 25 -15 25 -9 0 -15 9 -15 25 0 14 -4 25 -10 25 -5 0
-10 11 -10 25 0 14 -4 25 -10 25 -5 0 -10 11 -10 25 0 16 -6 25 -15 25 -10 0
-15 11 -15 35 0 19 -4 35 -10 35 -5 0 -10 11 -10 25 0 16 -6 25 -15 25 -9 0
-15 9 -15 25 0 14 -4 25 -10 25 -5 0 -10 11 -10 25 0 16 -6 25 -15 25 -9 0
-15 9 -15 21 0 22 -22 49 -39 49 -6 0 -11 11 -11 25 0 14 -4 25 -10 25 -5 0
-10 11 -10 25 0 14 -4 25 -10 25 -5 0 -10 7 -10 15 0 8 -5 15 -11 15 -6 0 -17
6 -25 14 -8 8 -14 19 -14 25 0 6 -7 11 -15 11 -8 0 -15 -6 -15 -14z m540
-1571 c0 -8 7 -15 15 -15 8 0 15 -9 15 -20 0 -11 5 -20 10 -20 6 0 10 -11 10
-25 0 -20 -5 -25 -25 -25 -23 0 -25 4 -25 45 0 25 -4 45 -10 45 -5 0 -10 7
-10 15 0 8 5 15 10 15 6 0 10 -7 10 -15z m-540 -135 c0 -38 4 -50 15 -50 12 0
15 -13 15 -60 0 -33 4 -60 10 -60 6 0 10 -35 10 -85 0 -69 3 -85 15 -85 12 0
15 -16 15 -85 0 -50 4 -85 10 -85 6 0 10 -40 10 -100 0 -60 4 -100 10 -100 6
0 10 -38 10 -95 0 -78 3 -95 15 -95 13 0 15 -22 15 -135 0 -83 4 -135 10 -135
6 0 10 -43 10 -110 0 -67 -4 -110 -10 -110 -5 0 -10 5 -10 10 0 6 -7 10 -15
10 -12 0 -15 19 -15 110 0 67 -4 110 -10 110 -6 0 -10 27 -10 60 0 33 -4 60
-10 60 -6 0 -10 28 -10 65 0 51 -3 65 -15 65 -12 0 -15 17 -15 95 0 57 -4 95
-10 95 -6 0 -10 43 -10 110 0 91 -3 110 -15 110 -12 0 -15 16 -15 85 0 50 -4
85 -10 85 -6 0 -10 48 -10 125 0 104 -2 125 -15 125 -12 0 -15 13 -15 60 0 57
1 60 25 60 23 0 25 -3 25 -50z m660 -95 c0 -16 6 -25 15 -25 9 0 15 -9 15 -25
0 -14 5 -25 10 -25 6 0 10 -16 10 -35 0 -19 -4 -35 -10 -35 -5 0 -10 -7 -10
-15 0 -9 -9 -15 -25 -15 -16 0 -25 6 -25 15 0 8 5 15 10 15 15 0 12 39 -4 56
-8 8 -17 14 -21 14 -10 0 -35 28 -35 39 0 6 -11 11 -25 11 -20 0 -25 5 -25 25
0 24 3 25 60 25 57 0 60 -1 60 -25z m-1810 -575 c0 -5 -4 -10 -10 -10 -5 0
-10 5 -10 10 0 6 5 10 10 10 6 0 10 -4 10 -10z m640 -1535 c0 -20 -5 -25 -25
-25 -20 0 -25 5 -25 25 0 20 5 25 25 25 20 0 25 -5 25 -25z m2330 -780 c0 -16
-6 -25 -15 -25 -8 0 -15 -4 -15 -10 0 -5 -4 -10 -10 -10 -5 0 -10 9 -10 20 0
11 5 20 10 20 6 0 10 7 10 15 0 8 7 15 15 15 9 0 15 -9 15 -25z m220 -380 c0
-9 -9 -15 -25 -15 -14 0 -25 -4 -25 -10 0 -5 -11 -10 -25 -10 -16 0 -25 -6
-25 -15 0 -11 -11 -15 -40 -15 -36 0 -40 3 -40 25 0 23 4 25 40 25 29 0 40 4
40 15 0 11 12 15 50 15 38 0 50 -4 50 -15z"/>
<path d="M3410 5240 c0 -5 7 -10 15 -10 9 0 15 -9 15 -25 0 -14 5 -25 10 -25
6 0 10 -7 10 -15 0 -8 7 -15 15 -15 8 0 15 -4 15 -10 0 -5 20 -10 45 -10 33 0
45 -4 45 -15 0 -13 22 -15 135 -15 113 0 135 2 135 15 0 8 7 15 15 15 9 0 15
9 15 25 0 16 -6 25 -15 25 -8 0 -15 5 -15 10 0 6 -35 10 -85 10 -69 0 -85 3
-85 15 0 12 -17 15 -95 15 -57 0 -95 4 -95 10 0 6 -18 10 -40 10 -22 0 -40 -4
-40 -10z"/>
<path d="M1820 5105 c0 -16 -6 -25 -15 -25 -11 0 -15 -12 -15 -50 0 -38 4 -50
15 -50 8 0 15 -4 15 -10 0 -5 11 -10 25 -10 24 0 25 3 25 60 0 47 -3 60 -15
60 -9 0 -15 9 -15 25 0 14 -4 25 -10 25 -5 0 -10 -11 -10 -25z"/>
<path d="M5960 4925 c0 -113 2 -135 15 -135 11 0 15 -11 15 -40 0 -29 -4 -40
-15 -40 -12 0 -15 -14 -15 -70 0 -56 3 -70 15 -70 8 0 15 -7 15 -15 0 -8 5
-15 10 -15 6 0 10 93 10 260 l0 260 -25 0 -25 0 0 -135z"/>
<path d="M6700 4945 c0 -33 2 -35 35 -35 29 0 35 4 35 21 0 26 -23 49 -49 49
-17 0 -21 -6 -21 -35z"/>
<path d="M4370 4905 c0 -22 4 -25 35 -25 31 0 35 3 35 25 0 22 -4 25 -35 25
-31 0 -35 -3 -35 -25z"/>
<path d="M1750 4835 c0 -18 5 -25 20 -25 15 0 20 7 20 25 0 18 -5 25 -20 25
-15 0 -20 -7 -20 -25z"/>
<path d="M6970 4845 c0 -9 -9 -15 -25 -15 -14 0 -25 -4 -25 -10 0 -5 -5 -10
-11 -10 -23 0 -39 -30 -39 -74 0 -42 2 -46 25 -46 16 0 25 -6 25 -15 0 -9 9
-15 25 -15 20 0 25 5 25 25 0 16 -6 25 -15 25 -9 0 -15 9 -15 25 0 16 6 25 15
25 8 0 15 6 15 13 0 7 9 19 20 27 11 8 20 25 20 37 0 16 -6 23 -20 23 -11 0
-20 -7 -20 -15z"/>
<path d="M7140 4689 c0 -48 5 -75 14 -85 17 -16 56 -19 56 -4 0 6 7 10 15 10
9 0 15 9 15 25 0 16 -6 25 -15 25 -8 0 -15 7 -15 15 0 8 -4 15 -10 15 -5 0
-10 16 -10 35 0 31 -3 35 -25 35 -24 0 -25 -2 -25 -71z"/>
<path d="M4640 4700 c0 -5 -18 -10 -40 -10 -29 0 -40 -4 -40 -15 0 -12 -16
-15 -85 -15 -50 0 -85 -4 -85 -10 0 -6 -30 -10 -70 -10 -56 0 -70 -3 -70 -15
0 -12 -14 -15 -65 -15 -37 0 -65 -4 -65 -10 0 -5 -21 -10 -46 -10 -26 0 -51
-6 -60 -14 -16 -17 -19 -56 -4 -56 6 0 10 -7 10 -15 0 -12 17 -15 90 -15 53 0
90 -4 90 -10 0 -6 137 -10 390 -10 253 0 390 4 390 10 0 6 16 10 35 10 24 0
35 5 35 15 0 8 7 15 15 15 10 0 15 11 15 35 0 31 -3 35 -25 35 -14 0 -25 5
-25 10 0 6 -22 10 -50 10 -38 0 -50 4 -50 15 0 11 -12 15 -50 15 -27 0 -50 5
-50 10 0 6 -16 10 -35 10 -31 0 -35 3 -35 25 0 24 -3 25 -60 25 -33 0 -60 -4
-60 -10z"/>
<path d="M3010 4593 c-10 -12 -11 -18 -2 -21 7 -2 12 -10 12 -18 0 -8 5 -14
10 -14 6 0 10 7 10 15 0 8 7 15 15 15 8 0 15 9 15 20 0 25 -38 27 -60 3z"/>
<path d="M6940 4565 c0 -14 5 -25 11 -25 11 0 39 -25 39 -35 0 -10 28 -35 39
-35 6 0 11 -11 11 -25 0 -14 5 -25 10 -25 6 0 10 -7 10 -15 0 -8 7 -15 15 -15
8 0 15 -9 15 -20 0 -11 5 -20 10 -20 6 0 10 -11 10 -25 0 -16 6 -25 15 -25 8
0 15 -5 15 -11 0 -11 25 -39 35 -39 10 0 35 28 35 39 0 6 -4 11 -10 11 -6 0
-10 27 -10 60 0 47 -3 60 -15 60 -9 0 -15 9 -15 21 0 22 -22 49 -39 49 -6 0
-11 18 -11 40 0 36 -2 40 -25 40 -14 0 -25 5 -25 10 0 6 -27 10 -60 10 -57 0
-60 -1 -60 -25z"/>
<path d="M1983 4525 c-7 -8 -13 -23 -13 -35 0 -16 6 -20 35 -20 33 0 35 2 35
35 0 30 -3 35 -22 35 -13 -1 -29 -7 -35 -15z"/>
<path d="M5960 4509 c0 -14 -25 -39 -39 -39 -6 0 -11 -7 -11 -15 0 -8 -4 -15
-10 -15 -5 0 -10 -11 -10 -25 0 -16 -6 -25 -15 -25 -8 0 -15 -9 -15 -20 0 -11
-4 -20 -10 -20 -5 0 -10 -22 -10 -50 0 -38 -4 -50 -15 -50 -9 0 -15 -9 -15
-25 0 -14 -4 -25 -10 -25 -5 0 -10 -7 -10 -15 0 -8 -7 -15 -15 -15 -8 0 -15
-4 -15 -10 0 -5 -9 -10 -20 -10 -11 0 -20 -7 -20 -15 0 -8 -5 -15 -11 -15 -17
0 -39 -27 -39 -49 0 -16 -6 -21 -25 -21 -23 0 -25 -3 -25 -50 0 -29 -5 -50
-11 -50 -14 0 -39 -25 -39 -39 0 -6 -7 -11 -15 -11 -8 0 -15 -4 -15 -10 0 -5
-16 -10 -35 -10 -31 0 -35 -3 -35 -25 0 -24 -3 -25 -60 -25 -47 0 -60 3 -60
15 0 9 -9 15 -25 15 -14 0 -25 5 -25 10 0 6 -9 10 -21 10 -22 0 -49 22 -49 39
0 6 -11 11 -25 11 -14 0 -25 5 -25 10 0 6 -7 10 -15 10 -11 0 -15 11 -15 36 0
35 -18 64 -39 64 -6 0 -11 5 -11 11 0 16 -26 39 -45 39 -19 0 -45 23 -45 39 0
6 -11 11 -25 11 -14 0 -25 5 -25 10 0 6 -18 10 -40 10 -29 0 -40 4 -40 15 0
11 -12 15 -50 15 -27 0 -50 5 -50 10 0 6 -27 10 -60 10 -33 0 -60 -4 -60 -10
0 -6 -43 -10 -110 -10 -91 0 -110 -3 -110 -15 0 -12 -16 -15 -85 -15 -50 0
-85 -4 -85 -10 0 -6 -27 -10 -60 -10 -47 0 -60 -3 -60 -15 0 -11 -11 -15 -38
-15 -26 0 -42 -6 -52 -20 -8 -11 -25 -20 -37 -20 -13 0 -23 -5 -23 -11 0 -14
-25 -39 -39 -39 -6 0 -11 -5 -11 -11 0 -14 -25 -39 -39 -39 -6 0 -11 -7 -11
-15 0 -8 -4 -15 -10 -15 -5 0 -10 -11 -10 -25 0 -14 -6 -25 -13 -25 -7 0 -19
-9 -27 -20 -8 -11 -20 -20 -27 -20 -7 0 -13 -11 -13 -25 0 -14 -4 -25 -10 -25
-5 0 -10 -7 -10 -15 0 -10 11 -15 35 -15 24 0 35 5 35 15 0 9 9 15 25 15 14 0
25 5 25 10 0 6 7 10 15 10 8 0 15 5 15 11 0 16 26 39 45 39 19 0 45 23 45 39
0 6 11 11 25 11 14 0 25 5 25 10 0 6 11 10 25 10 16 0 25 6 25 15 0 11 11 15
40 15 22 0 40 5 40 10 0 6 20 10 45 10 33 0 45 4 45 15 0 12 17 15 90 15 53 0
90 4 90 10 0 6 20 10 45 10 33 0 45 4 45 15 0 9 9 15 25 15 14 0 25 5 25 10 0
6 11 10 25 10 14 0 25 -4 25 -10 0 -6 40 -10 100 -10 82 0 100 -3 100 -15 0
-8 -7 -15 -15 -15 -8 0 -15 -4 -15 -10 0 -5 7 -10 15 -10 8 0 15 -7 15 -15 0
-12 13 -15 60 -15 33 0 60 -4 60 -10 0 -5 7 -10 15 -10 8 0 15 -7 15 -15 0 -8
5 -15 10 -15 6 0 10 -9 10 -21 0 -22 22 -49 39 -49 6 0 11 -4 11 -10 0 -5 16
-10 35 -10 24 0 35 -5 35 -15 0 -11 12 -15 50 -15 28 0 50 -4 50 -10 0 -5 11
-10 25 -10 16 0 25 -6 25 -15 0 -9 9 -15 21 -15 11 0 27 -6 35 -14 16 -17 19
-56 4 -56 -5 0 -10 -11 -10 -25 0 -23 -3 -25 -50 -25 -27 0 -50 5 -50 10 0 6
-11 10 -25 10 -16 0 -25 6 -25 15 0 9 -9 15 -25 15 -14 0 -25 5 -25 10 0 6
-11 10 -25 10 -14 0 -25 5 -25 11 0 14 -25 39 -39 39 -6 0 -11 6 -11 13 0 7
-9 19 -20 27 -11 8 -20 20 -20 27 0 7 -11 13 -25 13 -14 0 -25 5 -25 10 0 6
-11 10 -25 10 -14 0 -25 5 -25 10 0 6 -18 10 -40 10 -29 0 -40 4 -40 15 0 13
-29 15 -205 15 -176 0 -205 -2 -205 -15 0 -12 -18 -15 -100 -15 -60 0 -100 -4
-100 -10 0 -5 -16 -10 -35 -10 -19 0 -35 -4 -35 -10 0 -5 -18 -10 -40 -10 -22
0 -40 -5 -40 -11 0 -17 -27 -39 -49 -39 -12 0 -21 -5 -21 -11 0 -14 -25 -39
-39 -39 -6 0 -11 -5 -11 -11 0 -14 -25 -39 -39 -39 -6 0 -11 -7 -11 -15 0 -9
-9 -15 -25 -15 -14 0 -25 -4 -25 -10 0 -5 -16 -10 -35 -10 -19 0 -35 5 -35 10
0 6 -16 10 -35 10 -31 0 -35 3 -35 25 0 14 5 25 10 25 6 0 10 11 10 25 0 16 6
25 15 25 8 0 15 7 15 15 0 8 -7 15 -15 15 -8 0 -15 5 -15 10 0 6 -16 10 -35
10 -19 0 -35 -4 -35 -10 0 -5 -7 -10 -15 -10 -8 0 -15 -7 -15 -15 0 -8 -4 -15
-10 -15 -5 0 -10 -11 -10 -25 0 -22 -4 -25 -40 -25 -26 0 -40 5 -40 13 0 7 -9
19 -20 27 -11 8 -20 20 -20 27 0 7 -5 13 -11 13 -14 0 -39 25 -39 39 0 6 -5
11 -11 11 -17 0 -39 27 -39 49 0 12 -6 21 -15 21 -9 0 -15 9 -15 21 0 31 -24
49 -64 49 l-36 0 0 50 c0 28 -4 50 -10 50 -5 0 -10 5 -10 10 0 6 11 10 25 10
20 0 25 5 25 25 0 16 -6 25 -15 25 -8 0 -15 7 -15 15 0 8 -9 15 -20 15 -11 0
-20 5 -20 10 0 6 -18 10 -40 10 -39 0 -40 1 -40 36 0 35 -18 64 -39 64 -6 0
-11 9 -11 21 0 22 -22 49 -39 49 -6 0 -11 5 -11 11 0 11 -24 39 -34 39 -3 0
-6 -27 -6 -60 0 -33 4 -60 10 -60 6 0 10 -22 10 -50 0 -27 5 -50 10 -50 6 0
10 -11 10 -25 0 -16 6 -25 15 -25 10 0 15 -11 15 -35 0 -19 5 -35 10 -35 6 0
10 -11 10 -25 0 -16 6 -25 15 -25 9 0 15 -9 15 -25 0 -14 5 -25 10 -25 6 0 10
-22 10 -50 0 -38 4 -50 15 -50 8 0 15 -4 15 -10 0 -5 11 -10 25 -10 22 0 25
-4 25 -35 0 -19 5 -35 10 -35 6 0 10 -11 10 -25 0 -14 5 -25 10 -25 6 0 10 -7
10 -15 0 -8 5 -15 11 -15 14 0 39 -25 39 -39 0 -6 6 -11 13 -11 7 0 19 -9 27
-20 8 -11 25 -20 37 -20 16 0 23 6 23 20 0 11 -4 20 -10 20 -5 0 -10 7 -10 15
0 8 -5 15 -11 15 -14 0 -39 25 -39 39 0 6 -7 11 -15 11 -9 0 -15 9 -15 21 0
22 -22 49 -39 49 -6 0 -11 11 -11 25 0 14 -4 25 -10 25 -5 0 -10 11 -10 25 0
14 5 25 10 25 6 0 10 -7 10 -15 0 -8 6 -15 13 -15 7 0 19 -9 27 -20 8 -11 20
-20 27 -20 7 0 13 -5 13 -11 0 -14 25 -39 39 -39 6 0 11 -11 11 -25 0 -14 5
-25 10 -25 6 0 10 -7 10 -15 0 -8 5 -15 11 -15 14 0 39 -25 39 -39 0 -6 5 -11
10 -11 14 0 60 -46 60 -60 0 -5 11 -10 25 -10 14 0 25 -4 25 -10 0 -5 7 -10
15 -10 8 0 15 -7 15 -15 0 -8 5 -15 10 -15 6 0 10 -11 10 -25 0 -14 5 -25 11
-25 14 0 39 -25 39 -39 0 -6 5 -11 11 -11 14 0 39 -25 39 -39 0 -6 10 -11 23
-11 12 0 29 -9 37 -20 8 -11 25 -20 37 -20 14 0 23 -6 23 -15 0 -9 9 -15 25
-15 14 0 25 -4 25 -10 0 -5 11 -10 25 -10 16 0 25 -6 25 -15 0 -10 11 -15 35
-15 l35 0 0 -50 c0 -34 4 -50 13 -50 7 0 19 -9 27 -20 10 -14 26 -20 52 -20
27 0 38 -4 38 -15 0 -10 11 -15 35 -15 31 0 35 -3 35 -25 0 -16 6 -25 15 -25
8 0 15 -4 15 -10 0 -5 9 -10 20 -10 11 0 20 -7 20 -15 0 -9 9 -15 25 -15 14 0
25 -4 25 -10 0 -5 23 -10 50 -10 38 0 50 -4 50 -15 0 -13 22 -15 135 -15 113
0 135 2 135 15 0 11 12 15 50 15 28 0 50 5 50 10 0 6 11 10 25 10 16 0 25 6
25 15 0 9 9 15 25 15 14 0 25 5 25 10 0 6 11 10 25 10 16 0 25 6 25 15 0 9 9
15 21 15 22 0 49 22 49 39 0 6 9 11 21 11 26 0 49 23 49 49 0 12 6 21 15 21 8
0 15 5 15 10 0 6 -7 10 -15 10 -8 0 -15 7 -15 15 0 11 -12 15 -45 15 -33 0
-45 -4 -45 -15 0 -9 -9 -15 -25 -15 -14 0 -25 -4 -25 -10 0 -5 -11 -10 -25
-10 -16 0 -25 -6 -25 -15 0 -12 -18 -15 -100 -15 -60 0 -100 -4 -100 -10 0 -6
-52 -10 -135 -10 -83 0 -135 4 -135 10 0 6 -11 10 -25 10 -16 0 -25 6 -25 15
0 8 -4 15 -10 15 -5 0 -10 -7 -10 -15 0 -8 -6 -15 -13 -15 -7 0 -19 -9 -27
-20 -23 -31 -40 -25 -40 15 l0 35 -60 0 c-47 0 -60 -3 -60 -15 0 -8 -4 -15
-10 -15 -5 0 -10 11 -10 25 0 16 -6 25 -15 25 -9 0 -15 9 -15 25 0 14 -4 25
-10 25 -5 0 -10 7 -10 15 0 8 -5 15 -11 15 -14 0 -39 25 -39 39 0 6 -7 11 -15
11 -8 0 -15 9 -15 20 0 11 -4 20 -10 20 -6 0 -10 32 -10 75 0 43 4 75 10 75 6
0 10 27 10 60 0 47 3 60 15 60 8 0 15 7 15 15 0 9 9 15 25 15 14 0 25 5 25 10
0 6 11 10 25 10 16 0 25 6 25 15 0 9 9 15 25 15 14 0 25 5 25 10 0 6 11 10 25
10 16 0 25 6 25 15 0 13 35 15 255 15 175 0 255 -3 255 -11 0 -14 -25 -39 -39
-39 -6 0 -11 -7 -11 -15 0 -10 11 -15 35 -15 19 0 35 -4 35 -10 0 -5 18 -10
40 -10 29 0 40 -4 40 -15 0 -10 11 -15 35 -15 19 0 35 -4 35 -10 0 -5 11 -10
25 -10 14 0 25 -4 25 -10 0 -5 7 -10 15 -10 8 0 15 -7 15 -15 0 -8 9 -15 20
-15 11 0 20 -4 20 -10 0 -5 7 -10 15 -10 8 0 15 -7 15 -15 0 -12 13 -15 60
-15 l60 0 0 -81 c0 -79 -11 -109 -39 -109 -7 0 -11 -25 -11 -65 0 -63 1 -65
25 -65 16 0 25 6 25 15 0 8 5 15 11 15 11 0 39 25 39 35 0 10 28 35 39 35 6 0
11 7 11 15 0 8 5 15 10 15 6 0 10 9 10 20 0 11 7 20 15 20 8 0 15 5 15 11 0
14 25 39 39 39 6 0 11 5 11 11 0 14 25 39 39 39 6 0 11 11 11 25 0 14 5 25 10
25 6 0 10 7 10 15 0 8 5 15 11 15 11 0 39 25 39 35 0 8 27 35 35 35 10 0 35
28 35 39 0 6 7 11 15 11 8 0 15 5 15 10 0 6 11 10 25 10 14 0 25 5 25 11 0 17
27 39 49 39 12 0 21 6 21 15 0 8 5 15 10 15 6 0 10 11 10 25 0 22 -4 25 -35
25 -19 0 -35 5 -35 10 0 6 5 10 11 10 17 0 39 27 39 49 0 12 5 21 10 21 6 0
10 7 10 15 0 8 5 15 11 15 17 0 39 27 39 49 0 12 6 21 15 21 8 0 15 7 15 15 0
8 5 15 10 15 6 0 10 9 10 20 0 11 7 20 15 20 9 0 15 9 15 25 0 14 5 25 10 25
6 0 10 7 10 15 0 8 7 15 15 15 10 0 15 11 15 35 0 19 5 35 10 35 6 0 10 11 10
25 0 16 6 25 15 25 9 0 15 9 15 25 0 14 5 25 10 25 6 0 10 27 10 60 0 33 -4
60 -10 60 -5 0 -10 7 -10 15 0 8 -7 15 -15 15 -8 0 -15 -5 -15 -11z m-1690
-1424 c0 -8 -4 -15 -10 -15 -5 0 -10 7 -10 15 0 8 5 15 10 15 6 0 10 -7 10
-15z m100 -25 c0 -5 -11 -10 -25 -10 -14 0 -25 5 -25 10 0 6 11 10 25 10 14 0
25 -4 25 -10z m290 0 c0 -5 -4 -10 -10 -10 -5 0 -10 5 -10 10 0 6 5 10 10 10
6 0 10 -4 10 -10z"/>
<path d="M2310 4465 c0 -16 -6 -25 -15 -25 -10 0 -15 -11 -15 -35 0 -19 -4
-35 -10 -35 -5 0 -10 -11 -10 -25 0 -14 -4 -25 -10 -25 -5 0 -10 -11 -10 -25
0 -16 -6 -25 -15 -25 -9 0 -15 -9 -15 -25 0 -14 -4 -25 -10 -25 -5 0 -10 -11
-10 -25 0 -16 -6 -25 -15 -25 -9 0 -15 -9 -15 -25 0 -14 -4 -25 -10 -25 -5 0
-10 -9 -10 -20 0 -11 -7 -20 -15 -20 -11 0 -15 -11 -15 -40 0 -22 -4 -40 -10
-40 -5 0 -10 -11 -10 -25 0 -16 -6 -25 -15 -25 -9 0 -15 -9 -15 -25 0 -14 -4
-25 -10 -25 -5 0 -10 -16 -10 -35 0 -24 -5 -35 -15 -35 -9 0 -15 -9 -15 -25 0
-14 -4 -25 -10 -25 -5 0 -10 -16 -10 -35 0 -19 -4 -35 -10 -35 -5 0 -10 -11
-10 -25 0 -16 -6 -25 -15 -25 -10 0 -15 -11 -15 -35 0 -19 -4 -35 -10 -35 -5
0 -10 -18 -10 -40 0 -29 -4 -40 -15 -40 -9 0 -15 -9 -15 -25 0 -14 -4 -25 -10
-25 -5 0 -10 -16 -10 -35 0 -24 -5 -35 -15 -35 -10 0 -15 -11 -15 -35 0 -19
-4 -35 -10 -35 -5 0 -10 -18 -10 -40 0 -29 -4 -40 -15 -40 -10 0 -15 -11 -15
-35 0 -19 -4 -35 -10 -35 -5 0 -10 -16 -10 -35 0 -19 -4 -35 -10 -35 -5 0 -10
-18 -10 -40 0 -29 -4 -40 -15 -40 -10 0 -15 -11 -15 -35 0 -19 -4 -35 -10 -35
-5 0 -10 -16 -10 -35 0 -24 -5 -35 -15 -35 -11 0 -15 -11 -15 -40 0 -22 -4
-40 -10 -40 -5 0 -10 -16 -10 -35 0 -24 -5 -35 -15 -35 -9 0 -15 -9 -15 -25 0
-24 3 -25 61 -25 39 0 65 -5 75 -14 16 -16 19 -86 4 -86 -5 0 -10 11 -10 25 0
16 -6 25 -15 25 -8 0 -15 7 -15 15 0 9 -9 15 -25 15 -25 0 -25 -1 -25 -90 0
-73 3 -90 15 -90 8 0 15 -9 15 -20 0 -11 5 -20 10 -20 6 0 10 5 10 10 0 6 7
10 15 10 9 0 15 -9 15 -25 0 -14 -5 -25 -11 -25 -14 0 -39 -25 -39 -39 0 -6
-7 -11 -15 -11 -8 0 -15 -4 -15 -10 0 -5 -11 -10 -25 -10 -16 0 -25 -6 -25
-15 0 -8 -4 -15 -10 -15 -5 0 -10 16 -10 36 0 35 18 64 39 64 7 0 11 24 11 60
0 57 -1 60 -25 60 -20 0 -25 -5 -25 -25 0 -16 -6 -25 -15 -25 -10 0 -15 -11
-15 -35 0 -31 -3 -35 -25 -35 -25 0 -25 -1 -25 -85 0 -50 -4 -85 -10 -85 -5 0
-10 -22 -10 -50 0 -27 -4 -50 -10 -50 -5 0 -10 -22 -10 -50 0 -43 3 -50 20
-50 28 0 26 -35 -5 -65 -13 -14 -29 -25 -35 -25 -5 0 -10 -5 -10 -11 0 -17
-27 -39 -49 -39 -12 0 -21 -6 -21 -15 0 -8 -7 -15 -15 -15 -10 0 -15 -11 -15
-35 0 -24 5 -35 15 -35 9 0 15 -9 15 -25 0 -16 -6 -25 -15 -25 -8 0 -15 -4
-15 -10 0 -5 -16 -10 -35 -10 -31 0 -35 -3 -35 -25 0 -20 5 -25 25 -25 16 0
25 -6 25 -15 0 -8 5 -15 10 -15 6 0 10 -4 10 -10 0 -5 -11 -10 -25 -10 -16 0
-25 -6 -25 -15 0 -8 -9 -15 -20 -15 -11 0 -20 -4 -20 -10 0 -5 -7 -10 -15 -10
-11 0 -15 -12 -15 -50 0 -29 5 -50 11 -50 14 0 39 -25 39 -39 0 -6 5 -11 10
-11 6 0 10 -52 10 -135 0 -83 -4 -135 -10 -135 -5 0 -10 -11 -10 -24 0 -13 -6
-27 -12 -30 -10 -5 -10 -7 0 -12 20 -9 14 -34 -9 -34 -39 0 -69 -59 -36 -74 9
-5 9 -7 0 -12 -7 -3 -13 -17 -13 -30 0 -15 -6 -24 -15 -24 -9 0 -15 -9 -15
-25 0 -14 -4 -25 -10 -25 -5 0 -10 -11 -10 -25 0 -24 -2 -25 -64 -25 -42 0
-66 4 -70 13 -5 9 -7 9 -12 0 -10 -22 -24 -14 -24 12 0 24 2 25 70 25 68 0 70
1 70 25 0 24 -3 25 -60 25 -33 0 -60 4 -60 10 0 6 5 10 10 10 6 0 10 11 10 25
0 16 6 25 15 25 10 0 15 11 15 35 0 24 -5 35 -15 35 -8 0 -15 7 -15 15 0 8 -9
15 -20 15 -15 0 -20 7 -20 25 0 14 5 25 10 25 6 0 10 16 10 35 0 19 -4 35 -10
35 -5 0 -10 7 -10 15 0 12 -14 15 -65 15 -51 0 -65 -3 -65 -15 0 -9 -9 -15
-21 -15 -22 0 -49 -22 -49 -39 0 -6 -5 -11 -11 -11 -11 0 -39 -25 -39 -35 0
-10 28 -35 39 -35 6 0 11 -7 11 -15 0 -8 -7 -15 -15 -15 -8 0 -15 -4 -15 -10
0 -5 -9 -10 -20 -10 -11 0 -20 -7 -20 -15 0 -9 -9 -15 -25 -15 -14 0 -25 -4
-25 -10 0 -5 -7 -10 -15 -10 -10 0 -15 -11 -15 -35 0 -24 5 -35 15 -35 9 0 15
-9 15 -25 0 -16 -6 -25 -15 -25 -12 0 -15 -13 -15 -60 l0 -60 -35 0 -35 0 0
-50 c0 -38 -4 -50 -15 -50 -12 0 -15 -18 -15 -100 0 -60 -4 -100 -10 -100 -6
0 -10 -32 -10 -75 0 -43 4 -75 10 -75 6 0 10 -16 10 -35 0 -19 5 -35 11 -35
14 0 39 -25 39 -39 0 -6 5 -11 11 -11 17 0 39 -27 39 -49 0 -12 6 -21 15 -21
9 0 15 -9 15 -25 l0 -25 1410 0 c933 0 1410 3 1410 10 0 6 -85 10 -235 10
l-235 0 0 25 0 25 625 0 c549 0 625 2 625 15 0 12 -18 15 -100 15 -60 0 -100
4 -100 10 0 6 -38 10 -95 10 -57 0 -95 -4 -95 -10 0 -6 -27 -10 -60 -10 -33 0
-60 4 -60 10 0 6 -7 10 -15 10 -8 0 -15 7 -15 15 0 9 -9 15 -21 15 -11 0 -27
6 -35 14 -16 17 -19 56 -4 56 6 0 10 23 10 50 0 28 -4 50 -10 50 -6 0 -10 27
-10 60 0 33 4 60 10 60 6 0 10 7 10 15 0 11 11 15 36 15 36 0 81 29 56 38 -6
2 -12 10 -12 18 0 8 -5 14 -11 14 -14 0 -39 25 -39 39 0 6 -5 11 -11 11 -14 0
-39 25 -39 39 0 6 16 11 35 11 24 0 35 -5 35 -15 0 -9 9 -15 25 -15 15 0 25 6
25 14 0 8 6 17 13 20 10 5 10 7 0 12 -7 3 -13 12 -13 20 0 8 -4 14 -10 14 -5
0 -10 16 -10 35 0 24 -5 35 -15 35 -8 0 -15 5 -15 10 0 6 -16 10 -35 10 l-35
0 0 110 c0 91 -3 110 -15 110 -9 0 -15 9 -15 25 0 14 -4 25 -10 25 -5 0 -10 7
-10 15 0 8 -5 15 -11 15 -17 0 -39 27 -39 49 0 12 -6 21 -15 21 -13 0 -15 23
-15 145 0 122 2 145 15 145 11 0 15 11 15 40 0 22 -5 40 -11 40 -14 0 -39 25
-39 39 0 6 -11 11 -25 11 -14 0 -25 5 -25 10 0 6 16 10 35 10 33 0 35 2 35 35
0 35 -35 85 -60 85 -5 0 -10 11 -10 25 0 14 -4 25 -10 25 -5 0 -10 7 -10 15 0
8 -7 15 -15 15 -12 0 -15 13 -15 60 0 57 -1 60 -25 60 -20 0 -25 5 -25 25 0
14 -4 25 -10 25 -6 0 -10 32 -10 75 l0 75 50 0 c38 0 50 -4 50 -15 0 -9 9 -15
21 -15 22 0 49 -22 49 -39 0 -6 9 -11 21 -11 22 0 49 -22 49 -39 0 -6 11 -11
25 -11 20 0 25 5 25 25 0 14 -4 25 -10 25 -5 0 -10 7 -10 15 0 8 -5 15 -11 15
-14 0 -39 25 -39 39 0 6 -6 11 -13 11 -7 0 -19 9 -27 20 -8 11 -25 20 -37 20
-14 0 -23 6 -23 15 0 9 -9 15 -25 15 -14 0 -25 5 -25 10 0 6 23 10 50 10 29 0
50 5 50 11 0 14 -25 39 -39 39 -6 0 -11 5 -11 11 0 14 -25 39 -39 39 -6 0 -11
5 -11 11 0 14 -25 39 -39 39 -6 0 -11 11 -11 25 0 14 -4 25 -10 25 -5 0 -10
16 -10 35 0 24 -5 35 -15 35 -8 0 -15 5 -15 11 0 14 -25 39 -39 39 -6 0 -11
11 -11 25 0 14 -4 25 -10 25 -5 0 -10 16 -10 35 0 19 -4 35 -10 35 -5 0 -10
18 -10 40 0 29 -4 40 -15 40 -11 0 -15 12 -15 50 0 28 -4 50 -10 50 -6 0 -10
47 -10 120 l0 120 -75 0 -75 0 0 85 c0 50 -4 85 -10 85 -5 0 -10 -11 -10 -25
0 -16 -6 -25 -15 -25 -10 0 -15 -11 -15 -35 0 -19 -4 -35 -10 -35 -5 0 -10
-11 -10 -25 0 -22 -4 -25 -40 -25 l-40 0 0 -100 0 -100 -25 0 c-18 0 -25 -5
-25 -20 0 -11 -4 -20 -10 -20 -5 0 -10 -18 -10 -40 0 -29 -4 -40 -15 -40 -12
0 -15 13 -15 60 0 47 3 60 15 60 12 0 15 18 15 100 l0 100 -75 0 -75 0 0 -35
c0 -19 -4 -35 -10 -35 -6 0 -10 -48 -10 -125 0 -104 -2 -125 -15 -125 -13 0
-15 -23 -15 -145 0 -90 -4 -145 -10 -145 -6 0 -10 -57 -10 -150 0 -100 -4
-150 -11 -150 -20 0 -39 -29 -39 -59 0 -17 -4 -31 -10 -31 -5 0 -10 -18 -10
-40 0 -29 -4 -40 -15 -40 -10 0 -15 -11 -15 -35 0 -19 -4 -35 -10 -35 -5 0
-10 -16 -10 -35 0 -24 -5 -35 -15 -35 -11 0 -15 -11 -15 -40 0 -22 -4 -40 -10
-40 -5 0 -10 -16 -10 -35 0 -24 -5 -35 -15 -35 -10 0 -15 -11 -15 -35 0 -19
-4 -35 -10 -35 -5 0 -10 -18 -10 -40 0 -29 -4 -40 -15 -40 -13 0 -15 71 -15
575 0 504 2 575 15 575 8 0 15 7 15 15 0 8 5 15 10 15 6 0 10 11 10 25 0 14 5
25 11 25 14 0 39 25 39 39 0 6 5 11 11 11 17 0 39 27 39 49 0 19 -6 21 -60 21
-47 0 -60 -3 -60 -15 0 -9 -9 -15 -25 -15 -22 0 -25 -4 -25 -35 0 -19 -5 -35
-11 -35 -17 0 -39 -27 -39 -49 0 -12 -4 -21 -10 -21 -6 0 -10 -27 -10 -60 0
-47 -3 -60 -15 -60 -8 0 -15 -7 -15 -15 0 -8 6 -15 14 -15 8 0 16 -6 18 -12 5
-15 38 13 38 31 0 6 7 11 15 11 12 0 15 -14 15 -65 0 -51 -3 -65 -15 -65 -12
0 -15 -20 -15 -120 0 -73 -4 -120 -10 -120 -6 0 -10 -57 -10 -150 0 -93 -4
-150 -10 -150 -6 0 -10 -55 -10 -145 0 -122 -2 -145 -15 -145 -12 0 -15 -20
-15 -120 0 -73 -4 -120 -10 -120 -6 0 -10 -32 -10 -75 0 -60 -3 -75 -15 -75
-13 0 -15 -22 -15 -135 0 -113 2 -135 15 -135 11 0 15 -12 15 -50 0 -38 -4
-50 -15 -50 -10 0 -15 11 -15 35 0 19 -4 35 -10 35 -6 0 -10 -27 -10 -60 0
-47 -3 -60 -15 -60 -8 0 -15 -4 -15 -10 0 -5 7 -10 15 -10 8 0 15 5 15 10 0 6
5 10 10 10 6 0 10 -11 10 -25 0 -14 -4 -25 -10 -25 -5 0 -10 -11 -10 -25 0
-16 -6 -25 -15 -25 -10 0 -15 -10 -15 -31 0 -30 -19 -59 -39 -59 -6 0 -11 -7
-11 -15 0 -8 -4 -15 -10 -15 -5 0 -10 -16 -10 -35 0 -19 5 -35 10 -35 15 0 12
-39 -4 -56 -8 -8 -28 -14 -45 -14 -26 0 -31 -4 -31 -25 0 -18 5 -25 20 -25 11
0 20 -7 20 -15 0 -8 7 -15 15 -15 8 0 15 -4 15 -10 0 -5 -11 -10 -25 -10 -16
0 -25 -6 -25 -15 0 -9 -9 -15 -21 -15 -32 0 -49 -25 -49 -70 0 -40 17 -70 39
-70 6 0 11 -7 11 -15 0 -8 5 -15 10 -15 6 0 10 -32 10 -75 l0 -75 -160 0 -160
0 0 65 c0 51 3 65 15 65 12 0 15 14 15 70 0 40 4 70 10 70 6 0 10 43 10 110 0
91 3 110 15 110 13 0 15 22 15 135 0 83 4 135 10 135 6 0 10 23 10 50 0 28 5
50 10 50 6 0 10 35 10 85 0 69 3 85 15 85 13 0 15 21 15 125 0 77 4 125 10
125 6 0 10 23 10 50 0 38 4 50 15 50 11 0 15 12 15 45 0 25 5 45 10 45 6 0 10
37 10 90 0 73 3 90 15 90 13 0 15 20 15 120 0 100 -2 120 -15 120 -8 0 -15 5
-15 10 0 6 7 10 15 10 8 0 15 -4 15 -10 0 -5 5 -10 10 -10 6 0 10 27 10 60 0
57 1 60 25 60 16 0 25 6 25 15 0 8 5 15 10 15 6 0 10 11 10 25 0 16 6 25 15
25 10 0 15 11 15 35 0 19 5 35 10 35 6 0 10 11 10 25 0 16 6 25 15 25 9 0 15
9 15 25 0 14 5 25 10 25 6 0 10 11 10 25 0 16 6 25 15 25 9 0 15 9 15 21 0 22
22 49 39 49 6 0 11 9 11 21 0 22 22 49 39 49 6 0 11 7 11 15 0 9 -9 15 -25 15
-16 0 -25 -6 -25 -15 0 -8 -5 -15 -11 -15 -14 0 -39 -25 -39 -39 0 -6 -5 -11
-11 -11 -17 0 -39 -27 -39 -49 0 -12 -5 -21 -11 -21 -17 0 -39 -27 -39 -49 0
-12 -6 -21 -15 -21 -9 0 -15 -9 -15 -25 0 -14 -4 -25 -10 -25 -5 0 -10 -11
-10 -25 0 -14 -4 -25 -10 -25 -6 0 -10 32 -10 75 0 43 4 75 10 75 6 0 10 11
10 25 0 14 5 25 10 25 6 0 10 30 10 70 0 56 3 70 15 70 12 0 15 18 15 100 0
60 4 100 10 100 6 0 10 30 10 70 0 56 3 70 15 70 12 0 15 14 15 65 0 37 4 65
10 65 6 0 10 27 10 60 0 47 3 60 15 60 12 0 15 15 15 75 0 43 4 75 10 75 6 0
10 30 10 70 0 56 3 70 15 70 12 0 15 17 15 96 0 94 9 124 39 124 6 0 11 21 11
50 0 28 5 50 10 50 6 0 10 27 10 60 0 33 4 60 10 60 6 0 10 23 10 50 0 38 4
50 15 50 11 0 15 11 15 40 0 22 5 40 10 40 6 0 10 75 10 205 0 130 -4 205 -10
205 -5 0 -10 -11 -10 -25z m-270 -1210 c0 -8 -7 -15 -15 -15 -11 0 -15 -12
-15 -45 0 -38 -3 -45 -20 -45 -13 0 -20 7 -20 20 0 11 5 20 10 20 6 0 10 11
10 25 0 14 5 25 10 25 6 0 10 7 10 15 0 8 7 15 15 15 8 0 15 -7 15 -15z m-30
-230 c0 -18 -5 -25 -20 -25 -11 0 -20 -7 -20 -15 0 -8 -5 -15 -11 -15 -14 0
-39 -25 -39 -39 0 -6 -7 -11 -15 -11 -8 0 -15 -9 -15 -20 0 -11 7 -20 15 -20
8 0 15 -7 15 -15 0 -9 -9 -15 -25 -15 -16 0 -25 6 -25 15 0 8 -7 15 -15 15
-10 0 -15 11 -15 35 0 24 5 35 15 35 9 0 15 9 15 25 0 14 5 25 10 25 6 0 10
11 10 25 0 24 3 25 60 25 57 0 60 -1 60 -25z m840 -270 c0 -16 -6 -25 -15 -25
-9 0 -15 9 -15 25 0 16 6 25 15 25 9 0 15 -9 15 -25z m-80 -60 c0 -19 -4 -35
-10 -35 -5 0 -10 16 -10 35 0 19 5 35 10 35 6 0 10 -16 10 -35z m50 -60 c0
-14 -4 -25 -10 -25 -5 0 -10 11 -10 25 0 14 5 25 10 25 6 0 10 -11 10 -25z
m-20 -130 c0 -16 -6 -25 -15 -25 -9 0 -15 9 -15 25 0 16 6 25 15 25 9 0 15 -9
15 -25z m-50 -70 c0 -14 -4 -25 -10 -25 -5 0 -10 11 -10 25 0 14 5 25 10 25 6
0 10 -11 10 -25z m20 -160 c0 -8 -4 -15 -10 -15 -5 0 -10 7 -10 15 0 8 5 15
10 15 6 0 10 -7 10 -15z m-1220 -50 c0 -8 -7 -15 -15 -15 -8 0 -15 7 -15 15 0
8 7 15 15 15 8 0 15 -7 15 -15z m370 -95 c0 -5 -7 -10 -15 -10 -8 0 -15 5 -15
10 0 6 7 10 15 10 8 0 15 -4 15 -10z m-50 -75 c0 -8 -7 -15 -15 -15 -8 0 -15
7 -15 15 0 8 7 15 15 15 8 0 15 -7 15 -15z m680 -60 c0 -14 -4 -25 -10 -25 -5
0 -10 11 -10 25 0 14 5 25 10 25 6 0 10 -11 10 -25z m-730 -15 c0 -5 -7 -10
-15 -10 -8 0 -15 5 -15 10 0 6 7 10 15 10 8 0 15 -4 15 -10z m70 -95 c0 -8 -4
-15 -10 -15 -5 0 -10 7 -10 15 0 8 5 15 10 15 6 0 10 -7 10 -15z m640 -40 c0
-14 -4 -25 -10 -25 -5 0 -10 11 -10 25 0 14 5 25 10 25 6 0 10 -11 10 -25z
m-810 -10 c0 -8 -4 -15 -10 -15 -5 0 -10 7 -10 15 0 8 5 15 10 15 6 0 10 -7
10 -15z m-50 -50 c0 -8 -4 -15 -10 -15 -5 0 -10 7 -10 15 0 8 5 15 10 15 6 0
10 -7 10 -15z m150 0 c0 -8 -6 -15 -14 -15 -8 0 -16 -6 -19 -12 -2 -8 -8 -9
-13 -4 -5 5 -4 11 4 13 6 3 12 11 12 19 0 8 7 14 15 14 8 0 15 -7 15 -15z
m-200 -95 c0 -5 -4 -10 -10 -10 -5 0 -10 5 -10 10 0 6 5 10 10 10 6 0 10 -4
10 -10z m150 -25 c0 -8 -4 -15 -10 -15 -5 0 -10 7 -10 15 0 8 5 15 10 15 6 0
10 -7 10 -15z m740 -75 c0 -47 -3 -60 -15 -60 -12 0 -15 13 -15 60 0 47 3 60
15 60 12 0 15 -13 15 -60z m-940 25 c0 -8 -4 -15 -10 -15 -5 0 -10 7 -10 15 0
8 5 15 10 15 6 0 10 -7 10 -15z m150 0 c0 -8 7 -15 15 -15 8 0 15 -4 15 -10 0
-15 -19 -12 -36 4 -16 17 -19 36 -4 36 6 0 10 -7 10 -15z m-170 -50 c0 -8 -7
-15 -15 -15 -8 0 -15 7 -15 15 0 8 7 15 15 15 8 0 15 -7 15 -15z m220 -25 c0
-5 -22 -10 -50 -10 -27 0 -50 5 -50 10 0 6 23 10 50 10 28 0 50 -4 50 -10z
m560 0 c0 -5 -4 -10 -10 -10 -5 0 -10 5 -10 10 0 6 5 10 10 10 6 0 10 -4 10
-10z m-680 -50 c0 -5 -7 -10 -15 -10 -8 0 -15 5 -15 10 0 6 7 10 15 10 8 0 15
-4 15 -10z m780 -20 c0 -5 7 -10 15 -10 8 0 15 -6 15 -14 0 -8 6 -17 13 -20
10 -5 10 -7 0 -12 -7 -3 -13 -12 -13 -19 0 -7 6 -15 13 -18 7 -2 8 -8 3 -13
-5 -5 -11 -4 -13 4 -3 6 -11 12 -19 12 -8 0 -14 10 -14 25 0 14 -4 25 -10 25
-5 0 -10 7 -10 15 0 9 -9 15 -25 15 -25 0 -25 -1 -25 -90 0 -53 4 -90 10 -90
6 0 10 -9 10 -20 0 -11 7 -20 15 -20 8 0 15 5 15 10 0 6 5 10 10 10 6 0 10 -9
10 -21 0 -22 -22 -49 -39 -49 -6 0 -11 -5 -11 -11 0 -14 -25 -39 -39 -39 -7 0
-11 34 -11 95 0 95 0 95 -25 95 -16 0 -25 6 -25 15 0 9 9 15 25 15 24 0 25 3
25 60 l0 60 50 0 c28 0 50 -4 50 -10z m-950 -25 c0 -8 -7 -15 -15 -15 -8 0
-15 7 -15 15 0 8 7 15 15 15 8 0 15 -7 15 -15z m1980 -10 c0 -20 -5 -25 -25
-25 -20 0 -25 5 -25 25 0 20 5 25 25 25 20 0 25 -5 25 -25z m-2010 -40 c0 -8
-4 -15 -10 -15 -5 0 -10 7 -10 15 0 8 5 15 10 15 6 0 10 -7 10 -15z m170 0 c0
-8 -4 -15 -10 -15 -5 0 -10 7 -10 15 0 8 5 15 10 15 6 0 10 -7 10 -15z m-190
-50 c0 -8 -7 -15 -15 -15 -8 0 -15 7 -15 15 0 8 7 15 15 15 8 0 15 -7 15 -15z
m170 -25 c0 -5 -7 -10 -15 -10 -8 0 -15 5 -15 10 0 6 7 10 15 10 8 0 15 -4 15
-10z m880 0 c0 -5 -4 -10 -10 -10 -5 0 -10 5 -10 10 0 6 5 10 10 10 6 0 10 -4
10 -10z m-200 -25 c0 -8 -4 -15 -10 -15 -5 0 -10 7 -10 15 0 8 5 15 10 15 6 0
10 -7 10 -15z m-20 -70 c0 -8 -4 -15 -10 -15 -5 0 -10 7 -10 15 0 8 5 15 10
15 6 0 10 -7 10 -15z m-690 -25 c0 -5 -4 -10 -10 -10 -5 0 -10 -7 -10 -15 0
-8 -7 -15 -15 -15 -8 0 -15 7 -15 15 0 8 7 15 15 15 8 0 15 5 15 10 0 6 5 10
10 10 6 0 10 -4 10 -10z m-120 -50 c0 -5 -4 -10 -10 -10 -5 0 -10 -7 -10 -15
0 -8 -7 -15 -15 -15 -8 0 -15 7 -15 15 0 8 7 15 15 15 8 0 15 5 15 10 0 6 5
10 10 10 6 0 10 -4 10 -10z m860 -25 c0 -8 -7 -15 -15 -15 -8 0 -15 7 -15 15
0 8 7 15 15 15 8 0 15 -7 15 -15z m170 -25 c0 -5 -4 -10 -10 -10 -5 0 -10 5
-10 10 0 6 5 10 10 10 6 0 10 -4 10 -10z m-1100 -50 c0 -5 -7 -10 -15 -10 -8
0 -15 5 -15 10 0 6 7 10 15 10 8 0 15 -4 15 -10z m1130 0 c0 -5 -7 -10 -15
-10 -8 0 -15 5 -15 10 0 6 7 10 15 10 8 0 15 -4 15 -10z m-1250 -25 c0 -8 -7
-15 -15 -15 -8 0 -15 7 -15 15 0 8 7 15 15 15 8 0 15 -7 15 -15z m980 0 c0 -8
-7 -15 -15 -15 -8 0 -15 7 -15 15 0 8 7 15 15 15 8 0 15 -7 15 -15z m-890 -35
c0 -11 -4 -20 -10 -20 -5 0 -10 9 -10 20 0 11 5 20 10 20 6 0 10 -9 10 -20z
m50 -60 c0 -5 -4 -10 -10 -10 -5 0 -10 5 -10 10 0 6 5 10 10 10 6 0 10 -4 10
-10z m50 -25 c0 -8 -4 -15 -10 -15 -5 0 -10 7 -10 15 0 8 5 15 10 15 6 0 10
-7 10 -15z m-320 -125 c0 -5 -4 -10 -10 -10 -5 0 -10 5 -10 10 0 6 5 10 10 10
6 0 10 -4 10 -10z m200 0 c0 -5 -7 -10 -15 -10 -8 0 -15 5 -15 10 0 6 7 10 15
10 8 0 15 -4 15 -10z m-220 -45 c0 -8 -7 -15 -15 -15 -8 0 -15 7 -15 15 0 8 7
15 15 15 8 0 15 -7 15 -15z m-30 -50 c0 -8 -4 -15 -10 -15 -5 0 -10 7 -10 15
0 8 5 15 10 15 6 0 10 -7 10 -15z m-20 -50 c0 -8 -7 -15 -15 -15 -8 0 -15 7
-15 15 0 8 7 15 15 15 8 0 15 -7 15 -15z m120 0 c0 -8 -4 -15 -10 -15 -5 0
-10 7 -10 15 0 8 5 15 10 15 6 0 10 -7 10 -15z m-150 -50 c0 -8 -4 -15 -10
-15 -5 0 -10 7 -10 15 0 8 5 15 10 15 6 0 10 -7 10 -15z m130 0 c0 -8 -7 -15
-15 -15 -8 0 -15 7 -15 15 0 8 7 15 15 15 8 0 15 -7 15 -15z m-50 -70 c0 -8
-7 -15 -15 -15 -8 0 -15 7 -15 15 0 8 7 15 15 15 8 0 15 -7 15 -15z m-50 -46
c0 -14 25 -39 39 -39 6 0 11 -7 11 -15 0 -8 -7 -15 -15 -15 -8 0 -15 5 -15 11
0 6 -6 17 -14 25 -8 8 -19 14 -25 14 -6 0 -11 7 -11 15 0 8 7 15 15 15 8 0 15
-5 15 -11z m-100 -54 c0 -8 -4 -15 -10 -15 -5 0 -10 7 -10 15 0 8 5 15 10 15
6 0 10 -7 10 -15z m150 -75 c0 -5 -7 -10 -15 -10 -8 0 -15 5 -15 10 0 6 7 10
15 10 8 0 15 -4 15 -10z m-150 -25 c0 -8 -4 -15 -10 -15 -5 0 -10 7 -10 15 0
8 5 15 10 15 6 0 10 -7 10 -15z m-200 -170 c0 -8 7 -15 15 -15 9 0 15 -9 15
-25 0 -16 -6 -25 -15 -25 -8 0 -15 7 -15 15 0 8 -4 15 -10 15 -5 0 -10 11 -10
25 0 14 5 25 10 25 6 0 10 -7 10 -15z m1820 -25 c0 -5 -16 -10 -35 -10 -19 0
-35 5 -35 10 0 6 16 10 35 10 19 0 35 -4 35 -10z m150 0 c0 -5 -11 -10 -25
-10 -14 0 -25 5 -25 10 0 6 11 10 25 10 14 0 25 -4 25 -10z m140 0 c0 -5 -4
-10 -10 -10 -5 0 -10 5 -10 10 0 6 5 10 10 10 6 0 10 -4 10 -10z"/>
<path d="M2650 4415 c0 -14 -4 -25 -10 -25 -5 0 -10 -4 -10 -10 0 -5 11 -10
25 -10 20 0 25 5 25 25 0 14 5 25 10 25 6 0 10 5 10 10 0 6 -11 10 -25 10 -20
0 -25 -5 -25 -25z"/>
<path d="M1720 4395 c0 -14 5 -25 11 -25 14 0 39 -25 39 -39 0 -6 5 -11 10
-11 6 0 10 -11 10 -25 0 -14 -4 -25 -10 -25 -5 0 -10 -11 -10 -25 0 -20 5 -25
25 -25 16 0 25 6 25 15 0 9 9 15 25 15 23 0 25 3 25 50 0 34 -4 50 -13 50 -7
0 -19 9 -27 20 -8 11 -25 20 -37 20 -14 0 -23 6 -23 15 0 9 -9 15 -25 15 -20
0 -25 -5 -25 -25z"/>
<path d="M4370 4380 c0 -5 -7 -10 -15 -10 -8 0 -15 -4 -15 -10 0 -5 23 -10 50
-10 38 0 50 -4 50 -15 0 -13 22 -15 135 -15 l135 0 0 25 c0 25 -1 25 -85 25
-50 0 -85 4 -85 10 0 6 -35 10 -85 10 -50 0 -85 -4 -85 -10z"/>
<path d="M4760 4345 c0 -23 3 -25 50 -25 38 0 50 4 50 15 0 8 -7 15 -15 15 -8
0 -15 5 -15 10 0 6 -16 10 -35 10 -31 0 -35 -3 -35 -25z"/>
<path d="M1550 4285 c0 -24 -5 -35 -15 -35 -8 0 -15 -7 -15 -15 0 -8 -4 -15
-10 -15 -15 0 -12 -39 4 -56 17 -16 56 -19 56 -4 0 6 7 10 15 10 12 0 15 15
15 75 0 73 -1 75 -25 75 -22 0 -25 -4 -25 -35z"/>
<path d="M3000 4175 c0 -16 -6 -25 -15 -25 -9 0 -15 -9 -15 -25 0 -14 -4 -25
-10 -25 -5 0 -10 -11 -10 -25 0 -16 -6 -25 -15 -25 -9 0 -15 -9 -15 -25 0 -14
-4 -25 -10 -25 -5 0 -10 -16 -10 -35 0 -24 -5 -35 -15 -35 -9 0 -15 -9 -15
-25 0 -14 -4 -25 -10 -25 -5 0 -10 -16 -10 -35 0 -24 -5 -35 -15 -35 -11 0
-15 -11 -15 -40 0 -22 -4 -40 -10 -40 -5 0 -10 -20 -10 -45 0 -33 -4 -45 -15
-45 -11 0 -15 -12 -15 -50 0 -27 -4 -50 -10 -50 -6 0 -10 -28 -10 -65 0 -63 1
-65 25 -65 23 0 25 3 25 50 0 28 5 50 10 50 6 0 10 18 10 40 0 22 5 40 11 40
17 0 39 27 39 49 0 12 5 21 11 21 17 0 39 27 39 49 0 12 6 21 15 21 8 0 15 7
15 15 0 8 5 15 10 15 6 0 10 11 10 25 0 16 6 25 15 25 9 0 15 9 15 25 0 14 5
25 10 25 6 0 10 63 10 170 0 107 -4 170 -10 170 -5 0 -10 -11 -10 -25z"/>
<path d="M7190 4189 c0 -14 25 -39 39 -39 6 0 11 -10 11 -23 0 -12 9 -29 20
-37 11 -8 20 -25 20 -37 0 -14 6 -23 15 -23 9 0 15 -9 15 -25 0 -14 5 -25 10
-25 6 0 10 -11 10 -25 0 -16 6 -25 15 -25 9 0 15 -9 15 -25 0 -14 5 -25 10
-25 6 0 10 -16 10 -35 0 -24 5 -35 15 -35 9 0 15 -9 15 -25 0 -14 5 -25 10
-25 6 0 10 -7 10 -15 0 -9 9 -15 25 -15 23 0 25 -4 25 -45 0 -41 2 -45 25 -45
23 0 25 -4 25 -40 0 -36 -2 -40 -25 -40 -20 0 -25 -5 -25 -25 0 -14 5 -25 11
-25 21 0 39 -29 39 -64 0 -20 5 -36 10 -36 6 0 10 -20 10 -45 0 -41 2 -45 25
-45 24 0 25 3 25 59 0 38 -4 61 -12 64 -8 2 -9 8 -4 13 5 5 11 4 13 -3 3 -7
11 -13 19 -13 8 0 14 -7 14 -15 0 -8 5 -15 10 -15 6 0 10 -20 10 -45 0 -33 4
-45 15 -45 8 0 15 -5 15 -11 0 -14 25 -39 39 -39 6 0 11 -7 11 -15 0 -8 -6
-15 -14 -15 -8 0 -17 -6 -20 -12 -5 -10 -7 -10 -12 0 -3 6 -17 12 -30 12 -21
0 -24 -5 -24 -35 0 -33 2 -35 35 -35 19 0 35 5 35 10 0 18 45 10 60 -10 8 -11
20 -20 27 -20 8 0 13 -14 13 -39 0 -22 6 -42 13 -45 10 -5 10 -7 0 -12 -8 -3
-13 -25 -13 -55 0 -46 2 -49 25 -49 23 0 25 -3 25 -50 0 -27 5 -50 10 -50 6 0
10 -11 10 -25 0 -14 5 -25 11 -25 14 0 39 -25 39 -39 0 -6 5 -11 11 -11 17 0
39 -27 39 -49 0 -12 5 -21 11 -21 17 0 39 -27 39 -49 0 -12 5 -21 10 -21 6 0
10 -11 10 -25 0 -18 -5 -25 -20 -25 -11 0 -20 -7 -20 -15 0 -11 12 -15 45 -15
l45 0 0 -45 c0 -41 2 -45 25 -45 26 0 35 -24 13 -34 -10 -5 -10 -7 0 -12 6 -3
12 -12 12 -20 0 -8 7 -14 15 -14 8 0 15 -4 15 -10 0 -5 11 -10 25 -10 20 0 25
-5 25 -25 0 -14 5 -25 10 -25 6 0 10 -11 10 -25 0 -14 5 -25 10 -25 6 0 10
-11 10 -25 0 -16 6 -25 15 -25 9 0 15 -9 15 -25 0 -14 5 -25 10 -25 6 0 10
-16 10 -35 0 -24 5 -35 15 -35 8 0 15 -7 15 -15 0 -8 -7 -15 -15 -15 -9 0 -15
-9 -15 -25 0 -16 6 -25 15 -25 8 0 15 7 15 15 0 8 5 15 10 15 14 0 12 -28 -2
-32 -19 -7 16 -38 41 -38 16 0 21 -6 21 -25 0 -20 5 -25 25 -25 23 0 25 -3 25
-50 0 -38 4 -50 15 -50 9 0 15 -9 15 -23 0 -12 9 -29 20 -37 11 -8 20 -20 20
-27 0 -7 5 -13 11 -13 23 0 39 -30 39 -74 0 -34 4 -46 15 -46 8 0 15 -5 15
-11 0 -14 25 -39 39 -39 6 0 11 -7 11 -15 0 -8 -5 -15 -11 -15 -11 0 -39 -24
-39 -34 0 -3 16 -6 35 -6 24 0 35 -5 35 -15 0 -8 5 -15 11 -15 23 0 39 -30 39
-74 0 -34 4 -46 15 -46 10 0 15 -11 15 -35 0 -19 5 -35 10 -35 6 0 10 -27 10
-61 0 -59 13 -89 39 -89 6 0 11 -7 11 -15 0 -11 12 -15 46 -15 49 0 74 -16 74
-49 0 -12 5 -21 11 -21 17 0 39 -27 39 -49 0 -12 5 -21 10 -21 6 0 10 -11 10
-25 0 -14 -4 -25 -10 -25 -5 0 -10 -5 -10 -11 0 -17 -27 -39 -49 -39 -12 0
-21 -6 -21 -15 0 -11 12 -15 45 -15 l45 0 0 -45 c0 -33 4 -45 15 -45 9 0 15
-9 15 -25 0 -14 5 -25 10 -25 6 0 10 -7 10 -15 0 -8 7 -15 15 -15 8 0 15 -4
15 -10 0 -5 16 -10 35 -10 31 0 35 -3 35 -25 0 -16 6 -25 15 -25 9 0 15 -9 15
-21 0 -22 22 -49 39 -49 6 0 11 -11 11 -25 0 -14 5 -25 10 -25 6 0 10 -11 10
-25 0 -20 5 -25 25 -25 16 0 25 -6 25 -15 0 -8 -5 -15 -11 -15 -14 0 -39 -25
-39 -39 0 -6 -4 -11 -10 -11 -5 0 -10 -9 -10 -20 0 -11 5 -20 10 -20 6 0 10
-5 10 -11 0 -23 30 -39 74 -39 25 0 46 5 46 10 0 6 7 10 15 10 10 0 15 11 15
35 0 24 -5 35 -15 35 -11 0 -15 11 -15 40 0 22 -4 40 -10 40 -5 0 -10 11 -10
25 0 16 -6 25 -15 25 -9 0 -15 9 -15 25 0 14 -4 25 -10 25 -5 0 -10 11 -10 25
0 16 -6 25 -15 25 -8 0 -15 9 -15 20 0 11 -4 20 -10 20 -5 0 -10 11 -10 25 0
14 -4 25 -10 25 -5 0 -10 11 -10 25 0 16 -6 25 -15 25 -9 0 -15 9 -15 25 0 14
-4 25 -10 25 -5 0 -10 11 -10 25 0 16 -6 25 -15 25 -9 0 -15 9 -15 25 0 14 -4
25 -10 25 -5 0 -10 11 -10 25 0 16 -6 25 -15 25 -9 0 -15 9 -15 25 0 14 -4 25
-10 25 -5 0 -10 11 -10 25 0 16 -6 25 -15 25 -8 0 -15 9 -15 20 0 11 -4 20
-10 20 -5 0 -10 11 -10 25 0 16 -6 25 -15 25 -9 0 -15 9 -15 25 0 14 -4 25
-10 25 -5 0 -10 11 -10 25 0 14 -4 25 -10 25 -5 0 -10 11 -10 25 0 16 -6 25
-15 25 -8 0 -15 7 -15 15 0 8 -4 15 -10 15 -5 0 -10 9 -10 20 0 11 -7 20 -15
20 -9 0 -15 9 -15 25 0 14 -4 25 -10 25 -5 0 -10 11 -10 25 0 16 -6 25 -15 25
-9 0 -15 9 -15 25 0 14 -4 25 -10 25 -5 0 -10 7 -10 15 0 8 -7 15 -15 15 -8 0
-15 9 -15 20 0 11 -4 20 -10 20 -5 0 -10 11 -10 25 0 14 -4 25 -10 25 -5 0
-10 7 -10 15 0 8 -7 15 -15 15 -9 0 -15 9 -15 25 0 14 -4 25 -10 25 -5 0 -10
11 -10 25 0 14 -5 25 -11 25 -14 0 -39 25 -39 39 0 6 -7 11 -15 11 -10 0 -15
10 -15 31 0 30 -19 59 -39 59 -6 0 -11 5 -11 11 0 14 -25 39 -39 39 -6 0 -11
11 -11 25 0 14 -4 25 -10 25 -5 0 -10 7 -10 15 0 8 -4 15 -10 15 -5 0 -10 20
-10 45 0 32 -4 45 -14 45 -8 0 -16 -6 -19 -12 -2 -8 -8 -9 -13 -4 -5 5 -4 11
4 13 14 6 17 83 2 83 -5 0 -10 11 -10 25 0 16 -6 25 -15 25 -8 0 -15 9 -15 20
0 11 -4 20 -10 20 -5 0 -10 11 -10 25 0 16 -6 25 -15 25 -9 0 -15 9 -15 25 0
14 -4 25 -10 25 -5 0 -10 11 -10 25 0 16 -6 25 -15 25 -9 0 -15 9 -15 25 0 14
-4 25 -10 25 -5 0 -10 11 -10 25 0 16 -6 25 -15 25 -9 0 -15 9 -15 25 0 14 -4
25 -10 25 -5 0 -10 11 -10 25 0 14 -4 25 -10 25 -5 0 -10 11 -10 25 0 16 -6
25 -15 25 -9 0 -15 9 -15 25 0 14 -4 25 -10 25 -5 0 -10 9 -10 20 0 11 -7 20
-15 20 -9 0 -15 9 -15 25 0 14 -4 25 -10 25 -5 0 -10 11 -10 25 0 16 -6 25
-15 25 -9 0 -15 9 -15 25 0 14 -4 25 -10 25 -5 0 -10 7 -10 15 0 8 5 15 10 15
6 0 10 -7 10 -15 0 -9 9 -15 25 -15 16 0 25 6 25 15 0 8 7 15 15 15 8 0 15 9
15 20 0 11 -7 20 -15 20 -8 0 -15 7 -15 15 0 8 -4 15 -10 15 -5 0 -10 16 -10
35 0 31 -3 35 -25 35 -24 0 -25 -3 -25 -60 0 -47 -3 -60 -15 -60 -9 0 -15 9
-15 23 0 12 -9 29 -20 37 -11 8 -20 25 -20 37 0 14 -6 23 -15 23 -9 0 -15 9
-15 25 0 14 -4 25 -10 25 -5 0 -10 11 -10 25 0 20 -5 25 -25 25 -14 0 -25 -4
-25 -10 0 -5 -7 -10 -15 -10 -8 0 -15 5 -15 10 0 6 7 10 15 10 8 0 15 6 15 14
0 8 6 16 12 18 15 5 -13 38 -31 38 -6 0 -11 11 -11 25 0 14 -4 25 -10 25 -5 0
-10 11 -10 25 0 16 -6 25 -15 25 -8 0 -15 7 -15 15 0 8 -4 15 -10 15 -5 0 -10
11 -10 25 0 16 -6 25 -15 25 -8 0 -15 9 -15 20 0 11 -4 20 -10 20 -5 0 -10 5
-10 11 0 14 -25 39 -39 39 -6 0 -11 16 -11 36 0 35 -18 64 -39 64 -6 0 -11 5
-11 11 0 14 -25 39 -39 39 -6 0 -11 9 -11 21 0 22 -22 49 -39 49 -6 0 -11 11
-11 25 0 14 -4 25 -10 25 -5 0 -10 7 -10 15 0 8 -4 15 -10 15 -5 0 -10 11 -10
25 0 16 -6 25 -15 25 -9 0 -15 9 -15 21 0 22 -22 49 -39 49 -6 0 -11 11 -11
25 0 14 -4 25 -10 25 -5 0 -10 11 -10 25 0 16 -6 25 -15 25 -9 0 -15 9 -15 21
0 22 -22 49 -39 49 -6 0 -11 9 -11 21 0 22 -22 49 -39 49 -6 0 -11 6 -11 13 0
7 -9 19 -20 27 -11 8 -20 20 -20 27 0 7 -11 13 -25 13 -14 0 -25 -5 -25 -11z
m390 -639 c0 -5 -7 -10 -15 -10 -8 0 -15 5 -15 10 0 6 7 10 15 10 8 0 15 -4
15 -10z m270 -465 c0 -8 -7 -15 -15 -15 -8 0 -15 7 -15 15 0 8 7 15 15 15 8 0
15 -7 15 -15z m70 -50 c0 -8 -4 -15 -10 -15 -5 0 -10 -11 -10 -25 0 -16 -6
-25 -15 -25 -9 0 -15 9 -15 25 0 16 6 25 15 25 8 0 15 7 15 15 0 8 5 15 10 15
6 0 10 -7 10 -15z m0 -100 c0 -8 -4 -15 -10 -15 -5 0 -10 7 -10 15 0 8 5 15
10 15 6 0 10 -7 10 -15z m100 -95 c0 -5 -4 -10 -10 -10 -5 0 -10 5 -10 10 0 6
5 10 10 10 6 0 10 -4 10 -10z m50 -75 c0 -8 -7 -15 -15 -15 -8 0 -15 7 -15 15
0 8 7 15 15 15 8 0 15 -7 15 -15z m50 -75 c0 -5 -7 -10 -15 -10 -8 0 -15 5
-15 10 0 6 7 10 15 10 8 0 15 -4 15 -10z m20 -120 c0 -5 -4 -10 -10 -10 -5 0
-10 5 -10 10 0 6 5 10 10 10 6 0 10 -4 10 -10z m0 -50 c0 -5 -4 -10 -10 -10
-5 0 -10 5 -10 10 0 6 5 10 10 10 6 0 10 -4 10 -10z m50 -70 c0 -5 7 -10 15
-10 8 0 15 -6 15 -14 0 -8 6 -16 13 -19 7 -2 8 -8 3 -13 -5 -5 -11 -4 -13 4
-3 6 -11 12 -19 12 -8 0 -14 7 -14 15 0 8 -4 15 -10 15 -5 0 -10 5 -10 10 0 6
5 10 10 10 6 0 10 -4 10 -10z m-20 -50 c0 -5 -7 -10 -15 -10 -8 0 -15 5 -15
10 0 6 7 10 15 10 8 0 15 -4 15 -10z m120 -75 c0 -8 -7 -15 -15 -15 -8 0 -15
7 -15 15 0 8 7 15 15 15 8 0 15 -7 15 -15z m70 -125 c0 -5 -4 -10 -10 -10 -5
0 -10 5 -10 10 0 6 5 10 10 10 6 0 10 -4 10 -10z m30 -45 c0 -8 -7 -15 -15
-15 -8 0 -15 7 -15 15 0 8 7 15 15 15 8 0 15 -7 15 -15z m20 -175 c0 -5 -4
-10 -10 -10 -5 0 -10 5 -10 10 0 6 5 10 10 10 6 0 10 -4 10 -10z"/>
<path d="M1670 4135 c0 -9 -9 -15 -25 -15 -21 0 -25 -5 -25 -31 0 -30 -19 -59
-39 -59 -6 0 -11 -11 -11 -25 0 -14 -4 -25 -10 -25 -6 0 -10 -27 -10 -60 0
-47 -3 -60 -15 -60 -8 0 -15 -7 -15 -15 0 -8 6 -15 14 -15 8 0 17 -6 20 -12 5
-10 7 -10 12 0 3 6 12 12 20 12 8 0 14 7 14 15 0 8 5 15 10 15 6 0 10 9 10 20
0 11 7 20 15 20 9 0 15 9 15 25 0 14 5 25 10 25 6 0 10 7 10 15 0 8 7 15 15
15 9 0 15 9 15 21 0 22 22 49 39 49 6 0 11 6 11 13 0 7 9 19 20 27 11 8 20 25
20 37 0 21 -4 23 -60 23 -47 0 -60 -3 -60 -15z"/>
<path d="M3460 4139 c0 -6 -6 -17 -14 -25 -8 -8 -19 -14 -25 -14 -6 0 -11 -4
-11 -10 0 -5 7 -10 15 -10 8 0 15 -7 15 -15 0 -8 5 -15 10 -15 6 0 10 7 10 15
0 8 5 15 11 15 17 0 39 27 39 49 0 16 -6 21 -25 21 -14 0 -25 -5 -25 -11z"/>
<path d="M1500 3749 c0 -14 -25 -39 -39 -39 -6 0 -11 -5 -11 -11 0 -14 -25
-39 -39 -39 -6 0 -11 -9 -11 -21 0 -22 -22 -49 -39 -49 -6 0 -11 -11 -11 -25
0 -14 -4 -25 -10 -25 -5 0 -10 -11 -10 -25 0 -16 -6 -25 -15 -25 -9 0 -15 -9
-15 -25 0 -14 -4 -25 -10 -25 -5 0 -10 -7 -10 -15 0 -8 -4 -15 -10 -15 -5 0
-10 -9 -10 -20 0 -11 -7 -20 -15 -20 -9 0 -15 -9 -15 -25 0 -14 -4 -25 -10
-25 -5 0 -10 -7 -10 -15 0 -8 -7 -15 -15 -15 -9 0 -15 -9 -15 -21 0 -22 -22
-49 -39 -49 -6 0 -11 -9 -11 -21 0 -22 -22 -49 -39 -49 -6 0 -11 -5 -11 -11 0
-14 -25 -39 -39 -39 -6 0 -11 -17 -11 -38 0 -26 -6 -42 -20 -52 -11 -8 -20
-20 -20 -27 0 -7 -7 -13 -15 -13 -9 0 -15 -9 -15 -25 0 -14 -4 -25 -10 -25 -5
0 -10 -9 -10 -20 0 -11 -7 -20 -15 -20 -8 0 -15 -7 -15 -15 0 -8 -4 -15 -10
-15 -5 0 -10 -11 -10 -25 0 -16 -6 -25 -15 -25 -9 0 -15 -9 -15 -21 0 -22 -22
-49 -39 -49 -6 0 -11 -11 -11 -25 0 -14 -4 -25 -10 -25 -5 0 -10 -11 -10 -25
0 -16 -6 -25 -15 -25 -9 0 -15 -9 -15 -25 0 -14 -4 -25 -10 -25 -5 0 -10 -9
-10 -21 0 -22 -22 -49 -39 -49 -6 0 -11 -11 -11 -25 0 -14 -4 -25 -10 -25 -5
0 -10 -11 -10 -25 0 -16 -6 -25 -15 -25 -9 0 -15 -9 -15 -25 0 -14 -4 -25 -10
-25 -5 0 -10 -11 -10 -25 0 -16 -6 -25 -15 -25 -9 0 -15 -9 -15 -25 0 -14 -4
-25 -10 -25 -5 0 -10 -11 -10 -25 0 -16 -6 -25 -15 -25 -8 0 -15 -9 -15 -20 0
-11 -4 -20 -10 -20 -5 0 -10 -11 -10 -25 0 -14 -4 -25 -10 -25 -5 0 -10 -11
-10 -25 0 -16 -6 -25 -15 -25 -9 0 -15 -9 -15 -25 0 -14 -4 -25 -10 -25 -5 0
-10 -11 -10 -25 0 -16 -6 -25 -15 -25 -9 0 -15 -9 -15 -25 0 -14 -4 -25 -10
-25 -5 0 -10 -11 -10 -25 0 -16 -6 -25 -15 -25 -9 0 -15 -9 -15 -25 0 -14 -4
-25 -10 -25 -5 0 -10 -11 -10 -25 0 -16 -6 -25 -15 -25 -8 0 -15 -9 -15 -20 0
-11 -4 -20 -10 -20 -5 0 -10 -11 -10 -25 0 -16 -6 -25 -15 -25 -11 0 -15 -11
-15 -40 0 -22 -4 -40 -10 -40 -5 0 -10 -16 -10 -35 0 -19 5 -35 10 -35 6 0 10
-7 10 -15 0 -11 12 -15 50 -15 38 0 50 4 50 15 0 8 5 15 11 15 17 0 39 27 39
49 0 12 -4 21 -10 21 -5 0 -10 7 -10 15 0 8 -5 15 -11 15 -14 0 -39 25 -39 39
0 6 11 11 25 11 20 0 25 5 25 25 0 14 5 25 10 25 6 0 10 9 10 20 0 11 7 20 15
20 8 0 15 7 15 15 0 8 5 15 10 15 6 0 10 11 10 25 0 16 6 25 15 25 9 0 15 9
15 25 0 21 5 25 31 25 30 0 59 19 59 39 0 6 7 11 15 11 8 0 15 9 15 20 0 11 5
20 10 20 6 0 10 23 10 50 l0 50 50 0 c38 0 50 4 50 15 0 9 -9 15 -21 15 -22 0
-49 22 -49 39 0 6 -7 11 -15 11 -8 0 -15 9 -15 20 0 11 7 20 15 20 9 0 15 9
15 25 0 14 5 25 10 25 6 0 10 7 10 15 0 8 7 15 15 15 9 0 15 9 15 21 0 33 25
49 74 49 26 0 46 5 46 11 0 14 25 39 39 39 7 0 11 24 11 60 0 33 4 60 10 60 6
0 10 18 10 40 0 29 4 40 15 40 11 0 15 12 15 45 0 25 5 45 10 45 6 0 10 7 10
15 0 8 7 15 15 15 8 0 15 5 15 10 0 6 16 10 35 10 24 0 35 5 35 15 0 8 -5 15
-11 15 -11 0 -39 25 -39 35 0 10 28 35 39 35 6 0 11 7 11 15 0 8 5 15 10 15 6
0 10 20 10 45 0 33 4 45 15 45 8 0 15 5 15 11 0 14 25 39 39 39 6 0 11 7 11
15 0 8 5 15 10 15 6 0 10 11 10 25 0 16 6 25 15 25 11 0 15 12 15 45 0 41 2
45 25 45 23 0 25 3 25 50 0 43 3 50 20 50 11 0 20 7 20 15 0 8 7 15 15 15 9 0
15 9 15 25 0 14 5 25 10 25 6 0 10 16 10 35 0 24 5 35 15 35 9 0 15 9 15 25 0
14 5 25 10 25 6 0 10 11 10 25 0 16 6 25 15 25 9 0 15 9 15 25 0 14 5 25 10
25 6 0 10 11 10 25 0 14 5 25 11 25 16 0 39 26 39 45 0 19 23 45 39 45 6 0 11
7 11 15 0 9 -9 15 -25 15 -14 0 -25 -5 -25 -11z"/>
<path d="M2680 3330 c0 -5 -7 -10 -15 -10 -9 0 -15 -9 -15 -25 0 -22 4 -25 40
-25 39 0 40 1 40 35 0 31 -3 35 -25 35 -14 0 -25 -4 -25 -10z"/>
<path d="M7260 3269 c0 -69 12 -99 39 -99 6 0 11 -9 11 -21 0 -22 22 -49 39
-49 6 0 11 -11 11 -25 0 -14 5 -25 10 -25 6 0 10 -7 10 -15 0 -8 7 -15 15 -15
9 0 15 9 15 25 0 16 -6 25 -15 25 -11 0 -15 11 -15 40 0 22 -4 40 -10 40 -5 0
-10 9 -10 20 0 11 -7 20 -15 20 -9 0 -15 9 -15 25 0 14 -4 25 -10 25 -5 0 -10
11 -10 25 0 16 -6 25 -15 25 -9 0 -15 9 -15 25 0 14 -4 25 -10 25 -6 0 -10
-30 -10 -71z"/>
<path d="M2410 3199 c0 -22 22 -49 39 -49 6 0 11 -7 11 -15 0 -8 5 -15 10 -15
6 0 10 -11 10 -25 0 -14 -4 -25 -10 -25 -5 0 -10 -11 -10 -25 0 -20 5 -25 25
-25 16 0 25 6 25 15 0 8 9 15 20 15 17 0 20 7 20 45 0 51 -32 95 -70 95 -11 0
-20 7 -20 15 0 9 -9 15 -25 15 -19 0 -25 -5 -25 -21z"/>
<path d="M2240 3085 c0 -24 -5 -35 -15 -35 -8 0 -15 -7 -15 -15 0 -8 -4 -15
-10 -15 -15 0 -12 -39 4 -56 8 -8 22 -14 31 -14 33 0 45 26 45 99 0 64 -2 71
-20 71 -16 0 -20 -7 -20 -35z"/>
<path d="M3580 3110 c0 -5 7 -10 15 -10 8 0 15 -5 15 -11 0 -6 6 -17 14 -25 8
-8 19 -14 25 -14 6 0 11 -5 11 -11 0 -6 6 -17 14 -25 8 -8 19 -14 25 -14 6 0
11 -5 11 -11 0 -6 6 -17 14 -25 8 -8 19 -14 25 -14 6 0 11 -5 11 -10 0 -6 11
-22 25 -35 13 -14 29 -25 35 -25 5 0 10 -5 10 -11 0 -17 27 -39 49 -39 12 0
21 -6 21 -15 0 -9 9 -15 25 -15 22 0 25 -4 25 -35 0 -19 -4 -35 -10 -35 -5 0
-10 -7 -10 -15 0 -8 -7 -15 -15 -15 -10 0 -15 -11 -15 -35 0 -31 3 -35 25 -35
16 0 25 6 25 15 0 8 5 15 11 15 20 0 39 29 39 59 0 17 5 31 10 31 6 0 10 23
10 50 0 47 2 50 25 50 22 0 25 4 25 35 0 24 5 35 15 35 11 0 15 12 15 50 0 38
-4 50 -15 50 -8 0 -15 7 -15 15 0 8 -4 15 -10 15 -5 0 -10 -11 -10 -25 0 -22
-4 -25 -35 -25 -19 0 -35 5 -35 10 0 6 -7 10 -15 10 -8 0 -15 5 -15 11 0 14
-25 39 -39 39 -6 0 -11 5 -11 11 0 33 -28 39 -174 39 -91 0 -146 -4 -146 -10z
m490 -150 c0 -5 -4 -10 -10 -10 -5 0 -10 5 -10 10 0 6 5 10 10 10 6 0 10 -4
10 -10z"/>
<path d="M8410 519 c0 -14 -25 -39 -39 -39 -6 0 -11 -21 -11 -50 0 -29 5 -50
11 -50 17 0 39 27 39 49 0 12 6 21 15 21 11 0 15 11 15 40 0 29 -4 40 -15 40
-8 0 -15 -5 -15 -11z"/>
<path d="M3930 290 c0 -5 16 -10 35 -10 19 0 35 5 35 10 0 6 -16 10 -35 10
-19 0 -35 -4 -35 -10z"/>
<path d="M5080 220 c0 -5 16 -10 35 -10 19 0 35 5 35 10 0 6 -16 10 -35 10
-19 0 -35 -4 -35 -10z"/>
<path d="M300 70 c0 -5 5 -10 10 -10 6 0 10 5 10 10 0 6 -4 10 -10 10 -5 0
-10 -4 -10 -10z"/>
</g>
</svg>
