<?xml version="1.0" standalone="no"?>
<!DOCTYPE svg PUBLIC "-//W3C//DTD SVG 20010904//EN"
 "http://www.w3.org/TR/2001/REC-SVG-20010904/DTD/svg10.dtd">
<svg version="1.0" xmlns="http://www.w3.org/2000/svg"
 width="1872.000000pt" height="1200.000000pt" viewBox="0 0 1872.000000 1200.000000"
 preserveAspectRatio="xMidYMid meet">

<g transform="translate(0.000000,1200.000000) scale(0.100000,-0.100000)"
fill="#000000" stroke="none">
<path d="M4905 11506 c-19 -44 -19 -117 0 -221 19 -104 19 -167 0 -212 -21
-50 -44 -73 -72 -73 -63 0 -29 104 40 120 29 8 28 34 -1 38 -30 4 -68 -21 -92
-61 -65 -106 42 -192 125 -101 55 60 67 143 40 289 -21 117 -19 181 5 205 21
21 26 40 11 40 -5 0 -17 3 -25 6 -12 4 -20 -4 -31 -30z"/>
<path d="M7205 11518 c-25 -77 -52 -215 -45 -222 7 -7 14 -6 21 1 13 13 69
219 61 227 -10 10 -33 6 -37 -6z"/>
<path d="M15292 11483 c-5 -10 -12 -29 -16 -43 -3 -14 -16 -37 -29 -52 -21
-26 -25 -27 -54 -16 -39 15 -83 -2 -83 -31 0 -11 -6 -24 -13 -28 -8 -4 -26
-30 -42 -56 -23 -41 -27 -56 -23 -103 3 -40 0 -66 -13 -92 -25 -53 -28 -86 -7
-90 12 -2 19 5 24 25 15 63 32 83 72 83 40 0 79 20 129 67 42 40 50 73 28 129
l-17 45 36 52 c36 53 51 116 29 124 -6 2 -16 -4 -21 -14z m-106 -161 c7 -4
-12 -37 -53 -90 -56 -74 -63 -80 -63 -54 0 15 14 49 30 75 17 26 30 52 30 57
0 16 38 25 56 12z m48 -76 c9 -35 -1 -53 -52 -92 -44 -33 -72 -43 -72 -25 0
12 101 141 110 141 4 0 11 -11 14 -24z"/>
<path d="M8911 11435 c-79 -75 -131 -176 -131 -254 0 -49 -3 -58 -22 -66 -30
-13 -30 -41 -1 -38 18 2 22 -4 28 -38 4 -22 2 -62 -5 -89 -10 -40 -22 -59 -67
-100 -30 -27 -60 -49 -66 -47 -7 1 -12 -7 -12 -18 0 -36 32 -27 95 29 91 79
105 104 104 195 0 42 5 79 10 83 6 4 25 5 42 2 34 -6 48 4 34 25 -5 8 -27 14
-54 15 l-46 1 0 46 c0 61 46 152 111 218 58 59 82 64 98 20 12 -33 34 -35 39
-3 5 32 -35 74 -69 74 -23 0 -45 -13 -88 -55z"/>
<path d="M15971 11448 c-38 -101 -36 -98 -84 -92 -39 6 -50 3 -81 -21 -72 -55
-109 -182 -66 -225 14 -14 18 -28 14 -48 -7 -35 22 -67 31 -36 15 48 33 67 76
84 26 9 60 29 75 44 16 14 32 26 36 26 12 0 38 57 38 85 0 14 -10 35 -21 46
l-22 22 23 53 c21 53 22 84 0 84 -6 0 -14 -10 -19 -22z m-71 -144 c0 -11 -113
-164 -121 -164 -28 0 4 106 44 143 21 19 77 34 77 21z m60 -52 c0 -33 -21 -55
-72 -77 l-37 -15 41 60 c46 66 68 76 68 32z"/>
<path d="M17125 11451 c-3 -12 -4 -25 -1 -29 3 -5 -5 -26 -18 -47 -18 -29 -30
-38 -54 -40 -70 -6 -142 -77 -142 -142 0 -36 25 -83 44 -83 7 0 16 -15 21 -32
12 -41 41 -45 37 -6 -2 24 2 27 49 37 60 13 103 41 123 79 17 34 2 78 -37 109
l-26 20 25 49 c14 27 24 60 22 74 -4 31 -34 39 -43 11z m-108 -226 c-33 -67
-50 -77 -55 -33 -2 18 7 37 28 62 52 59 64 45 27 -29z m108 29 c27 -18 33 -45
13 -62 -16 -12 -101 -42 -107 -36 -6 6 51 114 61 114 5 0 20 -7 33 -16z"/>
<path d="M5720 11377 c0 -37 -11 -107 -25 -161 -28 -107 -32 -178 -12 -195 20
-16 27 -3 27 46 0 25 11 90 25 145 31 119 32 221 3 226 -16 3 -18 -5 -18 -61z"/>
<path d="M17515 11386 c-28 -18 -56 -45 -64 -58 -15 -29 -7 -68 15 -68 18 0
18 -7 -4 -38 -22 -31 -42 -86 -42 -113 0 -10 11 -26 24 -34 22 -15 31 -14 106
5 45 11 99 33 121 47 34 22 39 31 39 62 0 39 -21 72 -57 90 l-23 12 31 27 c39
35 33 67 -17 88 -50 21 -74 17 -129 -20z m114 -15 c12 -8 12 -12 2 -25 -14
-17 -139 -61 -148 -52 -4 3 4 18 18 32 17 18 30 23 46 19 16 -4 26 1 35 15 14
22 25 24 47 11z m-8 -132 c33 -13 57 -55 42 -70 -11 -11 -185 -60 -191 -54 -7
7 31 105 49 124 21 22 41 22 100 0z"/>
<path d="M16212 11398 c-5 -7 -13 -24 -17 -38 -4 -14 -26 -68 -50 -120 -24
-52 -45 -104 -47 -115 -4 -26 30 -33 38 -8 3 10 23 56 45 103 65 143 77 190
50 190 -5 0 -13 -6 -19 -12z"/>
<path d="M17347 11403 c-2 -4 -10 -26 -17 -48 -7 -22 -44 -100 -81 -173 -38
-73 -69 -139 -69 -146 0 -23 26 -38 39 -23 6 8 8 16 5 19 -3 3 29 73 71 154
74 144 95 212 68 221 -6 2 -13 0 -16 -4z"/>
<path d="M16750 11363 c-58 -20 -100 -47 -100 -63 0 -31 19 -33 50 -7 34 29
87 44 102 29 33 -33 -70 -138 -192 -198 -39 -19 -60 -35 -60 -46 0 -21 22 -23
83 -6 36 9 55 8 107 -5 65 -16 80 -15 80 6 -1 15 -63 47 -91 47 -15 0 -5 13
39 49 57 48 82 93 82 148 0 40 -51 63 -100 46z"/>
<path d="M11130 11327 c-80 -21 -85 -23 -85 -49 -1 -15 -11 -41 -23 -58 -13
-17 -20 -35 -16 -41 3 -6 -6 -44 -21 -85 -22 -60 -25 -77 -15 -89 9 -11 16
-12 25 -5 6 5 15 7 18 4 3 -4 37 1 74 9 37 9 79 15 92 14 34 -3 38 21 5 34
-21 8 -45 6 -98 -5 -38 -9 -71 -15 -73 -13 -1 2 7 31 19 64 22 59 23 61 71 72
27 6 75 11 108 11 44 0 59 4 59 14 0 8 -7 17 -16 20 -23 9 -103 7 -147 -3 -34
-8 -38 -7 -32 7 4 10 9 25 12 34 6 19 88 40 158 42 52 1 62 30 14 40 -38 7
-25 9 -129 -17z"/>
<path d="M11865 11284 c-38 -24 -76 -47 -82 -50 -7 -4 -13 -12 -13 -19 0 -24
19 -27 48 -7 32 24 131 82 137 82 11 0 4 -28 -16 -65 -23 -43 -67 -95 -82 -95
-17 0 -107 -86 -107 -103 0 -31 28 -30 74 3 l45 33 36 -32 c31 -27 43 -31 91
-31 30 0 70 6 88 14 42 17 70 54 55 72 -9 11 -17 9 -40 -9 -22 -16 -48 -22
-98 -25 -61 -4 -70 -2 -84 18 -14 20 -13 23 14 53 16 18 39 56 50 86 46 125 4
152 -116 75z"/>
<path d="M14870 11305 c-6 -8 -9 -19 -5 -24 3 -6 -8 -56 -26 -111 -26 -82 -29
-103 -19 -115 17 -20 40 -2 40 33 0 13 14 64 30 112 29 86 31 120 5 120 -7 0
-18 -7 -25 -15z"/>
<path d="M11430 11274 c-175 -99 -189 -246 -28 -285 64 -15 195 -14 214 2 26
21 3 28 -89 28 -193 -1 -248 57 -152 160 59 63 115 89 158 73 43 -16 61 2 28
29 -32 26 -77 24 -131 -7z"/>
<path d="M5122 11218 c-46 -50 -54 -113 -19 -153 26 -31 102 -52 123 -34 19
16 10 26 -33 34 -67 12 -80 35 -32 55 57 24 71 75 30 107 -24 19 -45 15 -69
-9z m53 -27 c5 -9 -35 -44 -43 -37 -5 6 21 46 30 46 4 0 9 -4 13 -9z"/>
<path d="M4136 11205 c-25 -17 -37 -20 -45 -12 -18 18 -28 -3 -35 -70 -5 -57
-4 -63 13 -63 11 0 21 9 25 23 6 26 71 105 79 97 3 -3 1 -26 -4 -50 -15 -64 3
-120 36 -120 27 0 31 11 14 41 -7 14 -7 35 0 69 19 89 -20 128 -83 85z"/>
<path d="M5452 11210 c-12 -11 -29 -35 -38 -52 -11 -22 -18 -27 -24 -18 -4 7
-15 10 -24 7 -13 -5 -16 -23 -16 -98 0 -50 -5 -109 -12 -131 -8 -29 -8 -42 0
-50 16 -16 39 6 47 45 22 114 27 127 49 127 33 0 66 28 87 74 24 53 24 71 -1
96 -25 25 -41 25 -68 0z m38 -66 c-13 -33 -38 -64 -54 -64 -6 0 -5 5 2 12 7 7
12 21 12 33 0 11 7 31 16 44 22 31 38 14 24 -25z"/>
<path d="M2463 11208 c-5 -7 -29 -46 -53 -86 l-43 -74 -13 34 c-7 18 -18 52
-24 75 -12 47 -42 65 -67 40 -17 -17 -10 -37 13 -37 13 0 19 -20 15 -44 -1 -5
10 -32 24 -61 l26 -51 -33 -57 c-20 -34 -40 -57 -50 -57 -20 0 -23 -22 -8 -51
16 -29 34 -23 54 19 10 20 34 64 55 97 105 167 144 242 136 255 -8 14 -21 12
-32 -2z"/>
<path d="M5854 11167 c-59 -128 1 -196 97 -110 39 35 41 40 36 81 -6 54 -24
74 -72 78 -35 2 -38 0 -61 -49z m96 -39 c0 -21 -46 -68 -66 -68 -27 0 -8 83
24 108 14 11 19 10 29 -5 7 -9 13 -25 13 -35z"/>
<path d="M9934 11213 c-29 -5 -57 -39 -76 -90 -14 -36 -14 -44 -2 -60 13 -17
15 -17 29 1 8 11 15 31 15 45 1 58 70 90 83 40 7 -26 31 -20 35 8 3 19 -40 65
-57 62 -3 -1 -16 -4 -27 -6z"/>
<path d="M2550 11200 c-12 -8 -13 -13 -3 -29 11 -17 9 -26 -8 -55 -47 -79 -43
-136 8 -136 40 0 123 89 123 132 0 43 -7 52 -55 74 -22 10 -42 19 -45 21 -3 1
-12 -2 -20 -7z m80 -83 c0 -22 -63 -97 -82 -97 -9 0 15 63 38 98 19 29 44 29
44 -1z"/>
<path d="M2825 11118 c-42 -51 -90 -99 -106 -106 -32 -13 -37 -29 -14 -38 24
-10 68 14 92 48 19 26 23 29 29 15 10 -27 38 -20 93 23 28 22 53 40 57 40 4 0
4 -14 0 -31 -9 -46 3 -78 30 -85 25 -7 58 12 48 27 -3 5 -14 9 -26 9 -21 0
-21 4 -2 101 3 16 -1 31 -11 39 -13 11 -24 6 -74 -34 -33 -25 -62 -46 -65 -46
-4 0 7 24 24 53 16 30 30 59 30 65 0 30 -33 5 -105 -80z"/>
<path d="M6206 11179 c-15 -17 -34 -45 -43 -63 -36 -72 -55 -67 -73 20 -9 43
-15 54 -28 52 -29 -6 -11 -104 29 -159 10 -13 1 -32 -51 -108 -47 -69 -63
-101 -64 -129 -1 -27 3 -37 17 -40 12 -2 17 3 17 20 0 13 9 34 20 48 11 14 20
29 20 33 0 4 22 40 48 80 27 40 68 106 92 147 23 41 49 80 57 87 16 12 11 43
-6 43 -5 0 -21 -14 -35 -31z"/>
<path d="M9082 11188 c2 -15 10 -23 23 -23 30 0 27 39 -3 43 -20 3 -23 0 -20
-20z"/>
<path d="M3605 11191 c-51 -23 -91 -85 -79 -125 17 -57 72 -83 151 -71 34 5
43 10 41 23 -2 11 -12 16 -28 15 -51 -4 -90 8 -107 33 -15 24 -15 26 18 60 27
28 40 34 69 32 29 -3 35 0 35 17 0 16 -7 20 -40 22 -22 1 -49 -2 -60 -6z"/>
<path d="M9606 11175 c-8 -32 -67 -98 -112 -126 -19 -11 -34 -27 -34 -34 0
-29 23 -26 67 9 33 26 50 33 58 26 14 -12 38 -5 79 24 16 11 27 16 24 10 -3
-5 -2 -19 3 -32 7 -19 15 -23 41 -20 38 3 55 38 19 38 -23 0 -27 20 -11 51 19
34 -16 34 -71 0 -28 -17 -52 -31 -55 -31 -2 0 5 17 16 37 25 48 26 73 1 73
-12 0 -21 -9 -25 -25z"/>
<path d="M10095 11168 c-82 -97 -65 -168 40 -168 46 0 79 14 136 58 49 38 61
65 33 76 -19 7 -34 0 -34 -17 0 -7 -19 -25 -41 -41 -43 -30 -113 -44 -138 -28
-19 13 -5 32 24 32 27 0 81 42 90 71 9 28 -12 49 -50 49 -25 0 -40 -8 -60 -32z
m55 -28 c-33 -26 -48 -26 -25 0 10 11 25 20 34 20 12 0 9 -6 -9 -20z"/>
<path d="M3864 11180 c-50 -20 -73 -99 -35 -120 11 -5 30 -10 42 -10 12 0 31
-8 41 -17 30 -27 45 -2 24 41 -19 41 -19 41 -46 24 -25 -16 -33 -7 -21 25 9
23 14 25 44 20 35 -5 58 10 41 27 -15 13 -68 19 -90 10z"/>
<path d="M7997 11140 c-74 -82 -71 -144 8 -170 47 -15 107 -5 103 17 -2 13
-15 17 -49 18 -48 0 -79 17 -79 41 0 21 58 82 76 80 25 -2 41 29 25 48 -21 25
-36 19 -84 -34z"/>
<path d="M7091 11154 c-36 -30 -41 -72 -12 -98 16 -15 18 -22 9 -42 -10 -21
-8 -28 8 -43 10 -10 36 -22 57 -25 33 -6 37 -5 37 14 0 15 -8 22 -30 27 -26 5
-28 8 -18 21 7 8 28 21 46 29 50 21 42 43 -17 43 -58 0 -74 16 -41 42 27 22
66 24 74 3 7 -20 35 -19 43 2 10 26 -32 53 -82 53 -32 0 -52 -7 -74 -26z"/>
<path d="M8500 11172 c-8 -3 -26 -13 -40 -23 -14 -9 -34 -17 -44 -16 -25 3
-65 -98 -47 -116 10 -9 19 -5 39 23 32 41 83 90 95 90 4 0 5 -21 1 -47 -6 -38
-4 -49 11 -59 13 -9 23 -10 36 -3 23 12 25 39 4 39 -18 0 -17 -3 -5 40 16 55
-6 86 -50 72z"/>
<path d="M8285 11151 c-4 -7 -15 -9 -25 -6 -11 3 -29 -4 -48 -20 -85 -72 -41
-154 61 -112 42 18 60 41 60 78 0 34 -36 79 -48 60z m4 -73 c-13 -24 -45 -40
-72 -36 -20 3 -19 6 17 46 35 39 40 41 51 25 9 -12 10 -23 4 -35z"/>
<path d="M9300 11143 c-32 -23 -53 -78 -39 -104 11 -21 29 -22 73 -4 21 9 20
1 -11 -138 -12 -57 -18 -67 -31 -61 -31 14 -92 16 -106 4 -21 -17 -29 -82 -16
-128 18 -70 67 -64 127 15 15 21 34 43 41 49 8 5 13 17 11 25 -2 7 5 46 14 84
22 95 40 246 30 255 -19 17 -71 18 -93 3z m50 -43 c0 -5 -14 -17 -31 -26 -33
-16 -33 -9 -1 28 14 17 32 16 32 -2z m-63 -304 c7 -6 -47 -84 -62 -90 -17 -6
-30 51 -20 84 6 19 12 21 42 17 20 -4 38 -8 40 -11z"/>
<path d="M15349 11099 c-8 -15 -8 -24 0 -32 14 -14 57 25 47 42 -11 18 -34 13
-47 -10z"/>
<path d="M16270 11096 c0 -26 24 -51 40 -41 14 8 13 38 -2 53 -19 19 -38 14
-38 -12z"/>
<path d="M9051 11077 c-20 -25 -42 -100 -32 -110 15 -15 41 0 41 23 0 12 7 34
15 51 21 41 3 68 -24 36z"/>
<path d="M14389 10943 c-1 -4 -2 -17 -3 -28 -5 -75 -20 -156 -31 -165 -9 -7
-21 -7 -40 0 -20 8 -31 8 -39 0 -15 -15 14 -40 51 -43 29 -2 31 -4 25 -32 -4
-16 -7 -57 -7 -90 0 -47 3 -60 15 -60 11 0 16 13 18 45 1 25 7 68 13 96 l10
50 57 15 c38 9 57 19 57 29 0 16 -19 18 -74 7 l-33 -7 8 58 c13 95 11 126 -8
130 -10 2 -19 0 -19 -5z"/>
<path d="M15701 10888 c-5 -13 -16 -66 -26 -118 -9 -52 -25 -115 -36 -139 -10
-24 -19 -50 -19 -57 0 -20 30 -17 49 4 9 9 26 25 38 35 l21 19 0 -48 c0 -28 6
-53 15 -61 20 -20 40 -7 31 20 -4 12 -6 37 -6 56 2 51 -14 74 -47 68 l-28 -6
13 51 c17 62 33 180 27 191 -8 14 -23 7 -32 -15z"/>
<path d="M9615 10890 c-4 -6 -1 -17 5 -25 10 -12 11 -66 5 -224 -4 -121 -3
-211 2 -214 27 -17 32 16 39 241 l7 232 -26 0 c-14 0 -29 -5 -32 -10z"/>
<path d="M15523 10863 c-9 -21 -23 -63 -33 -93 -15 -53 -18 -55 -61 -66 -56
-14 -61 -40 -6 -38 30 1 37 -2 33 -15 -31 -102 -33 -196 -6 -196 11 0 16 13
18 45 1 25 10 73 19 108 17 66 20 69 93 74 23 2 35 8 35 18 0 11 -13 16 -47
18 -27 2 -48 7 -48 12 0 5 11 41 26 80 14 38 22 75 19 80 -12 19 -26 10 -42
-27z"/>
<path d="M8294 10848 c-4 -6 1 -17 11 -24 16 -12 17 -20 5 -116 -17 -136 -18
-200 -3 -205 6 -2 16 2 22 9 5 7 25 31 44 52 l34 40 27 -47 c18 -30 35 -47 47
-47 21 0 27 34 9 45 -6 4 -22 24 -36 46 -28 45 -56 50 -92 17 l-24 -23 6 40
c23 158 16 225 -23 225 -11 0 -23 -5 -27 -12z"/>
<path d="M2960 10824 c-6 -14 -10 -49 -10 -78 0 -83 -9 -114 -34 -118 -31 -4
-26 -32 7 -36 27 -3 27 -4 27 -78 0 -66 2 -75 18 -72 14 3 17 16 20 81 l3 77
45 0 c38 0 45 3 42 18 -2 13 -15 18 -50 20 -45 3 -47 4 -43 30 2 15 6 62 9
105 5 64 3 77 -9 77 -9 0 -20 -12 -25 -26z"/>
<path d="M7047 10798 c-23 -18 -56 -117 -50 -150 3 -18 12 -28 24 -28 14 0 18
8 17 38 0 42 16 89 39 114 8 9 12 22 8 27 -8 14 -17 14 -38 -1z"/>
<path d="M2304 10764 c-9 -37 8 -50 40 -29 31 21 33 31 7 45 -30 16 -40 12
-47 -16z"/>
<path d="M5347 10746 c-10 -26 34 -49 48 -26 8 13 -13 40 -30 40 -7 0 -15 -6
-18 -14z"/>
<path d="M13852 10710 c-34 -21 -71 -87 -72 -128 0 -36 28 -81 55 -88 55 -14
134 21 108 47 -8 8 -17 8 -31 0 -32 -17 -70 -13 -82 8 -16 30 -13 38 21 52 77
31 114 95 70 119 -26 14 -31 13 -69 -10z m48 -30 c0 -5 -15 -17 -32 -25 l-33
-16 28 25 c31 28 37 31 37 16z"/>
<path d="M2720 10699 c-88 -40 -102 -75 -49 -125 34 -33 61 -78 52 -88 -13
-12 -92 -6 -107 9 -25 26 -52 14 -40 -18 9 -24 56 -38 115 -35 45 3 55 7 65
27 16 32 3 65 -43 113 -21 22 -32 41 -28 48 4 7 32 23 62 36 32 14 53 30 50
37 -6 19 -29 18 -77 -4z"/>
<path d="M4363 10700 c-39 -23 -41 -45 -13 -100 20 -40 26 -80 12 -80 -21 0
-52 34 -52 56 0 28 -28 44 -41 23 -12 -20 -1 -49 33 -86 35 -36 73 -49 94 -32
20 16 17 76 -6 128 -11 24 -20 45 -20 48 0 2 16 11 36 19 19 8 34 20 31 27 -6
20 -40 19 -74 -3z"/>
<path d="M11717 10690 c-42 -37 -81 -111 -72 -139 8 -25 55 -44 88 -35 33 8
73 54 82 93 8 35 -10 78 -42 98 -19 13 -24 11 -56 -17z m56 -41 c7 -28 -11
-77 -33 -89 -23 -12 -31 -12 -49 -1 -16 10 -3 41 37 84 31 32 38 34 45 6z"/>
<path d="M11923 10705 c-62 -43 -86 -156 -34 -163 22 -3 23 -1 16 36 -5 33 -2
44 20 70 29 35 65 42 85 17 18 -21 40 -19 40 4 0 44 -83 67 -127 36z"/>
<path d="M13531 10685 c-38 -35 -40 -35 -43 -13 -2 13 -9 23 -17 23 -20 0 -58
-152 -42 -168 8 -8 19 -1 43 28 18 22 52 60 75 85 l43 45 -3 -80 c-2 -73 0
-80 18 -83 18 -2 20 4 22 79 3 127 -23 150 -96 84z"/>
<path d="M7423 10683 c-59 -64 -69 -140 -24 -182 25 -23 40 -28 90 -30 51 -2
62 1 68 16 4 10 11 21 16 24 6 4 7 14 4 24 -8 19 -44 12 -63 -11 -6 -8 -20
-14 -30 -14 -19 0 -73 36 -64 42 3 2 32 17 65 33 34 17 61 38 63 48 4 22 -50
77 -78 77 -11 0 -33 -12 -47 -27z m67 -33 c17 -10 16 -12 -27 -34 -37 -19 -40
-15 -15 19 19 28 21 28 42 15z"/>
<path d="M14070 10692 c-47 -23 -78 -80 -64 -119 13 -37 50 -53 140 -60 71 -6
74 -5 74 16 0 19 -6 21 -50 21 -57 0 -120 22 -120 42 0 29 27 62 60 73 41 14
54 45 18 45 -13 0 -39 -8 -58 -18z"/>
<path d="M12745 10646 c-64 -64 -78 -107 -48 -158 14 -25 32 -37 73 -51 63
-21 86 -17 70 13 -6 12 -21 20 -36 20 -25 0 -74 40 -74 60 0 19 21 53 53 87
27 29 32 31 42 16 14 -19 35 -9 35 17 0 69 -44 67 -115 -4z"/>
<path d="M15966 10676 c-9 -15 -23 -37 -31 -51 -21 -35 -19 -98 4 -119 45 -40
172 -42 179 -2 4 17 -1 18 -47 13 -28 -3 -65 -1 -81 5 -25 8 -31 15 -28 36 2
22 11 28 45 37 54 13 65 25 61 66 -3 32 -5 34 -45 37 -36 3 -44 -1 -57 -22z
m64 -25 c0 -5 -9 -11 -20 -14 -20 -5 -26 3 -13 16 9 10 33 8 33 -2z"/>
<path d="M16303 10684 c-41 -20 -59 -49 -78 -121 -19 -74 -19 -83 4 -83 16 0
22 11 32 63 9 45 21 70 41 91 28 27 33 28 89 23 48 -6 59 -4 59 8 0 35 -90 47
-147 19z"/>
<path d="M4034 10671 c-50 -30 -60 -88 -29 -163 14 -34 81 -34 133 -1 18 11
21 18 13 27 -9 11 -20 10 -56 -3 -41 -14 -47 -14 -55 -1 -11 17 -14 47 -4 37
8 -7 66 21 76 37 13 20 9 45 -12 66 -25 25 -27 25 -66 1z m46 -41 c0 -5 -3
-10 -7 -11 -5 0 -16 -2 -26 -4 -15 -3 -16 -1 -6 11 13 16 39 19 39 4z"/>
<path d="M10703 10684 c-7 -3 -22 -21 -33 -40 -12 -19 -28 -34 -37 -34 -12 0
-14 -10 -8 -62 4 -35 11 -67 15 -72 11 -11 30 1 30 19 0 36 23 117 40 137 16
21 18 21 35 5 19 -19 35 -14 35 12 0 33 -38 50 -77 35z"/>
<path d="M13295 10678 c-11 -6 -32 -22 -47 -36 -22 -20 -28 -22 -28 -9 0 20
-19 32 -31 20 -5 -5 -13 -29 -18 -53 -5 -25 -13 -55 -16 -67 -13 -41 27 -25
74 30 25 29 55 60 68 70 l22 18 -6 -63 c-4 -53 -2 -67 14 -87 13 -16 26 -22
37 -18 16 6 16 8 0 32 -13 20 -15 38 -10 81 9 81 -11 109 -59 82z"/>
<path d="M10226 10658 c-8 -13 -25 -44 -37 -71 l-23 -47 -16 62 c-10 42 -20
63 -30 63 -17 0 -17 -11 -1 -111 l12 -71 -37 -63 c-56 -96 -85 -176 -74 -206
11 -28 28 -31 36 -6 26 81 83 211 106 243 15 21 26 39 23 39 -4 0 15 38 40 85
43 78 49 105 25 105 -5 0 -16 -10 -24 -22z"/>
<path d="M3742 10660 c-12 -5 -30 -25 -39 -45 -36 -75 21 -155 112 -155 44 0
82 20 71 38 -4 7 -25 9 -55 5 -41 -5 -52 -2 -70 16 -25 25 -27 58 -5 89 18 26
42 29 40 5 -1 -21 33 -30 45 -12 8 14 -6 49 -25 61 -15 10 -46 9 -74 -2z"/>
<path d="M7718 10654 c-48 -25 -71 -91 -48 -135 14 -26 50 -24 94 6 l36 24 0
-29 c0 -38 49 -96 73 -87 20 8 23 37 3 37 -16 0 -26 30 -26 77 0 25 5 32 22
35 30 4 34 26 6 38 -13 6 -36 19 -53 29 -36 24 -71 25 -107 5z m39 -70 c-42
-39 -56 -40 -36 -2 15 28 28 38 54 38 17 -1 14 -7 -18 -36z"/>
<path d="M8034 10656 c-30 -21 -71 -86 -77 -123 -5 -23 -1 -38 13 -55 15 -20
27 -23 79 -23 67 1 81 9 84 50 3 35 -16 42 -42 16 -21 -21 -46 -26 -74 -15
-23 9 -2 74 35 106 19 17 28 32 25 42 -8 20 -17 20 -43 2z"/>
<path d="M9863 10648 c-58 -64 -79 -133 -47 -159 14 -11 24 -9 70 15 30 16 64
40 74 54 16 19 20 21 20 8 0 -26 27 -73 46 -80 31 -12 40 12 15 38 -19 20 -24
36 -23 80 0 57 -9 75 -31 58 -7 -5 -21 -6 -32 -1 -37 14 -71 9 -92 -13z m77
-28 c12 -7 11 -13 -10 -35 -27 -29 -79 -60 -87 -52 -12 13 50 97 71 97 6 0 18
-5 26 -10z"/>
<path d="M13015 10662 c-32 -7 -43 -20 -55 -70 -16 -67 -2 -102 41 -102 38 0
99 56 99 92 0 46 -45 89 -85 80z m43 -75 c4 -18 -35 -57 -56 -57 -11 0 -13 8
-7 37 4 21 9 41 11 45 7 12 49 -8 52 -25z"/>
<path d="M2269 10658 c-3 -7 -9 -49 -15 -120 -6 -67 -5 -78 10 -84 24 -9 27
-3 30 67 2 35 7 81 11 102 7 33 6 37 -14 37 -11 0 -22 -1 -22 -2z"/>
<path d="M3233 10640 c-43 -26 -65 -62 -61 -101 5 -50 27 -57 87 -27 51 25 51
25 51 4 0 -30 28 -66 51 -66 23 0 25 22 4 40 -8 7 -15 27 -15 45 0 42 -19 97
-38 113 -22 17 -42 15 -79 -8z m33 -77 c-50 -43 -65 -19 -19 29 24 25 28 26
36 11 8 -13 4 -22 -17 -40z"/>
<path d="M10403 10645 c-87 -37 -78 -192 13 -217 59 -17 144 12 131 45 -5 13
-10 13 -51 -1 -41 -15 -49 -15 -73 -2 -35 20 -39 36 -10 44 14 3 39 19 56 35
37 35 41 73 9 95 -27 19 -34 19 -75 1z m34 -71 c-26 -22 -57 -32 -57 -18 0 16
24 46 43 54 37 14 46 -8 14 -36z"/>
<path d="M2424 10625 c-38 -38 -69 -113 -53 -131 15 -19 35 -3 42 34 7 34 43
82 62 82 21 0 37 -37 33 -78 -2 -27 1 -37 13 -40 18 -3 29 24 29 70 0 36 -45
88 -76 88 -14 0 -36 -11 -50 -25z"/>
<path d="M5465 10638 c-41 -24 -70 -90 -59 -135 10 -39 39 -25 40 19 1 20 9
49 19 64 l18 28 18 -23 c14 -17 19 -40 19 -80 0 -57 18 -100 37 -88 14 9 4
145 -13 179 -8 15 -23 32 -33 38 -24 12 -21 12 -46 -2z"/>
<path d="M3492 10620 c-12 -5 -38 -25 -57 -44 -27 -27 -35 -44 -35 -71 0 -52
29 -43 57 17 27 57 54 75 78 51 13 -13 16 -27 10 -67 -11 -91 -11 -91 9 -91
22 0 26 14 29 103 2 59 0 66 -26 88 -31 26 -32 27 -65 14z"/>
<path d="M15183 10568 c-38 -54 -47 -82 -33 -107 19 -37 43 -42 88 -20 63 31
72 83 26 142 -30 37 -46 34 -81 -15z m67 -54 c0 -26 -59 -67 -61 -42 -2 25 3
43 18 60 19 22 43 12 43 -18z"/>
<path d="M5305 10590 c-3 -5 -3 -15 1 -22 4 -6 7 -31 5 -53 -2 -53 18 -73 54
-57 30 14 32 32 5 39 -16 4 -19 12 -16 40 3 19 2 41 -1 49 -6 16 -39 19 -48 4z"/>
<path d="M11346 10391 c-34 -37 -45 -92 -46 -218 l0 -121 -28 13 c-15 8 -37
12 -48 9 -47 -12 -84 -135 -49 -164 30 -25 80 -23 112 4 42 35 53 84 53 239 0
102 4 147 16 177 9 22 20 40 25 40 5 0 9 9 9 20 0 25 -22 26 -44 1z m-64 -365
c12 0 16 -6 13 -18 -3 -10 -8 -27 -11 -38 -12 -43 -84 -50 -84 -9 0 11 7 34
16 50 11 23 20 29 32 23 9 -4 25 -7 34 -8z"/>
<path d="M6085 10381 c-3 -6 -10 -47 -16 -93 -5 -46 -16 -105 -24 -133 -19
-69 -22 -120 -6 -139 20 -23 29 -20 67 21 34 37 34 37 34 11 0 -29 23 -58 46
-58 22 0 81 26 89 40 15 24 -11 31 -48 14 -20 -10 -40 -14 -44 -10 -4 3 1 30
11 59 19 57 19 102 -2 102 -7 0 -35 -29 -62 -64 -28 -36 -50 -59 -50 -53 0 7
6 54 14 105 27 176 29 207 12 207 -8 0 -17 -4 -21 -9z"/>
<path d="M9195 10340 c-26 -29 -7 -45 30 -26 33 17 44 14 25 -9 -9 -11 -10
-18 -1 -29 14 -17 7 -84 -20 -201 -24 -102 -24 -128 -2 -123 11 2 22 21 31 52
l14 48 26 -25 c15 -13 41 -33 57 -43 17 -10 49 -35 72 -56 46 -41 58 -46 66
-24 6 16 -47 69 -113 113 -56 38 -77 61 -85 94 -6 25 -3 28 43 43 83 28 119
90 92 157 -17 40 -44 49 -139 49 -66 0 -81 -3 -96 -20z m197 -45 c20 -43 0
-77 -56 -97 l-48 -18 7 40 c5 27 2 49 -8 70 l-15 30 54 0 c49 0 56 -3 66 -25z"/>
<path d="M11875 10340 c-4 -6 -1 -17 5 -26 7 -8 15 -46 18 -84 4 -55 2 -70 -9
-71 -72 -6 -113 -22 -106 -42 4 -12 15 -13 81 -3 l38 6 -4 -100 c-3 -88 -2
-100 13 -100 22 0 29 29 29 128 l0 82 43 0 c48 0 71 12 65 31 -3 9 -20 12 -55
10 l-50 -2 -6 70 c-3 38 -11 79 -17 90 -11 22 -35 28 -45 11z"/>
<path d="M12415 10339 c-4 -6 -7 -86 -6 -178 2 -180 5 -188 62 -211 37 -16 69
-7 108 29 81 76 -15 189 -103 120 l-26 -20 0 124 c0 95 -3 127 -14 136 -11 9
-16 9 -21 0z m150 -294 c0 -38 -44 -63 -81 -46 -30 13 -30 22 1 55 36 39 80
34 80 -9z"/>
<path d="M9555 10330 c-9 -15 3 -30 25 -30 16 0 18 -9 15 -97 -3 -135 -11
-170 -38 -169 -14 1 -24 -8 -31 -27 -13 -37 0 -58 48 -76 33 -13 44 -12 91 3
30 9 72 33 96 55 41 36 43 40 47 104 8 118 -48 197 -163 232 -59 17 -82 19
-90 5z m142 -71 c44 -28 73 -85 73 -148 0 -45 -3 -52 -40 -83 -33 -29 -108
-64 -116 -55 -2 1 4 50 12 107 8 58 14 126 12 153 -3 54 6 59 59 26z m-126
-262 c-10 -9 -11 -8 -5 6 3 10 9 15 12 12 3 -3 0 -11 -7 -18z"/>
<path d="M10167 10320 c-70 -21 -73 -48 -12 -115 60 -66 137 -198 133 -227 -3
-20 -8 -23 -38 -20 -34 3 -156 57 -166 73 -2 4 5 11 16 14 34 11 21 41 -15 37
-73 -8 -71 -65 3 -112 26 -17 78 -40 115 -51 106 -33 146 -7 124 81 -10 39
-74 151 -125 220 -31 40 -32 45 -15 51 10 4 39 8 64 8 38 1 50 -3 62 -21 11
-18 18 -20 27 -12 20 20 7 48 -30 66 -37 19 -96 22 -143 8z"/>
<path d="M4480 10221 c-38 -12 -85 -38 -99 -55 -11 -13 -8 -24 14 -63 72 -125
71 -137 -5 -88 -57 36 -73 39 -78 13 -3 -17 70 -75 106 -85 30 -7 72 22 72 50
0 12 -14 46 -30 76 -25 45 -38 90 -27 91 1 0 27 9 57 19 78 26 68 66 -10 42z"/>
<path d="M2376 10166 c-32 -34 -44 -58 -55 -105 -15 -66 -10 -129 11 -142 24
-15 37 15 41 97 6 126 55 188 103 129 15 -19 27 -26 39 -21 16 6 16 8 0 34
-43 67 -82 69 -139 8z"/>
<path d="M2627 10190 c-14 -11 -31 -37 -38 -58 -6 -20 -16 -43 -22 -50 -7 -9
-7 -16 1 -24 7 -7 12 -23 12 -36 0 -13 14 -37 30 -54 26 -25 36 -29 62 -24 41
8 78 32 78 51 0 16 -30 20 -45 6 -21 -19 -53 -22 -69 -6 -27 28 -20 58 20 80
43 23 84 70 84 95 0 41 -71 53 -113 20z m52 -46 c-13 -14 -32 -30 -41 -35 -14
-8 -16 -6 -11 8 10 30 35 53 56 53 20 0 19 -1 -4 -26z"/>
<path d="M5320 10170 c-26 -26 -25 -70 1 -122 25 -48 19 -84 -16 -100 -30 -14
-55 3 -55 38 0 13 -4 24 -9 24 -71 0 -44 -97 32 -115 23 -6 33 -1 67 33 46 45
48 64 19 132 -11 27 -19 57 -17 67 5 25 34 28 41 3 6 -23 35 -27 43 -5 4 8 -1
26 -10 40 -20 31 -67 34 -96 5z"/>
<path d="M5839 10153 c-83 -88 -97 -125 -59 -163 16 -16 33 -20 84 -20 42 0
67 5 75 14 16 19 -4 31 -42 27 -47 -5 -87 9 -87 29 0 28 63 105 85 105 28 0
27 39 0 43 -13 2 -33 -11 -56 -35z"/>
<path d="M2910 10151 c-19 -19 -30 -40 -30 -58 0 -16 -8 -33 -18 -39 -14 -9
-17 -21 -14 -58 3 -29 10 -50 18 -53 24 -9 63 6 79 31 15 23 15 27 -4 65 -32
62 -24 93 26 95 21 1 28 6 28 21 0 34 -50 32 -85 -4z m4 -152 c-10 -16 -24 -9
-24 12 0 18 2 19 15 9 8 -7 12 -16 9 -21z"/>
<path d="M3173 10153 c-4 -11 1 -22 15 -31 35 -23 28 -59 -13 -79 -19 -9 -37
-15 -39 -12 -3 3 0 22 5 44 15 58 16 77 2 82 -26 9 -58 -101 -42 -144 6 -16
17 -23 35 -23 38 0 104 40 110 67 8 28 -2 81 -17 100 -16 18 -48 16 -56 -4z"/>
<path d="M3381 10132 c-10 -20 -44 -66 -75 -101 -32 -34 -55 -68 -53 -74 8
-26 34 -15 67 26 33 42 35 43 45 23 15 -31 38 -30 72 1 l29 28 15 -30 c15 -33
42 -40 47 -12 2 9 -1 17 -7 17 -15 0 -14 48 3 104 12 40 12 48 1 53 -20 7 -33
-3 -55 -45 -23 -45 -69 -101 -70 -86 0 6 7 31 15 54 8 23 15 51 15 61 0 32
-29 21 -49 -19z"/>
<path d="M3655 10143 c-35 -38 -70 -152 -53 -170 21 -20 40 1 44 47 2 23 13
58 25 77 l22 36 20 -27 c20 -28 37 -26 37 5 0 22 -34 59 -55 59 -8 0 -26 -12
-40 -27z"/>
<path d="M5513 10112 c-17 -32 -46 -79 -67 -106 -20 -26 -36 -54 -36 -62 0
-25 40 -16 50 11 10 26 24 32 35 15 11 -18 32 -11 78 24 l45 34 8 -30 c10 -32
38 -58 50 -45 5 4 2 22 -4 40 -7 19 -12 52 -12 75 0 22 -4 44 -10 47 -5 3 -33
-19 -61 -50 -29 -30 -55 -55 -60 -55 -11 0 5 50 30 90 26 44 27 70 2 70 -13 0
-28 -18 -48 -58z"/>
<path d="M13337 10159 c-45 -26 -63 -128 -29 -169 25 -31 92 -36 166 -13 55
17 89 44 74 58 -3 4 -27 -1 -54 -10 -70 -24 -131 -30 -149 -15 -26 21 -18 40
18 40 37 0 97 33 97 54 0 21 -58 66 -83 66 -12 0 -30 -5 -40 -11z m66 -43 c6
-15 -12 -26 -44 -26 -22 0 -24 11 -7 28 16 16 45 15 51 -2z"/>
<path d="M3882 10144 c-48 -33 -82 -94 -82 -144 0 -70 21 -85 106 -77 69 7
124 31 107 48 -6 6 -29 5 -62 -2 -73 -15 -101 -7 -101 32 0 35 23 93 41 104 7
5 26 11 43 15 18 3 31 12 31 20 0 21 -55 24 -83 4z"/>
<path d="M4133 10138 c-51 -57 -59 -128 -18 -177 32 -37 68 -42 118 -18 39 18
46 44 11 39 -10 -1 -35 -5 -55 -8 -51 -9 -60 12 -19 44 18 14 39 41 47 60 12
30 12 37 -2 58 -20 30 -55 31 -82 2z m57 -23 c0 -2 -5 -15 -11 -28 -12 -26
-49 -54 -49 -37 0 22 31 70 45 70 8 0 15 -2 15 -5z"/>
<path d="M7990 10147 c-79 -41 -111 -87 -89 -128 11 -22 68 -26 88 -6 10 10
16 7 30 -11 12 -16 25 -23 41 -20 31 4 38 28 10 35 -15 4 -19 10 -14 22 4 9 9
34 12 55 3 30 0 43 -14 53 -22 16 -33 16 -64 0z m40 -41 c0 -19 -65 -69 -82
-63 -8 3 1 17 25 41 41 39 57 45 57 22z"/>
<path d="M8230 10145 c-9 -11 -16 -12 -26 -4 -18 15 -31 5 -44 -39 -7 -20 -21
-51 -31 -68 -45 -74 -10 -72 58 3 l52 58 -2 -44 c-2 -49 18 -71 63 -71 32 0
75 51 58 68 -12 12 -46 -1 -60 -22 -15 -22 -25 15 -17 61 12 63 -18 97 -51 58z"/>
<path d="M13053 10146 c-23 -6 -45 -14 -49 -18 -15 -16 8 -57 46 -83 55 -38
69 -64 44 -82 -24 -17 -69 -17 -88 2 -19 19 -46 19 -46 1 0 -25 50 -56 89 -56
34 0 76 20 93 44 17 25 5 53 -43 98 -29 27 -49 51 -46 55 4 3 25 6 47 6 41 0
60 12 44 27 -17 15 -49 18 -91 6z"/>
<path d="M6990 10137 c-26 -14 -30 -35 -16 -94 6 -27 5 -31 -11 -27 -25 7 -56
-28 -51 -57 7 -52 80 -50 102 3 11 26 11 40 0 82 -14 53 -11 62 21 68 11 2 20
10 20 18 0 20 -34 23 -65 7z m-10 -161 c0 -3 -4 -8 -10 -11 -5 -3 -10 -1 -10
4 0 6 5 11 10 11 6 0 10 -2 10 -4z"/>
<path d="M6762 10127 c-24 -14 -72 -68 -91 -104 -18 -35 1 -63 44 -63 24 0 45
9 70 31 31 27 35 29 35 12 0 -24 30 -53 53 -53 21 0 22 29 2 36 -8 3 -17 21
-21 40 -11 60 -29 63 -79 14 -25 -24 -47 -41 -51 -38 -3 3 6 24 20 47 30 47
70 63 90 36 14 -19 36 -13 36 10 0 39 -62 57 -108 32z"/>
<path d="M12727 10119 c-24 -14 -47 -62 -47 -98 0 -20 8 -36 26 -50 31 -25 58
-26 97 -6 25 13 28 12 42 -9 17 -25 61 -49 76 -41 17 11 9 30 -20 47 -21 11
-32 27 -37 52 -3 20 -10 36 -15 36 -5 0 -9 8 -9 18 0 44 -70 76 -113 51z m76
-69 c7 -28 5 -36 -10 -47 -46 -34 -81 12 -48 63 22 34 47 27 58 -16z"/>
<path d="M11493 10098 c-13 -13 -25 -38 -29 -55 -5 -25 -2 -33 14 -42 30 -16
63 -14 104 7 l36 19 6 -29 c6 -30 41 -67 64 -68 20 0 14 38 -9 50 -17 10 -20
19 -17 63 l3 51 -40 9 c-96 20 -109 20 -132 -5z m85 -27 c18 -11 -4 -29 -46
-37 -35 -7 -42 5 -16 30 17 17 42 20 62 7z"/>
<path d="M12124 10110 c-49 -20 -72 -101 -38 -134 20 -20 14 -21 84 14 l60 30
0 -25 c0 -30 34 -67 55 -59 19 8 19 18 0 34 -8 7 -15 24 -15 39 0 32 -31 80
-62 97 -27 15 -54 16 -84 4z m60 -36 c26 -10 19 -22 -24 -44 -34 -17 -40 -18
-40 -5 0 21 22 55 37 55 6 0 18 -3 27 -6z"/>
<path d="M13742 9968 c-15 -15 -15 -45 0 -54 13 -8 38 22 38 48 0 21 -20 24
-38 6z"/>
<path d="M6550 9750 c-74 -4 -324 -12 -555 -18 -231 -6 -663 -18 -960 -27
-297 -8 -742 -20 -990 -25 -885 -19 -1333 -46 -1645 -96 -95 -16 -579 -35
-586 -23 -7 13 -63 7 -68 -7 -7 -20 3 -44 20 -44 7 0 11 -6 8 -13 -2 -7 5
-109 16 -227 11 -118 20 -246 21 -285 2 -91 10 -130 29 -130 19 0 17 105 -11
413 -15 172 -17 227 -8 238 9 11 46 14 173 14 154 0 437 18 611 40 266 33 696
53 1440 70 1044 23 2109 56 2304 71 68 5 163 9 211 9 113 0 180 9 180 25 0 14
-24 26 -43 23 -7 -1 -73 -5 -147 -8z"/>
<path d="M7229 9668 c-6 -27 -10 -222 -11 -548 0 -424 4 -468 44 -494 27 -16
31 -2 18 61 -9 40 -13 200 -14 520 -1 434 -2 463 -18 463 -10 0 -18 -1 -19 -2z"/>
<path d="M6525 9428 c-16 -48 -24 -145 -17 -227 l8 -93 -44 5 c-32 3 -45 1
-49 -10 -9 -23 12 -35 56 -35 l41 1 1 -52 c0 -29 6 -74 13 -102 9 -39 15 -50
31 -50 22 0 22 1 5 83 -6 29 -10 72 -8 95 3 40 5 42 41 48 44 7 59 19 48 37
-6 10 -18 11 -52 3 -24 -5 -45 -9 -46 -7 -4 4 -4 228 -1 275 3 34 -17 56 -27
29z"/>
<path d="M4515 9416 c-54 -17 -97 -39 -181 -94 -147 -96 -192 -227 -129 -376
15 -36 66 -87 110 -109 l30 -16 -51 -1 c-108 0 -863 -31 -1129 -45 -154 -8
-442 -17 -640 -19 -198 -3 -415 -8 -481 -12 -83 -5 -132 -3 -154 5 -24 8 -37
8 -44 0 -15 -15 42 -61 69 -55 11 3 241 7 510 11 270 3 524 7 565 10 457 31
1238 56 1760 56 489 0 727 -7 1295 -36 160 -8 418 -19 575 -25 157 -6 300 -12
319 -15 19 -2 83 -2 143 2 80 4 108 9 108 19 0 8 -10 16 -22 18 -13 3 -205 12
-428 21 -223 9 -583 25 -800 36 -217 11 -592 23 -832 27 -241 5 -441 11 -444
15 -4 4 -2 13 4 19 7 7 12 18 12 25 0 18 -49 16 -56 -2 -10 -24 -225 -21 -279
4 -59 27 -91 68 -109 137 -14 53 -14 67 -2 107 33 110 147 207 300 257 35 11
44 10 73 -5 35 -19 50 -53 38 -82 -6 -14 -10 -11 -17 17 -13 50 -30 65 -57 51
-26 -14 -27 -27 -2 -40 11 -6 21 -26 25 -51 9 -55 31 -62 68 -22 54 61 28 140
-55 171 -34 13 -41 13 -92 -3z"/>
<path d="M5526 9399 c-31 -37 -32 -57 -5 -174 12 -49 23 -99 25 -110 4 -15 -4
-24 -28 -35 -41 -19 -87 -83 -95 -133 -18 -113 137 -98 168 16 14 51 7 131
-22 272 -21 100 -22 107 -6 141 9 19 17 39 17 44 0 20 -29 9 -54 -21z m29
-359 c11 -18 -6 -91 -26 -111 -10 -10 -30 -19 -44 -19 -34 0 -33 35 1 86 36
53 56 65 69 44z"/>
<path d="M5675 9418 c-3 -8 -1 -28 6 -44 7 -18 11 -104 10 -234 0 -214 9 -272
42 -278 21 -4 56 66 83 165 l17 65 19 -74 c44 -169 120 -224 166 -120 13 31
16 75 15 260 -1 220 -6 254 -34 237 -9 -6 -11 -52 -6 -196 9 -252 -9 -345 -54
-291 -20 25 -57 140 -66 201 -8 67 -13 81 -28 81 -20 0 -38 -39 -65 -143 -42
-161 -50 -148 -49 88 1 150 -3 221 -13 249 -14 42 -34 57 -43 34z"/>
<path d="M10796 9408 c-2 -7 -14 -73 -27 -146 l-23 -134 -33 5 c-18 3 -35 1
-39 -4 -10 -17 17 -39 47 -39 25 0 29 -4 29 -27 0 -52 22 -107 55 -140 27 -27
41 -33 75 -33 34 0 41 3 38 17 -2 10 -12 19 -23 21 -58 9 -67 14 -85 55 -11
23 -20 59 -20 80 l0 37 60 0 c44 0 60 4 60 14 0 7 9 16 21 19 31 8 18 31 -19
35 -22 2 -34 -2 -38 -12 -8 -20 -84 -23 -84 -3 0 6 11 66 25 131 13 66 22 123
19 128 -8 12 -34 9 -38 -4z"/>
<path d="M2202 9388 c-5 -7 -38 -68 -72 -135 -44 -88 -66 -123 -79 -123 -25 0
-32 -10 -21 -29 6 -13 -2 -39 -31 -95 -43 -84 -48 -109 -23 -104 10 2 39 46
66 99 53 103 61 109 139 109 l29 0 0 -73 c0 -60 4 -77 19 -91 11 -10 24 -15
29 -12 5 3 7 42 4 87 -3 49 -1 84 5 88 13 8 0 165 -20 235 -14 52 -27 65 -45
44z m17 -180 l1 -56 -48 -4 -49 -3 41 85 c46 95 52 92 55 -22z"/>
<path d="M6917 9393 c-2 -5 -5 -72 -6 -151 -1 -78 -7 -157 -12 -175 -5 -17 -9
-49 -9 -69 0 -50 21 -50 58 1 l28 39 -4 -54 c-7 -87 39 -129 128 -116 56 8
115 82 66 82 -8 0 -19 -6 -25 -14 -15 -17 -69 -26 -98 -15 -29 11 -37 55 -23
126 6 32 12 64 13 72 4 29 -25 21 -59 -16 -25 -26 -35 -32 -31 -18 9 33 12
289 4 303 -9 13 -24 16 -30 5z"/>
<path d="M4805 9350 c-3 -5 2 -21 11 -35 14 -22 16 -42 11 -133 -4 -59 -13
-132 -22 -162 -19 -72 -19 -93 4 -121 16 -20 23 -22 47 -14 34 12 38 39 7 43
-27 4 -27 0 -8 126 27 178 16 306 -25 306 -11 0 -22 -4 -25 -10z"/>
<path d="M12234 9346 c-10 -25 -21 -371 -13 -393 5 -13 15 -23 23 -23 16 0 28
24 17 36 -4 5 -4 90 0 189 5 99 7 186 4 193 -6 16 -24 15 -31 -2z"/>
<path d="M11529 9313 c-2 -19 -9 -43 -33 -115 -14 -42 -26 -92 -26 -111 0 -33
-1 -34 -57 -43 -45 -7 -59 -13 -61 -28 -4 -17 1 -18 57 -12 54 6 61 5 61 -10
0 -34 42 -105 71 -119 35 -19 103 -19 118 -2 15 19 4 27 -41 27 -52 0 -77 15
-94 55 -22 54 -19 62 29 63 63 3 97 12 97 27 0 21 -10 23 -66 16 -65 -9 -74
-5 -74 28 0 26 38 148 58 187 5 11 7 25 5 32 -5 13 -42 17 -44 5z"/>
<path d="M12519 9187 c-99 -39 -110 -62 -58 -121 17 -20 28 -40 25 -45 -7 -10
-44 -3 -63 11 -16 13 -33 1 -33 -22 0 -22 20 -35 72 -44 70 -13 90 48 38 114
l-31 39 23 12 c13 7 48 20 78 30 58 18 74 42 30 46 -14 1 -50 -8 -81 -20z"/>
<path d="M9346 9171 c-3 -5 -14 -7 -24 -4 -21 5 -77 -32 -105 -69 -14 -18 -18
-34 -13 -52 9 -38 49 -34 102 10 l44 35 0 -121 0 -120 -27 7 c-16 5 -50 8 -76
8 -72 0 -90 -26 -85 -121 3 -57 9 -79 31 -112 28 -44 51 -51 88 -31 22 11 89
141 89 171 0 9 7 21 17 26 11 7 14 16 9 28 -4 11 -7 85 -6 166 1 140 -7 188
-30 188 -5 0 -11 -4 -14 -9z m-47 -67 c-13 -14 -33 -30 -44 -36 -11 -5 -3 7
17 26 43 41 63 49 27 10z m33 -292 c19 -19 -55 -177 -82 -177 -42 0 -70 162
-32 185 18 11 101 5 114 -8z"/>
<path d="M3088 9159 c-6 -4 -8 -14 -5 -24 6 -14 17 -15 77 -9 38 3 70 4 70 1
0 -4 -29 -39 -65 -79 -36 -39 -65 -79 -65 -88 0 -9 10 -26 23 -38 37 -35 168
-26 175 12 3 15 -2 17 -57 10 -43 -5 -65 -3 -76 6 -18 15 -10 31 50 95 78 84
81 110 12 119 -50 7 -124 4 -139 -5z"/>
<path d="M9518 9158 c-30 -23 -58 -83 -58 -121 0 -43 22 -92 45 -101 47 -18
162 10 152 36 -4 13 -12 13 -91 1 -31 -4 -42 -2 -53 13 -17 23 -17 44 0 44 8
0 33 14 55 30 48 35 55 69 20 94 -27 19 -49 20 -70 4z m49 -44 c1 -5 -11 -17
-27 -26 -34 -19 -38 -13 -14 20 15 22 35 25 41 6z"/>
<path d="M2445 9138 c-15 -12 -35 -34 -45 -50 l-18 -29 -6 26 c-5 18 -12 25
-24 23 -13 -3 -17 -14 -18 -48 -1 -25 -5 -73 -9 -107 -7 -59 -7 -63 12 -63 16
0 30 20 64 90 23 49 51 98 62 107 20 18 20 17 14 -15 -8 -38 6 -72 28 -72 8 0
27 18 41 40 15 22 27 40 28 40 0 0 1 -39 1 -86 0 -82 1 -87 28 -110 35 -30 80
-31 108 -3 26 26 11 51 -20 32 -14 -9 -24 -8 -42 1 -23 11 -24 16 -24 126 0
133 -7 142 -64 82 l-39 -41 -6 29 c-8 43 -37 55 -71 28z"/>
<path d="M10217 9128 c-44 -59 -59 -98 -52 -134 7 -40 38 -64 82 -64 39 0 103
29 103 46 0 21 -17 25 -46 9 -39 -20 -90 -19 -98 1 -8 20 -10 17 37 39 21 10
43 29 48 42 13 35 -13 92 -43 93 -4 0 -18 -15 -31 -32z m43 -36 c0 -11 -22
-32 -32 -32 -5 0 -4 9 2 20 11 20 30 28 30 12z"/>
<path d="M8046 9119 c-14 -17 -26 -36 -27 -42 0 -7 -4 -2 -10 11 -5 15 -15 22
-26 20 -14 -3 -17 -12 -15 -45 2 -22 -1 -58 -7 -79 -7 -27 -7 -41 0 -51 16
-19 26 -9 65 70 47 97 57 104 52 42 -4 -67 14 -69 77 -8 l49 48 8 -45 c13 -80
18 -89 48 -105 28 -14 31 -14 37 1 4 11 -2 23 -17 34 -19 14 -23 29 -28 89 -7
97 -28 103 -103 27 l-26 -26 -7 31 c-6 33 -22 59 -36 59 -5 0 -20 -14 -34 -31z"/>
<path d="M9785 9114 l-33 -36 -4 28 c-2 18 -9 29 -18 29 -11 0 -17 -16 -21
-60 -3 -33 -14 -75 -23 -93 -17 -33 -16 -62 3 -62 5 0 31 33 57 73 79 121 78
120 84 41 3 -43 9 -69 17 -69 6 0 26 22 45 49 36 55 58 69 58 38 0 -25 44 -79
71 -87 11 -4 32 -4 48 0 23 5 30 13 34 43 8 43 5 46 -28 38 -16 -4 -25 -13
-25 -26 0 -52 -57 5 -66 66 -10 68 -25 72 -73 18 -37 -42 -41 -45 -41 -23 0
27 -25 69 -42 69 -6 0 -25 -16 -43 -36z"/>
<path d="M2854 9126 c-29 -21 -59 -118 -44 -145 14 -26 46 -27 88 -1 42 26 52
25 52 -3 0 -27 17 -47 41 -47 27 0 34 21 14 36 -17 13 -20 38 -12 109 1 14 -4
20 -18 20 -11 0 -36 10 -56 23 -43 26 -39 26 -65 8z m57 -52 c14 -17 4 -29
-44 -55 -17 -10 -17 -8 -2 27 8 20 15 38 15 40 0 10 19 2 31 -12z"/>
<path d="M11990 9122 c0 -11 -9 -27 -21 -38 -36 -32 -55 -82 -50 -131 4 -42
80 -57 132 -26 61 36 62 108 2 174 -38 42 -63 50 -63 21z m54 -78 c37 -37 0
-98 -57 -92 -28 3 -32 6 -28 28 9 68 50 99 85 64z"/>
<path d="M8901 9104 c-25 -31 -34 -62 -29 -95 5 -36 40 -35 93 1 l45 31 6 -41
c8 -51 34 -86 58 -77 16 6 16 8 -1 34 -12 18 -18 45 -17 85 1 71 -13 75 -82
23 -41 -32 -64 -43 -64 -30 0 20 27 55 44 57 30 4 26 32 -5 36 -19 2 -33 -5
-48 -24z"/>
<path d="M10440 9091 c-34 -33 -41 -47 -43 -82 -2 -33 2 -44 15 -47 11 -2 18
6 22 25 4 16 15 42 26 58 l20 30 0 -28 c0 -63 47 -122 80 -102 15 9 12 35 -4
35 -22 0 -30 19 -36 85 -6 75 -23 81 -80 26z"/>
<path d="M7620 9111 c-14 -4 -25 -13 -25 -21 0 -12 15 -15 75 -13 73 2 99 15
69 34 -16 10 -83 10 -119 0z"/>
<path d="M8413 9105 c-51 -36 -83 -126 -52 -146 22 -14 33 -11 80 21 51 35 59
36 59 12 0 -10 7 -28 16 -40 13 -18 19 -21 30 -11 11 9 12 15 2 26 -7 8 -13
41 -13 74 -1 68 -8 79 -35 54 -20 -18 -21 -18 -36 3 -18 26 -23 27 -51 7z m21
-82 c-47 -38 -60 -26 -23 21 17 22 24 25 36 14 13 -11 11 -15 -13 -35z"/>
<path d="M6193 9098 c-22 -11 -53 -73 -53 -106 0 -19 18 -42 32 -42 4 0 26 16
48 36 l39 36 7 -41 c7 -45 17 -56 55 -66 50 -12 45 31 -5 48 -6 2 -11 31 -12
68 -1 62 -2 64 -27 64 -14 0 -29 3 -33 8 -10 9 -24 8 -51 -5z m37 -36 c0 -5
-9 -17 -20 -27 -22 -20 -26 -14 -10 16 11 19 30 26 30 11z"/>
<path d="M8628 9095 c-41 -23 -78 -157 -39 -143 6 2 23 28 38 58 20 38 35 55
49 55 16 0 20 -9 24 -63 5 -58 21 -89 41 -76 12 7 -2 138 -17 162 -17 26 -55
29 -96 7z"/>
<path d="M3670 9075 c-17 -18 -29 -23 -48 -18 -23 5 -24 4 -19 -22 3 -16 -2
-43 -11 -62 -12 -25 -13 -36 -4 -45 14 -14 38 4 48 35 4 12 21 40 38 61 30 39
31 39 37 15 4 -13 7 -45 8 -70 1 -57 26 -91 65 -91 15 0 29 2 33 5 11 11 -7
39 -21 34 -22 -9 -33 13 -40 81 -10 103 -38 128 -86 77z"/>
<path d="M3380 9054 c-33 -30 -40 -43 -40 -74 0 -48 24 -70 77 -70 77 0 140
70 114 126 -10 22 -67 54 -97 54 -8 0 -32 -16 -54 -36z m103 -28 c45 -14 -20
-84 -67 -72 -19 5 -26 13 -26 31 0 35 35 68 58 56 9 -5 25 -12 35 -15z"/>
<path d="M4948 9071 c-23 -27 -34 -51 -41 -88 -7 -36 7 -93 25 -105 21 -13 62
-9 86 8 29 20 62 85 62 122 0 35 -33 72 -65 72 -13 0 -29 2 -37 5 -7 3 -21 -3
-30 -14z m90 -64 c4 -34 -40 -97 -67 -97 -24 0 -33 36 -20 82 9 36 26 47 64
45 14 -2 21 -10 23 -30z"/>
<path d="M11770 9072 c-33 -16 -35 -21 -34 -65 0 -58 25 -88 74 -89 47 -2 90
47 90 101 0 21 -6 44 -14 50 -25 21 -79 22 -116 3z m88 -49 c5 -36 -15 -63
-47 -63 -29 0 -41 15 -41 51 0 12 7 19 19 19 11 0 23 5 26 11 11 17 40 5 43
-18z"/>
<path d="M5213 9027 c-17 -29 -50 -73 -72 -99 -23 -25 -41 -51 -41 -57 0 -23
40 -10 62 20 l23 31 5 -29 c4 -21 11 -29 31 -31 21 -2 35 7 67 43 37 42 41 44
44 23 4 -29 46 -52 66 -35 12 9 11 14 -7 25 -15 11 -21 25 -21 52 0 90 -23 91
-79 5 -23 -36 -47 -65 -52 -65 -13 0 -3 51 22 109 34 79 -1 85 -48 8z"/>
<path d="M6684 9073 c-24 -17 -46 -76 -40 -107 10 -53 32 -76 74 -76 42 0 102
32 102 55 0 19 -13 19 -51 -1 -16 -8 -38 -12 -49 -9 -21 7 -35 54 -25 86 6 18
12 20 45 15 40 -6 61 7 42 26 -13 13 -84 21 -98 11z"/>
<path d="M10393 8774 c-28 -7 -49 -32 -37 -44 6 -6 23 -6 44 0 58 17 92 12
170 -26 75 -37 191 -102 200 -114 3 -3 37 -27 77 -53 76 -51 183 -142 247
-210 48 -52 285 -408 359 -540 63 -112 168 -368 196 -479 35 -137 45 -292 33
-503 -7 -109 -20 -226 -31 -275 -21 -95 -81 -246 -142 -359 -72 -134 -266
-392 -279 -371 -13 21 -33 7 -119 -82 -66 -68 -80 -89 -68 -94 10 -4 33 6 59
27 38 29 37 26 -17 -30 -139 -146 -326 -292 -475 -372 l-75 -40 40 35 c22 20
43 36 48 36 11 0 8 40 -3 40 -16 0 -72 -30 -95 -50 -60 -53 -227 -146 -304
-170 -64 -20 -86 -32 -92 -49 -7 -18 -4 -23 19 -32 23 -9 37 -6 92 21 36 18
110 48 165 67 302 104 547 282 828 603 275 314 430 596 478 867 16 92 21 167
22 343 2 308 -14 390 -138 686 -61 146 -131 268 -292 514 -106 160 -153 222
-217 284 -88 85 -194 169 -266 208 -25 14 -67 38 -95 54 -159 94 -254 124
-332 108z"/>
<path d="M3887 8688 c-26 -18 -66 -46 -89 -63 -24 -16 -79 -63 -123 -105 -45
-41 -133 -115 -197 -163 -136 -103 -171 -146 -383 -467 -103 -158 -133 -225
-241 -545 -84 -248 -123 -505 -111 -730 8 -149 18 -195 94 -450 35 -121 76
-258 90 -305 39 -131 249 -523 373 -695 130 -180 405 -433 632 -581 137 -89
372 -193 603 -267 282 -91 854 -171 1410 -197 226 -10 429 0 689 35 102 14
263 34 358 45 222 26 252 32 498 90 199 47 505 108 780 155 348 60 659 130
684 155 7 7 6 15 -5 25 -13 13 -27 11 -124 -15 -124 -34 -338 -78 -560 -115
-82 -13 -181 -31 -220 -40 -88 -18 -108 -18 -72 1 27 15 35 38 17 49 -5 3 -49
-9 -97 -28 -292 -116 -494 -157 -998 -206 -190 -18 -288 -29 -355 -40 -36 -6
-91 -13 -124 -17 -44 -4 -59 -10 -63 -23 -4 -15 -21 -19 -112 -24 -162 -8
-529 11 -821 43 -279 31 -374 45 -575 85 -416 83 -754 223 -1006 417 -283 218
-454 397 -581 608 -89 149 -158 269 -158 276 0 4 -17 34 -38 68 -51 80 -97
195 -112 276 -7 36 -35 139 -62 230 -72 238 -76 254 -89 370 -14 129 -5 319
22 484 28 164 153 545 228 694 28 55 200 316 284 432 52 71 87 102 227 208 63
48 144 117 180 154 94 96 135 126 163 121 39 -8 78 72 41 84 -6 2 -32 -11 -57
-29z"/>
<path d="M7963 8398 c-5 -7 -11 -62 -12 -123 -2 -140 -15 -218 -51 -327 -65
-193 -132 -274 -184 -222 -23 22 -20 42 11 87 31 44 71 68 100 61 29 -8 41 16
17 33 -40 30 -105 -7 -165 -94 -37 -54 -37 -87 1 -123 81 -75 163 -19 239 165
18 42 41 111 52 153 24 94 43 370 27 389 -13 16 -23 16 -35 1z"/>
<path d="M8499 8377 c-34 -29 -92 -124 -84 -137 11 -19 24 -10 56 38 17 26 43
58 56 70 41 40 16 67 -28 29z"/>
<path d="M10327 8363 c-4 -3 -7 -16 -7 -27 0 -12 -14 -77 -31 -146 -17 -69
-35 -150 -41 -180 -6 -30 -15 -60 -20 -67 -5 -7 -8 -16 -5 -20 3 -4 1 -32 -4
-61 -9 -60 2 -105 25 -96 9 4 18 34 26 89 10 70 16 87 40 110 l28 27 20 -38
c10 -22 34 -83 52 -136 32 -94 52 -119 66 -83 9 22 -32 148 -72 220 l-35 64
25 34 c15 19 51 57 82 85 51 47 65 77 36 77 -7 0 -52 -39 -101 -87 -48 -49
-93 -88 -99 -88 -13 0 -11 20 23 171 16 69 25 134 22 143 -7 17 -19 21 -30 9z"/>
<path d="M8695 8346 c-16 -11 -17 -16 -7 -29 11 -13 8 -31 -18 -104 -17 -48
-37 -101 -45 -118 -7 -16 -17 -42 -20 -57 -7 -25 -11 -28 -52 -28 -37 0 -44
-3 -41 -17 2 -12 14 -19 36 -21 38 -4 37 -3 13 -73 -34 -99 -36 -133 -8 -164
21 -25 31 -29 105 -33 96 -5 135 2 130 25 -2 14 -16 16 -78 14 -42 -1 -88 3
-104 8 -31 13 -31 19 6 142 l19 67 88 7 c97 8 134 21 139 49 3 16 0 18 -19 12
-41 -12 -179 -29 -186 -22 -3 3 18 78 46 166 29 88 50 167 47 175 -7 19 -27
19 -51 1z"/>
<path d="M7657 8274 c-4 -4 -7 -22 -7 -40 0 -49 -28 -175 -72 -326 -42 -145
-44 -173 -14 -173 22 0 47 81 92 290 36 169 36 284 1 249z"/>
<path d="M4012 8135 c-59 -18 -148 -88 -183 -143 -35 -55 -38 -116 -9 -180 33
-73 61 -103 119 -131 52 -24 66 -26 186 -26 142 0 185 7 185 30 0 18 8 17
-165 19 -120 1 -146 4 -186 22 -88 41 -134 166 -89 239 27 44 111 108 164 125
42 14 152 6 174 -12 23 -20 38 7 19 35 -24 37 -132 48 -215 22z"/>
<path d="M4495 8030 c-4 -6 -1 -18 7 -27 9 -12 13 -56 13 -167 1 -151 11 -202
38 -193 18 6 12 317 -7 362 -15 34 -38 46 -51 25z"/>
<path d="M9585 7989 c-51 -48 -54 -49 -47 -23 17 63 -18 85 -70 44 -18 -14
-28 -16 -36 -8 -16 16 -42 -8 -42 -38 0 -13 -16 -65 -36 -115 -29 -70 -34 -93
-25 -102 18 -17 43 17 76 101 25 64 79 142 90 130 3 -3 -6 -36 -20 -73 -14
-37 -25 -71 -25 -76 0 -27 40 1 114 78 l84 88 -2 -120 c-1 -101 1 -120 14
-120 12 0 16 24 22 124 11 179 -5 197 -97 110z"/>
<path d="M10680 8003 c-29 -30 -39 -49 -44 -88 -5 -27 -13 -56 -19 -64 -8 -10
-8 -16 3 -25 8 -6 25 -29 36 -51 28 -52 74 -70 119 -47 97 49 182 139 157 164
-13 13 -48 -12 -57 -41 -7 -23 -113 -91 -142 -91 -16 0 -30 10 -43 32 l-19 32
47 28 c76 44 105 125 60 168 -32 29 -55 25 -98 -17z m71 -65 c-9 -23 -70 -72
-79 -63 -8 8 19 70 40 92 18 20 24 21 35 10 10 -10 11 -20 4 -39z"/>
<path d="M9903 7993 c-45 -25 -100 -78 -118 -114 -21 -40 -16 -83 10 -87 23
-3 164 91 166 111 1 6 5 -21 9 -61 7 -79 29 -117 52 -94 10 10 10 17 0 32 -14
24 -16 166 -2 175 19 12 10 25 -26 40 -46 19 -52 19 -91 -2z m57 -31 c0 -11
-67 -73 -109 -102 -36 -25 -35 -18 7 38 32 45 102 88 102 64z"/>
<path d="M4747 7964 c-16 -16 -6 -35 16 -32 12 2 22 10 22 18 0 16 -26 25 -38
14z"/>
<path d="M6494 7936 c-107 -59 -154 -166 -104 -236 25 -35 95 -70 141 -70 40
1 84 33 75 55 -6 17 -22 20 -31 5 -10 -16 -78 -12 -105 6 -36 24 -50 44 -50
72 0 65 98 147 175 147 55 0 54 25 -1 41 -39 11 -45 10 -100 -20z"/>
<path d="M8053 7933 c-3 -10 -18 -49 -33 -88 -39 -100 -42 -121 -25 -135 20
-17 40 2 111 102 30 42 63 82 74 88 18 10 20 8 20 -29 0 -22 -7 -61 -16 -86
-17 -52 -11 -85 15 -85 19 0 23 16 38 163 12 122 -68 116 -152 -11 -15 -23
-29 -42 -31 -42 -9 0 30 76 44 86 15 11 15 14 -2 33 -23 26 -35 27 -43 4z"/>
<path d="M6823 7921 c-2 -9 -20 -27 -39 -40 -39 -27 -74 -86 -74 -125 0 -40
50 -89 89 -88 46 1 97 37 127 88 22 37 26 54 22 95 -6 62 -24 81 -78 84 -32 2
-44 -1 -47 -14z m77 -82 c0 -83 -98 -153 -134 -96 -9 13 -6 27 12 61 25 47 50
64 95 65 24 1 27 -3 27 -30z"/>
<path d="M7157 7893 c-13 -21 -31 -52 -40 -69 -19 -38 -70 -82 -114 -100 -37
-16 -49 -32 -35 -46 7 -7 26 -2 60 14 49 24 51 24 66 6 34 -39 94 -10 171 85
26 31 48 57 49 57 1 0 2 -33 2 -72 -1 -59 2 -73 14 -73 11 0 17 16 21 60 3 33
10 81 14 107 6 41 5 49 -10 55 -14 5 -37 -14 -94 -75 -42 -44 -88 -88 -104
-98 -27 -17 -27 -17 -18 7 5 13 24 52 41 87 30 59 34 92 10 92 -5 0 -20 -17
-33 -37z"/>
<path d="M5600 7824 c-6 -14 -10 -28 -10 -31 0 -16 -75 -123 -78 -112 -3 8
-17 28 -32 44 -15 17 -40 49 -54 73 -26 41 -52 52 -50 20 1 -12 -5 -11 -35 4
-57 29 -98 24 -137 -18 -19 -19 -34 -41 -35 -47 -1 -7 -4 -1 -8 13 -4 14 -13
25 -21 25 -16 0 -16 5 -5 -165 4 -58 2 -133 -3 -168 -7 -50 -6 -67 5 -77 26
-27 41 -6 48 63 16 181 12 168 48 165 38 -5 93 22 119 58 11 14 23 47 27 75 5
27 9 44 10 38 0 -6 18 -33 39 -60 73 -94 73 -82 -11 -250 -77 -156 -91 -192
-81 -218 10 -26 44 -20 44 8 0 25 105 245 171 358 47 79 97 199 91 216 -7 21
-32 13 -42 -14z m-279 -34 c61 -33 -32 -147 -103 -124 -16 5 -19 12 -14 35 7
39 35 79 60 89 28 12 34 12 57 0z"/>
<path d="M4913 7796 c-25 -21 -32 -23 -37 -11 -3 8 -12 15 -21 15 -11 0 -15
-12 -16 -47 -1 -27 0 -52 1 -58 1 -5 2 -37 1 -70 -1 -33 1 -92 5 -132 5 -61 9
-72 27 -77 27 -7 38 10 26 41 -5 14 -9 49 -9 79 l0 54 46 0 c56 0 97 26 125
82 39 76 8 133 -77 145 -33 4 -45 1 -71 -21z m114 -37 c22 -19 15 -49 -21 -85
-82 -82 -158 -3 -79 82 20 21 30 25 55 20 17 -3 37 -11 45 -17z"/>
<path d="M4707 7784 c-20 -20 2 -114 27 -114 17 0 28 24 16 36 -5 5 -10 24
-12 43 -3 33 -17 49 -31 35z"/>
<path d="M5867 7664 c-4 -4 -7 -18 -7 -31 0 -35 -34 -96 -75 -134 -39 -37 -46
-69 -15 -69 20 0 83 76 114 138 25 49 12 124 -17 96z"/>
<path d="M9287 7479 c-43 -10 -101 -29 -130 -43 -62 -28 -145 -47 -174 -40
-29 8 -41 -16 -17 -33 24 -18 68 -12 193 27 52 17 95 29 95 27 1 -1 14 -29 31
-62 27 -55 29 -69 28 -160 -1 -115 -25 -220 -72 -311 -45 -90 -55 -101 -76
-84 -21 17 -67 108 -89 178 -14 40 -23 53 -42 58 -34 9 -39 0 -21 -38 8 -18
18 -44 22 -58 16 -54 76 -159 102 -179 45 -36 72 -25 119 47 51 76 88 186 105
309 15 108 5 171 -41 257 l-29 54 50 11 c67 15 86 14 93 -4 3 -8 12 -15 20
-15 18 0 55 51 49 68 -7 18 -124 14 -216 -9z"/>
<path d="M10225 7283 c0 -97 -4 -131 -24 -190 -13 -40 -30 -78 -37 -84 -8 -6
-14 -20 -14 -32 0 -11 -13 -43 -29 -71 -16 -28 -35 -70 -42 -94 -11 -37 -10
-45 4 -59 23 -23 48 -1 41 35 -6 37 82 212 116 229 14 7 51 13 84 13 75 0 120
-26 136 -78 22 -70 32 -92 46 -92 22 0 23 14 2 75 -32 96 -80 135 -167 135
l-51 0 78 66 c115 99 182 166 198 197 13 25 13 28 -3 34 -11 4 -20 0 -27 -12
-26 -45 -305 -293 -292 -260 16 43 27 123 25 191 -1 39 1 76 5 83 11 16 -2 31
-27 31 -21 0 -22 -3 -22 -117z"/>
<path d="M3836 7291 c-4 -5 -1 -22 4 -36 7 -19 7 -45 0 -83 -5 -31 -10 -78
-10 -106 0 -84 -6 -92 -68 -113 -36 -11 -57 -24 -57 -33 0 -17 23 -17 73 -1
30 9 33 8 27 -7 -3 -9 -9 -47 -12 -84 -6 -65 -5 -68 16 -68 11 0 21 2 21 4 0
2 5 28 10 57 6 30 11 68 12 86 1 29 4 32 47 40 61 11 65 38 5 37 l-40 0 3 55
c2 31 8 86 14 122 8 54 8 73 -5 103 -15 35 -29 45 -40 27z"/>
<path d="M10807 7293 c-12 -11 -8 -22 14 -34 25 -13 43 0 33 24 -6 17 -35 23
-47 10z"/>
<path d="M3524 7246 c-8 -21 3 -36 27 -36 15 0 20 6 17 22 -4 27 -35 37 -44
14z"/>
<path d="M6522 7171 c-9 -25 22 -29 202 -29 212 0 469 -16 509 -31 42 -16 69
-14 65 6 -2 10 -28 25 -71 40 -66 23 -81 24 -384 26 -257 2 -317 0 -321 -12z"/>
<path d="M11255 7165 c-40 -14 -65 -38 -65 -62 0 -8 24 -39 54 -71 83 -87 98
-109 91 -133 -14 -45 -81 -44 -105 1 -14 26 -36 26 -50 0 -9 -17 -6 -24 15
-44 40 -38 80 -51 113 -37 32 13 72 68 72 99 0 12 -31 58 -69 104 -78 93 -78
108 -3 112 49 2 59 10 42 31 -15 18 -43 19 -95 0z"/>
<path d="M10968 7118 c-88 -111 -130 -190 -110 -210 16 -16 39 -3 46 29 8 32
77 142 106 168 19 17 20 17 36 -21 19 -45 22 -130 5 -147 -17 -17 -13 -37 7
-37 27 0 44 38 44 99 0 64 -14 106 -44 139 -31 32 -51 27 -90 -20z"/>
<path d="M9867 7121 c-30 -27 -34 -28 -44 -13 -17 27 -31 4 -42 -68 -5 -36
-16 -87 -25 -113 -12 -41 -12 -49 -1 -54 21 -7 33 4 40 40 17 75 98 197 132
197 21 0 16 -85 -8 -136 -25 -56 -22 -88 9 -92 12 -2 22 0 23 5 3 40 11 83 19
107 14 40 13 129 -2 144 -21 21 -66 13 -101 -17z"/>
<path d="M6880 7113 c0 -5 -9 -82 -20 -173 -15 -125 -16 -166 -7 -172 26 -16
-11 -23 -134 -23 -124 0 -130 -1 -127 -20 3 -19 10 -20 128 -20 113 1 391 20
448 31 12 2 22 12 22 21 0 14 -12 15 -112 9 -62 -3 -129 -9 -149 -12 -35 -6
-37 -5 -34 22 7 69 16 185 20 262 5 77 4 82 -15 82 -11 0 -20 -3 -20 -7z"/>
<path d="M9512 7094 c-42 -29 -66 -92 -67 -172 0 -67 2 -76 25 -94 20 -16 34
-19 69 -14 53 7 110 34 125 58 17 29 -2 33 -48 10 -58 -30 -102 -37 -121 -22
-18 15 -20 60 -2 60 7 0 39 24 70 53 46 43 57 59 57 85 0 49 -60 70 -108 36z
m68 -36 c0 -14 -70 -88 -83 -88 -15 0 3 53 25 78 23 24 58 30 58 10z"/>
<path d="M10736 7078 c-39 -134 -44 -181 -20 -176 31 6 64 176 37 185 -7 3
-15 -1 -17 -9z"/>
<path d="M3504 7052 c-6 -4 -23 -30 -37 -57 -55 -110 -57 -184 -5 -211 38 -20
73 -15 73 10 0 14 -8 20 -28 20 -53 3 -56 44 -11 145 13 30 32 59 41 66 28 21
-4 47 -33 27z"/>
<path d="M7825 6992 c-67 -43 -95 -93 -95 -170 0 -56 22 -92 54 -92 24 0 74
33 89 58 7 11 13 10 29 -7 26 -29 41 -17 36 28 -3 20 -1 52 3 72 7 29 4 45
-14 80 -27 51 -56 60 -102 31z m63 -75 c3 -32 -3 -43 -44 -87 -26 -27 -51 -50
-55 -50 -15 0 -10 79 6 110 17 33 63 72 79 67 6 -2 12 -20 14 -40z"/>
<path d="M8132 6980 c-19 -16 -27 -17 -42 -7 -29 18 -45 -3 -32 -41 8 -24 5
-41 -19 -98 -34 -81 -35 -84 -11 -84 20 0 64 72 76 122 7 33 53 88 72 88 11 0
14 -16 14 -64 0 -85 17 -96 50 -32 8 16 30 46 48 65 32 34 35 35 47 17 8 -10
17 -49 21 -86 7 -77 15 -95 37 -87 17 6 16 28 -4 132 -20 100 -60 121 -119 60
l-34 -35 -10 32 c-9 27 -17 33 -41 35 -18 2 -39 -5 -53 -17z"/>
<path d="M4460 6764 c-6 -14 -11 -40 -13 -57 -2 -31 -1 -32 35 -31 56 2 66 9
64 43 -1 30 -37 71 -63 71 -7 0 -18 -12 -23 -26z"/>
<path d="M4089 6747 c-42 -28 -46 -61 -8 -65 38 -4 88 40 73 64 -16 27 -27 27
-65 1z"/>
<path d="M5370 6742 c-46 -37 8 -73 56 -38 15 12 17 18 8 33 -16 25 -37 27
-64 5z"/>
<path d="M5894 6752 c-6 -4 -15 -26 -19 -49 -5 -34 -3 -44 8 -49 23 -9 56 13
63 43 11 42 -22 76 -52 55z"/>
<path d="M4924 6724 c-22 -32 -9 -45 36 -35 43 8 50 33 15 49 -34 16 -32 16
-51 -14z"/>
<path d="M4410 6358 c-1 -117 -34 -379 -66 -522 -15 -71 -10 -94 19 -83 8 3
33 46 57 96 52 110 59 117 88 91 27 -25 36 -60 28 -103 -20 -106 -20 -109 -1
-106 25 5 47 88 42 153 -4 42 -10 55 -41 83 -39 36 -70 42 -97 17 -17 -16 -18
-14 -14 32 18 200 27 343 24 364 -2 14 -12 26 -21 28 -15 3 -18 -5 -18 -50z"/>
<path d="M12980 6375 l0 -35 -185 0 -185 0 0 -40 0 -40 -75 0 -75 0 0 -35 0
-35 -75 0 -75 0 0 -40 0 -40 -75 0 -75 0 0 -35 c0 -34 -1 -35 -40 -35 l-40 0
0 -40 0 -40 -75 0 -75 0 0 -35 c0 -33 -2 -35 -35 -35 -34 0 -35 -1 -35 -40 l0
-40 -40 0 -40 0 0 -75 0 -75 -35 0 c-33 0 -35 -2 -35 -35 0 -34 -1 -35 -40
-35 l-40 0 0 -40 c0 -39 -1 -40 -35 -40 l-35 0 0 -75 0 -75 -40 0 -40 0 0 -75
0 -75 -35 0 -35 0 0 -75 0 -75 -40 0 -40 0 0 -150 0 -150 -35 0 -35 0 0 -825
0 -825 35 0 35 0 0 -150 0 -150 40 0 40 0 0 -110 0 -110 35 0 35 0 0 -115 0
-115 40 0 40 0 0 -75 0 -75 35 0 35 0 0 -75 0 -75 40 0 40 0 0 -75 0 -75 -75
0 -75 0 0 -35 c0 -34 -1 -35 -40 -35 l-40 0 0 -40 0 -40 -75 0 -75 0 0 -35 c0
-33 -2 -35 -35 -35 -34 0 -35 -1 -35 -40 l0 -40 -75 0 -75 0 0 -75 0 -75 -40
0 -40 0 0 -225 0 -225 40 0 40 0 0 -260 0 -260 35 0 35 0 0 -75 0 -75 2700 0
2700 0 0 75 0 75 40 0 40 0 0 75 0 75 35 0 35 0 0 110 0 110 40 0 40 0 0 115
0 115 -40 0 c-39 0 -40 1 -40 35 0 33 -2 35 -35 35 -34 0 -35 1 -35 40 l0 40
-75 0 -75 0 0 35 c0 34 -1 35 -40 35 l-40 0 0 40 0 40 -75 0 -75 0 0 35 0 35
-75 0 -75 0 0 40 c0 39 -1 40 -35 40 -33 0 -35 2 -35 35 l0 35 -75 0 -75 0 0
40 0 40 -75 0 -75 0 0 35 c0 34 -1 35 -40 35 l-40 0 0 40 0 40 -75 0 -75 0 0
35 c0 33 -2 35 -35 35 l-35 0 0 115 0 115 35 0 35 0 0 110 0 110 40 0 40 0 0
115 0 115 110 0 110 0 0 35 0 35 75 0 75 0 0 40 0 40 40 0 c39 0 40 1 40 35 0
33 2 35 35 35 34 0 35 1 35 40 l0 40 40 0 c39 0 40 1 40 35 0 33 2 35 35 35
l35 0 0 75 0 75 40 0 40 0 0 300 0 300 -40 0 -40 0 0 75 0 75 -35 0 -35 0 0
75 0 75 -40 0 -40 0 0 40 c0 39 -1 40 -35 40 l-35 0 0 75 0 75 35 0 35 0 0
260 0 260 -35 0 -35 0 0 150 0 150 -40 0 -40 0 0 40 c0 39 -1 40 -35 40 -33 0
-35 2 -35 35 0 34 -1 35 -40 35 l-40 0 0 40 c0 39 -1 40 -35 40 l-35 0 0 110
0 110 -40 0 -40 0 0 40 c0 39 -1 40 -35 40 l-35 0 0 75 0 75 -40 0 c-39 0 -40
1 -40 35 0 33 -2 35 -35 35 -34 0 -35 1 -35 40 l0 40 -40 0 c-39 0 -40 1 -40
35 l0 35 -75 0 -75 0 0 40 0 40 -75 0 -75 0 0 35 0 35 -75 0 -75 0 0 40 0 40
-75 0 -75 0 0 35 0 35 -150 0 -150 0 0 40 0 40 -225 0 -225 0 0 35 0 35 -525
0 -525 0 0 -35z m600 -300 l0 -35 150 0 150 0 0 -40 0 -40 115 0 115 0 0 -35
0 -35 75 0 75 0 0 -40 c0 -39 1 -40 35 -40 33 0 35 -2 35 -35 0 -34 1 -35 40
-35 l40 0 0 -40 c0 -39 1 -40 35 -40 33 0 35 -2 35 -35 0 -34 1 -35 40 -35
l40 0 0 -40 c0 -39 1 -40 35 -40 33 0 35 -2 35 -35 0 -34 1 -35 40 -35 l40 0
0 -75 0 -75 35 0 c34 0 35 -1 35 -40 0 -39 -1 -40 -35 -40 l-35 0 0 -225 0
-225 35 0 35 0 0 -110 0 -110 40 0 40 0 0 -75 0 -75 35 0 35 0 0 -190 0 -190
-35 0 -35 0 0 -185 0 -185 35 0 c34 0 35 -1 35 -40 l0 -40 75 0 75 0 0 -35 0
-35 75 0 75 0 0 -40 0 -40 75 0 75 0 0 40 0 40 40 0 40 0 0 185 0 185 35 0
c34 0 35 1 35 40 l0 40 150 0 150 0 0 -40 0 -40 40 0 c39 0 40 -1 40 -35 0
-33 2 -35 35 -35 l35 0 0 -75 0 -75 40 0 40 0 0 -225 0 -225 -40 0 -40 0 0
-40 c0 -39 -1 -40 -35 -40 -33 0 -35 -2 -35 -35 0 -34 -1 -35 -40 -35 l-40 0
0 -40 0 -40 -75 0 -75 0 0 -35 0 -35 -110 0 -110 0 0 75 0 75 -115 0 -115 0 0
-40 c0 -39 -1 -40 -35 -40 l-35 0 0 -75 0 -75 35 0 35 0 0 -75 0 -75 40 0 40
0 0 -110 0 -110 -40 0 -40 0 0 -115 0 -115 -35 0 -35 0 0 -75 0 -75 -40 0 -40
0 0 -75 0 -75 -35 0 c-33 0 -35 -2 -35 -35 0 -34 -1 -35 -40 -35 l-40 0 0 -40
c0 -39 -1 -40 -35 -40 -33 0 -35 -2 -35 -35 l0 -35 -75 0 -75 0 0 -40 0 -40
-115 0 -115 0 0 -35 0 -35 -110 0 -110 0 0 35 c0 34 -1 35 -40 35 l-40 0 0 75
0 75 40 0 40 0 0 40 0 40 75 0 75 0 0 35 c0 33 2 35 35 35 34 0 35 1 35 40 l0
40 40 0 40 0 0 75 0 75 35 0 35 0 0 75 0 75 40 0 40 0 0 150 0 150 -150 0
-150 0 0 -115 0 -115 -40 0 -40 0 0 -75 0 -75 -35 0 c-33 0 -35 -2 -35 -35 0
-34 -1 -35 -40 -35 l-40 0 0 -40 0 -40 -75 0 -75 0 0 -35 c0 -33 -2 -35 -35
-35 -34 0 -35 -1 -35 -40 l0 -40 -115 0 -115 0 0 -35 0 -35 -75 0 -75 0 0 -40
0 -40 -150 0 -150 0 0 -35 0 -35 -335 0 -335 0 0 35 0 35 -115 0 -115 0 0 40
c0 39 -1 40 -35 40 -33 0 -35 2 -35 35 l0 35 -75 0 -75 0 0 40 0 40 -40 0
c-39 0 -40 1 -40 35 0 33 -2 35 -35 35 l-35 0 0 75 0 75 -40 0 -40 0 0 40 c0
39 -1 40 -35 40 l-35 0 0 75 0 75 -40 0 -40 0 0 110 0 110 -35 0 -35 0 0 115
0 115 -40 0 -40 0 0 150 0 150 -35 0 -35 0 0 375 0 375 260 0 260 0 0 35 c0
34 1 35 40 35 l40 0 0 115 0 115 -40 0 c-39 0 -40 1 -40 35 l0 35 -75 0 -75 0
0 -35 c0 -33 -2 -35 -35 -35 l-35 0 0 110 0 110 35 0 35 0 0 115 0 115 -75 0
-75 0 0 35 c0 33 -2 35 -35 35 -33 0 -35 -2 -35 -35 0 -34 -1 -35 -40 -35
l-40 0 0 -75 0 -75 -35 0 -35 0 0 75 0 75 35 0 c33 0 35 2 35 35 0 34 1 35 40
35 l40 0 0 40 c0 39 1 40 35 40 33 0 35 2 35 35 l0 35 225 0 225 0 0 75 0 75
40 0 40 0 0 75 0 75 -265 0 -265 0 0 40 0 40 40 0 c39 0 40 1 40 35 0 33 2 35
35 35 l35 0 0 75 0 75 40 0 40 0 0 40 c0 39 1 40 35 40 33 0 35 2 35 35 0 34
1 35 40 35 l40 0 0 40 0 40 75 0 75 0 0 35 c0 33 2 35 35 35 34 0 35 1 35 40
l0 40 75 0 75 0 0 35 0 35 75 0 75 0 0 40 0 40 190 0 190 0 0 35 0 35 260 0
260 0 0 -35z m1280 -225 l0 -40 75 0 75 0 0 -35 0 -35 75 0 75 0 0 -40 c0 -39
1 -40 35 -40 33 0 35 -2 35 -35 0 -34 1 -35 40 -35 l40 0 0 -40 c0 -39 1 -40
35 -40 33 0 35 -2 35 -35 l0 -35 -185 0 -185 0 0 35 c0 34 -1 35 -40 35 l-40
0 0 40 c0 39 -1 40 -35 40 l-35 0 0 75 0 75 -40 0 c-39 0 -40 1 -40 35 0 33
-2 35 -35 35 -34 0 -35 1 -35 40 l0 40 75 0 75 0 0 -40z m520 -750 l0 -40 115
0 115 0 0 -35 c0 -33 2 -35 35 -35 34 0 35 -1 35 -40 l0 -40 40 0 40 0 0 -75
0 -75 35 0 35 0 0 -225 0 -225 -35 0 c-33 0 -35 -2 -35 -35 l0 -35 -190 0
-190 0 0 -40 c0 -39 -1 -40 -35 -40 -33 0 -35 -2 -35 -35 0 -34 -1 -35 -40
-35 l-40 0 0 185 0 185 -35 0 -35 0 0 75 0 75 -40 0 -40 0 0 115 0 115 -35 0
-35 0 0 150 0 150 185 0 185 0 0 -40z m-70 -3450 l0 -40 75 0 75 0 0 -35 c0
-33 2 -35 35 -35 34 0 35 -1 35 -40 l0 -40 75 0 75 0 0 -35 0 -35 75 0 75 0 0
-40 0 -40 40 0 c39 0 40 -1 40 -35 l0 -35 75 0 75 0 0 -40 0 -40 75 0 75 0 0
-35 c0 -33 2 -35 35 -35 34 0 35 -1 35 -40 l0 -40 75 0 75 0 0 -110 0 -110
-35 0 -35 0 0 -75 0 -75 -1015 0 -1015 0 0 75 0 75 75 0 75 0 0 35 c0 34 1 35
40 35 l40 0 0 40 0 40 75 0 75 0 0 35 c0 33 2 35 35 35 34 0 35 1 35 40 l0 40
40 0 c39 0 40 1 40 35 0 33 2 35 35 35 34 0 35 1 35 40 l0 40 40 0 c39 0 40 1
40 35 0 33 2 35 35 35 l35 0 0 75 0 75 40 0 40 0 0 40 c0 39 1 40 35 40 l35 0
0 75 0 75 40 0 40 0 0 -40z m-3600 -485 l0 -375 35 0 35 0 0 -75 0 -75 -185 0
-185 0 0 260 0 260 -40 0 -40 0 0 75 0 75 40 0 40 0 0 40 c0 39 1 40 35 40 33
0 35 2 35 35 0 34 1 35 40 35 l40 0 0 40 0 40 75 0 75 0 0 -375z m520 335 l0
-40 75 0 75 0 0 -35 c0 -34 1 -35 40 -35 l40 0 0 -40 0 -40 75 0 75 0 0 -35
c0 -33 2 -35 35 -35 34 0 35 -1 35 -40 l0 -40 75 0 75 0 0 -35 0 -35 150 0
150 0 0 35 0 35 75 0 75 0 0 40 0 40 75 0 75 0 0 35 0 35 75 0 75 0 0 40 0 40
115 0 115 0 0 35 0 35 75 0 75 0 0 -35 c0 -33 2 -35 35 -35 l35 0 0 -375 0
-375 -185 0 -185 0 0 35 0 35 -115 0 -115 0 0 40 0 40 -110 0 -110 0 0 35 0
35 -565 0 -565 0 0 40 c0 39 -1 40 -35 40 l-35 0 0 260 0 260 75 0 75 0 0 40
c0 39 1 40 35 40 34 0 35 -1 35 -40z m2250 -300 l0 -40 -75 0 -75 0 0 40 0 40
75 0 75 0 0 -40z"/>
<path d="M13660 5250 l0 -40 -75 0 -75 0 0 -110 0 -110 35 0 c34 0 35 -1 35
-40 l0 -40 75 0 75 0 0 40 0 40 40 0 40 0 0 -40 0 -40 110 0 110 0 0 -35 c0
-34 1 -35 40 -35 l40 0 0 -40 c0 -39 1 -40 35 -40 l35 0 0 -75 0 -75 115 0
115 0 0 40 c0 39 1 40 35 40 l35 0 0 75 0 75 -35 0 -35 0 0 75 0 75 -40 0
c-39 0 -40 1 -40 35 0 33 -2 35 -35 35 -34 0 -35 1 -35 40 l0 40 -75 0 -75 0
0 35 0 35 -115 0 -115 0 0 40 0 40 -110 0 -110 0 0 -40z"/>
<path d="M13280 4650 c0 -39 -1 -40 -35 -40 l-35 0 0 -110 0 -110 -40 0 -40 0
0 -75 0 -75 -35 0 -35 0 0 -190 0 -190 35 0 c33 0 35 -2 35 -35 l0 -35 225 0
225 0 0 35 0 35 75 0 75 0 0 75 0 75 -35 0 -35 0 0 75 0 75 -75 0 -75 0 0 -35
c0 -34 -1 -35 -40 -35 l-40 0 0 110 0 110 40 0 40 0 0 115 0 115 35 0 c33 0
35 2 35 35 0 33 -2 35 -35 35 -34 0 -35 1 -35 40 l0 40 -115 0 -115 0 0 -40z"/>
<path d="M12460 4425 l0 -115 -40 0 -40 0 0 -75 0 -75 -35 0 -35 0 0 -75 0
-75 -40 0 c-39 0 -40 -1 -40 -35 0 -33 -2 -35 -35 -35 -34 0 -35 -1 -35 -40
l0 -40 -40 0 c-39 0 -40 -1 -40 -35 0 -33 -2 -35 -35 -35 -34 0 -35 -1 -35
-40 l0 -40 -40 0 c-39 0 -40 -1 -40 -35 0 -33 -2 -35 -35 -35 l-35 0 0 -75 0
-75 -40 0 -40 0 0 -150 0 -150 40 0 40 0 0 -40 c0 -39 1 -40 35 -40 33 0 35
-2 35 -35 l0 -35 75 0 75 0 0 -40 0 -40 75 0 75 0 0 -35 0 -35 115 0 115 0 0
-40 0 -40 225 0 225 0 0 40 c0 39 1 40 35 40 33 0 35 2 35 35 0 34 1 35 40 35
l40 0 0 150 0 150 -115 0 -115 0 0 -35 c0 -33 -2 -35 -35 -35 -34 0 -35 -1
-35 -40 l0 -40 -75 0 -75 0 0 40 0 40 -150 0 -150 0 0 35 0 35 -75 0 -75 0 0
40 0 40 -40 0 c-39 0 -40 1 -40 35 0 34 1 35 40 35 l40 0 0 40 c0 39 1 40 35
40 33 0 35 2 35 35 0 34 1 35 40 35 l40 0 0 40 c0 39 1 40 35 40 33 0 35 2 35
35 0 34 1 35 40 35 l40 0 0 40 c0 39 1 40 35 40 l35 0 0 75 0 75 40 0 40 0 0
75 0 75 35 0 35 0 0 75 0 75 40 0 40 0 0 150 0 150 -150 0 -150 0 0 -115z"/>
<path d="M15680 3675 c0 -33 -2 -35 -35 -35 -34 0 -35 -1 -35 -40 l0 -40 -40
0 c-39 0 -40 -1 -40 -35 0 -34 1 -35 40 -35 l40 0 0 -115 0 -115 35 0 c33 0
35 -2 35 -35 l0 -35 115 0 115 0 0 185 0 185 -40 0 -40 0 0 75 0 75 -75 0 -75
0 0 -35z"/>
<path d="M11930 2925 c0 -33 -2 -35 -35 -35 -34 0 -35 -1 -35 -40 l0 -40 -40
0 -40 0 0 -75 0 -75 40 0 c39 0 40 -1 40 -35 0 -33 2 -35 35 -35 34 0 35 -1
35 -40 l0 -40 115 0 115 0 0 -35 0 -35 110 0 110 0 0 150 0 150 -75 0 -75 0 0
35 0 35 -75 0 -75 0 0 40 c0 39 -1 40 -35 40 -33 0 -35 2 -35 35 0 34 -1 35
-40 35 -39 0 -40 -1 -40 -35z"/>
<path d="M13280 2925 l0 -35 -75 0 -75 0 0 -40 0 -40 -75 0 -75 0 0 -35 0 -35
-225 0 -225 0 0 -40 c0 -39 -1 -40 -35 -40 l-35 0 0 -110 0 -110 300 0 300 0
0 35 0 35 110 0 110 0 0 40 0 40 75 0 75 0 0 35 c0 34 1 35 40 35 l40 0 0 75
0 75 -40 0 -40 0 0 40 c0 39 -1 40 -35 40 -33 0 -35 2 -35 35 0 34 -1 35 -40
35 -39 0 -40 -1 -40 -35z"/>
<path d="M13360 2400 l0 -40 -40 0 c-39 0 -40 -1 -40 -35 l0 -35 -410 0 -410
0 0 -150 0 -150 450 0 450 0 0 35 0 35 75 0 75 0 0 40 c0 39 1 40 35 40 33 0
35 2 35 35 0 34 1 35 40 35 l40 0 0 115 0 115 -150 0 -150 0 0 -40z"/>
<path d="M8818 6368 c-54 -29 -70 -49 -49 -62 5 -3 33 8 62 24 31 17 69 30 89
30 81 0 170 -71 170 -135 0 -40 -25 -68 -139 -150 -154 -112 -187 -171 -136
-245 44 -63 73 -49 39 19 -9 18 -13 42 -10 54 7 29 106 129 171 172 29 19 66
50 84 70 64 73 28 175 -80 229 -73 36 -128 34 -201 -6z"/>
<path d="M5153 6320 c-22 -9 -33 -50 -14 -50 6 0 -44 -220 -52 -225 -1 -1 -22
-6 -47 -11 -61 -12 -63 -40 -3 -37 l42 2 -6 -92 c-6 -100 6 -145 46 -166 25
-14 148 -2 162 15 16 20 0 36 -29 29 -59 -13 -105 -9 -118 10 -15 20 -17 90
-6 164 l7 44 84 4 c92 4 129 16 112 37 -7 9 -31 10 -87 5 -42 -4 -82 -5 -88
-3 -13 5 -2 78 30 207 19 75 13 86 -33 67z"/>
<path d="M4210 6195 c-9 -11 -11 -39 -7 -103 8 -105 -5 -207 -31 -241 -24 -34
-80 -71 -104 -71 -22 0 -52 61 -63 127 -3 22 -13 49 -21 60 -14 17 -15 17 -32
-3 -9 -12 -22 -30 -29 -40 -6 -11 -2 13 9 51 24 89 20 167 -10 198 -22 21 -23
21 -55 4 -43 -24 -169 -145 -165 -159 9 -25 28 -16 94 47 95 91 101 94 110 50
9 -52 -2 -104 -46 -223 -44 -115 -49 -149 -23 -159 21 -8 45 21 91 112 l35 70
9 -40 c13 -62 38 -111 64 -125 56 -30 172 49 195 133 16 57 18 305 3 318 -7 6
-16 4 -24 -6z"/>
<path d="M7731 6079 c-37 -71 -133 -230 -209 -347 -79 -122 -135 -253 -125
-292 9 -36 34 -18 54 40 27 78 104 226 196 376 114 186 147 249 140 268 -11
28 -23 18 -56 -45z"/>
<path d="M6388 6091 c-23 -11 -42 -34 -63 -74 -28 -53 -30 -64 -25 -135 4 -62
8 -77 22 -80 12 -2 18 5 22 30 19 135 26 172 40 194 23 34 49 30 69 -11 17
-35 47 -48 47 -21 0 8 -9 34 -19 59 -22 52 -46 62 -93 38z"/>
<path d="M7394 6096 c-4 -10 17 -44 57 -93 35 -43 71 -95 81 -115 23 -47 34
-54 48 -29 17 32 -9 80 -91 168 -80 87 -86 91 -95 69z"/>
<path d="M7905 6076 c-58 -25 -94 -91 -95 -173 0 -64 27 -87 96 -81 142 12
208 143 115 232 -34 33 -73 40 -116 22z m65 -51 c14 9 40 -13 51 -44 14 -36
-5 -74 -50 -99 -62 -35 -111 -27 -111 17 0 75 54 157 86 130 7 -6 18 -8 24 -4z"/>
<path d="M8257 6063 c-4 -3 -7 -13 -7 -21 0 -8 -16 -47 -35 -86 -35 -72 -82
-128 -127 -150 -13 -6 -23 -18 -23 -26 0 -23 32 -23 64 -1 34 25 41 26 41 7 0
-14 21 -26 47 -26 21 0 99 66 149 128 24 30 44 49 44 44 0 -5 -7 -45 -16 -87
-14 -68 -14 -79 -1 -92 19 -20 53 -9 74 23 21 33 3 56 -25 31 -16 -15 -16 -9
4 96 12 61 20 115 18 119 -13 20 -44 4 -74 -39 -48 -66 -160 -183 -176 -183
-16 0 -6 37 31 118 15 31 34 72 42 89 8 18 13 40 9 48 -6 15 -28 20 -39 8z"/>
<path d="M6039 6035 c-58 -32 -116 -146 -103 -204 19 -76 69 -80 136 -11 l48
50 0 -43 c0 -30 6 -49 18 -60 27 -25 46 -22 37 6 -5 12 -10 62 -12 111 -4 74
-2 91 11 98 24 13 19 26 -16 48 -38 23 -82 25 -119 5z m68 -66 c-6 -47 -51
-125 -84 -147 -21 -13 -23 -13 -31 9 -6 14 -5 38 0 59 13 47 74 120 100 120
18 0 20 -4 15 -41z"/>
<path d="M6612 6005 c-57 -65 -51 -158 14 -223 37 -37 47 -37 143 -6 83 28
125 64 102 87 -6 6 -19 2 -37 -12 -32 -25 -148 -63 -169 -54 -15 5 -55 72 -55
91 0 5 26 15 58 21 70 14 82 24 82 71 0 47 -15 60 -66 60 -35 0 -47 -5 -72
-35z m96 -27 c-2 -17 -13 -24 -42 -30 -48 -10 -53 -6 -32 27 22 34 79 37 74 3z"/>
<path d="M4734 5925 c-52 -54 -67 -98 -47 -137 22 -45 93 -38 151 15 l22 20 0
-20 c0 -22 36 -73 51 -73 18 0 21 30 4 46 -13 14 -16 32 -13 93 3 70 2 76 -17
77 -12 1 -30 6 -42 13 -39 20 -65 13 -109 -34z m115 -23 c8 -15 1 -25 -36 -55
-78 -63 -113 -39 -52 36 34 41 72 49 88 19z"/>
<path d="M10905 5546 c-88 -66 -103 -83 -82 -92 17 -6 151 89 162 115 14 34
-15 25 -80 -23z"/>
<path d="M8847 5533 c-16 -15 -6 -41 17 -45 35 -7 50 11 29 34 -17 19 -35 23
-46 11z"/>
<path d="M10057 4938 c-26 -56 -36 -108 -47 -249 -9 -110 -8 -160 4 -265 27
-233 76 -342 215 -487 47 -50 77 -87 66 -84 -11 4 -47 13 -80 20 -114 27 -477
138 -563 173 -113 45 -187 87 -346 192 -153 101 -337 270 -333 305 2 17 -3 22
-23 22 -20 0 -26 -6 -28 -29 -3 -26 10 -43 110 -141 155 -152 390 -308 590
-391 91 -38 497 -161 620 -189 130 -28 214 5 135 54 -52 32 -189 179 -224 241
-53 95 -73 168 -93 346 -14 127 1 340 30 432 12 35 18 67 15 72 -12 19 -33 9
-48 -22z"/>
</g>
</svg>
