<?xml version="1.0" standalone="no"?>
<!DOCTYPE svg PUBLIC "-//W3C//DTD SVG 20010904//EN"
 "http://www.w3.org/TR/2001/REC-SVG-20010904/DTD/svg10.dtd">
<svg version="1.0" xmlns="http://www.w3.org/2000/svg"
 width="1872.000000pt" height="496.000000pt" viewBox="0 0 1872.000000 496.000000"
 preserveAspectRatio="xMidYMid meet">

<g transform="translate(0.000000,496.000000) scale(0.100000,-0.100000)"
fill="#000000" stroke="none">
<path d="M3746 4516 c-32 -13 -72 -34 -88 -47 l-29 -24 16 -54 c17 -54 77
-154 110 -181 49 -41 51 -93 3 -137 -62 -58 -238 -74 -238 -22 0 28 -30 36
-46 14 -25 -34 -17 -55 29 -75 147 -67 365 43 340 173 -3 14 -27 51 -54 84
-51 60 -99 144 -99 174 0 11 21 25 65 43 79 32 83 32 112 4 32 -30 51 -12 29
30 -25 49 -58 53 -150 18z"/>
<path d="M13631 4481 c-12 -16 -35 -65 -51 -108 -17 -44 -44 -101 -59 -126
-28 -43 -32 -45 -93 -54 -46 -6 -63 -12 -63 -23 0 -12 12 -15 52 -14 l51 2
-14 -40 c-34 -98 8 -198 83 -198 32 0 29 16 -12 54 -40 38 -44 66 -19 139 10
30 22 47 32 48 84 2 132 15 132 35 0 22 -27 28 -75 17 l-43 -10 22 36 c13 20
33 62 45 94 30 83 50 120 74 138 24 19 15 39 -18 39 -15 0 -31 -11 -44 -29z"/>
<path d="M2958 4485 c-19 -11 -41 -43 -69 -103 -43 -90 -94 -172 -115 -184 -6
-4 -15 -19 -18 -33 -4 -15 -13 -25 -25 -25 -24 0 -43 -23 -36 -42 3 -8 -4 -32
-16 -52 -11 -20 -18 -43 -15 -51 9 -25 42 -17 55 13 7 15 33 57 59 95 40 59
49 67 77 67 17 0 34 -2 37 -5 3 -3 -1 -31 -8 -63 -16 -68 -4 -135 23 -130 12
2 17 17 19 63 3 64 17 114 34 116 5 1 16 2 22 3 21 2 21 34 0 40 -18 6 -18 10
-6 56 12 47 35 181 38 225 1 25 -21 29 -56 10z m-23 -190 l-18 -85 -33 0 -33
0 34 56 c19 31 39 72 46 91 20 61 23 25 4 -62z"/>
<path d="M10351 4473 c-5 -10 -16 -40 -25 -68 -10 -27 -49 -130 -88 -227 -69
-170 -71 -178 -55 -201 44 -67 166 -36 203 51 31 71 34 93 19 128 -11 28 -19
34 -43 34 -16 0 -41 -9 -56 -21 l-26 -21 19 49 c10 26 28 68 39 93 11 25 25
70 31 100 6 29 16 59 22 66 6 7 8 18 4 24 -10 16 -33 12 -44 -7z m22 -336 c15
-41 -60 -147 -104 -147 -61 0 -56 25 24 108 52 53 71 62 80 39z"/>
<path d="M3145 4468 c-3 -7 -9 -51 -14 -98 -5 -47 -21 -134 -36 -194 -14 -59
-25 -127 -23 -150 3 -36 6 -41 28 -41 19 0 31 13 60 62 19 33 43 72 52 85 l17
23 0 -42 c1 -55 34 -129 61 -138 31 -10 58 18 97 102 52 113 96 370 66 395
-23 19 -43 -10 -43 -62 0 -84 -30 -221 -68 -311 -20 -49 -40 -85 -45 -80 -6 6
-36 191 -37 229 0 1 -9 2 -20 2 -12 0 -22 -9 -25 -23 -4 -13 -26 -54 -51 -92
-25 -39 -43 -61 -39 -49 23 85 55 246 55 279 0 22 7 53 15 69 8 15 12 32 9 37
-8 14 -54 11 -59 -3z"/>
<path d="M5832 4463 c-5 -10 -12 -38 -16 -63 -4 -24 -10 -49 -15 -55 -4 -5
-16 -32 -26 -59 -17 -47 -19 -48 -51 -43 -19 3 -36 1 -40 -4 -8 -14 15 -39 37
-39 23 0 23 6 -2 -64 -29 -84 -35 -148 -16 -165 24 -19 34 -7 40 51 3 29 16
80 29 113 l24 59 68 13 c77 14 81 16 72 39 -4 11 -13 14 -29 10 -12 -3 -39 -9
-60 -12 l-38 -7 19 49 c11 27 20 52 20 57 1 29 16 94 24 104 5 7 7 17 3 23
-10 16 -33 12 -43 -7z"/>
<path d="M12310 4468 c-13 -94 -35 -170 -66 -231 l-38 -76 -45 -3 c-56 -4 -66
-31 -13 -36 17 -2 32 -5 32 -8 0 -3 -9 -22 -20 -44 -24 -47 -26 -105 -5 -113
17 -7 28 8 33 42 5 36 49 118 67 125 9 3 31 6 48 6 40 0 62 14 54 33 -4 12
-16 14 -48 10 -39 -6 -42 -4 -35 13 24 59 55 156 61 195 4 24 12 49 17 56 13
16 1 33 -23 33 -10 0 -19 -1 -19 -2z"/>
<path d="M14313 4452 c-7 -4 -31 -32 -52 -61 -40 -54 -60 -116 -76 -240 -7
-53 -7 -53 -39 -48 -41 7 -106 -16 -128 -45 -21 -27 -23 -76 -4 -100 18 -25
92 -24 134 2 46 28 69 72 82 154 24 158 33 187 77 254 24 37 42 71 40 76 -5
14 -20 17 -34 8z m-153 -411 c-15 -29 -51 -51 -82 -51 -28 0 -35 14 -19 38 9
14 53 30 89 31 19 1 21 -2 12 -18z"/>
<path d="M17823 4393 c-3 -10 -24 -46 -46 -80 -35 -53 -42 -60 -52 -46 -12 16
-28 16 -110 -6 -49 -12 -85 -54 -85 -99 0 -45 13 -67 50 -82 16 -7 30 -14 30
-17 0 -2 -15 -31 -32 -64 -28 -50 -31 -61 -18 -69 19 -12 33 1 72 65 31 52 32
53 85 57 67 6 93 29 100 89 4 35 1 48 -15 64 -19 20 -19 20 9 77 16 31 33 59
39 63 17 10 12 65 -5 65 -9 0 -18 -8 -22 -17z m-130 -175 c15 -12 14 -17 -14
-60 -34 -52 -36 -53 -74 -36 -41 18 -30 69 20 96 27 15 48 15 68 0z m71 -85
c-7 -20 -17 -29 -37 -31 l-28 -3 27 41 c31 46 55 42 38 -7z"/>
<path d="M7600 4376 c-83 -17 -106 -25 -108 -40 -4 -16 2 -17 65 -11 37 3 79
8 93 11 l25 6 -26 -21 c-15 -11 -38 -25 -53 -31 -43 -16 -34 -47 16 -61 69
-18 98 -44 98 -87 0 -76 -50 -135 -130 -153 -58 -13 -90 7 -90 56 0 41 -18 55
-37 30 -22 -31 -16 -83 12 -109 32 -30 70 -37 124 -25 110 25 171 97 171 205
0 39 -5 51 -32 78 -18 18 -40 35 -48 38 -14 5 13 35 79 85 12 9 14 16 5 30
-15 25 -43 25 -164 -1z"/>
<path d="M11727 4383 c-4 -3 -7 -16 -7 -29 0 -20 22 -33 58 -34 19 0 14 34 -8
53 -22 18 -33 21 -43 10z"/>
<path d="M16336 4331 c-25 -25 -37 -45 -33 -55 10 -25 36 -19 67 15 50 55 69
8 26 -65 -24 -41 -114 -123 -129 -118 -28 9 -123 -77 -114 -102 8 -21 30 -20
77 4 42 22 44 21 55 -27 18 -85 80 -106 153 -53 23 17 42 34 42 39 0 20 -21
21 -57 1 -64 -34 -76 -27 -102 67 -9 31 -7 35 39 74 73 61 104 113 104 175 1
61 -15 84 -58 84 -24 0 -42 -10 -70 -39z"/>
<path d="M15815 4348 c-41 -22 -105 -92 -105 -115 0 -31 33 -47 72 -34 l30 11
-18 -28 c-9 -15 -28 -44 -42 -64 -31 -47 -35 -103 -8 -103 12 0 23 11 30 31 6
16 41 77 79 135 37 58 67 110 67 116 0 9 -70 63 -81 63 -2 0 -13 -6 -24 -12z
m30 -58 c-3 -6 -21 -17 -38 -26 l-32 -17 24 27 c23 25 59 37 46 16z"/>
<path d="M16695 4332 c-38 -23 -88 -95 -83 -119 2 -9 14 -23 27 -29 l23 -12
-39 -43 c-50 -54 -63 -79 -63 -118 0 -37 40 -71 83 -71 71 0 167 74 167 129 0
30 -46 98 -70 103 -9 2 -1 12 23 25 20 12 42 34 49 48 10 21 8 29 -9 48 -11
12 -23 30 -26 40 -8 22 -44 22 -82 -1z m60 -72 c0 -14 -71 -47 -81 -37 -3 3 2
17 12 32 12 19 24 25 43 23 15 -2 26 -9 26 -18z m-12 -158 c9 -8 17 -23 17
-33 0 -28 -65 -72 -108 -73 -31 -1 -37 2 -40 22 -3 17 9 36 42 68 46 46 52 47
89 16z"/>
<path d="M7264 4329 c-16 -4 -56 -7 -90 -8 -45 -1 -65 -6 -77 -19 -19 -21 -22
-48 -7 -57 6 -3 10 -21 10 -40 0 -41 8 -47 72 -49 36 -1 54 -7 64 -21 18 -24
18 -24 -5 -61 -26 -43 -83 -68 -137 -60 -60 8 -85 25 -82 56 4 34 -32 34 -49
0 -26 -53 44 -104 147 -104 57 -1 73 3 109 27 28 19 49 43 62 72 18 41 18 47
5 80 -16 37 -59 63 -111 67 -20 2 -25 8 -25 29 0 25 3 27 63 32 79 6 142 28
142 47 0 16 -38 20 -91 9z"/>
<path d="M15576 4293 l-24 -48 -62 -3 c-72 -3 -80 -6 -80 -32 0 -11 -9 -34
-20 -52 -24 -40 -25 -50 -4 -93 15 -33 15 -33 -31 -96 -25 -34 -53 -68 -63
-75 -14 -10 -14 -14 -3 -28 19 -23 48 -20 62 7 7 12 32 50 56 83 41 56 49 62
89 68 46 6 97 28 127 54 28 25 21 66 -16 99 l-34 30 29 49 c15 27 28 57 28 67
0 33 -30 17 -54 -30z m-111 -172 c-26 -39 -45 -46 -45 -16 0 7 12 28 26 45 39
45 53 23 19 -29z m125 -2 c0 -10 -33 -28 -71 -39 l-29 -9 31 45 c30 44 32 45
50 28 10 -9 19 -21 19 -25z"/>
<path d="M18025 4243 c-83 -173 -85 -179 -79 -212 8 -41 44 -44 44 -4 0 14 15
58 33 97 18 39 39 90 46 113 9 26 18 40 26 36 7 -2 16 0 19 6 9 14 -15 61 -30
61 -7 0 -34 -44 -59 -97z"/>
<path d="M17364 4314 c-41 -20 -88 -69 -80 -83 11 -17 34 -13 46 9 9 16 64 40
93 40 5 0 0 -14 -10 -31 -23 -40 -124 -109 -149 -103 -40 10 -124 -67 -110
-101 8 -22 31 -19 81 11 l44 25 7 -35 c11 -59 38 -86 88 -86 29 0 48 6 60 19
22 24 6 36 -45 32 -43 -3 -47 2 -55 61 -5 42 -5 43 39 71 53 32 95 84 103 125
5 23 1 33 -17 46 -29 20 -55 20 -95 0z"/>
<path d="M18300 4301 c0 -6 -18 -20 -40 -32 -41 -23 -80 -73 -80 -101 0 -9 7
-21 16 -28 13 -12 11 -15 -18 -27 -54 -23 -92 -58 -117 -108 -19 -38 -21 -51
-12 -71 13 -30 50 -32 128 -4 65 23 100 51 120 98 12 30 12 37 -2 58 -19 30
-15 39 35 64 71 36 102 106 64 144 -17 17 -94 22 -94 7z m49 -87 c-25 -27
-102 -59 -118 -49 -27 16 26 66 97 90 32 12 37 11 40 -2 2 -8 -6 -26 -19 -39z
m-95 -154 c30 -30 -53 -93 -140 -107 -41 -7 -42 1 -8 50 45 66 112 92 148 57z"/>
<path d="M4953 4240 c-17 -10 -37 -28 -43 -39 -8 -16 -17 -19 -39 -15 -32 7
-49 -9 -32 -30 9 -10 6 -35 -8 -97 -20 -86 -20 -99 4 -99 18 0 39 41 55 107
13 57 56 125 90 143 17 9 27 8 46 -5 26 -17 44 -13 44 10 0 15 -49 45 -72 45
-7 0 -27 -9 -45 -20z"/>
<path d="M5405 4146 c-53 -75 -108 -126 -135 -126 -25 0 -35 -17 -19 -36 14
-17 40 -11 80 17 26 18 26 18 37 -6 16 -34 53 -32 94 4 l34 29 16 -29 c20 -33
44 -47 60 -31 7 7 4 18 -7 36 -13 19 -16 40 -13 76 4 37 1 53 -10 62 -12 10
-18 8 -31 -11 -31 -44 -84 -101 -89 -96 -3 2 12 39 32 80 20 41 34 80 31 85
-14 22 -36 7 -80 -54z"/>
<path d="M6084 4163 c-85 -89 -82 -82 -74 -146 8 -73 34 -102 88 -101 38 1
115 34 127 55 17 27 -14 28 -69 3 -55 -25 -58 -25 -77 -8 -11 10 -19 30 -19
50 0 28 6 36 48 59 65 38 82 55 82 81 0 70 -42 73 -106 7z m66 -2 c0 -5 -15
-20 -32 -32 l-33 -22 29 31 c32 34 36 37 36 23z"/>
<path d="M5153 4171 c-50 -36 -79 -72 -93 -117 -10 -29 -9 -39 4 -59 20 -31
55 -32 111 -5 78 38 113 114 75 163 -37 47 -53 50 -97 18z m72 -51 c3 -10 1
-27 -6 -37 -13 -22 -81 -63 -104 -63 -14 0 -14 4 0 38 17 42 71 93 91 85 7 -3
16 -13 19 -23z"/>
<path d="M11658 4183 c0 -5 -2 -12 -2 -18 -1 -5 -15 -43 -31 -83 -26 -66 -27
-74 -13 -89 9 -8 20 -13 25 -10 15 9 66 174 60 191 -6 16 -36 22 -39 9z"/>
<path d="M11830 4162 c-43 -30 -80 -69 -80 -85 0 -31 26 -23 66 19 32 34 48
44 72 44 38 0 39 -8 11 -90 -20 -57 -19 -80 2 -80 12 0 44 73 53 121 3 20 2
48 -4 63 -8 22 -15 26 -52 26 -25 0 -54 -8 -68 -18z"/>
<path d="M8633 4157 c-39 -22 -93 -77 -99 -101 -14 -58 24 -95 108 -102 59 -6
101 10 106 40 4 17 -1 18 -55 11 -63 -7 -113 5 -113 29 0 7 19 30 41 51 36 32
46 36 76 32 25 -5 36 -2 40 10 14 35 -58 56 -104 30z"/>
<path d="M9187 4144 c-15 -8 -36 -12 -46 -9 -20 6 -35 -8 -46 -45 -4 -14 -18
-40 -31 -59 -22 -33 -23 -61 0 -61 7 0 34 25 60 55 45 52 106 96 106 76 0 -5
-12 -34 -26 -65 -48 -105 -8 -129 44 -26 59 118 30 183 -61 134z"/>
<path d="M10553 4148 c-22 -11 -63 -81 -63 -109 0 -8 9 -29 20 -46 17 -28 25
-33 59 -33 22 0 44 6 51 15 7 8 18 15 25 15 7 0 18 6 24 14 19 23 -4 29 -59
15 -57 -14 -77 -5 -41 20 64 43 83 78 56 105 -19 18 -40 19 -72 4z"/>
<path d="M12950 4124 c-64 -73 -82 -153 -36 -162 11 -3 16 4 16 21 0 14 15 47
33 73 26 40 38 50 65 52 28 3 33 7 30 25 -2 17 -11 23 -39 25 -31 3 -41 -2
-69 -34z"/>
<path d="M8882 4122 c-36 -34 -47 -65 -32 -93 10 -18 18 -21 55 -16 39 4 44 2
47 -17 2 -13 10 -21 21 -21 13 0 24 15 37 55 l19 55 -32 33 c-39 40 -74 42
-115 4z m78 -30 c0 -11 -51 -35 -58 -27 -7 7 29 34 46 35 6 0 12 -4 12 -8z"/>
<path d="M13165 4119 c-65 -58 -31 -119 48 -85 36 15 37 15 37 -8 0 -13 7 -29
15 -36 17 -14 16 -14 34 62 14 58 14 58 -2 58 -7 0 -20 9 -30 20 -24 29 -61
25 -102 -11z m70 -19 c-3 -5 -11 -10 -16 -10 -6 0 -7 5 -4 10 3 6 11 10 16 10
6 0 7 -4 4 -10z"/>
<path d="M12454 4111 c-79 -56 -94 -112 -45 -162 33 -32 75 -38 144 -18 28 7
37 15 35 27 -2 11 -11 16 -23 14 -47 -8 -110 -1 -124 13 -12 12 -12 19 -2 41
11 25 13 26 25 9 12 -17 16 -17 57 11 46 31 58 56 39 79 -19 23 -64 18 -106
-14z"/>
<path d="M12780 4131 c-91 -13 -174 -85 -150 -130 14 -26 39 -33 80 -21 18 5
35 8 38 6 4 -5 -15 -177 -24 -212 -5 -19 -12 -21 -84 -20 -102 1 -122 -15
-128 -102 -5 -70 14 -114 59 -137 64 -34 118 6 166 121 28 67 36 74 78 74 38
0 60 14 52 33 -4 11 -17 13 -52 9 -43 -4 -47 -3 -42 14 3 10 11 62 17 114 13
112 15 121 42 182 19 43 20 80 1 77 -4 -1 -28 -5 -53 -8z m-29 -71 c-18 -15
-42 -30 -52 -33 -17 -5 -18 -3 -4 16 17 24 53 46 75 46 9 0 2 -11 -19 -29z
m-63 -358 l22 -7 -29 -62 c-16 -34 -38 -66 -49 -72 -41 -22 -72 11 -72 74 0
58 14 75 63 74 23 -1 52 -4 65 -7z"/>
<path d="M13750 4108 c-25 -13 -50 -33 -55 -44 -6 -12 -17 -29 -24 -38 -12
-14 -9 -21 25 -51 21 -19 49 -37 60 -41 37 -10 79 0 82 19 3 13 -4 17 -31 17
-21 0 -41 7 -52 20 -18 19 -17 20 3 20 29 0 82 47 82 74 0 24 -17 46 -35 46
-6 0 -31 -10 -55 -22z"/>
<path d="M15906 4045 c-28 -26 -32 -40 -16 -50 13 -8 70 32 70 50 0 24 -28 24
-54 0z"/>
<path d="M16875 3989 c-8 -12 23 -49 42 -49 14 0 17 18 7 44 -7 18 -39 21 -49
5z"/>
<path d="M4107 3974 c-3 -4 -4 -19 0 -34 6 -31 -34 -147 -98 -287 -22 -47 -43
-108 -46 -135 -5 -43 -4 -48 14 -48 13 0 34 22 63 65 43 66 64 85 95 85 14 0
16 -6 10 -37 -4 -20 -18 -59 -31 -86 -30 -59 -29 -101 4 -105 18 -3 22 1 22
21 0 14 11 49 25 79 26 56 32 116 15 149 -14 25 -69 25 -102 -1 -24 -19 -24
-16 13 75 38 91 74 239 63 256 -6 10 -38 12 -47 3z"/>
<path d="M3927 3964 c-4 -4 -4 -18 -1 -31 6 -24 -6 -73 -53 -215 -28 -84 -26
-82 -118 -90 -19 -2 -30 -9 -30 -18 0 -11 12 -15 51 -15 l51 0 -23 -67 c-12
-36 -20 -69 -16 -72 21 -22 46 12 83 117 10 27 19 37 35 37 36 0 84 21 84 37
0 13 -8 15 -43 10 l-43 -6 27 87 c32 101 53 208 44 222 -7 11 -38 13 -48 4z"/>
<path d="M6919 3848 c-12 -24 -34 -79 -49 -123 -33 -95 -89 -215 -101 -215 -5
0 -9 28 -9 63 0 68 -13 134 -28 149 -19 19 -51 -3 -85 -58 l-33 -55 0 103 c1
96 0 103 -19 103 -18 0 -19 -6 -17 -75 2 -49 -4 -102 -17 -154 -20 -80 -16
-123 12 -113 7 2 39 50 71 107 67 117 74 116 75 -6 1 -57 5 -74 21 -89 37 -33
62 -14 107 82 23 49 44 99 48 113 4 14 25 60 47 104 21 43 37 84 34 92 -10 27
-36 14 -57 -28z"/>
<path d="M2807 3868 c-2 -7 -14 -52 -26 -100 -11 -49 -34 -116 -50 -150 -34
-75 -43 -111 -35 -132 11 -29 40 -17 83 34 23 27 51 55 62 60 19 11 19 8 17
-72 -3 -69 0 -83 13 -86 14 -2 17 12 23 88 10 128 -11 149 -92 89 l-43 -31 21
53 c31 82 62 204 58 230 -3 25 -26 38 -31 17z"/>
<path d="M12355 3870 c-4 -6 -1 -17 5 -25 18 -22 -4 -101 -61 -224 -72 -153
-62 -189 32 -118 24 19 55 39 67 46 22 12 23 11 16 -11 -19 -59 5 -102 63
-113 26 -5 40 -2 51 9 13 13 13 16 1 19 -82 23 -77 16 -67 117 2 30 0 35 -19
38 -12 2 -42 -6 -67 -16 l-44 -20 28 59 c15 33 36 89 45 124 15 54 16 69 5 95
-12 30 -42 41 -55 20z"/>
<path d="M6381 3818 c-151 -199 -279 -404 -262 -421 18 -18 39 1 71 65 36 71
58 86 138 95 61 7 72 -1 72 -54 0 -26 4 -33 20 -33 16 0 20 7 20 38 0 21 5 43
10 48 7 7 5 21 -6 43 -14 29 -15 44 -5 125 18 136 18 140 -1 144 -11 2 -31
-15 -57 -50z m5 -147 l-1 -69 -51 -4 -51 -3 51 73 c27 39 51 72 51 72 1 0 1
-31 1 -69z"/>
<path d="M7153 3835 c-76 -35 -74 -60 12 -145 63 -63 91 -114 79 -145 -15 -38
-164 -46 -203 -11 -15 13 -18 26 -14 57 4 30 2 39 -9 39 -45 0 -57 -84 -19
-124 33 -35 83 -49 155 -44 118 10 158 54 130 147 -10 36 -29 63 -76 109 l-62
61 39 17 c26 11 53 14 81 10 54 -7 77 14 42 38 -32 23 -95 20 -155 -9z"/>
<path d="M2629 3843 c-1 -5 -2 -21 -4 -38 -3 -35 -29 -127 -50 -178 -12 -30
-20 -36 -62 -43 -61 -12 -68 -40 -10 -38 37 1 38 1 31 -30 -3 -17 -11 -37 -17
-44 -7 -9 -6 -17 4 -28 13 -12 18 -12 37 6 12 12 22 26 22 33 0 7 5 28 10 48
8 30 16 37 47 45 25 6 39 16 41 28 4 16 0 18 -26 13 l-30 -6 18 57 c21 68 37
155 32 171 -4 12 -41 16 -43 4z"/>
<path d="M15155 3805 c-15 -20 -41 -62 -59 -93 -30 -54 -34 -57 -71 -57 -45 0
-57 -25 -17 -35 22 -5 20 -9 -38 -85 -33 -43 -59 -84 -57 -90 9 -25 36 -4 97
78 60 81 67 87 94 82 16 -3 31 -7 34 -9 2 -2 -2 -47 -8 -100 -6 -53 -8 -101
-5 -106 9 -15 35 7 35 31 0 10 4 28 9 41 6 13 13 44 16 71 6 42 8 46 25 37 26
-14 37 -13 44 5 3 10 -5 20 -25 31 -28 14 -31 19 -26 52 3 21 9 70 13 110 6
68 5 72 -14 72 -11 0 -32 -16 -47 -35z m0 -129 c-6 -27 -12 -36 -27 -36 -21 0
-21 1 7 47 24 39 28 36 20 -11z"/>
<path d="M11517 3743 c-4 -3 -7 -48 -7 -98 0 -84 -2 -93 -25 -115 -20 -19 -27
-21 -40 -10 -19 16 -19 34 0 50 23 19 18 40 -9 40 -29 0 -44 -17 -52 -58 -5
-26 -1 -36 24 -62 35 -34 52 -37 92 -14 45 27 60 63 60 148 0 42 3 76 7 76 4
0 20 -12 35 -27 20 -19 31 -24 39 -16 12 12 -10 56 -40 81 -16 13 -73 17 -84
5z"/>
<path d="M8413 3695 c-16 -34 -16 -40 0 -103 26 -101 19 -162 -19 -162 -22 0
-64 50 -64 76 0 17 -6 24 -20 24 -46 0 -37 -62 15 -115 99 -98 192 22 139 178
-9 27 -13 59 -10 73 6 22 11 25 35 19 36 -8 52 12 26 32 -11 7 -34 13 -52 13
-28 0 -36 -5 -50 -35z"/>
<path d="M2341 3706 c-17 -20 -6 -36 25 -36 21 0 25 4 22 22 -4 27 -30 35 -47
14z"/>
<path d="M9515 3710 c-4 -7 -3 -16 3 -22 14 -14 47 -6 47 12 0 18 -40 26 -50
10z"/>
<path d="M14118 3675 c-9 -21 -8 -34 10 -78 27 -63 28 -93 5 -105 -22 -12 -58
1 -66 22 -3 8 -3 31 0 50 6 38 -6 46 -37 26 -23 -14 -20 -93 4 -119 40 -44
120 -43 151 2 19 27 19 80 1 115 -33 65 -31 71 21 74 35 2 48 7 48 18 0 11
-15 16 -62 18 -59 3 -64 1 -75 -23z"/>
<path d="M1873 3629 c-40 -33 -73 -65 -73 -70 0 -27 34 -17 82 25 67 59 71 45
23 -71 -21 -48 -39 -98 -42 -109 -7 -32 17 -42 36 -15 9 12 37 45 62 72 l45
49 21 -22 c12 -13 23 -32 25 -43 2 -12 11 -20 23 -20 14 0 26 16 45 61 14 34
31 68 38 76 9 11 9 18 -1 32 -19 26 -44 10 -63 -40 -19 -50 -24 -52 -49 -24
-21 23 -45 26 -64 8 -12 -11 -13 -10 -7 6 30 86 26 147 -12 146 -9 -1 -50 -28
-89 -61z"/>
<path d="M9974 3682 c-38 -6 -103 -70 -110 -108 -8 -41 10 -65 69 -95 47 -25
142 -31 142 -9 0 8 -13 17 -30 21 -16 3 -42 11 -57 17 l-26 11 33 35 c33 35
52 86 40 106 -10 16 -38 26 -61 22z m-7 -96 c-16 -24 -57 -42 -57 -24 0 5 14
24 32 41 34 35 51 24 25 -17z"/>
<path d="M10315 3662 c-27 -9 -56 -21 -62 -25 -24 -15 -13 -45 33 -87 l46 -42
-20 -20 c-26 -26 -91 -18 -99 13 -6 23 -38 25 -47 3 -9 -24 12 -54 49 -70 51
-21 89 -17 124 12 40 34 40 68 -1 118 -25 30 -28 40 -17 47 19 12 33 11 48 -3
10 -11 15 -9 26 5 14 19 10 46 -9 59 -14 10 -11 10 -71 -10z"/>
<path d="M11783 3648 c-12 -13 -37 -48 -57 -80 -19 -31 -50 -67 -67 -81 -31
-24 -33 -47 -4 -47 7 0 31 18 53 41 24 24 43 36 47 30 10 -18 36 -13 71 14 29
22 32 23 27 5 -6 -23 13 -50 34 -50 12 0 14 7 10 28 -4 19 1 40 14 61 39 65
13 81 -51 31 -48 -38 -53 -38 -33 4 27 59 -3 89 -44 44z"/>
<path d="M4314 3650 c-35 -14 -84 -78 -84 -109 0 -25 7 -33 44 -51 29 -13 59
-20 83 -18 54 4 51 30 -4 41 -24 4 -43 12 -43 17 0 5 21 15 48 22 39 11 47 18
50 40 2 17 -4 34 -17 47 -22 22 -43 25 -77 11z m40 -49 c3 -5 -6 -11 -21 -14
-26 -5 -26 -4 -8 9 22 17 22 17 29 5z"/>
<path d="M4580 3642 c-61 -30 -115 -177 -66 -177 15 0 24 14 39 58 22 67 57
98 88 79 21 -14 49 -6 49 14 0 16 -38 44 -60 44 -8 0 -31 -8 -50 -18z"/>
<path d="M8637 3599 c-34 -36 -54 -66 -50 -72 4 -7 6 -22 5 -33 -4 -26 40 -64
72 -64 28 0 52 19 61 48 8 28 -11 37 -50 22 -59 -22 -39 21 26 56 85 47 102
104 30 104 -31 0 -44 -8 -94 -61z"/>
<path d="M13755 3629 c-26 -23 -35 -39 -35 -63 0 -56 36 -70 106 -41 l35 15
-2 -28 c-2 -15 -7 -32 -12 -39 -12 -17 0 -33 27 -33 31 0 47 19 36 40 -7 13
-3 31 15 66 26 52 19 80 -17 71 -11 -3 -28 4 -43 19 -33 32 -67 30 -110 -7z
m82 -35 c4 -12 -56 -38 -65 -29 -3 3 3 14 13 25 20 22 46 23 52 4z"/>
<path d="M15372 3648 c-20 -25 -62 -127 -62 -151 0 -44 27 -39 75 12 25 27 52
57 60 67 14 18 14 17 15 -8 0 -17 8 -31 20 -38 17 -9 30 -6 70 19 l50 31 0
-35 c0 -42 38 -92 63 -82 21 8 22 43 2 50 -10 4 -15 25 -17 69 -4 78 -17 83
-82 33 -25 -19 -48 -35 -50 -35 -3 0 -6 17 -8 38 -4 54 -33 54 -89 0 -30 -29
-39 -34 -26 -16 9 15 17 34 17 43 0 18 -24 20 -38 3z"/>
<path d="M9248 3623 c-14 -16 -42 -59 -62 -98 l-35 -70 6 73 c6 73 6 74 -17
70 -21 -3 -23 -9 -26 -81 -4 -89 6 -117 41 -117 21 0 31 12 61 73 55 109 71
128 100 121 19 -5 24 -2 24 13 0 48 -53 57 -92 16z"/>
<path d="M8895 3607 c-35 -35 -51 -76 -41 -103 9 -22 29 -13 45 22 24 50 42
64 82 64 21 0 41 5 44 10 12 20 -17 40 -57 40 -32 0 -47 -7 -73 -33z"/>
<path d="M16210 3626 c-64 -8 -85 -15 -85 -26 0 -12 14 -14 74 -12 89 4 88 1
-27 -85 -111 -84 -94 -100 78 -77 52 7 65 13 68 28 4 17 -1 18 -62 14 -36 -3
-66 -5 -66 -3 0 1 27 21 60 44 130 91 115 136 -40 117z"/>
<path d="M3562 3615 c-53 -16 -71 -31 -89 -73 -24 -57 19 -99 82 -81 46 13 75
53 75 103 0 57 -14 67 -68 51z m5 -92 c-8 -8 -25 -13 -38 -11 -24 3 -24 4 11
38 34 35 35 35 38 11 2 -13 -3 -30 -11 -38z"/>
<path d="M9615 3586 c-76 -78 -67 -149 20 -162 56 -8 138 15 143 40 3 15 -4
16 -70 11 -90 -7 -106 1 -85 41 8 16 24 38 36 48 20 18 22 18 34 2 7 -10 19
-15 29 -11 44 17 17 75 -34 75 -24 0 -41 -10 -73 -44z"/>
<path d="M12025 3588 c-48 -57 -54 -83 -24 -114 29 -31 88 -33 113 -5 26 28
11 44 -34 37 -20 -3 -40 -3 -43 1 -4 3 9 28 29 54 56 76 21 99 -41 27z"/>
<path d="M15880 3603 c-31 -11 -70 -57 -70 -83 0 -46 44 -65 91 -40 17 10 19
7 19 -28 0 -43 14 -62 47 -62 26 0 31 24 8 37 -9 6 -15 27 -16 61 -1 29 -6 55
-10 58 -5 3 -3 14 4 25 10 16 9 21 -3 29 -16 10 -46 12 -70 3z m30 -49 c0 -9
-32 -33 -44 -34 -5 0 -1 9 9 20 18 20 35 26 35 14z"/>
<path d="M16864 3594 c-16 -8 -41 -27 -57 -42 -26 -25 -27 -25 -41 -6 -10 12
-18 15 -24 9 -12 -14 -52 -114 -52 -131 0 -17 36 -18 47 -1 10 15 129 117 137
117 3 0 6 -18 6 -40 0 -59 41 -95 79 -71 17 11 7 41 -14 41 -12 0 -15 13 -15
60 0 71 -18 89 -66 64z"/>
<path d="M2317 3582 c-38 -42 -61 -136 -34 -145 20 -7 37 4 37 24 0 10 9 41
20 69 26 66 14 93 -23 52z"/>
<path d="M16550 3581 c0 -6 -7 -11 -16 -11 -27 0 -74 -56 -74 -87 0 -44 21
-64 72 -70 40 -5 49 -2 79 25 l33 29 -26 59 c-19 40 -33 60 -47 62 -12 2 -21
-1 -21 -7z m25 -81 c9 -27 -1 -40 -31 -40 -29 0 -42 24 -24 45 18 21 48 19 55
-5z"/>
<path d="M9396 3539 c-31 -46 -32 -94 -3 -94 13 0 24 15 38 55 30 86 10 108
-35 39z"/>
<path d="M10639 3456 c-25 -14 -51 -32 -58 -40 -22 -26 -8 -105 37 -201 42
-92 63 -181 52 -225 -10 -41 -61 -63 -126 -55 -45 5 -62 13 -94 44 -48 46 -52
80 -14 110 16 13 24 27 20 36 -7 20 -17 19 -57 -8 -95 -64 -2 -217 142 -233
66 -8 137 18 164 60 34 51 16 173 -42 293 -19 39 -37 90 -40 112 -5 38 -4 40
35 60 53 27 77 28 61 3 -16 -26 1 -77 26 -77 25 0 50 45 42 76 -17 67 -74 84
-148 45z"/>
<path d="M5127 3444 c-4 -4 -7 -24 -7 -45 0 -21 -19 -88 -41 -148 l-42 -110
-46 -3 c-34 -2 -47 -7 -49 -20 -3 -15 4 -18 37 -18 48 0 49 -4 21 -85 -23 -66
-25 -91 -9 -101 18 -11 31 11 58 98 l27 83 38 3 c32 3 37 6 33 23 -3 10 -1 19
4 19 5 0 9 7 9 15 0 10 -10 15 -30 15 -28 0 -29 1 -19 28 18 46 47 165 51 207
2 29 -1 40 -12 43 -9 1 -19 0 -23 -4z"/>
<path d="M13209 3389 c-6 -12 -19 -49 -29 -83 -50 -171 -61 -201 -75 -209 -10
-5 -15 -20 -14 -40 1 -18 -3 -51 -10 -73 -6 -23 -8 -49 -5 -58 14 -36 34 -13
61 70 30 92 44 107 96 97 45 -9 52 -26 37 -91 -7 -31 -16 -64 -21 -73 -6 -11
-4 -21 5 -28 20 -17 54 34 68 102 18 85 -7 126 -85 139 -15 2 -9 10 23 33 64
46 110 86 110 96 0 20 -33 22 -49 3 -9 -10 -29 -27 -46 -38 -16 -10 -43 -30
-59 -45 -25 -22 -28 -23 -22 -6 4 11 11 40 16 65 5 25 16 66 25 93 15 46 14
67 -5 67 -5 0 -14 -9 -21 -21z"/>
<path d="M12251 3363 c-6 -21 -11 -42 -11 -47 0 -5 -14 -63 -31 -128 -21 -79
-36 -118 -46 -118 -19 0 -33 -43 -33 -104 0 -63 27 -96 79 -96 27 0 44 11 92
58 72 69 83 105 47 147 -27 31 -76 37 -106 13 -14 -11 -15 -10 -8 7 17 46 66
249 66 276 0 22 -5 29 -20 29 -14 0 -22 -11 -29 -37z m69 -335 c0 -17 -93
-108 -111 -108 -50 0 -26 67 39 110 34 23 48 27 59 19 7 -6 13 -16 13 -21z"/>
<path d="M11046 3379 c-90 -8 -113 -17 -103 -42 4 -11 18 -13 59 -9 l53 5 -32
-27 c-34 -29 -43 -65 -20 -84 6 -6 38 -15 70 -21 66 -12 110 -39 132 -81 23
-44 18 -65 -20 -99 -50 -44 -90 -62 -149 -68 -77 -8 -140 29 -106 63 5 5 6 15
0 23 -14 24 -60 -13 -60 -48 0 -31 17 -50 69 -76 106 -53 331 54 331 158 -1
77 -88 165 -174 174 -25 3 -46 9 -46 13 0 10 126 70 163 77 33 7 43 19 27 38
-12 15 -43 15 -194 4z"/>
<path d="M14007 3373 c-4 -3 -7 -15 -7 -26 0 -11 -19 -70 -42 -133 l-43 -113
-65 -3 c-50 -2 -65 -7 -65 -18 0 -10 12 -16 40 -18 65 -4 66 -5 39 -69 -13
-32 -24 -70 -24 -85 0 -55 43 -43 54 15 3 18 17 54 29 81 21 45 26 50 57 50
25 1 36 6 38 19 3 13 -3 17 -22 17 -31 0 -32 5 -6 69 11 28 21 61 24 73 2 13
10 46 18 73 8 28 13 56 11 63 -5 13 -25 16 -36 5z"/>
<path d="M9218 3357 c-7 -8 -33 -80 -57 -161 -46 -152 -61 -169 -61 -69 0 54
-19 87 -44 77 -8 -3 -33 -32 -56 -65 -23 -33 -44 -59 -45 -57 -2 2 1 24 6 49
6 26 9 73 7 105 -2 48 -6 59 -22 62 -25 5 -44 -14 -29 -29 12 -12 10 -34 -13
-167 -16 -91 -12 -122 15 -122 17 0 72 58 112 118 l16 24 8 -49 c12 -84 68
-115 99 -54 22 43 107 331 101 342 -8 13 -21 11 -37 -4z"/>
<path d="M9570 3336 c-57 -15 -116 -51 -136 -82 -14 -21 -14 -27 4 -66 10 -24
40 -74 65 -111 26 -38 47 -77 47 -87 0 -26 -38 -50 -78 -50 -65 0 -112 80
-112 189 0 49 -2 52 -22 49 -20 -3 -23 -10 -26 -51 -5 -74 22 -151 68 -197 35
-35 46 -40 85 -40 77 0 135 44 135 100 0 14 -15 50 -34 80 -19 30 -49 78 -65
105 l-31 50 27 23 c42 34 120 54 163 42 64 -18 66 19 3 45 -41 17 -35 17 -93
1z"/>
<path d="M16653 3323 c-11 -16 -39 -72 -62 -125 -55 -123 -69 -138 -127 -138
-38 0 -45 -3 -42 -17 2 -12 14 -19 36 -21 17 -2 32 -5 32 -8 0 -3 -11 -27 -25
-54 -32 -62 -32 -82 -3 -78 16 2 31 21 54 68 37 77 48 87 94 92 24 2 36 9 38
21 3 13 -3 17 -27 17 l-30 0 40 86 c48 103 70 165 63 176 -9 15 -22 8 -41 -19z"/>
<path d="M2230 3300 c-25 -4 -72 -13 -105 -18 -33 -6 -80 -13 -104 -16 -53 -6
-69 -19 -52 -40 15 -18 0 -75 -55 -208 -38 -92 -41 -140 -11 -146 12 -3 19 5
23 25 6 29 7 29 102 41 54 7 116 12 139 12 23 0 54 5 69 10 24 9 25 13 13 24
-11 11 -34 12 -113 5 -55 -4 -118 -11 -141 -15 l-42 -6 21 76 21 75 138 -3
c124 -2 137 -1 137 15 0 9 -7 20 -16 23 -25 9 -200 7 -227 -3 -24 -9 -24 -9
-13 29 6 21 14 41 17 44 3 3 58 10 124 17 122 12 189 31 182 52 -4 15 -47 17
-107 7z"/>
<path d="M2935 3305 c-5 -2 -22 -6 -37 -9 -32 -7 -98 -62 -98 -81 0 -27 20
-25 60 4 37 27 106 49 117 37 13 -12 -112 -178 -186 -247 -44 -42 -81 -83 -81
-91 0 -41 67 -19 105 35 15 21 15 21 15 1 0 -31 35 -71 73 -83 42 -14 137 2
155 26 22 30 15 46 -15 39 -131 -31 -145 -28 -168 36 -11 35 -11 39 13 60 37
35 142 199 142 224 0 12 -6 27 -13 33 -15 12 -66 22 -82 16z"/>
<path d="M15800 3284 c-6 -14 -21 -40 -35 -58 -33 -43 -105 -207 -105 -239 0
-38 10 -57 31 -57 15 0 19 7 19 39 0 27 18 73 60 157 33 66 65 126 71 135 15
20 5 49 -16 49 -8 0 -20 -12 -25 -26z"/>
<path d="M8589 3215 c-58 -91 -176 -253 -215 -296 -29 -30 -31 -49 -5 -49 13
0 43 31 88 90 66 86 69 89 109 90 l41 0 -1 -97 c-1 -82 2 -98 15 -101 13 -2
18 15 29 103 11 92 15 105 32 105 29 0 58 19 58 36 0 13 -7 15 -33 10 l-33 -6
9 76 c17 153 -14 166 -94 39z m40 -61 c-4 -31 -10 -58 -12 -61 -3 -2 -17 -3
-31 -1 l-27 3 36 58 c20 31 38 57 39 57 2 0 -1 -25 -5 -56z"/>
<path d="M2483 3265 c-55 -28 -92 -69 -123 -137 -30 -67 -26 -111 14 -156 l35
-37 83 0 c67 1 92 5 131 25 31 16 47 29 44 39 -3 18 -12 18 -87 -3 -111 -32
-190 -10 -190 52 1 62 70 158 131 181 19 7 34 6 54 -5 31 -16 49 -7 39 20 -6
16 -53 46 -72 46 -4 0 -31 -11 -59 -25z"/>
<path d="M15509 3286 c-2 -2 -53 -9 -114 -16 -142 -15 -155 -21 -176 -90 -9
-30 -38 -94 -63 -142 -53 -97 -58 -141 -18 -146 15 -2 22 2 22 12 0 13 13 16
68 17 135 3 196 12 200 32 4 18 -3 19 -127 12 l-131 -8 29 63 c22 47 38 67 60
76 35 15 128 21 152 10 23 -10 32 19 12 36 -16 13 -79 15 -139 4 -29 -6 -30
-5 -26 24 5 38 21 46 97 55 163 17 205 27 205 46 0 13 -7 19 -23 19 -13 0 -26
-2 -28 -4z"/>
<path d="M4280 3200 c-14 -26 -7 -37 26 -37 30 0 42 21 24 42 -17 21 -37 19
-50 -5z"/>
<path d="M6637 3183 c-43 -7 -107 -73 -107 -111 0 -31 18 -49 83 -82 23 -11
25 -15 12 -23 -8 -4 -28 -7 -43 -5 -21 2 -28 9 -32 32 -7 38 -23 43 -40 11
-35 -65 37 -115 122 -84 23 8 47 23 55 35 12 18 11 24 -6 46 -11 13 -38 33
-60 43 -23 10 -41 24 -41 31 0 22 70 68 114 73 27 4 41 11 41 21 0 16 -44 22
-98 13z"/>
<path d="M4691 3161 c-11 -11 -21 -25 -21 -30 0 -22 23 -68 47 -93 l27 -28
-24 -25 c-28 -30 -37 -31 -65 -5 -14 13 -25 16 -35 10 -32 -20 24 -80 76 -80
25 0 94 70 94 96 0 13 -13 38 -28 56 -16 18 -31 41 -35 50 -8 21 18 31 45 17
15 -8 23 -8 31 0 16 16 -12 40 -55 47 -28 5 -40 2 -57 -15z"/>
<path d="M13543 3138 c-65 -71 -79 -134 -37 -167 49 -39 184 -36 184 4 0 11
-12 15 -49 15 -60 0 -111 17 -111 37 0 12 3 13 14 4 30 -25 96 26 96 74 0 17
-5 36 -12 43 -19 19 -63 14 -85 -10z m57 -43 c0 -8 -14 -22 -31 -31 l-32 -16
22 31 c24 33 41 40 41 16z"/>
<path d="M16777 3143 c-21 -20 18 -83 42 -68 17 10 13 40 -7 58 -20 19 -26 20
-35 10z"/>
<path d="M4394 3113 c-9 -10 -23 -33 -32 -53 -8 -19 -23 -47 -33 -62 -23 -31
-25 -58 -4 -58 20 0 55 31 55 49 0 7 10 29 21 48 26 41 39 30 39 -32 0 -48 12
-70 34 -62 12 5 15 20 13 70 -3 98 -47 145 -93 100z"/>
<path d="M16230 3110 c-8 -15 -8 -35 -1 -70 12 -53 8 -75 -15 -84 -10 -4 -16
4 -21 25 -4 20 -11 29 -22 27 -22 -4 -23 -87 0 -101 23 -14 67 0 96 31 21 23
24 33 19 67 -13 83 -14 80 22 83 25 3 32 8 30 20 -2 13 -16 18 -50 20 -39 3
-49 0 -58 -18z"/>
<path d="M5275 3110 c-27 -10 -95 -86 -95 -105 0 -8 9 -24 20 -35 18 -18 22
-18 59 -5 22 7 49 18 60 24 16 9 18 8 14 -8 -5 -20 23 -54 40 -48 6 2 12 19
12 38 1 19 10 49 19 67 14 27 15 36 5 48 -7 8 -19 12 -26 9 -8 -3 -24 2 -36
10 -24 17 -42 18 -72 5z m52 -46 c2 -5 -17 -20 -42 -32 l-45 -22 16 25 c26 40
62 55 71 29z"/>
<path d="M5578 3105 c-15 -8 -37 -14 -50 -12 -17 1 -24 -4 -26 -21 -2 -13 -14
-39 -28 -59 -28 -42 -29 -46 -8 -64 17 -14 28 -5 77 66 24 34 83 63 98 48 7
-7 3 -29 -16 -73 -29 -69 -30 -105 -2 -105 18 0 35 37 68 142 15 49 -11 93
-54 93 -17 -1 -44 -7 -59 -15z"/>
<path d="M6244 3098 c-61 -43 -84 -131 -46 -178 24 -30 103 -38 156 -16 55 23
42 42 -27 38 -30 -2 -65 -1 -77 3 -19 6 -18 9 17 34 21 15 44 35 52 44 28 34
9 98 -28 96 -9 0 -30 -10 -47 -21z m56 -31 c0 -2 -16 -19 -36 -38 -26 -24 -33
-28 -25 -12 12 23 61 64 61 50z"/>
<path d="M14190 3098 c-43 -29 -50 -65 -20 -113 20 -33 20 -35 4 -42 -20 -8
-74 50 -74 79 0 21 -20 24 -38 6 -17 -17 -15 -35 11 -71 30 -43 46 -55 85 -63
61 -12 93 41 61 103 -10 20 -19 41 -19 45 0 11 38 29 68 31 20 2 27 8 27 22 0
31 -61 32 -105 3z"/>
<path d="M12478 3023 c-73 -104 -111 -170 -103 -183 13 -21 31 -9 59 41 27 49
29 50 43 30 19 -28 55 -26 91 4 l30 25 6 -30 c4 -22 11 -30 27 -30 17 0 20 5
16 21 -3 11 1 39 9 61 35 100 4 113 -73 29 -30 -34 -58 -60 -60 -57 -2 2 9 37
26 77 17 39 28 76 25 81 -15 24 -45 2 -96 -69z"/>
<path d="M5863 3080 c-40 -9 -60 -25 -79 -61 -35 -69 -3 -118 91 -138 67 -14
130 -5 130 20 0 10 -19 16 -66 21 -112 13 -135 29 -109 79 6 10 24 26 41 35
28 14 32 14 49 -1 18 -17 40 -13 40 6 0 14 -38 49 -52 48 -7 -1 -28 -5 -45 -9z"/>
<path d="M12808 3078 c-9 -7 -26 -32 -38 -55 -28 -55 -18 -90 32 -118 29 -15
42 -17 65 -9 41 14 36 37 -11 45 -21 3 -42 12 -46 19 -13 21 25 88 52 92 13 2
23 10 23 18 0 20 -54 25 -77 8z"/>
<path d="M15910 3069 c-94 -56 -94 -140 -1 -125 36 5 40 4 43 -16 4 -30 43
-32 44 -3 1 12 7 31 13 44 7 12 10 29 7 36 -2 7 2 16 10 19 23 9 16 23 -22 45
-44 26 -50 26 -94 0z m78 -37 c8 -5 -6 -14 -38 -24 -55 -18 -65 -12 -22 14 30
20 41 21 60 10z"/>
<path d="M16928 3065 c-102 -54 -118 -145 -32 -181 59 -25 234 7 234 42 0 20
-9 20 -99 7 -90 -13 -141 -7 -141 17 0 45 81 96 136 86 40 -8 53 8 28 35 -23
26 -68 24 -126 -6z"/>
<path d="M4212 3058 c-38 -48 -54 -122 -31 -145 18 -18 39 -3 39 28 0 17 9 48
20 70 12 22 18 44 15 49 -9 14 -31 12 -43 -2z"/>
<path d="M7948 3033 c-23 -26 -61 -120 -53 -132 3 -6 10 -11 14 -11 13 0 92
140 86 150 -9 15 -30 12 -47 -7z"/>
<path d="M16698 3013 c-30 -34 -60 -105 -50 -115 6 -6 15 -7 20 -4 17 10 72
118 66 127 -8 14 -19 11 -36 -8z"/>
<path d="M14566 2892 c-57 -100 -73 -162 -41 -162 13 0 65 93 65 115 0 4 16
34 35 67 19 33 33 64 30 69 -15 24 -37 1 -89 -89z"/>
<path d="M3641 2956 c-15 -16 -25 -44 -32 -90 -5 -37 -19 -105 -30 -151 -19
-75 -23 -83 -39 -73 -10 6 -29 8 -46 4 -33 -8 -149 -121 -167 -163 -10 -24
-18 -28 -54 -29 -24 0 -43 3 -43 8 0 5 9 27 21 49 25 49 20 68 -18 69 -15 0
-46 1 -67 2 -36 3 -43 -1 -73 -41 -59 -76 -29 -142 42 -95 26 17 27 17 49 -11
20 -25 27 -27 60 -21 21 4 43 9 49 12 7 2 20 -9 29 -26 15 -26 23 -30 60 -30
69 0 140 47 172 112 32 67 92 274 101 353 4 33 16 74 26 91 11 17 19 36 19 43
0 19 -36 12 -59 -13z m-110 -400 c-10 -30 -29 -69 -41 -86 -34 -48 -108 -77
-125 -49 -12 18 45 117 86 149 34 28 88 52 97 45 2 -2 -6 -28 -17 -59z m-351
-15 c0 -5 -11 -16 -25 -25 -29 -19 -33 -11 -8 16 17 19 33 24 33 9z"/>
<path d="M11481 2910 c-177 -81 -357 -293 -369 -435 -5 -64 17 -103 75 -130
66 -32 352 -8 340 29 -3 8 -47 10 -149 7 -117 -3 -150 0 -175 12 -54 28 -57
79 -11 176 53 112 243 283 341 306 32 8 36 -6 10 -34 -41 -45 -47 -56 -47 -95
-1 -35 2 -41 20 -44 26 -4 57 35 79 99 21 60 19 95 -7 113 -29 21 -54 20 -107
-4z"/>
<path d="M6932 2898 c-7 -7 -12 -17 -12 -23 0 -6 -29 -41 -65 -78 -47 -48 -72
-66 -88 -64 -17 2 -22 -3 -22 -23 0 -82 162 28 210 142 12 29 12 38 1 47 -9 7
-16 7 -24 -1z"/>
<path d="M9840 2899 c-45 -18 -118 -70 -135 -95 -25 -39 -11 -75 60 -152 67
-72 89 -112 80 -142 -3 -10 -30 -35 -60 -56 -43 -29 -67 -38 -109 -42 -49 -4
-56 -2 -70 21 -16 23 -16 28 0 66 12 31 14 45 6 53 -30 30 -82 -75 -63 -125
35 -91 175 -89 291 4 47 38 64 80 50 128 -11 40 -56 107 -75 115 -15 5 -75 84
-75 97 0 17 105 78 150 88 36 8 48 7 62 -6 18 -16 38 -10 38 12 0 37 -90 58
-150 34z"/>
<path d="M11885 2900 c-3 -5 -4 -14 -1 -19 8 -12 -21 -92 -99 -271 -37 -85
-74 -176 -81 -203 -15 -57 -6 -102 22 -102 16 0 19 8 21 47 2 46 12 74 90 253
50 114 98 269 90 289 -7 18 -33 21 -42 6z"/>
<path d="M13360 2850 c-206 -49 -327 -71 -404 -73 -90 -3 -102 -7 -92 -32 4
-10 13 -14 28 -10 13 3 35 2 49 -2 l26 -8 -35 -82 c-29 -69 -38 -82 -60 -85
-32 -4 -41 -27 -13 -35 20 -5 20 -6 -8 -62 -45 -89 -64 -151 -50 -167 16 -19
28 -18 36 4 10 29 83 196 92 210 5 9 44 17 114 22 150 12 177 18 177 41 0 16
-8 19 -47 19 -27 0 -86 -7 -133 -14 -47 -8 -86 -13 -86 -13 -1 1 15 40 35 87
l37 85 49 8 c132 22 358 69 380 79 14 6 25 19 25 30 0 22 -19 22 -120 -2z"/>
<path d="M9501 2832 c-5 -10 -32 -91 -59 -179 -46 -148 -78 -230 -87 -221 -2
2 0 21 5 43 4 22 11 73 15 113 7 71 7 72 -17 72 -29 0 -73 -44 -118 -118 -18
-29 -34 -51 -37 -49 -2 3 3 36 12 73 9 38 18 78 21 89 2 11 9 42 15 68 8 36 8
52 0 60 -17 17 -28 0 -45 -68 -8 -33 -24 -92 -35 -131 -32 -116 -36 -158 -16
-178 25 -25 49 -6 113 89 l52 79 -6 -99 c-6 -86 -4 -102 10 -114 23 -19 55 4
88 65 26 49 129 361 132 399 1 26 -30 31 -43 7z"/>
<path d="M12665 2826 c-21 -21 -45 -85 -75 -202 -8 -34 -15 -43 -38 -47 -33
-7 -107 -69 -127 -108 -21 -40 -19 -92 6 -123 61 -77 150 32 204 249 30 124
51 184 71 207 17 18 13 48 -6 48 -6 0 -22 -11 -35 -24z m-104 -314 c-11 -39
-47 -107 -66 -126 -22 -22 -35 -12 -35 27 0 24 11 41 51 79 28 26 53 48 54 48
2 0 0 -13 -4 -28z"/>
<path d="M4675 2824 c-22 -9 -51 -16 -65 -16 -22 1 -31 -9 -57 -61 -86 -173
-87 -174 -120 -187 -82 -29 -83 -163 -2 -205 99 -52 298 -2 348 86 19 34 7
107 -25 154 l-24 36 30 26 c58 48 78 124 43 156 -28 24 -83 29 -128 11z m84
-43 c26 -16 3 -59 -54 -102 -30 -23 -55 -44 -55 -47 0 -4 18 -23 39 -42 42
-38 62 -99 44 -129 -15 -27 -117 -72 -175 -78 -41 -4 -64 -1 -93 13 -34 16
-36 18 -17 25 19 7 81 122 134 249 33 78 131 140 177 111z"/>
<path d="M8982 2806 c-42 -48 -92 -122 -123 -181 -23 -45 -29 -50 -63 -53 -29
-3 -36 -7 -34 -20 2 -9 13 -18 26 -20 12 -2 22 -6 22 -8 0 -10 -30 -63 -70
-123 -39 -59 -44 -81 -16 -81 13 0 90 116 122 182 14 31 24 38 56 43 22 4 41
5 43 3 2 -1 0 -32 -5 -68 -8 -70 -6 -80 15 -80 15 0 25 20 35 75 4 22 19 98
34 168 30 150 32 183 10 191 -22 8 -19 10 -52 -28z m0 -122 c-6 -22 -13 -51
-16 -65 -5 -22 -13 -28 -40 -31 -22 -2 -32 0 -29 7 38 63 86 135 90 131 2 -2
0 -21 -5 -42z"/>
<path d="M5296 2818 c-3 -7 -12 -40 -21 -72 -9 -32 -23 -68 -30 -80 -25 -38
-65 -174 -65 -218 0 -52 11 -71 36 -66 16 3 18 11 16 50 -3 35 8 79 42 180 48
139 60 208 39 215 -7 3 -15 -1 -17 -9z"/>
<path d="M14198 2803 c-14 -16 -44 -56 -67 -90 l-42 -62 -62 -3 c-49 -2 -62
-6 -65 -20 -3 -15 4 -18 48 -18 46 0 51 -2 45 -17 -5 -10 -15 -43 -22 -74 -19
-73 -2 -122 51 -144 45 -19 63 -18 105 3 47 23 36 38 -26 34 -92 -5 -111 38
-66 149 l15 38 63 -2 c67 -2 81 3 72 28 -4 9 -19 15 -39 15 -61 0 -62 11 -2
93 30 42 52 81 49 87 -11 17 -30 11 -57 -17z"/>
<path d="M2662 2786 c-42 -38 -126 -155 -159 -221 -12 -22 -29 -67 -39 -100
-18 -62 -62 -120 -101 -136 -24 -9 -31 -33 -13 -44 11 -7 67 20 97 47 21 20
21 20 28 -2 7 -23 60 -60 86 -60 9 0 40 7 68 17 38 12 51 21 51 36 0 15 -5 18
-22 13 -83 -24 -123 -18 -140 19 -9 21 -6 29 30 70 36 41 138 206 186 303 42
82 -4 119 -72 58z m-2 -93 c-12 -21 -42 -72 -66 -113 -24 -41 -53 -86 -64
-100 -18 -22 -18 -18 4 33 25 57 37 76 104 170 40 56 53 62 22 10z"/>
<path d="M16122 2798 c-7 -7 -12 -19 -12 -27 0 -9 -9 -38 -19 -66 -13 -35 -25
-51 -39 -53 -31 -5 -47 -29 -32 -47 7 -8 17 -12 22 -9 11 7 10 3 -27 -111 -14
-43 -19 -74 -14 -80 20 -21 44 15 77 112 l34 99 109 -4 c90 -4 113 -2 134 12
14 9 23 21 20 26 -4 6 -52 10 -108 11 -138 1 -138 1 -120 68 18 71 7 101 -25
69z"/>
<path d="M7840 2672 c-101 -30 -154 -107 -88 -128 20 -6 20 -6 -1 -25 -34 -31
-26 -109 10 -109 15 0 19 7 19 35 0 30 7 40 50 72 29 22 50 45 50 56 0 16 -6
19 -45 15 -25 -2 -45 0 -45 3 0 6 69 35 123 53 49 16 -22 44 -73 28z"/>
<path d="M15847 2673 c-13 -12 -7 -43 7 -43 8 0 16 -4 18 -10 4 -13 60 2 66
18 2 6 -13 18 -34 27 -41 17 -48 18 -57 8z"/>
<path d="M4909 2627 c-26 -20 -51 -77 -45 -103 8 -31 49 -41 90 -22 l31 15 -3
-41 c-3 -29 1 -46 12 -55 25 -21 43 -7 38 28 -2 18 5 56 18 92 26 68 19 91
-22 72 -18 -8 -30 -6 -53 8 -35 22 -44 23 -66 6z m56 -47 c6 -9 -42 -46 -50
-38 -6 6 24 48 35 48 5 0 11 -4 15 -10z"/>
<path d="M6493 2612 c-32 -28 -72 -102 -73 -134 -1 -59 56 -95 134 -85 56 6
206 65 213 84 13 35 -15 34 -110 -1 -99 -37 -154 -45 -175 -24 -19 19 -14 25
22 32 39 8 96 67 96 101 0 26 -29 55 -56 55 -10 -1 -33 -13 -51 -28z m46 -54
c-17 -33 -49 -51 -49 -28 0 11 52 61 58 56 2 -3 -2 -15 -9 -28z"/>
<path d="M5460 2608 c-18 -13 -42 -35 -53 -50 -17 -22 -18 -30 -7 -43 16 -19
60 -19 86 0 33 25 43 19 37 -24 -4 -31 -1 -43 16 -60 37 -37 80 -18 46 19 -15
17 -16 25 -5 62 6 24 14 56 17 72 5 27 4 28 -26 24 -19 -3 -36 1 -42 9 -16 18
-31 16 -69 -9z"/>
<path d="M5810 2619 c-13 -5 -39 -21 -56 -34 -20 -15 -39 -22 -52 -18 -16 4
-23 0 -28 -13 -3 -11 -12 -33 -19 -51 -12 -26 -12 -33 0 -43 10 -8 26 0 72 38
58 49 112 82 133 82 16 0 11 -51 -10 -99 -23 -49 -25 -72 -9 -88 15 -15 39 -5
39 17 0 10 9 37 20 61 22 50 26 107 8 132 -16 21 -66 30 -98 16z"/>
<path d="M6129 2593 c-73 -66 -100 -151 -59 -188 38 -34 286 -7 251 28 -7 7
-50 10 -116 8 -91 -2 -105 0 -105 14 0 25 25 67 59 99 33 31 30 32 47 -22 2
-8 10 -12 17 -9 19 7 13 78 -9 94 -27 20 -40 16 -85 -24z"/>
<path d="M14656 2596 c-9 -14 -16 -32 -16 -40 0 -22 21 -31 34 -14 6 8 19 17
28 21 14 5 16 12 9 29 -12 32 -35 34 -55 4z"/>
<path d="M2888 2564 c-21 -15 -47 -47 -59 -72 -20 -41 -21 -47 -8 -71 12 -21
22 -26 52 -25 20 1 44 7 53 14 30 26 55 90 52 133 -3 36 -6 42 -28 45 -15 1
-40 -8 -62 -24z m28 -82 c-18 -35 -42 -56 -55 -48 -14 9 4 54 32 84 18 19 22
20 29 7 5 -9 3 -26 -6 -43z"/>
<path d="M11980 2582 c0 -6 -22 -33 -49 -59 -73 -72 -80 -134 -17 -141 56 -7
135 72 122 122 -4 14 1 26 17 38 27 21 16 34 -35 43 -25 5 -38 3 -38 -3z m10
-92 c0 -13 -49 -60 -62 -60 -11 0 -2 17 25 48 22 24 37 29 37 12z"/>
<path d="M12187 2512 c-42 -65 -79 -100 -119 -115 -23 -8 -24 -47 -2 -47 9 0
29 9 45 21 16 11 37 18 45 15 9 -3 36 3 61 14 26 11 47 19 47 18 9 -25 28 -44
46 -46 20 -3 22 0 16 21 -3 14 1 41 9 60 13 31 13 36 -1 47 -16 14 -32 9 -94
-32 l-35 -23 22 31 c33 46 44 79 30 93 -18 18 -24 14 -70 -57z"/>
<path d="M13751 2551 c-14 -10 -31 -17 -38 -14 -19 7 -83 -64 -83 -92 0 -41
17 -37 82 15 34 27 65 50 69 50 3 0 4 -11 1 -25 -8 -42 6 -75 31 -75 21 0 22
4 22 78 l0 77 -30 3 c-18 1 -40 -6 -54 -17z"/>
<path d="M13250 2516 c-68 -50 -113 -148 -75 -163 19 -7 28 1 30 25 1 24 37
69 77 99 23 16 45 23 80 23 52 0 66 20 29 40 -39 20 -94 11 -141 -24z"/>
<path d="M13508 2523 c-1 -5 -20 -16 -40 -25 -40 -19 -73 -68 -63 -97 14 -47
103 -44 151 4 28 29 30 43 7 90 -15 32 -46 47 -55 28z m17 -73 c0 -7 -15 -20
-32 -27 -28 -11 -33 -11 -33 1 0 16 40 46 55 42 6 -1 10 -9 10 -16z"/>
<path d="M15800 2495 c-12 -20 -23 -50 -24 -68 -1 -26 3 -33 22 -35 17 -3 22
2 22 20 1 13 7 34 15 48 19 33 19 70 1 70 -8 0 -24 -16 -36 -35z"/>
<path d="M1553 2478 c-17 -22 -165 -461 -171 -505 -4 -37 -2 -43 14 -43 19 0
26 19 169 469 13 41 22 78 19 83 -7 12 -20 10 -31 -4z"/>
<path d="M7553 2418 c-11 -13 -30 -41 -41 -63 -20 -41 -62 -198 -62 -234 0
-19 -32 -46 -42 -35 -9 8 -60 -59 -84 -111 -53 -113 -5 -173 88 -110 29 19 41
37 53 77 8 28 15 62 15 74 0 13 5 26 10 29 6 4 8 14 6 23 -8 25 39 223 64 271
11 23 32 47 45 53 14 6 25 19 25 30 0 27 -51 24 -77 -4z m-128 -425 c-9 -63
-31 -103 -55 -103 -11 0 -20 5 -20 10 0 28 61 140 77 140 3 0 2 -21 -2 -47z"/>
<path d="M10953 2357 c-11 -12 -29 -35 -39 -52 -10 -16 -38 -57 -62 -90 -42
-58 -46 -60 -95 -65 -37 -4 -52 -9 -52 -20 0 -10 13 -16 42 -18 l43 -3 -16
-31 c-34 -65 -12 -148 44 -169 39 -15 92 -3 92 21 0 16 -7 20 -33 20 -69 0
-88 50 -49 126 20 40 22 41 83 47 63 5 86 17 74 36 -4 8 -24 9 -56 5 -27 -4
-49 -4 -49 0 0 4 17 30 39 59 59 79 83 132 67 146 -9 8 -18 5 -33 -12z"/>
<path d="M14626 2368 c-27 -96 -41 -132 -66 -167 -32 -44 -70 -66 -81 -48 -11
16 -39 0 -39 -22 0 -45 72 -49 118 -7 36 32 95 161 96 208 1 39 -20 66 -28 36z"/>
<path d="M15256 2273 c-47 -59 -100 -133 -118 -165 l-33 -57 -50 2 c-39 1 -50
-1 -50 -13 0 -8 11 -16 25 -18 39 -6 43 -16 19 -61 -25 -48 -28 -87 -8 -107
19 -19 110 -35 145 -25 16 4 30 14 32 23 2 12 -12 17 -64 22 -37 4 -71 9 -76
12 -5 3 6 32 23 65 31 58 33 59 73 59 23 0 47 -5 53 -11 13 -13 33 -4 33 15 0
16 -36 34 -73 38 l-27 3 37 55 c20 30 70 96 110 146 75 93 88 124 54 124 -12
0 -50 -38 -105 -107z"/>
<path d="M5137 2353 c-3 -5 -15 -53 -26 -108 -27 -125 -67 -233 -99 -264 -18
-18 -22 -30 -17 -50 9 -37 22 -49 65 -62 49 -15 96 0 138 44 47 48 51 86 14
128 -28 32 -31 33 -67 22 l-37 -12 7 27 c23 91 55 264 50 272 -7 12 -22 13
-28 3z m53 -343 c17 -31 3 -58 -42 -81 -31 -16 -48 -19 -71 -12 l-30 8 50 53
c53 56 76 64 93 32z"/>
<path d="M8811 2146 c-69 -144 -70 -145 -108 -151 -56 -10 -65 -14 -60 -28 2
-6 20 -12 40 -12 21 0 37 -1 37 -2 0 -1 -11 -28 -25 -59 -14 -31 -28 -73 -31
-93 -5 -33 -9 -36 -40 -37 -53 -1 -66 -21 -72 -109 -5 -76 -5 -77 -38 -91 -60
-25 -116 -122 -94 -163 14 -27 44 -27 86 0 53 33 81 91 89 184 9 121 12 130
44 142 17 6 35 7 42 2 8 -5 44 -9 80 -9 51 0 72 5 90 19 13 11 21 23 17 27 -4
4 -42 6 -84 5 l-77 -2 6 28 c3 15 19 58 36 95 29 66 30 67 73 70 53 4 61 31
11 36 -18 2 -33 5 -33 6 0 2 18 41 39 87 41 88 71 165 71 187 0 6 -7 12 -15
12 -9 0 -41 -54 -84 -144z m-271 -640 c0 -28 -72 -97 -87 -83 -6 7 15 47 40
75 23 25 47 29 47 8z"/>
<path d="M7706 2242 c-19 -36 -46 -143 -40 -154 13 -21 34 -5 44 35 6 23 18
61 26 84 23 62 -2 90 -30 35z"/>
<path d="M1704 2217 c-17 -7 -38 -18 -47 -26 -21 -17 -22 -73 -1 -112 8 -17
14 -48 12 -72 -3 -36 -7 -43 -27 -45 -25 -4 -44 14 -36 35 2 6 -2 17 -10 23
-11 9 -16 7 -24 -9 -15 -28 -14 -53 5 -79 11 -17 25 -22 57 -22 23 0 47 4 53
8 35 23 45 107 19 169 -28 66 -13 89 65 103 22 3 35 11 35 20 0 19 -58 23
-101 7z"/>
<path d="M12358 2127 c-20 -24 -58 -77 -85 -119 -27 -41 -54 -73 -61 -70 -13
4 -51 -34 -71 -71 -13 -25 -10 -57 7 -57 4 0 39 31 77 69 l69 70 13 -30 c14
-35 26 -36 77 -8 33 17 38 18 32 4 -6 -17 9 -55 28 -67 17 -11 38 12 25 28
-14 17 10 87 49 146 25 38 24 68 -1 68 -7 0 -28 -20 -45 -44 -32 -44 -109
-112 -117 -104 -7 7 31 113 56 158 22 39 20 70 -4 70 -7 0 -29 -20 -49 -43z"/>
<path d="M12690 2149 c-24 -11 -48 -25 -52 -32 -4 -7 -8 -49 -8 -93 0 -65 -4
-87 -19 -105 l-18 -23 5 33 c4 28 2 32 -14 29 -23 -4 -57 -69 -48 -91 16 -42
90 -21 124 36 16 25 20 50 20 113 0 89 4 97 60 111 38 10 48 36 15 40 -11 2
-40 -6 -65 -18z"/>
<path d="M1143 2140 c-25 -10 -73 -73 -93 -119 -28 -69 14 -108 75 -71 l35 22
0 -30 c0 -32 25 -66 41 -57 5 4 9 27 9 53 0 26 7 57 15 69 8 12 18 42 21 67 6
41 4 46 -12 46 -11 0 -28 7 -38 15 -22 17 -23 17 -53 5z m37 -67 c0 -17 -67
-93 -82 -93 -14 0 -9 15 22 63 30 47 60 62 60 30z"/>
<path d="M1888 2133 c-43 -22 -80 -78 -86 -128 -9 -80 36 -98 114 -45 54 38
78 81 71 127 -11 63 -41 77 -99 46z m56 -39 c15 -40 -11 -82 -71 -113 -30 -15
-33 -14 -33 12 1 33 33 86 61 102 32 18 36 18 43 -1z"/>
<path d="M5361 2109 c-45 -47 -101 -146 -101 -178 0 -12 12 -34 26 -48 22 -22
32 -25 72 -20 88 10 211 82 186 107 -9 9 -27 5 -76 -19 -73 -34 -142 -49 -152
-32 -12 19 4 49 29 55 14 4 45 26 70 49 34 33 45 51 45 73 0 65 -43 71 -99 13z
m59 -22 c0 -2 -14 -16 -32 -33 l-32 -29 25 32 c20 27 39 41 39 30z"/>
<path d="M6980 2131 c-19 -11 -46 -31 -59 -45 -21 -23 -23 -31 -17 -84 6 -50
4 -62 -14 -85 -12 -15 -28 -27 -35 -27 -14 0 -31 52 -26 82 3 22 -13 30 -33
15 -13 -10 -15 -22 -10 -61 13 -90 67 -111 132 -52 37 35 37 35 35 109 -3 84
6 99 74 122 21 7 38 19 38 27 0 20 -46 20 -85 -1z"/>
<path d="M7155 2089 c-25 -23 -51 -60 -61 -85 -16 -42 -16 -48 -1 -79 17 -36
50 -51 90 -41 25 6 51 42 42 56 -8 13 -65 13 -65 0 0 -5 -4 -10 -10 -10 -5 0
-10 7 -10 15 0 8 6 15 14 15 7 0 32 17 55 38 48 43 62 89 36 115 -25 25 -41
21 -90 -24z m29 -65 c-39 -31 -44 -21 -8 17 18 19 30 25 33 18 2 -7 -9 -23
-25 -35z"/>
<path d="M12932 2114 c-32 -22 -72 -107 -72 -151 0 -54 22 -81 73 -88 54 -8
104 9 87 30 -7 9 -22 12 -40 9 -52 -11 -97 36 -49 51 11 4 36 20 55 37 39 35
46 84 16 111 -23 21 -41 21 -70 1z m48 -59 c0 -15 -47 -51 -55 -43 -2 2 5 19
16 36 19 32 39 35 39 7z"/>
<path d="M13230 2119 c-14 -6 -38 -22 -54 -37 -30 -29 -98 -125 -109 -155 -7
-20 8 -57 23 -57 12 0 80 105 80 123 0 7 16 28 35 47 28 27 44 34 81 36 56 3
62 8 39 34 -19 21 -55 25 -95 9z"/>
<path d="M10013 2100 c-87 -55 -192 -221 -154 -244 11 -7 44 30 66 73 22 43
103 131 121 131 8 0 24 -11 36 -25 12 -14 30 -25 40 -25 17 0 17 -2 3 -24 -39
-59 6 -115 76 -96 51 14 80 49 82 100 1 33 -4 46 -22 61 -14 12 -28 16 -39 10
-9 -4 -31 -14 -47 -23 -31 -15 -31 -14 -63 28 -39 50 -61 58 -99 34z m207
-115 c16 -19 0 -41 -35 -48 -29 -5 -31 4 -9 38 19 29 27 31 44 10z"/>
<path d="M3140 2103 c-23 -8 -69 -54 -91 -90 -49 -79 -43 -134 17 -159 30 -13
48 -13 112 -4 95 15 122 25 122 46 0 13 -6 15 -32 10 -18 -3 -65 -9 -104 -12
-57 -5 -73 -3 -87 10 -22 22 -6 66 43 117 40 42 75 50 95 22 14 -19 35 -9 35
17 0 36 -62 60 -110 43z"/>
<path d="M6610 2078 c-11 -18 -20 -38 -20 -44 0 -16 -100 -124 -116 -124 -24
0 -78 -55 -71 -73 10 -25 20 -21 91 33 l65 50 3 -33 c4 -43 30 -46 78 -8 29
23 37 26 33 12 -5 -22 21 -45 42 -37 12 4 13 10 6 25 -9 15 -3 34 24 88 62
122 38 127 -66 11 -53 -58 -75 -77 -77 -65 -5 24 17 86 43 125 24 35 23 72 -1
72 -8 0 -23 -15 -34 -32z"/>
<path d="M11105 2088 c-32 -25 -55 -74 -55 -119 0 -22 10 -41 35 -66 34 -34
38 -36 94 -30 88 8 201 74 201 118 0 29 -29 31 -53 2 -29 -34 -113 -73 -158
-73 -31 0 -69 23 -69 42 0 3 20 13 45 22 49 19 75 48 75 83 0 44 -69 57 -115
21z m63 -40 c-5 -14 -50 -40 -57 -33 -2 3 4 14 14 25 20 22 49 27 43 8z"/>
<path d="M3667 2094 c-4 -4 -7 -16 -7 -27 0 -11 -14 -45 -30 -74 -30 -52 -32
-73 -7 -73 6 0 30 21 54 48 l42 47 1 -47 c0 -39 4 -50 25 -64 27 -17 57 -14
90 10 16 12 17 17 8 27 -10 10 -18 10 -39 0 -15 -6 -29 -10 -31 -7 -2 2 -6 28
-8 58 -2 29 -4 57 -4 62 -1 5 -14 6 -30 3 -25 -5 -30 -3 -33 15 -3 22 -19 33
-31 22z"/>
<path d="M10412 2003 c-62 -63 -90 -99 -83 -106 6 -6 20 -2 39 12 29 21 30 21
35 1 9 -35 62 -19 140 42 34 27 37 28 37 10 0 -32 11 -52 29 -52 14 0 16 12
16 80 0 49 -4 80 -10 80 -6 0 -33 -23 -60 -51 -28 -28 -63 -57 -78 -65 l-28
-15 16 30 c8 17 29 47 46 66 30 34 34 65 7 65 -7 -1 -55 -44 -106 -97z"/>
<path d="M13435 2071 c-38 -8 -43 -37 -16 -82 36 -59 25 -97 -25 -85 -18 5
-24 13 -24 35 0 37 -10 45 -32 24 -47 -42 2 -113 80 -113 60 0 97 93 57 146
-26 35 -19 47 24 40 46 -7 65 9 36 31 -20 14 -49 15 -100 4z"/>
<path d="M3387 2040 c-63 -55 -77 -132 -25 -138 15 -2 37 2 49 9 19 10 25 9
35 -6 18 -25 41 -12 42 23 0 17 10 50 22 73 19 41 19 45 3 56 -31 24 -89 16
-126 -17z m68 -42 c-31 -38 -75 -65 -75 -47 0 17 66 79 85 79 14 0 12 -6 -10
-32z"/>
<path d="M15315 2008 c-61 -72 -59 -120 6 -126 66 -7 159 38 159 77 0 24 -79
91 -106 91 -14 0 -36 -16 -59 -42z m105 -48 c0 -10 -55 -30 -82 -30 -19 0 -19
1 2 29 19 27 23 29 50 19 17 -5 30 -14 30 -18z"/>
<path d="M8984 2012 c-38 -42 -74 -96 -75 -111 -4 -45 17 -71 56 -71 35 0 114
57 132 94 15 32 15 37 0 59 -22 34 -93 52 -113 29z m60 -48 c22 -9 5 -37 -39
-64 -42 -26 -54 -20 -35 18 27 53 38 60 74 46z"/>
<path d="M14023 1945 c-97 -27 -168 -74 -146 -96 6 -6 25 -1 55 16 51 28 144
47 188 38 42 -8 70 -38 70 -75 0 -43 -87 -128 -153 -151 -44 -15 -66 -10 -52
12 15 25 22 101 10 111 -17 14 -30 -3 -48 -65 -10 -36 -19 -50 -33 -51 -39 -2
-44 -4 -44 -19 0 -9 7 -27 16 -40 15 -22 14 -30 -17 -120 -22 -68 -29 -99 -21
-107 20 -20 38 0 57 61 10 34 21 64 25 66 4 2 21 -43 39 -100 25 -83 39 -112
67 -140 19 -19 39 -35 45 -35 23 0 19 32 -9 67 -25 31 -71 152 -110 290 -2 7
10 11 31 11 71 0 196 82 233 153 59 114 -58 214 -203 174z"/>
<path d="M7792 1881 c-21 -32 -54 -97 -72 -144 l-34 -86 -70 -8 c-53 -6 -71
-12 -71 -23 0 -12 13 -15 62 -13 l62 1 -5 -31 c-3 -18 -7 -40 -9 -50 -6 -32
15 -86 42 -107 20 -16 38 -20 72 -18 61 4 63 24 4 41 -52 15 -76 45 -68 84 16
78 12 73 63 73 53 0 95 21 71 35 -7 5 -32 8 -56 6 -24 -1 -43 0 -43 2 0 15 53
142 84 201 20 38 36 75 36 82 0 31 -31 10 -68 -45z"/>
<path d="M3912 1878 c-6 -7 -18 -45 -27 -83 -8 -39 -25 -98 -37 -133 -18 -54
-26 -65 -55 -77 -37 -16 -40 -41 -4 -39 25 1 25 1 6 -62 -8 -27 -15 -61 -15
-76 0 -55 43 -43 53 15 3 17 12 58 22 90 l16 57 58 0 c62 0 73 4 64 26 -3 10
-22 14 -58 14 l-52 0 29 123 c16 67 30 128 31 136 3 19 -18 25 -31 9z"/>
<path d="M15910 1879 c-19 -4 -57 -11 -83 -14 -41 -5 -52 -11 -65 -37 -10 -16
-34 -52 -55 -79 -58 -74 -50 -85 54 -80 l85 3 37 -35 c55 -51 52 -84 -15 -137
-58 -47 -141 -90 -174 -90 -11 0 -29 6 -40 14 -19 14 -19 15 5 46 16 23 20 35
12 43 -17 17 -56 -7 -75 -48 -16 -33 -16 -38 -2 -60 19 -29 85 -49 129 -40 52
11 141 63 196 114 47 43 51 51 51 92 0 82 -78 149 -174 149 l-45 0 30 45 c16
24 33 47 37 49 5 3 35 6 67 7 55 3 95 19 95 40 0 16 -36 26 -70 18z"/>
<path d="M16300 1854 c-109 -20 -135 -29 -135 -45 0 -11 14 -14 57 -13 56 2
57 1 36 -16 -30 -24 -17 -47 33 -60 23 -7 55 -24 71 -40 24 -24 28 -36 28 -83
0 -43 -6 -62 -28 -93 -44 -60 -106 -99 -153 -95 -25 2 -79 62 -79 87 0 29 -16
39 -35 24 -35 -29 -5 -100 60 -140 63 -39 119 -27 202 44 112 97 113 258 1
321 l-36 20 59 33 c62 34 67 40 47 60 -15 15 -32 14 -128 -4z"/>
<path d="M5027 1843 c-2 -5 -10 -39 -16 -78 -13 -76 -30 -159 -38 -188 -4 -14
-14 -17 -56 -15 -41 2 -52 0 -52 -12 0 -10 16 -18 43 -24 38 -8 43 -12 38 -30
-3 -12 -11 -49 -17 -83 -13 -73 1 -136 29 -131 14 3 17 16 18 63 0 33 7 86 14
117 l13 58 46 6 c37 5 49 11 58 31 16 33 9 43 -29 43 -21 0 -31 -6 -35 -20 -3
-11 -12 -20 -20 -20 -10 0 -13 6 -9 16 4 10 13 56 22 104 8 48 19 102 24 120
5 18 7 37 4 41 -6 11 -31 12 -37 2z"/>
<path d="M10335 1821 c-11 -5 -41 -28 -67 -51 -43 -37 -75 -91 -129 -215 -12
-27 -31 -204 -23 -216 15 -24 29 4 49 92 l21 94 64 0 c51 0 65 3 68 16 2 13
-10 18 -58 25 l-61 9 31 62 c35 70 103 136 131 128 24 -8 45 30 28 51 -13 16
-24 17 -54 5z"/>
<path d="M14860 1815 c-9 -11 -10 -19 -3 -26 7 -7 0 -36 -21 -92 -32 -81 -33
-82 -77 -93 -29 -7 -45 -17 -48 -29 -3 -15 2 -17 36 -13 l40 6 -23 -81 c-28
-95 -29 -113 -8 -125 14 -8 13 -15 -6 -73 -12 -35 -52 -129 -89 -209 -38 -80
-71 -158 -75 -173 -7 -28 6 -57 25 -57 5 0 37 29 71 65 33 36 62 64 63 63 2
-2 0 -24 -4 -50 -16 -98 28 -91 54 9 26 98 25 117 -4 121 -18 3 -37 -10 -80
-55 l-58 -59 55 116 c55 116 73 161 97 236 11 35 11 46 -1 69 -8 16 -12 35
-10 44 45 159 46 160 74 163 33 4 45 38 13 38 -27 0 -27 0 9 92 24 61 28 82
20 102 -11 29 -31 33 -50 11z"/>
<path d="M12475 1796 c-63 -15 -88 -29 -114 -62 -39 -50 -29 -80 54 -161 85
-82 92 -104 46 -155 -28 -31 -29 -32 -71 -19 -23 7 -54 25 -67 39 -23 25 -25
32 -19 92 12 122 12 125 -4 125 -43 0 -66 -163 -32 -225 22 -40 80 -76 138
-85 34 -6 45 -3 72 20 59 50 76 109 48 163 -8 15 -42 51 -75 80 -34 29 -61 61
-61 71 0 27 32 51 91 66 58 16 68 13 49 -10 -22 -27 3 -41 34 -19 75 55 18
106 -89 80z"/>
<path d="M11618 1733 c-24 -31 -68 -90 -98 -132 -30 -42 -70 -85 -87 -96 -18
-11 -32 -27 -33 -34 0 -8 -12 -32 -26 -53 -24 -34 -27 -68 -7 -68 5 0 26 24
48 54 40 55 48 59 136 72 l36 6 -9 -51 c-13 -61 -4 -104 19 -99 13 2 20 22 29
79 6 42 28 135 48 208 21 73 34 141 31 151 -11 36 -43 22 -87 -37z m2 -120
c-11 -38 -26 -70 -33 -71 -7 -1 -25 -4 -41 -8 l-29 -7 23 34 c48 69 94 128 97
125 3 -2 -5 -35 -17 -73z"/>
<path d="M2837 1760 c-33 -26 -62 -105 -77 -207 l-12 -81 -76 -8 c-58 -7 -77
-13 -77 -24 0 -12 14 -15 72 -13 l71 3 -9 -36 c-6 -19 -26 -76 -45 -126 -35
-90 -35 -118 -1 -105 15 6 78 159 97 234 9 37 14 42 43 45 45 4 52 38 7 38
-32 0 -32 0 -25 43 19 130 53 215 84 213 9 -1 17 8 19 22 3 18 -1 22 -21 22
-13 0 -36 -9 -50 -20z"/>
<path d="M12092 1763 c-5 -10 -21 -60 -36 -112 -15 -52 -44 -131 -65 -175
l-39 -81 2 85 c1 110 -11 111 -84 5 l-55 -80 -3 43 c-2 24 9 91 23 149 19 76
24 108 16 116 -7 7 -14 7 -20 2 -14 -15 -40 -112 -56 -209 -13 -77 -13 -93 0
-123 20 -48 40 -41 98 36 l48 63 -7 -39 c-7 -48 9 -93 34 -93 25 0 54 33 86
98 30 59 86 221 86 248 0 9 7 25 15 34 9 10 13 25 9 34 -8 21 -41 21 -52 -1z"/>
<path d="M2321 1686 c-10 -11 -9 -20 1 -38 7 -13 17 -26 23 -30 28 -21 35 40
6 66 -16 14 -20 15 -30 2z"/>
<path d="M8310 1649 c0 -25 33 -22 38 4 2 12 -3 17 -17 17 -15 0 -21 -6 -21
-21z"/>
<path d="M3534 1630 c-22 -10 -46 -26 -53 -34 -16 -19 -17 -63 -1 -110 11 -35
10 -40 -8 -58 l-20 -20 -11 21 c-18 33 -41 26 -41 -12 0 -40 15 -57 50 -57 28
0 75 38 85 69 3 11 -1 43 -9 71 -15 51 -15 52 9 76 13 13 33 24 45 24 25 0 38
29 19 41 -18 11 -17 11 -65 -11z"/>
<path d="M15031 1637 c-42 -21 -83 -82 -88 -130 -5 -39 -2 -49 20 -71 22 -21
35 -26 79 -26 55 0 113 23 132 53 16 26 0 31 -44 13 -44 -17 -125 -22 -135 -7
-3 6 17 33 45 61 43 44 51 57 48 83 -3 36 -21 43 -57 24z"/>
<path d="M5882 1614 c-72 -36 -102 -74 -102 -130 0 -89 45 -134 132 -134 42 1
71 10 138 43 86 43 113 68 95 86 -7 7 -40 -4 -100 -34 -103 -51 -161 -59 -195
-25 -31 31 -26 57 13 65 106 21 146 58 125 115 -17 47 -35 49 -106 14z m58
-55 c-6 -10 -14 -19 -18 -19 -4 0 -24 -4 -44 -9 -21 -5 -38 -7 -38 -5 0 3 21
18 46 34 50 31 71 31 54 -1z"/>
<path d="M4064 1601 c-75 -46 -139 -246 -79 -246 16 0 19 6 17 32 -4 39 31
114 71 154 27 27 31 29 47 14 20 -18 30 -11 30 22 0 16 -8 27 -26 33 -31 12
-23 13 -60 -9z"/>
<path d="M8060 1613 c-23 -9 -29 -23 -36 -83 -4 -30 -13 -66 -20 -80 l-13 -25
-1 28 c0 15 -6 27 -13 27 -43 0 -52 -80 -12 -106 14 -9 31 -14 40 -11 19 8 65
100 65 130 0 14 3 39 6 57 6 29 10 31 35 26 35 -7 49 12 24 31 -19 13 -49 16
-75 6z"/>
<path d="M8785 1569 c-54 -50 -61 -95 -20 -127 52 -41 185 -34 185 10 0 14 -7
16 -47 12 -51 -5 -101 5 -105 21 -2 6 19 21 46 35 27 14 51 30 53 36 5 14 -34
54 -53 54 -8 0 -35 -19 -59 -41z"/>
<path d="M4227 1501 c-143 -128 -153 -139 -140 -152 9 -9 27 1 75 41 35 30 70
60 79 67 13 11 12 3 -4 -48 -18 -54 -19 -62 -5 -76 23 -23 52 -8 92 45 32 44
76 91 76 81 0 -2 -4 -20 -10 -39 -13 -46 4 -113 28 -108 12 3 16 11 13 28 -6
32 -5 53 4 117 7 44 5 54 -9 59 -23 9 -61 -19 -109 -81 -23 -30 -43 -51 -45
-45 -2 5 15 48 37 96 37 78 43 105 23 103 -4 0 -51 -40 -105 -88z"/>
<path d="M5675 1583 c-51 -13 -82 -65 -91 -157 -6 -62 -6 -66 14 -66 17 0 21
9 27 53 12 86 42 127 94 127 26 0 36 17 21 35 -13 15 -28 17 -65 8z"/>
<path d="M7060 1560 c-11 -11 -20 -24 -20 -28 0 -4 -15 -13 -33 -20 -25 -9
-41 -26 -60 -61 -15 -27 -27 -57 -27 -67 0 -15 -8 -19 -36 -21 -19 -1 -42 -7
-50 -14 -28 -23 -54 -88 -73 -180 -19 -93 -29 -109 -68 -109 -27 0 -98 -61
-119 -101 -21 -42 -17 -67 15 -100 22 -22 39 -29 68 -29 21 0 43 4 50 8 23 14
85 215 108 347 11 64 40 122 66 130 13 4 27 12 31 18 4 6 13 4 24 -7 35 -36
131 11 188 91 37 53 40 117 6 145 -29 23 -45 23 -70 -2z m43 -67 c-5 -11 -8
-12 -13 -2 -5 7 -6 19 -3 26 5 11 8 12 13 2 5 -7 6 -19 3 -26z m-37 -34 c19
-21 19 -21 -19 -54 -63 -55 -96 -51 -66 8 14 26 50 67 59 67 4 0 15 -9 26 -21z
m-347 -461 c-25 -88 -37 -113 -59 -116 -24 -4 -50 14 -50 33 0 19 49 75 85 96
16 11 31 19 32 19 1 0 -3 -15 -8 -32z"/>
<path d="M2991 1545 c-16 -14 -42 -52 -56 -83 -15 -31 -31 -65 -36 -75 -5 -10
-7 -22 -4 -27 13 -20 35 -9 49 25 8 19 29 55 46 80 25 36 37 45 61 45 37 0 50
27 24 46 -27 20 -50 17 -84 -11z"/>
<path d="M3194 1560 c-23 -9 -71 -63 -87 -98 -8 -18 -7 -26 5 -38 14 -14 19
-14 49 0 19 8 44 23 57 32 22 16 22 16 22 -24 0 -46 31 -85 64 -80 30 5 31 27
2 38 -21 8 -26 16 -26 43 0 19 5 48 11 65 19 54 -33 88 -97 62z m46 -33 c0 -2
-21 -19 -47 -37 l-48 -33 34 36 c29 30 61 48 61 34z"/>
<path d="M4608 1557 c-48 -22 -98 -75 -98 -105 0 -73 105 -128 190 -99 58 20
45 41 -26 42 -69 1 -114 23 -114 56 0 26 41 67 77 74 48 11 55 15 51 28 -6 17
-47 19 -80 4z"/>
<path d="M7340 1529 c-49 -52 -110 -139 -110 -156 0 -21 23 -27 36 -8 13 17
14 17 32 -5 24 -30 59 -22 112 26 39 36 40 36 40 12 0 -28 25 -66 36 -55 5 4
8 29 9 55 0 26 4 59 9 74 6 22 4 29 -9 34 -13 5 -27 -4 -51 -33 -36 -44 -111
-99 -121 -90 -6 6 20 60 63 134 15 25 16 35 7 44 -10 10 -21 3 -53 -32z"/>
<path d="M5269 1498 c-32 -71 -59 -107 -91 -124 -28 -15 -39 -44 -16 -44 6 0
0 -13 -15 -28 -36 -38 -62 -116 -77 -232 -7 -52 -16 -99 -20 -104 -5 -4 -32
-9 -61 -10 -41 -1 -54 -5 -57 -17 -2 -13 9 -17 49 -22 28 -4 54 -9 57 -11 3
-3 -1 -33 -8 -67 -15 -69 -64 -150 -129 -214 -43 -41 -51 -62 -27 -71 24 -9
51 12 110 90 60 78 90 141 101 217 6 42 10 48 38 53 36 7 57 23 57 44 0 11 -8
13 -35 9 -33 -5 -35 -4 -35 21 0 44 29 198 44 234 19 45 61 82 94 83 35 0 39
38 5 43 -23 3 -30 16 -14 26 5 3 14 -1 21 -9 20 -24 51 -18 87 17 29 28 33 29
33 12 0 -29 28 -64 52 -64 17 0 19 4 13 23 -17 53 -16 75 5 120 22 46 20 67
-5 67 -7 0 -40 -32 -72 -72 -32 -39 -64 -73 -70 -76 -20 -6 -15 34 11 86 25
51 24 72 -3 72 -11 0 -26 -18 -42 -52z"/>
<path d="M14185 1497 c-29 -29 -58 -71 -65 -92 -12 -36 -11 -40 9 -56 27 -22
62 -12 109 32 50 46 65 74 56 101 -5 13 -9 32 -9 43 0 13 -8 21 -24 23 -17 3
-36 -10 -76 -51z m59 -25 c3 -5 -13 -26 -34 -47 -48 -47 -53 -35 -8 18 36 41
35 40 42 29z"/>
<path d="M14432 1498 c-21 -29 -67 -79 -101 -111 -58 -53 -69 -77 -35 -77 7 0
31 16 52 35 29 26 42 31 50 23 14 -14 50 0 103 43 l38 30 -10 -35 c-12 -44 3
-86 31 -86 24 0 37 25 22 43 -7 8 -4 31 9 72 10 33 19 68 19 78 0 31 -44 19
-94 -24 -25 -22 -46 -36 -46 -31 0 5 7 15 16 22 17 15 15 61 -3 67 -6 2 -29
-20 -51 -49z"/>
<path d="M2388 1478 c-32 -35 -58 -68 -58 -75 0 -31 25 -20 75 31 60 63 79 71
68 29 -14 -50 -10 -107 8 -111 29 -5 53 150 27 176 -27 27 -61 13 -120 -50z"/>
<path d="M2232 1505 c-43 -54 -68 -240 -32 -240 11 0 17 17 22 64 9 78 32 149
54 166 18 13 11 35 -11 35 -7 0 -22 -11 -33 -25z"/>
<path d="M9935 1523 c-29 -7 -44 -22 -66 -64 -37 -74 -18 -116 49 -106 52 9
92 55 92 106 0 69 -12 79 -75 64z m24 -79 c7 -7 -42 -54 -56 -54 -16 0 -16 11
-1 45 9 19 16 24 32 19 12 -4 23 -8 25 -10z"/>
<path d="M8217 1493 c-7 -15 -22 -42 -32 -59 -10 -17 -16 -38 -12 -47 8 -23
37 -22 37 1 0 9 12 34 26 55 26 38 29 67 7 74 -6 2 -18 -9 -26 -24z"/>
<path d="M12167 1423 c-4 -3 -7 -14 -7 -24 0 -43 -87 -284 -141 -389 -53 -103
-57 -116 -43 -130 17 -17 6 -27 108 104 33 42 64 76 69 76 6 0 7 -19 3 -46 -9
-68 2 -124 25 -124 11 0 19 6 20 13 10 160 9 177 -11 197 -14 14 -28 19 -41
15 -24 -8 -24 -11 10 104 38 127 50 181 44 198 -5 14 -25 17 -36 6z"/>
<path d="M12706 1406 c-20 -31 -21 -60 -1 -76 26 -22 41 -5 40 46 0 54 -15 66
-39 30z"/>
<path d="M13310 1384 c-6 -14 -10 -30 -10 -36 0 -21 -71 -173 -107 -229 -36
-55 -40 -58 -83 -61 -55 -4 -65 -31 -13 -36 l32 -3 -30 -52 c-36 -59 -42 -100
-17 -105 12 -2 26 14 48 59 36 71 71 109 99 109 24 0 65 55 57 76 -4 12 -10
12 -26 4 -22 -12 -24 -18 42 130 29 65 51 147 43 161 -11 16 -25 10 -35 -17z"/>
<path d="M13052 1374 c-12 -8 -22 -21 -21 -27 3 -23 -1 -36 -15 -50 -8 -7 -37
-78 -66 -158 -83 -230 -94 -285 -65 -309 22 -18 32 -5 39 55 3 30 18 85 32
123 14 37 41 112 60 167 19 55 45 120 58 145 33 63 23 86 -22 54z"/>
<path d="M13363 1142 c-62 -125 -113 -233 -113 -240 0 -7 7 -15 14 -18 13 -5
40 14 187 134 l28 22 -6 -54 c-5 -46 -2 -57 16 -75 22 -22 47 -26 70 -12 19
12 6 41 -19 41 -25 0 -26 28 -4 93 9 26 13 54 10 62 -13 35 -85 4 -170 -74
-28 -26 -28 -25 11 54 121 244 135 286 103 292 -11 2 -48 -64 -127 -225z"/>
<path d="M15631 1300 c-7 -27 -17 -53 -22 -56 -21 -13 -159 -320 -159 -354 0
-39 32 -17 64 44 42 81 67 98 132 90 80 -10 81 -11 49 -98 -15 -42 -25 -79
-22 -82 24 -24 71 46 93 139 10 41 -18 75 -67 83 l-41 7 63 40 c92 58 159 116
159 138 0 28 -20 23 -60 -15 -34 -34 -231 -168 -237 -162 -3 2 17 49 72 171 7
17 16 47 20 68 6 32 5 37 -12 37 -15 0 -22 -12 -32 -50z"/>
<path d="M3202 1248 c1 -50 -6 -83 -33 -158 -18 -52 -39 -101 -46 -108 -8 -8
-13 -41 -13 -86 0 -63 3 -75 23 -94 36 -34 79 -29 122 14 81 80 105 148 74
205 -12 24 -68 25 -109 4 l-29 -15 13 43 c43 137 49 167 40 209 -6 28 -15 44
-26 46 -16 3 -18 -5 -16 -60z m98 -277 c0 -10 -19 -44 -42 -75 -56 -76 -98
-88 -98 -26 0 44 18 75 58 98 47 27 82 29 82 3z"/>
<path d="M8202 1265 c-51 -44 -96 -133 -119 -235 l-17 -78 -68 -7 c-39 -4 -72
-13 -79 -21 -21 -25 3 -33 69 -22 35 5 66 7 69 5 9 -9 -27 -129 -53 -177 -39
-72 -126 -183 -162 -205 -37 -24 -38 -49 -1 -53 21 -2 36 8 74 50 105 117 174
244 190 351 6 40 11 47 30 47 29 0 52 25 33 36 -7 5 -21 7 -31 5 -16 -2 -18 2
-12 31 15 75 49 162 79 201 33 43 86 72 93 51 2 -6 10 -20 18 -30 11 -15 16
-16 26 -7 10 10 9 21 -6 53 -16 36 -22 40 -55 40 -27 0 -47 -9 -78 -35z"/>
<path d="M11050 1284 c-58 -19 -90 -39 -100 -64 -19 -46 -2 -96 54 -162 93
-109 91 -105 76 -123 -20 -24 -85 -55 -115 -55 -37 0 -92 25 -104 48 -15 29
-14 59 5 109 19 48 15 58 -14 49 -50 -16 -66 -132 -27 -192 21 -33 88 -63 139
-64 48 0 120 35 153 74 35 41 25 74 -43 149 -99 109 -106 149 -28 175 48 16
80 9 87 -19 7 -28 31 -19 35 13 5 46 -61 80 -118 62z"/>
<path d="M10681 1164 c-13 -114 -37 -189 -78 -243 -22 -29 -27 -31 -35 -17 -5
9 -14 60 -19 114 -13 133 -16 142 -39 142 -25 0 -60 -53 -99 -151 -40 -100
-48 -151 -27 -168 22 -19 29 -9 31 42 3 48 61 181 76 172 5 -4 9 -27 9 -53 0
-89 35 -162 77 -162 28 0 89 74 115 141 14 35 29 93 33 129 3 36 11 80 17 98
11 37 -2 62 -31 62 -15 0 -19 -18 -30 -106z"/>
<path d="M9924 1166 c-10 -27 2 -30 88 -27 75 3 80 2 73 -16 -37 -85 -67 -187
-69 -233 l-3 -55 -49 -3 c-27 -2 -66 2 -86 8 -36 10 -38 13 -38 51 0 36 -2 40
-22 37 -30 -4 -42 -52 -23 -89 21 -40 87 -62 173 -57 96 5 186 51 274 138 79
79 99 129 73 181 -27 52 -83 69 -245 76 -125 5 -140 4 -146 -11z m309 -58 c35
-14 50 -40 38 -70 -23 -59 -174 -190 -201 -173 -15 9 -13 20 16 120 44 151 41
146 83 139 20 -3 49 -10 64 -16z"/>
<path d="M5325 1129 c-4 -6 0 -18 9 -27 10 -9 23 -26 31 -37 11 -16 16 -17 26
-8 9 9 8 20 -5 47 -17 36 -47 48 -61 25z"/>
<path d="M1420 1083 c-59 -57 -110 -148 -110 -197 1 -88 58 -112 198 -82 70
15 77 19 69 39 -4 10 -23 11 -96 4 -102 -10 -121 -4 -121 42 0 46 95 181 128
181 8 0 27 -10 44 -21 30 -22 54 -16 43 12 -8 20 -71 59 -95 59 -12 0 -38 -17
-60 -37z"/>
<path d="M6237 1095 c-52 -18 -72 -38 -107 -108 -34 -68 -37 -98 -14 -118 14
-11 18 -11 29 4 7 10 16 35 20 55 11 59 43 102 91 123 46 19 53 29 32 47 -9 7
-25 6 -51 -3z"/>
<path d="M12345 1091 c-32 -19 -105 -133 -105 -163 0 -41 77 -83 109 -60 9 7
31 18 49 26 17 8 32 20 32 26 0 19 -29 22 -61 6 -36 -18 -48 -19 -67 -7 -10 6
-11 13 -1 34 9 21 15 24 25 16 11 -9 24 0 58 37 52 56 55 67 24 88 -28 20 -27
20 -63 -3z"/>
<path d="M16043 1090 c-46 -28 -51 -59 -19 -124 14 -29 26 -57 26 -63 0 -21
-38 -43 -73 -43 -35 0 -37 2 -31 25 7 30 -14 42 -45 25 -29 -15 -27 -54 5 -79
19 -15 41 -21 76 -21 43 0 54 4 84 34 42 42 43 67 7 136 -27 51 -27 53 -8 67
13 9 32 12 53 9 37 -6 53 14 32 39 -17 21 -69 19 -107 -5z"/>
<path d="M3470 1093 c-43 -16 -99 -99 -114 -170 -10 -45 12 -110 48 -140 26
-22 36 -24 76 -19 76 10 171 69 148 91 -3 4 -38 -5 -78 -19 -39 -14 -80 -26
-90 -26 -21 0 -45 31 -55 71 -6 23 -2 27 49 49 31 13 63 34 71 46 21 33 19 80
-5 104 -21 21 -25 22 -50 13z m20 -68 c0 -15 -48 -65 -63 -65 -9 0 9 38 31 63
18 21 32 22 32 2z"/>
<path d="M1758 1079 c-25 -14 -68 -91 -68 -120 0 -14 5 -30 12 -37 14 -14 67
-16 101 -3 22 9 25 7 31 -20 8 -40 45 -42 44 -1 0 15 5 40 11 55 15 39 14 67
-4 67 -8 0 -15 6 -15 14 0 20 -48 56 -74 56 -11 0 -29 -5 -38 -11z m72 -60
c13 -24 15 -21 -27 -43 -33 -16 -63 -21 -63 -10 0 4 9 22 21 40 24 39 53 44
69 13z"/>
<path d="M2050 1065 c-24 -26 -24 -26 -32 -5 -14 38 -32 16 -45 -54 -6 -37
-17 -74 -24 -82 -9 -11 -9 -17 1 -29 19 -23 43 -4 89 70 23 36 45 65 49 65 4
0 5 -25 4 -55 -5 -72 3 -102 29 -110 27 -9 46 9 30 28 -7 9 -11 45 -10 91 1
48 -3 81 -11 91 -19 23 -54 18 -80 -10z"/>
<path d="M12600 1062 c-44 -22 -80 -83 -64 -109 17 -27 46 -27 87 2 21 14 39
25 41 25 1 0 1 -13 -2 -29 -5 -36 14 -73 36 -69 13 3 17 15 18 53 0 28 4 62 8
77 7 24 5 29 -17 37 -14 5 -28 15 -32 20 -9 15 -34 13 -75 -7z m45 -34 c-11
-6 -29 -18 -40 -27 -14 -11 -12 -7 4 12 14 15 32 27 40 27 12 -1 11 -3 -4 -12z"/>
<path d="M15270 1064 c-103 -69 -147 -156 -101 -198 40 -36 141 -29 141 9 0
11 -11 15 -39 15 -49 0 -71 8 -71 27 0 21 99 121 123 125 12 2 22 10 22 18 0
21 -45 24 -75 4z"/>
<path d="M4267 1038 c-39 -43 -67 -88 -67 -111 0 -32 54 -77 93 -77 18 0 36 3
40 6 13 13 -7 34 -32 34 -40 0 -56 32 -35 73 28 54 45 68 75 62 34 -8 49 13
24 32 -31 22 -65 15 -98 -19z"/>
<path d="M5610 1057 c0 -7 -18 -19 -39 -26 -72 -21 -135 -119 -95 -148 22 -16
48 -9 92 24 21 16 32 20 32 11 0 -19 -40 -199 -46 -210 -3 -4 -29 -5 -58 -2
-49 6 -54 4 -74 -20 -43 -56 -58 -220 -22 -256 28 -28 47 -25 81 11 30 32 99
162 99 186 0 9 6 13 15 9 8 -3 26 -1 40 4 29 11 24 37 -8 42 -12 2 -21 8 -20
13 1 6 13 67 28 136 15 74 25 148 23 180 -3 47 -6 54 -25 57 -15 2 -23 -2 -23
-11z m-40 -80 c0 -2 -10 -12 -22 -23 l-23 -19 19 23 c18 21 26 27 26 19z m-51
-326 c11 -7 11 -15 2 -43 -12 -36 -79 -148 -88 -148 -9 0 4 142 16 173 11 28
41 36 70 18z"/>
<path d="M5873 1044 c-10 -14 -28 -38 -40 -54 -13 -15 -23 -32 -23 -36 0 -5
-21 -30 -47 -56 -36 -37 -44 -51 -35 -60 9 -9 21 -4 51 20 31 25 40 28 45 17
8 -23 37 -18 88 14 l47 30 3 -42 c2 -31 8 -43 21 -45 29 -6 48 16 34 38 -9 15
-8 29 2 62 29 98 8 125 -51 66 -18 -18 -47 -44 -65 -56 l-32 -23 28 63 c16 34
26 68 24 75 -8 21 -31 15 -50 -13z"/>
<path d="M6399 1060 c-9 -5 -28 -27 -44 -50 -15 -22 -34 -40 -41 -40 -19 0
-10 -98 10 -118 8 -9 44 -17 85 -20 60 -4 71 -2 71 11 0 21 -12 28 -68 36 -68
9 -65 30 10 66 68 32 93 69 72 103 -12 19 -71 27 -95 12z m37 -55 c-21 -16
-32 -13 -21 4 3 6 14 11 23 11 15 -1 15 -2 -2 -15z"/>
<path d="M14962 1030 c-102 -76 -129 -203 -48 -230 24 -8 42 -7 72 3 56 20 52
43 -8 39 -39 -3 -48 0 -57 17 -10 18 -6 23 41 47 62 30 108 71 108 94 0 24
-29 60 -49 60 -9 0 -36 -14 -59 -30z m35 -56 c-15 -13 -33 -24 -40 -24 -7 0 4
14 23 29 42 35 57 30 17 -5z"/>
<path d="M4473 1035 c-59 -42 -80 -130 -42 -179 28 -36 61 -33 109 10 33 30
40 43 40 73 0 46 -26 87 -45 71 -10 -8 -10 -17 -2 -40 14 -36 0 -70 -37 -90
-24 -12 -28 -12 -36 0 -24 38 9 122 51 133 23 6 21 30 -2 35 -8 1 -24 -4 -36
-13z"/>
<path d="M14323 1021 c-109 -79 -108 -196 1 -221 81 -18 215 35 166 65 -5 3
-19 1 -30 -5 -30 -16 -135 -17 -154 -1 -23 19 -20 49 8 86 27 35 87 66 93 48
8 -24 31 -46 41 -39 15 9 4 68 -16 84 -26 20 -66 14 -109 -17z"/>
<path d="M4747 1010 c-27 -24 -35 -26 -33 -13 3 38 -31 15 -60 -42 -44 -83
-49 -104 -29 -111 12 -5 33 10 71 47 50 49 54 51 54 28 0 -33 27 -69 52 -69
17 0 19 4 12 23 -7 20 -8 78 -2 137 4 36 -24 36 -65 0z"/>
<path d="M8521 993 c-14 -12 -24 -36 -31 -75 -5 -31 -14 -67 -20 -79 -8 -15
-9 -24 -1 -32 18 -18 38 10 61 84 18 57 25 69 39 64 9 -4 31 -9 49 -12 25 -4
32 -2 32 10 0 20 -34 43 -76 51 -22 5 -37 2 -53 -11z"/>
<path d="M8296 959 c-42 -50 -47 -102 -13 -123 14 -9 27 -6 64 15 55 30 68 48
60 80 -10 37 -19 45 -54 52 -27 5 -36 2 -57 -24z m58 -53 c-3 -7 -16 -18 -30
-24 -31 -15 -32 -2 -2 46 20 33 22 34 29 13 5 -11 6 -27 3 -35z"/>
<path d="M5240 929 c-7 -12 -14 -47 -17 -79 -4 -44 -2 -58 9 -63 27 -10 36 8
39 82 4 78 -9 103 -31 60z"/>
</g>
</svg>
