<?xml version="1.0" standalone="no"?>
<!DOCTYPE svg PUBLIC "-//W3C//DTD SVG 20010904//EN"
 "http://www.w3.org/TR/2001/REC-SVG-20010904/DTD/svg10.dtd">
<svg version="1.0" xmlns="http://www.w3.org/2000/svg"
 width="1872.000000pt" height="1404.000000pt" viewBox="0 0 1872.000000 1404.000000"
 preserveAspectRatio="xMidYMid meet">

<g transform="translate(0.000000,1404.000000) scale(0.100000,-0.100000)"
fill="#000000" stroke="none">
<path d="M4905 13546 c-19 -44 -19 -117 0 -221 19 -104 19 -167 0 -212 -21
-50 -44 -73 -72 -73 -63 0 -29 104 40 120 29 8 28 34 -1 38 -30 4 -68 -21 -92
-61 -65 -106 42 -192 125 -101 55 60 67 143 40 289 -21 117 -19 181 5 205 21
21 26 40 11 40 -5 0 -17 3 -25 6 -12 4 -20 -4 -31 -30z"/>
<path d="M7205 13558 c-25 -77 -52 -215 -45 -222 7 -7 14 -6 21 1 13 13 69
219 61 227 -10 10 -33 6 -37 -6z"/>
<path d="M15292 13523 c-5 -10 -12 -29 -16 -43 -3 -14 -16 -37 -29 -52 -21
-26 -25 -27 -54 -16 -39 15 -83 -2 -83 -31 0 -11 -6 -24 -13 -28 -8 -4 -26
-30 -42 -56 -23 -41 -27 -56 -23 -103 3 -40 0 -66 -13 -92 -25 -53 -28 -86 -7
-90 12 -2 19 5 24 25 15 63 32 83 72 83 40 0 79 20 129 67 42 40 50 73 28 129
l-17 45 36 52 c36 53 51 116 29 124 -6 2 -16 -4 -21 -14z m-106 -161 c7 -4
-12 -37 -53 -90 -56 -74 -63 -80 -63 -54 0 15 14 49 30 75 17 26 30 52 30 57
0 16 38 25 56 12z m48 -76 c9 -35 -1 -53 -52 -92 -44 -33 -72 -43 -72 -25 0
12 101 141 110 141 4 0 11 -11 14 -24z"/>
<path d="M8911 13475 c-79 -75 -131 -176 -131 -254 0 -49 -3 -58 -22 -66 -30
-13 -30 -41 -1 -38 18 2 22 -4 28 -38 4 -22 2 -62 -5 -89 -10 -40 -22 -59 -67
-100 -30 -27 -60 -49 -66 -47 -7 1 -12 -7 -12 -18 0 -36 32 -27 95 29 91 79
105 104 104 195 0 42 5 79 10 83 6 4 25 5 42 2 34 -6 48 4 34 25 -5 8 -27 14
-54 15 l-46 1 0 46 c0 61 46 152 111 218 58 59 82 64 98 20 12 -33 34 -35 39
-3 5 32 -35 74 -69 74 -23 0 -45 -13 -88 -55z"/>
<path d="M15971 13488 c-38 -101 -36 -98 -84 -92 -39 6 -50 3 -81 -21 -72 -55
-109 -182 -66 -225 14 -14 18 -28 14 -48 -7 -35 22 -67 31 -36 15 48 33 67 76
84 26 9 60 29 75 44 16 14 32 26 36 26 12 0 38 57 38 85 0 14 -10 35 -21 46
l-22 22 23 53 c21 53 22 84 0 84 -6 0 -14 -10 -19 -22z m-71 -144 c0 -11 -113
-164 -121 -164 -28 0 4 106 44 143 21 19 77 34 77 21z m60 -52 c0 -33 -21 -55
-72 -77 l-37 -15 41 60 c46 66 68 76 68 32z"/>
<path d="M17125 13491 c-3 -12 -4 -25 -1 -29 3 -5 -5 -26 -18 -47 -18 -29 -30
-38 -54 -40 -70 -6 -142 -77 -142 -142 0 -36 25 -83 44 -83 7 0 16 -15 21 -32
12 -41 41 -45 37 -6 -2 24 2 27 49 37 60 13 103 41 123 79 17 34 2 78 -37 109
l-26 20 25 49 c14 27 24 60 22 74 -4 31 -34 39 -43 11z m-108 -226 c-33 -67
-50 -77 -55 -33 -2 18 7 37 28 62 52 59 64 45 27 -29z m108 29 c27 -18 33 -45
13 -62 -16 -12 -101 -42 -107 -36 -6 6 51 114 61 114 5 0 20 -7 33 -16z"/>
<path d="M5720 13417 c0 -37 -11 -107 -25 -161 -28 -107 -32 -178 -12 -195 20
-16 27 -3 27 46 0 25 11 90 25 145 31 119 32 221 3 226 -16 3 -18 -5 -18 -61z"/>
<path d="M17515 13426 c-28 -18 -56 -45 -64 -58 -15 -29 -7 -68 15 -68 18 0
18 -7 -4 -38 -22 -31 -42 -86 -42 -113 0 -10 11 -26 24 -34 22 -15 31 -14 106
5 45 11 99 33 121 47 34 22 39 31 39 62 0 39 -21 72 -57 90 l-23 12 31 27 c39
35 33 67 -17 88 -50 21 -74 17 -129 -20z m114 -15 c12 -8 12 -12 2 -25 -14
-17 -139 -61 -148 -52 -4 3 4 18 18 32 17 18 30 23 46 19 16 -4 26 1 35 15 14
22 25 24 47 11z m-8 -132 c33 -13 57 -55 42 -70 -11 -11 -185 -60 -191 -54 -7
7 31 105 49 124 21 22 41 22 100 0z"/>
<path d="M16212 13438 c-5 -7 -13 -24 -17 -38 -4 -14 -26 -68 -50 -120 -24
-52 -45 -104 -47 -115 -4 -26 30 -33 38 -8 3 10 23 56 45 103 65 143 77 190
50 190 -5 0 -13 -6 -19 -12z"/>
<path d="M17347 13443 c-2 -4 -10 -26 -17 -48 -7 -22 -44 -100 -81 -173 -38
-73 -69 -139 -69 -146 0 -23 26 -38 39 -23 6 8 8 16 5 19 -3 3 29 73 71 154
74 144 95 212 68 221 -6 2 -13 0 -16 -4z"/>
<path d="M16750 13403 c-58 -20 -100 -47 -100 -63 0 -31 19 -33 50 -7 34 29
87 44 102 29 33 -33 -70 -138 -192 -198 -39 -19 -60 -35 -60 -46 0 -21 22 -23
83 -6 36 9 55 8 107 -5 65 -16 80 -15 80 6 -1 15 -63 47 -91 47 -15 0 -5 13
39 49 57 48 82 93 82 148 0 40 -51 63 -100 46z"/>
<path d="M11130 13367 c-80 -21 -85 -23 -85 -49 -1 -15 -11 -41 -23 -58 -13
-17 -20 -35 -16 -41 3 -6 -6 -44 -21 -85 -22 -60 -25 -77 -15 -89 9 -11 16
-12 25 -5 6 5 15 7 18 4 3 -4 37 1 74 9 37 9 79 15 92 14 34 -3 38 21 5 34
-21 8 -45 6 -98 -5 -38 -9 -71 -15 -73 -13 -1 2 7 31 19 64 22 59 23 61 71 72
27 6 75 11 108 11 44 0 59 4 59 14 0 8 -7 17 -16 20 -23 9 -103 7 -147 -3 -34
-8 -38 -7 -32 7 4 10 9 25 12 34 6 19 88 40 158 42 52 1 62 30 14 40 -38 7
-25 9 -129 -17z"/>
<path d="M11865 13324 c-38 -24 -76 -47 -82 -50 -7 -4 -13 -12 -13 -19 0 -24
19 -27 48 -7 32 24 131 82 137 82 11 0 4 -28 -16 -65 -23 -43 -67 -95 -82 -95
-17 0 -107 -86 -107 -103 0 -31 28 -30 74 3 l45 33 36 -32 c31 -27 43 -31 91
-31 30 0 70 6 88 14 42 17 70 54 55 72 -9 11 -17 9 -40 -9 -22 -16 -48 -22
-98 -25 -61 -4 -70 -2 -84 18 -14 20 -13 23 14 53 16 18 39 56 50 86 46 125 4
152 -116 75z"/>
<path d="M14870 13345 c-6 -8 -9 -19 -5 -24 3 -6 -8 -56 -26 -111 -26 -82 -29
-103 -19 -115 17 -20 40 -2 40 33 0 13 14 64 30 112 29 86 31 120 5 120 -7 0
-18 -7 -25 -15z"/>
<path d="M11430 13314 c-175 -99 -189 -246 -28 -285 64 -15 195 -14 214 2 26
21 3 28 -89 28 -193 -1 -248 57 -152 160 59 63 115 89 158 73 43 -16 61 2 28
29 -32 26 -77 24 -131 -7z"/>
<path d="M5122 13258 c-46 -50 -54 -113 -19 -153 26 -31 102 -52 123 -34 19
16 10 26 -33 34 -67 12 -80 35 -32 55 57 24 71 75 30 107 -24 19 -45 15 -69
-9z m53 -27 c5 -9 -35 -44 -43 -37 -5 6 21 46 30 46 4 0 9 -4 13 -9z"/>
<path d="M4136 13245 c-25 -17 -37 -20 -45 -12 -18 18 -28 -3 -35 -70 -5 -57
-4 -63 13 -63 11 0 21 9 25 23 6 26 71 105 79 97 3 -3 1 -26 -4 -50 -15 -64 3
-120 36 -120 27 0 31 11 14 41 -7 14 -7 35 0 69 19 89 -20 128 -83 85z"/>
<path d="M5452 13250 c-12 -11 -29 -35 -38 -52 -11 -22 -18 -27 -24 -18 -4 7
-15 10 -24 7 -13 -5 -16 -23 -16 -98 0 -50 -5 -109 -12 -131 -8 -29 -8 -42 0
-50 16 -16 39 6 47 45 22 114 27 127 49 127 33 0 66 28 87 74 24 53 24 71 -1
96 -25 25 -41 25 -68 0z m38 -66 c-13 -33 -38 -64 -54 -64 -6 0 -5 5 2 12 7 7
12 21 12 33 0 11 7 31 16 44 22 31 38 14 24 -25z"/>
<path d="M2463 13248 c-5 -7 -29 -46 -53 -86 l-43 -74 -13 34 c-7 18 -18 52
-24 75 -12 47 -42 65 -67 40 -17 -17 -10 -37 13 -37 13 0 19 -20 15 -44 -1 -5
10 -32 24 -61 l26 -51 -33 -57 c-20 -34 -40 -57 -50 -57 -20 0 -23 -22 -8 -51
16 -29 34 -23 54 19 10 20 34 64 55 97 105 167 144 242 136 255 -8 14 -21 12
-32 -2z"/>
<path d="M5854 13207 c-59 -128 1 -196 97 -110 39 35 41 40 36 81 -6 54 -24
74 -72 78 -35 2 -38 0 -61 -49z m96 -39 c0 -21 -46 -68 -66 -68 -27 0 -8 83
24 108 14 11 19 10 29 -5 7 -9 13 -25 13 -35z"/>
<path d="M9934 13253 c-29 -5 -57 -39 -76 -90 -14 -36 -14 -44 -2 -60 13 -17
15 -17 29 1 8 11 15 31 15 45 1 58 70 90 83 40 7 -26 31 -20 35 8 3 19 -40 65
-57 62 -3 -1 -16 -4 -27 -6z"/>
<path d="M2550 13240 c-12 -8 -13 -13 -3 -29 11 -17 9 -26 -8 -55 -47 -79 -43
-136 8 -136 40 0 123 89 123 132 0 43 -7 52 -55 74 -22 10 -42 19 -45 21 -3 1
-12 -2 -20 -7z m80 -83 c0 -22 -63 -97 -82 -97 -9 0 15 63 38 98 19 29 44 29
44 -1z"/>
<path d="M2825 13158 c-42 -51 -90 -99 -106 -106 -32 -13 -37 -29 -14 -38 24
-10 68 14 92 48 19 26 23 29 29 15 10 -27 38 -20 93 23 28 22 53 40 57 40 4 0
4 -14 0 -31 -9 -46 3 -78 30 -85 25 -7 58 12 48 27 -3 5 -14 9 -26 9 -21 0
-21 4 -2 101 3 16 -1 31 -11 39 -13 11 -24 6 -74 -34 -33 -25 -62 -46 -65 -46
-4 0 7 24 24 53 16 30 30 59 30 65 0 30 -33 5 -105 -80z"/>
<path d="M6206 13219 c-15 -17 -34 -45 -43 -63 -36 -72 -55 -67 -73 20 -9 43
-15 54 -28 52 -29 -6 -11 -104 29 -159 10 -13 1 -32 -51 -108 -47 -69 -63
-101 -64 -129 -1 -27 3 -37 17 -40 12 -2 17 3 17 20 0 13 9 34 20 48 11 14 20
29 20 33 0 4 22 40 48 80 27 40 68 106 92 147 23 41 49 80 57 87 16 12 11 43
-6 43 -5 0 -21 -14 -35 -31z"/>
<path d="M9082 13228 c2 -15 10 -23 23 -23 30 0 27 39 -3 43 -20 3 -23 0 -20
-20z"/>
<path d="M3605 13231 c-51 -23 -91 -85 -79 -125 17 -57 72 -83 151 -71 34 5
43 10 41 23 -2 11 -12 16 -28 15 -51 -4 -90 8 -107 33 -15 24 -15 26 18 60 27
28 40 34 69 32 29 -3 35 0 35 17 0 16 -7 20 -40 22 -22 1 -49 -2 -60 -6z"/>
<path d="M9606 13215 c-8 -32 -67 -98 -112 -126 -19 -11 -34 -27 -34 -34 0
-29 23 -26 67 9 33 26 50 33 58 26 14 -12 38 -5 79 24 16 11 27 16 24 10 -3
-5 -2 -19 3 -32 7 -19 15 -23 41 -20 38 3 55 38 19 38 -23 0 -27 20 -11 51 19
34 -16 34 -71 0 -28 -17 -52 -31 -55 -31 -2 0 5 17 16 37 25 48 26 73 1 73
-12 0 -21 -9 -25 -25z"/>
<path d="M10095 13208 c-82 -97 -65 -168 40 -168 46 0 79 14 136 58 49 38 61
65 33 76 -19 7 -34 0 -34 -17 0 -7 -19 -25 -41 -41 -43 -30 -113 -44 -138 -28
-19 13 -5 32 24 32 27 0 81 42 90 71 9 28 -12 49 -50 49 -25 0 -40 -8 -60 -32z
m55 -28 c-33 -26 -48 -26 -25 0 10 11 25 20 34 20 12 0 9 -6 -9 -20z"/>
<path d="M3864 13220 c-50 -20 -73 -99 -35 -120 11 -5 30 -10 42 -10 12 0 31
-8 41 -17 30 -27 45 -2 24 41 -19 41 -19 41 -46 24 -25 -16 -33 -7 -21 25 9
23 14 25 44 20 35 -5 58 10 41 27 -15 13 -68 19 -90 10z"/>
<path d="M7997 13180 c-74 -82 -71 -144 8 -170 47 -15 107 -5 103 17 -2 13
-15 17 -49 18 -48 0 -79 17 -79 41 0 21 58 82 76 80 25 -2 41 29 25 48 -21 25
-36 19 -84 -34z"/>
<path d="M7091 13194 c-36 -30 -41 -72 -12 -98 16 -15 18 -22 9 -42 -10 -21
-8 -28 8 -43 10 -10 36 -22 57 -25 33 -6 37 -5 37 14 0 15 -8 22 -30 27 -26 5
-28 8 -18 21 7 8 28 21 46 29 50 21 42 43 -17 43 -58 0 -74 16 -41 42 27 22
66 24 74 3 7 -20 35 -19 43 2 10 26 -32 53 -82 53 -32 0 -52 -7 -74 -26z"/>
<path d="M8500 13212 c-8 -3 -26 -13 -40 -23 -14 -9 -34 -17 -44 -16 -25 3
-65 -98 -47 -116 10 -9 19 -5 39 23 32 41 83 90 95 90 4 0 5 -21 1 -47 -6 -38
-4 -49 11 -59 13 -9 23 -10 36 -3 23 12 25 39 4 39 -18 0 -17 -3 -5 40 16 55
-6 86 -50 72z"/>
<path d="M8285 13191 c-4 -7 -15 -9 -25 -6 -11 3 -29 -4 -48 -20 -85 -72 -41
-154 61 -112 42 18 60 41 60 78 0 34 -36 79 -48 60z m4 -73 c-13 -24 -45 -40
-72 -36 -20 3 -19 6 17 46 35 39 40 41 51 25 9 -12 10 -23 4 -35z"/>
<path d="M9300 13183 c-32 -23 -53 -78 -39 -104 11 -21 29 -22 73 -4 21 9 20
1 -11 -138 -12 -57 -18 -67 -31 -61 -31 14 -92 16 -106 4 -21 -17 -29 -82 -16
-128 18 -70 67 -64 127 15 15 21 34 43 41 49 8 5 13 17 11 25 -2 7 5 46 14 84
22 95 40 246 30 255 -19 17 -71 18 -93 3z m50 -43 c0 -5 -14 -17 -31 -26 -33
-16 -33 -9 -1 28 14 17 32 16 32 -2z m-63 -304 c7 -6 -47 -84 -62 -90 -17 -6
-30 51 -20 84 6 19 12 21 42 17 20 -4 38 -8 40 -11z"/>
<path d="M15349 13139 c-8 -15 -8 -24 0 -32 14 -14 57 25 47 42 -11 18 -34 13
-47 -10z"/>
<path d="M16270 13136 c0 -26 24 -51 40 -41 14 8 13 38 -2 53 -19 19 -38 14
-38 -12z"/>
<path d="M9051 13117 c-20 -25 -42 -100 -32 -110 15 -15 41 0 41 23 0 12 7 34
15 51 21 41 3 68 -24 36z"/>
<path d="M14389 12983 c-1 -4 -2 -17 -3 -28 -5 -75 -20 -156 -31 -165 -9 -7
-21 -7 -40 0 -20 8 -31 8 -39 0 -15 -15 14 -40 51 -43 29 -2 31 -4 25 -32 -4
-16 -7 -57 -7 -90 0 -47 3 -60 15 -60 11 0 16 13 18 45 1 25 7 68 13 96 l10
50 57 15 c38 9 57 19 57 29 0 16 -19 18 -74 7 l-33 -7 8 58 c13 95 11 126 -8
130 -10 2 -19 0 -19 -5z"/>
<path d="M15701 12928 c-5 -13 -16 -66 -26 -118 -9 -52 -25 -115 -36 -139 -10
-24 -19 -50 -19 -57 0 -20 30 -17 49 4 9 9 26 25 38 35 l21 19 0 -48 c0 -28 6
-53 15 -61 20 -20 40 -7 31 20 -4 12 -6 37 -6 56 2 51 -14 74 -47 68 l-28 -6
13 51 c17 62 33 180 27 191 -8 14 -23 7 -32 -15z"/>
<path d="M9615 12930 c-4 -6 -1 -17 5 -25 10 -12 11 -66 5 -224 -4 -121 -3
-211 2 -214 27 -17 32 16 39 241 l7 232 -26 0 c-14 0 -29 -5 -32 -10z"/>
<path d="M15523 12903 c-9 -21 -23 -63 -33 -93 -15 -53 -18 -55 -61 -66 -56
-14 -61 -40 -6 -38 30 1 37 -2 33 -15 -31 -102 -33 -196 -6 -196 11 0 16 13
18 45 1 25 10 73 19 108 17 66 20 69 93 74 23 2 35 8 35 18 0 11 -13 16 -47
18 -27 2 -48 7 -48 12 0 5 11 41 26 80 14 38 22 75 19 80 -12 19 -26 10 -42
-27z"/>
<path d="M8294 12888 c-4 -6 1 -17 11 -24 16 -12 17 -20 5 -116 -17 -136 -18
-200 -3 -205 6 -2 16 2 22 9 5 7 25 31 44 52 l34 40 27 -47 c18 -30 35 -47 47
-47 21 0 27 34 9 45 -6 4 -22 24 -36 46 -28 45 -56 50 -92 17 l-24 -23 6 40
c23 158 16 225 -23 225 -11 0 -23 -5 -27 -12z"/>
<path d="M2960 12864 c-6 -14 -10 -49 -10 -78 0 -83 -9 -114 -34 -118 -31 -4
-26 -32 7 -36 27 -3 27 -4 27 -78 0 -66 2 -75 18 -72 14 3 17 16 20 81 l3 77
45 0 c38 0 45 3 42 18 -2 13 -15 18 -50 20 -45 3 -47 4 -43 30 2 15 6 62 9
105 5 64 3 77 -9 77 -9 0 -20 -12 -25 -26z"/>
<path d="M7047 12838 c-23 -18 -56 -117 -50 -150 3 -18 12 -28 24 -28 14 0 18
8 17 38 0 42 16 89 39 114 8 9 12 22 8 27 -8 14 -17 14 -38 -1z"/>
<path d="M2304 12804 c-9 -37 8 -50 40 -29 31 21 33 31 7 45 -30 16 -40 12
-47 -16z"/>
<path d="M5347 12786 c-10 -26 34 -49 48 -26 8 13 -13 40 -30 40 -7 0 -15 -6
-18 -14z"/>
<path d="M13852 12750 c-34 -21 -71 -87 -72 -128 0 -36 28 -81 55 -88 55 -14
134 21 108 47 -8 8 -17 8 -31 0 -32 -17 -70 -13 -82 8 -16 30 -13 38 21 52 77
31 114 95 70 119 -26 14 -31 13 -69 -10z m48 -30 c0 -5 -15 -17 -32 -25 l-33
-16 28 25 c31 28 37 31 37 16z"/>
<path d="M2720 12739 c-88 -40 -102 -75 -49 -125 34 -33 61 -78 52 -88 -13
-12 -92 -6 -107 9 -25 26 -52 14 -40 -18 9 -24 56 -38 115 -35 45 3 55 7 65
27 16 32 3 65 -43 113 -21 22 -32 41 -28 48 4 7 32 23 62 36 32 14 53 30 50
37 -6 19 -29 18 -77 -4z"/>
<path d="M4363 12740 c-39 -23 -41 -45 -13 -100 20 -40 26 -80 12 -80 -21 0
-52 34 -52 56 0 28 -28 44 -41 23 -12 -20 -1 -49 33 -86 35 -36 73 -49 94 -32
20 16 17 76 -6 128 -11 24 -20 45 -20 48 0 2 16 11 36 19 19 8 34 20 31 27 -6
20 -40 19 -74 -3z"/>
<path d="M11717 12730 c-42 -37 -81 -111 -72 -139 8 -25 55 -44 88 -35 33 8
73 54 82 93 8 35 -10 78 -42 98 -19 13 -24 11 -56 -17z m56 -41 c7 -28 -11
-77 -33 -89 -23 -12 -31 -12 -49 -1 -16 10 -3 41 37 84 31 32 38 34 45 6z"/>
<path d="M11923 12745 c-62 -43 -86 -156 -34 -163 22 -3 23 -1 16 36 -5 33 -2
44 20 70 29 35 65 42 85 17 18 -21 40 -19 40 4 0 44 -83 67 -127 36z"/>
<path d="M13531 12725 c-38 -35 -40 -35 -43 -13 -2 13 -9 23 -17 23 -20 0 -58
-152 -42 -168 8 -8 19 -1 43 28 18 22 52 60 75 85 l43 45 -3 -80 c-2 -73 0
-80 18 -83 18 -2 20 4 22 79 3 127 -23 150 -96 84z"/>
<path d="M7423 12723 c-59 -64 -69 -140 -24 -182 25 -23 40 -28 90 -30 51 -2
62 1 68 16 4 10 11 21 16 24 6 4 7 14 4 24 -8 19 -44 12 -63 -11 -6 -8 -20
-14 -30 -14 -19 0 -73 36 -64 42 3 2 32 17 65 33 34 17 61 38 63 48 4 22 -50
77 -78 77 -11 0 -33 -12 -47 -27z m67 -33 c17 -10 16 -12 -27 -34 -37 -19 -40
-15 -15 19 19 28 21 28 42 15z"/>
<path d="M14070 12732 c-47 -23 -78 -80 -64 -119 13 -37 50 -53 140 -60 71 -6
74 -5 74 16 0 19 -6 21 -50 21 -57 0 -120 22 -120 42 0 29 27 62 60 73 41 14
54 45 18 45 -13 0 -39 -8 -58 -18z"/>
<path d="M12745 12686 c-64 -64 -78 -107 -48 -158 14 -25 32 -37 73 -51 63
-21 86 -17 70 13 -6 12 -21 20 -36 20 -25 0 -74 40 -74 60 0 19 21 53 53 87
27 29 32 31 42 16 14 -19 35 -9 35 17 0 69 -44 67 -115 -4z"/>
<path d="M15966 12716 c-9 -15 -23 -37 -31 -51 -21 -35 -19 -98 4 -119 45 -40
172 -42 179 -2 4 17 -1 18 -47 13 -28 -3 -65 -1 -81 5 -25 8 -31 15 -28 36 2
22 11 28 45 37 54 13 65 25 61 66 -3 32 -5 34 -45 37 -36 3 -44 -1 -57 -22z
m64 -25 c0 -5 -9 -11 -20 -14 -20 -5 -26 3 -13 16 9 10 33 8 33 -2z"/>
<path d="M16303 12724 c-41 -20 -59 -49 -78 -121 -19 -74 -19 -83 4 -83 16 0
22 11 32 63 9 45 21 70 41 91 28 27 33 28 89 23 48 -6 59 -4 59 8 0 35 -90 47
-147 19z"/>
<path d="M4034 12711 c-50 -30 -60 -88 -29 -163 14 -34 81 -34 133 -1 18 11
21 18 13 27 -9 11 -20 10 -56 -3 -41 -14 -47 -14 -55 -1 -11 17 -14 47 -4 37
8 -7 66 21 76 37 13 20 9 45 -12 66 -25 25 -27 25 -66 1z m46 -41 c0 -5 -3
-10 -7 -11 -5 0 -16 -2 -26 -4 -15 -3 -16 -1 -6 11 13 16 39 19 39 4z"/>
<path d="M10703 12724 c-7 -3 -22 -21 -33 -40 -12 -19 -28 -34 -37 -34 -12 0
-14 -10 -8 -62 4 -35 11 -67 15 -72 11 -11 30 1 30 19 0 36 23 117 40 137 16
21 18 21 35 5 19 -19 35 -14 35 12 0 33 -38 50 -77 35z"/>
<path d="M13295 12718 c-11 -6 -32 -22 -47 -36 -22 -20 -28 -22 -28 -9 0 20
-19 32 -31 20 -5 -5 -13 -29 -18 -53 -5 -25 -13 -55 -16 -67 -13 -41 27 -25
74 30 25 29 55 60 68 70 l22 18 -6 -63 c-4 -53 -2 -67 14 -87 13 -16 26 -22
37 -18 16 6 16 8 0 32 -13 20 -15 38 -10 81 9 81 -11 109 -59 82z"/>
<path d="M10226 12698 c-8 -13 -25 -44 -37 -71 l-23 -47 -16 62 c-10 42 -20
63 -30 63 -17 0 -17 -11 -1 -111 l12 -71 -37 -63 c-56 -96 -85 -176 -74 -206
11 -28 28 -31 36 -6 26 81 83 211 106 243 15 21 26 39 23 39 -4 0 15 38 40 85
43 78 49 105 25 105 -5 0 -16 -10 -24 -22z"/>
<path d="M3742 12700 c-12 -5 -30 -25 -39 -45 -36 -75 21 -155 112 -155 44 0
82 20 71 38 -4 7 -25 9 -55 5 -41 -5 -52 -2 -70 16 -25 25 -27 58 -5 89 18 26
42 29 40 5 -1 -21 33 -30 45 -12 8 14 -6 49 -25 61 -15 10 -46 9 -74 -2z"/>
<path d="M7718 12694 c-48 -25 -71 -91 -48 -135 14 -26 50 -24 94 6 l36 24 0
-29 c0 -38 49 -96 73 -87 20 8 23 37 3 37 -16 0 -26 30 -26 77 0 25 5 32 22
35 30 4 34 26 6 38 -13 6 -36 19 -53 29 -36 24 -71 25 -107 5z m39 -70 c-42
-39 -56 -40 -36 -2 15 28 28 38 54 38 17 -1 14 -7 -18 -36z"/>
<path d="M8034 12696 c-30 -21 -71 -86 -77 -123 -5 -23 -1 -38 13 -55 15 -20
27 -23 79 -23 67 1 81 9 84 50 3 35 -16 42 -42 16 -21 -21 -46 -26 -74 -15
-23 9 -2 74 35 106 19 17 28 32 25 42 -8 20 -17 20 -43 2z"/>
<path d="M9863 12688 c-58 -64 -79 -133 -47 -159 14 -11 24 -9 70 15 30 16 64
40 74 54 16 19 20 21 20 8 0 -26 27 -73 46 -80 31 -12 40 12 15 38 -19 20 -24
36 -23 80 0 57 -9 75 -31 58 -7 -5 -21 -6 -32 -1 -37 14 -71 9 -92 -13z m77
-28 c12 -7 11 -13 -10 -35 -27 -29 -79 -60 -87 -52 -12 13 50 97 71 97 6 0 18
-5 26 -10z"/>
<path d="M13015 12702 c-32 -7 -43 -20 -55 -70 -16 -67 -2 -102 41 -102 38 0
99 56 99 92 0 46 -45 89 -85 80z m43 -75 c4 -18 -35 -57 -56 -57 -11 0 -13 8
-7 37 4 21 9 41 11 45 7 12 49 -8 52 -25z"/>
<path d="M2269 12698 c-3 -7 -9 -49 -15 -120 -6 -67 -5 -78 10 -84 24 -9 27
-3 30 67 2 35 7 81 11 102 7 33 6 37 -14 37 -11 0 -22 -1 -22 -2z"/>
<path d="M3233 12680 c-43 -26 -65 -62 -61 -101 5 -50 27 -57 87 -27 51 25 51
25 51 4 0 -30 28 -66 51 -66 23 0 25 22 4 40 -8 7 -15 27 -15 45 0 42 -19 97
-38 113 -22 17 -42 15 -79 -8z m33 -77 c-50 -43 -65 -19 -19 29 24 25 28 26
36 11 8 -13 4 -22 -17 -40z"/>
<path d="M10403 12685 c-87 -37 -78 -192 13 -217 59 -17 144 12 131 45 -5 13
-10 13 -51 -1 -41 -15 -49 -15 -73 -2 -35 20 -39 36 -10 44 14 3 39 19 56 35
37 35 41 73 9 95 -27 19 -34 19 -75 1z m34 -71 c-26 -22 -57 -32 -57 -18 0 16
24 46 43 54 37 14 46 -8 14 -36z"/>
<path d="M2424 12665 c-38 -38 -69 -113 -53 -131 15 -19 35 -3 42 34 7 34 43
82 62 82 21 0 37 -37 33 -78 -2 -27 1 -37 13 -40 18 -3 29 24 29 70 0 36 -45
88 -76 88 -14 0 -36 -11 -50 -25z"/>
<path d="M5465 12678 c-41 -24 -70 -90 -59 -135 10 -39 39 -25 40 19 1 20 9
49 19 64 l18 28 18 -23 c14 -17 19 -40 19 -80 0 -57 18 -100 37 -88 14 9 4
145 -13 179 -8 15 -23 32 -33 38 -24 12 -21 12 -46 -2z"/>
<path d="M3492 12660 c-12 -5 -38 -25 -57 -44 -27 -27 -35 -44 -35 -71 0 -52
29 -43 57 17 27 57 54 75 78 51 13 -13 16 -27 10 -67 -11 -91 -11 -91 9 -91
22 0 26 14 29 103 2 59 0 66 -26 88 -31 26 -32 27 -65 14z"/>
<path d="M15183 12608 c-38 -54 -47 -82 -33 -107 19 -37 43 -42 88 -20 63 31
72 83 26 142 -30 37 -46 34 -81 -15z m67 -54 c0 -26 -59 -67 -61 -42 -2 25 3
43 18 60 19 22 43 12 43 -18z"/>
<path d="M5305 12630 c-3 -5 -3 -15 1 -22 4 -6 7 -31 5 -53 -2 -53 18 -73 54
-57 30 14 32 32 5 39 -16 4 -19 12 -16 40 3 19 2 41 -1 49 -6 16 -39 19 -48 4z"/>
<path d="M11346 12431 c-34 -37 -45 -92 -46 -218 l0 -121 -28 13 c-15 8 -37
12 -48 9 -47 -12 -84 -135 -49 -164 30 -25 80 -23 112 4 42 35 53 84 53 239 0
102 4 147 16 177 9 22 20 40 25 40 5 0 9 9 9 20 0 25 -22 26 -44 1z m-64 -365
c12 0 16 -6 13 -18 -3 -10 -8 -27 -11 -38 -12 -43 -84 -50 -84 -9 0 11 7 34
16 50 11 23 20 29 32 23 9 -4 25 -7 34 -8z"/>
<path d="M6085 12421 c-3 -6 -10 -47 -16 -93 -5 -46 -16 -105 -24 -133 -19
-69 -22 -120 -6 -139 20 -23 29 -20 67 21 34 37 34 37 34 11 0 -29 23 -58 46
-58 22 0 81 26 89 40 15 24 -11 31 -48 14 -20 -10 -40 -14 -44 -10 -4 3 1 30
11 59 19 57 19 102 -2 102 -7 0 -35 -29 -62 -64 -28 -36 -50 -59 -50 -53 0 7
6 54 14 105 27 176 29 207 12 207 -8 0 -17 -4 -21 -9z"/>
<path d="M9195 12380 c-26 -29 -7 -45 30 -26 33 17 44 14 25 -9 -9 -11 -10
-18 -1 -29 14 -17 7 -84 -20 -201 -24 -102 -24 -128 -2 -123 11 2 22 21 31 52
l14 48 26 -25 c15 -13 41 -33 57 -43 17 -10 49 -35 72 -56 46 -41 58 -46 66
-24 6 16 -47 69 -113 113 -56 38 -77 61 -85 94 -6 25 -3 28 43 43 83 28 119
90 92 157 -17 40 -44 49 -139 49 -66 0 -81 -3 -96 -20z m197 -45 c20 -43 0
-77 -56 -97 l-48 -18 7 40 c5 27 2 49 -8 70 l-15 30 54 0 c49 0 56 -3 66 -25z"/>
<path d="M11875 12380 c-4 -6 -1 -17 5 -26 7 -8 15 -46 18 -84 4 -55 2 -70 -9
-71 -72 -6 -113 -22 -106 -42 4 -12 15 -13 81 -3 l38 6 -4 -100 c-3 -88 -2
-100 13 -100 22 0 29 29 29 128 l0 82 43 0 c48 0 71 12 65 31 -3 9 -20 12 -55
10 l-50 -2 -6 70 c-3 38 -11 79 -17 90 -11 22 -35 28 -45 11z"/>
<path d="M12415 12379 c-4 -6 -7 -86 -6 -178 2 -180 5 -188 62 -211 37 -16 69
-7 108 29 81 76 -15 189 -103 120 l-26 -20 0 124 c0 95 -3 127 -14 136 -11 9
-16 9 -21 0z m150 -294 c0 -38 -44 -63 -81 -46 -30 13 -30 22 1 55 36 39 80
34 80 -9z"/>
<path d="M9555 12370 c-9 -15 3 -30 25 -30 16 0 18 -9 15 -97 -3 -135 -11
-170 -38 -169 -14 1 -24 -8 -31 -27 -13 -37 0 -58 48 -76 33 -13 44 -12 91 3
30 9 72 33 96 55 41 36 43 40 47 104 8 118 -48 197 -163 232 -59 17 -82 19
-90 5z m142 -71 c44 -28 73 -85 73 -148 0 -45 -3 -52 -40 -83 -33 -29 -108
-64 -116 -55 -2 1 4 50 12 107 8 58 14 126 12 153 -3 54 6 59 59 26z m-126
-262 c-10 -9 -11 -8 -5 6 3 10 9 15 12 12 3 -3 0 -11 -7 -18z"/>
<path d="M10167 12360 c-70 -21 -73 -48 -12 -115 60 -66 137 -198 133 -227 -3
-20 -8 -23 -38 -20 -34 3 -156 57 -166 73 -2 4 5 11 16 14 34 11 21 41 -15 37
-73 -8 -71 -65 3 -112 26 -17 78 -40 115 -51 106 -33 146 -7 124 81 -10 39
-74 151 -125 220 -31 40 -32 45 -15 51 10 4 39 8 64 8 38 1 50 -3 62 -21 11
-18 18 -20 27 -12 20 20 7 48 -30 66 -37 19 -96 22 -143 8z"/>
<path d="M4480 12261 c-38 -12 -85 -38 -99 -55 -11 -13 -8 -24 14 -63 72 -125
71 -137 -5 -88 -57 36 -73 39 -78 13 -3 -17 70 -75 106 -85 30 -7 72 22 72 50
0 12 -14 46 -30 76 -25 45 -38 90 -27 91 1 0 27 9 57 19 78 26 68 66 -10 42z"/>
<path d="M2376 12206 c-32 -34 -44 -58 -55 -105 -15 -66 -10 -129 11 -142 24
-15 37 15 41 97 6 126 55 188 103 129 15 -19 27 -26 39 -21 16 6 16 8 0 34
-43 67 -82 69 -139 8z"/>
<path d="M2627 12230 c-14 -11 -31 -37 -38 -58 -6 -20 -16 -43 -22 -50 -7 -9
-7 -16 1 -24 7 -7 12 -23 12 -36 0 -13 14 -37 30 -54 26 -25 36 -29 62 -24 41
8 78 32 78 51 0 16 -30 20 -45 6 -21 -19 -53 -22 -69 -6 -27 28 -20 58 20 80
43 23 84 70 84 95 0 41 -71 53 -113 20z m52 -46 c-13 -14 -32 -30 -41 -35 -14
-8 -16 -6 -11 8 10 30 35 53 56 53 20 0 19 -1 -4 -26z"/>
<path d="M5320 12210 c-26 -26 -25 -70 1 -122 25 -48 19 -84 -16 -100 -30 -14
-55 3 -55 38 0 13 -4 24 -9 24 -71 0 -44 -97 32 -115 23 -6 33 -1 67 33 46 45
48 64 19 132 -11 27 -19 57 -17 67 5 25 34 28 41 3 6 -23 35 -27 43 -5 4 8 -1
26 -10 40 -20 31 -67 34 -96 5z"/>
<path d="M5839 12193 c-83 -88 -97 -125 -59 -163 16 -16 33 -20 84 -20 42 0
67 5 75 14 16 19 -4 31 -42 27 -47 -5 -87 9 -87 29 0 28 63 105 85 105 28 0
27 39 0 43 -13 2 -33 -11 -56 -35z"/>
<path d="M2910 12191 c-19 -19 -30 -40 -30 -58 0 -16 -8 -33 -18 -39 -14 -9
-17 -21 -14 -58 3 -29 10 -50 18 -53 24 -9 63 6 79 31 15 23 15 27 -4 65 -32
62 -24 93 26 95 21 1 28 6 28 21 0 34 -50 32 -85 -4z m4 -152 c-10 -16 -24 -9
-24 12 0 18 2 19 15 9 8 -7 12 -16 9 -21z"/>
<path d="M3173 12193 c-4 -11 1 -22 15 -31 35 -23 28 -59 -13 -79 -19 -9 -37
-15 -39 -12 -3 3 0 22 5 44 15 58 16 77 2 82 -26 9 -58 -101 -42 -144 6 -16
17 -23 35 -23 38 0 104 40 110 67 8 28 -2 81 -17 100 -16 18 -48 16 -56 -4z"/>
<path d="M3381 12172 c-10 -20 -44 -66 -75 -101 -32 -34 -55 -68 -53 -74 8
-26 34 -15 67 26 33 42 35 43 45 23 15 -31 38 -30 72 1 l29 28 15 -30 c15 -33
42 -40 47 -12 2 9 -1 17 -7 17 -15 0 -14 48 3 104 12 40 12 48 1 53 -20 7 -33
-3 -55 -45 -23 -45 -69 -101 -70 -86 0 6 7 31 15 54 8 23 15 51 15 61 0 32
-29 21 -49 -19z"/>
<path d="M3655 12183 c-35 -38 -70 -152 -53 -170 21 -20 40 1 44 47 2 23 13
58 25 77 l22 36 20 -27 c20 -28 37 -26 37 5 0 22 -34 59 -55 59 -8 0 -26 -12
-40 -27z"/>
<path d="M5513 12152 c-17 -32 -46 -79 -67 -106 -20 -26 -36 -54 -36 -62 0
-25 40 -16 50 11 10 26 24 32 35 15 11 -18 32 -11 78 24 l45 34 8 -30 c10 -32
38 -58 50 -45 5 4 2 22 -4 40 -7 19 -12 52 -12 75 0 22 -4 44 -10 47 -5 3 -33
-19 -61 -50 -29 -30 -55 -55 -60 -55 -11 0 5 50 30 90 26 44 27 70 2 70 -13 0
-28 -18 -48 -58z"/>
<path d="M13337 12199 c-45 -26 -63 -128 -29 -169 25 -31 92 -36 166 -13 55
17 89 44 74 58 -3 4 -27 -1 -54 -10 -70 -24 -131 -30 -149 -15 -26 21 -18 40
18 40 37 0 97 33 97 54 0 21 -58 66 -83 66 -12 0 -30 -5 -40 -11z m66 -43 c6
-15 -12 -26 -44 -26 -22 0 -24 11 -7 28 16 16 45 15 51 -2z"/>
<path d="M3882 12184 c-48 -33 -82 -94 -82 -144 0 -70 21 -85 106 -77 69 7
124 31 107 48 -6 6 -29 5 -62 -2 -73 -15 -101 -7 -101 32 0 35 23 93 41 104 7
5 26 11 43 15 18 3 31 12 31 20 0 21 -55 24 -83 4z"/>
<path d="M4133 12178 c-51 -57 -59 -128 -18 -177 32 -37 68 -42 118 -18 39 18
46 44 11 39 -10 -1 -35 -5 -55 -8 -51 -9 -60 12 -19 44 18 14 39 41 47 60 12
30 12 37 -2 58 -20 30 -55 31 -82 2z m57 -23 c0 -2 -5 -15 -11 -28 -12 -26
-49 -54 -49 -37 0 22 31 70 45 70 8 0 15 -2 15 -5z"/>
<path d="M7990 12187 c-79 -41 -111 -87 -89 -128 11 -22 68 -26 88 -6 10 10
16 7 30 -11 12 -16 25 -23 41 -20 31 4 38 28 10 35 -15 4 -19 10 -14 22 4 9 9
34 12 55 3 30 0 43 -14 53 -22 16 -33 16 -64 0z m40 -41 c0 -19 -65 -69 -82
-63 -8 3 1 17 25 41 41 39 57 45 57 22z"/>
<path d="M8230 12185 c-9 -11 -16 -12 -26 -4 -18 15 -31 5 -44 -39 -7 -20 -21
-51 -31 -68 -45 -74 -10 -72 58 3 l52 58 -2 -44 c-2 -49 18 -71 63 -71 32 0
75 51 58 68 -12 12 -46 -1 -60 -22 -15 -22 -25 15 -17 61 12 63 -18 97 -51 58z"/>
<path d="M13053 12186 c-23 -6 -45 -14 -49 -18 -15 -16 8 -57 46 -83 55 -38
69 -64 44 -82 -24 -17 -69 -17 -88 2 -19 19 -46 19 -46 1 0 -25 50 -56 89 -56
34 0 76 20 93 44 17 25 5 53 -43 98 -29 27 -49 51 -46 55 4 3 25 6 47 6 41 0
60 12 44 27 -17 15 -49 18 -91 6z"/>
<path d="M6990 12177 c-26 -14 -30 -35 -16 -94 6 -27 5 -31 -11 -27 -25 7 -56
-28 -51 -57 7 -52 80 -50 102 3 11 26 11 40 0 82 -14 53 -11 62 21 68 11 2 20
10 20 18 0 20 -34 23 -65 7z m-10 -161 c0 -3 -4 -8 -10 -11 -5 -3 -10 -1 -10
4 0 6 5 11 10 11 6 0 10 -2 10 -4z"/>
<path d="M6762 12167 c-24 -14 -72 -68 -91 -104 -18 -35 1 -63 44 -63 24 0 45
9 70 31 31 27 35 29 35 12 0 -24 30 -53 53 -53 21 0 22 29 2 36 -8 3 -17 21
-21 40 -11 60 -29 63 -79 14 -25 -24 -47 -41 -51 -38 -3 3 6 24 20 47 30 47
70 63 90 36 14 -19 36 -13 36 10 0 39 -62 57 -108 32z"/>
<path d="M12727 12159 c-24 -14 -47 -62 -47 -98 0 -20 8 -36 26 -50 31 -25 58
-26 97 -6 25 13 28 12 42 -9 17 -25 61 -49 76 -41 17 11 9 30 -20 47 -21 11
-32 27 -37 52 -3 20 -10 36 -15 36 -5 0 -9 8 -9 18 0 44 -70 76 -113 51z m76
-69 c7 -28 5 -36 -10 -47 -46 -34 -81 12 -48 63 22 34 47 27 58 -16z"/>
<path d="M11493 12138 c-13 -13 -25 -38 -29 -55 -5 -25 -2 -33 14 -42 30 -16
63 -14 104 7 l36 19 6 -29 c6 -30 41 -67 64 -68 20 0 14 38 -9 50 -17 10 -20
19 -17 63 l3 51 -40 9 c-96 20 -109 20 -132 -5z m85 -27 c18 -11 -4 -29 -46
-37 -35 -7 -42 5 -16 30 17 17 42 20 62 7z"/>
<path d="M12124 12150 c-49 -20 -72 -101 -38 -134 20 -20 14 -21 84 14 l60 30
0 -25 c0 -30 34 -67 55 -59 19 8 19 18 0 34 -8 7 -15 24 -15 39 0 32 -31 80
-62 97 -27 15 -54 16 -84 4z m60 -36 c26 -10 19 -22 -24 -44 -34 -17 -40 -18
-40 -5 0 21 22 55 37 55 6 0 18 -3 27 -6z"/>
<path d="M13742 12008 c-15 -15 -15 -45 0 -54 13 -8 38 22 38 48 0 21 -20 24
-38 6z"/>
<path d="M6550 11790 c-74 -4 -324 -12 -555 -18 -231 -6 -663 -18 -960 -27
-297 -8 -742 -20 -990 -25 -885 -19 -1333 -46 -1645 -96 -95 -16 -579 -35
-586 -23 -7 13 -63 7 -68 -7 -7 -20 3 -44 20 -44 7 0 11 -6 8 -13 -2 -7 5
-109 16 -227 11 -118 20 -246 21 -285 2 -91 10 -130 29 -130 19 0 17 105 -11
413 -15 172 -17 227 -8 238 9 11 46 14 173 14 154 0 437 18 611 40 266 33 696
53 1440 70 1044 23 2109 56 2304 71 68 5 163 9 211 9 113 0 180 9 180 25 0 14
-24 26 -43 23 -7 -1 -73 -5 -147 -8z"/>
<path d="M7229 11708 c-6 -27 -10 -222 -11 -548 0 -424 4 -468 44 -494 27 -16
31 -2 18 61 -9 40 -13 200 -14 520 -1 434 -2 463 -18 463 -10 0 -18 -1 -19 -2z"/>
<path d="M6525 11468 c-16 -48 -24 -145 -17 -227 l8 -93 -44 5 c-32 3 -45 1
-49 -10 -9 -23 12 -35 56 -35 l41 1 1 -52 c0 -29 6 -74 13 -102 9 -39 15 -50
31 -50 22 0 22 1 5 83 -6 29 -10 72 -8 95 3 40 5 42 41 48 44 7 59 19 48 37
-6 10 -18 11 -52 3 -24 -5 -45 -9 -46 -7 -4 4 -4 228 -1 275 3 34 -17 56 -27
29z"/>
<path d="M4515 11456 c-54 -17 -97 -39 -181 -94 -147 -96 -192 -227 -129 -376
15 -36 66 -87 110 -109 l30 -16 -51 -1 c-108 0 -863 -31 -1129 -45 -154 -8
-442 -17 -640 -19 -198 -3 -415 -8 -481 -12 -83 -5 -132 -3 -154 5 -24 8 -37
8 -44 0 -15 -15 42 -61 69 -55 11 3 241 7 510 11 270 3 524 7 565 10 457 31
1238 56 1760 56 489 0 727 -7 1295 -36 160 -8 418 -19 575 -25 157 -6 300 -12
319 -15 19 -2 83 -2 143 2 80 4 108 9 108 19 0 8 -10 16 -22 18 -13 3 -205 12
-428 21 -223 9 -583 25 -800 36 -217 11 -592 23 -832 27 -241 5 -441 11 -444
15 -4 4 -2 13 4 19 7 7 12 18 12 25 0 18 -49 16 -56 -2 -10 -24 -225 -21 -279
4 -59 27 -91 68 -109 137 -14 53 -14 67 -2 107 33 110 147 207 300 257 35 11
44 10 73 -5 35 -19 50 -53 38 -82 -6 -14 -10 -11 -17 17 -13 50 -30 65 -57 51
-26 -14 -27 -27 -2 -40 11 -6 21 -26 25 -51 9 -55 31 -62 68 -22 54 61 28 140
-55 171 -34 13 -41 13 -92 -3z"/>
<path d="M5526 11439 c-31 -37 -32 -57 -5 -174 12 -49 23 -99 25 -110 4 -15
-4 -24 -28 -35 -41 -19 -87 -83 -95 -133 -18 -113 137 -98 168 16 14 51 7 131
-22 272 -21 100 -22 107 -6 141 9 19 17 39 17 44 0 20 -29 9 -54 -21z m29
-359 c11 -18 -6 -91 -26 -111 -10 -10 -30 -19 -44 -19 -34 0 -33 35 1 86 36
53 56 65 69 44z"/>
<path d="M5675 11458 c-3 -8 -1 -28 6 -44 7 -18 11 -104 10 -234 0 -214 9
-272 42 -278 21 -4 56 66 83 165 l17 65 19 -74 c44 -169 120 -224 166 -120 13
31 16 75 15 260 -1 220 -6 254 -34 237 -9 -6 -11 -52 -6 -196 9 -252 -9 -345
-54 -291 -20 25 -57 140 -66 201 -8 67 -13 81 -28 81 -20 0 -38 -39 -65 -143
-42 -161 -50 -148 -49 88 1 150 -3 221 -13 249 -14 42 -34 57 -43 34z"/>
<path d="M10796 11448 c-2 -7 -14 -73 -27 -146 l-23 -134 -33 5 c-18 3 -35 1
-39 -4 -10 -17 17 -39 47 -39 25 0 29 -4 29 -27 0 -52 22 -107 55 -140 27 -27
41 -33 75 -33 34 0 41 3 38 17 -2 10 -12 19 -23 21 -58 9 -67 14 -85 55 -11
23 -20 59 -20 80 l0 37 60 0 c44 0 60 4 60 14 0 7 9 16 21 19 31 8 18 31 -19
35 -22 2 -34 -2 -38 -12 -8 -20 -84 -23 -84 -3 0 6 11 66 25 131 13 66 22 123
19 128 -8 12 -34 9 -38 -4z"/>
<path d="M2202 11428 c-5 -7 -38 -68 -72 -135 -44 -88 -66 -123 -79 -123 -25
0 -32 -10 -21 -29 6 -13 -2 -39 -31 -95 -43 -84 -48 -109 -23 -104 10 2 39 46
66 99 53 103 61 109 139 109 l29 0 0 -73 c0 -60 4 -77 19 -91 11 -10 24 -15
29 -12 5 3 7 42 4 87 -3 49 -1 84 5 88 13 8 0 165 -20 235 -14 52 -27 65 -45
44z m17 -180 l1 -56 -48 -4 -49 -3 41 85 c46 95 52 92 55 -22z"/>
<path d="M6917 11433 c-2 -5 -5 -72 -6 -151 -1 -78 -7 -157 -12 -175 -5 -17
-9 -49 -9 -69 0 -50 21 -50 58 1 l28 39 -4 -54 c-7 -87 39 -129 128 -116 56 8
115 82 66 82 -8 0 -19 -6 -25 -14 -15 -17 -69 -26 -98 -15 -29 11 -37 55 -23
126 6 32 12 64 13 72 4 29 -25 21 -59 -16 -25 -26 -35 -32 -31 -18 9 33 12
289 4 303 -9 13 -24 16 -30 5z"/>
<path d="M4805 11390 c-3 -5 2 -21 11 -35 14 -22 16 -42 11 -133 -4 -59 -13
-132 -22 -162 -19 -72 -19 -93 4 -121 16 -20 23 -22 47 -14 34 12 38 39 7 43
-27 4 -27 0 -8 126 27 178 16 306 -25 306 -11 0 -22 -4 -25 -10z"/>
<path d="M12234 11386 c-10 -25 -21 -371 -13 -393 5 -13 15 -23 23 -23 16 0
28 24 17 36 -4 5 -4 90 0 189 5 99 7 186 4 193 -6 16 -24 15 -31 -2z"/>
<path d="M11529 11353 c-2 -19 -9 -43 -33 -115 -14 -42 -26 -92 -26 -111 0
-33 -1 -34 -57 -43 -45 -7 -59 -13 -61 -28 -4 -17 1 -18 57 -12 54 6 61 5 61
-10 0 -34 42 -105 71 -119 35 -19 103 -19 118 -2 15 19 4 27 -41 27 -52 0 -77
15 -94 55 -22 54 -19 62 29 63 63 3 97 12 97 27 0 21 -10 23 -66 16 -65 -9
-74 -5 -74 28 0 26 38 148 58 187 5 11 7 25 5 32 -5 13 -42 17 -44 5z"/>
<path d="M12519 11227 c-99 -39 -110 -62 -58 -121 17 -20 28 -40 25 -45 -7
-10 -44 -3 -63 11 -16 13 -33 1 -33 -22 0 -22 20 -35 72 -44 70 -13 90 48 38
114 l-31 39 23 12 c13 7 48 20 78 30 58 18 74 42 30 46 -14 1 -50 -8 -81 -20z"/>
<path d="M9346 11211 c-3 -5 -14 -7 -24 -4 -21 5 -77 -32 -105 -69 -14 -18
-18 -34 -13 -52 9 -38 49 -34 102 10 l44 35 0 -121 0 -120 -27 7 c-16 5 -50 8
-76 8 -72 0 -90 -26 -85 -121 3 -57 9 -79 31 -112 28 -44 51 -51 88 -31 22 11
89 141 89 171 0 9 7 21 17 26 11 7 14 16 9 28 -4 11 -7 85 -6 166 1 140 -7
188 -30 188 -5 0 -11 -4 -14 -9z m-47 -67 c-13 -14 -33 -30 -44 -36 -11 -5 -3
7 17 26 43 41 63 49 27 10z m33 -292 c19 -19 -55 -177 -82 -177 -42 0 -70 162
-32 185 18 11 101 5 114 -8z"/>
<path d="M3088 11199 c-6 -4 -8 -14 -5 -24 6 -14 17 -15 77 -9 38 3 70 4 70 1
0 -4 -29 -39 -65 -79 -36 -39 -65 -79 -65 -88 0 -9 10 -26 23 -38 37 -35 168
-26 175 12 3 15 -2 17 -57 10 -43 -5 -65 -3 -76 6 -18 15 -10 31 50 95 78 84
81 110 12 119 -50 7 -124 4 -139 -5z"/>
<path d="M9518 11198 c-30 -23 -58 -83 -58 -121 0 -43 22 -92 45 -101 47 -18
162 10 152 36 -4 13 -12 13 -91 1 -31 -4 -42 -2 -53 13 -17 23 -17 44 0 44 8
0 33 14 55 30 48 35 55 69 20 94 -27 19 -49 20 -70 4z m49 -44 c1 -5 -11 -17
-27 -26 -34 -19 -38 -13 -14 20 15 22 35 25 41 6z"/>
<path d="M2445 11178 c-15 -12 -35 -34 -45 -50 l-18 -29 -6 26 c-5 18 -12 25
-24 23 -13 -3 -17 -14 -18 -48 -1 -25 -5 -73 -9 -107 -7 -59 -7 -63 12 -63 16
0 30 20 64 90 23 49 51 98 62 107 20 18 20 17 14 -15 -8 -38 6 -72 28 -72 8 0
27 18 41 40 15 22 27 40 28 40 0 0 1 -39 1 -86 0 -82 1 -87 28 -110 35 -30 80
-31 108 -3 26 26 11 51 -20 32 -14 -9 -24 -8 -42 1 -23 11 -24 16 -24 126 0
133 -7 142 -64 82 l-39 -41 -6 29 c-8 43 -37 55 -71 28z"/>
<path d="M10217 11168 c-44 -59 -59 -98 -52 -134 7 -40 38 -64 82 -64 39 0
103 29 103 46 0 21 -17 25 -46 9 -39 -20 -90 -19 -98 1 -8 20 -10 17 37 39 21
10 43 29 48 42 13 35 -13 92 -43 93 -4 0 -18 -15 -31 -32z m43 -36 c0 -11 -22
-32 -32 -32 -5 0 -4 9 2 20 11 20 30 28 30 12z"/>
<path d="M8046 11159 c-14 -17 -26 -36 -27 -42 0 -7 -4 -2 -10 11 -5 15 -15
22 -26 20 -14 -3 -17 -12 -15 -45 2 -22 -1 -58 -7 -79 -7 -27 -7 -41 0 -51 16
-19 26 -9 65 70 47 97 57 104 52 42 -4 -67 14 -69 77 -8 l49 48 8 -45 c13 -80
18 -89 48 -105 28 -14 31 -14 37 1 4 11 -2 23 -17 34 -19 14 -23 29 -28 89 -7
97 -28 103 -103 27 l-26 -26 -7 31 c-6 33 -22 59 -36 59 -5 0 -20 -14 -34 -31z"/>
<path d="M9785 11154 l-33 -36 -4 28 c-2 18 -9 29 -18 29 -11 0 -17 -16 -21
-60 -3 -33 -14 -75 -23 -93 -17 -33 -16 -62 3 -62 5 0 31 33 57 73 79 121 78
120 84 41 3 -43 9 -69 17 -69 6 0 26 22 45 49 36 55 58 69 58 38 0 -25 44 -79
71 -87 11 -4 32 -4 48 0 23 5 30 13 34 43 8 43 5 46 -28 38 -16 -4 -25 -13
-25 -26 0 -52 -57 5 -66 66 -10 68 -25 72 -73 18 -37 -42 -41 -45 -41 -23 0
27 -25 69 -42 69 -6 0 -25 -16 -43 -36z"/>
<path d="M2854 11166 c-29 -21 -59 -118 -44 -145 14 -26 46 -27 88 -1 42 26
52 25 52 -3 0 -27 17 -47 41 -47 27 0 34 21 14 36 -17 13 -20 38 -12 109 1 14
-4 20 -18 20 -11 0 -36 10 -56 23 -43 26 -39 26 -65 8z m57 -52 c14 -17 4 -29
-44 -55 -17 -10 -17 -8 -2 27 8 20 15 38 15 40 0 10 19 2 31 -12z"/>
<path d="M11990 11162 c0 -11 -9 -27 -21 -38 -36 -32 -55 -82 -50 -131 4 -42
80 -57 132 -26 61 36 62 108 2 174 -38 42 -63 50 -63 21z m54 -78 c37 -37 0
-98 -57 -92 -28 3 -32 6 -28 28 9 68 50 99 85 64z"/>
<path d="M8901 11144 c-25 -31 -34 -62 -29 -95 5 -36 40 -35 93 1 l45 31 6
-41 c8 -51 34 -86 58 -77 16 6 16 8 -1 34 -12 18 -18 45 -17 85 1 71 -13 75
-82 23 -41 -32 -64 -43 -64 -30 0 20 27 55 44 57 30 4 26 32 -5 36 -19 2 -33
-5 -48 -24z"/>
<path d="M10440 11131 c-34 -33 -41 -47 -43 -82 -2 -33 2 -44 15 -47 11 -2 18
6 22 25 4 16 15 42 26 58 l20 30 0 -28 c0 -63 47 -122 80 -102 15 9 12 35 -4
35 -22 0 -30 19 -36 85 -6 75 -23 81 -80 26z"/>
<path d="M7620 11151 c-14 -4 -25 -13 -25 -21 0 -12 15 -15 75 -13 73 2 99 15
69 34 -16 10 -83 10 -119 0z"/>
<path d="M8413 11145 c-51 -36 -83 -126 -52 -146 22 -14 33 -11 80 21 51 35
59 36 59 12 0 -10 7 -28 16 -40 13 -18 19 -21 30 -11 11 9 12 15 2 26 -7 8
-13 41 -13 74 -1 68 -8 79 -35 54 -20 -18 -21 -18 -36 3 -18 26 -23 27 -51 7z
m21 -82 c-47 -38 -60 -26 -23 21 17 22 24 25 36 14 13 -11 11 -15 -13 -35z"/>
<path d="M6193 11138 c-22 -11 -53 -73 -53 -106 0 -19 18 -42 32 -42 4 0 26
16 48 36 l39 36 7 -41 c7 -45 17 -56 55 -66 50 -12 45 31 -5 48 -6 2 -11 31
-12 68 -1 62 -2 64 -27 64 -14 0 -29 3 -33 8 -10 9 -24 8 -51 -5z m37 -36 c0
-5 -9 -17 -20 -27 -22 -20 -26 -14 -10 16 11 19 30 26 30 11z"/>
<path d="M8628 11135 c-41 -23 -78 -157 -39 -143 6 2 23 28 38 58 20 38 35 55
49 55 16 0 20 -9 24 -63 5 -58 21 -89 41 -76 12 7 -2 138 -17 162 -17 26 -55
29 -96 7z"/>
<path d="M3670 11115 c-17 -18 -29 -23 -48 -18 -23 5 -24 4 -19 -22 3 -16 -2
-43 -11 -62 -12 -25 -13 -36 -4 -45 14 -14 38 4 48 35 4 12 21 40 38 61 30 39
31 39 37 15 4 -13 7 -45 8 -70 1 -57 26 -91 65 -91 15 0 29 2 33 5 11 11 -7
39 -21 34 -22 -9 -33 13 -40 81 -10 103 -38 128 -86 77z"/>
<path d="M3380 11094 c-33 -30 -40 -43 -40 -74 0 -48 24 -70 77 -70 77 0 140
70 114 126 -10 22 -67 54 -97 54 -8 0 -32 -16 -54 -36z m103 -28 c45 -14 -20
-84 -67 -72 -19 5 -26 13 -26 31 0 35 35 68 58 56 9 -5 25 -12 35 -15z"/>
<path d="M4948 11111 c-23 -27 -34 -51 -41 -88 -7 -36 7 -93 25 -105 21 -13
62 -9 86 8 29 20 62 85 62 122 0 35 -33 72 -65 72 -13 0 -29 2 -37 5 -7 3 -21
-3 -30 -14z m90 -64 c4 -34 -40 -97 -67 -97 -24 0 -33 36 -20 82 9 36 26 47
64 45 14 -2 21 -10 23 -30z"/>
<path d="M11770 11112 c-33 -16 -35 -21 -34 -65 0 -58 25 -88 74 -89 47 -2 90
47 90 101 0 21 -6 44 -14 50 -25 21 -79 22 -116 3z m88 -49 c5 -36 -15 -63
-47 -63 -29 0 -41 15 -41 51 0 12 7 19 19 19 11 0 23 5 26 11 11 17 40 5 43
-18z"/>
<path d="M5213 11067 c-17 -29 -50 -73 -72 -99 -23 -25 -41 -51 -41 -57 0 -23
40 -10 62 20 l23 31 5 -29 c4 -21 11 -29 31 -31 21 -2 35 7 67 43 37 42 41 44
44 23 4 -29 46 -52 66 -35 12 9 11 14 -7 25 -15 11 -21 25 -21 52 0 90 -23 91
-79 5 -23 -36 -47 -65 -52 -65 -13 0 -3 51 22 109 34 79 -1 85 -48 8z"/>
<path d="M6684 11113 c-24 -17 -46 -76 -40 -107 10 -53 32 -76 74 -76 42 0
102 32 102 55 0 19 -13 19 -51 -1 -16 -8 -38 -12 -49 -9 -21 7 -35 54 -25 86
6 18 12 20 45 15 40 -6 61 7 42 26 -13 13 -84 21 -98 11z"/>
<path d="M10393 10814 c-28 -7 -49 -32 -37 -44 6 -6 23 -6 44 0 58 17 92 12
170 -26 75 -37 191 -102 200 -114 3 -3 37 -27 77 -53 76 -51 183 -142 247
-210 48 -52 285 -408 359 -540 63 -112 168 -368 196 -479 35 -137 45 -292 33
-503 -7 -109 -20 -226 -31 -275 -21 -95 -81 -246 -142 -359 -72 -134 -266
-392 -279 -371 -13 21 -33 7 -119 -82 -66 -68 -80 -89 -68 -94 10 -4 33 6 59
27 38 29 37 26 -17 -30 -139 -146 -326 -292 -475 -372 l-75 -40 40 35 c22 20
43 36 48 36 11 0 8 40 -3 40 -16 0 -72 -30 -95 -50 -60 -53 -227 -146 -304
-170 -64 -20 -86 -32 -92 -49 -7 -18 -4 -23 19 -32 23 -9 37 -6 92 21 36 18
110 48 165 67 302 104 547 282 828 603 275 314 430 596 478 867 16 92 21 167
22 343 2 308 -14 390 -138 686 -61 146 -131 268 -292 514 -106 160 -153 222
-217 284 -88 85 -194 169 -266 208 -25 14 -67 38 -95 54 -159 94 -254 124
-332 108z"/>
<path d="M3887 10728 c-26 -18 -66 -46 -89 -63 -24 -16 -79 -63 -123 -105 -45
-41 -133 -115 -197 -163 -136 -103 -171 -146 -383 -467 -103 -158 -133 -225
-241 -545 -84 -248 -123 -505 -111 -730 8 -149 18 -195 94 -450 35 -121 76
-258 90 -305 39 -131 249 -523 373 -695 130 -180 405 -433 632 -581 137 -89
372 -193 603 -267 282 -91 854 -171 1410 -197 226 -10 429 0 689 35 102 14
263 34 358 45 222 26 252 32 498 90 199 47 505 108 780 155 348 60 659 130
684 155 7 7 6 15 -5 25 -13 13 -27 11 -124 -15 -124 -34 -338 -78 -560 -115
-82 -13 -181 -31 -220 -40 -88 -18 -108 -18 -72 1 27 15 35 38 17 49 -5 3 -49
-9 -97 -28 -292 -116 -494 -157 -998 -206 -190 -18 -288 -29 -355 -40 -36 -6
-91 -13 -124 -17 -44 -4 -59 -10 -63 -23 -4 -15 -21 -19 -112 -24 -162 -8
-529 11 -821 43 -279 31 -374 45 -575 85 -416 83 -754 223 -1006 417 -297 228
-455 397 -599 639 -81 134 -223 399 -218 404 2 3 47 7 100 10 79 4 97 2 102
-10 6 -17 36 -21 36 -5 0 5 30 9 71 8 50 -1 73 3 79 12 14 23 3 29 -71 36
l-71 7 7 66 c4 36 20 111 36 166 34 117 36 152 12 157 -10 2 20 10 67 17 92
15 117 26 100 46 -7 9 -39 6 -137 -12 -71 -13 -164 -25 -207 -27 -82 -3 -104
-15 -65 -36 20 -11 98 -9 187 7 30 5 32 3 32 -23 0 -16 -11 -65 -25 -109 -14
-44 -30 -118 -36 -165 l-12 -85 -71 -4 c-39 -2 -91 -5 -116 -5 l-44 -1 -22 75
c-12 41 -46 154 -75 250 -84 282 -88 297 -100 409 -14 131 -6 320 22 485 28
164 153 545 228 694 28 55 200 316 284 432 52 71 87 102 227 208 63 48 144
117 180 154 94 96 135 126 163 121 39 -8 78 72 41 84 -6 2 -32 -11 -57 -29z"/>
<path d="M6904 10406 c-3 -7 10 -51 29 -97 19 -46 41 -119 47 -161 15 -93 3
-123 -56 -134 -48 -9 -60 5 -48 53 8 33 13 38 38 38 36 0 45 20 16 35 -34 18
-69 4 -86 -35 -38 -92 7 -158 91 -133 43 14 95 69 95 102 0 42 -27 169 -49
225 -11 31 -18 65 -15 81 5 22 2 28 -18 33 -33 9 -38 9 -44 -7z"/>
<path d="M9137 10408 c-9 -7 -23 -29 -31 -48 -16 -41 -34 -183 -32 -254 l1
-50 -65 -13 c-108 -21 -110 -22 -110 -43 0 -24 -5 -24 98 -1 l82 18 0 -59 c0
-32 -9 -102 -21 -154 -18 -86 -19 -98 -6 -111 13 -14 16 -13 26 5 20 38 51
193 51 257 l0 65 34 0 c34 0 35 -1 29 -35 -5 -30 -2 -36 21 -46 36 -17 75 -2
102 39 26 39 22 66 -19 112 -23 25 -31 29 -43 19 -8 -6 -14 -16 -14 -21 0 -5
-9 -21 -20 -35 -18 -24 -20 -24 -20 -5 0 24 -27 37 -47 21 -7 -7 -16 -9 -20
-5 -3 3 -7 59 -7 123 -1 127 18 199 47 187 20 -7 31 14 17 31 -15 18 -31 19
-53 3z m143 -385 c0 -18 -28 -53 -42 -53 -5 0 -6 10 -2 23 13 43 44 64 44 30z"/>
<path d="M4053 10372 c-97 -33 -148 -71 -185 -138 -33 -60 -35 -109 -7 -170
38 -80 167 -132 339 -137 69 -2 75 0 75 18 0 17 -11 21 -95 31 -167 19 -242
51 -275 114 -20 39 -19 73 5 120 27 54 76 88 167 117 100 32 163 35 192 9 14
-13 25 -16 32 -9 29 29 -47 73 -124 72 -23 0 -79 -12 -124 -27z"/>
<path d="M7916 10391 c-3 -4 0 -22 6 -39 10 -25 8 -49 -7 -124 -11 -51 -19
-131 -20 -178 0 -74 2 -85 18 -88 23 -5 61 30 78 70 11 27 14 29 20 12 4 -10
8 -35 8 -55 1 -24 9 -45 26 -63 28 -30 34 -31 60 -13 20 16 13 37 -13 37 -19
0 -42 76 -42 140 -1 85 -36 77 -84 -17 l-35 -68 -1 42 c0 23 9 89 20 145 23
119 24 147 8 183 -11 25 -32 33 -42 16z"/>
<path d="M9742 10373 c-5 -10 -12 -43 -15 -73 -4 -30 -14 -87 -24 -126 l-18
-72 -33 5 c-23 4 -37 1 -42 -8 -12 -19 -3 -29 28 -29 41 0 49 -10 62 -72 12
-59 24 -78 41 -61 13 13 14 38 4 85 -7 35 -6 37 21 43 97 20 127 36 107 56 -6
6 -31 4 -68 -6 -32 -8 -60 -13 -62 -11 -2 1 2 36 8 77 20 137 26 194 22 202
-7 12 -22 8 -31 -10z"/>
<path d="M4445 10270 c-10 -31 -3 -198 11 -266 17 -81 33 -114 56 -114 10 0
18 2 18 5 0 3 -12 58 -26 122 -20 90 -25 135 -22 195 4 70 3 78 -13 78 -10 0
-21 -9 -24 -20z"/>
<path d="M8212 10228 c2 -25 8 -34 26 -36 16 -3 22 2 22 16 0 34 -11 52 -32
52 -16 0 -19 -6 -16 -32z"/>
<path d="M7146 10199 c-62 -48 -73 -123 -27 -170 27 -26 36 -29 93 -28 71 0
153 27 153 49 0 10 -8 14 -25 12 -82 -10 -162 -13 -175 -8 -12 4 -5 16 30 49
29 29 45 52 45 68 0 51 -47 65 -94 28z m54 -27 c0 -11 -59 -67 -65 -61 -8 9
35 69 50 69 8 0 15 -4 15 -8z"/>
<path d="M4700 10195 c0 -20 39 -40 52 -27 6 6 8 18 5 26 -8 20 -57 21 -57 1z"/>
<path d="M8402 10144 c-23 -19 -42 -41 -42 -47 0 -7 11 -29 25 -50 14 -20 23
-42 20 -47 -3 -6 -28 -10 -55 -10 -51 0 -71 -18 -44 -41 18 -15 107 -7 130 12
21 17 13 69 -16 106 l-21 27 37 31 c22 19 34 36 30 43 -11 18 -19 15 -64 -24z"/>
<path d="M5127 10140 c-14 -11 -31 -36 -37 -56 -11 -32 -13 -34 -25 -17 -11
14 -16 15 -26 6 -9 -9 -7 -23 11 -65 17 -40 24 -78 27 -153 5 -108 15 -133 39
-100 12 16 14 39 10 110 -4 60 -3 83 3 69 14 -33 28 -37 50 -15 38 38 51 127
27 186 -20 48 -47 60 -79 35z m48 -105 c0 -59 -7 -74 -28 -57 -8 7 -17 8 -22
4 -13 -12 1 96 15 113 21 25 35 1 35 -60z"/>
<path d="M6276 10145 c-9 -9 -16 -25 -16 -36 0 -11 -7 -19 -16 -19 -12 0 -14
-7 -9 -29 3 -16 -1 -47 -9 -72 -21 -58 -20 -69 4 -69 16 0 24 16 46 86 18 57
30 81 35 72 5 -7 9 -21 9 -31 0 -33 31 -32 62 1 l28 32 0 -33 c0 -43 34 -89
63 -85 27 4 34 26 10 35 -30 11 -34 25 -27 96 5 60 4 67 -12 67 -9 0 -34 -18
-55 -41 -33 -36 -38 -38 -43 -21 -4 10 -17 29 -30 41 -22 20 -25 21 -40 6z"/>
<path d="M6602 10148 c-19 -24 -31 -89 -22 -114 10 -24 52 -34 65 -15 3 5 17
-1 32 -15 14 -13 34 -24 44 -24 11 0 22 -1 26 -2 4 -2 9 4 11 13 2 11 -8 20
-27 27 -27 9 -31 16 -31 46 0 48 -15 53 -47 17 -15 -17 -31 -31 -35 -31 -15 0
4 55 25 71 11 9 17 21 13 28 -10 15 -41 14 -54 -1z"/>
<path d="M4896 10119 c-14 -17 -26 -39 -26 -50 0 -10 -7 -19 -15 -19 -22 0
-28 -59 -12 -110 8 -25 18 -71 21 -102 8 -72 21 -108 41 -108 26 0 30 51 8
133 l-21 77 25 0 c74 0 117 94 78 169 -25 50 -62 54 -99 10z m64 -28 c23 -44
-1 -101 -43 -101 -17 0 -19 5 -13 41 12 73 35 98 56 60z"/>
<path d="M9978 10109 c-27 -15 -22 -54 11 -90 28 -30 48 -76 37 -86 -2 -3 -35
0 -72 6 -74 11 -84 9 -84 -19 0 -20 15 -25 111 -36 65 -7 94 0 103 23 10 25
-22 109 -53 142 l-28 30 31 3 c20 2 31 9 31 18 0 18 -62 25 -87 9z"/>
<path d="M9454 10089 c-10 -12 -29 -25 -41 -30 -18 -7 -21 -15 -20 -56 2 -56
26 -66 42 -18 25 73 55 99 55 47 0 -35 26 -72 51 -72 22 0 25 22 5 40 -8 6
-16 33 -18 58 -3 42 -6 47 -29 50 -16 2 -32 -5 -45 -19z"/>
<path d="M5391 10058 c-5 -13 -12 -39 -16 -58 -5 -19 -10 -29 -12 -22 -3 6
-13 12 -22 12 -10 0 -23 12 -30 26 -12 27 -44 30 -48 4 -3 -16 54 -84 76 -91
9 -3 3 -33 -23 -115 -40 -123 -43 -146 -21 -164 18 -15 35 -5 35 23 0 12 15
72 34 132 40 130 68 253 60 266 -9 16 -24 10 -33 -13z"/>
<path d="M8181 10046 c-9 -11 -10 -28 -2 -72 12 -66 14 -69 36 -60 13 5 15 13
9 38 -4 18 -8 48 -8 67 -2 38 -17 49 -35 27z"/>
<path d="M4694 10026 c-7 -18 3 -65 18 -83 15 -18 38 -4 38 23 0 13 -4 24 -9
24 -5 0 -11 10 -13 22 -4 26 -26 35 -34 14z"/>
<path d="M5724 9949 c-4 -7 -8 -27 -10 -46 -3 -44 -22 -68 -40 -52 -24 19 -41
2 -48 -48 -33 -219 -47 -359 -40 -388 8 -31 31 -39 49 -17 8 9 35 40 61 67
l46 50 -6 -67 c-6 -59 -4 -70 14 -88 22 -22 55 -26 66 -8 4 7 -2 18 -14 26
-19 13 -22 23 -22 92 0 56 -4 79 -13 83 -21 8 -74 -22 -108 -61 -20 -23 -29
-29 -26 -16 3 10 8 64 12 119 9 151 15 195 29 195 7 0 27 16 46 35 28 29 34
42 34 81 1 46 -14 68 -30 43z"/>
<path d="M8461 9838 c-5 -13 -14 -69 -22 -125 l-13 -103 -36 -6 c-19 -3 -42
-6 -50 -7 -8 -1 -15 -9 -15 -17 0 -11 12 -15 46 -14 l46 0 -1 -80 c-1 -64 2
-81 13 -81 16 0 26 32 36 117 6 55 7 57 38 60 44 4 43 32 0 36 -39 4 -39 7
-18 136 8 49 12 93 9 97 -9 16 -24 10 -33 -13z"/>
<path d="M9822 9822 c-10 -10 -31 -48 -47 -84 -18 -42 -37 -70 -52 -77 -25
-11 -32 -41 -9 -41 10 0 12 -12 8 -50 -6 -63 11 -104 53 -130 44 -27 87 -26
122 4 24 21 26 25 11 31 -9 4 -24 3 -33 -3 -23 -12 -59 -4 -84 19 -22 20 -26
61 -12 124 6 30 7 30 86 35 62 4 80 8 80 20 0 12 -16 16 -72 18 -40 2 -73 5
-73 8 0 10 43 90 57 106 15 17 10 38 -8 38 -5 0 -17 -8 -27 -18z"/>
<path d="M10359 9670 c-14 -11 -38 -37 -53 -59 -25 -36 -27 -42 -14 -68 26
-55 130 -32 158 37 11 26 9 33 -16 69 -33 46 -39 48 -75 21z m51 -61 c0 -15
-43 -49 -62 -49 -16 0 -17 3 -7 23 22 42 41 58 56 46 7 -6 13 -15 13 -20z"/>
<path d="M5905 9670 c-10 -16 20 -44 39 -37 17 7 22 37 7 37 -5 0 -16 3 -24 6
-8 3 -18 0 -22 -6z"/>
<path d="M6140 9659 c-14 -6 -37 -22 -52 -36 -41 -39 -37 -77 12 -124 38 -36
39 -39 20 -49 -15 -8 -36 -6 -81 5 -51 13 -64 14 -70 3 -15 -23 -4 -33 62 -50
73 -20 118 -12 144 25 25 36 19 63 -20 86 -20 11 -38 28 -42 36 -8 22 43 73
76 77 34 4 35 32 1 35 -14 1 -36 -2 -50 -8z"/>
<path d="M10093 9626 c-70 -73 -56 -126 34 -126 79 0 110 38 87 105 -26 77
-61 83 -121 21z m81 -22 c17 -45 1 -64 -55 -64 -37 0 -38 22 -3 55 31 29 49
32 58 9z"/>
<path d="M8724 9640 c-23 -9 -84 -78 -84 -95 0 -6 -9 -16 -20 -23 -25 -15 -26
-31 -2 -39 9 -4 27 -17 39 -30 17 -18 33 -23 71 -23 50 0 90 19 78 38 -4 7
-25 9 -56 5 -33 -4 -55 -2 -65 7 -21 18 -19 23 17 39 39 18 78 58 78 81 0 27
-32 49 -56 40z m16 -44 c0 -2 -8 -10 -17 -17 -16 -13 -17 -12 -4 4 13 16 21
21 21 13z"/>
<path d="M6970 9626 c-56 -31 -100 -128 -81 -178 5 -14 25 -38 45 -53 28 -21
43 -26 83 -23 35 2 48 7 48 18 0 10 -12 16 -34 18 -38 4 -77 26 -91 52 -11 21
9 93 32 116 9 10 34 20 55 23 24 4 38 12 38 21 0 20 -62 24 -95 6z"/>
<path d="M7818 9603 c-20 -21 -46 -58 -57 -82 l-20 -45 -3 40 c-3 43 -31 56
-36 16 -3 -22 -5 -21 -26 10 -12 18 -32 34 -45 36 -35 5 -78 -17 -101 -52
l-20 -31 0 41 c0 22 -6 48 -13 58 -12 16 -14 16 -38 -3 -14 -10 -33 -19 -42
-18 -19 2 -68 -98 -71 -143 -2 -36 31 -39 44 -4 6 15 25 45 42 67 l32 40 8
-31 c12 -45 42 -59 65 -31 33 42 62 69 72 69 6 0 18 -12 28 -27 24 -37 45 -53
62 -47 19 6 10 -128 -14 -209 -13 -45 -14 -61 -5 -72 7 -8 16 -13 20 -10 4 3
18 45 31 95 23 87 25 90 52 90 52 0 116 89 138 189 20 96 -35 124 -103 54z
m67 -35 c-16 -80 -78 -170 -105 -153 -21 13 41 153 78 174 28 17 34 13 27 -21z"/>
<path d="M8081 9604 c-12 -15 -21 -30 -21 -33 0 -4 -29 -38 -65 -76 -36 -39
-64 -74 -62 -80 2 -5 13 -11 25 -13 16 -2 25 4 31 20 13 35 37 53 45 33 7 -20
45 -19 69 2 18 17 19 17 17 -17 -3 -56 -2 -60 29 -60 37 0 48 16 27 39 -10 11
-16 36 -16 69 0 59 -17 68 -57 30 -32 -30 -29 -11 7 46 17 26 28 52 25 57 -11
17 -33 9 -54 -17z"/>
<path d="M3953 9603 c-7 -2 -13 -11 -13 -20 0 -8 -9 -26 -20 -40 -46 -59 -43
-147 5 -159 35 -9 63 4 111 48 49 45 56 77 29 142 -14 34 -18 36 -58 35 -23 0
-48 -3 -54 -6z m87 -85 c0 -38 -60 -98 -98 -98 -34 0 -4 104 39 133 21 15 24
15 41 0 10 -9 18 -25 18 -35z"/>
<path d="M4161 9575 c-17 -20 -31 -41 -31 -47 0 -6 -7 -19 -16 -29 -12 -13
-15 -28 -10 -54 6 -30 11 -36 29 -33 12 2 21 10 19 17 -5 22 27 117 42 131 17
13 20 6 31 -84 9 -64 24 -96 47 -96 20 0 23 12 8 40 -6 11 -14 51 -19 90 -14
108 -44 128 -100 65z"/>
<path d="M7193 9583 c-61 -31 -78 -136 -28 -169 20 -13 27 -13 57 -1 74 31
104 120 55 165 -27 26 -41 26 -84 5z m57 -65 c0 -39 -57 -77 -74 -50 -12 19
11 67 35 73 31 8 39 3 39 -23z"/>
<path d="M8899 9569 c-16 -17 -29 -35 -29 -40 0 -5 -7 -9 -15 -9 -21 0 -21
-95 0 -104 21 -8 43 19 38 46 -2 13 6 38 18 57 18 30 22 33 31 18 22 -40 50
-9 28 32 -17 33 -40 33 -71 0z"/>
<path d="M5917 9523 c-24 -41 -13 -113 19 -113 12 0 14 11 12 57 -3 50 -18 78
-31 56z"/>
<path d="M7333 9348 c-6 -7 -16 -47 -22 -88 -16 -104 -34 -169 -81 -294 -23
-60 -39 -115 -36 -122 3 -8 14 -14 25 -14 15 0 31 21 60 78 23 42 52 90 65
107 l24 30 7 -45 c3 -25 2 -70 -3 -101 -9 -62 -1 -99 23 -99 18 0 34 32 18 37
-6 2 -7 21 -1 56 10 58 2 155 -14 175 -17 20 -40 14 -75 -20 l-33 -32 15 45
c9 25 26 97 40 160 19 92 21 117 11 127 -10 11 -15 11 -23 0z"/>
<path d="M7999 9320 c-11 -7 -15 -44 -20 -162 -6 -151 -15 -194 -51 -239 -16
-20 -58 -42 -65 -35 -10 10 28 101 50 118 16 13 19 20 11 28 -21 21 -49 6 -72
-41 -64 -130 -23 -188 84 -116 43 28 52 40 71 97 18 53 22 88 23 187 0 70 4
124 10 128 15 9 12 23 -8 34 -11 6 -24 6 -33 1z"/>
<path d="M8807 9302 c-10 -10 -17 -23 -17 -29 0 -6 -13 -40 -30 -76 -16 -37
-30 -73 -30 -82 0 -8 -8 -15 -19 -15 -23 0 -45 -25 -36 -40 4 -6 14 -8 24 -5
14 4 17 -3 17 -48 1 -59 24 -111 56 -128 32 -17 97 -17 108 1 13 21 1 32 -26
26 -54 -14 -102 60 -88 132 6 28 10 30 63 37 82 9 131 24 131 39 0 21 -10 24
-43 16 -18 -4 -56 -11 -86 -15 -49 -5 -53 -4 -46 12 46 115 63 173 51 182 -9
8 -17 6 -29 -7z"/>
<path d="M6372 9297 c-6 -7 -9 -23 -6 -34 8 -30 -13 -152 -43 -250 -24 -79
-25 -113 -4 -113 6 0 33 34 61 75 28 41 52 75 53 75 2 0 2 -28 1 -62 -2 -95
30 -138 93 -126 26 5 22 32 -5 36 -38 6 -54 52 -46 132 6 60 4 71 -10 76 -12
5 -29 -4 -53 -27 -34 -33 -35 -33 -30 -9 15 66 29 178 25 204 -3 33 -19 43
-36 23z"/>
<path d="M6021 9213 c-28 -37 -61 -80 -73 -96 -18 -22 -19 -30 -9 -40 10 -10
19 -4 47 28 20 22 50 56 68 75 38 41 50 75 31 90 -10 8 -25 -5 -64 -57z"/>
<path d="M4936 9248 c-2 -7 -9 -69 -16 -138 -6 -69 -14 -142 -17 -162 -4 -29
-1 -39 11 -44 22 -9 29 0 31 39 2 17 8 77 14 133 14 114 12 176 -6 182 -7 2
-15 -2 -17 -10z"/>
<path d="M5103 9228 c-6 -7 -13 -37 -17 -66 -4 -29 -16 -81 -26 -116 -21 -67
-39 -175 -32 -194 5 -17 29 -15 36 4 3 9 6 28 6 43 0 14 13 78 29 142 16 64
31 133 33 154 3 39 -11 56 -29 33z"/>
<path d="M4182 9149 c-56 -11 -103 -38 -121 -71 -13 -23 -13 -29 3 -53 10 -14
33 -36 52 -47 19 -11 34 -24 34 -29 0 -17 -72 -41 -103 -35 -33 7 -59 -8 -51
-29 10 -25 87 -29 137 -7 83 37 89 86 17 138 -39 28 -48 39 -40 49 15 18 127
55 145 48 20 -7 32 26 14 38 -16 10 -28 10 -87 -2z"/>
<path d="M4390 9116 c-6 -8 -18 -12 -25 -10 -9 4 -26 -18 -51 -68 -20 -40 -45
-86 -56 -101 -14 -19 -17 -32 -10 -39 21 -21 46 -1 91 75 63 103 67 106 63 47
-3 -41 -1 -51 14 -57 12 -4 21 0 28 12 6 10 27 36 46 58 l35 39 -3 -76 c-4
-75 7 -111 31 -103 15 5 16 206 0 218 -18 16 -48 2 -81 -35 l-29 -33 -1 34
c-1 19 -4 38 -7 43 -9 14 -31 12 -45 -4z"/>
<path d="M9023 9094 c-4 -10 0 -22 9 -28 14 -10 14 -15 2 -36 -19 -35 -18
-105 3 -125 48 -49 168 46 149 119 -14 58 -146 114 -163 70z m110 -62 c9 -8
17 -21 17 -29 0 -20 -55 -73 -74 -73 -21 0 -21 49 1 94 16 35 23 36 56 8z"/>
<path d="M4686 9040 c-36 -39 -47 -57 -44 -78 4 -36 31 -40 71 -10 55 41 57
42 51 11 -7 -38 27 -85 48 -65 9 10 10 17 1 31 -7 10 -9 36 -6 59 8 63 -21 68
-97 15 l-25 -17 25 28 c14 15 35 32 48 37 27 11 25 33 -4 37 -14 2 -36 -14
-68 -48z"/>
<path d="M6078 9070 c-31 -19 -69 -97 -75 -152 -4 -44 -2 -57 17 -80 27 -35
45 -35 115 -1 39 19 55 33 55 47 0 11 8 28 17 38 12 14 14 21 5 30 -15 15 -62
-16 -62 -42 0 -14 -14 -27 -46 -42 -39 -19 -46 -20 -54 -8 -22 35 -11 65 46
117 42 39 55 57 52 75 -3 26 -41 35 -70 18z"/>
<path d="M7584 9031 c-41 -25 -64 -59 -64 -92 0 -50 30 -47 118 13 l42 29 0
-26 c0 -36 26 -94 46 -102 23 -8 38 19 18 33 -8 7 -17 35 -21 64 -3 28 -13 60
-22 71 -24 29 -79 34 -117 10z m41 -41 c-16 -10 -32 -17 -35 -14 -7 8 31 34
49 34 10 0 4 -8 -14 -20z"/>
<path d="M5297 8944 c-3 -4 -4 -19 0 -34 6 -33 -11 -91 -41 -138 -18 -29 -25
-32 -54 -28 -26 4 -35 0 -47 -17 -17 -26 -41 -98 -50 -149 -8 -40 -28 -51 -76
-41 -24 5 -29 2 -29 -14 0 -22 46 -38 76 -26 16 6 16 -2 10 -75 -4 -55 -3 -83
5 -87 22 -14 40 22 46 94 3 40 12 78 19 85 7 7 39 18 72 25 36 7 62 18 66 27
11 28 -22 28 -125 -2 -14 -4 -15 3 -8 50 4 29 13 64 20 77 l14 24 3 -22 c5
-33 26 -28 60 12 59 72 92 164 78 219 -6 24 -25 34 -39 20z"/>
<path d="M10336 8878 c-2 -7 -7 -50 -10 -96 -4 -45 -16 -129 -27 -186 -11 -57
-19 -130 -17 -163 3 -50 6 -58 23 -58 18 0 20 6 17 60 -2 33 3 89 11 125 20
87 40 247 35 289 -3 35 -24 54 -32 29z"/>
<path d="M8096 8859 c-54 -42 -136 -242 -175 -426 -23 -110 -19 -143 19 -143
26 0 36 21 18 34 -13 10 -14 20 -6 64 l11 52 51 1 c99 2 150 13 154 33 4 17
-2 18 -92 11 -53 -4 -96 -5 -96 -2 0 3 16 51 36 108 38 109 76 193 102 222 19
22 61 22 77 0 14 -19 35 -10 35 16 0 24 -41 51 -78 51 -16 0 -41 -9 -56 -21z"/>
<path d="M9495 8796 c-64 -28 -102 -105 -117 -240 l-11 -92 -66 -15 c-48 -10
-67 -19 -69 -32 -5 -25 23 -31 62 -13 19 9 42 16 51 16 27 0 11 -72 -41 -175
-24 -49 -44 -93 -44 -97 0 -5 9 -8 19 -8 39 0 115 146 126 239 6 57 8 59 45
70 47 14 70 38 45 47 -9 4 -28 1 -42 -5 -14 -6 -28 -10 -31 -7 -9 10 20 171
39 207 21 43 66 81 88 77 9 -2 21 -14 28 -28 15 -31 37 -32 41 -3 4 29 -39 73
-70 73 -13 -1 -36 -7 -53 -14z"/>
<path d="M8796 8791 c-27 -42 -103 -392 -90 -413 4 -7 7 -31 5 -54 -3 -54 22
-73 68 -50 34 18 109 101 122 135 21 53 -25 97 -92 88 -30 -4 -39 -2 -36 7 3
7 8 39 12 72 4 32 15 92 26 132 11 40 17 78 14 83 -8 12 -22 12 -29 0z m61
-356 c2 -6 -19 -35 -46 -65 -28 -30 -50 -49 -51 -41 0 20 22 94 33 109 12 15
59 12 64 -3z"/>
<path d="M6943 8744 c-8 -21 23 -52 37 -38 6 6 8 18 5 27 -9 22 -35 29 -42 11z"/>
<path d="M6461 8609 c-17 -17 -31 -36 -31 -42 0 -7 -4 -6 -9 2 -8 12 -14 13
-36 3 -21 -10 -25 -18 -24 -49 0 -21 -3 -51 -7 -67 -5 -21 -3 -32 8 -40 13
-10 12 -26 -9 -136 -32 -164 -32 -164 -8 -168 16 -2 26 11 50 70 24 59 30 88
30 148 l0 75 47 22 c53 24 108 97 108 143 0 71 -66 92 -119 39z m75 -24 c10
-25 -16 -73 -49 -94 -40 -25 -51 -11 -31 38 26 63 67 91 80 56z m-123 -50 c-3
-9 -8 -14 -10 -11 -3 3 -2 9 2 15 9 16 15 13 8 -4z"/>
<path d="M9071 8631 c-14 -9 -9 -41 7 -41 17 0 45 27 38 38 -9 14 -26 15 -45
3z"/>
<path d="M6702 8622 c-30 -5 -89 -67 -97 -102 -12 -56 37 -91 85 -61 10 7 19
2 32 -20 18 -29 41 -38 53 -18 4 5 0 18 -9 28 -9 10 -16 32 -16 49 0 39 -18
42 -60 10 -39 -28 -47 -18 -24 29 18 36 21 38 69 38 37 0 50 4 50 14 0 18 -52
39 -83 33z"/>
<path d="M10569 8612 c-84 -40 -91 -71 -24 -104 44 -21 60 -41 49 -59 -10 -17
-52 -9 -66 13 -17 26 -48 19 -48 -11 0 -28 47 -61 87 -61 37 0 83 36 83 65 0
31 -29 72 -61 85 l-32 14 24 19 c16 12 32 17 51 13 31 -6 45 8 28 29 -16 19
-46 18 -91 -3z"/>
<path d="M7038 8583 c-25 -29 -37 -54 -47 -106 -9 -48 -10 -72 -3 -79 15 -15
45 -1 38 17 -8 23 22 128 41 143 24 17 41 15 53 -8 13 -25 40 -26 40 -1 0 28
-39 71 -65 71 -14 0 -36 -15 -57 -37z"/>
<path d="M4800 8540 c-51 -58 -52 -62 -47 -107 4 -37 12 -54 36 -75 36 -32 50
-34 91 -13 36 19 41 50 8 42 -13 -2 -30 -8 -39 -11 -11 -5 -24 1 -38 15 -26
28 -26 38 -3 46 27 10 66 42 79 66 24 43 11 97 -23 97 -7 0 -36 -27 -64 -60z
m44 -31 c-24 -27 -29 -16 -8 16 10 16 20 23 22 16 2 -7 -4 -21 -14 -32z"/>
<path d="M5739 8553 c-62 -65 -87 -141 -57 -171 20 -20 71 -13 102 13 l30 24
18 -30 c17 -28 22 -30 71 -27 38 2 52 7 52 18 0 10 -12 16 -38 18 -22 2 -41
10 -44 18 -9 24 7 84 22 84 26 0 27 21 1 47 -20 20 -39 27 -79 31 -47 3 -55 1
-78 -25z m81 -43 c-11 -16 -35 -43 -51 -60 -50 -50 -66 -35 -28 26 24 39 56
64 82 64 17 0 17 -2 -3 -30z"/>
<path d="M7790 8573 c-35 -7 -50 -22 -73 -73 -24 -54 -24 -100 -1 -117 38 -27
101 52 90 112 -6 32 -5 35 18 35 33 0 44 20 21 37 -11 7 -21 12 -24 12 -3 -1
-17 -4 -31 -6z m-20 -95 c0 -7 -7 -22 -15 -32 -12 -16 -15 -17 -15 -4 0 24 11
48 21 48 5 0 9 -6 9 -12z"/>
<path d="M4617 8563 c-4 -3 -7 -15 -7 -25 0 -13 -8 -18 -29 -18 -21 0 -45 -14
-85 -51 -47 -43 -56 -56 -56 -85 0 -65 69 -71 135 -13 l35 31 0 -35 c0 -19 -3
-54 -6 -79 l-6 -45 -40 11 c-70 19 -121 -28 -140 -130 -21 -114 8 -194 71
-194 41 0 73 42 108 140 23 67 32 80 50 80 32 0 39 20 14 40 -21 15 -22 20
-12 75 14 75 14 260 1 286 -11 20 -22 24 -33 12z m-7 -88 c0 -14 -48 -68 -76
-86 -40 -24 -44 -24 -44 5 0 29 64 85 98 86 12 0 22 -2 22 -5z m-31 -281 c7
-7 -48 -168 -66 -194 -42 -59 -70 32 -42 135 16 57 37 78 73 71 16 -4 32 -9
35 -12z"/>
<path d="M9820 8548 c-11 -12 -32 -42 -47 -66 -20 -35 -23 -49 -15 -67 16 -35
73 -57 137 -51 61 5 75 11 75 31 0 10 -15 13 -58 13 -32 -1 -69 5 -85 13 l-28
15 24 44 c18 34 31 46 53 50 40 7 38 34 -3 38 -22 2 -37 -3 -53 -20z"/>
<path d="M10072 8564 c-17 -8 -45 -63 -39 -79 3 -7 26 -21 51 -31 25 -11 46
-24 46 -31 0 -16 20 -27 30 -17 5 5 12 26 16 48 l7 39 -35 -7 c-39 -7 -76 13
-63 34 5 8 20 10 46 6 39 -6 60 7 41 26 -11 11 -81 20 -100 12z"/>
<path d="M6875 8550 c-9 -15 -35 -118 -35 -140 0 -23 13 -32 35 -24 10 4 15
14 12 25 -3 11 1 44 9 74 14 54 12 75 -6 75 -5 0 -12 -4 -15 -10z"/>
<path d="M9573 8473 c-35 -45 -63 -96 -63 -117 0 -9 11 -23 25 -32 20 -13 30
-14 59 -4 45 14 86 63 86 100 0 30 -43 90 -64 90 -7 0 -26 -17 -43 -37z m63
-69 c-7 -25 -62 -58 -78 -47 -11 6 9 42 40 76 22 23 27 25 35 11 5 -8 6 -27 3
-40z"/>
<path d="M10745 8426 c-14 -23 -34 -51 -45 -61 -22 -20 -26 -40 -9 -50 14 -9
42 18 80 76 29 46 33 79 10 79 -6 0 -22 -20 -36 -44z"/>
<path d="M8986 8438 c-28 -39 -14 -78 27 -78 15 0 18 7 15 47 -3 53 -19 64
-42 31z"/>
<path d="M3632 8308 c-13 -18 -92 -217 -92 -235 0 -8 7 -13 17 -11 19 3 117
233 107 249 -7 13 -20 11 -32 -3z"/>
<path d="M8426 8298 c-3 -7 -9 -56 -15 -110 -6 -53 -26 -145 -45 -204 -48
-153 -31 -185 54 -99 24 25 47 45 51 45 4 0 7 -22 7 -50 1 -56 15 -90 38 -90
13 0 14 8 8 43 -4 23 -6 61 -5 83 1 27 -4 47 -14 58 -19 18 -23 17 -82 -32
l-43 -34 15 36 c44 105 76 353 48 363 -7 3 -15 -1 -17 -9z"/>
<path d="M5008 8274 c-5 -4 -8 -15 -8 -24 0 -14 13 -17 78 -18 67 -1 79 -4 95
-24 10 -13 37 -45 60 -73 40 -48 42 -52 41 -115 -1 -123 -48 -179 -156 -187
-61 -5 -67 -4 -97 23 -45 41 -53 94 -17 127 44 41 28 61 -28 36 -71 -33 -56
-151 28 -213 38 -29 154 -29 211 -1 50 25 90 99 100 184 9 83 0 113 -51 170
-24 27 -44 52 -44 56 0 4 41 5 92 4 62 -2 93 1 95 8 8 22 -33 30 -172 36 -77
4 -158 9 -180 13 -22 3 -43 2 -47 -2z"/>
<path d="M5954 8245 c-4 -8 -4 -28 -1 -43 3 -15 -8 -79 -24 -143 -23 -91 -29
-134 -27 -195 2 -62 6 -79 18 -79 12 0 16 16 18 70 3 87 9 118 23 109 6 -3 22
0 36 7 24 13 28 10 110 -79 81 -88 107 -106 115 -80 4 11 -75 102 -149 173
-18 17 -33 36 -33 42 0 6 32 41 72 78 l72 66 -26 26 c-28 27 -53 23 -45 -8 3
-12 -12 -35 -47 -71 -28 -29 -61 -66 -74 -81 -13 -16 -26 -27 -29 -24 -2 3 4
38 15 79 24 88 23 146 -1 159 -13 8 -19 6 -23 -6z"/>
<path d="M9045 8170 c-3 -6 -4 -19 0 -29 5 -16 -21 -170 -30 -179 -1 -2 -19
-4 -38 -5 -44 -3 -54 -12 -37 -32 9 -11 22 -14 37 -10 24 6 24 5 17 -54 -8
-75 0 -111 26 -111 17 0 18 5 13 48 -3 26 0 65 6 87 l11 40 85 19 c94 21 119
34 106 54 -7 11 -23 10 -90 -8 -45 -12 -84 -21 -86 -19 -2 2 4 38 12 79 11 56
12 82 4 103 -11 28 -25 35 -36 17z"/>
<path d="M6442 8138 c-14 -14 2 -48 22 -48 14 0 29 38 20 52 -7 12 -28 10 -42
-4z"/>
<path d="M7937 8053 c-42 -42 -80 -85 -83 -96 -7 -22 12 -46 24 -31 5 5 32 37
62 72 29 34 54 61 56 60 7 -7 -26 -121 -51 -177 -48 -106 2 -103 91 6 l39 47
6 -52 c11 -85 43 -105 91 -54 37 38 46 68 49 154 2 85 -6 112 -28 83 -8 -12
-13 -46 -13 -89 0 -53 -5 -79 -20 -104 -11 -18 -25 -30 -30 -27 -6 3 -10 39
-10 80 0 42 -5 77 -11 80 -6 4 -33 -16 -60 -44 l-48 -50 19 50 c26 66 41 134
34 153 -12 31 -42 15 -117 -61z"/>
<path d="M7025 8068 c-38 -14 -55 -27 -55 -43 0 -7 20 -42 45 -78 24 -35 41
-67 38 -71 -10 -10 -66 -7 -83 4 -13 9 -13 12 3 24 18 14 24 46 7 46 -21 0
-60 -24 -65 -42 -18 -55 39 -94 123 -84 30 4 63 11 73 17 20 10 26 44 9 54
-15 10 -90 113 -90 124 0 17 68 25 86 11 21 -19 43 3 28 28 -13 20 -75 26
-119 10z"/>
<path d="M9780 8063 c-47 -33 -63 -56 -68 -99 -4 -42 -3 -45 28 -58 23 -9 43
-11 64 -5 31 9 48 -1 59 -34 2 -6 11 -8 20 -4 14 5 15 11 6 34 -5 15 -7 44 -4
65 6 33 4 38 -12 38 -10 0 -23 -8 -30 -19 -16 -25 -72 -45 -79 -27 -8 20 13
64 36 76 12 7 32 9 45 6 28 -7 42 9 25 29 -17 20 -60 19 -90 -2z"/>
<path d="M9992 8055 c-40 -33 -54 -71 -50 -136 2 -40 7 -54 18 -54 11 0 16 14
18 55 2 43 9 61 29 83 15 15 35 27 45 27 24 0 35 29 17 41 -24 15 -46 10 -77
-16z"/>
<path d="M5398 8053 c-27 -7 -49 -51 -58 -112 -6 -49 -4 -60 16 -93 39 -62 83
-74 142 -38 28 17 32 23 22 35 -10 13 -16 12 -42 -1 -38 -20 -71 -12 -86 20
-9 21 -8 27 14 40 36 24 77 91 70 114 -5 15 -50 46 -59 41 -1 -1 -10 -3 -19
-6z m33 -61 c-13 -24 -51 -57 -51 -44 0 29 21 62 40 62 17 0 19 -3 11 -18z"/>
<path d="M6601 8005 c-70 -66 -95 -140 -46 -140 15 0 21 8 23 31 3 33 72 114
97 114 19 0 55 -101 55 -154 0 -49 7 -61 27 -45 19 16 16 91 -6 150 -40 103
-76 114 -150 44z"/>
<path d="M10193 8026 c-28 -14 -59 -36 -68 -50 -23 -34 -29 -95 -13 -126 17
-31 72 -60 117 -60 42 0 118 35 131 60 15 28 -5 35 -45 16 -19 -9 -55 -20 -81
-25 -42 -8 -49 -7 -70 15 -27 26 -33 67 -9 58 8 -3 50 6 95 21 87 29 98 45 58
82 -36 33 -59 35 -115 9z m46 -54 c-64 -18 -82 -9 -29 16 35 16 48 18 59 9 11
-10 6 -14 -30 -25z"/>
<path d="M3737 8023 c-13 -13 -19 -14 -29 -5 -31 31 -86 0 -59 -32 10 -11 7
-30 -12 -85 -20 -56 -22 -73 -12 -81 15 -13 20 -7 69 82 36 64 70 106 51 62
-4 -10 -10 -31 -13 -46 -6 -40 14 -36 73 17 43 38 52 42 62 29 6 -8 11 -31 11
-50 0 -42 18 -66 46 -62 25 4 35 38 12 38 -9 0 -16 3 -17 8 -4 56 -9 76 -23
98 -26 38 -44 40 -77 8 l-29 -28 0 26 c0 14 -7 29 -16 32 -20 8 -17 9 -37 -11z"/>
<path d="M5678 8029 c-10 -5 -29 -27 -43 -47 l-26 -37 3 35 c3 29 0 35 -17 35
-17 0 -21 -8 -23 -45 -5 -68 7 -130 24 -130 8 0 17 8 20 18 11 39 47 102 70
123 l24 22 2 -34 c0 -19 0 -56 -1 -84 -2 -54 9 -81 30 -73 13 5 16 44 10 165
-2 51 -35 75 -73 52z"/>
<path d="M8714 7972 c-6 -4 -16 -17 -23 -29 -25 -48 31 -99 84 -75 20 9 23 8
28 -17 6 -30 27 -44 52 -35 19 8 19 31 0 42 -12 6 -14 14 -6 33 11 31 -1 54
-23 46 -9 -4 -16 -2 -16 4 0 5 -16 17 -35 25 -39 16 -46 17 -61 6z m56 -64
c-30 -11 -51 -3 -44 16 4 12 11 12 37 4 30 -11 30 -11 7 -20z"/>
<path d="M6366 7942 c-3 -4 0 -28 5 -52 6 -24 8 -54 5 -66 -7 -27 17 -39 35
-18 20 25 -5 144 -31 144 -5 0 -11 -4 -14 -8z"/>
<path d="M7464 7783 c-8 -36 -51 -93 -69 -93 -7 0 -15 10 -17 22 -2 13 -11 24
-20 26 -14 3 -18 -3 -18 -23 0 -75 60 -89 116 -28 33 36 59 97 48 115 -11 18
-34 7 -40 -19z"/>
<path d="M5163 7665 c-38 -17 -53 -29 -53 -44 0 -27 20 -38 35 -18 15 21 76
47 110 47 14 0 39 -7 55 -15 25 -13 30 -22 30 -52 0 -30 -8 -44 -53 -87 -29
-28 -69 -64 -90 -79 -45 -34 -71 -80 -63 -113 7 -26 63 -94 77 -94 22 0 19 31
-6 68 -31 48 -26 66 33 108 57 43 122 106 138 136 23 44 18 91 -13 120 -60 55
-115 62 -200 23z"/>
<path d="M10905 7586 c-88 -66 -103 -83 -82 -92 17 -6 151 89 162 115 14 34
-15 25 -80 -23z"/>
<path d="M4100 7500 c-29 -49 -56 -90 -59 -90 -3 1 -15 19 -26 42 -22 47 -57
76 -95 80 -32 4 -34 -22 -3 -38 39 -19 61 -45 76 -88 15 -43 15 -43 -25 -105
-49 -78 -69 -133 -61 -172 8 -42 36 -35 44 11 6 36 38 105 69 150 10 14 27 41
37 60 11 19 46 77 77 128 31 51 54 97 51 102 -15 24 -35 4 -85 -80z"/>
<path d="M4209 7501 c-29 -29 -39 -47 -39 -70 0 -46 26 -90 57 -97 36 -9 92
21 116 64 17 29 18 39 8 72 -12 40 -47 70 -82 70 -12 0 -39 -17 -60 -39z m71
-15 c0 -7 9 -16 20 -19 11 -3 20 -12 20 -20 0 -22 -49 -77 -69 -77 -46 0 -55
60 -14 102 29 31 43 35 43 14z"/>
<path d="M4502 7463 c-26 -38 -62 -82 -79 -100 -18 -17 -33 -36 -33 -42 0 -23
23 -20 59 9 24 18 42 26 46 20 13 -21 64 -10 108 24 l45 34 4 -56 c4 -45 10
-60 32 -79 22 -19 31 -21 47 -12 25 13 20 33 -9 37 -27 4 -36 45 -27 121 9 82
-8 86 -86 16 -87 -78 -98 -75 -49 14 23 41 27 57 19 68 -19 22 -27 16 -77 -54z"/>
<path d="M10057 6978 c-26 -56 -36 -108 -47 -249 -9 -110 -8 -160 4 -265 27
-233 76 -342 215 -487 47 -50 77 -87 66 -84 -11 4 -47 13 -80 20 -114 27 -477
138 -563 173 -113 45 -187 87 -346 192 -153 101 -337 270 -333 305 2 17 -3 22
-23 22 -20 0 -26 -6 -28 -29 -3 -26 10 -43 110 -141 155 -152 390 -308 590
-391 91 -38 497 -161 620 -189 130 -28 214 5 135 54 -52 32 -189 179 -224 241
-53 95 -73 168 -93 346 -14 127 1 340 30 432 12 35 18 67 15 72 -12 19 -33 9
-48 -22z"/>
<path d="M5208 6976 c-29 -21 -23 -48 10 -44 21 2 27 8 27 27 0 29 -14 35 -37
17z"/>
<path d="M11730 6365 c0 -12 -15 -15 -75 -15 -60 0 -75 -3 -75 -15 0 -10 -10
-15 -30 -15 -20 0 -30 -5 -30 -15 0 -10 -10 -15 -30 -15 -20 0 -30 -5 -30 -15
0 -10 -10 -15 -30 -15 -20 0 -30 -5 -30 -15 0 -8 -7 -15 -15 -15 -8 0 -15 -7
-15 -15 0 -10 -10 -15 -30 -15 -20 0 -30 -5 -30 -15 0 -8 -7 -15 -15 -15 -8 0
-15 -7 -15 -15 0 -8 -7 -15 -15 -15 -10 0 -15 -10 -15 -30 0 -20 -5 -30 -15
-30 -8 0 -15 -7 -15 -15 0 -8 -7 -15 -15 -15 -8 0 -15 -7 -15 -15 0 -8 -7 -15
-15 -15 -10 0 -15 -10 -15 -30 0 -20 -5 -30 -15 -30 -10 0 -15 -10 -15 -30 0
-20 -5 -30 -15 -30 -10 0 -15 -10 -15 -30 0 -20 -5 -30 -15 -30 -12 0 -15 -13
-15 -60 0 -47 -3 -60 -15 -60 -13 0 -15 -43 -15 -330 0 -287 2 -330 15 -330
12 0 15 -13 15 -60 0 -47 3 -60 15 -60 11 0 15 -12 15 -45 0 -33 4 -45 15 -45
11 0 15 -12 15 -45 0 -33 4 -45 15 -45 10 0 15 -10 15 -30 0 -20 5 -30 15 -30
10 0 15 -10 15 -30 0 -20 5 -30 15 -30 10 0 15 -10 15 -30 0 -27 -3 -30 -30
-30 -20 0 -30 -5 -30 -15 0 -8 -7 -15 -15 -15 -8 0 -15 -7 -15 -15 0 -10 -10
-15 -30 -15 -20 0 -30 -5 -30 -15 0 -8 -7 -15 -15 -15 -8 0 -15 -7 -15 -15 0
-10 -10 -15 -30 -15 -27 0 -30 -3 -30 -30 0 -20 -5 -30 -15 -30 -12 0 -15 -17
-15 -90 0 -73 3 -90 15 -90 12 0 15 -18 15 -105 0 -87 3 -105 15 -105 10 0 15
-10 15 -30 l0 -30 1080 0 1080 0 0 30 c0 20 5 30 15 30 10 0 15 10 15 30 0 20
5 30 15 30 11 0 15 12 15 45 0 33 4 45 15 45 11 0 15 12 15 45 0 33 -4 45 -15
45 -8 0 -15 7 -15 15 0 8 -7 15 -15 15 -8 0 -15 7 -15 15 0 10 -10 15 -30 15
-20 0 -30 5 -30 15 0 8 -7 15 -15 15 -8 0 -15 7 -15 15 0 10 -10 15 -30 15
-20 0 -30 5 -30 15 0 10 -10 15 -30 15 -20 0 -30 5 -30 15 0 8 -7 15 -15 15
-8 0 -15 7 -15 15 0 10 -10 15 -30 15 -20 0 -30 5 -30 15 0 10 -10 15 -30 15
-20 0 -30 5 -30 15 0 8 -7 15 -15 15 -8 0 -15 7 -15 15 0 10 -10 15 -30 15
-20 0 -30 5 -30 15 0 8 -7 15 -15 15 -11 0 -15 12 -15 45 0 33 4 45 15 45 11
0 15 12 15 45 0 33 4 45 15 45 11 0 15 12 15 45 l0 45 45 0 c33 0 45 4 45 15
0 10 10 15 30 15 20 0 30 5 30 15 0 8 7 15 15 15 8 0 15 7 15 15 0 8 7 15 15
15 8 0 15 7 15 15 0 8 7 15 15 15 8 0 15 7 15 15 0 8 7 15 15 15 10 0 15 10
15 30 0 20 5 30 15 30 13 0 15 20 15 120 0 100 -2 120 -15 120 -10 0 -15 10
-15 30 0 20 -5 30 -15 30 -10 0 -15 10 -15 30 0 20 -5 30 -15 30 -8 0 -15 7
-15 15 0 8 -7 15 -15 15 -10 0 -15 10 -15 30 0 20 5 30 15 30 12 0 15 18 15
105 0 87 -3 105 -15 105 -12 0 -15 13 -15 60 0 47 -3 60 -15 60 -8 0 -15 7
-15 15 0 8 -7 15 -15 15 -8 0 -15 7 -15 15 0 8 -7 15 -15 15 -8 0 -15 7 -15
15 0 8 -7 15 -15 15 -11 0 -15 12 -15 45 0 33 -4 45 -15 45 -8 0 -15 7 -15 15
0 8 -7 15 -15 15 -10 0 -15 10 -15 30 0 20 -5 30 -15 30 -8 0 -15 7 -15 15 0
8 -7 15 -15 15 -8 0 -15 7 -15 15 0 8 -7 15 -15 15 -8 0 -15 7 -15 15 0 10
-10 15 -30 15 -20 0 -30 5 -30 15 0 10 -10 15 -30 15 -20 0 -30 5 -30 15 0 10
-10 15 -30 15 -20 0 -30 5 -30 15 0 10 -10 15 -30 15 -20 0 -30 5 -30 15 0 12
-13 15 -60 15 -47 0 -60 3 -60 15 0 12 -17 15 -90 15 -73 0 -90 3 -90 15 0 13
-30 15 -210 15 -180 0 -210 -2 -210 -15z m240 -120 c0 -12 13 -15 60 -15 47 0
60 -3 60 -15 0 -11 12 -15 45 -15 33 0 45 -4 45 -15 0 -10 10 -15 30 -15 20 0
30 -5 30 -15 0 -8 7 -15 15 -15 8 0 15 -7 15 -15 0 -8 7 -15 15 -15 8 0 15 -7
15 -15 0 -8 7 -15 15 -15 8 0 15 -7 15 -15 0 -8 7 -15 15 -15 8 0 15 -7 15
-15 0 -8 7 -15 15 -15 8 0 15 -7 15 -15 0 -8 7 -15 15 -15 10 0 15 -10 15 -30
0 -20 5 -30 15 -30 8 0 15 -7 15 -15 0 -8 -7 -15 -15 -15 -12 0 -15 -17 -15
-90 0 -73 3 -90 15 -90 11 0 15 -12 15 -45 0 -33 4 -45 15 -45 10 0 15 -10 15
-30 0 -20 5 -30 15 -30 12 0 15 -15 15 -75 0 -60 -3 -75 -15 -75 -12 0 -15
-15 -15 -75 0 -60 3 -75 15 -75 8 0 15 -7 15 -15 0 -10 10 -15 30 -15 20 0 30
-5 30 -15 0 -10 10 -15 30 -15 20 0 30 -5 30 -15 0 -10 10 -15 30 -15 20 0 30
5 30 15 0 8 7 15 15 15 12 0 15 15 15 75 0 60 3 75 15 75 8 0 15 7 15 15 0 12
13 15 60 15 47 0 60 -3 60 -15 0 -8 7 -15 15 -15 8 0 15 -7 15 -15 0 -8 7 -15
15 -15 10 0 15 -10 15 -30 0 -20 5 -30 15 -30 12 0 15 -17 15 -90 0 -73 -3
-90 -15 -90 -8 0 -15 -7 -15 -15 0 -8 -7 -15 -15 -15 -8 0 -15 -7 -15 -15 0
-8 -7 -15 -15 -15 -8 0 -15 -7 -15 -15 0 -10 -10 -15 -30 -15 -20 0 -30 -5
-30 -15 0 -11 -12 -15 -45 -15 -43 0 -45 1 -45 30 0 29 -2 30 -45 30 -33 0
-45 -4 -45 -15 0 -8 -7 -15 -15 -15 -10 0 -15 -10 -15 -30 0 -20 5 -30 15 -30
10 0 15 -10 15 -30 0 -20 5 -30 15 -30 11 0 15 -12 15 -45 0 -33 -4 -45 -15
-45 -11 0 -15 -12 -15 -45 0 -33 -4 -45 -15 -45 -10 0 -15 -10 -15 -30 0 -20
-5 -30 -15 -30 -10 0 -15 -10 -15 -30 0 -20 -5 -30 -15 -30 -8 0 -15 -7 -15
-15 0 -8 -7 -15 -15 -15 -8 0 -15 -7 -15 -15 0 -8 -7 -15 -15 -15 -8 0 -15 -7
-15 -15 0 -10 -10 -15 -30 -15 -20 0 -30 -5 -30 -15 0 -11 -12 -15 -45 -15
-33 0 -45 -4 -45 -15 0 -11 -12 -15 -45 -15 -33 0 -45 4 -45 15 0 8 -7 15 -15
15 -10 0 -15 10 -15 30 0 20 5 30 15 30 8 0 15 7 15 15 0 10 10 15 30 15 20 0
30 5 30 15 0 8 7 15 15 15 8 0 15 7 15 15 0 8 7 15 15 15 10 0 15 10 15 30 0
20 5 30 15 30 10 0 15 10 15 30 0 20 5 30 15 30 12 0 15 13 15 60 l0 60 -60 0
-60 0 0 -45 c0 -33 -4 -45 -15 -45 -10 0 -15 -10 -15 -30 0 -20 -5 -30 -15
-30 -8 0 -15 -7 -15 -15 0 -8 -7 -15 -15 -15 -8 0 -15 -7 -15 -15 0 -10 -10
-15 -30 -15 -20 0 -30 -5 -30 -15 0 -8 -7 -15 -15 -15 -8 0 -15 -7 -15 -15 0
-11 -12 -15 -45 -15 -33 0 -45 -4 -45 -15 0 -10 -10 -15 -30 -15 -20 0 -30 -5
-30 -15 0 -12 -13 -15 -60 -15 -47 0 -60 -3 -60 -15 0 -13 -22 -15 -135 -15
-113 0 -135 2 -135 15 0 11 -12 15 -45 15 -33 0 -45 4 -45 15 0 8 -7 15 -15
15 -8 0 -15 7 -15 15 0 10 -10 15 -30 15 -20 0 -30 5 -30 15 0 8 -7 15 -15 15
-8 0 -15 7 -15 15 0 8 -7 15 -15 15 -10 0 -15 10 -15 30 0 20 -5 30 -15 30 -8
0 -15 7 -15 15 0 8 -7 15 -15 15 -10 0 -15 10 -15 30 0 20 -5 30 -15 30 -11 0
-15 12 -15 45 0 33 -4 45 -15 45 -11 0 -15 12 -15 45 0 33 -4 45 -15 45 -12 0
-15 13 -15 60 0 47 -3 60 -15 60 -13 0 -15 23 -15 150 l0 150 105 0 c87 0 105
3 105 15 0 8 7 15 15 15 11 0 15 12 15 45 0 33 -4 45 -15 45 -8 0 -15 7 -15
15 0 10 -10 15 -30 15 -20 0 -30 -5 -30 -15 0 -8 -7 -15 -15 -15 -11 0 -15 12
-15 45 0 33 4 45 15 45 11 0 15 12 15 45 0 43 -1 45 -30 45 -20 0 -30 5 -30
15 0 8 -7 15 -15 15 -8 0 -15 -7 -15 -15 0 -8 -7 -15 -15 -15 -10 0 -15 -10
-15 -30 0 -20 -5 -30 -15 -30 -10 0 -15 10 -15 30 0 20 5 30 15 30 8 0 15 7
15 15 0 8 7 15 15 15 8 0 15 7 15 15 0 8 7 15 15 15 8 0 15 7 15 15 0 12 17
15 90 15 l90 0 0 30 c0 20 5 30 15 30 10 0 15 10 15 30 l0 30 -105 0 c-87 0
-105 3 -105 15 0 8 7 15 15 15 8 0 15 7 15 15 0 8 7 15 15 15 10 0 15 10 15
30 0 20 5 30 15 30 8 0 15 7 15 15 0 8 7 15 15 15 8 0 15 7 15 15 0 8 7 15 15
15 8 0 15 7 15 15 0 10 10 15 30 15 20 0 30 5 30 15 0 8 7 15 15 15 8 0 15 7
15 15 0 10 10 15 30 15 20 0 30 5 30 15 0 10 10 15 30 15 20 0 30 5 30 15 0
12 15 15 75 15 60 0 75 3 75 15 0 12 18 15 105 15 87 0 105 -3 105 -15z m510
-90 c0 -10 10 -15 30 -15 20 0 30 -5 30 -15 0 -10 10 -15 30 -15 20 0 30 -5
30 -15 0 -8 7 -15 15 -15 8 0 15 -7 15 -15 0 -8 7 -15 15 -15 8 0 15 -7 15
-15 0 -8 7 -15 15 -15 8 0 15 -7 15 -15 0 -12 -15 -15 -75 -15 -60 0 -75 3
-75 15 0 8 -7 15 -15 15 -8 0 -15 7 -15 15 0 8 -7 15 -15 15 -10 0 -15 10 -15
30 0 20 -5 30 -15 30 -8 0 -15 7 -15 15 0 8 -7 15 -15 15 -8 0 -15 7 -15 15 0
10 10 15 30 15 20 0 30 -5 30 -15z m210 -300 c0 -11 12 -15 45 -15 33 0 45 -4
45 -15 0 -8 7 -15 15 -15 8 0 15 -7 15 -15 0 -8 7 -15 15 -15 10 0 15 -10 15
-30 0 -20 5 -30 15 -30 12 0 15 -17 15 -90 0 -73 -3 -90 -15 -90 -8 0 -15 -7
-15 -15 0 -12 -15 -15 -75 -15 -60 0 -75 -3 -75 -15 0 -8 -7 -15 -15 -15 -8 0
-15 -7 -15 -15 0 -8 -7 -15 -15 -15 -12 0 -15 15 -15 75 0 60 -3 75 -15 75
-10 0 -15 10 -15 30 0 20 -5 30 -15 30 -11 0 -15 12 -15 45 0 33 -4 45 -15 45
-12 0 -15 13 -15 60 l0 60 75 0 c60 0 75 -3 75 -15z m-30 -1380 c0 -10 10 -15
30 -15 20 0 30 -5 30 -15 0 -8 7 -15 15 -15 8 0 15 -7 15 -15 0 -10 10 -15 30
-15 20 0 30 -5 30 -15 0 -10 10 -15 30 -15 20 0 30 -5 30 -15 0 -8 7 -15 15
-15 8 0 15 -7 15 -15 0 -10 10 -15 30 -15 20 0 30 -5 30 -15 0 -10 10 -15 30
-15 20 0 30 -5 30 -15 0 -8 7 -15 15 -15 8 0 15 -7 15 -15 0 -10 10 -15 30
-15 29 0 30 -2 30 -45 0 -33 -4 -45 -15 -45 -10 0 -15 -10 -15 -30 l0 -30
-405 0 -405 0 0 30 c0 27 3 30 30 30 20 0 30 5 30 15 0 8 7 15 15 15 8 0 15 7
15 15 0 10 10 15 30 15 20 0 30 5 30 15 0 8 7 15 15 15 8 0 15 7 15 15 0 8 7
15 15 15 8 0 15 7 15 15 0 8 7 15 15 15 8 0 15 7 15 15 0 8 7 15 15 15 8 0 15
7 15 15 0 8 7 15 15 15 10 0 15 10 15 30 0 20 5 30 15 30 8 0 15 7 15 15 0 8
7 15 15 15 10 0 15 10 15 30 0 20 5 30 15 30 8 0 15 -7 15 -15z m-1440 -195
c0 -127 2 -150 15 -150 10 0 15 -10 15 -30 l0 -30 -75 0 -75 0 0 105 c0 87 -3
105 -15 105 -10 0 -15 10 -15 30 0 20 5 30 15 30 8 0 15 7 15 15 0 8 7 15 15
15 8 0 15 7 15 15 0 8 7 15 15 15 8 0 15 7 15 15 0 10 10 15 30 15 l30 0 0
-150z m210 135 c0 -10 10 -15 30 -15 20 0 30 -5 30 -15 0 -8 7 -15 15 -15 8 0
15 -7 15 -15 0 -10 10 -15 30 -15 20 0 30 -5 30 -15 0 -8 7 -15 15 -15 8 0 15
-7 15 -15 0 -10 10 -15 30 -15 20 0 30 -5 30 -15 0 -12 13 -15 60 -15 47 0 60
3 60 15 0 10 10 15 30 15 20 0 30 5 30 15 0 10 10 15 30 15 20 0 30 5 30 15 0
10 10 15 30 15 20 0 30 5 30 15 0 11 12 15 45 15 33 0 45 4 45 15 0 10 10 15
30 15 20 0 30 -5 30 -15 0 -8 7 -15 15 -15 13 0 15 -23 15 -150 l0 -150 -75 0
c-60 0 -75 3 -75 15 0 11 -12 15 -45 15 -33 0 -45 4 -45 15 0 11 -12 15 -45
15 -33 0 -45 4 -45 15 0 13 -32 15 -225 15 -193 0 -225 2 -225 15 0 8 -7 15
-15 15 -12 0 -15 18 -15 105 l0 105 30 0 c20 0 30 5 30 15 0 8 7 15 15 15 8 0
15 -7 15 -15z m900 -120 c0 -10 -10 -15 -30 -15 -20 0 -30 5 -30 15 0 10 10
15 30 15 20 0 30 -5 30 -15z"/>
<path d="M12000 5915 c0 -10 -10 -15 -30 -15 -29 0 -30 -2 -30 -45 0 -33 4
-45 15 -45 8 0 15 -7 15 -15 0 -10 10 -15 30 -15 20 0 30 5 30 15 0 8 7 15 15
15 8 0 15 -7 15 -15 0 -11 12 -15 45 -15 33 0 45 -4 45 -15 0 -8 7 -15 15 -15
8 0 15 -7 15 -15 0 -8 7 -15 15 -15 10 0 15 -10 15 -30 0 -29 2 -30 45 -30 33
0 45 4 45 15 0 8 7 15 15 15 10 0 15 10 15 30 0 20 -5 30 -15 30 -10 0 -15 10
-15 30 0 20 -5 30 -15 30 -8 0 -15 7 -15 15 0 8 -7 15 -15 15 -8 0 -15 7 -15
15 0 10 -10 15 -30 15 -20 0 -30 5 -30 15 0 11 -12 15 -45 15 -33 0 -45 4 -45
15 0 11 -12 15 -45 15 -33 0 -45 -4 -45 -15z"/>
<path d="M11850 5675 c0 -8 -7 -15 -15 -15 -11 0 -15 -12 -15 -45 0 -33 -4
-45 -15 -45 -10 0 -15 -10 -15 -30 0 -20 -5 -30 -15 -30 -12 0 -15 -15 -15
-75 0 -60 3 -75 15 -75 8 0 15 -7 15 -15 0 -12 17 -15 90 -15 73 0 90 3 90 15
0 10 10 15 30 15 27 0 30 3 30 30 0 20 -5 30 -15 30 -10 0 -15 10 -15 30 0 27
-3 30 -30 30 -20 0 -30 -5 -30 -15 0 -8 -7 -15 -15 -15 -11 0 -15 12 -15 45 0
33 4 45 15 45 11 0 15 12 15 45 0 33 4 45 15 45 8 0 15 7 15 15 0 8 -7 15 -15
15 -8 0 -15 7 -15 15 0 11 -12 15 -45 15 -33 0 -45 -4 -45 -15z"/>
<path d="M11520 5585 c0 -33 -4 -45 -15 -45 -10 0 -15 -10 -15 -30 0 -20 -5
-30 -15 -30 -10 0 -15 -10 -15 -30 0 -20 -5 -30 -15 -30 -8 0 -15 -7 -15 -15
0 -8 -7 -15 -15 -15 -8 0 -15 -7 -15 -15 0 -8 -7 -15 -15 -15 -8 0 -15 -7 -15
-15 0 -8 -7 -15 -15 -15 -8 0 -15 -7 -15 -15 0 -8 -7 -15 -15 -15 -8 0 -15 -7
-15 -15 0 -8 -7 -15 -15 -15 -10 0 -15 -10 -15 -30 0 -20 -5 -30 -15 -30 -12
0 -15 -13 -15 -60 0 -47 3 -60 15 -60 8 0 15 -7 15 -15 0 -8 7 -15 15 -15 8 0
15 -7 15 -15 0 -10 10 -15 30 -15 20 0 30 -5 30 -15 0 -10 10 -15 30 -15 20 0
30 -5 30 -15 0 -11 12 -15 45 -15 33 0 45 -4 45 -15 0 -12 17 -15 90 -15 73 0
90 3 90 15 0 8 7 15 15 15 8 0 15 7 15 15 0 8 7 15 15 15 12 0 15 13 15 60 l0
60 -45 0 c-33 0 -45 -4 -45 -15 0 -8 -7 -15 -15 -15 -8 0 -15 -7 -15 -15 0
-10 -10 -15 -30 -15 -20 0 -30 5 -30 15 0 12 -13 15 -60 15 -47 0 -60 3 -60
15 0 10 -10 15 -30 15 -20 0 -30 5 -30 15 0 8 -7 15 -15 15 -8 0 -15 7 -15 15
0 8 7 15 15 15 8 0 15 7 15 15 0 8 7 15 15 15 8 0 15 7 15 15 0 8 7 15 15 15
8 0 15 7 15 15 0 8 7 15 15 15 8 0 15 7 15 15 0 8 7 15 15 15 8 0 15 7 15 15
0 8 7 15 15 15 10 0 15 10 15 30 0 20 5 30 15 30 10 0 15 10 15 30 0 20 5 30
15 30 10 0 15 10 15 30 0 20 5 30 15 30 12 0 15 13 15 60 l0 60 -60 0 -60 0 0
-45z"/>
<path d="M12810 5285 c0 -8 -7 -15 -15 -15 -8 0 -15 -7 -15 -15 0 -8 -7 -15
-15 -15 -8 0 -15 -7 -15 -15 0 -8 7 -15 15 -15 11 0 15 -12 15 -45 0 -33 4
-45 15 -45 8 0 15 -7 15 -15 0 -11 12 -15 45 -15 l45 0 0 75 c0 60 -3 75 -15
75 -10 0 -15 10 -15 30 0 27 -3 30 -30 30 -20 0 -30 -5 -30 -15z"/>
<path d="M11310 4985 c0 -8 -7 -15 -15 -15 -8 0 -15 -7 -15 -15 0 -8 -7 -15
-15 -15 -10 0 -15 -10 -15 -30 0 -20 5 -30 15 -30 8 0 15 -7 15 -15 0 -8 7
-15 15 -15 8 0 15 -7 15 -15 0 -11 12 -15 45 -15 33 0 45 -4 45 -15 0 -11 12
-15 45 -15 l45 0 0 60 0 60 -30 0 c-20 0 -30 5 -30 15 0 10 -10 15 -30 15 -20
0 -30 5 -30 15 0 8 -7 15 -15 15 -8 0 -15 7 -15 15 0 8 -7 15 -15 15 -8 0 -15
-7 -15 -15z"/>
<path d="M11850 4985 c0 -10 -10 -15 -30 -15 -20 0 -30 -5 -30 -15 0 -10 -10
-15 -30 -15 -20 0 -30 -5 -30 -15 0 -12 -17 -15 -90 -15 -73 0 -90 -3 -90 -15
0 -8 -7 -15 -15 -15 -11 0 -15 -12 -15 -45 l0 -45 120 0 c100 0 120 3 120 15
0 11 12 15 45 15 33 0 45 4 45 15 0 10 10 15 30 15 20 0 30 5 30 15 0 8 7 15
15 15 10 0 15 10 15 30 0 20 -5 30 -15 30 -8 0 -15 7 -15 15 0 8 -7 15 -15 15
-8 0 -15 7 -15 15 0 8 -7 15 -15 15 -8 0 -15 -7 -15 -15z"/>
<path d="M11880 4775 c0 -8 -7 -15 -15 -15 -8 0 -15 -7 -15 -15 0 -13 -25 -15
-165 -15 l-165 0 0 -60 0 -60 180 0 c153 0 180 2 180 15 0 10 10 15 30 15 20
0 30 5 30 15 0 8 7 15 15 15 8 0 15 7 15 15 0 8 7 15 15 15 11 0 15 12 15 45
l0 45 -60 0 c-47 0 -60 -3 -60 -15z"/>
</g>
</svg>
