<?xml version="1.0" standalone="no"?>
<!DOCTYPE svg PUBLIC "-//W3C//DTD SVG 20010904//EN"
 "http://www.w3.org/TR/2001/REC-SVG-20010904/DTD/svg10.dtd">
<svg version="1.0" xmlns="http://www.w3.org/2000/svg"
 width="1872.000000pt" height="696.000000pt" viewBox="0 0 1872.000000 696.000000"
 preserveAspectRatio="xMidYMid meet">

<g transform="translate(0.000000,696.000000) scale(0.100000,-0.100000)"
fill="#000000" stroke="none">
<path d="M2023 6723 c-18 -9 -33 -23 -33 -30 0 -22 26 -26 53 -8 21 13 45 15
144 11 65 -2 474 -9 908 -14 435 -6 819 -13 855 -16 189 -18 988 -26 1434 -16
464 11 767 6 1336 -20 107 -5 593 -14 1080 -19 1391 -16 2228 -46 2265 -82 19
-18 11 -237 -14 -394 -16 -105 -24 -196 -25 -301 l-1 -151 -115 -31 c-82 -22
-147 -33 -223 -36 -60 -3 -115 -10 -123 -16 -10 -9 -125 -11 -426 -8 -227 3
-817 0 -1312 -5 -1162 -13 -1766 3 -2426 63 -581 52 -920 61 -1940 52 -471 -5
-1214 7 -1270 19 -25 6 -48 16 -52 22 -4 7 -8 36 -8 66 0 30 -14 109 -30 177
-27 110 -31 147 -39 356 -9 231 -17 288 -44 288 -20 0 -30 -70 -13 -90 10 -11
15 -70 19 -220 5 -184 9 -220 37 -340 24 -101 31 -152 28 -205 l-3 -70 75 -17
c124 -29 880 -45 1565 -34 740 12 1012 2 1790 -63 659 -55 1073 -62 3035 -50
877 6 1012 9 1060 23 30 9 89 16 131 16 54 0 103 8 175 30 60 18 119 29 151
28 34 -1 60 5 78 16 l27 18 -25 25 c-25 25 -53 24 -43 -2 2 -7 -2 -16 -9 -19
-10 -3 -16 6 -21 32 -10 53 13 444 31 527 16 77 19 209 6 268 -8 32 -6 37 8
37 23 0 31 9 24 26 -3 8 -16 14 -29 14 -17 0 -24 6 -24 20 0 13 -7 20 -20 20
-14 0 -20 -7 -20 -21 0 -18 -4 -20 -42 -15 -185 24 -331 36 -498 41 -107 3
-337 10 -510 16 -173 5 -700 14 -1170 19 -470 5 -1024 14 -1230 20 -458 13
-825 16 -1600 11 -365 -2 -705 1 -880 8 -157 7 -629 17 -1050 22 -421 6 -821
12 -890 14 -102 4 -131 1 -157 -12z"/>
<path d="M6875 6560 c-27 -4 -78 -17 -112 -29 -99 -33 -200 -48 -225 -32 -18
11 -23 10 -41 -7 -20 -20 -16 -42 7 -42 25 0 47 -235 25 -257 -7 -7 -12 -62
-12 -139 -2 -123 -1 -129 18 -129 18 0 20 8 23 88 3 84 4 87 26 87 13 0 43 7
67 15 24 9 66 19 94 23 36 5 51 12 53 25 5 24 -43 23 -136 -3 -39 -11 -76 -20
-82 -20 -7 0 -9 24 -4 73 3 41 1 105 -6 150 -6 43 -10 80 -8 82 2 2 36 6 76 9
39 3 105 16 145 30 39 13 97 30 127 37 54 13 73 25 64 41 -6 9 -28 9 -99 -2z"/>
<path d="M5854 6505 c-15 -23 -16 -45 -10 -193 l7 -167 -30 -17 c-32 -17 -101
-116 -101 -142 0 -8 -9 -20 -19 -26 -41 -21 -44 -15 -38 80 7 113 -1 115 -85
25 -34 -36 -63 -63 -66 -61 -2 3 4 35 13 71 10 36 15 68 12 71 -15 16 -39 -11
-71 -81 -44 -96 -72 -135 -97 -135 -23 0 -36 -27 -21 -42 19 -19 69 11 100 59
22 33 31 41 35 29 10 -26 36 -19 88 25 l49 41 0 -40 c0 -23 5 -53 10 -68 10
-25 13 -26 55 -21 25 4 47 2 50 -3 3 -6 28 -10 54 -10 58 0 85 22 101 81 14
51 6 542 -9 547 -5 2 -17 -8 -27 -23z m-18 -529 c-12 -28 -21 -36 -40 -36 -23
0 -26 4 -26 33 0 33 15 62 54 105 l21 24 3 -45 c2 -25 -4 -61 -12 -81z"/>
<path d="M3500 6491 c-63 -9 -70 -16 -70 -68 0 -55 30 -122 71 -160 55 -51 97
-118 125 -198 l27 -78 -27 -24 c-37 -31 -86 -30 -125 2 -45 39 -73 89 -65 119
5 23 3 26 -20 26 -59 0 -46 -73 26 -155 45 -52 82 -68 139 -62 59 7 93 28 109
68 11 25 10 39 -8 94 -23 67 -75 157 -112 190 -31 28 -90 137 -90 167 0 22 5
26 38 30 20 3 48 1 61 -4 47 -17 73 18 29 40 -35 17 -59 20 -108 13z"/>
<path d="M8223 6463 c5 -25 -25 -270 -34 -276 -2 -2 -17 -8 -32 -15 -35 -15
-30 -38 7 -35 25 2 26 0 26 -47 0 -95 45 -160 111 -160 30 0 97 30 103 47 8
19 -18 27 -43 14 -23 -13 -70 -14 -88 -3 -19 12 -33 59 -33 112 0 47 1 48 36
55 20 3 61 3 91 -1 50 -6 55 -5 51 12 -4 23 -66 37 -129 30 l-46 -6 14 87 c23
156 18 213 -19 213 -17 0 -19 -5 -15 -27z"/>
<path d="M3183 6473 c-10 -3 -11 -45 -6 -183 6 -183 -5 -310 -32 -347 -11 -15
-14 -14 -28 8 -9 13 -30 78 -47 144 -35 134 -44 155 -65 155 -24 0 -43 -40
-65 -135 -26 -109 -51 -179 -60 -168 -15 16 -30 142 -30 250 0 115 -19 210
-45 219 -16 7 -55 -12 -55 -27 0 -5 11 -14 24 -19 31 -11 35 -39 37 -215 1
-161 11 -232 38 -259 37 -37 78 10 106 123 10 36 24 91 33 121 l15 55 28 -110
c31 -125 51 -167 84 -185 35 -19 53 -6 83 57 27 57 27 61 28 273 1 236 -3 260
-43 243z"/>
<path d="M4987 6462 c-22 -25 -33 -56 -52 -158 -9 -51 -15 -124 -14 -171 3
-80 2 -85 -31 -135 -19 -29 -47 -59 -62 -66 -30 -14 -36 -30 -15 -38 27 -10
67 16 101 68 20 29 36 47 36 41 0 -21 63 -85 97 -99 17 -8 40 -11 50 -7 29 10
63 45 63 65 0 24 -22 23 -45 -2 -24 -27 -38 -25 -78 10 -51 44 -63 80 -42 121
34 64 56 146 66 242 10 85 9 101 -5 122 -19 29 -46 32 -69 7z m24 -132 c-11
-88 -28 -160 -38 -160 -3 0 -3 24 0 53 7 64 37 200 43 194 3 -3 0 -41 -5 -87z"/>
<path d="M2542 6443 c-6 -16 -21 -66 -33 -113 -12 -47 -41 -130 -64 -185 -23
-55 -53 -129 -66 -163 -13 -35 -35 -75 -48 -88 -18 -18 -21 -28 -13 -36 25
-25 66 22 100 115 15 42 20 47 47 47 16 0 55 6 86 14 l57 13 6 -35 c3 -19 0
-44 -5 -54 -12 -22 -4 -35 26 -40 18 -3 20 4 25 82 3 55 1 94 -7 110 -14 29
-43 216 -43 275 0 63 -9 85 -35 85 -15 0 -26 -9 -33 -27z m37 -183 c7 -69 14
-137 17 -151 5 -24 3 -26 -59 -37 -35 -7 -69 -12 -75 -12 -6 0 5 36 24 80 19
44 45 118 57 164 12 47 22 84 23 83 1 -1 7 -58 13 -127z"/>
<path d="M17565 6354 c-26 -62 -29 -65 -54 -58 -48 13 -76 10 -76 -8 0 -9 -12
-30 -26 -45 -66 -70 -75 -129 -26 -178 l33 -33 -17 -34 c-24 -44 -25 -88 -1
-88 11 1 26 21 43 59 26 56 29 59 70 66 91 15 159 67 159 120 0 38 -20 67 -64
95 l-35 21 30 62 c34 72 36 87 11 87 -14 0 -27 -19 -47 -66z m-87 -192 c-33
-72 -44 -82 -66 -60 -18 18 -14 57 9 95 17 26 24 31 35 23 16 -14 34 -5 34 18
0 11 3 13 10 6 7 -7 -1 -34 -22 -82z m114 37 c19 -14 28 -28 26 -42 -4 -26
-62 -67 -95 -67 -23 0 -23 0 -7 38 9 20 21 49 27 65 6 15 13 27 15 27 2 0 17
-9 34 -21z"/>
<path d="M12928 6383 c-12 -14 -68 -233 -68 -265 0 -3 -21 -8 -47 -11 -38 -4
-54 -12 -80 -41 -36 -39 -41 -70 -17 -104 11 -16 25 -22 53 -22 43 0 76 29
110 97 22 43 71 231 71 269 0 14 8 24 21 27 17 4 19 10 14 29 -13 39 -34 47
-57 21z m-104 -332 c9 -14 -33 -61 -55 -61 -25 0 -24 18 3 47 22 24 43 29 52
14z"/>
<path d="M11629 6345 c-23 -51 -59 -187 -59 -221 0 -21 -5 -23 -62 -26 -48 -2
-63 -7 -63 -18 0 -11 14 -16 58 -18 54 -3 58 -4 52 -25 -13 -45 -87 -188 -101
-194 -22 -8 -18 -53 5 -53 33 0 107 118 136 215 12 40 13 40 61 40 37 0 49 4
52 16 3 17 -24 29 -67 29 -23 0 -23 2 -17 53 4 28 18 87 32 129 l26 78 29 -16
c54 -27 68 5 17 36 -54 32 -76 27 -99 -25z"/>
<path d="M18048 6358 c-32 -26 -48 -63 -48 -109 0 -43 -3 -49 -35 -69 -79 -49
-109 -126 -66 -169 21 -21 118 -45 144 -36 45 18 72 125 42 171 -9 15 -13 29
-8 33 24 17 54 82 47 103 -4 13 -8 33 -9 46 -1 37 -38 53 -67 30z m25 -119
c-10 -16 -21 -29 -25 -29 -10 0 -11 62 -1 86 6 15 8 15 25 -6 17 -21 17 -24 1
-51z m-51 -119 c35 0 43 -19 28 -65 -15 -45 -24 -48 -80 -32 -35 10 -46 18
-48 36 -4 29 46 87 62 71 5 -5 23 -10 38 -10z"/>
<path d="M16600 6338 c-53 -15 -70 -35 -70 -83 0 -22 -5 -46 -11 -52 -7 -7 -9
-18 -6 -26 4 -11 20 -13 77 -9 55 4 74 2 81 -9 9 -13 5 -59 -7 -100 -7 -23
-48 -39 -104 -39 -39 0 -50 4 -50 16 0 25 -44 13 -48 -13 -7 -51 110 -72 194
-34 50 23 68 61 62 132 -7 66 -29 88 -97 96 -40 4 -51 9 -47 20 4 8 6 21 6 28
0 18 62 37 93 30 36 -9 46 13 16 36 -27 21 -38 22 -89 7z"/>
<path d="M15474 6308 c-33 -64 -45 -73 -95 -70 -38 2 -52 -2 -79 -25 -40 -33
-60 -79 -60 -137 0 -37 5 -48 27 -66 l27 -21 -23 -44 c-25 -47 -33 -106 -15
-112 6 -2 26 24 44 59 44 84 44 85 97 93 53 8 103 50 103 86 0 12 -9 41 -21
63 l-21 42 36 74 c19 41 33 77 30 82 -11 18 -34 6 -50 -24z m-116 -211 c-35
-71 -61 -75 -66 -11 -2 33 3 48 23 73 26 30 27 30 50 13 l23 -17 -30 -58z m92
-23 c0 -15 -18 -30 -48 -39 l-23 -7 23 46 c20 40 25 43 36 29 6 -9 12 -22 12
-29z"/>
<path d="M15697 6312 c-22 -15 -46 -39 -55 -54 -13 -23 -14 -29 -2 -43 14 -17
45 -17 97 0 l21 7 -24 -84 c-13 -45 -29 -98 -35 -117 -9 -26 -8 -35 2 -42 20
-12 36 7 44 49 3 20 24 90 46 155 21 64 39 119 39 121 0 8 -63 36 -79 36 -9
-1 -33 -13 -54 -28z m77 -21 c3 -5 -9 -16 -28 -25 -47 -22 -52 -20 -25 9 25
26 44 31 53 16z"/>
<path d="M17138 6290 c-57 -36 -65 -48 -44 -68 16 -16 18 -16 31 2 38 51 115
75 115 36 0 -26 -122 -154 -177 -187 -24 -14 -48 -33 -53 -43 -33 -61 21 -68
83 -11 48 44 75 43 101 -7 21 -41 44 -58 58 -44 16 16 -16 82 -53 108 l-30 21
55 69 c60 74 69 109 38 137 -27 25 -71 20 -124 -13z"/>
<path d="M17816 6288 c-8 -13 -22 -50 -31 -83 -23 -79 -65 -195 -81 -220 -10
-16 -10 -23 1 -39 18 -24 45 -14 45 17 0 14 11 49 23 78 13 30 32 86 41 124
10 39 24 80 32 93 16 24 13 52 -5 52 -6 0 -17 -10 -25 -22z"/>
<path d="M16279 6277 c-44 -30 -68 -72 -51 -89 10 -10 18 -6 40 20 15 17 40
34 56 38 28 7 29 6 23 -25 -9 -46 -72 -138 -134 -198 -30 -29 -53 -59 -51 -65
9 -25 40 -20 73 12 34 33 38 32 49 -12 3 -15 17 -35 30 -43 22 -14 28 -14 58
-1 39 17 78 50 78 65 0 23 -21 20 -64 -11 -25 -17 -48 -29 -52 -26 -3 3 -11
26 -19 50 -13 44 -13 44 32 116 71 114 69 192 -6 192 -16 0 -43 -10 -62 -23z"/>
<path d="M10807 6263 c-2 -5 -3 -60 -1 -123 2 -121 9 -135 44 -90 8 11 32 26
54 35 64 27 118 65 114 81 -2 9 -34 29 -73 46 -38 17 -77 37 -86 44 -17 15
-45 19 -52 7z"/>
<path d="M8580 6205 c0 -23 47 -42 63 -26 9 10 8 15 -7 27 -26 18 -56 18 -56
-1z"/>
<path d="M10490 6197 c-37 -8 -55 -17 -55 -27 0 -13 17 -14 108 -11 124 4 162
11 162 32 0 18 -137 22 -215 6z"/>
<path d="M13476 6187 c-13 -13 -31 -48 -41 -78 -41 -124 -55 -130 -90 -40 -19
49 -40 65 -51 38 -7 -19 31 -99 60 -126 50 -47 77 -23 128 114 20 51 27 60 51
63 29 4 35 20 15 40 -19 19 -47 14 -72 -11z"/>
<path d="M7414 6174 c-16 -9 -40 -26 -55 -40 -14 -13 -37 -24 -51 -24 -24 0
-26 -4 -27 -42 -1 -24 -3 -54 -4 -68 -1 -16 4 -26 14 -28 12 -2 29 17 53 57
21 33 49 70 64 82 l27 21 12 -30 c7 -17 17 -33 23 -37 12 -7 46 10 78 38 l22
20 0 -31 c0 -63 44 -111 87 -95 42 16 44 53 3 53 -36 0 -40 8 -43 81 -3 69
-18 73 -79 19 -49 -43 -64 -49 -54 -24 7 18 -8 49 -27 57 -8 3 -27 -1 -43 -9z"/>
<path d="M7830 6183 c-31 -11 -60 -47 -60 -74 0 -39 24 -43 85 -15 l53 24 7
-57 c9 -79 27 -103 73 -99 50 4 58 35 10 40 -33 3 -33 3 -43 76 -9 64 -13 75
-40 92 -30 20 -56 24 -85 13z m40 -38 c0 -2 -10 -10 -22 -16 -21 -11 -22 -11
-9 4 13 16 31 23 31 12z"/>
<path d="M13653 6175 c-59 -25 -53 -92 16 -168 18 -21 31 -40 27 -44 -11 -12
-56 17 -66 42 -5 14 -14 25 -19 25 -12 0 -41 -28 -41 -40 0 -12 66 -67 89 -75
23 -7 91 11 91 25 0 5 3 15 6 23 3 9 -13 35 -39 65 -25 28 -48 61 -52 73 -10
30 13 42 43 23 44 -29 59 11 16 45 -31 24 -30 24 -71 6z"/>
<path d="M9125 6164 c-16 -8 -46 -31 -65 -50 -31 -30 -38 -32 -50 -19 -12 12
-19 12 -40 2 -28 -14 -35 -53 -9 -51 11 1 15 -5 12 -16 -3 -9 3 -25 13 -35 17
-17 20 -15 72 44 55 62 104 97 122 86 6 -3 10 -31 10 -61 0 -69 25 -99 73 -90
58 12 62 46 6 46 -29 0 -29 1 -29 55 0 46 -4 60 -25 80 -28 29 -48 31 -90 9z"/>
<path d="M4499 6141 c-25 -25 -29 -37 -29 -83 1 -107 64 -188 148 -188 50 0
132 32 132 50 0 19 -27 22 -58 6 -35 -18 -97 -12 -126 13 -26 22 -46 73 -46
119 0 57 37 83 65 45 11 -15 15 -15 29 -4 21 18 20 34 -2 54 -30 27 -79 21
-113 -12z"/>
<path d="M5234 6152 c-21 -17 -54 -89 -54 -117 0 -28 54 -75 92 -82 30 -4 41
-1 62 20 30 30 32 60 9 119 -30 78 -64 97 -109 60z m61 -55 c42 -65 23 -121
-35 -97 -38 16 -45 39 -23 84 19 42 36 45 58 13z"/>
<path d="M7107 6155 c-17 -17 -22 -31 -31 -99 -6 -43 17 -100 37 -93 7 2 13
28 14 66 2 87 5 91 57 91 29 0 46 5 49 15 8 19 -3 25 -61 32 -37 4 -52 2 -65
-12z"/>
<path d="M13056 6146 c-65 -39 -81 -87 -46 -143 28 -47 69 -64 143 -61 49 2
62 6 65 21 3 14 -4 17 -45 17 -49 0 -114 25 -121 47 -2 7 14 20 37 29 33 13
43 23 51 52 17 63 -17 79 -84 38z m39 -46 c-3 -5 -11 -10 -16 -10 -6 0 -7 5
-4 10 3 6 11 10 16 10 6 0 7 -4 4 -10z"/>
<path d="M6900 6135 c0 -8 -8 -15 -19 -15 -18 0 -66 -61 -72 -91 -5 -26 11
-56 37 -67 93 -43 178 54 129 147 -20 40 -75 58 -75 26z m50 -81 c0 -28 -32
-64 -58 -64 -10 0 -26 6 -35 13 -16 11 -14 16 15 58 31 44 34 46 55 31 13 -8
23 -24 23 -38z"/>
<path d="M11954 6115 c-18 -7 -36 -25 -44 -44 -7 -17 -18 -31 -26 -31 -21 0
-27 -19 -14 -51 20 -46 48 -35 72 28 22 60 38 69 83 47 35 -16 55 -13 55 10 0
37 -76 62 -126 41z"/>
<path d="M8790 6078 c-25 -54 -25 -75 0 -115 29 -47 62 -45 100 9 16 22 30 47
30 55 0 27 -29 69 -55 81 -42 19 -55 14 -75 -30z m76 -45 c5 -18 1 -31 -14
-46 l-21 -20 -11 24 c-15 32 2 81 25 73 8 -4 18 -17 21 -31z"/>
<path d="M11746 6080 c-42 -37 -53 -73 -31 -106 19 -30 56 -40 87 -23 36 19
47 40 48 92 0 42 -3 49 -26 57 -36 14 -40 13 -78 -20z m41 -78 c-8 -8 -20 -11
-26 -7 -15 9 -4 46 18 63 14 11 16 10 19 -14 2 -15 -3 -33 -11 -42z"/>
<path d="M8557 6083 c-2 -5 -1 -33 2 -63 5 -46 9 -55 26 -55 18 0 20 6 17 45
-2 25 -8 53 -13 62 -10 19 -25 23 -32 11z"/>
<path d="M15855 6026 c-11 -8 -16 -19 -12 -30 8 -21 16 -20 47 4 21 17 23 21
10 30 -20 13 -23 12 -45 -4z"/>
<path d="M16805 5970 c-11 -18 10 -32 41 -28 40 4 38 32 -3 36 -17 2 -34 -2
-38 -8z"/>
<path d="M1885 5500 c-3 -5 -3 -14 0 -20 3 -5 -4 -47 -15 -92 -12 -46 -24
-129 -27 -184 -9 -149 -11 -147 240 -149 50 0 82 4 89 12 24 30 2 36 -142 37
l-145 1 1 95 c1 62 9 122 23 174 27 102 28 136 2 136 -11 0 -23 -4 -26 -10z"/>
<path d="M13247 5423 c-9 -8 -8 -86 1 -138 5 -26 13 -41 25 -43 15 -3 17 7 17
92 0 86 -2 96 -18 96 -10 0 -22 -3 -25 -7z"/>
<path d="M6316 5401 c-26 -28 -36 -78 -36 -174 0 -196 -36 -303 -96 -280 -34
13 11 109 47 98 22 -7 34 12 19 30 -20 24 -48 18 -85 -17 -66 -63 -50 -152 29
-152 43 0 81 32 108 91 14 32 21 80 27 195 6 120 11 159 25 180 28 43 -3 68
-38 29z"/>
<path d="M3794 5386 c-18 -14 -19 -27 -17 -175 l2 -160 -26 10 c-47 18 -92
-29 -95 -97 -2 -46 28 -74 78 -74 77 0 97 60 92 288 l-3 166 24 6 c34 8 37 28
6 40 -34 13 -37 13 -61 -4z m-10 -371 c2 -6 -2 -26 -8 -45 -8 -25 -18 -36 -34
-38 -46 -7 -61 38 -26 78 14 17 62 20 68 5z"/>
<path d="M9610 5365 c-17 -18 -20 -28 -12 -38 11 -13 10 -21 -9 -99 -9 -34
-12 -37 -52 -40 -56 -4 -59 -32 -4 -36 34 -3 38 -6 34 -25 -38 -159 -30 -200
39 -205 27 -2 45 2 53 12 19 23 5 35 -33 29 -21 -3 -36 -1 -41 7 -4 6 1 52 10
101 13 68 21 89 34 90 105 5 153 16 149 36 -4 20 -69 28 -111 13 -17 -5 -33
-8 -35 -5 -3 3 2 39 12 80 24 103 13 130 -34 80z"/>
<path d="M11951 5376 c-6 -7 -9 -20 -6 -29 4 -8 0 -30 -8 -48 -8 -19 -19 -57
-26 -86 -9 -38 -17 -50 -27 -46 -8 3 -26 2 -40 -1 -37 -10 -28 -41 11 -41 20
0 29 -5 27 -13 -1 -7 -3 -41 -3 -74 -2 -86 19 -112 93 -116 61 -3 112 12 105
31 -3 8 -24 11 -74 9 -46 -3 -73 0 -78 8 -8 14 -9 103 0 130 5 14 19 20 63 25
89 11 117 20 120 39 4 20 1 20 -130 0 -25 -4 -38 -2 -38 5 0 7 14 53 30 103
23 69 27 94 19 104 -14 18 -24 18 -38 0z"/>
<path d="M6934 5249 c-9 -16 38 -60 54 -50 19 12 -2 61 -27 61 -11 0 -23 -5
-27 -11z"/>
<path d="M8604 5239 c-4 -7 -8 -57 -10 -113 -1 -56 -3 -105 -4 -111 -10 -46
13 -45 88 4 32 22 74 44 93 48 55 15 44 39 -51 115 -86 69 -103 77 -116 57z"/>
<path d="M4662 5194 c-14 -10 -22 -25 -22 -45 0 -30 32 -103 50 -114 5 -3 10
-17 10 -31 0 -20 -5 -24 -29 -24 -34 0 -54 19 -41 40 15 23 12 40 -7 40 -31 0
-46 -17 -46 -49 0 -57 66 -98 126 -78 55 19 62 79 17 146 -49 72 -29 114 26
54 17 -19 28 -23 35 -16 17 17 1 50 -35 73 -40 24 -54 25 -84 4z"/>
<path d="M13220 5197 c-45 -15 -68 -58 -52 -99 9 -25 7 -31 -19 -57 -16 -16
-29 -36 -29 -45 0 -14 36 -56 49 -56 3 0 23 -4 43 -9 28 -7 40 -5 49 5 9 11 1
18 -35 36 -25 12 -46 26 -46 30 0 4 27 21 60 38 33 17 60 37 60 45 0 21 -35
37 -65 29 -14 -3 -25 -2 -25 2 1 33 65 53 99 32 18 -11 23 -11 31 2 13 21 -26
60 -59 59 -14 0 -42 -5 -61 -12z"/>
<path d="M2270 5188 c0 -7 -2 -55 -5 -106 -2 -51 -2 -99 1 -107 8 -19 40 -20
51 -2 14 24 59 47 125 66 63 18 79 36 46 52 -10 5 -26 13 -35 19 -10 5 -40 21
-68 36 -27 14 -57 32 -66 40 -19 17 -49 18 -49 2z"/>
<path d="M5278 5171 c-32 -3 -65 -13 -73 -22 -15 -15 -14 -22 16 -87 32 -72
33 -102 4 -102 -22 0 -31 29 -16 52 23 36 -13 53 -42 20 -23 -25 -21 -64 4
-96 25 -32 66 -34 103 -5 34 26 34 64 1 129 -14 27 -25 51 -25 54 0 8 99 26
115 20 20 -8 33 25 14 37 -8 5 -21 8 -29 7 -8 0 -41 -4 -72 -7z"/>
<path d="M7400 5173 c-55 -20 -64 -66 -21 -115 34 -40 63 -93 54 -102 -10 -10
-80 -7 -106 5 -17 8 -23 17 -20 30 7 26 -24 36 -45 16 -42 -43 33 -107 123
-107 97 0 113 49 51 150 -31 49 -35 64 -26 75 14 17 46 20 55 5 11 -17 35 -11
35 10 0 32 -54 50 -100 33z"/>
<path d="M15760 5163 c-20 -7 -60 -44 -60 -55 0 -5 -8 -27 -19 -48 -25 -51
-12 -120 27 -151 35 -27 79 -20 180 29 57 28 77 42 77 57 0 24 -31 32 -53 13
-22 -19 -135 -68 -155 -68 -15 0 -37 28 -37 48 0 5 18 17 41 27 54 25 81 63
73 104 -9 41 -36 58 -74 44z m30 -68 c0 -15 -47 -51 -55 -43 -2 2 5 19 16 36
19 32 39 35 39 7z"/>
<path d="M8415 5151 c-14 -13 -219 -34 -260 -27 -40 8 -57 -10 -29 -31 15 -12
49 -14 173 -9 84 3 155 7 157 8 1 2 4 17 6 33 2 24 -1 31 -17 33 -11 1 -25 -2
-30 -7z"/>
<path d="M11001 5124 c-18 -23 -21 -38 -19 -93 2 -51 6 -66 18 -66 11 0 16 15
20 55 7 71 13 80 61 80 27 0 39 4 39 14 0 19 -6 22 -56 31 -37 6 -44 4 -63
-21z"/>
<path d="M11282 5114 c-18 -14 -39 -39 -47 -54 -38 -73 -2 -122 103 -140 79
-14 116 -11 120 11 2 13 -10 17 -65 23 -118 11 -120 12 -63 57 37 29 50 46 50
65 0 65 -42 82 -98 38z m58 -31 c0 -18 -66 -70 -76 -60 -6 6 55 77 67 77 5 0
9 -8 9 -17z"/>
<path d="M12251 5115 c-32 -28 -51 -77 -51 -135 1 -98 163 -103 263 -9 38 37
40 41 24 56 -16 16 -19 15 -44 -9 -42 -40 -138 -81 -170 -73 l-27 6 32 26 c32
25 72 89 72 116 0 17 -17 32 -46 41 -15 5 -31 -1 -53 -19z m45 -53 c-16 -32
-56 -70 -56 -54 0 20 18 59 35 76 24 24 37 10 21 -22z"/>
<path d="M13975 5087 c-30 -29 -55 -49 -55 -44 0 4 -10 7 -22 5 -15 -2 -23
-10 -24 -23 -1 -12 -7 -38 -13 -58 -13 -38 -9 -67 7 -67 5 0 21 17 34 38 14
20 51 64 82 97 l57 60 -4 -46 c-4 -45 5 -79 23 -79 4 0 33 20 63 45 31 25 57
45 60 45 2 0 -1 -22 -6 -48 -11 -54 -6 -79 18 -89 25 -9 39 11 24 34 -9 16 -9
30 0 67 13 52 2 86 -26 86 -9 0 -38 -18 -65 -41 l-48 -40 0 49 c0 48 -9 62
-41 62 -5 0 -34 -24 -64 -53z"/>
<path d="M15345 5121 c-51 -23 -105 -74 -105 -98 0 -26 29 -51 67 -59 34 -7
86 15 102 43 16 28 14 -44 -5 -169 l-17 -108 -64 0 c-79 0 -100 -10 -124 -63
-23 -52 -24 -86 -2 -131 20 -43 61 -62 106 -50 37 11 91 91 109 162 9 36 15
44 39 49 20 4 29 11 29 25 0 16 -5 19 -25 16 -30 -6 -29 -8 -10 102 8 47 15
117 14 155 -2 125 -23 155 -58 82 -23 -47 -66 -75 -97 -63 -15 6 -14 10 7 32
13 14 40 33 59 43 33 15 47 41 25 47 -5 2 -28 -5 -50 -15z m30 -458 c-12 -48
-49 -107 -78 -123 -27 -14 -29 -14 -48 9 -23 28 -24 62 -4 101 12 24 23 30 57
33 24 2 51 4 62 5 15 2 17 -3 11 -25z"/>
<path d="M6610 5074 l-65 -55 -6 35 c-11 65 -43 82 -88 47 -18 -13 -35 -18
-58 -14 -37 6 -54 -16 -33 -42 10 -12 10 -22 -1 -47 -11 -27 -11 -33 2 -41 14
-9 13 -15 -6 -56 -23 -48 -57 -146 -75 -218 -9 -35 -15 -43 -41 -48 -21 -5
-29 -12 -27 -23 2 -10 11 -16 21 -16 20 2 21 -20 7 -83 -11 -48 1 -93 24 -93
20 0 30 18 18 33 -11 13 -3 71 18 129 16 43 29 48 123 48 59 0 68 2 65 17 -5
24 -69 38 -119 25 l-40 -10 6 31 c7 31 33 108 72 212 12 32 25 50 36 50 9 0
20 5 26 10 13 15 -5 55 -26 55 -13 0 -11 6 12 30 33 34 45 31 45 -11 0 -36 16
-69 33 -69 7 0 35 18 62 40 l50 40 7 -32 c7 -37 31 -58 65 -58 29 0 30 25 2
41 -19 9 -21 18 -16 58 9 88 -4 90 -93 15z"/>
<path d="M7045 5095 c-53 -56 -82 -155 -45 -155 6 0 13 8 16 18 24 74 63 132
90 132 17 0 19 -55 3 -96 -5 -16 -7 -39 -4 -52 8 -31 39 -25 42 8 1 14 5 50 8
81 9 71 -4 99 -47 99 -22 0 -40 -10 -63 -35z"/>
<path d="M9868 5098 c-53 -70 -60 -104 -30 -131 25 -23 90 -21 130 3 26 16 32
26 32 53 0 42 -24 75 -66 93 -43 18 -38 19 -66 -18z m74 -45 c35 -32 10 -63
-51 -63 -37 0 -40 16 -10 54 24 30 36 32 61 9z"/>
<path d="M16631 5082 c-46 -43 -52 -54 -49 -83 3 -32 5 -34 45 -37 26 -2 51 3
63 11 19 13 24 12 50 -14 24 -25 36 -29 82 -29 61 0 95 18 85 44 -5 14 -11 15
-27 6 -11 -6 -42 -10 -67 -8 l-47 3 -1 46 c-3 63 -24 103 -56 107 -19 2 -39
-9 -78 -46z m76 -35 c-18 -28 -63 -54 -74 -43 -10 10 66 78 79 70 5 -3 3 -15
-5 -27z"/>
<path d="M10677 5086 c-48 -44 -50 -83 -7 -120 17 -14 47 -28 67 -32 49 -9
128 7 128 26 0 12 -12 14 -61 12 -110 -6 -158 42 -92 91 25 18 30 19 53 7 20
-11 28 -11 38 -1 9 10 7 16 -13 31 -37 29 -71 25 -113 -14z"/>
<path d="M14675 5096 c-29 -18 -43 -22 -53 -14 -8 7 -16 7 -21 2 -11 -12 -31
-106 -25 -116 7 -11 34 -10 34 2 0 15 61 80 90 95 46 24 56 6 37 -62 -21 -75
-21 -83 2 -83 15 0 22 14 36 69 19 79 15 103 -21 119 -33 16 -33 16 -79 -12z"/>
<path d="M3168 5078 c-58 -62 -72 -119 -36 -142 13 -8 28 -5 63 12 25 12 45
17 45 11 0 -18 48 -59 70 -59 23 0 27 25 6 37 -21 13 -39 55 -38 89 1 35 -36
84 -64 84 -9 0 -29 -14 -46 -32z m67 -27 c5 -9 -56 -64 -63 -56 -5 5 40 65 49
65 4 0 10 -4 14 -9z"/>
<path d="M5007 5103 c-2 -5 -7 -21 -11 -36 -4 -15 -29 -75 -56 -133 -58 -121
-74 -178 -55 -194 9 -8 17 -4 29 14 9 14 16 28 16 31 0 3 15 43 34 88 66 159
76 186 76 211 0 24 -23 37 -33 19z"/>
<path d="M14383 5088 c-38 -27 -56 -64 -51 -104 4 -38 45 -44 87 -15 16 12 31
21 33 21 1 0 3 -19 3 -42 0 -31 4 -43 16 -46 13 -2 18 8 23 45 3 26 8 63 12
81 5 25 3 32 -10 32 -9 0 -13 6 -10 14 6 16 -24 36 -53 36 -10 0 -33 -10 -50
-22z m71 -24 c13 -5 8 -12 -20 -35 -51 -40 -65 -39 -43 4 19 34 34 42 63 31z"/>
<path d="M5930 5091 c-86 -19 -124 -111 -46 -111 18 0 41 7 52 15 27 21 31 19
44 -20 12 -37 35 -55 69 -55 29 0 26 28 -4 40 -25 10 -27 16 -29 78 -1 27 -6
36 -31 46 -16 6 -41 10 -55 7z"/>
<path d="M11642 5084 c-6 -11 -11 -13 -16 -5 -8 12 -54 15 -81 4 -26 -9 -74
-90 -68 -113 9 -33 40 -34 97 -1 l54 30 5 -40 c8 -59 30 -79 88 -79 30 0 53 6
63 16 24 23 10 35 -33 28 -59 -9 -74 12 -69 100 2 59 0 71 -14 74 -9 2 -21 -4
-26 -14z m-43 -50 c-14 -18 -69 -48 -75 -41 -11 11 40 57 63 57 22 0 24 -2 12
-16z"/>
<path d="M6874 5078 c-5 -7 -17 -35 -26 -62 -13 -37 -15 -53 -6 -63 6 -8 15
-12 21 -10 9 3 36 89 40 126 3 19 -19 25 -29 9z"/>
<path d="M14965 5071 c-50 -30 -71 -59 -58 -79 12 -20 49 -19 106 3 20 8 38
15 40 15 1 0 2 -23 2 -51 0 -39 5 -54 20 -65 40 -29 64 -2 29 33 -12 12 -14
27 -10 56 7 45 -5 67 -38 67 -12 0 -27 9 -34 20 -15 25 -19 25 -57 1z m35 -35
c0 -2 -7 -7 -16 -10 -8 -3 -12 -2 -9 4 6 10 25 14 25 6z"/>
<path d="M3416 5060 c-15 -10 -40 -37 -53 -60 -24 -40 -24 -43 -8 -58 16 -16
18 -16 28 3 18 30 73 85 86 85 6 0 11 -12 11 -27 0 -37 22 -78 40 -78 10 0 15
9 14 25 -1 14 -2 42 -3 62 -2 65 -54 87 -115 48z"/>
<path d="M4840 5055 c0 -25 49 -115 66 -122 29 -11 28 8 -4 72 -30 61 -62 86
-62 50z"/>
<path d="M9030 4843 c-36 -33 -54 -115 -44 -200 l6 -53 -33 0 c-52 0 -94 -31
-114 -84 -16 -43 -16 -47 -1 -71 33 -51 141 -20 175 50 10 20 15 67 16 135 3
158 3 157 36 194 49 56 15 79 -41 29z m-40 -317 c0 -33 -53 -76 -92 -76 -23 0
-29 4 -24 16 3 9 6 19 6 23 0 5 9 20 21 35 15 19 30 26 55 26 29 0 34 -3 34
-24z"/>
<path d="M3416 4828 c-8 -13 -21 -59 -30 -103 -31 -149 -33 -153 -69 -157 -40
-4 -44 -32 -5 -36 26 -3 27 -5 20 -50 -11 -82 -9 -117 8 -117 11 0 18 19 26
65 17 98 16 97 100 111 75 12 112 33 80 45 -16 6 -50 3 -122 -12 l-31 -6 24
112 c13 62 28 121 34 131 20 38 -11 53 -35 17z"/>
<path d="M7826 4842 c-2 -4 -9 -34 -15 -67 -6 -33 -18 -98 -27 -145 -9 -47
-20 -104 -24 -126 -10 -49 0 -98 22 -102 12 -2 17 11 22 60 4 35 9 77 12 93
11 76 34 224 40 258 5 30 4 37 -9 37 -9 0 -18 -3 -21 -8z"/>
<path d="M10441 4815 c-17 -15 -57 -66 -88 -113 -32 -48 -61 -88 -65 -90 -5
-2 -8 -10 -8 -19 0 -21 -50 -105 -74 -125 -20 -16 -20 -18 -4 -34 22 -22 34
-13 78 65 l34 61 72 0 71 0 -5 -71 c-4 -66 -3 -71 14 -67 14 2 20 13 22 38 5
75 13 99 32 105 26 8 26 35 0 35 -16 0 -19 5 -15 23 2 12 6 65 7 117 3 90 2
95 -18 98 -12 2 -35 -9 -53 -23z m33 -97 c-9 -124 -6 -118 -74 -118 -33 0 -60
2 -60 6 0 17 124 184 137 184 2 0 1 -33 -3 -72z"/>
<path d="M8323 4788 c-7 -24 -15 -56 -19 -71 -7 -31 -36 -47 -85 -47 -23 0
-29 -4 -29 -21 0 -20 4 -21 45 -17 l45 6 -6 -52 c-21 -159 19 -207 136 -160
38 15 51 36 31 48 -5 3 -25 -1 -46 -10 -48 -19 -72 -11 -77 27 -6 36 9 140 22
153 5 5 34 8 64 8 31 0 59 4 62 10 12 18 -14 30 -66 30 l-52 0 6 47 c12 79 11
85 -4 88 -11 3 -19 -10 -27 -39z"/>
<path d="M15893 4818 c-30 -38 -13 -93 26 -86 22 5 23 91 0 96 -9 1 -20 -3
-26 -10z"/>
<path d="M13105 4725 c-22 -64 -27 -87 -18 -96 18 -18 43 -3 43 25 0 14 9 48
20 76 25 63 25 80 2 80 -13 0 -25 -21 -47 -85z"/>
<path d="M2447 4779 c-9 -13 -20 -51 -26 -84 -48 -277 -51 -319 -26 -329 9 -3
18 0 20 7 13 39 27 136 35 230 6 71 15 117 27 137 16 28 16 31 1 46 -15 15
-17 14 -31 -7z"/>
<path d="M11248 4775 c-53 -28 -78 -58 -78 -95 0 -27 44 -105 74 -129 50 -41
39 -81 -23 -81 -40 0 -76 28 -83 64 -4 26 -17 26 -34 1 -18 -27 8 -80 49 -102
43 -22 120 -13 152 17 42 39 37 54 -53 171 -45 58 -39 77 30 114 51 26 60 28
79 17 31 -20 49 1 24 28 -25 27 -78 25 -137 -5z"/>
<path d="M10986 4782 c-3 -5 -7 -44 -10 -87 -7 -101 -46 -188 -88 -193 -24 -3
-28 1 -37 35 -5 21 -11 47 -13 58 -6 37 -41 23 -75 -29 -18 -27 -39 -56 -48
-65 -13 -14 -15 -11 -15 30 0 25 7 69 15 97 19 64 12 122 -16 122 -24 0 -32
-16 -19 -40 8 -15 7 -35 -5 -79 -42 -164 13 -239 95 -128 l35 47 9 -27 c14
-46 36 -63 77 -63 45 0 68 25 97 103 23 61 46 191 38 212 -6 16 -32 20 -40 7z"/>
<path d="M2590 4723 c0 -32 -10 -92 -21 -133 -29 -103 -32 -124 -25 -166 5
-25 12 -34 24 -32 12 2 17 16 19 58 2 30 12 92 24 137 24 100 23 186 -3 191
-16 3 -18 -5 -18 -55z"/>
<path d="M3675 4650 c-4 -7 0 -19 8 -28 14 -13 21 -13 42 -4 15 7 25 18 23 25
-6 16 -64 21 -73 7z"/>
<path d="M15850 4651 c-91 -10 -146 -63 -121 -118 5 -12 8 -37 5 -55 -4 -27 0
-40 25 -68 28 -33 31 -34 47 -18 16 15 15 18 -5 43 -25 33 -22 41 23 49 40 8
59 27 50 50 -5 13 -17 16 -52 14 -28 -2 -46 1 -49 9 -8 21 45 45 104 48 33 1
59 7 61 14 4 12 -16 42 -27 40 -3 -1 -31 -5 -61 -8z"/>
<path d="M12491 4634 c-22 -16 -23 -21 -17 -93 5 -60 3 -81 -9 -96 -14 -20
-14 -20 -15 1 0 11 5 25 12 32 9 9 9 15 -1 25 -10 10 -18 6 -41 -20 -33 -37
-30 -69 9 -89 32 -16 60 -6 82 30 17 27 19 42 13 110 l-6 79 35 -7 c42 -8 60
10 32 31 -25 18 -66 16 -94 -3z"/>
<path d="M17030 4635 c-11 -13 -9 -20 9 -39 12 -13 24 -39 28 -59 4 -30 2 -37
-21 -52 -25 -16 -89 -25 -101 -13 -11 11 7 58 31 80 26 25 30 43 13 54 -15 9
-63 -40 -84 -87 -23 -50 -11 -82 39 -99 73 -24 176 34 176 99 0 39 -16 81 -42
109 -25 26 -31 27 -48 7z"/>
<path d="M17380 4618 c-25 -19 -54 -55 -70 -86 -31 -60 -40 -54 -40 27 0 47
-12 71 -37 71 -11 0 -13 -14 -8 -62 12 -121 45 -161 91 -111 14 15 34 44 45
65 26 50 68 78 119 78 37 0 41 2 38 23 -3 19 -10 22 -49 25 -39 3 -53 -2 -89
-30z"/>
<path d="M1865 4621 c-16 -10 -38 -28 -49 -39 -23 -26 -32 -101 -16 -131 15
-29 68 -51 124 -51 54 0 76 8 76 26 0 11 -16 14 -63 14 -73 0 -97 17 -97 67 0
30 24 60 69 83 19 9 28 9 47 0 26 -14 54 -7 54 13 0 36 -97 48 -145 18z"/>
<path d="M2751 4614 c-35 -29 -62 -105 -51 -143 3 -14 18 -33 32 -44 29 -22
115 -33 137 -19 23 16 2 32 -42 32 -24 0 -53 7 -66 16 l-23 16 31 19 c56 34
80 98 51 134 -18 21 -34 19 -69 -11z m40 -42 c-14 -27 -41 -48 -41 -33 0 22
20 51 36 51 11 0 12 -4 5 -18z"/>
<path d="M12001 4604 c-22 -19 -43 -48 -46 -65 -4 -16 -13 -29 -21 -29 -9 0
-14 -9 -12 -27 1 -16 -2 -38 -6 -51 -5 -16 -3 -24 9 -29 21 -7 29 5 51 75 21
65 84 128 118 117 38 -12 50 -10 54 6 2 11 -8 20 -29 28 -52 18 -77 13 -118
-25z"/>
<path d="M14455 4623 c-48 -12 -85 -36 -85 -56 0 -11 16 -39 35 -63 40 -48 45
-74 14 -74 -29 0 -59 18 -59 35 0 20 -36 19 -44 -1 -20 -51 111 -113 152 -72
24 24 14 83 -23 129 l-35 44 33 11 c22 8 36 8 45 1 20 -16 40 8 26 31 -12 19
-28 23 -59 15z"/>
<path d="M16484 4598 c-27 -19 -57 -50 -69 -73 -11 -22 -29 -52 -39 -67 -10
-15 -15 -31 -12 -36 7 -11 -25 -167 -48 -231 -16 -47 -14 -61 8 -61 19 0 106
217 106 263 l0 37 25 -16 c54 -36 153 23 174 103 28 102 -49 145 -145 81z
m102 -32 c11 -28 -24 -86 -60 -101 -44 -19 -44 -19 -42 3 0 10 -6 16 -16 16
-16 -2 -16 1 -3 26 26 50 108 89 121 56z"/>
<path d="M16763 4615 c-36 -15 -61 -57 -78 -132 -10 -41 -10 -56 0 -69 15 -22
35 -10 35 21 0 14 11 49 24 78 24 56 40 67 98 67 28 0 46 16 32 30 -18 16 -79
19 -111 5z"/>
<path d="M7243 4598 c-11 -13 -28 -38 -37 -55 -9 -18 -23 -33 -30 -33 -8 0
-16 -15 -19 -37 -3 -21 -9 -53 -13 -71 -6 -30 -4 -34 12 -30 12 2 35 35 64 89
55 106 67 121 91 114 13 -4 21 -1 26 10 14 38 -62 48 -94 13z"/>
<path d="M3037 4594 c-16 -9 -37 -34 -47 -56 -31 -69 1 -130 76 -144 49 -9 84
2 84 27 0 17 -4 20 -24 15 -13 -3 -40 1 -60 9 -29 13 -36 20 -36 44 0 15 10
41 22 56 18 23 27 26 54 22 37 -6 52 6 34 28 -16 19 -67 18 -103 -1z"/>
<path d="M7470 4585 c-38 -27 -80 -95 -80 -131 0 -12 12 -36 26 -53 22 -27 32
-31 75 -31 56 0 129 26 129 45 0 23 -16 26 -54 10 -46 -19 -86 -19 -114 1 -31
21 -27 39 8 40 34 1 97 46 112 80 9 19 8 28 -7 44 -24 26 -52 25 -95 -5z m58
-34 c-13 -22 -67 -56 -75 -47 -8 8 56 66 73 66 11 0 12 -4 2 -19z"/>
<path d="M4196 4580 c-21 -11 -58 -36 -83 -56 -34 -28 -44 -32 -40 -18 17 54
18 72 6 79 -15 10 -39 -21 -39 -50 0 -12 -13 -41 -29 -65 -29 -44 -31 -70 -5
-70 19 0 77 37 165 105 39 30 73 55 75 55 2 0 -3 -18 -12 -40 -29 -72 -1 -109
86 -113 35 -2 45 2 48 16 3 13 -3 17 -25 17 -15 0 -39 9 -52 19 -23 18 -24 20
-11 64 7 26 10 53 7 62 -8 20 -44 18 -91 -5z"/>
<path d="M12205 4571 c-81 -49 -107 -122 -60 -165 32 -30 104 -40 123 -18 23
29 15 45 -20 39 -31 -4 -78 9 -78 22 0 3 14 7 31 8 47 4 93 35 97 65 7 63 -35
85 -93 49z m53 -43 c-3 -7 -20 -18 -39 -25 l-34 -14 28 26 c30 27 51 33 45 13z"/>
<path d="M14051 4565 c-94 -80 -38 -210 82 -191 50 8 58 13 50 32 -4 11 -16
13 -53 8 -41 -5 -51 -3 -70 16 l-22 22 42 20 c47 24 66 54 56 92 -8 34 -44 34
-85 1z m44 -34 c-3 -6 -15 -16 -26 -22 -18 -9 -19 -9 -10 9 10 19 32 33 40 26
1 -1 0 -7 -4 -13z"/>
<path d="M3849 4541 c-55 -48 -76 -89 -60 -120 37 -68 194 -13 194 68 0 40
-32 85 -64 89 -16 2 -39 -11 -70 -37z m89 -27 c11 -23 9 -29 -17 -55 -27 -27
-77 -39 -94 -23 -11 11 14 49 51 76 46 34 46 34 60 2z"/>
<path d="M7968 4568 c-57 -42 -85 -122 -53 -148 19 -15 85 1 105 25 20 24 29
18 32 -22 2 -27 8 -39 21 -41 14 -3 17 5 17 52 0 41 -5 58 -17 68 -10 7 -25
27 -33 43 -17 33 -46 42 -72 23z m52 -69 c0 -8 -62 -49 -74 -49 -14 0 -4 31
21 60 25 30 27 31 40 14 7 -10 13 -21 13 -25z"/>
<path d="M8623 4565 c-28 -19 -63 -77 -63 -102 0 -11 9 -32 21 -47 17 -21 29
-26 65 -26 51 0 84 14 84 35 0 12 -11 14 -60 8 -67 -7 -80 6 -31 32 40 20 81
59 81 77 0 37 -57 51 -97 23z"/>
<path d="M2128 4543 c-54 -59 -61 -101 -23 -138 37 -38 88 -34 131 9 42 42 45
82 8 125 -34 41 -80 42 -116 4z m80 -37 c20 -12 15 -64 -7 -76 -35 -18 -60
-12 -67 16 -13 52 30 87 74 60z"/>
<path d="M6005 4543 c-81 -81 -86 -160 -10 -179 28 -7 76 17 104 52 32 40 27
84 -12 122 -18 18 -38 32 -44 32 -5 0 -23 -12 -38 -27z m73 -62 c6 -37 -50
-87 -82 -75 -22 8 -20 32 5 69 27 38 72 42 77 6z"/>
<path d="M12671 4539 c-83 -83 -48 -192 55 -169 87 20 123 113 65 171 -40 39
-80 39 -120 -2z m80 -30 c29 -29 21 -61 -21 -81 -29 -15 -37 -16 -48 -4 -12
12 -11 21 9 60 12 25 26 46 31 46 4 0 17 -9 29 -21z"/>
<path d="M13414 4553 c-61 -30 -98 -142 -50 -151 24 -5 36 14 36 60 0 32 5 40
31 53 17 9 45 15 62 14 42 -4 62 8 46 27 -15 19 -85 17 -125 -3z"/>
<path d="M13738 4554 c-46 -19 -74 -71 -60 -112 17 -53 132 -103 158 -68 6 9
17 16 23 16 7 0 11 8 9 18 -3 14 -13 17 -52 14 -48 -2 -96 17 -96 38 0 26 49
64 91 69 30 4 44 11 44 21 0 21 -70 24 -117 4z"/>
<path d="M3635 4508 c-22 -73 -26 -91 -21 -103 11 -31 32 -13 48 42 9 31 14
61 12 65 -8 12 -34 9 -39 -4z"/>
<path d="M12980 4486 c-12 -37 -39 -65 -90 -93 -19 -11 -35 -26 -35 -34 0 -20
43 -13 77 11 19 14 36 18 56 14 26 -5 60 6 135 44 4 2 3 -8 -3 -22 -14 -38 4
-75 38 -76 9 0 11 9 7 34 -5 22 -1 44 9 63 13 26 13 33 1 49 -13 18 -16 18
-87 -19 -40 -20 -76 -37 -81 -37 -4 0 2 18 13 40 22 44 20 60 -10 60 -12 0
-22 -11 -30 -34z"/>
<path d="M17735 4511 c-53 -5 -70 -10 -70 -21 0 -22 264 -25 272 -3 3 8 4 15
2 17 -9 8 -140 12 -204 7z"/>
<path d="M16615 4352 c-15 -10 -39 -88 -31 -101 13 -21 25 -11 46 36 17 38 18
49 8 60 -7 7 -18 9 -23 5z"/>
<path d="M5720 4321 c-5 -11 -10 -74 -10 -141 0 -99 -3 -127 -19 -158 -31 -60
-94 -107 -128 -95 -20 7 -15 20 23 63 34 37 38 39 50 23 19 -27 38 -4 25 30
-12 31 -21 33 -59 13 -83 -43 -117 -143 -57 -166 34 -13 109 15 140 52 51 61
62 96 70 228 6 94 11 127 23 136 8 6 12 16 8 22 -11 19 -54 14 -66 -7z"/>
<path d="M8770 4315 c-6 -8 -9 -18 -6 -23 8 -13 -41 -244 -65 -306 -36 -96
-20 -100 61 -16 71 74 90 77 90 15 0 -38 3 -45 20 -45 17 0 20 7 20 50 0 36
-5 55 -20 70 -21 21 -37 19 -84 -13 l-29 -21 6 25 c26 113 49 249 44 262 -8
21 -21 22 -37 2z"/>
<path d="M13833 4320 c-23 -10 -37 -47 -48 -135 -10 -77 -14 -85 -41 -85 -44
0 -102 -37 -124 -80 -53 -105 10 -178 101 -117 56 37 88 110 109 249 13 88 23
126 36 135 9 7 14 19 11 28 -7 17 -13 18 -44 5z m-73 -286 c0 -26 -31 -78 -60
-101 -8 -7 -26 -13 -39 -13 -22 0 -23 3 -18 41 8 57 47 96 100 98 12 1 17 -7
17 -25z"/>
<path d="M14755 4301 c-76 -47 -149 -159 -158 -241 -2 -27 -12 -41 -43 -62
-21 -15 -52 -31 -69 -36 -16 -5 -30 -15 -30 -23 0 -23 57 -15 105 16 34 21 44
24 51 13 5 -7 9 -16 9 -20 0 -14 59 -38 95 -38 28 0 35 4 35 20 0 16 -7 20
-35 20 -36 0 -75 28 -75 54 0 8 10 23 23 33 35 27 93 111 128 187 25 54 29 69
19 81 -16 19 -19 19 -55 -4z m-15 -92 c-30 -59 -93 -144 -98 -131 -8 25 85
172 109 172 5 0 0 -18 -11 -41z"/>
<path d="M6275 4208 c-21 -46 -45 -89 -53 -95 -10 -9 -17 -36 -19 -83 -4 -69
-3 -72 30 -105 49 -49 142 -70 182 -42 25 19 8 28 -59 32 -91 5 -130 48 -109
118 8 31 11 32 76 38 37 3 73 11 78 16 22 22 -1 31 -61 26 -42 -4 -60 -2 -60
6 0 6 16 43 35 82 20 38 33 74 30 79 -15 24 -35 4 -70 -72z"/>
<path d="M10445 4256 c-19 -14 -19 -15 -2 -33 9 -11 17 -25 17 -32 0 -7 8 -11
18 -9 13 2 17 13 16 43 -1 44 -17 55 -49 31z"/>
<path d="M8495 4250 c-4 -6 -2 -17 4 -24 8 -10 4 -30 -20 -79 l-30 -66 -57 -6
c-31 -3 -64 -7 -72 -8 -8 -1 -15 -9 -15 -17 0 -12 13 -15 62 -14 l62 1 -6 -57
c-4 -42 -1 -64 11 -89 17 -32 66 -61 104 -61 23 0 56 35 47 49 -8 14 -42 14
-50 1 -7 -11 -33 -3 -57 18 -34 29 -15 152 23 152 26 0 37 31 17 43 -13 9 -12
18 14 74 17 35 27 70 24 78 -6 17 -52 20 -61 5z"/>
<path d="M15725 4230 c-4 -6 -8 -28 -10 -48 -2 -20 -6 -57 -10 -80 -8 -42 -7
-44 15 -40 19 2 26 13 36 52 7 26 10 55 7 63 -3 8 -6 24 -7 36 -1 23 -21 34
-31 17z"/>
<path d="M2687 4206 c-3 -8 0 -19 7 -25 18 -15 48 -3 44 18 -4 21 -44 27 -51
7z"/>
<path d="M1865 4201 c-6 -11 15 -61 26 -61 14 0 21 21 15 46 -6 24 -30 33 -41
15z"/>
<path d="M16590 4190 c-30 -11 -56 -20 -57 -20 -1 0 -9 -14 -18 -30 -13 -24
-13 -35 -4 -53 7 -12 16 -25 22 -28 6 -4 4 -15 -6 -29 -31 -44 26 -117 85
-108 35 5 32 26 -6 45 -20 9 -36 23 -36 30 0 7 21 23 48 36 33 15 47 28 47 42
0 17 -6 20 -35 18 -19 -2 -46 0 -59 3 -22 5 -22 6 -7 23 10 11 36 24 59 30 38
9 44 8 58 -11 18 -23 39 -17 39 11 0 52 -52 68 -130 41z"/>
<path d="M1387 4193 c-15 -14 -6 -34 20 -44 36 -14 51 9 22 34 -23 18 -32 21
-42 10z"/>
<path d="M6634 4175 c-7 -17 2 -45 14 -45 4 0 17 6 27 14 16 12 17 16 6 30
-17 20 -40 21 -47 1z"/>
<path d="M13998 4113 c-87 -94 -54 -182 71 -185 52 -1 71 6 71 27 0 10 -14 14
-49 13 -27 0 -59 3 -70 7 -20 6 -20 8 11 29 46 31 60 62 44 100 -16 41 -45 44
-78 9z m52 -36 c0 -2 -12 -14 -27 -28 -24 -22 -24 -13 0 19 8 11 27 17 27 9z"/>
<path d="M4090 4113 c-57 -35 -122 -140 -90 -144 29 -5 35 -3 35 11 1 29 26
60 65 80 61 31 69 28 68 -29 -2 -84 43 -110 116 -67 46 27 101 99 92 122 -9
23 -23 16 -46 -22 -13 -19 -40 -47 -62 -61 -47 -32 -63 -22 -59 38 4 79 -52
113 -119 72z"/>
<path d="M5410 4113 c-14 -10 -32 -16 -41 -15 -10 2 -20 -8 -26 -25 -6 -15
-29 -75 -53 -133 -63 -157 -86 -238 -73 -251 22 -22 40 -1 58 68 32 121 39
133 80 133 28 0 43 8 75 41 61 64 76 141 34 183 -19 20 -24 20 -54 -1z m40
-54 c0 -23 -55 -105 -77 -113 -22 -9 -27 22 -8 52 23 35 66 82 77 82 4 0 8 -9
8 -21z"/>
<path d="M14331 4117 c-42 -14 -89 -85 -90 -135 -1 -47 28 -39 46 12 22 65 38
76 110 76 66 0 78 10 41 34 -35 21 -70 25 -107 13z"/>
<path d="M5923 4079 c-45 -44 -54 -77 -28 -99 12 -10 24 -11 52 -2 40 12 53 5
53 -30 0 -21 38 -44 51 -31 6 6 4 20 -5 37 -10 20 -11 37 -5 67 13 55 -5 93
-46 97 -24 2 -39 -6 -72 -39z m87 -9 c0 -13 -79 -65 -87 -56 -10 10 48 66 69
66 10 0 18 -4 18 -10z"/>
<path d="M1590 4097 c-37 -19 -36 -43 4 -92 43 -52 46 -75 11 -75 -28 0 -65
35 -65 62 0 21 -28 24 -36 3 -3 -8 0 -31 6 -51 20 -58 109 -85 150 -44 29 29
25 71 -10 115 -35 44 -30 59 15 51 40 -8 57 10 30 31 -23 16 -72 17 -105 0z"/>
<path d="M4989 4053 c-23 -32 -65 -82 -92 -110 -38 -40 -48 -56 -40 -64 9 -9
22 -4 53 21 22 17 45 41 51 51 9 18 11 18 32 -7 20 -23 25 -24 52 -14 17 6 47
28 68 48 l38 37 -5 -27 c-3 -16 -8 -39 -11 -53 -4 -17 0 -27 14 -34 25 -14 31
-5 31 40 0 21 9 62 20 90 21 53 21 79 -1 79 -7 0 -49 -35 -93 -77 -68 -66 -81
-75 -84 -57 -1 11 6 41 17 66 16 39 17 48 6 58 -11 9 -22 -1 -56 -47z"/>
<path d="M9073 4090 c-60 -36 -91 -136 -55 -180 17 -22 28 -25 72 -23 65 3 90
11 90 28 0 21 -12 24 -64 14 -46 -8 -76 -1 -76 20 0 4 29 28 65 54 36 26 65
53 65 61 0 49 -41 60 -97 26z m47 -24 c0 -3 -15 -14 -32 -26 l-33 -22 28 26
c27 25 37 31 37 22z"/>
<path d="M13449 4079 c-29 -31 -63 -124 -57 -156 2 -10 11 -19 21 -21 12 -3
17 3 17 21 0 36 28 108 48 124 11 9 31 11 60 8 37 -5 42 -4 42 13 0 13 -11 22
-39 30 -54 17 -60 16 -92 -19z"/>
<path d="M10530 4065 c-29 -20 -47 -29 -41 -21 14 17 7 36 -14 36 -16 0 -65
-98 -65 -130 0 -40 30 -35 83 17 88 83 87 83 80 19 -9 -90 24 -106 129 -65 65
25 87 44 71 60 -9 9 -20 8 -45 -3 -18 -9 -50 -19 -70 -22 -43 -8 -45 -3 -27
70 9 34 9 47 -1 59 -19 23 -43 18 -100 -20z"/>
<path d="M13235 4091 c-3 -6 -15 -11 -26 -11 -45 0 -85 -83 -68 -142 10 -37
24 -48 62 -48 38 0 84 46 92 94 12 63 -35 147 -60 107z m3 -88 c13 -11 13 -15
-2 -38 -17 -26 -45 -34 -47 -12 -2 23 3 52 14 72 8 16 11 17 15 5 2 -8 11 -20
20 -27z"/>
<path d="M777 4083 c-12 -12 -7 -41 8 -46 24 -10 184 5 203 19 33 24 2 33 -88
24 -53 -6 -88 -6 -94 0 -12 12 -20 13 -29 3z"/>
<path d="M2374 4064 c-16 -9 -37 -23 -47 -32 -11 -9 -29 -16 -42 -14 -19 3
-23 -3 -28 -34 -11 -69 11 -72 85 -8 l53 45 3 -45 c3 -51 24 -69 70 -64 35 4
36 32 1 36 -24 3 -27 8 -33 62 -8 65 -20 76 -62 54z"/>
<path d="M9251 4062 c-6 -10 -23 -55 -39 -99 -38 -103 -29 -126 26 -68 20 22
49 56 63 75 26 33 27 34 22 9 -3 -15 0 -30 6 -33 12 -8 67 18 100 48 23 20 23
20 18 1 -19 -65 -18 -91 3 -118 25 -31 56 -35 101 -11 42 21 32 40 -18 36 -23
-2 -44 1 -47 7 -4 5 0 40 9 76 8 37 15 73 15 81 0 28 -46 14 -91 -27 l-44 -41
-3 36 c-4 48 -30 48 -72 -1 -27 -31 -31 -33 -25 -12 5 13 8 30 9 38 2 22 -22
24 -33 3z"/>
<path d="M11885 4065 c-46 -16 -83 -50 -101 -92 -20 -47 -18 -80 7 -94 32 -17
111 -6 148 20 l31 22 0 -24 c0 -24 27 -57 47 -57 19 0 25 34 9 45 -13 10 -13
19 0 81 8 38 12 75 9 82 -6 17 -34 15 -42 -3 -5 -14 -7 -13 -19 3 -19 27 -45
32 -89 17z m59 -56 c19 -39 9 -60 -38 -83 -63 -30 -94 -18 -76 28 7 20 81 86
96 86 1 0 10 -14 18 -31z"/>
<path d="M12226 4061 c-10 -11 -29 -21 -43 -23 -20 -2 -34 -19 -64 -71 -22
-38 -37 -73 -33 -78 11 -18 33 -8 55 24 29 42 101 117 112 117 6 0 7 -27 3
-64 -5 -52 -3 -67 10 -80 19 -20 44 -20 69 -3 23 18 10 40 -19 33 -21 -5 -22
-3 -22 70 1 56 -3 77 -14 84 -22 14 -35 12 -54 -9z"/>
<path d="M14978 4023 c-55 -55 -58 -57 -72 -38 -9 11 -13 28 -10 37 7 23 -30
43 -45 24 -9 -10 -7 -26 9 -66 l21 -52 -67 -70 c-61 -66 -114 -152 -114 -189
0 -15 18 -39 31 -39 3 0 16 27 28 60 18 49 41 80 119 163 129 136 185 204 177
217 -10 17 -18 12 -77 -47z"/>
<path d="M2021 4041 c-11 -15 -23 -46 -27 -69 -5 -35 -3 -44 19 -66 28 -28 42
-31 82 -16 51 20 52 97 0 153 -33 34 -49 34 -74 -2z m76 -95 c-2 -5 -11 -14
-20 -20 -26 -17 -39 4 -31 53 l7 41 23 -32 c14 -18 23 -37 21 -42z"/>
<path d="M3102 4040 c-45 -32 -89 -107 -79 -133 3 -9 18 -24 32 -33 25 -17 28
-16 70 4 23 11 46 18 49 15 8 -8 8 -172 0 -212 -5 -23 -13 -33 -33 -37 -115
-24 -146 -53 -146 -136 0 -55 3 -62 33 -89 42 -38 66 -37 107 4 31 31 48 73
69 170 5 18 13 27 27 27 29 0 81 29 76 43 -4 12 -23 13 -67 2 l-25 -6 -1 143
c-1 79 -3 170 -6 203 -4 58 -5 60 -34 63 -21 2 -43 -7 -72 -28z m57 -81 c-14
-29 -47 -45 -82 -40 -13 2 23 65 51 88 l27 23 6 -28 c3 -15 2 -34 -2 -43z m-9
-415 c-21 -78 -60 -125 -87 -108 -22 14 -35 60 -28 100 6 34 27 49 90 63 22 5
41 9 42 10 1 1 -7 -29 -17 -65z"/>
<path d="M2875 4042 c-54 -33 -109 -162 -70 -162 16 0 75 84 75 107 0 7 9 17
19 23 26 13 34 0 41 -65 3 -35 9 -50 20 -50 21 0 21 118 0 139 -26 24 -54 27
-85 8z"/>
<path d="M6817 4046 c-53 -19 -73 -40 -91 -94 -20 -58 -20 -74 0 -70 9 2 24
23 33 47 17 47 49 76 95 87 29 7 29 7 21 -27 -14 -60 -12 -103 6 -107 16 -3
18 2 36 117 4 26 1 38 -13 48 -22 16 -38 16 -87 -1z"/>
<path d="M2651 4033 c-22 -43 -39 -121 -28 -132 13 -13 37 4 37 28 0 9 7 35
15 59 15 42 13 62 -5 62 -5 0 -13 -8 -19 -17z"/>
<path d="M10327 4008 c-28 -76 -26 -128 4 -128 17 0 20 4 16 22 -3 12 3 46 13
76 11 30 17 59 14 63 -12 20 -32 6 -47 -33z"/>
<path d="M6573 3993 c-20 -49 -22 -98 -5 -98 15 0 55 103 47 122 -8 24 -26 13
-42 -24z"/>
<path d="M1315 4008 c-3 -7 -6 -47 -7 -88 -3 -62 0 -75 13 -78 14 -2 18 11 23
77 4 45 5 85 1 91 -9 14 -25 13 -30 -2z"/>
<path d="M1762 3973 c-19 -70 -20 -107 -2 -110 11 -3 20 14 33 56 22 77 22
101 -1 101 -12 0 -21 -14 -30 -47z"/>
<path d="M7062 4000 c-41 -25 -60 -63 -42 -85 16 -19 57 -19 94 0 15 8 29 15
31 15 7 0 -12 -251 -21 -282 -4 -14 -16 -18 -55 -18 -109 0 -157 -52 -146
-158 7 -68 29 -102 64 -102 40 0 135 101 157 167 16 50 18 51 64 58 87 13 196
75 173 98 -8 8 -20 7 -44 -5 -34 -18 -131 -48 -154 -48 -8 0 -11 5 -7 11 4 7
8 71 9 143 2 72 6 152 10 179 6 39 5 47 -9 47 -8 0 -23 -11 -31 -24 -9 -13
-31 -31 -50 -40 -38 -18 -45 -19 -45 -7 0 5 18 16 41 25 23 9 39 22 36 29 -6
20 -40 19 -75 -3z m24 -467 c-26 -51 -91 -121 -103 -110 -3 4 -8 31 -11 61 -6
72 16 96 88 96 l50 0 -24 -47z"/>
<path d="M13114 3798 c-32 -22 -58 -50 -76 -83 -28 -52 -58 -155 -58 -200 0
-14 -6 -27 -12 -29 -7 -2 -32 -9 -56 -15 -32 -9 -42 -17 -40 -29 4 -18 11 -19
67 -6 l34 7 -5 -139 c-5 -153 -21 -208 -65 -225 -33 -12 -30 -39 6 -39 36 0
77 40 92 89 6 20 13 102 16 184 l5 147 41 7 c49 7 84 38 67 58 -11 13 -39 10
-50 -5 -3 -4 -15 -10 -27 -14 -28 -9 -29 5 -8 87 30 115 90 202 122 175 9 -7
17 -7 28 2 21 17 19 37 -4 50 -26 13 -22 15 -77 -22z"/>
<path d="M5697 3814 c-4 -4 -7 -23 -7 -42 0 -19 -9 -66 -20 -103 l-21 -68 -55
-18 c-57 -18 -75 -36 -56 -55 8 -8 21 -6 47 6 20 10 39 15 42 13 2 -3 -4 -38
-16 -79 -20 -75 -16 -103 14 -78 8 7 15 18 15 25 0 7 9 43 20 79 l21 66 48 0
c52 0 62 5 54 26 -3 9 -20 14 -48 14 l-43 0 20 65 c26 89 17 181 -15 149z"/>
<path d="M14480 3750 c-23 -39 -46 -84 -51 -100 -7 -18 -19 -30 -32 -32 -16
-2 -22 -10 -22 -28 0 -16 5 -25 15 -24 13 1 15 -12 12 -71 -5 -85 10 -122 61
-154 42 -26 69 -27 84 -2 15 24 8 31 -33 31 -44 0 -64 37 -64 117 0 81 4 85
86 81 56 -2 69 0 69 12 0 11 -18 17 -65 24 -36 5 -66 10 -67 11 -6 4 34 103
55 139 22 37 23 66 3 66 -6 0 -29 -32 -51 -70z"/>
<path d="M10685 3787 c-81 -30 -95 -56 -67 -119 13 -30 38 -60 72 -87 77 -61
93 -84 92 -138 -2 -60 -19 -78 -66 -69 -33 6 -106 58 -106 75 0 4 9 17 20 29
49 52 -3 68 -54 16 -9 -8 -16 -28 -16 -43 0 -53 109 -131 183 -131 39 0 74 28
81 65 17 88 -21 167 -117 246 -19 16 -40 42 -45 58 -9 26 -8 32 12 44 42 28
106 42 127 29 22 -14 39 -8 39 13 0 19 -32 35 -67 34 -15 0 -55 -10 -88 -22z"/>
<path d="M12675 3780 c-8 -16 -23 -77 -32 -135 -13 -86 -19 -105 -33 -105 -26
0 -67 -46 -86 -96 -14 -37 -15 -48 -4 -74 24 -57 93 -50 123 12 8 18 18 67 22
108 10 114 33 247 45 270 12 23 7 50 -9 50 -6 0 -17 -13 -26 -30z m-52 -317
c-8 -52 -25 -87 -45 -91 -36 -7 -27 63 14 116 22 26 37 13 31 -25z"/>
<path d="M4728 3786 c-10 -10 -17 -48 -22 -116 -4 -55 -9 -107 -12 -113 -2 -7
-20 -13 -39 -13 -23 0 -44 -8 -61 -24 -61 -57 -85 -174 -42 -204 20 -14 24
-14 47 1 37 24 55 49 96 131 33 64 38 86 47 185 5 62 13 119 18 129 13 24 -13
44 -32 24z m-75 -335 c-65 -114 -90 -131 -79 -55 9 66 55 119 93 106 9 -3 5
-18 -14 -51z"/>
<path d="M6587 3773 c-2 -5 -5 -24 -5 -45 -1 -20 -24 -104 -52 -188 -55 -168
-64 -240 -30 -240 17 0 20 7 20 41 0 22 22 107 50 189 48 142 62 213 46 238
-8 14 -23 16 -29 5z"/>
<path d="M9993 3772 c-5 -4 -29 -43 -53 -87 -56 -104 -83 -145 -96 -145 -5 0
-19 -6 -29 -14 -15 -11 -17 -17 -7 -28 9 -11 4 -25 -24 -68 -34 -51 -41 -90
-18 -97 6 -2 33 35 59 82 49 86 80 115 125 115 18 0 20 -6 20 -69 0 -74 13
-125 31 -119 13 4 24 424 11 432 -4 2 -13 2 -19 -2z m-13 -152 c0 -47 -2 -50
-25 -50 -14 0 -25 2 -25 5 0 7 44 95 47 95 2 0 3 -22 3 -50z"/>
<path d="M6241 3747 c-6 -8 -9 -22 -5 -31 10 -27 -36 -192 -68 -243 -49 -77
-34 -135 38 -149 52 -10 104 4 136 36 23 24 28 37 28 79 0 43 -4 53 -25 67
-28 18 -59 12 -92 -19 -31 -27 -30 -13 3 102 25 89 29 161 8 168 -6 2 -16 -3
-23 -10z m89 -310 c0 -47 -11 -57 -69 -64 l-53 -6 15 29 c24 47 79 89 100 77
4 -2 7 -19 7 -36z"/>
<path d="M11873 3738 c-4 -7 -8 -25 -9 -40 -1 -14 -15 -68 -32 -120 -17 -51
-33 -113 -37 -138 -10 -68 21 -134 51 -109 9 8 10 18 2 40 -12 35 1 117 39
255 25 87 26 124 4 124 -5 0 -13 -6 -18 -12z"/>
<path d="M16451 3732 c-28 -22 -60 -167 -42 -185 17 -17 27 1 41 73 7 36 22
75 32 87 11 12 17 26 13 32 -9 15 -19 14 -44 -7z"/>
<path d="M10438 3733 c-1 -4 -2 -66 -2 -138 -1 -119 -3 -134 -25 -172 -38 -66
-44 -59 -55 67 -6 64 -24 99 -45 85 -6 -3 -25 -34 -42 -67 -17 -33 -32 -58
-34 -57 -2 2 -5 63 -7 134 -4 125 -5 130 -26 133 -22 3 -22 3 -22 -161 0 -132
3 -167 15 -177 25 -21 46 -7 79 52 43 77 46 79 46 20 0 -59 13 -100 35 -108
34 -14 61 5 91 63 28 56 29 63 28 193 0 119 -2 135 -17 138 -9 2 -18 0 -19 -5z"/>
<path d="M14961 3689 c-34 -37 -22 -56 24 -39 19 7 26 16 23 32 -4 30 -23 33
-47 7z"/>
<path d="M16833 3668 c-4 -7 -18 -34 -30 -60 -23 -50 -163 -203 -194 -213 -20
-7 -26 -30 -9 -40 14 -9 49 12 106 67 l51 48 1 -31 c1 -33 17 -59 37 -59 7 0
36 16 65 35 29 19 50 29 47 23 -8 -22 11 -58 31 -58 26 0 33 10 22 30 -9 17
17 81 59 146 15 22 9 54 -9 54 -11 0 -30 -18 -81 -81 -41 -51 -113 -104 -128
-95 -6 4 -2 24 11 54 56 128 68 165 57 179 -14 16 -26 17 -36 1z"/>
<path d="M17142 3640 c-27 -17 -32 -25 -26 -43 10 -33 32 -75 44 -82 14 -9 13
-48 -2 -63 -15 -15 -60 -16 -74 -2 -8 8 -15 6 -23 -4 -10 -12 -8 -19 8 -35 33
-33 74 -27 110 14 38 44 40 79 6 125 -14 19 -25 39 -25 46 0 16 34 27 59 19
24 -7 37 11 21 30 -17 21 -59 18 -98 -5z"/>
<path d="M4949 3629 c-13 -26 -1 -40 29 -33 24 7 28 24 10 42 -17 17 -26 15
-39 -9z"/>
<path d="M17428 3617 c-44 -39 -68 -84 -68 -131 0 -44 29 -66 87 -66 37 0 45
4 55 25 13 30 4 43 -20 29 -20 -11 -72 -7 -72 6 0 5 12 17 26 27 68 48 84 65
84 92 0 58 -38 66 -92 18z m42 -41 c0 -2 -7 -7 -16 -10 -8 -3 -12 -2 -9 4 6
10 25 14 25 6z"/>
<path d="M7925 3612 c-42 -26 -95 -89 -95 -112 0 -32 16 -24 73 35 29 30 59
55 65 55 21 0 13 -42 -18 -97 -55 -97 -33 -119 57 -58 29 19 55 35 58 35 3 0
5 -11 5 -25 0 -45 78 -62 118 -25 19 18 22 32 22 95 0 43 4 75 10 75 6 0 10 9
10 20 0 21 -16 26 -40 10 -11 -6 -16 -33 -20 -92 -5 -82 -5 -83 -32 -86 -25
-3 -28 0 -28 26 0 55 -32 61 -92 20 -31 -21 -34 -15 -13 22 18 31 19 92 3 108
-17 17 -48 15 -83 -6z"/>
<path d="M17755 3613 c-27 -8 -57 -18 -65 -23 -25 -12 -23 -56 5 -105 31 -52
29 -54 -60 -58 -45 -1 -60 -6 -60 -17 0 -26 46 -40 103 -31 92 14 113 59 62
131 -11 15 -20 32 -20 38 0 5 21 15 48 22 59 16 71 26 52 44 -13 11 -23 11
-65 -1z"/>
<path d="M3776 3587 c-27 -35 -65 -118 -72 -157 -14 -73 -38 -165 -65 -247
-31 -91 -31 -113 -3 -113 20 0 49 68 75 172 39 159 36 153 64 156 36 3 101 38
119 64 41 59 -5 158 -73 158 -11 0 -31 -15 -45 -33z m80 -31 c22 -35 14 -67
-25 -93 -39 -26 -81 -32 -62 -9 6 7 8 21 5 30 -7 18 39 96 56 96 5 0 17 -11
26 -24z"/>
<path d="M8745 3515 c-30 -47 -57 -85 -59 -85 -2 0 -16 32 -31 71 -27 69 -47
91 -65 73 -6 -6 -3 -21 6 -38 8 -16 25 -56 39 -89 l23 -59 -47 -71 c-61 -91
-103 -174 -99 -195 7 -35 34 -15 70 51 20 37 55 95 77 127 23 33 41 63 41 67
0 5 29 53 65 108 60 91 72 125 45 125 -5 0 -35 -38 -65 -85z"/>
<path d="M13862 3557 c-78 -71 -78 -71 -74 -28 4 44 -15 66 -49 56 -52 -17
-171 -168 -154 -195 11 -18 32 -10 43 15 6 14 16 25 21 25 5 0 24 20 42 44 44
62 58 65 56 13 -2 -37 1 -42 22 -45 14 -2 34 6 50 20 69 62 66 62 63 10 -3
-37 1 -52 18 -69 23 -25 45 -29 56 -11 4 7 -2 18 -14 26 -26 17 -28 47 -7 116
8 27 15 53 15 58 0 22 -46 4 -88 -35z"/>
<path d="M15422 3571 c-22 -16 -43 -35 -47 -41 -5 -8 -11 -8 -21 1 -23 19 -44
4 -38 -28 4 -21 0 -33 -15 -47 -25 -23 -27 -42 -4 -50 12 -5 34 11 79 59 l61
65 7 -32 c14 -70 85 -105 185 -93 58 7 107 29 115 52 9 22 -10 24 -75 7 -69
-18 -133 -13 -161 13 -13 12 -18 31 -18 70 0 63 -9 66 -68 24z"/>
<path d="M8366 3575 c-48 -36 -71 -106 -44 -133 17 -17 59 -15 85 3 21 15 23
14 37 -14 17 -32 44 -47 59 -32 6 6 2 20 -12 37 -12 16 -21 40 -20 54 2 29
-17 81 -34 92 -19 12 -50 9 -71 -7z m59 -42 c4 -12 -2 -25 -20 -40 -49 -43
-74 -20 -34 31 24 30 44 33 54 9z"/>
<path d="M13443 3570 c-45 -27 -56 -53 -57 -139 -1 -70 1 -76 19 -76 18 0 20
6 17 46 -6 85 45 154 110 146 31 -3 36 28 6 37 -39 10 -62 7 -95 -14z"/>
<path d="M4045 3573 c-11 -3 -25 -9 -31 -14 -18 -15 -77 -177 -71 -194 8 -18
26 -20 32 -2 49 141 68 167 120 167 24 0 35 5 35 14 0 8 -3 17 -7 19 -16 9
-59 14 -78 10z"/>
<path d="M6686 3547 c-19 -19 -44 -55 -56 -81 l-20 -47 20 -39 c13 -26 29 -42
46 -46 50 -13 205 53 212 89 5 24 -17 21 -69 -7 -59 -32 -116 -49 -136 -41
-13 4 -4 12 33 29 55 26 83 60 91 113 11 69 -61 86 -121 30z m84 -27 c0 -27
-49 -78 -82 -86 -23 -5 -26 -3 -21 14 2 11 18 36 35 56 33 40 68 48 68 16z"/>
<path d="M4231 3535 c-50 -46 -67 -85 -55 -133 12 -47 44 -65 104 -56 75 10
123 44 105 74 -4 7 -17 4 -38 -8 -42 -25 -94 -34 -118 -22 -24 13 -25 30 -1
30 27 0 112 78 112 104 0 55 -54 61 -109 11z m69 -11 c0 -8 -26 -29 -55 -46
l-20 -11 20 24 c29 35 55 50 55 33z"/>
<path d="M14077 3512 c-53 -54 -60 -86 -22 -104 20 -9 34 -8 67 5 23 9 42 16
42 14 6 -19 26 -42 37 -42 9 0 14 17 15 58 1 31 -1 59 -5 62 -4 2 -34 -9 -66
-25 -33 -16 -61 -27 -64 -25 -5 5 46 53 75 71 20 12 11 34 -14 34 -10 0 -39
-22 -65 -48z"/>
<path d="M11495 3538 c-41 -22 -85 -73 -91 -104 -8 -43 18 -92 54 -101 70 -18
197 6 197 37 0 10 -8 14 -25 11 -68 -9 -162 -4 -171 10 -15 24 -10 37 27 79
40 44 49 47 75 24 17 -15 39 -12 39 5 0 4 -9 17 -20 29 -23 24 -54 28 -85 10z"/>
<path d="M15080 3509 c-29 -40 -35 -57 -30 -89 5 -42 80 -53 125 -19 23 19 26
27 21 58 -4 20 -7 47 -9 61 -2 21 -8 25 -39 28 -33 3 -40 -1 -68 -39z m75 -43
c10 -31 -3 -46 -42 -46 -32 0 -34 12 -11 48 24 38 39 37 53 -2z"/>
<path d="M12258 3464 c-34 -42 -73 -80 -85 -85 -24 -9 -31 -33 -13 -44 14 -8
51 12 77 43 l23 27 0 -26 c0 -40 22 -54 57 -36 15 8 39 27 53 42 l25 26 11
-33 c6 -18 18 -34 26 -36 13 -2 16 6 15 45 -1 26 2 60 6 76 6 21 4 29 -9 34
-11 4 -36 -14 -80 -58 -72 -71 -84 -62 -39 27 52 102 18 101 -67 -2z"/>
<path d="M5185 3520 c-27 -10 -73 -77 -81 -117 -5 -27 -1 -37 25 -64 30 -30
34 -31 89 -25 70 8 112 24 112 42 0 20 -17 26 -40 14 -31 -17 -109 -15 -127 3
-14 14 -14 20 -3 49 21 53 40 70 71 63 31 -7 46 9 29 30 -14 16 -44 18 -75 5z"/>
<path d="M5976 3509 c-62 -17 -135 -114 -115 -151 13 -24 36 -23 73 5 56 42
60 43 52 13 -8 -31 8 -66 31 -66 11 0 14 7 10 28 -4 17 2 43 14 69 38 79 10
122 -65 102z m26 -42 c-6 -7 -32 -28 -59 -47 -35 -26 -43 -29 -32 -12 22 31
68 65 98 71 2 1 -1 -5 -7 -12z"/>
<path d="M11969 3493 c-63 -68 -75 -115 -39 -148 55 -50 204 37 186 109 -8 31
-42 55 -87 62 -28 5 -38 1 -60 -23z m102 -40 c24 -24 -41 -83 -92 -83 -29 0
-34 25 -10 63 17 29 26 34 56 33 19 -1 40 -7 46 -13z"/>
<path d="M14869 3493 c-6 -15 -12 -41 -13 -58 -1 -24 4 -31 21 -33 18 -3 22 2
23 25 0 15 1 41 3 57 3 39 -20 45 -34 9z"/>
<path d="M4876 3498 c-13 -38 -36 -128 -36 -137 0 -6 7 -11 15 -11 31 0 66
147 38 157 -7 3 -15 -1 -17 -9z"/>
<path d="M13220 3500 c-8 -5 -26 -11 -40 -14 -48 -10 -79 -116 -44 -150 19
-19 17 -19 57 -2 66 28 101 95 75 145 -15 28 -27 33 -48 21z m20 -54 c0 -23
-25 -58 -50 -71 -29 -15 -30 -15 -30 4 0 41 22 71 52 71 15 0 28 -2 28 -4z"/>
<path d="M2395 3341 c-3 -5 -19 -12 -35 -16 -16 -4 -39 -19 -51 -33 -29 -38
-22 -77 41 -214 29 -62 56 -126 61 -141 19 -64 -30 -103 -90 -72 -38 19 -54
55 -45 101 13 72 -23 82 -46 14 -29 -88 34 -173 131 -174 40 -1 53 4 75 25 44
45 37 100 -30 245 -68 146 -76 178 -48 193 18 10 19 8 14 -34 -8 -73 36 -101
77 -49 31 39 28 93 -7 132 -31 34 -37 37 -47 23z m22 -113 c-3 -7 -5 -2 -5 12
0 14 2 19 5 13 2 -7 2 -19 0 -25z"/>
<path d="M8935 3340 c-8 -13 3 -30 20 -30 14 0 27 24 18 34 -10 9 -31 7 -38
-4z"/>
<path d="M2005 3324 c-33 -8 -104 -14 -157 -14 -54 -1 -100 -4 -102 -8 -14
-23 15 -33 91 -33 l81 0 15 -37 c29 -66 47 -158 47 -237 0 -75 -22 -179 -40
-190 -18 -11 -80 24 -100 57 -16 25 -19 42 -14 73 3 22 10 45 15 51 6 7 4 16
-4 23 -19 15 -41 -11 -58 -66 -11 -37 -10 -48 6 -84 23 -49 63 -85 115 -100
57 -17 82 3 110 85 17 53 21 82 17 148 -4 85 -29 203 -53 249 l-13 26 83 13
c46 7 95 10 110 6 19 -5 28 -2 32 9 17 44 -59 57 -181 29z"/>
<path d="M9113 3283 c-44 -104 -72 -370 -42 -389 7 -4 31 14 59 46 26 29 49
49 52 44 3 -5 9 -27 13 -49 9 -52 22 -75 42 -75 12 0 14 7 9 28 -3 15 -10 49
-16 76 -6 27 -15 55 -21 63 -17 20 -50 16 -77 -9 l-24 -23 5 90 c6 91 26 174
47 200 6 8 9 19 5 25 -13 21 -37 9 -52 -27z"/>
<path d="M9816 3308 c-14 -45 -16 -87 -10 -235 6 -130 10 -166 22 -170 9 -4
34 16 67 53 l53 59 7 -40 c11 -65 15 -75 41 -91 32 -21 97 -11 92 14 -3 12
-12 16 -34 14 -30 -3 -32 0 -56 65 -32 86 -53 93 -108 35 l-38 -40 -5 131 c-3
73 -5 150 -4 171 2 38 -18 63 -27 34z"/>
<path d="M3217 3278 c-2 -7 16 -89 40 -181 23 -93 43 -177 43 -187 0 -24 -20
-36 -31 -19 -4 8 -27 37 -51 66 -24 28 -65 94 -93 145 -79 147 -102 132 -115
-80 -5 -75 -13 -157 -18 -182 -6 -25 -8 -48 -6 -52 11 -18 34 -6 39 20 4 15
11 47 18 72 6 25 14 86 17 135 l5 90 35 -65 c42 -79 156 -200 188 -200 33 0
62 35 62 73 0 18 -11 71 -24 117 -33 117 -50 191 -48 215 0 10 -4 25 -10 32
-13 17 -45 17 -51 1z"/>
<path d="M11928 3243 c-18 -41 -20 -60 -15 -148 l6 -101 -35 4 c-64 8 -99 -58
-75 -139 18 -61 79 -80 118 -36 43 47 46 62 39 221 -8 154 -4 186 19 186 19 0
27 17 20 40 -4 13 -15 20 -31 20 -20 0 -29 -9 -46 -47z m-14 -314 c17 -48 -11
-100 -43 -80 -18 12 -26 78 -11 96 18 22 43 15 54 -16z"/>
<path d="M16335 3280 c-4 -6 -2 -17 4 -24 8 -10 5 -42 -14 -122 -37 -155 -57
-224 -65 -224 -9 0 -40 107 -40 136 0 11 -7 29 -15 40 -15 19 -16 18 -38 -9
-13 -15 -31 -49 -40 -75 -10 -26 -27 -60 -38 -77 l-21 -30 8 100 c13 168 11
250 -6 250 -12 0 -17 -22 -24 -100 -15 -169 -13 -294 4 -305 20 -13 72 47 101
118 12 28 25 52 28 52 4 0 13 -23 19 -51 12 -51 45 -109 63 -109 14 0 47 60
63 115 41 142 67 280 57 302 -11 24 -35 31 -46 13z"/>
<path d="M13486 3262 c-3 -5 1 -26 9 -48 19 -53 18 -133 -1 -180 -9 -22 -16
-52 -16 -68 0 -16 -4 -38 -9 -48 -14 -25 2 -51 62 -98 79 -62 139 -51 155 28
11 54 -5 120 -38 157 -33 38 -61 44 -96 19 -21 -15 -22 -14 -12 11 23 62 -2
235 -35 235 -8 0 -16 -4 -19 -8z m138 -284 c23 -38 28 -65 16 -108 -13 -50
-31 -51 -84 -6 l-39 34 26 28 c19 20 23 31 16 40 -7 9 -5 15 8 23 27 16 41 13
57 -11z"/>
<path d="M2675 3250 c-61 -25 -114 -132 -122 -245 -4 -60 -1 -77 19 -115 43
-84 127 -113 206 -70 104 55 122 107 81 229 -16 48 -34 76 -74 116 -29 29 -56
62 -60 74 -7 22 -18 25 -50 11z m51 -97 c79 -59 134 -187 104 -242 -28 -54
-129 -79 -178 -45 -33 23 -52 67 -52 119 0 51 33 161 57 187 17 19 21 18 69
-19z"/>
<path d="M15096 3248 c-8 -26 -21 -184 -21 -265 0 -65 4 -86 17 -100 26 -26
47 -3 28 31 -10 19 -11 47 -4 118 12 139 11 221 -3 225 -7 3 -15 -1 -17 -9z"/>
<path d="M5473 3174 c-30 -63 -37 -91 -41 -158 -4 -66 -9 -86 -28 -109 -28
-34 -30 -45 -7 -54 11 -4 21 1 30 14 14 21 15 21 46 -14 24 -25 42 -35 66 -36
30 -2 35 2 42 28 10 35 -3 54 -25 35 -21 -17 -42 -7 -60 29 -15 28 -14 33 21
107 32 68 37 88 38 154 0 70 -1 75 -23 78 -19 3 -28 -8 -59 -74z m32 -82 c-17
-55 -30 -71 -19 -24 8 37 26 83 30 79 2 -2 -3 -27 -11 -55z"/>
<path d="M6185 3238 c-11 -33 -45 -127 -62 -170 -15 -40 -22 -47 -48 -50 -37
-4 -41 -32 -5 -36 23 -3 25 -7 22 -38 -5 -43 19 -81 63 -100 44 -18 76 -18
101 1 24 18 5 34 -32 27 -35 -6 -83 17 -90 44 -14 54 15 74 110 74 49 0 71 12
63 34 -4 11 -15 14 -34 11 -61 -9 -123 -14 -123 -10 0 2 13 38 30 80 33 84 42
136 23 142 -7 3 -15 -1 -18 -9z"/>
<path d="M7739 3243 c-75 -4 -77 -5 -82 -32 -3 -15 -1 -45 4 -67 12 -51 12
-204 0 -329 -16 -153 -14 -270 4 -285 11 -9 39 -10 112 -4 88 8 98 11 98 29 0
19 -6 20 -89 17 l-89 -2 7 132 c4 73 11 174 15 223 6 88 -1 213 -14 248 -6 15
-1 17 43 17 66 0 102 14 102 40 0 13 -6 19 -17 18 -10 -1 -52 -4 -94 -5z"/>
<path d="M15838 3233 c-18 -22 -53 -106 -63 -151 -4 -18 -16 -42 -28 -52 -15
-15 -18 -23 -10 -31 13 -13 -11 -76 -52 -136 -34 -51 -33 -75 3 -71 19 2 27 9
28 23 1 11 16 47 33 80 17 33 31 66 31 74 0 10 10 12 41 8 47 -6 54 -14 63
-68 6 -40 22 -57 37 -42 6 6 6 26 0 54 -8 35 -7 45 5 52 18 11 18 46 -1 53
-12 5 -15 25 -15 93 0 47 -3 96 -6 109 -8 27 -44 30 -66 5z m32 -134 l0 -91
-32 7 c-18 4 -35 9 -37 11 -9 8 54 164 66 164 2 0 3 -41 3 -91z"/>
<path d="M16647 3230 c-59 -22 -77 -37 -92 -73 -26 -62 7 -117 96 -163 26 -13
54 -30 63 -39 24 -24 20 -62 -10 -92 -22 -22 -31 -25 -70 -19 -45 6 -118 37
-129 56 -3 5 -1 19 5 31 18 32 -2 46 -34 25 -78 -51 46 -166 178 -166 97 0
164 127 102 193 -13 14 -46 37 -72 50 -51 26 -76 49 -88 80 -15 44 112 115
156 88 17 -11 23 -10 37 4 15 15 15 17 -3 31 -26 19 -80 16 -139 -6z"/>
<path d="M4146 3169 c-9 -29 -16 -61 -16 -71 0 -15 -8 -18 -46 -18 -38 0 -45
-3 -42 -17 2 -12 15 -20 38 -23 l35 -5 -3 -52 c-8 -111 33 -163 129 -163 69 0
89 7 89 29 0 14 -11 16 -65 16 -76 0 -94 13 -102 73 -10 72 0 88 59 98 37 6
53 14 53 24 0 12 -11 14 -51 12 l-51 -2 8 52 c5 29 10 62 11 73 2 12 -4 21
-14 23 -13 2 -21 -9 -32 -49z"/>
<path d="M9397 3203 c-3 -5 3 -20 13 -33 14 -19 22 -22 30 -14 18 18 8 49 -17
52 -11 2 -23 -1 -26 -5z"/>
<path d="M14957 3194 c-4 -4 -7 -23 -7 -43 0 -20 -9 -82 -20 -139 -26 -135
-26 -172 0 -172 16 0 20 7 20 34 0 19 9 81 21 140 11 58 19 122 17 142 -3 36
-17 52 -31 38z"/>
<path d="M13255 3151 c-11 -18 5 -31 36 -31 24 0 30 4 27 18 -4 19 -52 29 -63
13z"/>
<path d="M6534 3115 c-8 -21 3 -45 20 -45 20 0 29 16 21 40 -7 23 -33 27 -41
5z"/>
<path d="M12485 3083 c-97 -29 -104 -60 -29 -126 24 -21 42 -43 38 -48 -10
-16 -41 -10 -55 12 -12 17 -16 18 -33 6 -12 -9 -16 -20 -12 -34 12 -39 135
-37 150 2 3 8 -15 39 -40 70 -25 30 -42 59 -39 65 8 13 73 30 90 24 19 -8 29
14 15 31 -15 18 -21 18 -85 -2z"/>
<path d="M7950 3073 c-32 -11 -37 -30 -27 -105 5 -40 7 -185 4 -321 -4 -243
-4 -248 17 -262 30 -21 169 -21 190 1 27 26 9 34 -77 34 l-82 0 0 306 0 306
64 -4 c69 -3 92 12 55 39 -17 13 -113 17 -144 6z"/>
<path d="M8732 3070 c-32 -13 -124 -108 -119 -123 2 -6 16 -13 30 -15 21 -3
29 2 36 21 5 14 23 34 40 46 l30 22 -15 -48 c-37 -113 -38 -121 -25 -137 21
-25 41 -19 83 26 l39 42 23 -28 c18 -23 28 -28 48 -23 30 8 58 65 57 119 -1
20 2 50 6 68 7 30 6 31 -22 28 -28 -3 -28 -4 -28 -73 -1 -38 -6 -78 -11 -89
-10 -17 -13 -16 -33 13 -12 17 -26 31 -31 31 -5 0 -26 -15 -47 -32 -20 -18
-34 -26 -31 -18 55 153 47 201 -30 170z"/>
<path d="M13873 3053 c-39 -18 -54 -35 -87 -95 -16 -28 -22 -49 -16 -53 6 -3
10 -19 10 -35 0 -20 12 -42 40 -71 37 -39 42 -41 82 -36 56 7 128 79 128 126
0 38 -26 43 -39 8 -12 -31 -77 -87 -101 -87 -19 0 -70 57 -70 77 0 6 10 13 23
17 29 7 96 73 103 102 12 45 -26 70 -73 47z m17 -62 c-22 -32 -58 -57 -67 -47
-3 3 13 24 36 47 46 47 65 46 31 0z"/>
<path d="M4460 3018 c-50 -83 1 -169 99 -168 32 1 61 21 61 44 0 18 -35 23
-45 6 -8 -13 -41 -13 -65 0 -17 9 -16 12 12 42 23 24 28 37 23 57 -15 60 -55
68 -85 19z m50 -27 c0 -5 -7 -14 -15 -21 -12 -10 -15 -10 -15 2 0 8 3 18 7 21
9 10 23 9 23 -2z"/>
<path d="M5197 3039 c-9 -6 -33 -33 -52 -62 -28 -41 -35 -47 -33 -27 3 21 -1
25 -22 25 -25 0 -25 -1 -27 -100 -2 -55 -10 -142 -19 -193 -11 -65 -13 -97 -6
-104 18 -18 42 -1 42 29 0 15 10 69 22 119 l21 92 39 5 c47 6 64 19 90 71 15
30 19 50 14 84 -9 67 -29 84 -69 61z m33 -87 c0 -23 -49 -82 -69 -82 -18 0 -3
61 25 97 28 37 44 32 44 -15z"/>
<path d="M9548 3035 c-73 -40 -63 -136 18 -175 36 -18 48 -20 83 -10 44 12 59
26 43 42 -7 7 -21 6 -45 -1 -29 -10 -41 -9 -65 3 -66 34 -52 113 18 108 16 -1
32 3 35 9 18 27 -48 45 -87 24z"/>
<path d="M10611 3031 c-10 -10 -26 -39 -36 -63 -15 -42 -15 -48 -1 -76 16 -31
86 -72 123 -72 21 0 53 29 53 48 0 8 -16 12 -43 11 -43 -2 -82 15 -92 39 -3 7
4 31 16 54 19 37 23 40 54 34 40 -8 57 10 30 31 -27 19 -82 16 -104 -6z"/>
<path d="M11099 3048 c0 -2 -1 -29 -2 -62 -2 -62 15 -87 35 -51 20 34 48 55
77 55 33 0 41 -14 41 -73 0 -50 12 -72 34 -64 12 5 16 20 16 61 0 44 -5 60
-26 85 -21 26 -33 31 -68 31 -23 0 -47 -5 -53 -11 -8 -8 -14 -5 -22 10 -10 17
-29 28 -32 19z"/>
<path d="M12144 3031 c-64 -39 -86 -150 -39 -196 13 -14 34 -25 46 -25 33 0
92 20 120 40 19 15 22 21 11 32 -10 10 -18 9 -40 -4 -101 -58 -172 -9 -75 52
42 27 72 60 73 82 0 13 -31 38 -48 38 -9 0 -31 -9 -48 -19z m27 -52 c-35 -28
-51 -22 -17 7 15 14 31 22 35 19 3 -4 -5 -15 -18 -26z"/>
<path d="M4707 3033 c-4 -3 -4 -28 -1 -54 4 -27 1 -62 -6 -84 -9 -27 -9 -40
-1 -48 17 -17 43 3 67 53 20 42 20 42 35 20 20 -31 64 -20 87 20 9 17 20 30
24 30 3 0 21 -18 38 -40 31 -39 53 -49 65 -30 7 11 -72 115 -95 125 -15 6 -20
1 -67 -61 l-21 -29 -7 42 c-8 48 -28 61 -52 33 -22 -26 -31 -25 -35 2 -3 22
-19 33 -31 21z"/>
<path d="M12692 3006 c-104 -118 -28 -228 118 -170 37 15 51 36 32 48 -5 3
-28 -2 -53 -11 -49 -18 -96 -12 -106 13 -3 8 6 36 19 62 19 36 31 48 54 52 40
7 38 34 -2 38 -25 2 -37 -4 -62 -32z"/>
<path d="M13003 3010 c-48 -47 -56 -115 -19 -165 11 -16 17 -17 27 -8 9 9 9
18 0 42 -23 54 11 127 56 119 12 -2 18 3 18 17 0 34 -45 31 -82 -5z"/>
<path d="M9356 3018 c-13 -39 -12 -119 1 -130 24 -19 34 5 31 72 -2 40 -8 65
-15 68 -7 2 -15 -2 -17 -10z"/>
<path d="M5772 3004 c-34 -24 -82 -94 -82 -119 0 -27 29 -55 59 -55 24 0 96
34 106 50 3 5 14 14 25 20 15 8 22 4 39 -25 19 -34 44 -45 55 -26 3 5 -4 21
-15 35 -16 20 -20 36 -16 60 3 18 1 39 -3 47 -7 11 -14 9 -35 -11 l-25 -24
-33 32 c-38 37 -44 38 -75 16z m68 -74 c0 -8 -74 -50 -89 -50 -18 0 -13 13 20
53 30 36 32 37 50 21 11 -9 19 -20 19 -24z"/>
<path d="M10887 3007 c-10 -6 -20 -28 -23 -49 -5 -30 -3 -38 14 -47 23 -12 64
-1 78 21 6 9 10 2 14 -21 4 -30 32 -63 43 -51 10 10 -6 150 -16 150 -6 0 -22
-10 -35 -22 -14 -13 -22 -17 -18 -10 9 14 -10 42 -28 42 -7 0 -20 -6 -29 -13z"/>
<path d="M6662 2988 c-23 -26 -47 -109 -38 -134 3 -9 15 -14 28 -12 20 3 23 8
20 41 -3 39 18 87 38 87 27 0 50 -41 50 -90 0 -36 4 -50 14 -50 17 0 26 22 26
66 0 50 -24 90 -61 103 -44 15 -53 14 -77 -11z"/>
<path d="M6471 2981 c-20 -13 -28 -126 -11 -146 20 -25 35 -1 36 58 1 29 3 61
5 71 5 22 -10 30 -30 17z"/>
<path d="M7048 2971 c-13 -18 -18 -19 -47 -8 -28 10 -37 9 -69 -9 -49 -29 -77
-76 -62 -103 14 -27 37 -26 105 3 l55 25 0 -94 0 -93 -62 -7 c-80 -9 -125 -30
-149 -69 -22 -35 -25 -100 -6 -136 18 -35 74 -70 114 -70 82 0 125 57 138 182
6 66 7 66 40 72 52 10 105 35 112 52 11 30 -12 34 -61 9 -87 -44 -88 -43 -83
88 3 61 7 125 9 141 4 35 -15 45 -34 17z m-50 -50 c9 -5 -1 -14 -35 -29 -57
-24 -68 -19 -30 14 30 25 44 29 65 15z m26 -333 c-3 -35 -14 -76 -23 -93 -45
-79 -161 -45 -161 46 0 70 49 103 163 108 l28 1 -7 -62z"/>
<path d="M13235 2980 c-11 -17 4 -97 20 -110 26 -22 50 20 26 46 -5 5 -11 22
-13 38 -3 31 -21 45 -33 26z"/>
<path d="M14612 2940 c-21 -13 -41 -38 -54 -67 -17 -39 -19 -51 -9 -84 14 -46
39 -56 85 -34 34 16 36 16 62 -4 28 -22 69 -27 93 -12 21 13 4 31 -30 31 -16
0 -30 3 -30 8 -1 4 -3 40 -5 80 -1 40 -8 80 -15 88 -16 20 -58 17 -97 -6z m68
-45 c0 -16 -6 -25 -15 -25 -8 0 -15 -9 -15 -21 0 -45 -42 -80 -56 -46 -11 31
42 117 73 117 7 0 13 -11 13 -25z"/>
<path d="M17061 2890 c-19 -5 -43 -19 -53 -32 -23 -30 -70 -153 -98 -257 l-22
-81 -55 0 c-50 0 -57 -3 -100 -43 -40 -38 -46 -49 -47 -87 -1 -35 4 -46 25
-62 35 -27 92 -27 126 -2 36 27 65 85 103 209 69 224 103 305 125 305 24 0 65
26 63 40 -4 18 -22 21 -67 10z m-191 -415 c0 -22 -55 -108 -73 -114 -27 -10
-61 1 -65 21 -4 19 44 77 72 88 24 10 66 13 66 5z"/>
<path d="M16025 2734 c-60 -32 -107 -88 -151 -179 -23 -49 -46 -103 -49 -118
-5 -17 -24 -39 -51 -58 -24 -16 -44 -34 -44 -39 0 -19 22 -21 47 -4 18 11 28
13 31 6 2 -7 12 -22 22 -34 15 -19 28 -23 72 -23 74 0 110 12 106 33 -3 14
-13 16 -55 14 -69 -5 -93 4 -93 32 0 16 13 33 38 51 84 63 125 111 168 200 25
50 43 99 42 110 -4 26 -43 30 -83 9z m-14 -121 c-34 -69 -127 -175 -115 -133
14 53 64 138 99 169 21 18 39 30 42 28 2 -3 -9 -32 -26 -64z"/>
<path d="M3436 2731 c-6 -9 -21 -107 -31 -204 l-7 -59 -33 6 c-21 4 -36 2 -41
-5 -9 -15 23 -39 53 -39 20 0 23 -5 23 -35 0 -56 24 -103 57 -111 40 -11 64
-7 82 10 20 21 1 42 -25 28 -40 -20 -74 12 -74 70 l0 38 43 0 c68 0 117 17
117 42 0 17 -4 19 -22 13 -13 -4 -49 -9 -81 -12 l-58 -5 6 63 c4 35 11 88 16
118 5 30 9 63 9 73 0 18 -24 25 -34 9z"/>
<path d="M12462 2709 c-37 -24 -97 -138 -108 -205 -3 -23 -9 -46 -13 -52 -4
-6 -39 -18 -79 -27 -82 -17 -142 -40 -142 -53 0 -5 6 -15 14 -21 12 -10 20 -9
41 5 24 16 146 47 154 39 8 -9 -22 -144 -43 -190 -24 -51 -59 -95 -76 -95 -6
0 -10 -6 -10 -14 0 -50 95 6 128 76 22 44 52 169 52 214 0 17 6 24 19 24 28 0
37 21 16 36 -21 15 -15 61 17 135 30 72 108 131 122 93 7 -19 25 -18 33 1 9
24 -26 55 -61 55 -17 0 -46 -10 -64 -21z"/>
<path d="M15385 2698 c-17 -51 -50 -129 -96 -228 -52 -112 -68 -188 -43 -197
6 -2 33 31 60 72 82 129 84 130 130 115 21 -7 45 -17 52 -23 14 -11 16 -73 3
-82 -5 -3 -15 -22 -22 -42 -10 -31 -9 -38 5 -49 16 -11 15 -15 -8 -49 -33 -47
-45 -91 -53 -185 -6 -74 -6 -75 -33 -76 -40 -1 -120 -44 -143 -76 -17 -23 -18
-31 -8 -56 32 -77 163 -65 206 18 10 18 20 76 25 140 11 138 25 187 61 221 34
32 40 78 10 86 -19 5 -19 5 0 36 11 19 19 50 19 78 0 51 -23 81 -78 100 l-33
11 79 52 c44 28 94 59 112 69 31 16 32 19 17 34 -13 14 -20 14 -47 3 -46 -19
-137 -80 -194 -129 -26 -23 -50 -40 -52 -38 -3 2 9 33 26 68 32 70 42 129 23
136 -7 3 -15 -1 -18 -9z m15 -809 c0 -30 -44 -69 -78 -69 -70 0 -54 57 23 84
46 15 55 13 55 -15z"/>
<path d="M2896 2607 c5 -42 0 -74 -25 -160 -17 -59 -31 -112 -31 -117 0 -21
26 -8 67 32 l42 41 20 -45 c21 -50 37 -66 52 -51 7 7 0 31 -18 69 -26 54 -31
59 -60 59 -18 0 -33 0 -33 0 0 0 7 25 15 55 25 93 16 170 -20 170 -12 0 -14
-10 -9 -53z"/>
<path d="M2693 2628 c-6 -7 -21 -41 -33 -76 -23 -62 -23 -62 -58 -60 -45 4
-54 -19 -14 -33 l30 -10 -5 -72 c-5 -62 -3 -74 13 -89 32 -28 110 -27 145 1
35 29 15 44 -36 27 -62 -22 -79 -8 -72 60 3 29 8 58 12 64 3 5 24 10 46 10 33
0 40 3 37 18 -2 11 -14 18 -36 20 -27 3 -32 7 -27 20 38 93 40 102 24 117 -13
13 -18 14 -26 3z"/>
<path d="M8889 2596 c-24 -25 -48 -42 -55 -39 -8 3 -17 -3 -20 -13 -4 -11 -19
-48 -35 -83 -57 -126 -27 -138 48 -18 55 85 97 137 113 137 13 0 15 10 -21
-115 -36 -129 -33 -158 14 -153 24 2 32 8 32 23 0 11 -6 19 -12 18 -17 -4 -17
0 11 87 33 102 42 166 26 185 -23 27 -58 17 -101 -29z"/>
<path d="M10295 2631 c-32 -14 -65 -50 -65 -72 0 -11 9 -37 20 -59 11 -22 20
-49 20 -61 0 -19 -4 -21 -32 -14 -56 12 -63 11 -66 -11 -2 -17 5 -24 29 -33
48 -17 76 -13 93 11 22 31 20 69 -6 123 l-23 46 25 19 c14 11 39 20 55 22 19
2 30 9 30 18 0 17 -49 24 -80 11z"/>
<path d="M11050 2624 c-19 -8 -45 -25 -57 -36 -46 -43 -70 -199 -32 -206 13
-2 17 8 21 57 3 45 11 68 31 95 33 43 97 67 128 48 37 -23 54 11 21 41 -23 21
-66 21 -112 1z"/>
<path d="M10495 2618 c-40 -23 -45 -55 -20 -126 11 -31 12 -48 5 -62 -14 -25
-30 -26 -37 -1 -8 31 -32 34 -45 5 -15 -32 -3 -54 36 -67 67 -22 111 49 81
133 -26 75 -23 81 50 92 11 2 20 10 20 18 0 19 -62 25 -90 8z"/>
<path d="M9939 2578 c-39 -42 -57 -77 -65 -124 -11 -74 60 -121 142 -94 38 13
45 48 9 42 -53 -9 -97 -6 -105 8 -14 22 -12 40 4 40 8 0 32 20 54 45 40 46 45
70 19 103 -15 19 -25 15 -58 -20z"/>
<path d="M9225 2590 c-52 -20 -115 -122 -118 -190 -3 -66 20 -90 85 -90 54 0
148 35 148 55 0 23 -12 24 -61 4 -139 -54 -188 15 -70 98 36 25 57 48 62 66
13 48 -6 72 -46 57z m-5 -65 c-7 -9 -15 -13 -17 -11 -7 7 7 26 19 26 6 0 6 -6
-2 -15z"/>
<path d="M9601 2573 c-49 -26 -71 -61 -78 -125 -5 -51 -3 -59 20 -82 22 -22
35 -26 87 -26 65 0 100 12 100 35 0 11 -15 12 -73 8 -88 -7 -103 4 -94 68 6
47 28 75 75 95 19 8 32 19 30 26 -7 20 -30 20 -67 1z"/>
<path d="M10724 2536 c-52 -52 -59 -91 -18 -106 18 -7 33 -6 54 5 37 19 40 19
40 -3 0 -27 29 -62 51 -62 24 0 24 17 2 43 -13 13 -18 36 -18 77 -1 100 -41
117 -111 46z m79 -9 c5 -14 -72 -72 -82 -62 -5 6 59 75 70 75 4 0 9 -6 12 -13z"/>
<path d="M14480 2533 c-34 -13 -110 -78 -110 -95 0 -26 16 -22 67 17 76 58 82
47 23 -44 -69 -106 -51 -134 42 -66 l63 46 8 -39 c16 -83 69 -91 135 -22 53
54 82 160 48 173 -17 7 -36 -11 -36 -33 0 -36 -33 -111 -58 -131 -25 -19 -27
-19 -39 -3 -7 10 -13 27 -13 39 0 12 -6 30 -14 41 -13 16 -18 17 -45 7 l-31
-11 15 28 c21 40 19 66 -7 84 -24 17 -25 17 -48 9z"/>
<path d="M13617 2489 c-48 -55 -60 -91 -41 -118 19 -27 70 -27 104 -1 31 24
36 25 43 1 8 -31 52 -54 87 -46 38 8 38 39 1 41 -30 2 -51 29 -51 65 0 15 -6
34 -12 41 -7 8 -18 23 -24 33 -6 12 -24 21 -41 23 -25 3 -37 -4 -66 -39z m48
-66 c-26 -23 -45 -29 -45 -15 0 4 15 25 33 47 31 38 32 39 35 15 3 -17 -4 -31
-23 -47z"/>
<path d="M4556 2499 c-33 -26 -56 -69 -56 -107 0 -60 51 -85 112 -54 l37 19 3
-31 c2 -23 8 -31 22 -31 16 0 19 9 22 65 1 36 4 72 6 81 4 21 -67 79 -97 79
-12 0 -34 -9 -49 -21z m78 -42 c18 -13 17 -15 -10 -45 -36 -38 -68 -46 -72
-16 -3 23 33 74 52 74 7 0 20 -6 30 -13z"/>
<path d="M12742 2513 c-28 -11 -91 -180 -76 -205 15 -23 54 15 54 53 0 6 10
33 21 60 23 52 37 59 83 38 14 -7 32 -9 41 -6 13 5 13 10 3 26 -21 34 -84 51
-126 34z"/>
<path d="M15113 2508 c-49 -11 -103 -65 -103 -104 0 -29 16 -64 30 -64 12 0
43 67 36 78 -9 14 25 39 64 46 19 3 42 11 50 16 13 9 12 12 -4 25 -11 8 -22
15 -25 14 -3 -1 -25 -5 -48 -11z"/>
<path d="M11324 2439 l-58 -71 -28 56 c-16 31 -33 56 -38 56 -23 0 -20 -31 9
-88 l30 -60 -75 -99 c-42 -54 -85 -115 -95 -136 -11 -21 -31 -42 -44 -47 -23
-9 -34 -38 -20 -52 13 -12 53 6 68 30 9 15 25 38 36 52 64 80 261 341 261 346
0 3 11 20 25 36 25 30 25 48 1 48 -8 0 -40 -32 -72 -71z"/>
<path d="M14935 2500 c-4 -6 -16 -10 -28 -10 -30 0 -69 -28 -106 -74 -57 -71
-30 -121 64 -121 43 0 59 5 79 24 23 22 25 30 23 102 -1 51 -6 80 -14 83 -7 3
-15 1 -18 -4z m-21 -72 c3 -13 6 -33 6 -45 0 -35 -55 -56 -89 -34 -17 11 0 47
37 78 34 28 38 28 46 1z"/>
<path d="M16142 2460 c-55 -53 -75 -92 -62 -124 12 -33 39 -46 92 -46 86 0
128 45 109 115 -14 51 -39 81 -72 89 -22 5 -34 -1 -67 -34z m82 -44 c9 -19 16
-39 16 -45 0 -33 -112 -42 -118 -8 -4 18 57 87 76 87 5 0 17 -15 26 -34z"/>
<path d="M5133 2483 c-12 -2 -38 -22 -57 -44 -45 -49 -48 -93 -11 -138 37 -43
82 -55 134 -37 60 20 151 86 151 108 0 33 -27 30 -77 -8 -85 -65 -135 -75
-171 -31 -10 12 -6 15 27 21 49 8 101 49 101 81 0 45 -32 61 -97 48z m47 -57
c0 -14 -67 -43 -76 -33 -7 7 46 47 62 47 8 0 14 -6 14 -14z"/>
<path d="M16400 2454 c-49 -45 -63 -68 -55 -94 8 -24 41 -26 90 -6 l35 15 0
-28 c0 -28 26 -61 48 -61 7 0 12 9 12 20 0 11 -5 20 -11 20 -7 0 -9 11 -5 30
3 17 9 44 12 60 8 37 -13 40 -56 10 -15 -11 -39 -24 -54 -30 l-26 -10 17 27
c9 14 32 32 51 40 36 15 38 36 4 41 -13 2 -36 -11 -62 -34z"/>
<path d="M4835 2464 c-68 -34 -76 -45 -77 -113 -1 -95 34 -114 46 -24 4 27 12
55 19 64 19 25 59 43 96 43 42 1 52 22 16 36 -36 14 -65 12 -100 -6z"/>
<path d="M12533 2458 c-41 -45 -55 -86 -43 -124 10 -30 16 -34 46 -34 42 0 89
23 104 49 43 81 -48 173 -107 109z m65 -58 c4 -28 -20 -50 -55 -50 -28 0 -28
6 -3 48 24 39 53 40 58 2z"/>
<path d="M3089 2411 c-34 -35 -36 -54 -9 -81 22 -22 42 -25 70 -10 15 8 21 6
30 -10 9 -16 19 -20 43 -18 37 3 45 31 11 36 -12 2 -26 14 -32 28 -11 23 -31
31 -46 17 -3 -4 -16 -8 -28 -10 -21 -3 -21 -3 -3 17 11 12 25 18 36 15 25 -8
36 15 14 32 -29 20 -54 16 -86 -16z"/>
<path d="M17257 2374 c-23 -12 -26 -18 -17 -29 10 -12 17 -12 43 -1 33 13 43
39 17 43 -8 1 -28 -4 -43 -13z"/>
<path d="M10807 2329 c-47 -36 -98 -152 -116 -262 l-16 -99 -50 -2 c-52 -1
-130 -34 -152 -64 -18 -22 -16 -73 3 -101 19 -27 71 -51 110 -51 17 0 39 13
64 38 44 44 64 100 85 247 20 130 72 241 125 266 43 21 45 43 4 47 -19 2 -40
-5 -57 -19z m-151 -412 c13 -35 -43 -117 -81 -117 -54 0 -84 59 -47 93 38 34
118 49 128 24z"/>
<path d="M6660 2338 c-4 -28 -94 -339 -120 -412 -23 -67 -26 -116 -7 -116 7 0
20 -9 30 -20 11 -14 29 -20 56 -20 33 0 44 7 78 43 23 25 48 66 58 96 17 52
17 53 -6 77 -12 13 -27 24 -33 24 -13 0 -49 -18 -88 -44 l-27 -17 20 63 c10
35 19 73 19 84 0 12 9 52 21 89 24 79 29 146 12 152 -7 3 -13 3 -13 1z m56
-422 c-28 -67 -54 -96 -88 -96 -30 0 -30 1 -25 36 7 43 29 69 77 94 44 23 56
13 36 -34z"/>
<path d="M17362 2289 c-9 -18 -31 -50 -48 -73 -17 -23 -47 -68 -67 -99 -40
-63 -42 -63 -141 -47 -43 7 -63 6 -73 -2 -19 -16 -10 -33 18 -34 13 0 47 -4
76 -8 l52 -8 -23 -47 c-56 -109 -28 -180 63 -165 31 5 41 11 41 26 0 15 -6 18
-36 16 -60 -4 -63 36 -9 127 23 41 28 44 73 47 34 2 47 7 47 18 0 10 -12 16
-32 18 l-33 3 35 55 c19 30 35 56 35 59 0 2 18 32 39 67 22 34 38 65 35 70
-11 18 -36 6 -52 -23z"/>
<path d="M10087 2277 c-8 -18 -31 -78 -51 -134 -37 -100 -38 -101 -74 -107
-20 -3 -46 -3 -58 0 -22 6 -50 -18 -40 -35 4 -5 31 -8 62 -6 48 3 55 1 49 -13
-23 -60 -47 -162 -42 -176 8 -19 26 -21 31 -3 2 6 16 53 31 104 32 102 32 103
126 103 42 0 58 4 63 15 8 22 -13 27 -83 23 l-59 -3 30 80 c16 44 34 94 40
110 6 17 15 35 20 42 5 7 7 17 3 23 -12 20 -35 10 -48 -23z"/>
<path d="M8610 2258 c-11 -23 -20 -51 -20 -61 0 -10 -21 -81 -46 -158 -38
-117 -44 -147 -38 -184 10 -72 68 -86 162 -39 82 41 100 96 49 152 -26 27 -61
28 -111 1 -21 -11 -40 -18 -42 -16 -4 4 53 204 77 272 27 75 1 103 -31 33z
m76 -316 c44 -30 5 -85 -70 -96 -26 -4 -50 -5 -53 -2 -12 12 21 66 51 86 33
21 54 25 72 12z"/>
<path d="M9732 2233 c-11 -32 -36 -95 -54 -140 l-33 -82 -51 -1 c-33 0 -56 -5
-64 -15 -19 -23 -4 -32 49 -27 l50 4 -20 -62 c-24 -77 -24 -90 -1 -90 14 0 23
18 40 75 l22 75 49 0 c28 0 53 5 57 11 11 18 -14 33 -51 31 -19 -2 -35 0 -35
3 0 3 23 61 50 127 28 66 50 127 50 134 0 8 -8 14 -19 14 -13 0 -24 -16 -39
-57z"/>
<path d="M3697 2273 c-3 -4 -8 -24 -12 -43 -3 -19 -13 -53 -20 -75 -8 -22 -21
-66 -30 -99 l-16 -58 -42 5 c-23 4 -51 7 -62 9 -12 2 -21 -4 -23 -14 -2 -12 7
-20 35 -27 21 -6 47 -11 59 -11 20 0 20 -1 7 -67 -17 -83 -14 -148 7 -148 11
0 17 17 22 65 4 36 12 86 18 111 10 42 14 47 61 63 27 10 49 24 49 31 0 7 10
19 23 28 17 12 19 18 10 28 -16 16 -63 -3 -63 -25 0 -15 -37 -32 -47 -23 -2 3
7 44 21 91 30 96 37 157 19 163 -6 2 -13 0 -16 -4z"/>
<path d="M11743 2268 c-6 -7 -14 -24 -18 -38 -7 -22 -40 -83 -101 -186 -15
-26 -27 -33 -69 -40 -34 -6 -50 -14 -50 -24 0 -11 11 -15 36 -15 l36 0 -24
-50 c-13 -30 -23 -69 -23 -97 0 -40 4 -50 25 -64 53 -35 215 2 215 48 0 23 -7
23 -55 -2 -23 -12 -59 -20 -87 -20 l-48 0 0 38 c0 23 13 64 31 102 l32 63 69
-7 c63 -6 69 -5 66 11 -2 13 -18 21 -56 28 l-52 10 50 101 c27 55 51 111 52
124 3 26 -14 37 -29 18z"/>
<path d="M13391 2207 c-11 -24 -24 -70 -31 -103 -22 -112 -60 -223 -86 -251
l-25 -28 6 85 c3 47 7 94 8 105 1 14 -5 21 -19 23 -17 2 -32 -12 -68 -62 -41
-58 -71 -86 -91 -86 -10 0 6 109 31 200 12 47 20 88 17 92 -11 20 -33 5 -42
-29 -5 -21 -17 -67 -27 -103 -22 -85 -24 -197 -5 -210 22 -13 61 11 112 68
l44 49 -3 -63 c-4 -72 9 -104 42 -104 51 0 86 66 132 253 20 78 42 152 50 165
8 12 12 27 9 32 -14 22 -37 8 -54 -33z"/>
<path d="M13710 2241 c-8 -5 -17 -8 -22 -5 -14 9 -75 -23 -96 -51 -12 -15 -22
-38 -22 -50 0 -30 40 -88 107 -157 33 -33 54 -62 50 -70 -6 -16 -90 -38 -144
-38 -19 0 -50 7 -69 16 -29 14 -32 20 -28 44 8 36 -10 46 -36 20 -27 -27 -25
-56 6 -85 49 -45 135 -56 233 -31 113 31 120 75 28 174 -78 83 -101 117 -93
137 3 9 31 27 61 41 46 21 59 24 71 13 19 -15 37 1 32 27 -4 21 -53 31 -78 15z"/>
<path d="M3089 2200 c-22 -22 -50 -62 -63 -88 -31 -61 -70 -188 -63 -206 6
-16 -25 -47 -65 -64 -16 -6 -28 -16 -28 -22 0 -22 31 -21 74 3 40 22 46 23 60
9 31 -32 163 -10 136 23 -8 10 -19 11 -42 4 -35 -9 -78 -2 -78 13 0 6 19 31
43 58 23 26 58 78 77 116 29 55 35 79 35 128 0 56 -2 61 -23 64 -17 3 -35 -8
-63 -38z m31 -101 c-19 -51 -97 -169 -112 -169 -13 0 42 157 61 170 4 3 20 23
37 44 36 49 43 30 14 -45z"/>
<path d="M12905 2198 c-30 -35 -100 -141 -168 -252 -7 -11 -38 -60 -70 -109
-32 -50 -56 -95 -54 -100 9 -29 31 -10 87 78 66 101 81 115 127 115 l29 0 1
-91 c1 -50 6 -96 11 -101 20 -20 32 4 32 63 0 63 27 213 61 337 31 112 9 135
-56 60z m-25 -178 c-10 -41 -18 -69 -19 -62 -1 6 -10 12 -21 12 -11 0 -20 3
-20 6 0 10 72 126 75 122 2 -2 -5 -37 -15 -78z"/>
<path d="M1995 2209 c-182 -13 -388 -38 -398 -48 -16 -16 1 -44 21 -36 28 12
230 34 317 35 120 2 240 22 240 40 0 19 -25 20 -180 9z"/>
<path d="M14690 2160 c-16 -33 -50 -109 -75 -170 -36 -89 -45 -122 -45 -171 0
-52 2 -60 18 -57 11 2 18 14 20 33 10 88 60 235 117 344 19 35 32 68 29 73
-13 21 -36 3 -64 -52z"/>
<path d="M15876 2209 c-97 -15 -176 -103 -191 -211 -6 -42 -11 -49 -33 -54
-47 -10 -54 -14 -49 -27 2 -6 19 -12 38 -12 19 0 38 -5 42 -12 4 -7 10 -47 14
-90 4 -58 2 -87 -10 -114 -18 -43 -74 -109 -93 -109 -8 0 -14 -9 -14 -20 0
-54 101 10 143 90 27 51 29 61 24 140 -3 47 -8 93 -12 104 -8 17 -3 18 71 15
64 -3 79 -1 79 11 0 18 -35 28 -104 29 l-54 1 7 41 c14 90 61 145 144 170 39
11 44 11 57 -7 17 -24 38 -7 33 26 -4 30 -31 38 -92 29z"/>
<path d="M17550 2125 c0 -14 29 -35 49 -35 17 0 13 37 -5 44 -26 10 -44 7 -44
-9z"/>
<path d="M9380 2115 c-13 -15 -7 -45 8 -45 15 0 44 38 37 49 -9 16 -30 14 -45
-4z"/>
<path d="M1815 2108 c-2 -7 -13 -47 -24 -88 -11 -41 -31 -114 -45 -163 -28
-99 -26 -157 5 -157 15 0 19 7 19 32 0 17 9 66 19 107 11 42 29 114 41 161 12
47 23 92 24 100 1 18 -33 26 -39 8z"/>
<path d="M8013 2094 c-21 -21 -24 -31 -18 -57 24 -114 13 -196 -28 -218 -32
-18 -52 16 -47 79 2 26 -21 30 -40 7 -16 -20 -7 -91 15 -115 40 -44 110 -28
142 33 17 32 23 123 13 201 -4 30 -1 41 13 50 15 9 21 7 37 -14 14 -19 22 -22
30 -14 27 27 -19 74 -71 74 -11 0 -31 -12 -46 -26z"/>
<path d="M4239 2052 c-25 -16 -48 -36 -52 -44 -3 -8 8 -34 24 -58 36 -54 38
-94 4 -116 -14 -9 -32 -13 -45 -9 -20 6 -20 8 -5 32 9 13 14 31 11 40 -5 12
-14 8 -46 -17 -22 -17 -40 -40 -40 -49 0 -31 35 -53 89 -54 40 -2 54 3 75 22
36 34 36 103 1 155 -14 21 -22 42 -19 48 4 6 27 19 51 30 24 11 42 25 40 31
-7 22 -42 18 -88 -11z"/>
<path d="M6906 2069 c-10 -6 -32 -41 -48 -76 -23 -51 -28 -74 -23 -103 7 -41
36 -74 75 -83 27 -7 110 11 110 24 0 4 12 20 27 33 37 34 20 55 -26 32 -17 -9
-31 -20 -31 -25 0 -13 -51 -20 -76 -11 -26 10 -41 43 -22 49 7 2 30 21 51 41
42 43 48 79 17 110 -23 23 -28 24 -54 9z m34 -55 c0 -3 -5 -14 -10 -25 -16
-28 -32 -23 -18 6 10 22 28 35 28 19z"/>
<path d="M5140 2048 c-174 -119 -112 -314 81 -256 26 7 39 17 39 28 0 15 -9
17 -67 13 -89 -6 -108 7 -104 75 1 29 93 122 119 122 11 0 22 -7 26 -15 3 -8
12 -15 20 -15 26 0 29 21 5 46 -29 31 -75 31 -119 2z"/>
<path d="M8925 2016 c-22 -17 -34 -21 -42 -14 -18 14 -38 -4 -74 -67 -60 -105
-26 -113 72 -18 l69 66 -6 -34 c-7 -36 -7 -37 -5 -56 2 -25 34 -13 87 32 28
25 55 45 58 45 3 0 6 -15 6 -33 0 -41 21 -72 43 -64 12 5 14 12 7 34 -5 15
-12 46 -17 68 -11 54 -33 55 -92 5 l-50 -41 10 37 c19 66 -11 84 -66 40z"/>
<path d="M3863 1998 c-78 -82 -84 -178 -14 -207 55 -23 184 9 155 39 -7 7 -25
7 -62 -1 -84 -20 -139 21 -74 55 36 19 90 72 97 97 18 54 -55 66 -102 17z m57
-16 c0 -12 -49 -56 -55 -50 -7 7 34 58 46 58 5 0 9 -4 9 -8z"/>
<path d="M8288 2013 c-9 -10 -36 -49 -60 -88 -25 -38 -62 -85 -82 -103 -23
-20 -36 -39 -32 -47 9 -23 23 -18 70 25 31 29 46 36 54 28 16 -16 57 -2 96 33
l35 30 -6 -34 c-5 -33 14 -67 38 -67 16 0 22 29 9 45 -10 12 -8 27 9 75 20 56
21 80 2 80 -4 0 -40 -29 -79 -65 -40 -36 -74 -65 -77 -65 -8 0 16 64 40 106
33 55 20 89 -17 47z"/>
<path d="M16496 1995 c-26 -19 -53 -35 -61 -35 -8 0 -18 -6 -22 -14 -4 -8 -23
-30 -40 -50 -35 -38 -43 -66 -18 -66 8 0 49 30 92 67 42 38 73 59 68 48 -4
-11 -10 -35 -13 -52 -4 -29 -1 -33 19 -33 13 0 58 20 100 43 l76 44 -5 -46
c-3 -34 0 -50 11 -60 23 -18 37 -5 31 27 -3 15 -1 47 5 72 17 74 1 78 -99 20
-46 -27 -86 -47 -87 -46 -2 2 4 23 12 46 28 78 3 90 -69 35z"/>
<path d="M16853 1976 c-39 -39 -54 -61 -51 -77 5 -37 32 -46 82 -28 42 15 45
15 49 -2 6 -23 35 -35 49 -21 8 8 8 15 -1 26 -10 12 -9 21 3 45 9 16 16 35 16
41 0 16 -36 12 -51 -7 -15 -18 -98 -57 -105 -50 -11 10 74 87 89 82 20 -8 32
12 17 30 -21 25 -41 17 -97 -39z"/>
<path d="M10315 2006 c-43 -20 -134 -109 -134 -132 0 -10 -3 -39 -7 -63 -6
-37 -4 -46 11 -58 24 -17 116 -17 140 0 27 20 3 31 -62 28 -62 -3 -65 6 -33
77 14 31 25 42 42 42 37 1 91 33 108 63 14 26 14 29 -4 43 -24 17 -23 17 -61
0z m15 -46 c-8 -5 -19 -10 -25 -10 -5 0 -3 5 5 10 8 5 20 10 25 10 6 0 3 -5
-5 -10z"/>
<path d="M2694 1982 c-21 -16 -45 -36 -53 -45 -9 -12 -18 -14 -31 -7 -26 14
-35 -3 -48 -86 -7 -39 -23 -109 -37 -157 -29 -101 -30 -113 -11 -120 22 -9 31
8 66 125 30 98 35 106 52 97 22 -12 93 18 122 50 30 33 56 114 43 136 -23 44
-50 45 -103 7z m62 -44 c-6 -37 -68 -98 -98 -98 -22 0 -22 3 -4 39 17 31 81
91 98 91 6 0 8 -12 4 -32z"/>
<path d="M5443 1987 c-29 -17 -63 -61 -63 -84 0 -45 45 -55 98 -23 18 11 34
20 35 20 1 0 3 -25 3 -56 1 -37 7 -61 18 -72 24 -25 41 -3 29 40 -11 38 -11
113 0 124 11 12 8 23 -13 44 -23 23 -73 26 -107 7z m47 -45 c-19 -10 -37 -17
-39 -15 -9 6 35 32 54 33 14 0 10 -5 -15 -18z"/>
<path d="M14201 1960 c-60 -48 -84 -81 -79 -111 5 -33 50 -61 105 -66 66 -5
168 17 168 37 0 13 -16 14 -95 12 -143 -5 -169 29 -74 97 37 27 51 32 79 27
40 -8 57 10 30 31 -35 25 -80 16 -134 -27z"/>
<path d="M2265 1978 c-2 -7 -15 -46 -30 -87 -24 -70 -27 -101 -7 -101 4 0 28
28 52 62 41 58 45 61 50 39 9 -37 23 -35 68 10 45 44 65 46 70 8 6 -56 13 -69
33 -69 17 0 20 4 15 30 -3 17 -9 43 -12 60 -8 40 -40 63 -68 48 -12 -6 -31
-19 -42 -30 -21 -19 -21 -19 -27 1 -6 23 -41 29 -53 9 -5 -7 -10 -4 -15 10 -9
24 -27 29 -34 10z"/>
<path d="M16148 1974 c-15 -8 -35 -29 -44 -47 -9 -17 -25 -40 -35 -50 -15 -14
-17 -21 -7 -42 13 -29 36 -33 44 -7 31 97 60 125 125 120 49 -4 65 17 24 32
-37 14 -75 12 -107 -6z"/>
<path d="M17440 1949 c-24 -46 -23 -82 3 -87 12 -2 17 3 17 19 0 12 9 37 21
55 11 19 18 38 14 44 -13 21 -35 9 -55 -31z"/>
<path d="M17971 1960 c-30 -16 -69 -41 -88 -56 l-33 -25 2 33 c2 24 -1 33 -14
36 -11 2 -18 -3 -18 -11 0 -8 -13 -41 -30 -72 -47 -89 -16 -103 68 -31 47 40
150 106 166 106 3 0 6 -18 6 -39 0 -28 8 -49 26 -71 32 -37 55 -27 36 15 -7
14 -12 43 -12 63 0 39 -23 82 -43 82 -7 0 -36 -14 -66 -30z"/>
<path d="M3292 1957 c-26 -28 -44 -84 -36 -110 10 -32 52 -40 95 -19 31 15 39
16 43 6 3 -8 14 -14 25 -14 18 0 20 5 14 53 -8 72 -18 78 -54 34 -54 -66 -95
-74 -78 -15 12 43 25 54 44 38 26 -22 43 4 20 30 -24 26 -46 25 -73 -3z"/>
<path d="M5655 1953 c-4 -16 -13 -55 -21 -88 -8 -33 -16 -67 -17 -75 -3 -24
29 -23 40 2 19 39 114 138 133 138 16 0 18 -7 13 -60 -5 -55 -4 -60 14 -60 17
0 22 11 32 61 11 52 10 64 -4 85 -8 13 -22 24 -30 24 -26 0 -70 -21 -97 -47
l-27 -26 6 36 c5 33 3 37 -16 37 -14 0 -22 -8 -26 -27z"/>
<path d="M11875 1937 c-27 -47 -32 -86 -13 -105 35 -35 164 10 183 62 8 25 6
31 -23 57 -25 23 -42 29 -77 29 -42 0 -46 -3 -70 -43z m121 -12 c19 -15 19
-15 -4 -35 -25 -20 -88 -37 -100 -26 -3 4 2 22 13 41 20 39 56 47 91 20z"/>
<path d="M1970 1942 c-32 -33 -47 -92 -34 -131 13 -38 76 -66 123 -55 22 6 37
16 39 27 3 16 -1 18 -40 12 -36 -6 -48 -3 -68 15 -20 17 -22 23 -11 27 50 20
78 92 49 121 -18 18 -26 15 -58 -16z m21 -45 c-10 -9 -11 -8 -5 6 3 10 9 15
12 12 3 -3 0 -11 -7 -18z"/>
<path d="M9280 1938 c-27 -43 -35 -77 -22 -90 16 -16 42 -2 42 22 0 12 7 34
15 51 28 54 -3 68 -35 17z"/>
<path d="M14747 1963 c-9 -2 -26 -24 -37 -48 -36 -79 -21 -135 36 -137 52 -2
124 48 124 86 0 32 -37 85 -66 96 -26 10 -28 11 -57 3z m83 -93 c0 -16 -53
-50 -78 -50 -23 0 -24 3 -19 37 4 22 16 45 29 55 22 17 24 17 46 -8 12 -14 22
-29 22 -34z"/>
<path d="M15021 1928 c-25 -42 -85 -98 -133 -127 -40 -24 -47 -38 -24 -47 14
-6 84 33 122 68 15 13 24 16 29 8 4 -7 22 -9 51 -4 35 5 44 3 44 -8 0 -26 39
-54 57 -42 25 16 27 35 5 41 -15 3 -19 13 -18 36 1 35 -10 38 -71 19 l-33 -11
15 37 c27 64 -7 88 -44 30z"/>
<path d="M17622 1917 c-79 -80 -61 -144 37 -135 66 6 81 20 81 73 0 32 -7 52
-26 74 -14 17 -31 31 -38 31 -6 0 -31 -19 -54 -43z m72 -23 c3 -9 6 -26 6 -40
0 -29 -37 -42 -70 -24 l-21 11 28 34 c31 37 48 43 57 19z"/>
<path d="M15919 1912 c-24 -16 -50 -41 -58 -55 -13 -25 -13 -30 5 -54 26 -35
77 -48 116 -32 36 15 50 47 39 87 -10 33 -40 82 -50 82 -4 0 -27 -13 -52 -28z
m60 -54 c10 -28 9 -35 -6 -46 -10 -7 -29 -10 -43 -7 -44 11 -47 24 -12 56 18
16 36 29 41 29 5 0 14 -15 20 -32z"/>
<path d="M1505 1778 c-26 -30 -27 -36 -21 -98 4 -36 11 -69 16 -74 18 -18 30
7 29 62 -1 58 11 105 31 117 5 3 8 11 5 16 -11 17 -33 9 -60 -23z"/>
<path d="M9103 1758 c-15 -18 -31 -74 -39 -133 -9 -71 -17 -81 -67 -88 -62 -9
-97 -24 -97 -43 0 -14 7 -15 35 -10 19 3 51 9 70 12 43 8 43 9 4 -130 -21 -76
-27 -112 -19 -120 19 -19 32 10 66 141 l32 128 49 5 c35 4 49 10 51 23 3 14
-4 17 -46 17 l-49 0 12 68 c7 37 17 80 24 95 16 40 -3 64 -26 35z"/>
<path d="M12713 1750 c-62 -38 -126 -154 -140 -256 -4 -34 -10 -44 -27 -46
-27 -4 -35 -38 -8 -38 18 0 20 -7 18 -72 -1 -59 2 -73 14 -73 11 0 17 18 23
69 9 81 18 96 62 96 59 0 96 11 93 29 -3 13 -15 15 -66 12 -37 -2 -62 1 -62 7
0 5 9 39 20 74 32 104 102 186 135 158 30 -25 48 16 19 44 -21 21 -42 20 -81
-4z"/>
<path d="M13780 1734 c-6 -14 -10 -31 -10 -38 0 -35 -46 -178 -86 -268 -24
-56 -42 -108 -40 -115 10 -24 32 -13 68 35 46 59 106 117 114 110 3 -3 1 -32
-5 -64 -17 -88 -15 -126 6 -122 23 4 52 191 33 213 -18 22 -49 18 -86 -10
l-33 -25 24 71 c30 87 58 217 50 230 -11 16 -25 10 -35 -17z"/>
<path d="M2829 1693 c-12 -27 -29 -81 -40 -122 -10 -41 -21 -77 -24 -79 -3 -3
-33 -8 -67 -11 -47 -4 -63 -10 -63 -21 0 -12 14 -15 63 -15 38 0 62 -4 62 -11
0 -25 -23 -131 -32 -151 -6 -12 -8 -29 -4 -39 6 -15 9 -15 31 6 16 15 25 35
25 54 1 17 6 58 13 90 12 59 13 59 57 70 31 8 46 17 48 30 4 17 -1 18 -41 12
l-45 -7 9 40 c5 22 20 71 34 108 14 37 23 73 21 80 -10 25 -27 13 -47 -34z"/>
<path d="M3005 1728 c-2 -7 -18 -69 -35 -138 -17 -69 -42 -160 -57 -202 -35
-107 -20 -143 30 -70 35 50 125 137 133 129 4 -3 1 -26 -5 -51 -16 -65 -15
-126 4 -126 8 0 17 10 19 23 19 90 27 158 21 176 -11 35 -55 27 -109 -20 -45
-40 -46 -40 -35 -12 19 51 70 277 65 290 -7 17 -25 17 -31 1z"/>
<path d="M9652 1718 c-13 -17 -99 -256 -120 -333 -18 -72 -11 -115 19 -115 18
0 20 4 15 26 -4 14 -4 41 0 60 5 28 18 42 75 80 59 39 74 45 111 42 39 -3 43
-6 46 -32 4 -31 -24 -116 -38 -116 -15 0 -19 -41 -4 -47 19 -7 41 17 64 72 41
96 17 165 -56 165 l-37 0 38 30 c21 17 53 40 72 51 36 23 44 49 14 49 -23 0
-115 -66 -198 -144 l-63 -58 35 95 c19 53 41 111 49 131 12 28 12 37 2 46 -10
7 -16 7 -24 -2z"/>
<path d="M13559 1693 c-7 -15 -26 -68 -43 -118 l-32 -90 -46 -5 c-53 -6 -63
-13 -55 -34 4 -10 16 -13 46 -9 l39 5 -19 -73 c-23 -87 -24 -115 -4 -123 19
-7 28 12 49 99 9 39 21 77 26 84 5 9 37 18 76 23 69 8 107 29 88 48 -6 6 -21
6 -44 0 -19 -6 -49 -10 -67 -10 -31 0 -32 1 -26 33 3 17 14 57 25 87 24 66 27
102 11 107 -7 3 -18 -8 -24 -24z"/>
<path d="M8000 1684 c-6 -14 -10 -30 -10 -36 0 -6 -25 -86 -56 -179 -58 -175
-63 -214 -29 -214 15 0 19 6 18 23 -2 12 15 75 37 140 49 142 83 269 75 282
-11 17 -25 11 -35 -16z"/>
<path d="M8145 1658 c-4 -18 -31 -107 -62 -197 -43 -127 -53 -171 -48 -198 7
-41 38 -43 43 -3 1 14 16 72 33 130 63 215 69 236 71 265 4 44 -28 47 -37 3z"/>
<path d="M16586 1648 c-7 -31 6 -41 37 -29 30 12 33 21 15 39 -19 19 -45 14
-52 -10z"/>
<path d="M17483 1655 c-7 -21 27 -59 40 -46 7 7 7 19 -1 36 -13 28 -30 33 -39
10z"/>
<path d="M16035 1630 c-9 -14 41 -64 55 -55 17 10 11 44 -9 55 -25 13 -38 13
-46 0z"/>
<path d="M4494 1565 c-21 -21 -23 -30 -18 -67 4 -24 15 -61 25 -83 23 -50 23
-64 3 -94 -23 -32 -35 -11 -33 59 1 78 1 80 -16 80 -54 0 -42 -187 14 -205 25
-8 53 7 80 41 27 35 26 62 -4 151 -14 41 -23 77 -21 82 13 20 61 19 84 -2 28
-26 51 -11 31 21 -29 47 -106 56 -145 17z"/>
<path d="M5574 1555 c-9 -23 5 -36 34 -29 40 10 44 14 31 30 -15 18 -58 18
-65 -1z"/>
<path d="M7744 1559 c-9 -15 12 -33 30 -26 9 4 16 13 16 22 0 17 -35 21 -46 4z"/>
<path d="M15009 1542 c-24 -16 -65 -52 -91 -81 -45 -49 -47 -51 -45 -24 1 19
-3 28 -12 28 -12 0 -87 -225 -141 -420 -5 -21 0 -35 14 -35 8 0 25 30 42 73
69 184 66 179 116 181 32 1 56 10 81 29 96 73 162 238 108 267 -25 13 -20 14
-72 -18z m51 -37 c0 -51 -72 -149 -133 -182 -35 -18 -46 -10 -22 17 10 11 15
28 12 39 -4 15 11 35 58 80 64 62 85 73 85 46z"/>
<path d="M4757 1508 c-50 -62 -67 -101 -67 -151 0 -57 28 -93 82 -108 67 -17
143 6 117 37 -8 10 -16 11 -30 3 -29 -15 -107 -1 -119 22 -20 36 -12 66 24 87
42 25 68 72 64 115 -4 47 -30 45 -71 -5z"/>
<path d="M7360 1543 c-20 -8 -95 -59 -114 -79 -21 -20 -20 -43 0 -51 11 -4 24
5 41 26 22 27 70 61 88 61 10 0 -5 -41 -46 -122 -61 -122 -51 -137 40 -60 96
81 90 79 89 34 -2 -128 108 -136 142 -11 18 66 18 103 -1 107 -13 2 -19 -11
-29 -62 -12 -65 -41 -109 -60 -90 -5 5 -10 40 -12 79 -4 86 -18 93 -78 39
l-41 -37 21 52 c25 65 26 97 1 111 -11 5 -21 10 -23 9 -2 0 -10 -3 -18 -6z"/>
<path d="M10028 1531 c-13 -11 -32 -35 -43 -54 -10 -20 -27 -38 -37 -40 -19
-5 -24 -32 -8 -42 6 -3 10 -17 10 -30 0 -13 11 -36 23 -51 21 -24 30 -27 83
-25 78 2 126 18 122 39 -2 10 -12 16 -23 14 -79 -12 -115 -13 -134 -3 -30 16
-26 48 7 65 44 23 92 72 92 94 0 25 -25 52 -49 52 -10 0 -29 -9 -43 -19z m42
-35 c0 -2 -8 -10 -17 -17 -16 -13 -17 -12 -4 4 13 16 21 21 21 13z"/>
<path d="M3276 1511 c-61 -64 -67 -195 -9 -240 44 -35 167 -26 185 14 6 13 21
29 34 36 24 13 31 33 15 43 -13 9 -70 -26 -77 -46 -7 -23 -38 -31 -82 -23 -68
13 -84 53 -33 80 61 31 81 105 41 145 -27 27 -41 25 -74 -9z m54 -53 c0 -14
-30 -48 -42 -48 -11 0 -1 39 14 57 11 14 28 8 28 -9z"/>
<path d="M10835 1528 c-32 -17 -95 -80 -111 -110 -45 -86 19 -159 124 -143 33
5 42 10 40 23 -2 12 -15 18 -45 19 -56 2 -83 18 -83 48 0 29 59 99 103 121 26
14 31 14 48 -1 18 -17 49 -14 49 4 0 17 -52 51 -79 51 -14 0 -35 -6 -46 -12z"/>
<path d="M16250 1533 c-74 -9 -91 -64 -40 -128 17 -21 30 -44 30 -51 0 -22
-35 -35 -65 -24 -20 8 -27 7 -32 -6 -8 -21 15 -42 54 -50 27 -5 37 -1 63 24
39 40 39 76 -1 125 -34 41 -33 66 3 68 13 1 30 2 40 3 27 2 34 17 14 32 -11 8
-22 13 -25 12 -3 0 -22 -3 -41 -5z"/>
<path d="M6097 1499 c-51 -34 -103 -121 -91 -155 21 -66 71 -104 137 -104 68
0 207 91 207 135 0 38 -21 41 -49 7 -38 -44 -119 -92 -157 -92 -47 0 -83 16
-93 42 -11 30 -2 61 16 54 18 -7 82 19 110 46 25 23 29 48 13 79 -15 27 -39
24 -93 -12z m63 -24 c0 -16 -55 -48 -73 -42 -6 2 7 15 28 30 46 32 45 31 45
12z"/>
<path d="M11337 1501 c-18 -16 -41 -29 -51 -28 -14 2 -22 -16 -43 -97 -23 -91
-22 -126 2 -108 6 4 30 49 55 101 52 108 72 126 130 117 35 -5 40 -4 40 13 0
42 -85 43 -133 2z"/>
<path d="M15758 1519 c-10 -5 -36 -45 -58 -88 -22 -43 -54 -90 -70 -106 l-29
-27 -10 38 c-5 22 -11 48 -13 59 -4 25 -31 27 -36 3 -2 -10 4 -43 13 -73 12
-44 20 -56 41 -61 34 -9 81 37 120 114 48 98 61 113 90 102 14 -6 30 -8 35 -4
17 10 9 33 -13 39 -47 14 -53 14 -70 4z"/>
<path d="M17645 1511 c-46 -28 -136 -133 -133 -155 4 -26 26 -32 34 -9 9 25
125 143 141 143 16 0 17 5 -7 -58 -24 -64 -26 -112 -5 -112 9 0 17 6 19 13 2
6 13 45 25 85 12 40 19 81 16 92 -8 26 -50 26 -90 1z"/>
<path d="M5036 1487 c-30 -32 -62 -105 -68 -157 -5 -42 28 -37 47 7 47 110 59
128 90 131 39 5 52 17 35 37 -22 27 -69 19 -104 -18z"/>
<path d="M5761 1502 c-46 -23 -73 -62 -73 -106 0 -63 59 -106 146 -106 54 0
76 8 76 26 0 10 -13 14 -44 14 -52 0 -112 23 -124 47 -13 25 1 57 38 83 30 21
32 22 45 4 19 -26 40 -5 31 30 -8 31 -43 34 -95 8z"/>
<path d="M15166 1489 c-26 -30 -29 -40 -41 -110 -6 -42 9 -93 28 -86 6 2 12
19 13 38 1 48 21 114 39 129 10 8 29 10 55 6 34 -5 40 -4 40 12 0 29 -21 42
-66 42 -35 0 -47 -5 -68 -31z"/>
<path d="M14051 1474 c-80 -72 -111 -161 -75 -213 15 -21 22 -23 74 -18 68 6
150 39 150 61 0 18 -22 21 -49 7 -9 -5 -45 -13 -79 -17 -62 -7 -62 -6 -62 19
0 19 10 31 43 50 43 26 87 76 87 100 0 14 -31 47 -43 47 -4 0 -25 -16 -46 -36z
m49 -17 c0 -2 -14 -16 -32 -33 l-31 -29 23 33 c20 27 40 42 40 29z"/>
<path d="M1625 1495 c-5 -2 -22 -6 -36 -9 -33 -7 -89 -61 -89 -85 0 -20 39
-51 65 -51 14 0 13 -4 -4 -26 -12 -15 -21 -40 -21 -56 0 -34 34 -88 55 -88 25
0 27 21 6 44 l-22 23 22 50 c17 40 30 54 65 71 30 15 44 28 44 42 0 26 -25 26
-68 0 -33 -21 -87 -27 -96 -11 -11 17 34 44 91 55 39 8 58 17 58 26 0 14 -46
24 -70 15z"/>
<path d="M5363 1473 c-11 -16 -37 -64 -58 -108 l-40 -80 -5 85 c-4 67 -8 85
-20 85 -12 0 -16 -17 -18 -82 -3 -98 7 -126 46 -121 23 3 34 17 74 98 26 52
56 101 67 108 11 8 17 20 14 28 -9 23 -40 16 -60 -13z"/>
<path d="M11090 1488 c-37 -14 -80 -59 -80 -84 0 -41 33 -51 92 -29 10 4 14
-3 13 -22 0 -20 5 -28 18 -28 9 0 17 2 17 5 -1 3 8 23 19 45 18 38 18 65 0 65
-4 0 -6 6 -3 13 10 27 -39 49 -76 35z m40 -61 c-82 -31 -109 -24 -48 13 25 15
36 17 52 8 20 -11 20 -11 -4 -21z"/>
<path d="M16738 1484 c-34 -19 -76 -69 -85 -102 -8 -34 16 -76 46 -80 35 -5
110 27 128 54 20 32 11 80 -24 116 -30 31 -28 31 -65 12z m53 -61 c13 -36 6
-50 -35 -69 -68 -33 -88 6 -32 62 41 41 53 42 67 7z"/>
<path d="M17075 1488 c-11 -6 -32 -22 -46 -35 -14 -13 -38 -27 -53 -31 -34 -9
-76 -76 -59 -93 8 -8 32 7 89 55 42 36 79 64 82 61 3 -2 0 -10 -6 -17 -17 -21
-25 -84 -13 -107 14 -26 61 -28 96 -5 40 26 32 47 -15 42 -22 -2 -40 -1 -40 3
0 4 7 29 16 57 24 74 5 101 -51 70z"/>
<path d="M17404 1492 c-17 -12 -74 -120 -74 -142 0 -29 29 -25 41 7 5 14 23
46 40 71 25 37 28 47 17 58 -7 7 -18 10 -24 6z"/>
<path d="M11583 1471 c-85 -39 -132 -151 -82 -197 40 -36 229 -5 237 40 4 17
0 18 -29 11 -56 -13 -143 -22 -161 -17 -29 7 -21 27 15 40 19 7 53 30 76 51
75 69 38 115 -56 72z m31 -42 c-10 -11 -28 -25 -39 -31 -12 -5 -7 3 13 21 37
35 55 42 26 10z"/>
<path d="M12372 1478 c-7 -7 -12 -18 -12 -25 0 -6 -6 -16 -14 -20 -25 -15 -56
-78 -56 -115 0 -47 33 -73 79 -63 42 9 91 67 91 108 -1 65 -61 142 -88 115z
m36 -80 c30 -30 0 -92 -50 -104 -26 -6 -28 -4 -28 22 0 34 34 94 53 94 7 0 18
-5 25 -12z"/>
<path d="M15355 1480 c-8 -14 3 -30 21 -30 27 0 17 -68 -15 -101 -49 -48 -70
-33 -30 22 20 29 20 59 -1 59 -21 0 -61 -77 -58 -112 2 -28 7 -34 31 -36 32
-4 88 28 111 63 18 27 21 97 6 126 -11 20 -54 26 -65 9z"/>
<path d="M16464 1458 c-9 -18 -25 -43 -36 -55 -22 -23 -18 -53 6 -53 16 0 89
117 80 131 -11 19 -34 8 -50 -23z"/>
<path d="M15977 1453 c-25 -29 -61 -133 -49 -145 17 -17 42 -1 42 25 0 13 11
45 25 71 32 59 20 90 -18 49z"/>
<path d="M17929 1445 c-82 -43 -122 -113 -84 -145 11 -9 37 -11 91 -7 68 6 75
5 70 -11 -2 -9 -7 -37 -11 -62 -11 -77 -25 -110 -48 -114 -12 -2 -51 -9 -86
-16 -72 -13 -149 -48 -181 -82 -31 -33 -27 -94 13 -169 52 -102 115 -123 187
-62 42 35 74 93 109 198 28 85 32 90 63 97 102 22 168 66 148 98 -8 12 -11 12
-28 -3 -15 -14 -113 -47 -139 -47 -11 0 5 133 26 210 22 87 18 134 -10 127
-11 -3 -22 -1 -25 4 -9 15 -47 9 -95 -16z m85 -57 c-13 -41 -19 -46 -52 -52
-47 -7 -92 -8 -92 0 0 19 26 47 63 65 39 21 89 38 94 34 2 -1 -4 -22 -13 -47z
m-83 -428 c-34 -92 -70 -146 -108 -161 -35 -13 -55 1 -86 63 -44 86 -36 113
42 153 39 19 174 46 179 35 1 -4 -11 -44 -27 -90z"/>
<path d="M9230 1414 c-52 -49 -60 -72 -34 -98 21 -21 57 -20 106 4 23 11 43
20 44 20 2 0 4 -15 6 -32 2 -26 8 -34 26 -36 21 -3 22 -1 16 37 -5 29 -2 48
10 65 19 31 21 56 3 56 -8 0 -34 -16 -58 -35 -25 -19 -60 -38 -78 -41 -31 -7
-32 -6 -20 19 12 27 40 45 79 49 41 5 31 32 -12 36 -33 3 -44 -3 -88 -44z"/>
<path d="M5504 1419 c-13 -21 -33 -120 -27 -135 3 -8 13 -14 23 -14 14 0 19
12 24 58 3 31 7 66 9 76 2 22 -18 33 -29 15z"/>
<path d="M7686 1394 c-9 -9 -16 -32 -16 -55 0 -33 3 -40 18 -37 11 2 18 14 20
33 2 17 8 35 14 42 10 13 3 33 -12 33 -5 0 -16 -7 -24 -16z"/>
<path d="M1530 957 c-14 -62 -11 -91 11 -95 12 -2 18 9 23 45 3 26 9 60 12 76
5 22 3 27 -13 27 -16 0 -23 -11 -33 -53z"/>
</g>
</svg>
