<?xml version="1.0" standalone="no"?>
<!DOCTYPE svg PUBLIC "-//W3C//DTD SVG 20010904//EN"
 "http://www.w3.org/TR/2001/REC-SVG-20010904/DTD/svg10.dtd">
<svg version="1.0" xmlns="http://www.w3.org/2000/svg"
 width="100.000000pt" height="96.000000pt" viewBox="0 0 100.000000 96.000000"
 preserveAspectRatio="xMidYMid meet">

<g transform="translate(0.000000,96.000000) scale(0.100000,-0.100000)"
fill="#000000" stroke="none">
<path d="M372 903 c-46 -22 -97 -86 -112 -137 -6 -24 -12 -73 -13 -109 -1 -37
-5 -67 -9 -67 -12 0 -19 -39 -13 -74 5 -24 11 -33 21 -29 17 6 19 -13 2 -21
-9 -4 -6 -10 10 -22 12 -9 22 -24 23 -33 0 -9 17 -49 37 -90 53 -106 75 -117
196 -99 l91 13 33 64 c32 64 41 98 22 86 -5 -3 -10 1 -10 10 0 9 -5 13 -11 10
-6 -4 -8 -14 -5 -22 4 -9 -3 -23 -15 -34 -19 -17 -20 -19 -4 -19 15 0 15 -2 5
-16 -8 -8 -22 -20 -33 -26 -22 -11 -139 -14 -156 -3 -22 13 -10 25 27 25 38 0
83 22 70 35 -3 4 -26 9 -50 13 l-43 6 40 7 c22 5 59 8 83 8 36 1 44 5 52 27
12 31 2 47 -44 71 -17 9 -25 18 -18 20 19 7 14 20 -8 26 -17 4 -20 2 -14 -15
3 -11 17 -36 30 -55 29 -43 30 -53 7 -54 -10 0 -37 -2 -60 -5 -25 -2 -43 0
-43 6 0 6 4 10 9 10 15 0 61 46 54 53 -3 4 -21 7 -39 7 -53 0 -64 8 -54 38 5
15 11 39 14 55 4 18 13 27 26 27 11 0 20 -6 20 -14 0 -8 5 -18 11 -22 9 -5 10
1 5 22 l-8 29 24 -22 c14 -13 35 -23 49 -22 13 0 18 3 12 6 -27 10 -12 25 18
19 25 -5 30 -3 25 9 -3 9 1 15 11 15 12 0 14 -7 9 -32 l-6 -33 23 28 c25 30
37 27 37 -9 0 -13 4 -25 9 -28 17 -11 3 192 -17 237 -27 60 -70 107 -117 128
-51 24 -157 25 -203 2z m188 -21 c69 -34 130 -144 130 -233 0 -37 -2 -40 -22
-33 -13 4 -34 15 -47 25 -24 19 -77 25 -97 11 -6 -4 -13 -15 -17 -24 -9 -26
-50 -23 -62 5 -9 20 -16 22 -73 19 -60 -3 -63 -2 -58 16 4 11 2 23 -4 27 -6 3
-7 11 -4 17 4 6 1 14 -6 18 -10 6 -9 17 4 52 21 50 40 74 81 99 39 25 128 25
175 1z m-208 -338 c7 2 26 7 42 11 26 5 28 4 17 -9 -8 -9 -23 -16 -35 -17 -20
0 -21 -1 -1 -9 16 -7 17 -9 3 -9 -9 -1 -20 -6 -24 -12 -4 -8 0 -9 15 -4 15 5
21 2 21 -9 0 -11 -10 -16 -31 -16 -24 0 -30 4 -25 16 3 8 2 12 -4 9 -6 -3 -10
-1 -10 4 0 6 -5 11 -11 11 -12 0 -39 25 -39 36 0 5 5 3 12 -4 17 -17 28 -15
21 4 -5 14 -3 15 15 5 11 -6 27 -9 34 -7z m-75 -56 c-3 -8 -6 -5 -6 6 -1 11 2
17 5 13 3 -3 4 -12 1 -19z"/>
</g>
</svg>
